<svg width="50" height="49" viewBox="0 0 50 49" fill="none" xmlns="http://www.w3.org/2000/svg">
<rect width="49" height="48" transform="translate(0.337891 0.318359)" fill="white" fill-opacity="0.01" style="mix-blend-mode:multiply"/>
<path d="M37.0879 45.3184C35.2708 45.3184 33.4945 44.7905 31.9836 43.8016C30.4727 42.8127 29.2951 41.407 28.5998 39.7625C27.9044 38.118 27.7224 36.3084 28.0769 34.5625C28.4314 32.8167 29.3065 31.2131 30.5914 29.9544C31.8762 28.6957 33.5133 27.8386 35.2955 27.4913C37.0777 27.144 38.925 27.3223 40.6038 28.0034C42.2826 28.6846 43.7175 29.8382 44.727 31.3182C45.7366 32.7983 46.2754 34.5383 46.2754 36.3184C46.2727 38.7045 45.3038 40.9921 43.5814 42.6794C41.859 44.3666 39.5237 45.3157 37.0879 45.3184ZM37.0879 30.3184C35.8765 30.3184 34.6923 30.6703 33.685 31.3295C32.6778 31.9888 31.8927 32.9259 31.4291 34.0223C30.9655 35.1186 30.8442 36.325 31.0806 37.4889C31.3169 38.6528 31.9003 39.7219 32.7569 40.561C33.6135 41.4001 34.7048 41.9716 35.893 42.2031C37.0811 42.4346 38.3126 42.3158 39.4318 41.8616C40.551 41.4075 41.5076 40.6385 42.1806 39.6518C42.8537 38.6651 43.2129 37.5051 43.2129 36.3184C43.2111 34.7276 42.5652 33.2025 41.4169 32.0777C40.2686 30.9529 38.7118 30.3202 37.0879 30.3184Z" fill="#1D77FE"/>
<path d="M18.7129 23.7034L14.747 19.8184L12.5879 21.9334L18.7129 27.9334L29.4316 17.4334L27.2726 15.3184L18.7129 23.7034Z" fill="#1D77FE"/>
<path d="M21.7754 36.3184C18.7469 36.3184 15.7864 35.4386 13.2682 33.7904C10.7501 32.1422 8.78746 29.7995 7.62849 27.0586C6.46953 24.3177 6.16629 21.3017 6.75712 18.392C7.34796 15.4823 8.80633 12.8096 10.9478 10.7118C13.0893 8.61398 15.8177 7.18537 18.7881 6.60659C21.7584 6.02781 24.8372 6.32486 27.6352 7.46017C30.4332 8.59549 32.8247 10.5181 34.5073 12.9848C36.1898 15.4516 37.0879 18.3516 37.0879 21.3184H40.1504C40.1504 17.7583 39.0727 14.2782 37.0536 11.3181C35.0346 8.35802 32.1648 6.05091 28.8072 4.68854C25.4496 3.32616 21.755 2.9697 18.1906 3.66423C14.6262 4.35877 11.3521 6.0731 8.78231 8.59044C6.21252 11.1078 4.46247 14.3151 3.75347 17.8067C3.04447 21.2984 3.40835 24.9176 4.79911 28.2067C6.18987 31.4957 8.54504 34.307 11.5668 36.2848C14.5885 38.2627 18.1412 39.3184 21.7754 39.3184V36.3184Z" fill="#1D77FE"/>
</svg>
