<svg width="50" height="49" viewBox="0 0 50 49" fill="none" xmlns="http://www.w3.org/2000/svg">
<rect width="49" height="48" transform="translate(0.337891 0.796875)" fill="white" fill-opacity="0.01" style="mix-blend-mode:multiply"/>
<path d="M43.2129 9.79688H23.3066V12.7969H43.2129V9.79688Z" fill="#1D77FE"/>
<path d="M43.2129 36.7969H23.3066V39.7969H43.2129V36.7969Z" fill="#1D77FE"/>
<path d="M26.3691 23.2969H6.46289V26.2969H26.3691V23.2969Z" fill="#1D77FE"/>
<path d="M11.0566 17.2969C9.84523 17.2969 8.66103 16.945 7.65378 16.2857C6.64652 15.6264 5.86147 14.6893 5.39788 13.593C4.93429 12.4966 4.813 11.2902 5.04933 10.1263C5.28567 8.96245 5.86902 7.89335 6.72561 7.05424C7.58221 6.21512 8.67358 5.64368 9.86171 5.41217C11.0498 5.18065 12.2814 5.29947 13.4006 5.7536C14.5198 6.20773 15.4764 6.97676 16.1494 7.96346C16.8224 8.95015 17.1816 10.1102 17.1816 11.2969C17.1816 12.8882 16.5363 14.4143 15.3877 15.5395C14.239 16.6647 12.6811 17.2969 11.0566 17.2969ZM11.0566 8.29688C10.4509 8.29688 9.85883 8.47282 9.35521 8.80247C8.85158 9.13211 8.45905 9.60065 8.22726 10.1488C7.99547 10.697 7.93482 11.3002 8.05299 11.8821C8.17115 12.4641 8.46283 12.9986 8.89113 13.4182C9.31943 13.8378 9.86511 14.1235 10.4592 14.2392C11.0532 14.355 11.669 14.2956 12.2286 14.0685C12.7882 13.8415 13.2665 13.4569 13.603 12.9636C13.9395 12.4702 14.1191 11.8902 14.1191 11.2969C14.1191 10.5012 13.7965 9.73817 13.2222 9.17556C12.6478 8.61295 11.8689 8.29688 11.0566 8.29688Z" fill="#1D77FE"/>
<path d="M11.0566 44.2969C9.84523 44.2969 8.66103 43.945 7.65378 43.2857C6.64652 42.6264 5.86147 41.6893 5.39788 40.593C4.93429 39.4966 4.813 38.2902 5.04933 37.1263C5.28567 35.9624 5.86902 34.8934 6.72561 34.0542C7.58221 33.2151 8.67358 32.6437 9.86171 32.4122C11.0498 32.1807 12.2814 32.2995 13.4006 32.7536C14.5198 33.2077 15.4764 33.9768 16.1494 34.9635C16.8224 35.9501 17.1816 37.1102 17.1816 38.2969C17.1816 39.8882 16.5363 41.4143 15.3877 42.5395C14.239 43.6647 12.6811 44.2969 11.0566 44.2969ZM11.0566 35.2969C10.4509 35.2969 9.85883 35.4728 9.35521 35.8025C8.85158 36.1321 8.45905 36.6006 8.22726 37.1488C7.99547 37.697 7.93482 38.3002 8.05299 38.8821C8.17115 39.4641 8.46283 39.9986 8.89113 40.4182C9.31943 40.8378 9.86511 41.1235 10.4592 41.2392C11.0532 41.355 11.669 41.2956 12.2286 41.0685C12.7882 40.8415 13.2665 40.4569 13.603 39.9636C13.9395 39.4702 14.1191 38.8902 14.1191 38.2969C14.1191 37.5012 13.7965 36.7382 13.2222 36.1756C12.6478 35.6129 11.8689 35.2969 11.0566 35.2969Z" fill="#1D77FE"/>
<path d="M38.6191 30.7969C37.4077 30.7969 36.2235 30.445 35.2163 29.7857C34.209 29.1264 33.424 28.1893 32.9604 27.093C32.4968 25.9966 32.3755 24.7902 32.6118 23.6263C32.8482 22.4625 33.4315 21.3934 34.2881 20.5542C35.1447 19.7151 36.2361 19.1437 37.4242 18.9122C38.6123 18.6807 39.8439 18.7995 40.9631 19.2536C42.0823 19.7077 43.0389 20.4768 43.7119 21.4635C44.3849 22.4502 44.7441 23.6102 44.7441 24.7969C44.7441 26.3882 44.0988 27.9143 42.9502 29.0395C41.8015 30.1647 40.2436 30.7969 38.6191 30.7969ZM38.6191 21.7969C38.0134 21.7969 37.4213 21.9728 36.9177 22.3025C36.4141 22.6321 36.0216 23.1006 35.7898 23.6488C35.558 24.197 35.4973 24.8002 35.6155 25.3821C35.7337 25.9641 36.0253 26.4986 36.4536 26.9182C36.8819 27.3378 37.4276 27.6235 38.0217 27.7392C38.6157 27.855 39.2315 27.7956 39.7911 27.5685C40.3507 27.3415 40.829 26.9569 41.1655 26.4636C41.502 25.9702 41.6816 25.3902 41.6816 24.7969C41.6816 24.0012 41.359 23.2382 40.7847 22.6756C40.2103 22.1129 39.4314 21.7969 38.6191 21.7969Z" fill="#1D77FE"/>
</svg>
