<svg width="50" height="49" viewBox="0 0 50 49" fill="none" xmlns="http://www.w3.org/2000/svg">
<rect width="49" height="48" transform="translate(0.337891 0.84082)" fill="white" fill-opacity="0.01" style="mix-blend-mode:multiply"/>
<path d="M24.8379 5.34082C16.7255 5.34082 7.99414 7.21882 7.99414 11.3408V38.3408C7.99414 42.4628 16.7255 44.3408 24.8379 44.3408C32.9503 44.3408 41.6816 42.4628 41.6816 38.3408V11.3408C41.6816 7.21882 32.9503 5.34082 24.8379 5.34082ZM24.8379 8.34082C33.7155 8.34082 38.3051 10.492 38.6142 11.3408C38.3051 12.1897 33.7155 14.3408 24.8379 14.3408C15.8934 14.3408 11.3026 12.1574 11.0566 11.3672V11.3599C11.3026 10.5242 15.8934 8.34082 24.8379 8.34082ZM11.0566 14.9824C14.315 16.5835 19.6969 17.3408 24.8379 17.3408C29.9789 17.3408 35.3608 16.5835 38.6191 14.9824V20.3218C38.3732 21.1574 33.7824 23.3408 24.8379 23.3408C15.8799 23.3408 11.2877 21.1508 11.0566 20.3408V14.9824ZM11.0566 23.9824C14.315 25.5835 19.6969 26.3408 24.8379 26.3408C29.9789 26.3408 35.3608 25.5835 38.6191 23.9824V29.3218C38.3732 30.1574 33.7824 32.3408 24.8379 32.3408C15.8799 32.3408 11.2877 30.1508 11.0566 29.3408V23.9824ZM24.8379 41.3408C15.8799 41.3408 11.2877 39.1508 11.0566 38.3408V32.9824C14.315 34.5835 19.6969 35.3408 24.8379 35.3408C29.9789 35.3408 35.3608 34.5835 38.6191 32.9824V38.3218C38.3732 39.1574 33.7824 41.3408 24.8379 41.3408Z" fill="#1D77FE"/>
</svg>
