<svg width="50" height="49" viewBox="0 0 50 49" fill="none" xmlns="http://www.w3.org/2000/svg">
<rect width="49" height="48" transform="translate(0.337891 0.363281)" fill="white" fill-opacity="0.01" style="mix-blend-mode:multiply"/>
<path d="M35.5566 3.36328L26.3691 12.3633L28.5352 14.4667L34.0254 9.09088V42.3633H9.52539V18.3633H6.46289V42.3633C6.4639 43.1586 6.78688 43.9211 7.361 44.4835C7.93511 45.0459 8.71348 45.3623 9.52539 45.3633H34.0254C34.8373 45.3623 35.6157 45.0459 36.1898 44.4835C36.7639 43.9211 37.0869 43.1586 37.0879 42.3633V9.08638L42.5788 14.4667L44.7441 12.3633L35.5566 3.36328Z" fill="#1D77FE"/>
<path d="M24.8379 36.3633H18.7129C17.901 36.3624 17.1225 36.046 16.5484 35.4836C15.9743 34.9212 15.6513 34.1587 15.6504 33.3633V27.3633C15.6513 26.5679 15.9743 25.8054 16.5484 25.243C17.1225 24.6806 17.901 24.3642 18.7129 24.3633H24.8379C25.6498 24.3642 26.4282 24.6806 27.0024 25.243C27.5765 25.8054 27.8995 26.5679 27.9004 27.3633V33.3633C27.8995 34.1587 27.5765 34.9212 27.0024 35.4836C26.4282 36.046 25.6498 36.3624 24.8379 36.3633ZM18.7129 27.3633V33.3633H24.8379V27.3633H18.7129Z" fill="#1D77FE"/>
</svg>
