<svg width="50" height="49" viewBox="0 0 50 49" fill="none" xmlns="http://www.w3.org/2000/svg">
<rect width="49" height="48" transform="translate(0.337891 0.752197)" fill="white" fill-opacity="0.01" style="mix-blend-mode:multiply"/>
<path d="M23.3065 32.2522C23.3065 33.4457 22.8226 34.5903 21.9611 35.4342C21.0996 36.2781 19.9311 36.7522 18.7128 36.7522H18.5597C18.1802 34.9311 17.124 33.313 15.5958 32.2114C14.0676 31.1098 12.1763 30.6034 10.2886 30.7902C8.40086 30.977 6.65118 31.8438 5.37877 33.2225C4.10635 34.6012 3.40186 36.3936 3.40186 38.2522C3.40186 40.1108 4.10635 41.9032 5.37877 43.2819C6.65118 44.6606 8.40086 45.5274 10.2886 45.7142C12.1763 45.901 14.0676 45.3946 15.5958 44.293C17.124 43.1914 18.1802 41.5733 18.5597 39.7522H18.7128C20.7434 39.7522 22.6908 38.962 24.1266 37.5555C25.5624 36.149 26.369 34.2413 26.369 32.2522H23.3065ZM11.0565 42.7522C10.148 42.7522 9.25983 42.4883 8.50439 41.9938C7.74895 41.4993 7.16016 40.7965 6.81247 39.9743C6.46478 39.152 6.37381 38.2472 6.55106 37.3743C6.72831 36.5014 7.16582 35.6996 7.80827 35.0702C8.45072 34.4409 9.26925 34.0123 10.1603 33.8387C11.0514 33.665 11.9751 33.7541 12.8145 34.0947C13.6539 34.4353 14.3713 35.0121 14.8761 35.7521C15.3809 36.4922 15.6503 37.3622 15.6503 38.2522C15.6503 39.4457 15.1663 40.5903 14.3048 41.4342C13.4433 42.2781 12.2749 42.7522 11.0565 42.7522Z" fill="#1D77FE"/>
<path d="M26.369 20.2522H23.3065V29.2522H26.369V20.2522Z" fill="#1D77FE"/>
<path d="M38.619 3.7522C36.854 3.75184 35.1431 4.34887 33.7759 5.44224C32.4086 6.5356 31.4689 8.05815 31.1159 9.7522H30.9628C28.9322 9.7522 26.9848 10.5424 25.549 11.9489C24.1132 13.3554 23.3065 15.2631 23.3065 17.2522H26.369C26.369 16.0587 26.853 14.9141 27.7145 14.0702C28.576 13.2263 29.7445 12.7522 30.9628 12.7522H31.1159C31.4056 14.1426 32.0921 15.4239 33.0955 16.4474C34.099 17.4708 35.3782 18.1944 36.7847 18.5341C38.1912 18.8738 39.6672 18.8157 41.0413 18.3664C42.4154 17.9172 43.6312 17.0953 44.5475 15.9962C45.4638 14.8971 46.043 13.5659 46.2178 12.1572C46.3926 10.7486 46.1558 9.32022 45.535 8.03808C44.9142 6.75595 43.9349 5.67265 42.7107 4.914C41.4865 4.15535 40.0677 3.75249 38.619 3.7522ZM38.619 15.7522C37.7105 15.7522 36.8223 15.4883 36.0669 14.9938C35.3115 14.4993 34.7227 13.7965 34.375 12.9743C34.0273 12.152 33.9363 11.2472 34.1136 10.3743C34.2908 9.50138 34.7283 8.69955 35.3708 8.07022C36.0132 7.44088 36.8317 7.0123 37.7228 6.83866C38.6139 6.66503 39.5376 6.75414 40.377 7.09474C41.2164 7.43533 41.9338 8.01211 42.4386 8.75213C42.9434 9.49215 43.2128 10.3622 43.2128 11.2522C43.2128 12.4457 42.7288 13.5903 41.8673 14.4342C41.0058 15.2781 39.8374 15.7522 38.619 15.7522Z" fill="#1D77FE"/>
</svg>
