<svg width="46" height="40" viewBox="0 0 46 40" fill="none" xmlns="http://www.w3.org/2000/svg">
<path fill-rule="evenodd" clip-rule="evenodd" d="M29.491 0.691513H15.2473L10.505 10.7684H29.491V0.691513ZM38.9579 17.8406L36.5917 11.4927L34.2255 17.8406L27.8309 20.1895L34.2255 22.5385L36.5917 28.8864L38.9579 22.5385L45.3524 20.1895L38.9579 17.8406ZM10.505 29.6145H29.491V39.6913H14.1613L10.505 29.6145ZM0.352827 10.767L0.3526 29.6145H10.5037L10.5037 10.767H0.352827Z" fill="#683BFF"/>
<path d="M36.6385 11.4754L36.5917 11.3497L36.5448 11.4754L34.1867 17.8018L27.8137 20.1428L27.6859 20.1897L27.8137 20.2366L34.1867 22.5777L36.5448 28.904L36.5917 29.0297L36.6385 28.904L38.9967 22.5777L45.3697 20.2366L45.4975 20.1897L45.3697 20.1428L38.9967 17.8018L36.6385 11.4754Z" fill="#6FEA2A" stroke="black" stroke-width="0.1"/>
</svg>
