<svg width="22" height="26" viewBox="0 0 22 26" fill="none" xmlns="http://www.w3.org/2000/svg">
<path fill-rule="evenodd" clip-rule="evenodd" d="M15.795 8.36719H6.84343V8.36905C6.83098 8.36849 6.81872 8.36719 6.80621 8.36719C6.34152 8.36719 5.96484 8.74281 5.96484 9.2062C5.96484 9.66952 6.34152 10.0451 6.80621 10.0451C6.81872 10.0451 6.83098 10.0438 6.84343 10.0433V10.0451H15.795C16.2596 10.0451 16.6364 9.66952 16.6364 9.2062C16.6364 8.74281 16.2596 8.36719 15.795 8.36719Z" fill="#00B173"/>
<path fill-rule="evenodd" clip-rule="evenodd" d="M15.795 16.3594H6.84343V16.3612C6.83098 16.3607 6.81872 16.3594 6.80621 16.3594C6.34152 16.3594 5.96484 16.735 5.96484 17.1984C5.96484 17.6616 6.34152 18.0373 6.80621 18.0373C6.81872 18.0373 6.83098 18.036 6.84343 18.0355V18.0373H15.795C16.2596 18.0373 16.6364 17.6616 16.6364 17.1984C16.6364 16.735 16.2596 16.3594 15.795 16.3594Z" fill="#00B173"/>
<path fill-rule="evenodd" clip-rule="evenodd" d="M13.4434 13.2023C13.4434 12.7648 13.1074 12.4059 12.6788 12.3671V12.3633H5.00334V12.3651C4.99089 12.3646 4.9787 12.3633 4.96612 12.3633C4.50144 12.3633 4.12476 12.7389 4.12476 13.2023C4.12476 13.6657 4.50144 14.0413 4.96612 14.0413C4.9787 14.0413 4.99089 14.0399 5.00334 14.0394V14.0413H12.6788V14.0374C13.1074 13.9987 13.4434 13.6398 13.4434 13.2023Z" fill="#00B173"/>
<path d="M21.5 6.98125L11 0.921875L0.5 6.98125V19.1L11 25.1594L21.5 19.1V6.98125ZM11 2.73413L19.9292 7.88738V18.1927L11 23.346L2.06963 18.1927V7.88738L11 2.73413Z" fill="#00B173"/>
</svg>
