<svg width="28" height="29" viewBox="0 0 28 29" fill="none" xmlns="http://www.w3.org/2000/svg">
<g clip-path="url(#clip0_3623_36914)">
<path d="M27.2821 12.6976C27.2342 12.217 27.1545 11.6655 26.9949 11.051C26.8354 10.4444 26.596 9.77468 26.2451 9.08137C25.8941 8.38806 25.4394 7.67111 24.849 6.96991C24.6177 6.69417 24.3624 6.42629 24.0912 6.1663C24.498 4.56695 23.5966 3.18033 23.5966 3.18033C22.0411 3.08578 21.0519 3.66092 20.6849 3.92091C20.6211 3.89728 20.5653 3.86576 20.5015 3.84213C20.2382 3.7397 19.967 3.63728 19.6798 3.55062C19.4006 3.46395 19.1134 3.38517 18.8183 3.31426C18.5231 3.24335 18.228 3.1882 17.9248 3.14093C17.869 3.13305 17.8211 3.12518 17.7653 3.1173C17.0872 0.974328 15.1408 0.0761719 15.1408 0.0761719C12.963 1.43916 12.5562 3.34578 12.5562 3.34578C12.5562 3.34578 12.5482 3.38517 12.5322 3.45608C12.4126 3.48759 12.2929 3.52698 12.1733 3.5585C12.0057 3.60577 11.8382 3.6688 11.6787 3.73183C11.5111 3.79485 11.3516 3.85788 11.1841 3.92879C10.857 4.0706 10.53 4.22818 10.2109 4.4015C9.89975 4.57483 9.59662 4.76392 9.30146 4.96088C9.26158 4.94512 9.22169 4.92937 9.22169 4.92937C6.20631 3.79485 3.53394 5.15785 3.53394 5.15785C3.28665 8.32503 4.7385 10.3183 5.02568 10.6807C4.95388 10.8777 4.89007 11.0746 4.82625 11.2716C4.60289 11.9886 4.43537 12.7213 4.33166 13.4855C4.31571 13.5958 4.29975 13.7061 4.29178 13.8164C1.49975 15.1794 0.678101 17.9605 0.678101 17.9605C2.99947 20.5998 5.71172 20.7653 5.71172 20.7653L5.7197 20.7574C6.06272 21.364 6.46158 21.9392 6.9083 22.4828C7.09975 22.7113 7.29121 22.924 7.49861 23.1367C6.65303 25.5318 7.61827 27.5172 7.61827 27.5172C10.2029 27.6117 11.902 26.3985 12.261 26.1227C12.5163 26.2094 12.7795 26.2882 13.0428 26.3512C13.8405 26.556 14.6542 26.6742 15.4678 26.7057C15.6673 26.7136 15.8747 26.7215 16.0741 26.7136H16.1698H16.2337H16.3613L16.4889 26.7057V26.7136C17.7094 28.4311 19.8473 28.6754 19.8473 28.6754C21.371 27.0918 21.4587 25.5161 21.4587 25.1773C21.4587 25.1773 21.4587 25.1694 21.4587 25.1536C21.4587 25.1221 21.4587 25.1064 21.4587 25.1064C21.4587 25.0827 21.4587 25.0591 21.4587 25.0355C21.7778 24.8149 22.0809 24.5785 22.3681 24.3185C22.9744 23.7749 23.5089 23.1525 23.9556 22.4828C23.9955 22.4198 24.0354 22.3568 24.0753 22.2937C25.7983 22.3883 27.0188 21.238 27.0188 21.238C26.7317 19.4653 25.7106 18.5987 25.4952 18.4332C25.4952 18.4332 25.4872 18.4253 25.4713 18.4175C25.4553 18.4096 25.4553 18.4017 25.4553 18.4017C25.4473 18.3938 25.4314 18.386 25.4154 18.3781C25.4234 18.2678 25.4314 18.1654 25.4394 18.0551C25.4553 17.866 25.4553 17.669 25.4553 17.4799V17.3381V17.2672V17.2278C25.4553 17.1805 25.4553 17.1963 25.4553 17.1805L25.4473 17.0624L25.4394 16.9048C25.4394 16.8496 25.4314 16.8024 25.4234 16.7551C25.4154 16.7078 25.4154 16.6527 25.4074 16.6054L25.3915 16.4557L25.3676 16.306C25.3356 16.109 25.3037 15.92 25.2559 15.723C25.0724 14.9588 24.7693 14.2339 24.3784 13.58C23.9795 12.9261 23.4849 12.351 22.9186 11.8625C22.3601 11.374 21.73 10.9801 21.0758 10.6886C20.4137 10.3971 19.7277 10.208 19.0416 10.1213C18.6986 10.0741 18.3556 10.0583 18.0126 10.0662H17.8849H17.853C17.8451 10.0662 17.8052 10.0662 17.8131 10.0662H17.7573L17.6297 10.0741C17.5818 10.0741 17.5339 10.0819 17.4941 10.0819C17.3186 10.0977 17.1431 10.1213 16.9755 10.1529C16.2895 10.2789 15.6433 10.5231 15.077 10.8619C14.5106 11.2007 14.016 11.6183 13.6171 12.091C13.2183 12.5637 12.9072 13.0916 12.6918 13.6352C12.4764 14.1788 12.3567 14.7461 12.3248 15.2897C12.3168 15.4236 12.3168 15.5654 12.3168 15.6994C12.3168 15.7309 12.3168 15.7703 12.3168 15.8018L12.3248 15.9121C12.3328 15.9751 12.3328 16.046 12.3408 16.109C12.3647 16.3848 12.4206 16.6527 12.4923 16.9048C12.6439 17.4169 12.8832 17.8817 13.1784 18.2757C13.4735 18.6696 13.8325 18.9926 14.2074 19.2526C14.5824 19.5047 14.9892 19.6859 15.3881 19.8041C15.7869 19.9223 16.1858 19.9695 16.5607 19.9695C16.6086 19.9695 16.6564 19.9695 16.6963 19.9695C16.7203 19.9695 16.7442 19.9695 16.7681 19.9695C16.7921 19.9695 16.816 19.9695 16.8399 19.9617C16.8798 19.9617 16.9197 19.9538 16.9596 19.9538C16.9676 19.9538 16.9835 19.9538 16.9915 19.9459L17.0314 19.938C17.0553 19.938 17.0792 19.9302 17.1032 19.9302C17.151 19.9223 17.1909 19.9144 17.2388 19.9065C17.2866 19.8986 17.3265 19.8908 17.3664 19.875C17.4542 19.8592 17.5339 19.8277 17.6137 19.8041C17.7733 19.7489 17.9328 19.6859 18.0684 19.615C18.212 19.5441 18.3396 19.4574 18.4673 19.3787C18.4992 19.355 18.5391 19.3314 18.571 19.2999C18.6986 19.1974 18.7225 19.0084 18.6188 18.8823C18.5311 18.772 18.3715 18.7405 18.2439 18.8114C18.212 18.8272 18.1801 18.8429 18.1482 18.8587C18.0365 18.9138 17.9248 18.9611 17.8052 19.0005C17.6855 19.0399 17.5579 19.0714 17.4302 19.095C17.3664 19.1029 17.3026 19.1108 17.2308 19.1187C17.1989 19.1187 17.167 19.1265 17.1271 19.1265C17.0952 19.1265 17.0553 19.1265 17.0314 19.1265C16.9995 19.1265 16.9676 19.1265 16.9356 19.1265C16.8958 19.1265 16.8559 19.1265 16.816 19.1187C16.816 19.1187 16.7921 19.1187 16.808 19.1187H16.7921H16.7681C16.7522 19.1187 16.7282 19.1187 16.7123 19.1108C16.6724 19.1029 16.6405 19.1029 16.6006 19.095C16.3055 19.0556 16.0103 18.969 15.7311 18.8429C15.4439 18.7169 15.1727 18.5435 14.9254 18.3229C14.6781 18.1023 14.4627 17.8423 14.2952 17.5429C14.1277 17.2436 14.008 16.9127 13.9522 16.566C13.9282 16.3927 13.9123 16.2115 13.9203 16.0381C13.9203 15.9909 13.9282 15.9436 13.9282 15.8963C13.9282 15.9121 13.9282 15.8884 13.9282 15.8884V15.8727V15.8333C13.9282 15.8097 13.9362 15.786 13.9362 15.7624C13.9442 15.6678 13.9602 15.5733 13.9761 15.4788C14.1117 14.7224 14.4946 13.9818 15.0849 13.4225C15.2365 13.2806 15.396 13.1546 15.5636 13.0364C15.7311 12.9182 15.9146 12.8158 16.106 12.7291C16.2975 12.6425 16.4889 12.5716 16.6963 12.5164C16.8958 12.4613 17.1032 12.4298 17.3186 12.4061C17.4223 12.3982 17.526 12.3904 17.6376 12.3904C17.6696 12.3904 17.6855 12.3904 17.7094 12.3904H17.7972H17.853C17.877 12.3904 17.853 12.3904 17.861 12.3904H17.8849L17.9727 12.3982C18.204 12.414 18.4274 12.4455 18.6507 12.5007C19.0975 12.5952 19.5362 12.7607 19.9431 12.9813C20.7567 13.4303 21.4508 14.1237 21.8735 14.9588C22.0889 15.3763 22.2405 15.8254 22.3123 16.2903C22.3282 16.4084 22.3442 16.5266 22.3522 16.6448L22.3601 16.7315L22.3681 16.8181C22.3681 16.8496 22.3681 16.8811 22.3681 16.9048C22.3681 16.9363 22.3681 16.9678 22.3681 16.9914V17.0702V17.1569C22.3681 17.212 22.3601 17.3066 22.3601 17.3617C22.3522 17.4878 22.3362 17.6217 22.3203 17.7478C22.3043 17.8738 22.2804 17.9999 22.2564 18.126C22.2325 18.252 22.2006 18.3781 22.1687 18.4963C22.1049 18.7405 22.0251 18.9847 21.9294 19.229C21.7379 19.7017 21.4827 20.1586 21.1795 20.5762C20.5653 21.4113 19.7277 22.0889 18.7704 22.5222C18.2918 22.7349 17.7892 22.8925 17.2707 22.9713C17.0154 23.0185 16.7522 23.0422 16.4889 23.0501H16.4411H16.4012H16.3134H16.1858H16.122C16.1539 23.0501 16.114 23.0501 16.114 23.0501H16.0901C15.9465 23.0501 15.8109 23.0422 15.6673 23.0264C15.1089 22.987 14.5584 22.8846 14.016 22.7349C13.4815 22.5852 12.963 22.3725 12.4684 22.1204C11.4872 21.6004 10.6017 20.8913 9.91571 20.0326C9.57269 19.6071 9.26955 19.1423 9.02226 18.6617C8.77497 18.1811 8.57554 17.669 8.43195 17.1569C8.28836 16.6369 8.20061 16.109 8.16072 15.5733L8.15274 15.4709V15.4472V15.4236V15.3763V15.2897V15.266V15.2345V15.1715V15.0454V15.0218C8.15274 15.0218 8.15274 15.0297 8.15274 15.0139V14.9667C8.15274 14.9036 8.15274 14.8327 8.15274 14.7697C8.16072 14.5097 8.18465 14.234 8.21656 13.9661C8.24847 13.6982 8.29633 13.4225 8.35217 13.1546C8.40801 12.8867 8.47183 12.6188 8.5516 12.351C8.70317 11.8231 8.89462 11.311 9.11799 10.8304C9.57269 9.86923 10.163 9.01046 10.873 8.32503C11.0485 8.1517 11.2319 7.99413 11.4234 7.83656C11.6149 7.68686 11.8143 7.54505 12.0217 7.41111C12.2211 7.27718 12.4365 7.159 12.6519 7.0487C12.7556 6.99355 12.8673 6.9384 12.979 6.89113C13.0348 6.86749 13.0906 6.84386 13.1465 6.82022C13.2023 6.79659 13.2582 6.77295 13.314 6.74931C13.5374 6.65477 13.7687 6.57599 14.008 6.50508C14.0639 6.48932 14.1277 6.47357 14.1835 6.44993C14.2394 6.43417 14.3032 6.41842 14.359 6.40266C14.4787 6.37114 14.5983 6.33963 14.718 6.31599C14.7738 6.30024 14.8376 6.29236 14.9015 6.2766C14.9653 6.26084 15.0211 6.25297 15.0849 6.23721C15.1488 6.22933 15.2046 6.21357 15.2684 6.20569L15.3562 6.18994L15.4519 6.17418C15.5157 6.1663 15.5715 6.15842 15.6354 6.15054C15.7072 6.14267 15.771 6.13479 15.8428 6.12691C15.8986 6.11903 15.9943 6.11115 16.0502 6.10327C16.0901 6.09539 16.1379 6.09539 16.1778 6.08752L16.2656 6.07964L16.3055 6.07176H16.3533C16.4251 6.06388 16.4889 6.06388 16.5607 6.056L16.6644 6.04812C16.6644 6.04812 16.7043 6.04812 16.6724 6.04812H16.6963H16.7442C16.8 6.04812 16.8639 6.04024 16.9197 6.04024C17.151 6.03237 17.3904 6.03237 17.6217 6.04024C18.0844 6.056 18.5391 6.11115 18.9778 6.18994C19.8633 6.35539 20.6929 6.63114 21.4507 7.00143C22.2086 7.36384 22.8787 7.81292 23.469 8.30139C23.5089 8.33291 23.5408 8.36442 23.5807 8.39594C23.6126 8.42745 23.6525 8.45896 23.6844 8.49048C23.7562 8.55351 23.82 8.61653 23.8918 8.67956C23.9636 8.74259 24.0274 8.80562 24.0912 8.86865C24.155 8.93168 24.2188 8.99471 24.2827 9.06561C24.53 9.32561 24.7613 9.5856 24.9687 9.85347C25.3835 10.3813 25.7186 10.9171 25.9818 11.4213C25.9978 11.4528 26.0137 11.4843 26.0297 11.5158C26.0456 11.5474 26.0616 11.5789 26.0775 11.6104C26.1094 11.6734 26.1413 11.7364 26.1653 11.7995C26.1972 11.8625 26.2211 11.9177 26.253 11.9807C26.277 12.0437 26.3089 12.0989 26.3328 12.1619C26.4285 12.3982 26.5243 12.6267 26.596 12.8394C26.7157 13.1861 26.8035 13.4934 26.8752 13.7612C26.8992 13.8715 27.0029 13.9424 27.1146 13.9267C27.2342 13.9188 27.322 13.8243 27.322 13.7061C27.33 13.4225 27.322 13.0837 27.2821 12.6976Z" fill="url(#paint0_linear_3623_36914)"/>
</g>
<defs>
<linearGradient id="paint0_linear_3623_36914" x1="14" y1="8.62441" x2="14" y2="28.4666" gradientUnits="userSpaceOnUse">
<stop stop-color="#F05A28"/>
<stop offset="1" stop-color="#FBCA0A"/>
</linearGradient>
<clipPath id="clip0_3623_36914">
<rect y="-0.00292969" width="28" height="28.7568" rx="3" fill="white"/>
</clipPath>
</defs>
</svg>
