<svg width="29" height="25" viewBox="0 0 29 25" fill="none" xmlns="http://www.w3.org/2000/svg">
<path d="M3.72038 7.00584C3.72197 6.47008 3.867 5.94452 4.14041 5.48378L6.52297 1.46875C7.06332 0.558151 8.04368 -0.000154229 9.10253 -0.00028896L20.4594 -0.00173404C21.5257 -0.00186972 22.512 0.563997 23.05 1.48462L25.4235 5.54627C25.6917 6.00524 25.8332 6.52724 25.8334 7.05883L25.8373 17.9337C25.8375 18.4667 25.6956 18.9902 25.4263 19.4503L23.0505 23.5091C22.5125 24.4282 21.5275 24.9932 20.4624 24.9936L9.1073 24.9974C8.04865 24.9978 7.06818 24.4402 6.52733 23.5301L4.10905 19.461C3.83191 18.9946 3.6864 18.4619 3.68801 17.9194L3.72038 7.00584Z" fill="#4D4D4D"/>
<path d="M3.6859 18.7464H5.13619C7.44947 18.7464 8.89235 16.2389 7.7299 14.2389L7.4844 13.8165C6.98699 12.9607 6.94373 11.9147 7.36879 11.0207L7.79122 10.1323C8.66178 8.30145 7.32698 6.18826 5.29968 6.18783C4.32276 6.18763 3.41854 6.70396 2.92224 7.54542L0 12.4999" fill="#EDEDED"/>
<path d="M11.4801 17.4125C12.0367 18.2462 12.9728 18.7468 13.9752 18.7468H15.6834C16.6604 18.7468 17.5763 18.271 18.138 17.4716L20.3703 14.2949C21.081 13.2835 21.0986 11.9396 20.4145 10.9099L18.2073 7.58786C17.6513 6.75101 16.7132 6.24805 15.7085 6.24805H13.3444C12.2591 6.24805 11.2585 6.83416 10.7277 7.78073L9.03507 10.7992C8.48322 11.7834 8.53021 12.9939 9.15668 13.9323L11.4801 17.4125Z" fill="#E0E0E0"/>
<path d="M5.07464 12.5151C2.83558 12.508 1.44061 14.9414 2.57815 16.87L2.84843 17.3282C3.3674 18.2081 4.31282 18.7481 5.33433 18.7481C7.55988 18.7481 8.94797 16.3355 7.82945 14.4115L7.56208 13.9515C7.04675 13.0651 6.1 12.5183 5.07464 12.5151Z" fill="#ACACAC"/>
<path d="M13.8123 12.5011C11.4159 12.5006 9.98628 15.1714 11.3157 17.1653L11.4802 17.4121C12.0366 18.2466 12.9733 18.7478 13.9763 18.7478H15.6519C16.646 18.7478 17.5756 18.2553 18.134 17.4328L18.3012 17.1864C19.6533 15.1947 18.2269 12.5019 15.8197 12.5014L13.8123 12.5011Z" fill="#9E9E9E"/>
<path d="M9.85508 12.5036L8.82178 12.7974C8.6756 12.839 8.5206 12.8381 8.3749 12.7949C7.87546 12.6466 7.64836 12.0684 7.91339 11.6199L11.0864 6.24998C11.6398 5.31349 12.9945 5.31289 13.5487 6.2489" fill="#00B8E3"/>
<path d="M13.5432 18.746C12.9295 19.7924 11.4842 19.9591 10.6483 19.0799L9.50101 17.8731C9.20124 17.5578 8.97365 17.181 8.834 16.769L7.38879 12.5048C7.38871 12.5046 7.38867 12.5043 7.38867 12.5041C7.38867 12.5029 7.38964 12.502 7.39083 12.502H9.85408" fill="#33C6E9"/>
<path d="M7.39242 12.5027H7.39133C7.39051 12.5027 7.38985 12.5034 7.38985 12.5042C7.38985 12.5044 7.38978 12.5047 7.38964 12.5049L7.06704 13.0507C6.65762 13.7434 5.65603 13.7453 5.24397 13.0542C5.0454 12.7212 5.04452 12.3063 5.24167 11.9724L6.17578 10.3904L8.98419 5.64179C9.52408 4.72892 10.5058 4.16895 11.5664 4.16895H12.3181" fill="#008AAA"/>
<path d="M20.9434 15.7464C20.9434 17.4033 22.2865 18.7464 23.9434 18.7464H25.4014C27.0587 18.7464 28.402 17.4026 28.4014 15.7454L28.3991 9.24599C28.3985 7.58956 27.0555 6.24707 25.3991 6.24707H23.9434C22.2865 6.24707 20.9434 7.59022 20.9434 9.24707V15.7464Z" fill="#D4D4D4"/>
<path d="M23.9434 12.5195C22.2865 12.5195 20.9434 13.8627 20.9434 15.5195V15.7473C20.9434 17.4041 22.2865 18.7473 23.9434 18.7473H25.389C27.0459 18.7473 28.389 17.4041 28.389 15.7473V15.5195C28.389 13.8627 27.0459 12.5195 25.389 12.5195H23.9434Z" fill="#919191"/>
<path d="M11.3723 19.2383C11.7905 19.9454 11.2809 20.839 10.4594 20.839C10.0844 20.839 9.7373 20.641 9.54644 20.3182L6.47727 15.1276C6.28047 14.7948 6.28049 14.3813 6.47731 14.0485C6.88767 13.3546 7.89167 13.3545 8.30211 14.0484L11.3723 19.2383Z" fill="#00B8E3"/>
<path d="M20.3184 12.5023C21.1383 12.5027 21.6468 13.3945 21.2296 14.1003L18.1522 19.3063C17.7288 20.0225 16.5648 19.7415 16.1631 19.0128C15.9695 18.6618 16.1434 18.5375 16.3475 18.1925L19.4064 13.0221C19.5971 12.6997 19.9439 12.5021 20.3184 12.5023Z" fill="#008AAA"/>
<path d="M19.7073 20.8368C18.6203 20.8365 17.9459 19.6541 18.4991 18.7183L22.174 12.5024C22.7271 11.5672 24.0877 11.5802 24.6394 12.5162M21.483 10.8592C21.811 11.6402 21.2375 12.503 20.3905 12.503C19.9715 12.503 19.5836 12.2817 19.3704 11.921L16.3732 6.85006C16.1538 6.4788 16.1534 6.01765 16.3722 5.64602C16.7924 4.93237 17.7964 4.85893 18.3159 5.50384L19.9677 7.55412C20.144 7.77294 20.2886 8.01545 20.3975 8.27454L21.483 10.8592Z" fill="#00B8E3"/>
<path d="M23.4046 10.4188C23.4049 10.4193 23.4051 10.4199 23.4051 10.4205C23.4051 10.4212 23.4049 10.4218 23.4046 10.4223L23.2334 10.7116C22.7566 11.5173 21.5906 11.5173 21.1138 10.7116L18.1907 5.77264C17.7719 5.065 18.2823 4.17045 19.1046 4.17087C19.4795 4.17106 19.8266 4.36912 20.0175 4.69188L23.4046 10.4188Z" fill="#33C6E9"/>
</svg>
