<svg width="13" height="25" viewBox="0 0 13 25" fill="none" xmlns="http://www.w3.org/2000/svg">
<g clip-path="url(#clip0_3623_36963)">
<path d="M7.8453 24.9429C7.81536 24.9268 7.47971 24.6017 7.09943 24.2204L6.40801 23.5271V19.0182C6.40801 16.5383 6.40171 14.503 6.39405 14.4953C6.37992 14.4812 5.24657 15.0508 1.9129 16.7474C0.907839 17.2589 0.0716832 17.6721 0.0547842 17.6656C0.0350541 17.658 0.0285209 17.636 0.0365567 17.604C0.0434165 17.5767 0.0587258 17.4629 0.0705726 17.3511C0.130547 16.7852 0.577022 15.4559 1.05068 14.433C2.34145 11.6454 4.42992 9.33523 7.08709 7.75573C7.52073 7.49796 7.885 7.30943 7.92196 7.32361C7.95014 7.33443 7.95419 7.62784 7.95419 9.65594C7.95419 11.3173 7.96094 11.9759 7.97794 11.9759C7.99101 11.9759 8.09062 11.93 8.19931 11.8738C8.96158 11.4801 9.51485 10.7447 9.69976 9.87949C9.76228 9.58689 9.76792 9.05363 9.71145 8.77068C9.60773 8.25077 9.36833 7.76166 9.03087 7.38017C8.86423 7.19179 8.31098 6.61002 7.33343 5.59518C5.8553 4.06072 5.58466 3.7674 5.41149 3.51219C5.28444 3.32491 5.17477 3.09597 5.1083 2.87931C5.05501 2.70555 5.04951 2.65485 5.04833 2.32861C5.04691 1.93037 5.06954 1.80643 5.20044 1.49567C5.45306 0.895996 6.11121 0.336628 6.65845 0.256488C7.04231 0.200303 7.52731 0.211126 7.84282 0.282991C8.10001 0.341571 8.51665 0.592771 8.80225 0.861436C9.13754 1.17686 9.30633 1.42862 10.5671 3.49368C12.0548 5.9305 12.2322 6.2309 12.2576 6.35614C12.2827 6.48009 12.2645 6.53247 12.1968 6.53094C12.1405 6.52968 12.1575 6.54717 9.47904 3.74412C9.24442 3.49858 8.83581 3.0674 8.57107 2.78593C7.8801 2.05136 7.5934 1.7746 7.46342 1.71671C7.29702 1.64258 7.06616 1.64598 6.90538 1.72494C6.59013 1.87976 6.44091 2.23682 6.55984 2.55182C6.61881 2.70799 6.53667 2.61848 8.47346 4.63698C9.34115 5.54128 10.1249 6.36936 10.2152 6.47715C11.6717 8.2168 11.5533 10.8017 9.94383 12.4004C9.57428 12.7674 9.20485 13.0189 8.52039 13.3693C8.28683 13.4889 8.0639 13.6063 8.02496 13.6303L7.95419 13.6739V19.2909C7.95419 22.3803 7.94824 24.9235 7.94097 24.9424C7.92566 24.9823 7.91854 24.9824 7.8453 24.9429ZM3.97702 14.046C5.88357 13.0674 6.27706 12.8604 6.33294 12.8066C6.368 12.7729 6.38329 12.7243 6.39374 12.6137C6.41485 12.3902 6.41077 10.042 6.38926 10.0287C6.34187 9.99943 5.54104 10.7112 5.00338 11.2604C4.07389 12.2099 3.29681 13.2821 2.65798 14.4964C2.57444 14.6552 2.51303 14.7852 2.5215 14.7852C2.52998 14.7852 3.18499 14.4525 3.97705 14.046H3.97702Z" fill="#F8E6EA"/>
<path d="M7.14392 24.2419L6.40798 23.5069V14.455L5.06324 15.1348C4.32365 15.5087 2.90319 16.2298 1.90671 16.7372C0.910229 17.2447 0.0786685 17.6599 0.0587424 17.6599C0.0303668 17.6599 0.0257065 17.6472 0.0372048 17.6015C0.0452624 17.5694 0.0603757 17.4689 0.070807 17.3783C0.115319 16.9909 0.423858 15.9746 0.727388 15.2155C2.04022 11.9322 4.39952 9.25539 7.49573 7.53637C7.69275 7.42698 7.87053 7.33748 7.89083 7.33748C7.91113 7.33748 7.93367 7.35298 7.94094 7.37193C7.94821 7.39088 7.95416 8.4401 7.95416 9.70354V12.0007L8.00316 11.9856C8.07395 11.9637 8.19876 11.8987 8.36453 11.7973C9.03415 11.3878 9.4943 10.7568 9.69084 9.97848C9.74542 9.76228 9.7501 9.70964 9.75043 9.30831C9.7508 8.84324 9.73259 8.7158 9.6151 8.361C9.53988 8.13378 9.34742 7.76908 9.19624 7.56718C9.02109 7.3333 8.65081 6.94002 6.74544 4.96423C6.13579 4.33204 5.64249 3.79926 5.52616 3.64738C4.99883 2.9589 4.89769 2.16965 5.24332 1.44005C5.3671 1.17872 5.48918 1.00936 5.70334 0.801871C5.99448 0.519791 6.37647 0.308466 6.68854 0.256832C6.94276 0.214802 7.3579 0.209685 7.59843 0.245682C8.17463 0.33192 8.71087 0.691831 9.16586 1.29774C9.40166 1.61172 10.0854 2.71347 11.7404 5.4462C12.2418 6.27395 12.3204 6.43691 12.2518 6.5055C12.192 6.5653 12.2941 6.66681 9.95655 4.22232C9.45885 3.70185 8.83054 3.04085 8.56028 2.75339C7.82197 1.96806 7.59969 1.75791 7.4469 1.70074C7.09586 1.56943 6.74348 1.70956 6.56798 2.05033C6.48505 2.21133 6.484 2.41854 6.56523 2.59468C6.6339 2.74363 6.53078 2.63215 8.48502 4.66978C9.34657 5.56809 10.1146 6.37656 10.1918 6.46639C10.7239 7.08565 11.0806 7.90371 11.189 8.75299C11.234 9.10609 11.2231 9.69196 11.1654 10.0161C11.0024 10.9313 10.5858 11.7384 9.94601 12.3781C9.54825 12.7759 9.22096 12.997 8.42237 13.4073L7.96505 13.6422L7.95405 19.3042C7.94802 22.4182 7.94066 24.9685 7.93772 24.9715C7.91137 24.9984 7.7856 24.8828 7.14394 24.2419H7.14392ZM4.0506 14.0215C6.08494 12.9788 6.27943 12.8756 6.34812 12.8018L6.408 12.7375V11.3659C6.408 10.6115 6.40151 9.99429 6.39356 9.99429C6.38564 9.99429 6.30478 10.055 6.2139 10.1293C5.11753 11.0252 4.1902 12.04 3.43137 13.1743C3.00371 13.8136 2.43389 14.832 2.52235 14.799C2.54543 14.7904 3.23316 14.4405 4.0506 14.0216V14.0215Z" fill="#F5DBE0"/>
<path d="M7.51349 24.6117C7.31013 24.411 6.97821 24.0736 6.7759 23.8618L6.40799 23.4767V18.9674C6.40799 16.4873 6.40431 14.4581 6.39983 14.4581C6.38874 14.4581 3.73944 15.8001 1.72958 16.8238C0.827312 17.2833 0.0741272 17.6593 0.0558344 17.6593C0.0310738 17.6593 0.0261086 17.6452 0.0364528 17.6039C0.0441183 17.5734 0.0593188 17.4779 0.0702727 17.3915C0.0812266 17.3052 0.129071 17.0826 0.176632 16.897C0.421103 15.9426 0.748174 15.0805 1.24646 14.077C1.56196 13.4416 1.83326 12.9676 2.19383 12.4219C3.38171 10.624 4.99302 9.06747 6.86531 7.90914C7.25883 7.66568 7.85212 7.33695 7.89798 7.33695C7.92913 7.33695 7.93239 7.55712 7.93239 9.65689C7.93239 11.6203 7.93705 11.9786 7.96275 11.9885C7.97943 11.9949 8.06088 11.966 8.14372 11.9243C8.82317 11.5821 9.35647 10.9791 9.6066 10.2701C9.72319 9.93956 9.76753 9.6759 9.76847 9.30778C9.76997 8.7049 9.61372 8.17931 9.28617 7.68538C9.11361 7.42515 8.92915 7.22495 7.39985 5.6379C5.77804 3.95481 5.58651 3.74585 5.39163 3.44685C5.155 3.08385 5.05138 2.73881 5.05239 2.31732C5.05276 2.16274 5.06698 1.99271 5.08716 1.90105C5.23507 1.22976 5.67571 0.683485 6.30581 0.390038C6.58347 0.260768 6.80856 0.21582 7.17838 0.21582C7.70386 0.21582 8.0732 0.33174 8.49392 0.628693C8.97985 0.971684 9.15964 1.21848 10.3824 3.22115C11.7857 5.51954 12.2291 6.26408 12.2557 6.36665C12.2714 6.42719 12.2826 6.47704 12.2806 6.47745C12.2786 6.47786 12.2602 6.49095 12.2398 6.50652C12.2076 6.53113 12.188 6.52111 12.0898 6.42958C11.9343 6.28477 9.31067 3.54505 8.49448 2.67522C7.76159 1.89423 7.6514 1.79046 7.46338 1.7044C7.13058 1.55202 6.73391 1.70076 6.5671 2.04042C6.51642 2.14364 6.50608 2.19273 6.50645 2.3282C6.50684 2.46501 6.51733 2.51224 6.57104 2.6191C6.63606 2.7485 6.6595 2.77344 9.46357 5.6972C9.8206 6.0695 10.1784 6.456 10.2585 6.55609C11.313 7.87258 11.517 9.66848 10.7845 11.1883C10.549 11.677 10.2734 12.0535 9.86427 12.4458C9.47419 12.8197 9.19943 13.0021 8.42238 13.4027C8.17085 13.5324 7.95787 13.649 7.94905 13.6618C7.94025 13.6745 7.93292 16.2256 7.93272 19.3307C7.93248 23.5122 7.92601 24.9764 7.90778 24.9764C7.89426 24.9764 7.7168 24.8123 7.51349 24.6117ZM2.81927 14.6565C2.97848 14.574 3.69674 14.2049 4.41538 13.8364C6.12384 12.9602 6.32459 12.8534 6.3694 12.7964C6.40414 12.7523 6.40708 12.6428 6.40751 11.3712C6.40777 10.6052 6.39959 9.99376 6.38907 9.99376C6.37866 9.99376 6.21942 10.1201 6.03519 10.2746C4.8376 11.2786 3.85214 12.43 3.06043 13.7503C2.87476 14.06 2.4881 14.7645 2.4881 14.7931C2.4881 14.8225 2.54141 14.8005 2.81927 14.6565Z" fill="#F3D5DA"/>
<path d="M7.1638 24.2527C6.77098 23.8542 6.44025 23.5055 6.42882 23.4778C6.41584 23.4463 6.40802 21.7409 6.40802 18.9427C6.40802 16.4761 6.4017 14.458 6.39404 14.458C6.37803 14.458 5.11866 15.0951 2.14854 16.6059C1.00955 17.1853 0.065271 17.6592 0.0501359 17.6592C0.0320609 17.6592 0.0270304 17.6416 0.0354799 17.6079C0.0425792 17.5796 0.0586508 17.4841 0.0711944 17.3955C0.15251 16.8219 0.55051 15.6035 0.952472 14.6976C2.14499 12.0099 4.0114 9.80028 6.46246 8.17431C7.06813 7.77252 7.86393 7.31891 7.91151 7.3483C7.92467 7.35643 7.93242 8.22133 7.93242 9.6792C7.93242 11.7779 7.93569 11.9972 7.96685 11.9972C8.02014 11.9972 8.2937 11.854 8.49863 11.7189C8.72339 11.5707 9.09946 11.1992 9.25401 10.9727C9.48285 10.6374 9.65275 10.2298 9.73241 9.82535C9.78352 9.56572 9.78372 9.0288 9.73276 8.7702C9.65774 8.38932 9.50961 8.02464 9.29883 7.70186C9.11496 7.42028 9.02023 7.31716 7.31306 5.54026C5.70372 3.8652 5.67507 3.83447 5.49495 3.59155C5.01714 2.94712 4.92156 2.21702 5.22108 1.49942C5.48347 0.870799 6.10793 0.364001 6.7629 0.248147C6.98964 0.208033 7.36639 0.207598 7.60772 0.247167C7.95483 0.304092 8.30085 0.471101 8.64257 0.746626C9.05625 1.08019 9.21122 1.30499 10.6109 3.60209C12.0713 5.99871 12.2407 6.28536 12.2555 6.38427C12.2715 6.49087 12.2513 6.5214 12.1799 6.49873C12.1566 6.49135 11.8108 6.14529 11.4115 5.72967C9.98971 4.25005 9.1544 3.3741 8.55131 2.73039C7.60045 1.71547 7.51356 1.646 7.192 1.64345C7.05598 1.64236 7.00813 1.65223 6.9058 1.70247C6.76926 1.76954 6.63311 1.90452 6.55693 2.04829C6.51678 2.12412 6.50669 2.17778 6.50641 2.31724C6.50584 2.56924 6.56283 2.67258 6.89372 3.01964C7.03927 3.1723 7.81463 3.98164 8.61672 4.81821C9.41878 5.65474 10.1377 6.41422 10.2143 6.50594C10.9396 7.37455 11.3094 8.57157 11.1984 9.69194C11.0745 10.9429 10.4551 12.0482 9.46512 12.7848C9.19704 12.9843 9.01564 13.0908 8.4172 13.4003L7.94331 13.6454L7.93782 19.3109C7.93347 23.8209 7.9268 24.9765 7.90516 24.9768C7.89022 24.9771 7.55659 24.6513 7.1638 24.2527ZM4.01253 14.0496C6.00638 13.0267 6.30702 12.868 6.35902 12.8108L6.40802 12.7569V11.3753C6.40802 10.4849 6.4004 9.99368 6.38661 9.99368C6.35569 9.99368 5.84314 10.4257 5.47567 10.7615C4.55916 11.599 3.64755 12.737 2.98232 13.8739C2.76492 14.2455 2.48813 14.7659 2.48813 14.8031C2.48813 14.8333 2.40142 14.8761 4.01253 14.0496Z" fill="#F0CDD3"/>
<path d="M7.16099 24.2446L6.43163 23.5067L6.43071 18.9947C6.4301 15.9495 6.42259 14.4782 6.40758 14.4689C6.38493 14.4549 5.06613 15.1163 1.86337 16.7478C0.878951 17.2493 0.0624604 17.6595 0.0489586 17.6595C0.0354568 17.6595 0.0297511 17.6424 0.0362625 17.6214C0.0427957 17.6005 0.058105 17.5124 0.0702784 17.4258C0.142818 16.9095 0.466732 15.8599 0.801272 15.0572C1.48102 13.4261 2.38711 11.9803 3.52409 10.7126C3.8359 10.365 4.58115 9.63195 4.90542 9.35399C5.5044 8.84049 6.14606 8.36731 6.77825 7.97291C7.21393 7.7011 7.82896 7.35524 7.88423 7.35095C7.9192 7.34823 7.92225 7.49514 7.93244 9.67821C7.94326 11.9932 7.94361 12.0083 7.98688 12.0012C8.04618 11.9915 8.31986 11.8434 8.50773 11.7192C8.71803 11.5803 9.139 11.1563 9.28016 10.9413C9.49593 10.6126 9.65086 10.2364 9.73309 9.84154C9.7869 9.58317 9.78664 9.00882 9.73258 8.75268C9.63178 8.27498 9.40042 7.78103 9.12052 7.44605C8.98587 7.2849 8.50549 6.77721 7.41018 5.63855C5.73029 3.89215 5.61226 3.76375 5.41546 3.46932C5.27543 3.25978 5.18508 3.06734 5.1179 2.83559C5.07537 2.68881 5.06892 2.6176 5.0701 2.30664C5.07131 1.98049 5.07685 1.92966 5.13011 1.75594C5.33149 1.09929 5.775 0.614274 6.41714 0.34844C6.61987 0.264532 6.90073 0.216819 7.19202 0.216797C7.8168 0.216775 8.31463 0.429777 8.8074 0.907938C9.16969 1.25947 9.32786 1.49958 10.8998 4.08433C12.2174 6.25094 12.2401 6.28942 12.2559 6.38285C12.2746 6.4935 12.2453 6.52917 12.1692 6.48842C12.1065 6.45489 9.95218 4.21571 8.62711 2.80691C7.57456 1.68784 7.51774 1.64209 7.18113 1.64287C6.96388 1.64337 6.83675 1.70298 6.67464 1.88035C6.53424 2.03399 6.48572 2.16995 6.50009 2.36945C6.51479 2.57313 6.58888 2.70379 6.83884 2.96671C6.95486 3.08877 7.73941 3.90789 8.58227 4.78699C9.42511 5.66612 10.1741 6.45989 10.2467 6.55094C10.4543 6.81138 10.6261 7.08483 10.7749 7.39161C11.6849 9.26873 11.1375 11.5305 9.47193 12.774C9.19138 12.9835 9.04856 13.068 8.44688 13.3808L7.94333 13.6427L7.93244 19.297C7.92645 22.4068 7.91454 24.9583 7.90596 24.9669C7.89738 24.9754 7.56214 24.6504 7.16099 24.2446ZM4.11055 14.0011C6.19541 12.9323 6.32163 12.865 6.37431 12.7945C6.41799 12.736 6.41906 12.7064 6.42544 11.372C6.42927 10.5733 6.42376 10.001 6.41216 9.98938C6.37126 9.94849 5.66054 10.564 5.10102 11.125C4.28877 11.9393 3.64021 12.7725 3.03154 13.7837C2.74168 14.2653 2.44725 14.8404 2.50083 14.8204C2.5238 14.8119 3.24818 14.4432 4.11055 14.0011Z" fill="#EEC3CB"/>
<path d="M7.77438 24.8633C7.70879 24.7997 7.37943 24.4674 7.04245 24.1248L6.42979 23.502V18.98C6.42979 14.9631 6.42611 14.458 6.39693 14.458C6.3662 14.458 4.55661 15.3695 1.96548 16.69C0.449003 17.4629 0.0468877 17.6645 0.0393963 17.6558C0.0246532 17.6386 0.0825804 17.3382 0.173108 16.9624C0.527379 15.4916 1.29322 13.7885 2.23449 12.3783C3.43794 10.5753 5.06811 9.01678 6.95545 7.86483C7.32592 7.63872 7.84363 7.35866 7.89122 7.35866C7.93137 7.35866 7.93242 7.417 7.93242 9.67664C7.93242 11.2223 7.93978 11.9992 7.95454 12.0083C7.96669 12.0158 8.07079 11.9724 8.18586 11.9118C9.17568 11.3907 9.78271 10.3997 9.78335 9.30384C9.78374 8.62385 9.56252 7.9993 9.13014 7.45969C8.97853 7.27046 8.80165 7.08266 7.46608 5.69271C5.7591 3.91622 5.71688 3.87114 5.53314 3.6298C5.36091 3.40354 5.20648 3.10807 5.1317 2.86168C5.07835 2.68587 5.07208 2.63093 5.07073 2.32814C5.0689 1.92184 5.10905 1.7404 5.2756 1.40261C5.47668 0.994614 5.80258 0.661334 6.20597 0.451166C6.5328 0.280869 6.80697 0.21569 7.19618 0.215821C7.97316 0.216082 8.63739 0.596137 9.19432 1.35906C9.42692 1.6777 10.2969 3.08609 11.9456 5.81309C12.2503 6.31702 12.3152 6.47011 12.2368 6.50019C12.1725 6.52484 12.3115 6.66445 10.1416 4.39549C9.51808 3.74352 8.79649 2.98472 8.53806 2.70924C7.60681 1.71653 7.51473 1.6436 7.19199 1.64268C6.97309 1.64207 6.85741 1.68826 6.70371 1.83763C6.57124 1.96638 6.51261 2.09016 6.49985 2.26797C6.48746 2.44047 6.51858 2.5693 6.60366 2.69783C6.63709 2.74833 7.1629 3.30968 7.77209 3.94527C8.38129 4.58086 9.15303 5.38593 9.48707 5.73433C9.82113 6.08276 10.1524 6.43866 10.2231 6.52529C10.6667 7.06805 10.9738 7.71602 11.1238 8.42574C11.1715 8.65153 11.1833 8.775 11.1929 9.14972C11.2003 9.43943 11.195 9.67769 11.1783 9.81393C11.0589 10.7866 10.6255 11.6775 9.93603 12.3678C9.53929 12.765 9.23365 12.9689 8.32441 13.4427L7.94331 13.6414L7.93242 19.2962C7.92643 22.4063 7.91524 24.9573 7.90757 24.9649C7.89988 24.9726 7.83995 24.9269 7.77436 24.8633H7.77438ZM3.85502 14.1385C5.8542 13.1127 6.25869 12.8999 6.34269 12.8293L6.41891 12.7654L6.42483 11.3865C6.42816 10.6108 6.42237 9.99934 6.41154 9.98854C6.3894 9.96637 6.17522 10.1321 5.7909 10.4689C4.69777 11.4267 3.77518 12.5331 3.02729 13.7829C2.86106 14.0607 2.46635 14.7856 2.46635 14.813C2.46635 14.8214 2.47633 14.8282 2.4885 14.8282C2.50067 14.8282 3.11562 14.5178 3.85502 14.1385Z" fill="#ECBBC4"/>
<path d="M7.1627 24.2342L6.42981 23.4894V18.9774C6.42981 16.4957 6.42327 14.4588 6.41533 14.4508C6.40034 14.4358 5.05615 15.1109 1.88204 16.7276C0.871973 17.242 0.0420889 17.6595 0.0378424 17.6552C0.0222935 17.6397 0.158749 17.0074 0.246097 16.6902C0.78678 14.7266 1.84556 12.7175 3.18405 11.1152C4.09214 10.0282 5.24239 8.99648 6.41892 8.21368C7.02576 7.80993 7.84036 7.34372 7.89942 7.36637C7.92864 7.37759 7.93243 7.64597 7.93243 9.69901C7.93243 11.5588 7.93792 12.019 7.96007 12.019C8.00458 12.019 8.30105 11.8636 8.46615 11.7538C9.15141 11.298 9.60696 10.5993 9.74926 9.78581C9.79338 9.5335 9.79346 9.06129 9.74943 8.80682C9.70322 8.5397 9.58606 8.1978 9.45459 7.94643C9.23214 7.52103 9.13974 7.41733 7.1169 5.32248C5.67712 3.83146 5.44694 3.56669 5.26551 3.19295C5.11786 2.88873 5.06978 2.66566 5.07207 2.29545C5.07431 1.93156 5.11549 1.74908 5.26595 1.43647C5.39459 1.1692 5.51371 1.00481 5.72486 0.80315C6.13046 0.415778 6.62892 0.215995 7.19024 0.21582C7.78387 0.215603 8.31802 0.442804 8.79979 0.900473C9.11994 1.20457 9.35653 1.56341 10.7964 3.92874C12.2782 6.36299 12.3041 6.40839 12.2561 6.48614C12.2319 6.52532 12.2036 6.51288 12.0988 6.41678C11.961 6.29056 9.29494 3.50692 8.47967 2.63814C7.77648 1.88879 7.61832 1.7427 7.43617 1.67441C7.08251 1.54181 6.70771 1.70533 6.54277 2.06418C6.42735 2.31536 6.48301 2.582 6.70272 2.83015C6.76047 2.89539 7.54974 3.72294 8.45663 4.66916C9.36352 5.61538 10.1543 6.44836 10.214 6.52022C10.6169 7.00552 10.9406 7.66343 11.0911 8.30299C11.2906 9.15105 11.2153 10.1082 10.8847 10.9258C10.6551 11.4937 10.38 11.9049 9.92663 12.3578C9.48808 12.796 9.23294 12.9696 8.39513 13.3999L7.93243 13.6376L7.9321 19.2798C7.93193 22.3829 7.92361 24.9347 7.91368 24.9504C7.90079 24.9708 7.68559 24.7655 7.1627 24.2342V24.2342ZM4.94896 13.5817C6.25069 12.9112 6.34906 12.8567 6.39353 12.7814C6.42635 12.7258 6.42981 12.5891 6.42981 11.3459C6.42981 10.2544 6.42415 9.97188 6.40233 9.97188C6.38721 9.97188 6.21818 10.103 6.02667 10.2633C4.80414 11.2866 3.8054 12.4614 2.99109 13.8341C2.78965 14.1736 2.46637 14.785 2.46637 14.8263C2.46637 14.8532 2.99322 14.5891 4.94896 13.5817Z" fill="#E7A8B4"/>
<path d="M7.16477 24.2301L6.42979 23.4777V18.9571C6.42979 15.9079 6.42259 14.4365 6.40765 14.4365C6.38522 14.4365 4.53394 15.3717 1.67205 16.8288C0.809981 17.2677 0.0906814 17.6303 0.0736081 17.6345C0.0323839 17.6447 0.0481288 17.5317 0.147716 17.103C0.452836 15.7892 1.08032 14.2842 1.86778 12.977C3.18289 10.794 5.05847 8.96315 7.2977 7.67647C7.57286 7.51841 7.87493 7.35891 7.89923 7.35891C7.90552 7.35891 7.91066 8.39198 7.91066 9.65462C7.91066 10.9173 7.91661 11.9658 7.92388 11.9848C7.94324 12.0352 7.98129 12.028 8.1562 11.9406C8.9735 11.5324 9.5487 10.7769 9.74293 9.85649C9.80882 9.54427 9.80882 9.04989 9.74293 8.73767C9.65845 8.33738 9.53038 8.02492 9.31612 7.69646C9.12946 7.41031 9.06078 7.3355 7.36626 5.57319C5.48092 3.61244 5.4638 3.5929 5.26498 3.17315C5.12473 2.87713 5.07308 2.64218 5.07443 2.30661C5.07665 1.74502 5.28421 1.24979 5.68512 0.849394C6.08711 0.447932 6.54717 0.244794 7.10489 0.222582C7.6633 0.200326 8.15476 0.37537 8.64623 0.771584C9.04307 1.09151 9.19758 1.31717 10.6367 3.67857C11.9009 5.75311 12.2308 6.30616 12.2508 6.38517C12.3146 6.63617 12.213 6.5431 10.7062 4.96896C8.85917 3.03937 8.97302 3.1589 8.44004 2.58972C7.793 1.89873 7.66236 1.77621 7.48311 1.69217C7.19152 1.55545 6.90421 1.61212 6.68145 1.85027C6.53487 2.00698 6.48515 2.12815 6.48524 2.32839C6.48535 2.56665 6.54935 2.68394 6.85179 3.00032C6.98511 3.13981 7.76055 3.94887 8.57495 4.79824C9.38937 5.64762 10.1179 6.4169 10.1939 6.50775C10.8695 7.31516 11.2331 8.38276 11.1919 9.43863C11.1463 10.6079 10.6723 11.6638 9.84123 12.4475C9.47722 12.7907 9.14715 13.0059 8.37887 13.401C8.1513 13.518 7.95531 13.623 7.94333 13.6342C7.92896 13.6477 7.91785 15.585 7.91066 19.3186L7.89977 24.9825L7.16477 24.2301ZM3.87712 14.1384C6.00902 13.0448 6.28278 12.9005 6.35902 12.8307L6.42979 12.7658V11.369C6.42979 10.1616 6.4255 9.97215 6.39813 9.97215C6.35484 9.97215 5.88205 10.3662 5.46367 10.7511C4.31445 11.8081 3.25401 13.2205 2.52933 14.6592C2.43647 14.8436 2.4343 14.8502 2.46705 14.8502C2.4794 14.8502 3.11394 14.5299 3.87712 14.1384V14.1384Z" fill="#E297A4"/>
<path d="M7.17567 24.2354L6.45158 23.4995V18.9779C6.45158 15.0172 6.44759 14.4549 6.41952 14.4441C6.38716 14.4317 5.24347 15.0044 1.88182 16.7162C0.883572 17.2246 0.0615066 17.6351 0.0549735 17.6286C0.0265107 17.6002 0.217148 16.7951 0.364928 16.3197C0.962711 14.3967 2.00264 12.5099 3.30567 10.9843C3.65408 10.5764 4.5339 9.69533 4.93804 9.34961C5.54343 8.83175 6.15883 8.37914 6.79999 7.98011C7.24901 7.70067 7.86725 7.35598 7.89201 7.37125C7.90224 7.37758 7.91062 8.42038 7.91062 9.68857C7.91062 11.2389 7.91794 11.9989 7.93293 12.0082C7.97404 12.0336 8.07846 11.9954 8.27293 11.884C9.04471 11.4416 9.55855 10.7424 9.74228 9.88457C9.78185 9.69985 9.79126 9.58687 9.79126 9.29659C9.79126 8.75904 9.70907 8.41945 9.46406 7.9447C9.24907 7.52813 9.21789 7.49265 7.47543 5.68158C5.70743 3.84396 5.57942 3.70347 5.38221 3.38428C5.15514 3.01673 5.06764 2.67653 5.08578 2.23166C5.09937 1.89808 5.13669 1.73782 5.26435 1.46502C5.44543 1.07804 5.68796 0.793913 6.02437 0.574617C6.90966 -0.00243421 7.97445 0.125681 8.78469 0.90674C9.00586 1.11994 9.21083 1.38366 9.45687 1.77155C9.96284 2.56923 12.1634 6.18768 12.2255 6.324C12.3219 6.5359 12.2357 6.54308 12.0285 6.34034C11.8991 6.21377 10.9571 5.23136 9.40262 3.60186C9.17409 3.36231 8.7803 2.94582 8.52753 2.67633C7.61191 1.70017 7.51402 1.62284 7.192 1.62105C6.99453 1.61996 6.83185 1.68628 6.69409 1.82406C6.42366 2.09449 6.40465 2.47875 6.64679 2.77982C6.69252 2.83668 7.12976 3.2997 7.61842 3.80874C8.1071 4.31778 8.86446 5.10666 9.30149 5.5618C9.73851 6.01695 10.1548 6.46283 10.2265 6.55266C10.7155 7.16506 11.0289 7.87824 11.1486 8.65081C11.2053 9.01671 11.1992 9.63587 11.1351 10.0043C10.9165 11.2631 10.2031 12.322 9.12257 12.9916C9.01296 13.0595 8.72239 13.2179 8.47685 13.3435C8.23132 13.4692 8.00348 13.5907 7.97058 13.6135L7.91073 13.6549L7.90525 19.3131L7.89976 24.9713L7.17567 24.2354ZM4.04233 14.0583C5.98953 13.0599 6.29881 12.8968 6.36325 12.8341C6.40184 12.7966 6.42076 12.7478 6.43217 12.6564C6.45123 12.5039 6.45641 10.0682 6.43784 9.9989C6.43065 9.97194 6.41645 9.9499 6.40632 9.9499C6.39622 9.9499 6.2724 10.0445 6.13121 10.1601C4.83001 11.2254 3.729 12.5259 2.89297 13.9852C2.69828 14.3251 2.44458 14.8093 2.44458 14.841C2.44458 14.8737 2.61226 14.7916 4.04233 14.0583Z" fill="#E08E9D"/>
<path d="M7.18115 24.241L6.4625 23.5162L6.45161 18.9821C6.44181 14.904 6.43733 14.4473 6.40686 14.4415C6.37402 14.4351 5.0677 15.0913 1.73686 16.7872C0.850528 17.2385 0.10821 17.6141 0.0872385 17.622C0.0380221 17.6406 0.0385448 17.6199 0.0935538 17.3707C0.510695 15.4813 1.39685 13.5424 2.6042 11.8777C3.59484 10.5118 4.95029 9.21238 6.38733 8.25113C6.91601 7.89747 7.80153 7.3807 7.87884 7.3807C7.90659 7.3807 7.91068 7.67898 7.91068 9.69764C7.91068 11.6738 7.91521 12.0163 7.94145 12.0264C7.98076 12.0415 8.23762 11.9186 8.44 11.7879C9.32737 11.215 9.84556 10.2188 9.79789 9.17732C9.77091 8.58811 9.59127 8.06479 9.25461 7.59464C9.09638 7.37371 8.86888 7.12634 7.84716 6.06436C7.43296 5.63385 6.95194 5.13373 6.77827 4.95301C5.69499 3.82573 5.4471 3.53664 5.2932 3.22126C5.12257 2.87155 5.06791 2.60388 5.08645 2.20863C5.11062 1.69294 5.29906 1.26147 5.66526 0.883335C5.87273 0.669113 6.04235 0.546856 6.30239 0.42412C6.63247 0.268326 6.81769 0.228299 7.20292 0.229519C7.49317 0.230434 7.55142 0.237097 7.72558 0.289341C8.12823 0.410182 8.46574 0.606002 8.77371 0.897511C9.1003 1.20668 9.27461 1.46437 10.3824 3.27571C11.3074 4.7882 12.2071 6.27995 12.236 6.34907C12.303 6.50931 12.2421 6.53466 12.0991 6.40613C11.9911 6.30896 9.65573 3.86974 8.74943 2.90741C7.58709 1.67317 7.52233 1.62008 7.18115 1.62132C6.97067 1.62208 6.8411 1.67631 6.69022 1.82683C6.53532 1.98138 6.48417 2.10623 6.4848 2.3284C6.48524 2.48807 6.49366 2.52949 6.5461 2.62991C6.6215 2.77429 6.5522 2.69972 8.45191 4.68033C9.31927 5.58463 10.0952 6.40291 10.1762 6.49873C10.8875 7.34046 11.2679 8.5144 11.1789 9.59335C11.0711 10.8998 10.4726 11.996 9.44366 12.7714C9.21594 12.943 8.95797 13.0947 8.42985 13.3672C8.17044 13.5011 7.94748 13.6235 7.93446 13.6392C7.91754 13.6596 7.9092 15.2842 7.90528 19.3168L7.89979 24.9658L7.18115 24.241ZM3.74428 14.2152C5.90823 13.1055 6.26337 12.9184 6.35361 12.8405L6.44072 12.7653L6.44739 11.4078C6.45107 10.6611 6.44843 10.0278 6.44153 10.0003C6.43465 9.97286 6.41845 9.95038 6.40553 9.95038C6.37411 9.95038 5.98414 10.2717 5.63497 10.5854C4.41536 11.6809 3.43526 12.9425 2.63199 14.4508C2.46772 14.7592 2.42005 14.872 2.45398 14.872C2.45914 14.872 3.03979 14.5764 3.74428 14.2152Z" fill="#DD8595"/>
<path d="M7.17565 24.2304L6.45156 23.488V18.9637C6.45156 15.9546 6.44422 14.4349 6.42967 14.4259C6.40992 14.4137 4.57892 15.3342 1.25771 17.026C0.598946 17.3616 0.0568039 17.6271 0.0529494 17.6161C0.0417777 17.5841 0.194065 16.9401 0.302407 16.5613C0.849797 14.6473 1.89922 12.6776 3.19781 11.1267C4.28811 9.82459 5.61174 8.69581 7.07221 7.82266C7.44113 7.60208 7.84832 7.38104 7.88569 7.38104C7.90427 7.38104 7.91063 7.97316 7.91063 9.70098C7.91063 11.6945 7.91503 12.0226 7.94181 12.0329C7.95897 12.0395 8.05203 12.005 8.14861 11.9564C8.98629 11.534 9.54953 10.8059 9.75069 9.88541C9.80437 9.63979 9.81706 9.11509 9.77549 8.86162C9.68425 8.30541 9.45014 7.79483 9.09661 7.38104C8.95462 7.21486 8.43681 6.66897 7.47493 5.67153C5.58287 3.70948 5.47034 3.58167 5.27492 3.17282C5.16028 2.93303 5.10044 2.69314 5.08609 2.41585C5.07158 2.13566 5.10159 1.92858 5.19737 1.64794C5.29872 1.35103 5.44432 1.11828 5.67847 0.878838C5.96664 0.584193 6.2494 0.414854 6.66314 0.289135C6.8312 0.238067 6.89276 0.230837 7.1702 0.229618C7.44725 0.228398 7.51134 0.23528 7.69285 0.285672C8.09469 0.397258 8.45571 0.601354 8.76945 0.894365C9.07671 1.18132 9.28224 1.48557 10.371 3.26516C11.139 4.52052 12.211 6.29828 12.2396 6.36398C12.3029 6.5096 12.2456 6.52846 12.1102 6.40651C11.9882 6.29658 9.34726 3.53863 8.52701 2.66454C7.804 1.89409 7.67167 1.7675 7.50063 1.68265C7.24374 1.55526 6.93412 1.60042 6.71519 1.79727C6.41299 2.06896 6.3894 2.4903 6.65877 2.80586C6.7128 2.86916 7.50564 3.70155 8.42058 4.65556C9.33555 5.60962 10.1406 6.45878 10.2095 6.54262C10.6998 7.13864 11.0357 7.91319 11.1456 8.70086C11.1896 9.01611 11.1792 9.75061 11.1269 10.027C10.9208 11.1153 10.397 12.0013 9.56264 12.6726C9.28442 12.8965 9.04572 13.0417 8.44417 13.3532C8.16868 13.4958 7.93597 13.6196 7.92705 13.6283C7.91812 13.6369 7.91067 16.1939 7.91054 19.3105C7.91041 22.4271 7.90793 24.976 7.90503 24.9749C7.90211 24.9737 7.57391 24.6387 7.17565 24.2304ZM3.92336 14.1287C5.47455 13.3332 6.20016 12.9563 6.31795 12.8849C6.45428 12.8023 6.45156 12.8338 6.45156 11.3336C6.45156 10.1374 6.44753 9.96962 6.41861 9.95854C6.35913 9.93572 5.65003 10.5407 5.12984 11.0581C4.10827 12.0741 3.27555 13.2094 2.59421 14.5149C2.44399 14.8027 2.41832 14.8724 2.46246 14.8724C2.46834 14.8724 3.12573 14.5377 3.92336 14.1287V14.1287Z" fill="#D97587"/>
<path d="M7.15196 24.1954L6.4516 23.4777V18.9464C6.4516 15.112 6.44699 14.4152 6.42159 14.4152C6.39296 14.4152 5.14469 15.0436 2.19417 16.5432C1.45157 16.9207 0.663758 17.3228 0.44346 17.4367C0.0807832 17.6244 0.0439797 17.639 0.0539755 17.5921C0.418634 15.8778 1.06485 14.2904 2.02365 12.7534C3.11946 10.9968 4.64425 9.43054 6.41177 8.24601C6.95485 7.88205 7.84734 7.36635 7.88927 7.39226C7.90307 7.40078 7.91067 8.22515 7.91067 9.71327C7.91067 11.8515 7.91335 12.0221 7.94715 12.035C7.99157 12.0521 8.26625 11.9144 8.5088 11.7536C8.73265 11.6052 9.05232 11.2991 9.23046 11.0627C9.48664 10.7227 9.6959 10.2331 9.77009 9.80001C9.81593 9.53259 9.81593 9.06248 9.77009 8.79504C9.69503 8.35686 9.50115 7.90777 9.23272 7.55019C9.05515 7.31362 8.84733 7.09093 7.38815 5.57363C6.11526 4.25004 5.92843 4.05306 5.71906 3.81367C5.40321 3.4526 5.2232 3.12694 5.12988 2.74776C5.07485 2.52417 5.0803 2.0878 5.14121 1.84153C5.2901 1.23956 5.69877 0.734594 6.2665 0.451121C6.40435 0.382305 6.47985 0.354866 6.80004 0.257217C6.8635 0.237879 7.00165 0.227774 7.19203 0.228558C7.55035 0.230061 7.76969 0.285222 8.13933 0.466822C8.54428 0.665756 8.85304 0.935314 9.16264 1.36016C9.39289 1.67609 9.90463 2.50155 11.4779 5.09455C12.1071 6.13158 12.2661 6.408 12.2661 6.46469C12.2661 6.5266 12.1566 6.44896 11.9498 6.2404C11.5823 5.86982 9.30509 3.48736 8.61621 2.75279C7.88428 1.9723 7.6694 1.76346 7.51513 1.68264C7.4118 1.6285 7.37598 1.62171 7.19203 1.62142C6.94094 1.62103 6.83499 1.66581 6.66722 1.84318C6.51887 2.00004 6.46513 2.12589 6.46445 2.31797C6.46362 2.55188 6.5442 2.70329 6.82606 2.99748C6.94995 3.12679 7.7137 3.92349 8.52326 4.7679C9.33283 5.61231 10.0529 6.37002 10.1235 6.45171C10.6354 7.04446 10.9798 7.76809 11.1151 8.53535C11.1719 8.85734 11.1913 9.40926 11.1572 9.73531C11.0487 10.7751 10.5581 11.7648 9.80853 12.4558C9.43333 12.8017 9.17873 12.9673 8.40373 13.3699L7.92156 13.6203L7.91067 19.2588C7.90288 23.2971 7.89303 24.8995 7.87605 24.9052C7.86302 24.9095 7.53719 24.5901 7.15196 24.1954ZM2.79862 14.7116C2.96924 14.6231 3.69682 14.2491 4.41546 13.8806C6.09692 13.0182 6.32042 12.8996 6.38629 12.8346L6.44074 12.7809V11.3716C6.44074 10.0764 6.43782 9.96177 6.40461 9.95539C6.38366 9.95136 6.23281 10.0617 6.04529 10.2182C4.81714 11.2431 3.83556 12.3882 3.01674 13.7515C2.7999 14.1126 2.42285 14.8083 2.42285 14.8475C2.42285 14.8958 2.4911 14.8711 2.79862 14.7116Z" fill="#D5667A"/>
<path d="M7.16479 24.1981L6.45159 23.4837V18.9493C6.45159 14.7591 6.44886 14.415 6.41583 14.415C6.39616 14.415 5.87434 14.6711 5.25619 14.9842C3.16326 16.0442 0.191045 17.5558 0.117177 17.5979L0.0437012 17.6398L0.0555262 17.5899C0.0620158 17.5625 0.0969245 17.4126 0.133096 17.2568C0.584689 15.3116 1.5044 13.3642 2.75905 11.6966C4.03114 10.0058 5.80258 8.48793 7.65477 7.50178L7.88888 7.37713V9.67477C7.88888 10.9385 7.89482 11.9879 7.9021 12.0068C7.9232 12.0618 7.99641 12.0475 8.18141 11.9522C9.02214 11.5193 9.59638 10.7505 9.77386 9.82002C9.83114 9.51978 9.82707 9.03175 9.76487 8.73796C9.6719 8.299 9.48662 7.87809 9.24137 7.54884C9.08348 7.33686 8.83799 7.07344 7.55266 5.7368C5.78089 3.89435 5.64172 3.74382 5.45389 3.46691C4.89552 2.64377 4.98958 1.5969 5.68594 0.883984C5.96003 0.603363 6.33146 0.383675 6.66936 0.302294C6.73523 0.286418 6.80072 0.264837 6.81487 0.254319C6.85481 0.224658 7.29776 0.209654 7.43156 0.233435C7.93777 0.32344 8.39899 0.558676 8.77268 0.917455C9.14228 1.27225 9.28048 1.48566 11.3767 4.93802C11.8299 5.68445 12.2008 6.30035 12.2008 6.30669C12.2008 6.31303 12.2167 6.35188 12.2363 6.39306C12.3273 6.58498 12.1679 6.46691 11.7606 6.0407C11.5655 5.83657 10.8811 5.12119 10.2397 4.45097C9.5983 3.78078 8.85204 2.99724 8.58135 2.70978C8.00188 2.0944 7.66843 1.76487 7.56043 1.70082C7.44199 1.63059 7.22515 1.5817 7.10736 1.59869C6.86241 1.63403 6.62876 1.81032 6.52077 2.04131C6.43954 2.21505 6.4388 2.44083 6.51896 2.61209C6.58826 2.76022 6.56977 2.74018 8.36752 4.61528C10.0531 6.37335 10.1341 6.45937 10.2673 6.63263C10.8871 7.43871 11.2115 8.45174 11.1696 9.44981C11.1086 10.9023 10.3983 12.1444 9.17373 12.94C9.07192 13.0061 8.75844 13.1795 8.47712 13.3252C8.19578 13.4709 7.94837 13.6057 7.92729 13.6248C7.89092 13.6577 7.88868 13.9472 7.88348 19.286L7.87799 24.9125L7.16479 24.1981ZM3.92544 14.1386C6.1133 13.0171 6.30263 12.9165 6.38096 12.8345L6.45191 12.7602L6.44629 11.3518C6.4422 10.3212 6.43403 9.94123 6.41587 9.93518C6.40222 9.93061 6.27023 10.0259 6.12258 10.1469C4.6612 11.3443 3.4758 12.8045 2.59429 14.4931C2.41872 14.8294 2.39095 14.9109 2.46092 14.8843C2.48189 14.8764 3.14091 14.5408 3.92544 14.1386Z" fill="#D25B70"/>
<path d="M7.17571 24.2084L6.47339 23.5049V18.991C6.47339 15.8463 6.46638 14.4639 6.45026 14.4337C6.42853 14.3931 6.34009 14.4345 4.99664 15.1132C4.20985 15.5107 2.78979 16.2315 1.84091 16.7149C0.891995 17.1984 0.106406 17.594 0.0950814 17.594C0.0837573 17.594 0.0696021 17.6062 0.0635481 17.6212C0.0570367 17.6373 0.0518755 17.6328 0.050852 17.61C0.0499156 17.5889 0.0583869 17.5546 0.069711 17.5338C0.0810351 17.513 0.116423 17.3735 0.14837 17.2237C0.342644 16.313 0.744258 15.1948 1.24333 14.1749C2.61664 11.3685 4.75474 9.12258 7.52172 7.57997C7.69705 7.48224 7.85141 7.40225 7.86471 7.40225C7.88231 7.40225 7.88891 8.03198 7.88891 9.70986C7.88891 12.3764 7.86138 12.1129 8.12665 11.9858C8.98205 11.5758 9.58489 10.7871 9.77605 9.82766C9.83332 9.54031 9.8281 9.00934 9.76514 8.71467C9.65765 8.21175 9.41627 7.72564 9.08639 7.34781C8.93652 7.17616 8.43536 6.64904 7.4197 5.59474C5.62221 3.72892 5.47857 3.5662 5.2978 3.19081C5.1697 2.9248 5.12125 2.72874 5.10746 2.42048C5.0893 2.01397 5.14862 1.72989 5.32454 1.38084C5.46339 1.10541 5.74048 0.789877 6.001 0.610651C6.1554 0.504422 6.47511 0.356424 6.63968 0.315026C6.72189 0.294338 6.80508 0.26912 6.82457 0.258993C6.88455 0.227787 7.26098 0.211563 7.39892 0.234233C7.91389 0.31888 8.38177 0.549914 8.76134 0.906994C9.09519 1.22106 9.32751 1.57396 10.8724 4.1139C12.1683 6.2446 12.2661 6.40986 12.2661 6.46923C12.2661 6.49425 12.1979 6.46505 12.1351 6.41313C12.0519 6.34442 9.57472 3.76028 8.63671 2.76371C7.62405 1.68784 7.51393 1.59907 7.19158 1.59879C7.05025 1.59866 7.00785 1.60846 6.88241 1.67022C6.72154 1.7494 6.59273 1.87873 6.51253 2.04152C6.47213 2.12353 6.46257 2.17867 6.46281 2.32817C6.46307 2.48808 6.47137 2.52902 6.52372 2.62891C6.60109 2.77654 6.5647 2.73723 8.30215 4.54944C10.0981 6.42267 10.1399 6.46718 10.2929 6.67051C11.4977 8.27129 11.458 10.4889 10.1969 12.0299C10.0428 12.2182 9.73258 12.5239 9.54397 12.6734C9.25695 12.9008 8.90655 13.1086 8.24823 13.4417C8.09252 13.5205 7.95043 13.5949 7.93246 13.607C7.90361 13.6264 7.89853 14.2882 7.88891 19.2704L7.87802 24.912L7.17571 24.2084ZM3.90495 14.1518C5.98865 13.0836 6.32141 12.9081 6.38668 12.8428C6.46904 12.7604 6.47307 12.6863 6.47324 11.2446C6.47337 10.2415 6.4678 9.99438 6.44428 9.96224C6.42825 9.94033 6.40429 9.9262 6.39103 9.93084C6.31507 9.95745 5.5929 10.5913 5.20293 10.9737C4.55644 11.6076 4.10458 12.1333 3.61174 12.8248C3.21529 13.381 2.824 14.0261 2.54529 14.5829C2.42796 14.8173 2.40222 14.8936 2.44044 14.8936C2.45011 14.8936 3.10913 14.5598 3.90495 14.1518Z" fill="#D0556B"/>
<path d="M7.16123 24.1886L6.47338 23.4875V18.9748C6.47338 16.4928 6.46743 14.4466 6.46016 14.4276C6.45288 14.4087 6.43784 14.3932 6.42673 14.3932C6.40726 14.3932 4.95553 15.1265 1.64974 16.8062C0.78736 17.2443 0.0745937 17.6132 0.065774 17.6259C0.056192 17.6396 0.0496589 17.6341 0.0494411 17.612C0.0492669 17.5918 0.0577818 17.5699 0.0683872 17.5633C0.0789709 17.5568 0.0945634 17.5047 0.103013 17.4477C0.161201 17.0552 0.48076 15.9892 0.734725 15.3405C1.49926 13.3876 2.62679 11.6505 4.07789 10.1899C5.00407 9.25771 6.00432 8.4756 7.10491 7.8231C7.40714 7.64391 7.84865 7.40271 7.87439 7.40271C7.88236 7.40271 7.88889 8.44028 7.88889 9.70843C7.88889 11.7601 7.89259 12.0172 7.92249 12.042C7.97167 12.0828 8.3544 11.8869 8.62777 11.681C9.97664 10.6648 10.2229 8.75986 9.17455 7.45058C9.0272 7.26656 8.65932 6.87618 7.51846 5.6932C5.6451 3.75068 5.50477 3.59264 5.31422 3.21061C5.16444 2.91026 5.10124 2.64201 5.1017 2.30829C5.10277 1.53542 5.55405 0.819868 6.26649 0.461329C6.40504 0.39162 6.73122 0.28158 6.79934 0.28158C6.82168 0.28158 6.84385 0.269886 6.84862 0.255578C6.86022 0.220778 7.4471 0.217185 7.52081 0.251484C7.54956 0.264855 7.65119 0.29739 7.74664 0.323784C8.28038 0.471325 8.76603 0.832411 9.1568 1.3722C9.34674 1.63457 9.84587 2.43397 10.8214 4.03814C12.0938 6.13055 12.2083 6.32193 12.218 6.3723C12.2233 6.40005 12.2363 6.42274 12.2469 6.42274C12.2574 6.42274 12.2653 6.4399 12.2644 6.46085C12.2633 6.48384 12.2583 6.48811 12.2516 6.47161C12.2456 6.45656 12.2309 6.45022 12.2191 6.45756C12.2073 6.4649 12.1724 6.44776 12.1418 6.41958C12.0365 6.32278 9.2261 3.3848 8.57197 2.68774C7.82149 1.88795 7.67933 1.75173 7.50387 1.66421C7.39464 1.60975 7.35156 1.60088 7.19202 1.60006C7.03283 1.59923 6.98978 1.60753 6.88442 1.65925C6.74611 1.72719 6.58851 1.88383 6.51534 2.0261C6.48156 2.09181 6.46321 2.17288 6.45676 2.28508C6.44528 2.48401 6.4952 2.63634 6.62209 2.78976C6.66839 2.84573 7.45648 3.67383 8.37341 4.62993C9.29029 5.58604 10.1021 6.44179 10.1774 6.53162C10.874 7.36247 11.2431 8.52094 11.1559 9.6022C11.0689 10.6806 10.6215 11.6495 9.87808 12.3693C9.48054 12.7542 9.22755 12.9257 8.49865 13.3043C8.21718 13.4505 7.96483 13.584 7.93789 13.601L7.88889 13.632V19.2609C7.88889 22.6445 7.88096 24.8898 7.86899 24.8898C7.85805 24.8898 7.53956 24.5743 7.16123 24.1886ZM3.87763 14.1714C5.79452 13.1881 6.29864 12.924 6.37233 12.8647C6.41915 12.827 6.43962 12.7865 6.45295 12.7054C6.47342 12.5805 6.48017 10.0154 6.46016 9.96331C6.43762 9.90458 6.38583 9.92433 6.22536 10.0529C4.7816 11.2098 3.57386 12.6618 2.6786 14.317C2.40127 14.8297 2.37546 14.8941 2.44706 14.8941C2.459 14.8941 3.10275 14.5688 3.87763 14.1714Z" fill="#CE4B62"/>
<path d="M7.16473 24.1828L6.47331 23.4782V18.9456C6.47331 14.9771 6.46932 14.4116 6.4413 14.4008C6.40937 14.3886 5.16638 15.0108 1.87833 16.6849C0.938101 17.1636 0.150269 17.5651 0.127577 17.5771C0.0889447 17.5974 0.0872461 17.592 0.100748 17.4902C0.108675 17.4304 0.149659 17.2407 0.191842 17.0685C0.749947 14.7901 1.95782 12.5236 3.56752 10.7341C3.85175 10.4182 4.51421 9.76121 4.82913 9.48303C5.32703 9.04316 5.97936 8.54692 6.54953 8.17429C6.95676 7.90811 7.82504 7.40223 7.8746 7.40223C7.88231 7.40223 7.89111 8.4482 7.89416 9.72663C7.90052 12.3845 7.87358 12.1145 8.12075 11.9989C8.69702 11.7292 9.28875 11.1353 9.54763 10.5667C9.75203 10.1177 9.81556 9.81662 9.81556 9.29684C9.81556 8.73383 9.74132 8.4202 9.49347 7.93607C9.28197 7.52296 9.21244 7.4438 7.47554 5.63828C6.29332 4.40935 5.95845 4.05754 5.76549 3.84166C5.44983 3.48852 5.25895 3.16071 5.16313 2.80725C5.09368 2.55102 5.09364 2.07569 5.16302 1.81639C5.22748 1.57557 5.40372 1.22851 5.56056 1.03354C5.85009 0.673608 6.30573 0.387957 6.73008 0.300304C6.80308 0.285234 6.85866 0.266201 6.85356 0.257991C6.84851 0.249803 6.92346 0.236192 7.02016 0.227764C7.21667 0.210604 7.52447 0.232207 7.50616 0.261845C7.49962 0.272429 7.51883 0.281096 7.54886 0.281096C7.63564 0.281096 7.94995 0.386607 8.13129 0.476633C8.50473 0.661979 8.84282 0.957691 9.14027 1.35907C9.33184 1.61758 9.82344 2.4048 10.949 4.25543C12.0412 6.05124 12.2225 6.35851 12.2225 6.41452C12.2225 6.512 12.3577 6.64743 10.0794 4.26756C9.63727 3.80573 9.00412 3.1388 8.67235 2.78547C7.60259 1.64613 7.54268 1.59844 7.18107 1.59883C7.01094 1.59898 6.97044 1.60672 6.87431 1.65726C6.73559 1.73021 6.5764 1.88997 6.51183 2.021C6.47089 2.10411 6.46249 2.15668 6.46275 2.32815C6.46303 2.51164 6.46989 2.54805 6.5234 2.65015C6.59267 2.78233 6.51704 2.70119 8.46596 4.73452C9.28106 5.58492 9.99221 6.3297 10.0463 6.38959C10.6273 7.03252 10.9908 7.81194 11.1227 8.69797C11.1656 8.98608 11.1649 9.57543 11.1213 9.88805C10.9535 11.0916 10.2872 12.1692 9.29345 12.8444C9.05216 13.0084 8.74641 13.1804 8.30259 13.402C8.14089 13.4827 7.98166 13.5678 7.94871 13.5911L7.88882 13.6335V19.2614C7.88882 22.3567 7.88149 24.8888 7.87249 24.8883C7.86352 24.8878 7.54503 24.5703 7.16473 24.1828ZM3.54428 14.3473C4.88728 13.6602 6.08149 13.0425 6.24718 12.9494C6.31723 12.91 6.39678 12.8448 6.42392 12.8045L6.47331 12.7312V11.3642C6.47331 10.6124 6.46736 9.98177 6.46009 9.96283C6.43309 9.89249 6.35772 9.93487 6.04208 10.1977C4.74967 11.274 3.69019 12.5323 2.87085 13.9639C2.6563 14.3388 2.40098 14.8319 2.40098 14.8715C2.40098 14.8836 2.41814 14.8935 2.43909 14.8934C2.46006 14.8933 2.95739 14.6476 3.54428 14.3473V14.3473ZM0.0507693 17.603C0.0518146 17.5776 0.0569758 17.5725 0.0639227 17.5899C0.0702163 17.6056 0.0694323 17.6244 0.0622023 17.6316C0.0549723 17.6388 0.0498329 17.626 0.0507693 17.603ZM12.246 6.45311C12.247 6.42774 12.2522 6.42258 12.2591 6.43996C12.2654 6.45566 12.2646 6.47445 12.2574 6.48168C12.2502 6.48891 12.245 6.47607 12.246 6.45311Z" fill="#CB425B"/>
<path d="M7.1644 24.176L6.47341 23.4838V14.3934H6.42909C6.38722 14.3934 5.19908 14.9907 1.65421 16.7939C0.806254 17.2252 0.107164 17.5728 0.100696 17.5663C0.0675945 17.5332 0.3 16.6272 0.484475 16.0702C1.00244 14.5064 1.78429 13.0174 2.78277 11.693C3.85808 10.2667 5.26796 8.97954 6.81096 8.01535C7.20138 7.77139 7.81745 7.42469 7.86055 7.42469C7.88339 7.42469 7.88977 7.86298 7.89426 9.73852L7.89981 12.0523L7.94681 12.059C7.97266 12.0627 8.07556 12.0247 8.17547 11.9746C9.02343 11.5492 9.63765 10.7233 9.79264 9.80001C9.83681 9.53684 9.83733 9.05768 9.79373 8.80495C9.70427 8.28666 9.46755 7.77692 9.13295 7.38203C8.98943 7.21265 8.42375 6.61552 7.43073 5.58513C5.5815 3.66633 5.50755 3.58218 5.30585 3.16726C5.1577 2.86251 5.11713 2.67991 5.11713 2.31795C5.11713 1.97709 5.15241 1.80257 5.28185 1.5032C5.52804 0.933729 6.07489 0.472511 6.68752 0.317653C6.79728 0.289909 6.88188 0.261991 6.8755 0.255588C6.86912 0.249186 6.93328 0.237165 7.01806 0.228803C7.19935 0.210945 7.53705 0.234987 7.49341 0.262644C7.47283 0.275711 7.47984 0.28122 7.51732 0.28146C7.60979 0.282026 7.89348 0.37018 8.07584 0.455024C8.46863 0.63769 8.81241 0.928938 9.11685 1.33687C9.35096 1.65055 10.0601 2.7969 11.9667 5.94385C12.2538 6.41763 12.2956 6.54437 12.1086 6.37395C12.0659 6.33503 11.5674 5.81808 11.0008 5.2252C10.4342 4.63232 9.7738 3.94144 9.53327 3.68991C9.29275 3.43839 8.87918 3.0023 8.61421 2.72083C7.63344 1.67886 7.54487 1.60693 7.22472 1.59251C6.98909 1.58188 6.84177 1.63672 6.67903 1.79558C6.47049 1.9992 6.39207 2.25225 6.46224 2.49528C6.53193 2.73679 6.38023 2.5658 8.32405 4.59366C9.13347 5.43807 9.87424 6.21282 9.97023 6.31532C10.5795 6.96587 10.9419 7.69392 11.1024 8.58977C11.1496 8.85277 11.1672 9.44757 11.1362 9.73098C10.9907 11.0612 10.2968 12.1884 9.17378 12.9185C9.07197 12.9846 8.74368 13.1664 8.44424 13.3224L7.89981 13.606L7.89433 19.2371C7.89132 22.3342 7.8813 24.8682 7.87211 24.8682C7.86292 24.8682 7.54441 24.5567 7.16438 24.176H7.1644ZM3.81294 14.2163C5.57508 13.3128 6.25006 12.9621 6.33521 12.9056C6.48027 12.8095 6.47339 12.887 6.47339 11.351C6.47339 9.96807 6.47049 9.90729 6.40455 9.90729C6.39543 9.90729 6.27245 10.002 6.13125 10.1177C5.03148 11.019 4.06046 12.0935 3.31045 13.2392C2.89566 13.8728 2.38009 14.8082 2.40701 14.8783C2.41495 14.8991 2.42748 14.916 2.43486 14.916C2.44224 14.916 3.06237 14.6012 3.81294 14.2163ZM0.0508914 17.6037C0.0519367 17.5783 0.0570979 17.5732 0.0640448 17.5906C0.0703384 17.6063 0.0695544 17.625 0.0623244 17.6323C0.0550944 17.6395 0.049955 17.6267 0.0508914 17.6037Z" fill="#C93953"/>
<path d="M7.17562 24.1758L6.49509 23.4788V18.9809C6.49509 16.0326 6.48757 14.4632 6.47331 14.4256C6.45645 14.3813 6.44151 14.3715 6.4075 14.3823C6.35876 14.3977 4.21955 15.4794 1.72824 16.7483C0.837164 17.2022 0.105234 17.5706 0.101641 17.567C0.0980693 17.5634 0.118017 17.4526 0.145957 17.3206C0.501513 15.6419 1.36221 13.7198 2.4671 12.1371C3.65317 10.4382 5.26614 8.94185 7.08307 7.85471C7.3486 7.69587 7.83684 7.42431 7.85696 7.42431C7.86252 7.42431 7.86705 8.45247 7.86705 9.70912C7.86705 10.9658 7.87299 12.0094 7.88027 12.0284C7.93514 12.1714 8.54234 11.8236 8.95893 11.4106C10.0437 10.3351 10.1415 8.62871 9.18666 7.43787C9.03713 7.2514 8.70133 6.89519 7.3878 5.52969C6.05453 4.14369 5.86823 3.94643 5.6794 3.72086C5.28295 3.24725 5.12358 2.84712 5.12328 2.32442C5.12306 1.94872 5.19024 1.6771 5.36418 1.35066C5.55882 0.985368 5.87167 0.686171 6.26643 0.487803C6.48751 0.376696 6.77072 0.28447 6.90689 0.279221L6.9633 0.277044L6.90885 0.261212C6.82002 0.235319 7.16201 0.210406 7.34703 0.229265C7.4668 0.24146 7.49387 0.249626 7.45328 0.261342C7.4011 0.276412 7.40163 0.277153 7.46552 0.279221C7.58948 0.283272 7.87685 0.370947 8.07903 0.46644C8.48099 0.656271 8.80732 0.932362 9.11329 1.34145C9.29959 1.59051 9.88058 2.52072 10.9743 4.32106C12.2185 6.36892 12.2621 6.44433 12.204 6.44433C12.1922 6.44433 11.5329 5.76572 10.7388 4.93627C8.84107 2.95396 8.98522 3.10529 8.46222 2.54622C7.85115 1.893 7.67719 1.72943 7.5113 1.65201C7.18867 1.50149 6.8781 1.56664 6.62926 1.83703C6.50726 1.96959 6.44742 2.10763 6.43522 2.28455C6.42422 2.44391 6.47255 2.6052 6.57751 2.75955C6.61003 2.80738 7.39215 3.63397 8.31555 4.59643C9.23897 5.55888 10.0503 6.41004 10.1185 6.48789C10.3932 6.80117 10.684 7.28382 10.8482 7.6987C11.494 9.33029 11.076 11.2256 9.80768 12.4162C9.44145 12.76 9.13075 12.9626 8.36265 13.3582C8.11424 13.4861 7.90355 13.6022 7.89444 13.6162C7.88534 13.6302 7.87304 16.1687 7.86705 19.2573L7.85616 24.8728L7.17562 24.1758ZM3.65726 14.3036C5.36681 13.427 6.23263 12.9779 6.32577 12.9196C6.4938 12.8143 6.48337 12.9095 6.4911 11.4083C6.49491 10.67 6.4894 10.0326 6.47884 9.99185C6.46784 9.94937 6.44369 9.91476 6.42215 9.91063C6.34578 9.89593 5.62424 10.5155 5.0576 11.0825C4.02678 12.1138 3.15567 13.322 2.47779 14.6607C2.37783 14.8581 2.36786 14.9156 2.43358 14.9156C2.45009 14.9156 3.00075 14.6402 3.65724 14.3036H3.65726ZM0.0507475 17.6033C0.0518146 17.5779 0.0569758 17.5728 0.0639227 17.5902C0.0702163 17.6059 0.0694323 17.6247 0.0622023 17.6319C0.0549723 17.6391 0.0498329 17.6263 0.0507693 17.6033H0.0507475Z" fill="#C7324D"/>
<path d="M7.17569 24.1597L6.49522 23.4667L6.48971 18.9242L6.48422 14.3817L6.43979 14.3754C6.39687 14.3692 5.17178 14.9833 1.72807 16.737C0.848924 17.1847 0.12455 17.5459 0.118387 17.5398C0.112224 17.5336 0.129211 17.4281 0.156149 17.3053C0.619131 15.1937 1.79934 12.8444 3.26752 11.1119C4.50955 9.64633 5.98929 8.44494 7.6983 7.51467L7.86707 7.42279V12.0616L7.9216 12.0753C8.06241 12.1107 8.63842 11.7503 8.96758 11.4209C9.31381 11.0745 9.5401 10.7067 9.69685 10.2358C9.98307 9.37579 9.85482 8.40296 9.35582 7.64921C9.18015 7.38381 8.97916 7.16519 7.48712 5.61642C5.85797 3.92538 5.68406 3.73709 5.49168 3.45623C5.34412 3.24086 5.24998 3.04358 5.18192 2.80717C5.11272 2.56677 5.11402 2.064 5.18447 1.81631C5.32165 1.33403 5.6419 0.889492 6.04493 0.622003C6.30526 0.449201 6.73352 0.286591 6.95108 0.277924L7.02865 0.274831L6.94154 0.260458C6.79008 0.235458 7.20121 0.209021 7.36619 0.23315C7.49032 0.251312 7.49701 0.254513 7.42064 0.259217C7.34126 0.264073 7.34514 0.266208 7.46419 0.283194C8.07816 0.370825 8.67801 0.76558 9.12893 1.37874C9.33489 1.65883 11.1588 4.61781 12.0771 6.16181C12.217 6.397 12.2348 6.46233 12.1327 6.36636C12.0036 6.24491 9.22324 3.33859 8.56011 2.63188C7.79886 1.8206 7.71291 1.73917 7.51863 1.64522C7.39174 1.58383 7.35679 1.5768 7.18109 1.57719C6.93753 1.57774 6.82299 1.627 6.64428 1.80803C6.47664 1.97794 6.42211 2.12182 6.43483 2.36073C6.44517 2.55486 6.49846 2.6853 6.63333 2.84674C6.67529 2.89698 7.37935 3.63624 8.19789 4.48958C9.01642 5.3429 9.78827 6.14887 9.91305 6.28062C10.5139 6.91488 10.8861 7.6143 11.0601 8.43584C11.1361 8.7949 11.1571 9.50863 11.1027 9.88474C10.9905 10.6609 10.6622 11.4125 10.1752 12.008C9.98869 12.2361 9.60173 12.5989 9.36895 12.7639C9.09208 12.9601 8.97071 13.0305 8.38136 13.3364L7.87796 13.5977L7.86707 19.2252L7.85618 24.8527L7.17569 24.1597ZM3.68438 14.3006C5.16113 13.5434 6.14485 13.0347 6.29132 12.9524C6.49916 12.8356 6.48337 12.9597 6.49047 11.3874C6.49391 10.6268 6.49128 9.98246 6.48461 9.95552C6.46307 9.86841 6.37634 9.8941 6.19395 10.0418C4.65039 11.2912 3.48662 12.7203 2.52422 14.5482C2.35538 14.8689 2.33794 14.96 2.45235 14.9237C2.47637 14.916 3.03076 14.6356 3.68435 14.3006H3.68438ZM0.0507693 17.6029C0.0518146 17.5776 0.0569758 17.5724 0.0639227 17.5898C0.0702163 17.6055 0.0694323 17.6243 0.0622023 17.6315C0.0549723 17.6387 0.0498329 17.6259 0.0507693 17.6029Z" fill="#C62B47"/>
</g>
<defs>
<clipPath id="clip0_3623_36963">
<rect width="12.38" height="25" fill="white" transform="translate(0 -0.00195312)"/>
</clipPath>
</defs>
</svg>
