<svg width="29" height="28" viewBox="0 0 29 28" fill="none" xmlns="http://www.w3.org/2000/svg">
<path d="M24.6499 0.905273H4.34989C2.48132 0.905273 0.966553 2.32824 0.966553 4.08356V23.1533C0.966553 24.9086 2.48132 26.3315 4.34989 26.3315H24.6499C26.5185 26.3315 28.0332 24.9086 28.0332 23.1533V4.08356C28.0332 2.32824 26.5185 0.905273 24.6499 0.905273Z" fill="#8F0000"/>
<path d="M6.40375 12.6298C6.41088 11.4734 5.42027 10.5539 4.1892 10.5539H0.966187V11.9727H4.1892C4.60486 11.9727 4.95368 12.2559 4.95368 12.6464V14.7037C4.95368 15.0942 4.60486 15.4348 4.1892 15.4348H0.966187V16.7969H4.1892C5.42027 16.7969 6.4037 15.8602 6.4037 14.7037L6.40367 13.7428C11.497 13.8114 12.9793 15.0554 14.6003 16.3869C16.1616 17.6694 17.9123 19.0479 22.4743 19.0818L22.4746 19.5534C22.4751 20.7099 23.4835 21.6778 24.7146 21.6778H28.0327V20.2021H24.7146C24.2989 20.2021 23.9848 19.9439 23.9848 19.5534V17.496C23.9848 17.1056 24.2989 16.7968 24.7146 16.7968H28.0327V15.4347H24.7146C23.4835 15.4347 22.4751 16.3396 22.4746 17.496L22.4743 17.9834C18.1631 17.9701 16.9385 16.847 15.3706 15.559C14.0328 14.4599 12.4605 13.2516 8.99685 12.812C9.02695 12.7877 9.05473 12.7641 9.08378 12.7391C9.75069 12.1646 10.1103 11.4705 10.4621 10.8712C10.814 10.2719 11.145 9.77176 11.6872 9.42215C12.1271 9.13852 12.7527 8.92708 13.7141 8.88785L13.7142 9.3689C13.7144 10.5254 14.7072 11.5185 15.9384 11.5185H24.8397C26.0708 11.5185 27.0662 10.5254 27.0662 9.3689V7.31155C27.0662 6.15509 26.0708 5.21875 24.8397 5.21875H15.9384C14.7073 5.21875 13.7135 6.15504 13.7142 7.31155L13.7144 7.78874C12.5542 7.83253 11.6748 8.09704 11.0258 8.51547C10.2388 9.02295 9.80422 9.71646 9.43767 10.3408C9.07117 10.9651 8.76096 11.5245 8.2922 11.9283C7.88417 12.2797 7.31987 12.5512 6.40371 12.6523L6.40375 12.6298ZM15.938 6.63752H24.8394C25.2551 6.63752 25.5555 6.92102 25.5555 7.31149V9.36884C25.5555 9.75931 25.255 10.0429 24.8394 10.0429H15.938C15.5224 10.0429 15.164 9.75933 15.164 9.36884V7.31149C15.164 6.92103 15.5224 6.63752 15.938 6.63752Z" fill="white"/>
</svg>
