<svg width="30" height="32" viewBox="0 0 30 32" fill="none" xmlns="http://www.w3.org/2000/svg">
<path d="M21.7242 22.8475C21.9078 21.2401 21.8528 21.0044 22.992 21.2648L23.2812 21.2915C24.1572 21.3334 25.303 21.1434 25.9762 20.8147C27.4254 20.1081 28.2847 18.9282 26.8558 19.2382C23.5963 19.9449 23.3722 18.785 23.3722 18.785C26.814 13.418 28.2528 6.60513 27.0109 4.93749C23.6236 0.388742 17.7602 2.53974 17.6621 2.59559L17.6309 2.60165C16.9869 2.46121 16.2661 2.37731 15.4564 2.36355C13.9814 2.33808 12.8622 2.76994 12.0132 3.44671C12.0132 3.44671 1.55329 -1.08222 2.0399 9.14229C2.1434 11.3173 5.00644 25.6005 8.42117 21.2863C9.66923 19.7088 10.8754 18.3749 10.8754 18.3749C11.4743 18.7931 12.1913 19.0064 12.9434 18.9298L13.0015 18.8777C12.9833 19.0735 12.9914 19.2651 13.0248 19.4919C12.1453 20.5249 12.4037 20.7062 10.645 21.0867C8.86566 21.4721 9.91102 22.1583 10.5933 22.3376C11.4208 22.5551 13.3349 22.8631 14.6286 20.9602L14.577 21.1773C14.9221 21.4675 14.8988 23.2627 14.9477 24.5453C14.9967 25.828 15.0784 27.025 15.3272 27.7307C15.576 28.4363 15.8696 30.2541 18.1809 29.7334C20.1127 29.2984 21.5896 28.6723 21.7242 22.8475Z" fill="black" stroke="black" stroke-width="3"/>
<path d="M26.8561 19.2382C23.5963 19.9449 23.3722 18.7849 23.3722 18.7849C26.814 13.4176 28.2528 6.60462 27.0112 4.93718C23.6238 0.388703 17.7602 2.53984 17.6624 2.59568L17.6309 2.60161C16.9869 2.46111 16.2661 2.3774 15.4561 2.36351C13.9811 2.33811 12.8622 2.7699 12.0132 3.44653C12.0132 3.44653 1.55311 -1.08219 2.03959 9.14225C2.14308 11.3174 5.00607 25.6006 8.42092 21.2864C9.66905 19.7089 10.875 18.375 10.875 18.375C11.474 18.7932 12.191 19.0065 12.9428 18.9299L13.0012 18.8778C12.983 19.0736 12.9913 19.2652 13.0245 19.492C12.1448 20.525 12.4033 20.7063 10.6447 21.0868C8.86528 21.4722 9.91064 22.1584 10.5932 22.3377C11.4206 22.5552 13.3348 22.8632 14.6283 20.9603L14.5767 21.1774C14.9214 21.4676 15.1634 23.0647 15.1228 24.5125C15.0823 25.9604 15.0552 26.9544 15.3268 27.7308C15.5984 28.5072 15.8691 30.2542 18.1809 29.7335C20.1126 29.2985 21.1137 28.1711 21.2529 26.2904C21.3518 24.9534 21.5754 25.1511 21.5895 23.9558L21.7689 23.3899C21.9757 21.5775 21.8018 20.9928 22.9919 21.2647L23.2811 21.2914C24.1571 21.3333 25.3035 21.1434 25.9764 20.8147C27.4253 20.108 28.2846 18.9282 26.856 19.2382H26.8561Z" fill="#336791"/>
<path d="M14.7682 20.2773C14.6785 23.6497 14.7908 27.0455 15.1048 27.8708C15.4189 28.6962 16.0913 30.3014 18.4033 29.7809C20.3349 29.3457 21.0377 28.5035 21.3426 26.6445C21.5672 25.2768 22.0003 21.4784 22.0558 20.7001" stroke="white" stroke-linecap="round" stroke-linejoin="round"/>
<path d="M11.9971 3.37121C11.9971 3.37121 1.52984 -1.12489 2.01646 9.09955C2.11995 11.2747 4.98313 25.5584 8.39792 21.244C9.64579 19.6662 10.7743 18.4288 10.7743 18.4288" stroke="white" stroke-linecap="round" stroke-linejoin="round"/>
<path d="M17.6509 2.55082C17.2886 2.67021 23.4734 0.174663 26.9884 4.89483C28.2299 6.56234 26.7912 13.3753 23.3494 18.7428" stroke="white" stroke-linecap="round" stroke-linejoin="round"/>
<path d="M23.3493 18.7431C23.3493 18.7431 23.5736 19.9034 26.8335 19.1963C28.2618 18.8862 27.4022 20.0662 25.9536 20.7732C24.7648 21.3531 22.0995 21.5017 22.0559 20.7004C21.9439 18.6331 23.4587 19.2612 23.3493 18.7431ZM23.3493 18.7431C23.2505 18.2766 22.5731 17.8187 22.125 16.6769C21.7338 15.6803 16.7595 8.03773 23.5045 9.17279C23.7516 9.11906 21.7453 2.43014 15.4329 2.32138C9.12198 2.21261 9.32903 10.4779 9.32903 10.4779" stroke="white" stroke-linecap="round" stroke-linejoin="bevel"/>
<path d="M13.0015 19.4497C12.1217 20.4826 12.3804 20.664 10.6217 21.0445C8.84226 21.43 9.88775 22.1161 10.5701 22.2953C11.3975 22.5129 13.3117 22.821 14.6052 20.9176C14.999 20.3381 14.6028 19.4134 14.0618 19.1777C13.8004 19.0639 13.4508 18.9213 13.0015 19.4497Z" stroke="white" stroke-linecap="round" stroke-linejoin="round"/>
<path d="M12.944 19.4317C12.8553 18.8244 13.1338 18.1017 13.4323 17.2562C13.8809 15.9877 14.9159 14.7189 14.0879 10.695C13.4708 7.6963 9.33158 10.0709 9.32899 10.4775C9.32646 10.8839 9.51621 12.5384 9.25984 14.465C8.92532 16.979 10.782 19.1052 12.9199 18.8876" stroke="white" stroke-linecap="round" stroke-linejoin="round"/>
<path d="M11.959 10.4162C11.9403 10.5551 12.2009 10.9256 12.5407 10.9751C12.8799 11.0248 13.1702 10.7353 13.1886 10.5965C13.207 10.4577 12.9468 10.3047 12.6069 10.255C12.2675 10.2052 11.977 10.2777 11.9591 10.4162H11.959Z" fill="white" stroke="white"/>
<path d="M22.2904 10.1339C22.3088 10.2728 22.0485 10.6434 21.7087 10.6929C21.3692 10.7426 21.0789 10.453 21.0603 10.3143C21.0424 10.1754 21.3027 10.0224 21.6422 9.97272C21.9817 9.923 22.272 9.9954 22.2904 10.134V10.1339Z" fill="white" stroke="white"/>
<path d="M23.5045 9.17285C23.5604 10.2621 23.2812 11.0041 23.246 12.1637C23.1939 13.8492 24.0107 15.7783 22.78 17.7099" stroke="white" stroke-linecap="round" stroke-linejoin="round"/>
</svg>
