<svg width="28" height="29" viewBox="0 0 28 29" fill="none" xmlns="http://www.w3.org/2000/svg">
<path d="M26.25 14.3461C26.2498 17.1802 25.2669 19.9266 23.4688 22.1172C21.6708 24.3079 19.1687 25.8073 16.3891 26.36C13.6094 26.9127 10.7241 26.4845 8.2247 25.1484C5.72534 23.8123 3.76659 21.6508 2.68219 19.0324C1.59779 16.414 1.45484 13.5006 2.27769 10.7886C3.10055 8.07655 4.83829 5.73375 7.19484 4.15935C9.55139 2.58494 12.3809 1.87634 15.2014 2.15429C18.0218 2.43223 20.6586 3.67951 22.6625 5.68362C23.8017 6.81996 24.7051 8.17023 25.3208 9.65684C25.9364 11.1434 26.2522 12.7371 26.25 14.3461Z" fill="#173445"/>
<path d="M24.4124 14.3464C24.4122 16.7553 23.5768 19.0897 22.0484 20.9518C20.52 22.8139 18.3933 24.0884 16.0306 24.5582C13.6679 25.028 11.2154 24.664 9.0909 23.5283C6.96644 22.3926 5.3015 20.5554 4.37976 18.3297C3.45803 16.1041 3.33652 13.6277 4.03594 11.3224C4.73537 9.01724 6.21245 7.02586 8.21552 5.68762C10.2186 4.34938 12.6237 3.74707 15.0211 3.98332C17.4184 4.21957 19.6597 5.27976 21.363 6.98325C22.3313 7.94915 23.0992 9.09689 23.6225 10.3605C24.1458 11.6241 24.4143 12.9787 24.4124 14.3464Z" fill="#80E32A"/>
<path d="M10.2024 14.3313C10.1977 14.2178 10.2166 14.1046 10.2579 13.9988C10.2992 13.893 10.362 13.7969 10.4423 13.7167C10.5227 13.6364 10.6188 13.5737 10.7247 13.5325C10.8305 13.4913 10.9438 13.4725 11.0572 13.4773C11.2261 13.4775 11.3911 13.5277 11.5315 13.6217C11.6718 13.7156 11.7811 13.849 11.8456 14.0051C11.9101 14.1612 11.9269 14.3328 11.8938 14.4984C11.8608 14.664 11.7794 14.8161 11.6599 14.9355C11.5405 15.0548 11.3883 15.1361 11.2226 15.169C11.057 15.2018 10.8853 15.1849 10.7294 15.1202C10.5734 15.0555 10.44 14.9461 10.3462 14.8057C10.2524 14.6652 10.2024 14.5002 10.2024 14.3313Z" fill="#173445"/>
<path d="M13.1521 14.3313C13.1474 14.2178 13.1663 14.1046 13.2076 13.9988C13.2489 13.893 13.3117 13.7969 13.3921 13.7167C13.4724 13.6364 13.5685 13.5737 13.6744 13.5325C13.7802 13.4913 13.8935 13.4725 14.0069 13.4773C14.1758 13.4775 14.3408 13.5277 14.4812 13.6217C14.6215 13.7156 14.7308 13.849 14.7953 14.0051C14.8598 14.1612 14.8766 14.3328 14.8436 14.4984C14.8105 14.664 14.7291 14.8161 14.6096 14.9355C14.4902 15.0548 14.338 15.1361 14.1724 15.169C14.0067 15.2018 13.8351 15.1849 13.6791 15.1202C13.5231 15.0555 13.3897 14.9461 13.2959 14.8057C13.2021 14.6652 13.1521 14.5002 13.1521 14.3313Z" fill="#173445"/>
<path d="M16.0998 14.3313C16.0951 14.2178 16.114 14.1046 16.1553 13.9988C16.1966 13.893 16.2595 13.7969 16.3398 13.7167C16.4202 13.6364 16.5163 13.5737 16.6221 13.5325C16.728 13.4913 16.8412 13.4725 16.9547 13.4773C17.1236 13.4775 17.2886 13.5277 17.4289 13.6217C17.5692 13.7156 17.6786 13.849 17.7431 14.0051C17.8076 14.1612 17.8244 14.3328 17.7913 14.4984C17.7583 14.664 17.6769 14.8161 17.5574 14.9355C17.4379 15.0548 17.2857 15.1361 17.1201 15.169C16.9545 15.2018 16.7828 15.1849 16.6268 15.1202C16.4708 15.0555 16.3375 14.9461 16.2437 14.8057C16.1499 14.6652 16.0998 14.5002 16.0998 14.3313Z" fill="#173445"/>
<path d="M6.6665 15.1247V13.5952C6.92842 13.5949 7.18863 13.553 7.43738 13.471C7.59912 13.381 7.73225 13.2472 7.8215 13.0851C7.9393 12.8755 8.01481 12.6448 8.04375 12.4061C8.08358 12.0529 8.09966 11.6974 8.09188 11.3421C8.07379 10.7654 8.10982 10.1883 8.1995 9.61835C8.25434 9.32484 8.38942 9.05225 8.58975 8.83085C8.77416 8.60451 9.02041 8.4367 9.2985 8.34785C9.67519 8.25656 10.0627 8.21798 10.45 8.23322H10.7676V9.4906C10.4803 9.47271 10.1919 9.49957 9.91275 9.57022C9.79459 9.61648 9.696 9.70209 9.63363 9.8126C9.56591 10.0816 9.53645 10.3588 9.54613 10.636C9.54613 10.9037 9.52805 11.4115 9.49188 12.1593C9.48381 12.5056 9.43147 12.8493 9.33613 13.1822C9.26665 13.4145 9.15805 13.6331 9.015 13.8288C8.8445 14.0337 8.64318 14.2108 8.41825 14.3538C8.64052 14.4861 8.83681 14.6578 8.9975 14.8605C9.15555 15.07 9.27253 15.3075 9.34225 15.5605C9.4349 15.9231 9.48713 16.2949 9.498 16.6691C9.526 17.3743 9.54 17.8247 9.54 18.0201C9.5296 18.2953 9.56207 18.5704 9.63625 18.8356C9.70345 18.949 9.80573 19.0374 9.92763 19.0876C10.2017 19.1633 10.4865 19.1929 10.7703 19.1751V20.4753H10.4526C10.069 20.4843 9.68662 20.4274 9.32213 20.3073C9.04392 20.2239 8.79236 20.0691 8.59238 19.8585C8.38993 19.6374 8.25193 19.365 8.19338 19.071C8.11159 18.5837 8.0773 18.0896 8.091 17.5957C8.11179 17.086 8.07953 16.5754 7.99475 16.0723C7.94129 15.7934 7.80176 15.5382 7.59575 15.3426C7.31051 15.1896 6.99001 15.1145 6.6665 15.1247Z" fill="#173445"/>
<path d="M20.3746 15.3463C20.1686 15.5419 20.0291 15.7971 19.9756 16.076C19.8908 16.5791 19.8586 17.0897 19.8793 17.5994C19.8922 18.0922 19.8574 18.5851 19.7752 19.0712C19.7167 19.3652 19.5787 19.6376 19.3762 19.8587C19.1773 20.0717 18.926 20.2289 18.6473 20.3145C18.2829 20.4346 17.9005 20.4915 17.5168 20.4825H17.1992V19.1849C17.483 19.2027 17.7678 19.1732 18.0418 19.0974C18.1637 19.0473 18.266 18.9588 18.3332 18.8454C18.4074 18.5802 18.4399 18.3051 18.4295 18.0299C18.4295 17.8345 18.4435 17.3842 18.4715 16.6789C18.483 16.305 18.5358 15.9335 18.629 15.5712C18.6987 15.3182 18.8157 15.0807 18.9737 14.8712C19.1344 14.6685 19.3307 14.4968 19.553 14.3645C19.328 14.2215 19.1267 14.0444 18.9562 13.8395C18.8132 13.6438 18.7046 13.4252 18.6351 13.1929C18.5398 12.86 18.4874 12.5163 18.4793 12.17C18.4432 11.4222 18.4251 10.9144 18.4251 10.6467C18.4348 10.3695 18.4053 10.0923 18.3376 9.8233C18.2752 9.71279 18.1766 9.62718 18.0585 9.58092C17.7794 9.51027 17.491 9.48341 17.2036 9.5013V8.23517H17.5212C17.9085 8.21993 18.296 8.25851 18.6727 8.3498C18.9508 8.43865 19.1971 8.60646 19.3815 8.8328C19.5818 9.05421 19.7169 9.32679 19.7717 9.6203C19.8614 10.1903 19.8974 10.7674 19.8793 11.344C19.8716 11.6994 19.8876 12.0549 19.9275 12.408C19.9564 12.6467 20.0319 12.8774 20.1497 13.087C20.239 13.2492 20.3721 13.3829 20.5338 13.4729C20.7831 13.5557 21.0439 13.5982 21.3065 13.5989V15.1249C20.9818 15.1153 20.6603 15.1917 20.3746 15.3463Z" fill="#173445"/>
</svg>
