<svg width="258" height="94" viewBox="0 0 258 94" fill="none" xmlns="http://www.w3.org/2000/svg">
<rect x="0.685547" y="0.491211" width="256.339" height="93.0254" rx="7" fill="#121619"/>
<rect x="174.992" y="13.8252" width="68.5537" height="31.9178" rx="3" fill="#393939"/>
<rect x="53.7676" y="13.8252" width="116.102" height="31.9178" rx="3" fill="#393939"/>
<rect x="186.314" y="50.5469" width="57.2318" height="6.77241" rx="3" fill="#393939"/>
<rect width="90.4295" height="6.77241" rx="3" transform="matrix(-1 0 0 1 183.297 50.5488)" fill="#393939"/>
<rect x="132.225" y="70.5801" width="111.322" height="11.2501" rx="3" fill="#393939"/>
<rect width="33.0034" height="11.2501" rx="3" transform="matrix(-1 0 0 1 128.889 70.5801)" fill="#393939"/>
<rect x="95.8848" y="60.5645" width="147.661" height="6.77241" rx="3" fill="#393939"/>
<rect width="88.1806" height="85" transform="translate(4.71875 7.57715)" fill="white" fill-opacity="0.01" style="mix-blend-mode:multiply"/>
<path d="M81.8775 55.3896H65.3437C63.8825 55.3913 62.4817 55.9515 61.4484 56.9474C60.4152 57.9434 59.8341 59.2937 59.8324 60.7021V66.0146H44.4396L32.2759 54.2897V39.4521H37.7872C39.2484 39.4505 40.6492 38.8903 41.6824 37.8944C42.7156 36.8984 43.2968 35.5481 43.2985 34.1396V18.2021C43.2968 16.7937 42.7156 15.4434 41.6824 14.4474C40.6492 13.4515 39.2484 12.8913 37.7872 12.8896H21.2534C19.7922 12.8913 18.3913 13.4515 17.3581 14.4474C16.3249 15.4434 15.7437 16.7937 15.7421 18.2021V34.1396C15.7437 35.5481 16.3249 36.8984 17.3581 37.8944C18.3913 38.8903 19.7922 39.4505 21.2534 39.4521H26.7646V54.2897L13.7938 66.7929C13.5378 67.0395 13.3348 67.3322 13.1962 67.6545C13.0576 67.9767 12.9863 68.3221 12.9863 68.6709C12.9863 69.0197 13.0576 69.3651 13.1962 69.6873C13.3348 70.0096 13.5378 70.3023 13.7938 70.5489L27.5721 83.8301C27.8278 84.0768 28.1315 84.2726 28.4658 84.4061C28.8001 84.5397 29.1584 84.6084 29.5203 84.6084C29.8821 84.6084 30.2405 84.5397 30.5747 84.4061C30.909 84.2726 31.2127 84.0768 31.4685 83.8301L44.4396 71.3271H59.8324V76.6396C59.8341 78.0481 60.4152 79.3984 61.4484 80.3944C62.4817 81.3903 63.8825 81.9505 65.3437 81.9521H81.8775C83.3387 81.9505 84.7395 81.3903 85.7727 80.3944C86.806 79.3984 87.3871 78.0481 87.3888 76.6396V60.7021C87.3871 59.2937 86.806 57.9434 85.7727 56.9474C84.7395 55.9515 83.3387 55.3913 81.8775 55.3896ZM21.2534 18.2021H37.7872V34.1396H21.2534V18.2021ZM29.5203 78.1959L19.6388 68.6709L29.5203 59.1459L39.4018 68.6709L29.5203 78.1959ZM65.3437 76.6396V60.7021H81.8775V76.6396H65.3437Z" fill="#393939"/>
</svg>
