<svg width="258" height="94" viewBox="0 0 258 94" fill="none" xmlns="http://www.w3.org/2000/svg">
<rect x="0.687012" y="0.417969" width="256.339" height="93.0254" rx="7" fill="white"/>
<rect x="174.995" y="13.752" width="68.5537" height="31.9178" rx="3" fill="#BBD6FF"/>
<rect x="53.7695" y="13.752" width="116.102" height="31.9178" rx="3" fill="#BBD6FF"/>
<rect x="186.317" y="50.4727" width="57.2318" height="6.77241" rx="3" fill="#BBD6FF"/>
<rect width="90.4295" height="6.77241" rx="3" transform="matrix(-1 0 0 1 183.3 50.4766)" fill="#BBD6FF"/>
<rect x="132.226" y="70.5078" width="111.322" height="11.2501" rx="3" fill="#BBD6FF"/>
<rect width="33.0034" height="11.2501" rx="3" transform="matrix(-1 0 0 1 128.891 70.5078)" fill="#BBD6FF"/>
<rect x="95.8872" y="60.4922" width="147.661" height="6.77241" rx="3" fill="#BBD6FF"/>
<rect width="88.1806" height="85" transform="translate(4.72021 7.50391)" fill="white" fill-opacity="0.01" style="mix-blend-mode:multiply"/>
<path d="M81.878 55.3164H65.3442C63.883 55.318 62.4821 55.8782 61.4489 56.8742C60.4157 57.8701 59.8345 59.2204 59.8329 60.6289V65.9414H44.4401L32.2764 54.2165V39.3789H37.7877C39.2489 39.3773 40.6497 38.8171 41.6829 37.8211C42.7161 36.8252 43.2973 35.4749 43.299 34.0664V18.1289C43.2973 16.7204 42.7161 15.3701 41.6829 14.3742C40.6497 13.3783 39.2489 12.818 37.7877 12.8164H21.2538C19.7927 12.818 18.3918 13.3783 17.3586 14.3742C16.3254 15.3701 15.7442 16.7204 15.7426 18.1289V34.0664C15.7442 35.4749 16.3254 36.8252 17.3586 37.8211C18.3918 38.8171 19.7927 39.3773 21.2538 39.3789H26.7651V54.2165L13.7943 66.7197C13.5383 66.9662 13.3352 67.259 13.1967 67.5812C13.0581 67.9034 12.9868 68.2488 12.9868 68.5977C12.9868 68.9465 13.0581 69.2919 13.1967 69.6141C13.3352 69.9363 13.5383 70.2291 13.7943 70.4756L27.5725 83.7569C27.8283 84.0036 28.132 84.1993 28.4663 84.3329C28.8006 84.4664 29.1589 84.5351 29.5208 84.5351C29.8826 84.5351 30.2409 84.4664 30.5752 84.3329C30.9095 84.1993 31.2132 84.0036 31.469 83.7569L44.4401 71.2539H59.8329V76.5664C59.8345 77.9749 60.4157 79.3252 61.4489 80.3211C62.4821 81.3171 63.883 81.8773 65.3442 81.8789H81.878C83.3392 81.8773 84.74 81.3171 85.7732 80.3211C86.8064 79.3252 87.3876 77.9749 87.3893 76.5664V60.6289C87.3876 59.2204 86.8064 57.8701 85.7732 56.8742C84.74 55.8782 83.3392 55.318 81.878 55.3164ZM21.2538 18.1289H37.7877V34.0664H21.2538V18.1289ZM29.5208 78.1227L19.6393 68.5977L29.5208 59.0726L39.4022 68.5977L29.5208 78.1227ZM65.3442 76.5664V60.6289H81.878V76.5664H65.3442Z" fill="#BBD6FF"/>
</svg>
