<svg width="257" height="94" viewBox="0 0 257 94" fill="none" xmlns="http://www.w3.org/2000/svg">
<rect x="0.666992" y="0.9375" width="256.339" height="93.0254" rx="7" fill="white"/>
<rect x="174.975" y="14.2715" width="68.5537" height="31.9178" rx="3" fill="#E5F9B4"/>
<rect x="53.749" y="14.2715" width="116.102" height="31.9178" rx="3" fill="#E5F9B4"/>
<rect x="186.296" y="50.9922" width="57.2318" height="6.77241" rx="3" fill="#E5F9B4"/>
<rect width="90.4295" height="6.77241" rx="3" transform="matrix(-1 0 0 1 183.279 50.9961)" fill="#E5F9B4"/>
<rect x="132.206" y="71.0273" width="111.322" height="11.2501" rx="3" fill="#E5F9B4"/>
<rect width="33.0034" height="11.2501" rx="3" transform="matrix(-1 0 0 1 128.87 71.0273)" fill="#E5F9B4"/>
<rect x="95.8672" y="61.0117" width="147.661" height="6.77241" rx="3" fill="#E5F9B4"/>
<rect width="88.1806" height="85" transform="translate(4.7002 8.02344)" fill="white" fill-opacity="0.01" style="mix-blend-mode:multiply"/>
<path d="M81.858 55.8359H65.3241C63.863 55.8376 62.4621 56.3978 61.4289 57.3937C60.3957 58.3897 59.8145 59.74 59.8128 61.1484V66.4609H44.4201L32.2564 54.736V39.8984H37.7677C39.2289 39.8968 40.6297 39.3366 41.6629 38.3407C42.6961 37.3447 43.2773 35.9944 43.279 34.5859V18.6484C43.2773 17.24 42.6961 15.8897 41.6629 14.8937C40.6297 13.8978 39.2289 13.3376 37.7677 13.3359H21.2338C19.7727 13.3376 18.3718 13.8978 17.3386 14.8937C16.3054 15.8897 15.7242 17.24 15.7225 18.6484V34.5859C15.7242 35.9944 16.3054 37.3447 17.3386 38.3407C18.3718 39.3366 19.7727 39.8968 21.2338 39.8984H26.7451V54.736L13.7743 67.2392C13.5183 67.4858 13.3152 67.7785 13.1767 68.1007C13.0381 68.423 12.9668 68.7684 12.9668 69.1172C12.9668 69.466 13.0381 69.8114 13.1767 70.1336C13.3152 70.4559 13.5183 70.7486 13.7743 70.9952L27.5525 84.2764C27.8083 84.5231 28.112 84.7189 28.4463 84.8524C28.7806 84.9859 29.1389 85.0547 29.5008 85.0547C29.8626 85.0547 30.2209 84.9859 30.5552 84.8524C30.8895 84.7189 31.1932 84.5231 31.449 84.2764L44.4201 71.7734H59.8128V77.0859C59.8145 78.4944 60.3957 79.8447 61.4289 80.8407C62.4621 81.8366 63.863 82.3968 65.3241 82.3984H81.858C83.3192 82.3968 84.72 81.8366 85.7532 80.8407C86.7864 79.8447 87.3676 78.4944 87.3693 77.0859V61.1484C87.3676 59.74 86.7864 58.3897 85.7532 57.3937C84.72 56.3978 83.3192 55.8376 81.858 55.8359ZM21.2338 18.6484H37.7677V34.5859H21.2338V18.6484ZM29.5008 78.6422L19.6193 69.1172L29.5008 59.5921L39.3822 69.1172L29.5008 78.6422ZM65.3241 77.0859V61.1484H81.858V77.0859H65.3241Z" fill="#E5F9B4"/>
</svg>
