<svg width="258" height="94" viewBox="0 0 258 94" fill="none" xmlns="http://www.w3.org/2000/svg">
<rect x="0.687012" y="0.916992" width="256.339" height="93.0254" rx="7" fill="white"/>
<rect x="174.995" y="14.251" width="68.5537" height="31.9178" rx="3" fill="#E8E8E8"/>
<rect x="53.7695" y="14.251" width="116.102" height="31.9178" rx="3" fill="#E8E8E8"/>
<rect x="186.317" y="50.9727" width="57.2318" height="6.77241" rx="3" fill="#E8E8E8"/>
<rect width="90.4295" height="6.77241" rx="3" transform="matrix(-1 0 0 1 183.3 50.9746)" fill="#E8E8E8"/>
<rect x="132.226" y="71.0059" width="111.322" height="11.2501" rx="3" fill="#E8E8E8"/>
<rect width="33.0034" height="11.2501" rx="3" transform="matrix(-1 0 0 1 128.891 71.0059)" fill="#E8E8E8"/>
<rect x="95.8872" y="60.9902" width="147.661" height="6.77241" rx="3" fill="#E8E8E8"/>
<rect width="88.1806" height="85" transform="translate(4.72021 8.00293)" fill="white" fill-opacity="0.01" style="mix-blend-mode:multiply"/>
<path d="M81.878 55.8154H65.3442C63.883 55.817 62.4821 56.3773 61.4489 57.3732C60.4157 58.3691 59.8345 59.7195 59.8329 61.1279V66.4404H44.4401L32.2764 54.7155V39.8779H37.7877C39.2489 39.8763 40.6497 39.3161 41.6829 38.3201C42.7161 37.3242 43.2973 35.9739 43.299 34.5654V18.6279C43.2973 17.2195 42.7161 15.8691 41.6829 14.8732C40.6497 13.8773 39.2489 13.317 37.7877 13.3154H21.2538C19.7927 13.317 18.3918 13.8773 17.3586 14.8732C16.3254 15.8691 15.7442 17.2195 15.7426 18.6279V34.5654C15.7442 35.9739 16.3254 37.3242 17.3586 38.3201C18.3918 39.3161 19.7927 39.8763 21.2538 39.8779H26.7651V54.7155L13.7943 67.2187C13.5383 67.4652 13.3352 67.758 13.1967 68.0802C13.0581 68.4025 12.9868 68.7479 12.9868 69.0967C12.9868 69.4455 13.0581 69.7909 13.1967 70.1131C13.3352 70.4354 13.5383 70.7281 13.7943 70.9747L27.5725 84.2559C27.8283 84.5026 28.132 84.6984 28.4663 84.8319C28.8006 84.9654 29.1589 85.0342 29.5208 85.0342C29.8826 85.0342 30.2409 84.9654 30.5752 84.8319C30.9095 84.6984 31.2132 84.5026 31.469 84.2559L44.4401 71.7529H59.8329V77.0654C59.8345 78.4739 60.4157 79.8242 61.4489 80.8202C62.4821 81.8161 63.883 82.3763 65.3442 82.3779H81.878C83.3392 82.3763 84.74 81.8161 85.7732 80.8202C86.8064 79.8242 87.3876 78.4739 87.3893 77.0654V61.1279C87.3876 59.7195 86.8064 58.3691 85.7732 57.3732C84.74 56.3773 83.3392 55.817 81.878 55.8154ZM21.2538 18.6279H37.7877V34.5654H21.2538V18.6279ZM29.5208 78.6217L19.6393 69.0967L29.5208 59.5716L39.4022 69.0967L29.5208 78.6217ZM65.3442 77.0654V61.1279H81.878V77.0654H65.3442Z" fill="#E8E8E8"/>
</svg>
