<svg width="29" height="28" viewBox="0 0 29 28" fill="none" xmlns="http://www.w3.org/2000/svg">
<rect x="0.691406" width="28" height="28" rx="3" fill="white" fill-opacity="0.01" style="mix-blend-mode:multiply"/>
<path d="M7.69141 3.5V7H4.19141V3.5H7.69141ZM9.44141 1.75H2.44141V8.75H9.44141V1.75ZM16.4414 3.5V7H12.9414V3.5H16.4414ZM18.1914 1.75H11.1914V8.75H18.1914V1.75ZM25.1914 3.5V7H21.6914V3.5H25.1914ZM26.9414 1.75H19.9414V8.75H26.9414V1.75ZM7.69141 12.25V15.75H4.19141V12.25H7.69141ZM9.44141 10.5H2.44141V17.5H9.44141V10.5ZM16.4414 12.25V15.75H12.9414V12.25H16.4414ZM18.1914 10.5H11.1914V17.5H18.1914V10.5ZM25.1914 12.25V15.75H21.6914V12.25H25.1914ZM26.9414 10.5H19.9414V17.5H26.9414V10.5ZM7.69141 21V24.5H4.19141V21H7.69141ZM9.44141 19.25H2.44141V26.25H9.44141V19.25ZM16.4414 21V24.5H12.9414V21H16.4414ZM18.1914 19.25H11.1914V26.25H18.1914V19.25ZM25.1914 21V24.5H21.6914V21H25.1914ZM26.9414 19.25H19.9414V26.25H26.9414V19.25Z" fill="#1D77FE"/>
</svg>
