<svg width="29" height="28" viewBox="0 0 29 28" fill="none" xmlns="http://www.w3.org/2000/svg">
<rect x="0.691406" width="28" height="28" rx="3" fill="white" fill-opacity="0.01" style="mix-blend-mode:multiply"/>
<path d="M11.2573 21C10.5651 21 9.88841 20.7947 9.31284 20.4101C8.73727 20.0256 8.28867 19.4789 8.02376 18.8394C7.75885 18.1998 7.68954 17.4961 7.82459 16.8172C7.95964 16.1383 8.29298 15.5146 8.78246 15.0251C9.27195 14.5356 9.89559 14.2023 10.5745 14.0673C11.2535 13.9322 11.9572 14.0015 12.5967 14.2664C13.2363 14.5313 13.7829 14.9799 14.1675 15.5555C14.5521 16.1311 14.7573 16.8078 14.7573 17.5C14.7564 18.428 14.3873 19.3176 13.7311 19.9738C13.075 20.63 12.1853 20.999 11.2573 21ZM11.2573 15.75C10.9112 15.75 10.5729 15.8526 10.2851 16.0449C9.9973 16.2372 9.773 16.5105 9.64055 16.8303C9.5081 17.1501 9.47344 17.5019 9.54096 17.8414C9.60849 18.1809 9.77516 18.4927 10.0199 18.7374C10.2646 18.9822 10.5765 19.1489 10.9159 19.2164C11.2554 19.2839 11.6073 19.2492 11.927 19.1168C12.2468 18.9843 12.5201 18.76 12.7124 18.4722C12.9047 18.1845 13.0073 17.8461 13.0073 17.5C13.0068 17.036 12.8223 16.5912 12.4942 16.2632C12.1661 15.9351 11.7213 15.7505 11.2573 15.75Z" fill="#1D77FE"/>
<path d="M26.9415 5.25C26.9406 4.32204 26.5715 3.43237 25.9153 2.7762C25.2592 2.12003 24.3695 1.75097 23.4415 1.75C22.8748 1.75395 22.3178 1.89723 21.8195 2.1672L7.479 9.58816C6.20503 10.1844 5.09372 11.0792 4.23939 12.1966C3.38506 13.314 2.81293 14.621 2.57157 16.0067C2.33021 17.3924 2.42675 18.8159 2.85298 20.1563C3.27921 21.4968 4.02256 22.7146 5.01992 23.7064C6.01729 24.6983 7.23923 25.4348 8.58202 25.8536C9.92482 26.2723 11.3488 26.3609 12.7332 26.1119C14.1175 25.8628 15.4213 25.2834 16.534 24.4229C17.6466 23.5623 18.5352 22.4461 19.1243 21.1688L26.553 6.81931C26.8048 6.33429 26.938 5.79647 26.9415 5.25ZM23.4415 3.5C23.7877 3.5 24.126 3.60264 24.4138 3.79493C24.7016 3.98722 24.9259 4.26053 25.0583 4.5803C25.1908 4.90007 25.2254 5.25194 25.1579 5.59141C25.0904 5.93087 24.9237 6.2427 24.679 6.48744C24.4342 6.73218 24.1224 6.89885 23.7829 6.96637C23.4435 7.0339 23.0916 6.99924 22.7718 6.86679C22.4521 6.73434 22.1788 6.51003 21.9865 6.22225C21.7942 5.93446 21.6915 5.59612 21.6915 5.25C21.6921 4.78603 21.8766 4.34122 22.2047 4.01315C22.5328 3.68508 22.9776 3.50053 23.4415 3.5ZM19.9585 5.08226C19.9558 5.13905 19.9415 5.19251 19.9415 5.25C19.9425 6.17796 20.3116 7.06763 20.9677 7.7238C21.6239 8.37997 22.5136 8.74903 23.4415 8.75C23.498 8.75 23.5505 8.736 23.6062 8.73337L19.8159 16.0499C19.5103 14.2561 18.654 12.602 17.3659 11.3169C16.0777 10.0318 14.4215 9.1795 12.6271 8.87819L19.9585 5.08226ZM11.1915 24.5C9.80707 24.5 8.45369 24.0895 7.30255 23.3203C6.1514 22.5511 5.25419 21.4579 4.72438 20.1788C4.19457 18.8997 4.05594 17.4922 4.32604 16.1344C4.59614 14.7765 5.26282 13.5292 6.24179 12.5503C7.22076 11.5713 8.46804 10.9046 9.82591 10.6345C11.1838 10.3644 12.5912 10.503 13.8703 11.0328C15.1494 11.5627 16.2427 12.4599 17.0118 13.611C17.781 14.7622 18.1915 16.1155 18.1915 17.5C18.1894 19.3559 17.4512 21.1351 16.1389 22.4474C14.8266 23.7597 13.0474 24.4979 11.1915 24.5Z" fill="#1D77FE"/>
</svg>
