<svg width="29" height="28" viewBox="0 0 29 28" fill="none" xmlns="http://www.w3.org/2000/svg">
<rect x="0.691406" width="28" height="28" rx="3" fill="white" fill-opacity="0.01" style="mix-blend-mode:multiply"/>
<path d="M5.94141 21C6.28753 21 6.62587 21.1026 6.91366 21.2949C7.20144 21.4872 7.42574 21.7605 7.5582 22.0803C7.69065 22.4001 7.72531 22.7519 7.65778 23.0914C7.59026 23.4309 7.42359 23.7427 7.17885 23.9874C6.9341 24.2322 6.62228 24.3988 6.28282 24.4664C5.94335 24.5339 5.59148 24.4992 5.27171 24.3668C4.95194 24.2343 4.67863 24.01 4.48634 23.7222C4.29404 23.4345 4.19141 23.0961 4.19141 22.75C4.19141 22.2859 4.37578 21.8408 4.70397 21.5126C5.03216 21.1844 5.47728 21 5.94141 21ZM5.94141 19.25C5.24917 19.25 4.57248 19.4553 3.99691 19.8399C3.42134 20.2244 2.97274 20.7711 2.70783 21.4106C2.44292 22.0502 2.37361 22.7539 2.50866 23.4328C2.64371 24.1118 2.97705 24.7354 3.46653 25.2249C3.95602 25.7144 4.57966 26.0477 5.25859 26.1827C5.93753 26.3178 6.64126 26.2485 7.2808 25.9836C7.92034 25.7187 8.46697 25.2701 8.85155 24.6945C9.23614 24.1189 9.44141 23.4422 9.44141 22.75C9.44141 21.8217 9.07266 20.9315 8.41628 20.2751C7.7599 19.6188 6.86967 19.25 5.94141 19.25Z" fill="#1D77FE"/>
<path d="M14.6914 3.5C15.0375 3.5 15.3759 3.60264 15.6637 3.79493C15.9514 3.98722 16.1757 4.26053 16.3082 4.5803C16.4407 4.90007 16.4753 5.25194 16.4078 5.59141C16.3403 5.93087 16.1736 6.2427 15.9288 6.48744C15.6841 6.73218 15.3723 6.89885 15.0328 6.96637C14.6933 7.0339 14.3415 6.99924 14.0217 6.86679C13.7019 6.73434 13.4286 6.51003 13.2363 6.22225C13.044 5.93446 12.9414 5.59612 12.9414 5.25C12.9414 4.78587 13.1258 4.34075 13.454 4.01256C13.7822 3.68437 14.2273 3.5 14.6914 3.5ZM14.6914 1.75C13.9992 1.75 13.3225 1.95527 12.7469 2.33986C12.1713 2.72444 11.7227 3.27107 11.4578 3.91061C11.1929 4.55015 11.1236 5.25388 11.2587 5.93282C11.3937 6.61175 11.7271 7.23539 12.2165 7.72487C12.706 8.21436 13.3297 8.5477 14.0086 8.68275C14.6875 8.8178 15.3913 8.74849 16.0308 8.48358C16.6703 8.21867 17.217 7.77007 17.6016 7.1945C17.9861 6.61892 18.1914 5.94223 18.1914 5.25C18.1914 4.32174 17.8227 3.4315 17.1663 2.77513C16.5099 2.11875 15.6197 1.75 14.6914 1.75Z" fill="#1D77FE"/>
<path d="M23.4414 3.5C23.7875 3.5 24.1259 3.60264 24.4137 3.79493C24.7014 3.98722 24.9257 4.26053 25.0582 4.5803C25.1907 4.90007 25.2253 5.25194 25.1578 5.59141C25.0903 5.93087 24.9236 6.2427 24.6788 6.48744C24.4341 6.73218 24.1223 6.89885 23.7828 6.96637C23.4434 7.0339 23.0915 6.99924 22.7717 6.86679C22.4519 6.73434 22.1786 6.51003 21.9863 6.22225C21.794 5.93446 21.6914 5.59612 21.6914 5.25C21.6914 4.78587 21.8758 4.34075 22.204 4.01256C22.5322 3.68437 22.9773 3.5 23.4414 3.5ZM23.4414 1.75C22.7492 1.75 22.0725 1.95527 21.4969 2.33986C20.9213 2.72444 20.4727 3.27107 20.2078 3.91061C19.9429 4.55015 19.8736 5.25388 20.0087 5.93282C20.1437 6.61175 20.4771 7.23539 20.9665 7.72487C21.456 8.21436 22.0797 8.5477 22.7586 8.68275C23.4375 8.8178 24.1413 8.74849 24.7808 8.48358C25.4203 8.21867 25.967 7.77007 26.3516 7.1945C26.7361 6.61892 26.9414 5.94223 26.9414 5.25C26.9414 4.32174 26.5727 3.4315 25.9163 2.77513C25.2599 2.11875 24.3697 1.75 23.4414 1.75Z" fill="#1D77FE"/>
<path d="M16.4414 21V24.5H12.9414V21H16.4414ZM18.1914 19.25H11.1914V26.25H18.1914V19.25Z" fill="#1D77FE"/>
<path d="M24.3164 19.3725V14.875C24.3164 14.4109 24.132 13.9658 23.8038 13.6376C23.4757 13.3094 23.0305 13.125 22.5664 13.125H6.81641V8.75H9.44141V1.75H2.44141V8.75H5.06641V13.125C5.06641 13.5891 5.25078 14.0342 5.57897 14.3624C5.90716 14.6906 6.35228 14.875 6.81641 14.875H22.5664V19.3725C21.7416 19.5855 21.0227 20.092 20.5446 20.797C20.0665 21.5021 19.862 22.3573 19.9693 23.2024C20.0766 24.0475 20.4885 24.8244 21.1277 25.3875C21.7669 25.9507 22.5895 26.2614 23.4414 26.2614C24.2933 26.2614 25.1159 25.9507 25.7551 25.3875C26.3943 24.8244 26.8062 24.0475 26.9135 23.2024C27.0209 22.3573 26.8163 21.5021 26.3382 20.797C25.8601 20.092 25.1412 19.5855 24.3164 19.3725ZM4.19141 3.5H7.69141V7H4.19141V3.5ZM23.4414 24.5C23.0953 24.5 22.7569 24.3974 22.4692 24.2051C22.1814 24.0128 21.9571 23.7395 21.8246 23.4197C21.6922 23.0999 21.6575 22.7481 21.725 22.4086C21.7926 22.0691 21.9592 21.7573 22.204 21.5126C22.4487 21.2678 22.7605 21.1012 23.1 21.0336C23.4395 20.9661 23.7913 21.0008 24.1111 21.1332C24.4309 21.2657 24.7042 21.49 24.8965 21.7778C25.0888 22.0655 25.1914 22.4039 25.1914 22.75C25.1914 23.2141 25.007 23.6592 24.6788 23.9874C24.3507 24.3156 23.9055 24.5 23.4414 24.5Z" fill="#1D77FE"/>
</svg>
