<svg width="29" height="29" viewBox="0 0 29 29" fill="none" xmlns="http://www.w3.org/2000/svg">
<rect width="28" height="28" transform="translate(0.691406 0.5)" fill="white" fill-opacity="0.01" style="mix-blend-mode:multiply"/>
<path d="M23.2839 9.25H26.9414V7.5H23.2839C23.1 6.99324 22.7645 6.5554 22.323 6.24599C21.8815 5.93657 21.3555 5.77058 20.8164 5.77058C20.2773 5.77058 19.7513 5.93657 19.3098 6.24599C18.8683 6.5554 18.5328 6.99324 18.3489 7.5H12.0664V4.875H5.06641V7.5H2.44141V9.25H5.06641V11.875H12.0664V9.25H18.3489C18.4796 9.61697 18.6902 9.95027 18.9657 10.2257C19.2411 10.5012 19.5744 10.7118 19.9414 10.8425V17.2475C19.3395 17.4046 18.7904 17.7193 18.3506 18.1591C17.9107 18.599 17.596 19.1481 17.4389 19.75H2.44141V21.5H17.4389C17.6404 22.2414 18.0803 22.896 18.6907 23.3626C19.3011 23.8293 20.0481 24.0821 20.8164 24.0821C21.5847 24.0821 22.3317 23.8293 22.9421 23.3626C23.5525 22.896 23.9924 22.2414 24.1939 21.5H26.9414V19.75H24.1939C24.0368 19.1481 23.7221 18.599 23.2823 18.1591C22.8424 17.7193 22.2933 17.4046 21.6914 17.2475V10.8425C22.0584 10.7118 22.3917 10.5012 22.6671 10.2257C22.9426 9.95027 23.1533 9.61697 23.2839 9.25ZM10.3164 10.125H6.81641V6.625H10.3164V10.125ZM22.5664 20.625C22.5664 20.9711 22.4638 21.3095 22.2715 21.5972C22.0792 21.885 21.8059 22.1093 21.4861 22.2418C21.1663 22.3742 20.8145 22.4089 20.475 22.3414C20.1355 22.2738 19.8237 22.1072 19.579 21.8624C19.3342 21.6177 19.1676 21.3059 19.1 20.9664C19.0325 20.6269 19.0672 20.2751 19.1996 19.9553C19.3321 19.6355 19.5564 19.3622 19.8442 19.1699C20.1319 18.9776 20.4703 18.875 20.8164 18.875C21.2805 18.875 21.7257 19.0594 22.0538 19.3876C22.382 19.7158 22.5664 20.1609 22.5664 20.625Z" fill="#585C62"/>
</svg>
