<svg width="31" height="31" viewBox="0 0 31 31" fill="none" xmlns="http://www.w3.org/2000/svg">
<g clip-path="url(#clip0_1650_10973)">
<path d="M26.1914 0.408691H5.19141C2.70613 0.408691 0.691406 2.42341 0.691406 4.90869V25.9087C0.691406 28.394 2.70613 30.4087 5.19141 30.4087H26.1914C28.6767 30.4087 30.6914 28.394 30.6914 25.9087V4.90869C30.6914 2.42341 28.6767 0.408691 26.1914 0.408691Z" fill="white"/>
<path d="M12.7852 13.1352L18.0645 15.4965L23.3906 10.9204C23.6636 9.59874 23.4623 8.22514 22.8208 7.03261C22.1793 5.84008 21.1371 4.90206 19.871 4.37771C18.605 3.85335 17.1931 3.77495 15.8748 4.15581C14.5566 4.53666 13.4132 5.35333 12.6387 6.46723L11.7539 10.9731L12.7852 13.1352Z" fill="#FFD00A"/>
<path d="M7.31836 18.6196C7.24022 19.0036 7.20096 19.3941 7.20117 19.7856C7.20202 21.0365 7.61155 22.2541 8.36973 23.2602C9.12791 24.2662 10.1949 25.0076 11.4142 25.3759C12.6335 25.7441 13.9411 25.7197 15.1453 25.3063C16.3494 24.8929 17.3869 24.1122 18.1055 23.0786L18.9844 18.5845L17.8125 16.3872L12.5098 14.02L7.31836 18.6196Z" fill="#20B9AF"/>
<path d="M7.28893 9.66084L10.9042 10.4987L11.6952 6.46162C11.2024 6.0978 10.6026 5.8999 9.98556 5.89748C9.36846 5.89507 8.76713 6.08826 8.27138 6.44821C7.77563 6.80815 7.41207 7.31554 7.23499 7.89457C7.05792 8.4736 7.07684 9.09321 7.28893 9.66084Z" fill="#EE5096"/>
<path d="M6.97277 10.5044C6.19111 10.7578 5.50851 11.2422 5.01853 11.8912C4.52856 12.5401 4.25521 13.3218 4.23596 14.1292C4.2167 14.9365 4.45249 15.7299 4.91099 16.4006C5.3695 17.0713 6.02827 17.5865 6.79699 17.8755L11.8712 13.3755L10.9396 11.4243L6.97277 10.5044Z" fill="#12A5DF"/>
<path d="M19.0371 23.0786C19.5284 23.4425 20.1265 23.6408 20.742 23.6437C21.3575 23.6467 21.9575 23.4542 22.4525 23.0951C22.9474 22.7359 23.3107 22.2293 23.4883 21.6508C23.6658 21.0723 23.648 20.453 23.4375 19.8853L19.8223 19.0532L19.0371 23.0786Z" fill="#90C640"/>
<path d="M19.7695 18.1274L23.748 19.0415C24.5424 18.7794 25.2336 18.2806 25.7252 17.6147C26.2168 16.9487 26.4842 16.1489 26.4902 15.3267C26.4894 14.5341 26.2429 13.7606 25.7835 13.1086C25.3241 12.4567 24.6735 11.9571 23.918 11.6763L18.7148 16.1528L19.7695 18.1274Z" fill="#05799F"/>
</g>
<defs>
<clipPath id="clip0_1650_10973">
<rect x="0.691406" y="0.408691" width="30" height="30" rx="3" fill="white"/>
</clipPath>
</defs>
</svg>
