<svg width="29" height="29" viewBox="0 0 29 29" fill="none" xmlns="http://www.w3.org/2000/svg">
<path fill-rule="evenodd" clip-rule="evenodd" d="M19.4864 9.87012H10.5348V9.87198C10.5224 9.87142 10.5101 9.87012 10.4976 9.87012C10.0329 9.87012 9.65625 10.2457 9.65625 10.7091C9.65625 11.1725 10.0329 11.5481 10.4976 11.5481C10.5101 11.5481 10.5224 11.5468 10.5348 11.5462V11.5481H19.4864C19.951 11.5481 20.3278 11.1725 20.3278 10.7091C20.3278 10.2457 19.951 9.87012 19.4864 9.87012Z" fill="#00B173"/>
<path fill-rule="evenodd" clip-rule="evenodd" d="M19.4864 17.8623H10.5348V17.8641C10.5224 17.8636 10.5101 17.8623 10.4976 17.8623C10.0329 17.8623 9.65625 18.2379 9.65625 18.7013C9.65625 19.1646 10.0329 19.5402 10.4976 19.5402C10.5101 19.5402 10.5224 19.539 10.5348 19.5384V19.5402H19.4864C19.951 19.5402 20.3278 19.1646 20.3278 18.7013C20.3278 18.2379 19.951 17.8623 19.4864 17.8623Z" fill="#00B173"/>
<path fill-rule="evenodd" clip-rule="evenodd" d="M17.1346 14.7052C17.1346 14.2677 16.7986 13.9089 16.3699 13.8701V13.8662H8.69451V13.8681C8.68206 13.8676 8.66986 13.8662 8.65729 13.8662C8.1926 13.8662 7.81592 14.2418 7.81592 14.7052C7.81592 15.1686 8.1926 15.5442 8.65729 15.5442C8.66986 15.5442 8.68206 15.5429 8.69451 15.5423V15.5442H16.3699V15.5403C16.7986 15.5016 17.1346 15.1427 17.1346 14.7052Z" fill="#00B173"/>
<path d="M25.1914 8.48418L14.6914 2.4248L4.19141 8.48418V20.6029L14.6914 26.6623L25.1914 20.6029V8.48418ZM14.6914 4.23706L23.6207 9.39031V19.6957L14.6914 24.8489L5.76104 19.6957V9.39031L14.6914 4.23706Z" fill="#00B173"/>
</svg>
