<svg width="29" height="28" viewBox="0 0 29 28" fill="none" xmlns="http://www.w3.org/2000/svg">
<rect x="0.691406" width="28" height="28" rx="3" fill="white" fill-opacity="0.01" style="mix-blend-mode:multiply"/>
<path d="M26.0664 12.25H25.1914V8.75H23.4414V12.25H21.6914V8.75H19.9414V12.25H19.0664C18.8343 12.25 18.6118 12.3422 18.4477 12.5063C18.2836 12.6704 18.1914 12.8929 18.1914 13.125V16.625C18.1927 17.6331 18.5416 18.6098 19.1791 19.3907C19.8167 20.1715 20.704 20.7087 21.6914 20.9115V23.625C21.6912 23.857 21.599 24.0795 21.4349 24.2435C21.2709 24.4076 21.0484 24.4998 20.8164 24.5H5.06641C4.83434 24.5 4.61178 24.4078 4.44769 24.2437C4.28359 24.0796 4.19141 23.8571 4.19141 23.625C4.19141 23.3929 4.28359 23.1704 4.44769 23.0063C4.61178 22.8422 4.83434 22.75 5.06641 22.75H9.44141C10.1376 22.75 10.8053 22.4734 11.2976 21.9812C11.7898 21.4889 12.0664 20.8212 12.0664 20.125C12.0664 19.4288 11.7898 18.7611 11.2976 18.2688C10.8053 17.7766 10.1376 17.5 9.44141 17.5H5.06641C4.83434 17.5 4.61178 17.4078 4.44769 17.2437C4.28359 17.0796 4.19141 16.8571 4.19141 16.625C4.19141 16.3929 4.28359 16.1704 4.44769 16.0063C4.61178 15.8422 4.83434 15.75 5.06641 15.75H9.44141C10.1374 15.7492 10.8046 15.4724 11.2967 14.9803C11.7888 14.4882 12.0656 13.821 12.0664 13.125V9.625H12.9414C13.8693 9.62396 14.759 9.25487 15.4151 8.59872C16.0713 7.94257 16.4404 7.05294 16.4414 6.125V3.5H13.8164C12.9205 3.50146 12.0597 3.8482 11.413 4.4681C10.9597 3.64554 10.2942 2.95952 9.48579 2.48148C8.67737 2.00343 7.75559 1.75084 6.81641 1.75H4.19141V4.375C4.19293 5.76692 4.74655 7.10139 5.73078 8.08562C6.71502 9.06986 8.04949 9.62347 9.44141 9.625H10.3164V13.125C10.3162 13.357 10.224 13.5795 10.0599 13.7435C9.89587 13.9076 9.67341 13.9998 9.44141 14H5.06641C4.37021 14 3.70253 14.2766 3.21025 14.7688C2.71797 15.2611 2.44141 15.9288 2.44141 16.625C2.44141 17.3212 2.71797 17.9889 3.21025 18.4812C3.70253 18.9734 4.37021 19.25 5.06641 19.25H9.44141C9.67347 19.25 9.89603 19.3422 10.0601 19.5063C10.2242 19.6704 10.3164 19.8929 10.3164 20.125C10.3164 20.3571 10.2242 20.5796 10.0601 20.7437C9.89603 20.9078 9.67347 21 9.44141 21H5.06641C4.37021 21 3.70253 21.2766 3.21025 21.7688C2.71797 22.2611 2.44141 22.9288 2.44141 23.625C2.44141 24.3212 2.71797 24.9889 3.21025 25.4812C3.70253 25.9734 4.37021 26.25 5.06641 26.25H20.8164C21.5124 26.2492 22.1796 25.9724 22.6717 25.4803C23.1638 24.9882 23.4406 24.321 23.4414 23.625V20.9115C24.4288 20.7087 25.3161 20.1715 25.9537 19.3907C26.5913 18.6098 26.9401 17.6331 26.9414 16.625V13.125C26.9414 12.8929 26.8492 12.6704 26.6851 12.5063C26.521 12.3422 26.2985 12.25 26.0664 12.25ZM12.0664 7C12.0669 6.53601 12.2514 6.09116 12.5795 5.76307C12.9076 5.43499 13.3524 5.25046 13.8164 5.25H14.6914V6.125C14.6909 6.58899 14.5064 7.03384 14.1783 7.36193C13.8502 7.69001 13.4054 7.87454 12.9414 7.875H12.0664V7ZM9.44141 7.875C8.51347 7.87396 7.62384 7.50487 6.96768 6.84872C6.31153 6.19257 5.94245 5.30294 5.94141 4.375V3.5H6.81641C7.74434 3.50104 8.63398 3.87013 9.29013 4.52628C9.94628 5.18243 10.3154 6.07206 10.3164 7V7.875H9.44141ZM25.1914 16.625C25.1914 17.3212 24.9148 17.9889 24.4226 18.4812C23.9303 18.9734 23.2626 19.25 22.5664 19.25C21.8702 19.25 21.2025 18.9734 20.7103 18.4812C20.218 17.9889 19.9414 17.3212 19.9414 16.625V14H25.1914V16.625Z" fill="#1D77FE"/>
</svg>
