<svg width="29" height="26" viewBox="0 0 29 26" fill="none" xmlns="http://www.w3.org/2000/svg">
<path d="M4.21061 7.50779C4.2122 6.97203 4.35724 6.44648 4.63065 5.98573L7.0132 1.9707C7.55355 1.0601 8.53392 0.501799 9.59277 0.501664L20.9497 0.500219C22.016 0.500083 23.0022 1.06595 23.5402 1.98657L25.9138 6.04822C26.182 6.50719 26.3234 7.02919 26.3236 7.56079L26.3275 18.4356C26.3277 18.9687 26.1859 19.4922 25.9166 19.9522L23.5407 24.0111C23.0027 24.9302 22.0177 25.4952 20.9527 25.4955L9.59753 25.4994C8.53888 25.4998 7.55842 24.9421 7.01757 24.0321L4.59928 19.9629C4.32214 19.4966 4.17663 18.9638 4.17824 18.4213L4.21061 7.50779Z" fill="#4D4D4D"/>
<path d="M4.17614 19.2484H5.62642C7.9397 19.2484 9.38259 16.7408 8.22013 14.7409L7.97463 14.3185C7.47722 13.4627 7.43397 12.4166 7.85902 11.5227L8.28145 10.6343C9.15201 8.8034 7.81722 6.69021 5.78992 6.68979V6.68979C4.813 6.68958 3.90878 7.20591 3.41247 8.04737L0.490234 13.0019" fill="#EDEDED"/>
<path d="M11.9703 17.914C12.5269 18.7476 13.463 19.2482 14.4654 19.2482H16.1737C17.1507 19.2482 18.0665 18.7725 18.6282 17.9731L20.8605 14.7964C21.5713 13.7849 21.5888 12.441 20.9047 11.4114L18.6975 8.08932C18.1415 7.25247 17.2035 6.74951 16.1988 6.74951H13.8346C12.7494 6.74951 11.7488 7.33562 11.218 8.2822L9.52531 11.3007C8.97346 12.2848 9.02044 13.4954 9.64691 14.4337L11.9703 17.914Z" fill="#E0E0E0"/>
<path d="M5.56488 13.0171C3.32582 13.01 1.93084 15.4434 3.06838 17.372L3.33867 17.8302C3.85764 18.7101 4.80305 19.25 5.82456 19.25V19.25C8.05011 19.25 9.43821 16.8375 8.31969 14.9134L8.05231 14.4535C7.53698 13.567 6.59024 13.0203 5.56488 13.0171V13.0171Z" fill="#ACACAC"/>
<path d="M14.3025 13.0035C11.9061 13.003 10.4765 15.6739 11.8059 17.6678L11.9704 17.9145C12.5269 18.749 13.4635 19.2502 14.4665 19.2502H16.1421C17.1362 19.2502 18.0658 18.7577 18.6242 17.9352L18.7914 17.6889C20.1435 15.6972 18.7171 13.0043 16.3099 13.0039L14.3025 13.0035Z" fill="#9E9E9E"/>
<path d="M10.3453 13.0055L9.31202 13.2994C9.16583 13.341 9.01083 13.3401 8.86513 13.2968V13.2968C8.3657 13.1486 8.1386 12.5704 8.40363 12.1219L11.5766 6.75193C12.13 5.81544 13.4847 5.81485 14.0389 6.75085V6.75085" fill="#00B8E3"/>
<path d="M14.0334 19.2484V19.2484C13.4197 20.2948 11.9744 20.4616 11.1386 19.5824L9.99124 18.3755C9.69148 18.0602 9.46388 17.6835 9.32423 17.2714L7.87902 13.0072C7.87894 13.007 7.87891 13.0068 7.87891 13.0065V13.0065C7.87891 13.0054 7.87987 13.0044 7.88106 13.0044H10.3443" fill="#33C6E9"/>
<path d="M7.88265 13.0046H7.88156C7.88075 13.0046 7.88008 13.0053 7.88008 13.0061V13.0061C7.88008 13.0064 7.88001 13.0066 7.87988 13.0069L7.55727 13.5527C7.14785 14.2454 6.14626 14.2473 5.7342 13.5562V13.5562C5.53563 13.2231 5.53475 12.8082 5.7319 12.4743L6.66601 10.8924L9.47443 6.14374C10.0143 5.23087 10.9961 4.6709 12.0566 4.6709H12.8083" fill="#008AAA"/>
<path d="M21.4336 16.2484C21.4336 17.9052 22.7767 19.2484 24.4336 19.2484H25.8917C27.549 19.2484 28.8923 17.9046 28.8917 16.2473L28.8893 9.74794C28.8887 8.09151 27.5458 6.74902 25.8893 6.74902H24.4336C22.7767 6.74902 21.4336 8.09217 21.4336 9.74902V16.2484Z" fill="#D4D4D4"/>
<path d="M24.4336 13.022C22.7767 13.022 21.4336 14.3651 21.4336 16.022V16.2497C21.4336 17.9066 22.7767 19.2497 24.4336 19.2497H25.8793C27.5361 19.2497 28.8793 17.9066 28.8793 16.2497V16.022C28.8793 14.3651 27.5361 13.022 25.8793 13.022H24.4336Z" fill="#919191"/>
<path d="M11.8625 19.7398C12.2808 20.4468 11.7711 21.3404 10.9496 21.3404V21.3404C10.5747 21.3404 10.2275 21.1424 10.0367 20.8197L6.9675 15.6291C6.77071 15.2963 6.77072 14.8827 6.96754 14.5499V14.5499C7.3779 13.8561 8.3819 13.856 8.79234 14.5498L11.8625 19.7398Z" fill="#00B8E3"/>
<path d="M20.8087 13.0037C21.6286 13.0041 22.1371 13.896 21.7199 14.6018L18.6425 19.8078C18.2191 20.524 17.055 20.243 16.6533 19.5143V19.5143C16.4598 19.1633 16.6336 19.039 16.8377 18.694L19.8966 13.5236C20.0873 13.2012 20.4341 13.0035 20.8087 13.0037V13.0037Z" fill="#008AAA"/>
<path d="M20.1976 21.3387V21.3387C19.1105 21.3385 18.4362 20.156 18.9894 19.2203L22.6643 13.0044V13.0044C23.2174 12.0692 24.578 12.0821 25.1297 13.0182V13.0182M21.9732 11.3612C22.3012 12.1421 21.7277 13.005 20.8807 13.005V13.005C20.4617 13.005 20.0738 12.7837 19.8606 12.423L16.8635 7.35201C16.644 6.98076 16.6436 6.5196 16.8624 6.14798V6.14798C17.2826 5.43433 18.2866 5.36088 18.8062 6.00579L20.4579 8.05607C20.6342 8.2749 20.7789 8.51741 20.8877 8.77649L21.9732 11.3612Z" fill="#00B8E3"/>
<path d="M23.8948 10.9212C23.8951 10.9218 23.8953 10.9224 23.8953 10.923V10.923C23.8953 10.9236 23.8951 10.9242 23.8948 10.9247L23.7236 11.214C23.2468 12.0197 22.0809 12.0198 21.604 11.2141L18.681 6.27509C18.2622 5.56744 18.7725 4.67289 19.5948 4.67331V4.67331C19.9698 4.6735 20.3168 4.87156 20.5077 5.19432L23.8948 10.9212Z" fill="#33C6E9"/>
</svg>
