<svg width="29" height="28" viewBox="0 0 29 28" fill="none" xmlns="http://www.w3.org/2000/svg">
<rect x="0.691406" width="28" height="28" rx="3" fill="white" fill-opacity="0.01" style="mix-blend-mode:multiply"/>
<path d="M20.3823 15.4317L15.1323 12.3692C14.996 12.2897 14.8437 12.25 14.6914 12.25C14.5391 12.25 14.3868 12.2897 14.2505 12.3692L9.00049 15.4317C8.73178 15.5885 8.56641 15.8764 8.56641 16.1875V22.3125C8.56641 22.6236 8.73178 22.9115 9.00049 23.0683L14.2505 26.1308C14.3868 26.2103 14.5391 26.25 14.6914 26.25C14.8437 26.25 14.996 26.2103 15.1323 26.1308L20.3823 23.0683C20.651 22.9115 20.8164 22.6236 20.8164 22.3125V16.1875C20.8164 15.8764 20.651 15.5885 20.3823 15.4317ZM19.0664 20.8547L16.8512 19.5256C16.8627 19.4342 16.8789 19.3445 16.8789 19.2501C16.8789 18.3554 16.3375 17.5864 15.5664 17.248V14.6486L19.0664 16.69V20.8547ZM13.8164 14.6485V17.2479C13.0453 17.5863 12.5039 18.3553 12.5039 19.25C12.5039 19.3444 12.5202 19.4341 12.5316 19.5255L10.3164 20.8547V16.6898L13.8164 14.6485ZM14.6914 24.362L11.2337 22.345L13.4274 21.029C13.785 21.2837 14.2197 21.4375 14.6914 21.4375C15.1631 21.4375 15.5978 21.2837 15.9554 21.029L18.1491 22.345L14.6914 24.362Z" fill="#1D77FE"/>
<path d="M22.3914 7.9975C21.6302 4.3925 18.4364 1.75 14.6914 1.75C10.9464 1.75 7.75266 4.3925 6.99141 7.9975C4.39266 8.5225 2.44141 10.85 2.44141 13.5625C2.44141 16.2487 4.31391 18.4887 6.81641 19.0837V17.2375C5.29391 16.695 4.19141 15.2775 4.19141 13.5625C4.19141 11.5238 5.78391 9.79125 7.81391 9.63375L8.53141 9.58125L8.61891 8.8725C8.99516 5.81 11.6027 3.5 14.6914 3.5C17.7802 3.5 20.3877 5.81 20.7639 8.8725L20.8514 9.58125L21.5689 9.63375C23.5989 9.8 25.1914 11.5238 25.1914 13.5625C25.1914 15.2688 24.0889 16.7037 22.5664 17.2462V19.0925C25.0689 18.4975 26.9414 16.24 26.9414 13.5625C26.9414 10.8413 24.9902 8.5225 22.3914 7.9975Z" fill="#1D77FE"/>
</svg>
