<svg width="29" height="28" viewBox="0 0 29 28" fill="none" xmlns="http://www.w3.org/2000/svg">
<rect x="0.691406" width="28" height="28" rx="3" fill="white" fill-opacity="0.01" style="mix-blend-mode:multiply"/>
<path d="M26.8364 13.58L21.5864 3.955C21.5109 3.81692 21.3995 3.70177 21.264 3.62169C21.1284 3.54161 20.9738 3.49957 20.8164 3.5H8.56643C8.40902 3.49957 8.25442 3.54161 8.1189 3.62169C7.98339 3.70177 7.87198 3.81692 7.79643 3.955L2.54643 13.58C2.46963 13.713 2.4292 13.8639 2.4292 14.0175C2.4292 14.1711 2.46963 14.322 2.54643 14.455L7.79643 24.08C7.87646 24.2116 7.9898 24.3197 8.125 24.3934C8.2602 24.4672 8.41247 24.504 8.56643 24.5H20.8164C20.9738 24.5004 21.1284 24.4584 21.264 24.3783C21.3995 24.2982 21.5109 24.1831 21.5864 24.045L26.8364 14.42C26.9069 14.2912 26.9438 14.1468 26.9438 14C26.9438 13.8532 26.9069 13.7088 26.8364 13.58ZM20.7552 6.125L24.5964 13.125H16.2839L20.7552 6.125ZM14.6914 12.3725L10.1589 5.25H19.2239L14.6914 12.3725ZM8.62768 6.125L13.0989 13.125H4.78643L8.62768 6.125ZM4.78643 14.875H13.0989L8.62768 21.875L4.78643 14.875ZM14.6914 15.6275L19.2239 22.75H10.1589L14.6914 15.6275ZM20.7552 21.875L16.2839 14.875H24.5964L20.7552 21.875Z" fill="#1D77FE"/>
</svg>
