<svg width="28" height="25" viewBox="0 0 28 25" fill="none" xmlns="http://www.w3.org/2000/svg">
<g clip-path="url(#clip0_4940_58676)">
<path d="M9.78226 20.4858L9.12109 21.3218L10.617 23.6503L10.461 24.7271H16.8069L17.2462 23.6503L14.6938 20.4858H9.78226Z" fill="url(#paint0_linear_4940_58676)"/>
<path d="M13.2524 6.31567L10.957 10.3183L22.1529 23.5169L21.8344 24.7271H26.97L27.8991 20.4333L15.9191 6.31348L13.2524 6.31567Z" fill="url(#paint1_linear_4940_58676)"/>
<path d="M14.7772 3.30652L13.6855 5.30895H16.3939L21.0419 10.8195L23.8051 8.5588V7.12318L22.8452 5.77948L23.5546 5.04416L18.0106 0.673828L14.7772 3.30652Z" fill="url(#paint2_linear_4940_58676)"/>
<path d="M6.44354 14.4612H4.93011L0.943359 19.5034V24.7273H5.22007L5.97568 23.7489L9.27491 19.4924H14.048L15.5175 17.2493L10.3424 11.1304L6.44354 14.4612Z" fill="url(#paint3_linear_4940_58676)"/>
</g>
<defs>
<linearGradient id="paint0_linear_4940_58676" x1="0.965743" y1="24.7134" x2="21.8392" y2="3.69048" gradientUnits="userSpaceOnUse">
<stop stop-color="#1155CB"/>
<stop offset="1" stop-color="#1DB57C"/>
</linearGradient>
<linearGradient id="paint1_linear_4940_58676" x1="0.965345" y1="24.7134" x2="21.8388" y2="3.69049" gradientUnits="userSpaceOnUse">
<stop stop-color="#1155CB"/>
<stop offset="1" stop-color="#1DB57C"/>
</linearGradient>
<linearGradient id="paint2_linear_4940_58676" x1="0.96573" y1="24.7134" x2="21.8392" y2="3.69047" gradientUnits="userSpaceOnUse">
<stop stop-color="#1155CB"/>
<stop offset="1" stop-color="#1DB57C"/>
</linearGradient>
<linearGradient id="paint3_linear_4940_58676" x1="0.965797" y1="24.7135" x2="21.8392" y2="3.69062" gradientUnits="userSpaceOnUse">
<stop stop-color="#1155CB"/>
<stop offset="1" stop-color="#1DB57C"/>
</linearGradient>
<clipPath id="clip0_4940_58676">
<rect width="27" height="24.1765" fill="white" transform="translate(0.943359 0.673828)"/>
</clipPath>
</defs>
</svg>
