<svg width="22" height="29" viewBox="0 0 22 29" fill="none" xmlns="http://www.w3.org/2000/svg">
<g clip-path="url(#clip0_1650_10997)">
<path d="M7.151 6.56462H6.69726V8.77662H7.151V6.56462ZM9.10249 6.56462H8.64874V8.77662H9.10249V6.56462ZM11.7688 2.34327L11.3039 1.58447L3.54297 5.80582L4.00787 6.56462L11.7688 2.34327Z" fill="#13BEF9"/>
<path d="M11.7236 2.34327L12.1889 1.58447L19.9498 5.80582L19.4846 6.56462L11.7236 2.34327Z" fill="#13BEF9"/>
<path d="M21.3228 6.57478V5.69873H0.0595703V6.57478H21.3228Z" fill="#13BEF9"/>
<path fill-rule="evenodd" clip-rule="evenodd" d="M12.9037 18.9506V5.96599H13.8343V19.5813C13.5847 19.3139 13.2667 19.1218 12.9037 18.9506ZM11.3152 18.7263V0.408691H12.2458V18.833C11.9847 18.7154 11.3494 18.7263 11.3152 18.7263ZM2.49915 20.5536C1.36441 19.763 0.615723 18.5019 0.615723 17.0697C0.615723 16.3109 0.831067 15.563 1.22828 14.9109H9.17072C9.57909 15.563 9.78365 16.3109 9.78365 17.0697C9.78365 17.7323 9.6929 18.3521 9.40912 18.9079C8.80772 18.363 7.92254 18.1278 7.0262 18.1278C5.43772 18.1278 4.0761 19.0574 3.72463 20.4469C3.59967 20.436 3.52045 20.4255 3.39548 20.4255C3.08902 20.436 2.79408 20.4791 2.49915 20.5536Z" fill="#13BEF9"/>
<path d="M6.40209 9.75985H3.99685V12.0359H6.40209V9.75985ZM3.69039 9.75985H1.28516V12.0359H3.69039V9.75985ZM3.69039 12.2925H1.28516V14.5689H3.69039V12.2925ZM6.40209 12.2925H3.99685V14.5689H6.40209V12.2925ZM9.10263 12.2925H6.69739V14.5689H9.10263V12.2925ZM9.10263 8.5415H6.69739V10.8176H9.10263V8.5415Z" fill="#13BEF9"/>
<path fill-rule="evenodd" clip-rule="evenodd" d="M4.12129 20.8954C4.45044 19.5812 5.70978 18.5977 7.20751 18.5977C8.17228 18.5977 9.0344 19.004 9.62465 19.6452C10.1349 19.3138 10.7479 19.1216 11.4173 19.1216C13.1646 19.1216 14.5828 20.4572 14.5828 22.1033C14.5828 22.4452 14.5262 22.7658 14.4128 23.0756C14.7985 23.5673 15.0369 24.1872 15.0369 24.8497C15.0369 26.4954 13.6184 27.8314 11.8711 27.8314C11.0993 27.8314 10.396 27.5748 9.85152 27.1475C9.27281 27.9063 8.3311 28.4085 7.26442 28.4085C6.03893 28.4085 4.97225 27.746 4.43928 26.7842C4.22357 26.8269 4.00785 26.8482 3.78098 26.8482C2.03368 26.8482 0.604004 25.5123 0.604004 23.8666C0.604004 22.2209 2.02252 20.8849 3.78098 20.8849C3.89441 20.8741 4.00785 20.8741 4.12129 20.8954Z" fill="#13BEF9"/>
</g>
<defs>
<clipPath id="clip0_1650_10997">
<rect x="0.0512695" y="0.408691" width="21.28" height="28" rx="3" fill="white"/>
</clipPath>
</defs>
</svg>
