<svg width="27" height="26" viewBox="0 0 27 26" fill="none" xmlns="http://www.w3.org/2000/svg">
<path d="M11.6374 11.7283L11.6354 9.61896C11.6354 9.49407 11.5858 9.37314 11.4966 9.28393L9.66877 7.4541L8.39404 8.85968L11.3717 11.8374C11.4708 11.9345 11.6374 11.8651 11.6374 11.7283Z" fill="url(#paint0_linear_6914_52437)"/>
<path d="M7.60095 16.8152L4.01069 13.2329L2.72803 14.6266L7.47804 19.3707C7.57518 19.4678 7.74171 19.3984 7.74171 19.2616V17.1503C7.73972 17.0254 7.69016 16.9045 7.60095 16.8152Z" fill="url(#paint1_linear_6914_52437)"/>
<path d="M12.3848 0.279457C5.94171 0.725513 0.79124 6.05837 0.549378 12.5133C0.311481 18.8156 4.64517 24.1465 10.4955 25.4549L2.6964 17.6539C2.58538 17.5428 2.52194 17.3902 2.52194 17.2316L2.52789 14.7119C2.52789 14.6068 2.65477 14.5533 2.7301 14.6286L4.01276 13.2349C3.93148 13.1536 3.93148 13.0228 4.01276 12.9435L5.24784 11.7124C5.32912 11.6311 5.45799 11.6331 5.53927 11.7124L9.70841 15.8815C9.88485 16.058 9.98596 16.2998 9.98596 16.5496V20.9012C9.98596 21.5276 10.2358 22.1283 10.6778 22.5724L13.8577 25.7523C14.6646 25.7186 15.4516 25.6076 16.2129 25.4291L12.1845 21.4007C11.9863 21.2025 11.8733 20.9309 11.8733 20.6494V16.4426C11.8733 15.7527 11.5997 15.0925 11.112 14.6048L6.87942 10.3722C6.79814 10.291 6.79814 10.1601 6.87942 10.0808L8.10459 8.85961C8.18587 8.77833 8.31473 8.78031 8.39601 8.85961L9.67075 7.45403C9.64696 7.42628 9.62515 7.39654 9.60136 7.3668C9.23658 6.87515 9.01653 6.0663 9.27425 5.15238C9.42888 4.56755 9.75004 4.12744 10.3408 3.59019C10.3924 3.54261 10.4756 3.54063 10.5272 3.58622L12.0596 4.9125L12.361 5.17419C12.4759 5.27529 12.6147 5.34666 12.7654 5.38235L17.5412 6.51632C17.5967 6.5302 17.6482 6.55795 17.6879 6.5976L22.5965 11.4923C22.6817 11.5736 22.7313 11.6886 22.7313 11.8075V12.8483C22.7313 13.0089 22.6916 13.1655 22.6143 13.3063L20.1858 17.7292C20.0807 17.9235 19.8428 18.0048 19.6406 17.9156L18.5205 17.4279H14.4307C14.167 17.4279 13.9549 17.64 13.9549 17.9037V19.7275C13.9549 19.9793 14.054 20.2192 14.2304 20.3976L18.467 24.6659C22.9276 22.6794 26.04 18.205 26.04 13.005C26.04 5.65989 19.8349 -0.235987 12.3848 0.279457Z" fill="#B7C04F"/>
<defs>
<linearGradient id="paint0_linear_6914_52437" x1="11.668" y1="9.68377" x2="9.6028" y2="9.65305" gradientUnits="userSpaceOnUse">
<stop stop-color="#B7C04F" stop-opacity="0.486275"/>
<stop offset="1" stop-color="#B7C04F"/>
</linearGradient>
<linearGradient id="paint1_linear_6914_52437" x1="7.69718" y1="16.3254" x2="5.12375" y2="16.3254" gradientUnits="userSpaceOnUse">
<stop stop-color="#B7C04F" stop-opacity="0"/>
<stop offset="0.96" stop-color="#B7C04F"/>
</linearGradient>
</defs>
</svg>
