<svg width="28" height="28" viewBox="0 0 28 28" fill="none" xmlns="http://www.w3.org/2000/svg">
<rect width="28" height="28" fill="white" fill-opacity="0.01" style="mix-blend-mode:multiply"/>
<path d="M8.31161 7.00001H17.5866C17.8034 8.0623 18.407 9.00623 19.2802 9.64881C20.1535 10.2914 21.2342 10.5868 22.3129 10.4779C23.3916 10.3689 24.3915 9.86326 25.1186 9.05902C25.8456 8.25477 26.2482 7.2092 26.2482 6.12501C26.2482 5.04082 25.8456 3.99524 25.1186 3.191C24.3915 2.38676 23.3916 1.88114 22.3129 1.77216C21.2342 1.66319 20.1535 1.95864 19.2802 2.60121C18.407 3.24379 17.8034 4.18772 17.5866 5.25001H8.31161C7.03525 5.25001 5.81117 5.75704 4.90866 6.65956C4.00614 7.56208 3.49911 8.78616 3.49911 10.0625C3.49911 11.3389 4.00614 12.5629 4.90866 13.4655C5.81117 14.368 7.03525 14.875 8.31161 14.875H17.9366C18.7488 14.875 19.5278 15.1977 20.1021 15.772C20.6765 16.3463 20.9991 17.1253 20.9991 17.9375C20.9991 18.7497 20.6765 19.5287 20.1021 20.103C19.5278 20.6774 18.7488 21 17.9366 21H10.4116C10.1948 19.9377 9.59122 18.9938 8.71797 18.3512C7.84472 17.7086 6.76398 17.4132 5.68527 17.5222C4.60657 17.6311 3.60676 18.1368 2.87966 18.941C2.15257 19.7452 1.75 20.7908 1.75 21.875C1.75 22.9592 2.15257 24.0048 2.87966 24.809C3.60676 25.6133 4.60657 26.1189 5.68527 26.2279C6.76398 26.3368 7.84472 26.0414 8.71797 25.3988C9.59122 24.7562 10.1948 23.8123 10.4116 22.75H17.9366C19.213 22.75 20.437 22.243 21.3396 21.3405C22.2421 20.4379 22.7491 19.2139 22.7491 17.9375C22.7491 16.6612 22.2421 15.4371 21.3396 14.5346C20.437 13.632 19.213 13.125 17.9366 13.125H8.31161C7.49938 13.125 6.72042 12.8024 6.14609 12.228C5.57176 11.6537 5.24911 10.8747 5.24911 10.0625C5.24911 9.25028 5.57176 8.47133 6.14609 7.897C6.72042 7.32267 7.49938 7.00001 8.31161 7.00001ZM21.8741 3.50001C22.3933 3.50001 22.9008 3.65396 23.3325 3.9424C23.7642 4.23084 24.1006 4.64081 24.2993 5.12047C24.498 5.60012 24.55 6.12792 24.4487 6.63712C24.3474 7.14632 24.0974 7.61405 23.7303 7.98117C23.3631 8.34828 22.8954 8.59829 22.3862 8.69957C21.877 8.80086 21.3492 8.74887 20.8696 8.55019C20.3899 8.35151 19.9799 8.01506 19.6915 7.58338C19.4031 7.1517 19.2491 6.64419 19.2491 6.12501C19.2491 5.42882 19.5257 4.76114 20.018 4.26885C20.5102 3.77657 21.1779 3.50001 21.8741 3.50001ZM6.12411 24.5C5.60493 24.5 5.09741 24.3461 4.66574 24.0576C4.23406 23.7692 3.8976 23.3592 3.69892 22.8796C3.50024 22.3999 3.44826 21.8721 3.54955 21.3629C3.65083 20.8537 3.90084 20.386 4.26795 20.0189C4.63506 19.6517 5.10279 19.4017 5.612 19.3004C6.1212 19.1992 6.649 19.2511 7.12865 19.4498C7.60831 19.6485 8.01828 19.985 8.30671 20.4166C8.59515 20.8483 8.74911 21.3558 8.74911 21.875C8.74911 22.5712 8.47255 23.2389 7.98026 23.7312C7.48798 24.2234 6.8203 24.5 6.12411 24.5Z" fill="#94C518"/>
</svg>
