<svg width="28" height="29" viewBox="0 0 28 29" fill="none" xmlns="http://www.w3.org/2000/svg">
<path fill-rule="evenodd" clip-rule="evenodd" d="M11.3943 15.5453C11.1898 15.5453 11.0054 15.5036 10.8399 15.4213C10.6745 15.3391 10.4995 15.1972 10.3163 14.9957V16.8936H9.3388V11.6935H10.2501V12.2466C10.3683 12.0571 10.5279 11.9033 10.73 11.7853C10.9321 11.6672 11.1555 11.6076 11.4014 11.6076C11.8304 11.6076 12.1945 11.7793 12.4935 12.1215C12.7926 12.4648 12.9427 12.9417 12.9427 13.5544C12.9427 14.1839 12.7914 14.6727 12.4912 15.0208C12.1886 15.3713 11.8233 15.5453 11.3943 15.5453ZM11.7146 12.683C11.5598 12.491 11.3671 12.3956 11.1378 12.3956C10.899 12.3956 10.7005 12.4898 10.5432 12.6782C10.386 12.8665 10.3068 13.1443 10.3068 13.5139C10.3068 13.9371 10.3896 14.2494 10.5539 14.4521C10.7182 14.6548 10.9191 14.7549 11.1555 14.7549C11.3825 14.7549 11.5716 14.6619 11.7229 14.476C11.8742 14.29 11.9486 13.986 11.9486 13.5628C11.9475 13.167 11.8694 12.8737 11.7146 12.683ZM7.69819 14.8956C7.56344 15.0971 7.38732 15.2556 7.16747 15.3713C6.9488 15.4869 6.71713 15.5453 6.47364 15.5453C6.22542 15.5453 6.00321 15.4893 5.80581 15.3784C5.60842 15.2675 5.46658 15.1114 5.37793 14.9099C5.28928 14.7084 5.24555 14.4306 5.24555 14.0766V11.6923H6.22306V13.4233C6.22306 13.9526 6.24079 14.2781 6.27743 14.3973C6.31289 14.5165 6.37908 14.6119 6.47364 14.681C6.5682 14.7513 6.68876 14.7859 6.83533 14.7859C7.00199 14.7859 7.15211 14.7394 7.28449 14.6452C7.41687 14.5522 7.5067 14.4354 7.55517 14.2971C7.60363 14.1588 7.62845 13.8203 7.62845 13.2802V11.6911H8.60596V15.4583H7.69819V14.8956ZM3.27989 13.0978C3.79997 13.2182 4.16402 13.3661 4.36969 13.5413C4.57418 13.7189 4.67583 13.9657 4.67583 14.2828C4.67583 14.6285 4.53399 14.9254 4.25149 15.1734C3.969 15.4213 3.55057 15.5453 2.99621 15.5453C2.49268 15.5453 2.09435 15.4416 1.80122 15.233C1.50808 15.0243 1.3166 14.7418 1.22559 14.3853L2.20664 14.2328C2.24801 14.4271 2.33311 14.5737 2.46077 14.6738C2.58843 14.774 2.76691 14.8241 2.99621 14.8241C3.24916 14.8241 3.43946 14.7764 3.56594 14.6822C3.65222 14.6154 3.69477 14.5272 3.69477 14.4163C3.69477 14.3412 3.67113 14.2781 3.62503 14.228C3.57657 14.1803 3.46783 14.1374 3.29762 14.0968C2.50923 13.9192 2.00925 13.7571 1.79885 13.6104C1.5069 13.4066 1.36033 13.1241 1.36033 12.7628C1.36033 12.4362 1.48681 12.162 1.73975 11.9402C1.9927 11.7185 2.38394 11.6064 2.91466 11.6064C3.42055 11.6064 3.79524 11.6899 4.0411 11.858C4.28695 12.0261 4.45598 12.274 4.54935 12.6031L3.6274 12.7771C3.58839 12.6305 3.51275 12.5184 3.40282 12.4398C3.29289 12.3623 3.13569 12.3229 2.9312 12.3229C2.67353 12.3229 2.48914 12.3599 2.37803 12.4326C2.30356 12.4851 2.26692 12.5518 2.26692 12.6353C2.26692 12.7068 2.29884 12.7664 2.36385 12.8165C2.45604 12.8832 2.75981 12.9774 3.27989 13.0978Z" fill="#1D77FE"/>
<path fill-rule="evenodd" clip-rule="evenodd" d="M26.068 17.7818C25.6177 18.2337 25.0338 18.4697 24.444 18.49V18.4912H24.4121C24.3778 18.4924 24.3447 18.4924 24.3104 18.4912H17.2043C17.1771 18.4912 17.1499 18.4912 17.1227 18.4912H16.9643V18.4876C15.9513 18.4399 14.9526 18.0274 14.1795 17.2501C12.5307 15.593 12.5307 12.9071 14.1795 11.25C15.8237 9.59773 18.4855 9.59415 20.1356 11.2369C21.3601 10.3619 23.0705 10.474 24.1686 11.5779C24.7678 12.1799 25.074 12.9667 25.0858 13.7559C25.4451 13.8692 25.7844 14.0683 26.0692 14.3544C27.0101 15.2998 27.0101 16.8353 26.068 17.7818ZM18.8141 12.4052C18.313 11.8843 17.6451 11.6232 16.8107 11.6232C16.3497 11.6232 15.9419 11.6983 15.5897 11.8485C15.3237 11.9606 15.0802 12.131 14.8568 12.3623C14.6334 12.5936 14.4585 12.8535 14.3296 13.1444C14.1571 13.539 14.0708 14.0266 14.0708 14.6071C14.0708 15.5144 14.319 16.2273 14.8166 16.7447C15.3142 17.2621 15.9833 17.5208 16.826 17.5208C17.6581 17.5208 18.3224 17.2609 18.82 16.7411C19.3177 16.2213 19.5659 15.5012 19.5659 14.5797C19.5647 13.651 19.3141 12.9262 18.8141 12.4052ZM20.9937 12.782C21.1817 12.6449 21.4417 12.5757 21.7738 12.5757C22.0953 12.5757 22.3377 12.6401 22.4984 12.7688C22.6592 12.8976 22.7644 13.1074 22.8128 13.4007L23.957 13.3506C23.9393 12.8273 23.7501 12.4076 23.3908 12.0941C23.0315 11.7805 22.496 11.6232 21.7857 11.6232C21.3507 11.6232 20.9784 11.6888 20.671 11.8211C20.3637 11.9534 20.1273 12.1453 19.9642 12.3993C19.8011 12.652 19.7184 12.9238 19.7184 13.2147C19.7184 13.6653 19.8921 14.048 20.2396 14.3627C20.4867 14.5857 20.9169 14.774 21.5304 14.9266C22.0067 15.0458 22.3117 15.1293 22.4464 15.1758C22.6426 15.2461 22.7797 15.3284 22.8577 15.4226C22.9357 15.5167 22.9759 15.6324 22.9759 15.7671C22.9759 15.9769 22.8826 16.1605 22.6958 16.3179C22.509 16.4752 22.2313 16.5527 21.8625 16.5527C21.515 16.5527 21.2384 16.4645 21.0339 16.2881C20.8294 16.1116 20.6935 15.8351 20.6261 15.4595L19.5127 15.568C19.5872 16.2058 19.8165 16.691 20.2006 17.0248C20.5848 17.3586 21.1344 17.5243 21.8507 17.5243C22.3424 17.5243 22.7537 17.4552 23.0835 17.3157C23.4133 17.1774 23.6686 16.9652 23.8482 16.6803C24.0291 16.3954 24.1189 16.089 24.1189 15.7623C24.1189 15.4023 24.0433 15.0995 23.8932 14.8539C23.7419 14.6083 23.5338 14.4152 23.2667 14.2745C22.9996 14.1327 22.5882 13.9968 22.0315 13.8644C21.4748 13.7321 21.1249 13.6057 20.9807 13.4829C20.8673 13.3876 20.8105 13.2719 20.8105 13.1372C20.8117 12.9882 20.8732 12.8702 20.9937 12.782ZM16.8213 16.536C16.365 16.536 15.9892 16.3691 15.6925 16.0365C15.3958 15.7039 15.2481 15.2139 15.2481 14.5678C15.2481 13.9121 15.3923 13.4209 15.6807 13.0955C15.9691 12.77 16.3497 12.6079 16.8201 12.6079C17.2917 12.6079 17.67 12.7688 17.9548 13.0907C18.2397 13.4126 18.3815 13.9002 18.3815 14.5535C18.3815 15.2151 18.235 15.7111 17.943 16.0413C17.651 16.3703 17.2775 16.536 16.8213 16.536Z" fill="#1D77FE"/>
</svg>
