<svg width="28" height="29" viewBox="0 0 28 29" fill="none" xmlns="http://www.w3.org/2000/svg">
<path d="M3.05069 18.0393V12.4411H1.10938V11.7187H5.80465V12.4411H3.86333V18.0393H3.05069Z" fill="#050B14"/>
<path d="M6.1168 18.0754V17.3531L7.24547 17.3079V12.4501L6.1168 12.405V11.6826L7.65179 11.7549L9.18678 11.6826V12.405L8.05811 12.4501V17.3079L9.18678 17.3531V18.0754L7.65179 18.0032L6.1168 18.0754Z" fill="#050B14"/>
<path d="M9.86116 18.0393V11.7187H14.1953V12.4411H10.6738V14.4275H13.7438V15.1499H10.6738V17.3169H14.2856V18.0393H9.86116Z" fill="#050B14"/>
<path d="M15.6407 15.1499H18.8009V12.4411H15.6407V15.1499ZM19.6136 12.4411V15.1499L19.0086 15.7549L20.1102 18.0393H19.2344L18.214 15.8722H15.6407V18.0393H14.828V11.7187H18.8912L19.6136 12.4411Z" fill="#050B14"/>
<path d="M22.3238 17.3169V12.4411L23.0462 11.7187H26.387L27.1094 12.4411V17.3169L26.387 18.0393H23.0462L22.3238 17.3169ZM23.1365 12.4411V17.3169H26.2967V12.4411H23.1365Z" fill="#73B200"/>
</svg>
