<svg width="28" height="29" viewBox="0 0 28 29" fill="none" xmlns="http://www.w3.org/2000/svg">
<g clip-path="url(#clip0_6160_52452)">
<g style="mix-blend-mode:multiply">
<path d="M25 0.25H3C1.34315 0.25 0 1.59315 0 3.25V25.25C0 26.9069 1.34315 28.25 3 28.25H25C26.6569 28.25 28 26.9069 28 25.25V3.25C28 1.59315 26.6569 0.25 25 0.25Z" fill="white" fill-opacity="0.01"/>
</g>
<path d="M19.3986 14.25L17.1411 16.5075L18.3748 17.75L21.8748 14.25L18.3748 10.75L17.1323 11.9837L19.3986 14.25Z" fill="#1D77FE"/>
<path d="M13.5627 18.625L11.8872 18.12L14.4377 9.875L16.1132 10.38L13.5627 18.625Z" fill="#1D77FE"/>
<path d="M8.60125 14.25L10.8587 11.9925L9.625 10.75L6.125 14.25L9.625 17.75L10.8675 16.5163L8.60125 14.25Z" fill="#1D77FE"/>
<path d="M16.625 25.625C17.1082 25.625 17.5 25.2332 17.5 24.75C17.5 24.2668 17.1082 23.875 16.625 23.875C16.1418 23.875 15.75 24.2668 15.75 24.75C15.75 25.2332 16.1418 25.625 16.625 25.625Z" fill="#1D77FE"/>
<path d="M19.25 25.625V23.875C21.6622 23.875 23.625 21.9122 23.625 19.5V9C23.625 6.5878 21.6622 4.625 19.25 4.625H14V2.875H19.25C22.627 2.875 25.375 5.62259 25.375 9V19.5C25.375 22.877 22.627 25.625 19.25 25.625Z" fill="#1D77FE"/>
<path d="M11.375 4.625C11.8582 4.625 12.25 4.23325 12.25 3.75C12.25 3.26675 11.8582 2.875 11.375 2.875C10.8918 2.875 10.5 3.26675 10.5 3.75C10.5 4.23325 10.8918 4.625 11.375 4.625Z" fill="#1D77FE"/>
<path d="M14 25.625H8.75C5.37302 25.625 2.625 22.877 2.625 19.5V9C2.625 5.62259 5.37302 2.875 8.75 2.875V4.625C6.3378 4.625 4.375 6.5878 4.375 9V19.5C4.375 21.9122 6.3378 23.875 8.75 23.875H14V25.625Z" fill="#1D77FE"/>
</g>
<defs>
<clipPath id="clip0_6160_52452">
<rect width="28" height="29" fill="white"/>
</clipPath>
</defs>
</svg>
