<svg width="28" height="28" viewBox="0 0 28 28" fill="none" xmlns="http://www.w3.org/2000/svg">
<g clip-path="url(#clip0_6160_52461)">
<g style="mix-blend-mode:multiply">
<path d="M25 0H3C1.34315 0 0 1.34315 0 3V25C0 26.6569 1.34315 28 3 28H25C26.6569 28 28 26.6569 28 25V3C28 1.34315 26.6569 0 25 0Z" fill="white" fill-opacity="0.01"/>
</g>
<path d="M13.9995 24.5C12.0958 24.5 10.2349 23.9355 8.65216 22.8779C7.06933 21.8203 5.83567 20.3171 5.10718 18.5584C4.37869 16.7996 4.18808 14.8644 4.55946 12.9973C4.93084 11.1302 5.84754 9.41519 7.19362 8.06911C8.5397 6.72302 10.2547 5.80633 12.1217 5.43495C13.9888 5.06357 15.9241 5.25417 17.6828 5.98267C19.4415 6.71116 20.9448 7.94482 22.0024 9.52764C23.06 11.1105 23.6245 12.9714 23.6245 14.875C23.6245 17.4277 22.6104 19.8759 20.8054 21.6809C19.0003 23.486 16.5522 24.5 13.9995 24.5ZM13.9995 7.00001C12.442 7.00001 10.9194 7.46187 9.6244 8.32718C8.32937 9.1925 7.32001 10.4224 6.72397 11.8614C6.12793 13.3004 5.97198 14.8838 6.27584 16.4114C6.57969 17.939 7.3297 19.3422 8.43105 20.4435C9.53239 21.5448 10.9355 22.2949 12.4631 22.5987C13.9907 22.9026 15.5741 22.7466 17.0131 22.1506C18.4521 21.5546 19.682 20.5452 20.5473 19.2502C21.4126 17.9551 21.8745 16.4326 21.8745 14.875C21.8745 12.7865 21.0448 10.7834 19.5679 9.30654C18.0911 7.82969 16.0881 7.00001 13.9995 7.00001Z" fill="#1D77FE"/>
<path d="M16.2657 18.375L13.1245 15.2338V9.625H14.8745V14.5075L17.4995 17.1413L16.2657 18.375Z" fill="#1D77FE"/>
<path d="M6.63362 3.50293L3.5 6.64311L4.73873 7.87925L7.87235 4.73907L6.63362 3.50293Z" fill="#1D77FE"/>
<path d="M21.3627 3.49512L20.124 4.73126L23.2576 7.87144L24.4964 6.6353L21.3627 3.49512Z" fill="#1D77FE"/>
</g>
<defs>
<clipPath id="clip0_6160_52461">
<rect width="28" height="28" fill="white"/>
</clipPath>
</defs>
</svg>
