<svg width="28" height="28" viewBox="0 0 28 28" fill="none" xmlns="http://www.w3.org/2000/svg">
<g clip-path="url(#clip0_8301_184145)">
<g style="mix-blend-mode:multiply">
<path d="M25 0H3C1.34315 0 0 1.34315 0 3V25C0 26.6569 1.34315 28 3 28H25C26.6569 28 28 26.6569 28 25V3C28 1.34315 26.6569 0 25 0Z" fill="white" fill-opacity="0.01"/>
</g>
<path d="M14 24.5C12.0963 24.5 10.2354 23.9355 8.65264 22.8779C7.06981 21.8203 5.83615 20.3171 5.10766 18.5584C4.37917 16.7996 4.18856 14.8644 4.55994 12.9973C4.93132 11.1302 5.84802 9.41519 7.1941 8.06911C8.54018 6.72302 10.2552 5.80633 12.1222 5.43495C13.9893 5.06357 15.9246 5.25417 17.6833 5.98267C19.442 6.71116 20.9453 7.94482 22.0029 9.52764C23.0605 11.1105 23.625 12.9714 23.625 14.875C23.625 17.4277 22.6109 19.8759 20.8059 21.6809C19.0008 23.486 16.5527 24.5 14 24.5ZM14 7.00001C12.4425 7.00001 10.9199 7.46187 9.62488 8.32718C8.32985 9.1925 7.32049 10.4224 6.72445 11.8614C6.12841 13.3004 5.97246 14.8838 6.27632 16.4114C6.58017 17.939 7.33019 19.3422 8.43153 20.4435C9.53287 21.5448 10.936 22.2949 12.4636 22.5987C13.9912 22.9026 15.5746 22.7466 17.0136 22.1506C18.4526 21.5546 19.6825 20.5452 20.5478 19.2502C21.4131 17.9551 21.875 16.4326 21.875 14.875C21.875 12.7865 21.0453 10.7834 19.5684 9.30654C18.0916 7.82969 16.0886 7.00001 14 7.00001Z" fill="#94C518"/>
<path d="M16.2662 18.375L13.125 15.2338V9.625H14.875V14.5075L17.5 17.1413L16.2662 18.375Z" fill="#94C518"/>
<path d="M6.63362 3.50293L3.5 6.64311L4.73873 7.87925L7.87235 4.73907L6.63362 3.50293Z" fill="#94C518"/>
<path d="M21.3637 3.49512L20.125 4.73126L23.2586 7.87144L24.4974 6.6353L21.3637 3.49512Z" fill="#94C518"/>
</g>
<defs>
<clipPath id="clip0_8301_184145">
<rect width="28" height="28" fill="white"/>
</clipPath>
</defs>
</svg>
