<svg width="29" height="28" viewBox="0 0 29 28" fill="none" xmlns="http://www.w3.org/2000/svg">
<g clip-path="url(#clip0_8301_184151)">
<g style="mix-blend-mode:multiply">
<path d="M25.6914 0H3.69141C2.03455 0 0.691406 1.34315 0.691406 3V25C0.691406 26.6569 2.03455 28 3.69141 28H25.6914C27.3483 28 28.6914 26.6569 28.6914 25V3C28.6914 1.34315 27.3483 0 25.6914 0Z" fill="white" fill-opacity="0.01"/>
</g>
<path d="M11.2578 21C10.5656 21 9.88889 20.7947 9.31332 20.4101C8.73775 20.0256 8.28915 19.4789 8.02424 18.8394C7.75933 18.1999 7.69002 17.4961 7.82507 16.8172C7.96012 16.1383 8.29346 15.5146 8.78294 15.0251C9.27243 14.5356 9.89607 14.2023 10.575 14.0673C11.254 13.9322 11.9577 14.0015 12.5972 14.2664C13.2368 14.5313 13.7834 14.9799 14.168 15.5555C14.5526 16.1311 14.7578 16.8078 14.7578 17.5C14.7569 18.428 14.3878 19.3176 13.7316 19.9738C13.0755 20.63 12.1858 20.999 11.2578 21ZM11.2578 15.75C10.9117 15.75 10.5734 15.8526 10.2856 16.0449C9.99778 16.2372 9.77348 16.5105 9.64103 16.8303C9.50858 17.1501 9.47392 17.5019 9.54144 17.8414C9.60897 18.1809 9.77564 18.4927 10.0204 18.7374C10.2651 18.9822 10.577 19.1488 10.9164 19.2164C11.2559 19.2839 11.6078 19.2492 11.9275 19.1168C12.2473 18.9843 12.5206 18.76 12.7129 18.4722C12.9052 18.1845 13.0078 17.8461 13.0078 17.5C13.0073 17.036 12.8228 16.5912 12.4947 16.2632C12.1666 15.9351 11.7218 15.7505 11.2578 15.75Z" fill="#94C518"/>
<path d="M26.941 5.25C26.9401 4.32204 26.571 3.43237 25.9148 2.7762C25.2587 2.12003 24.369 1.75097 23.441 1.75C22.8743 1.75395 22.3173 1.89723 21.819 2.1672L7.47851 9.58816C6.20454 10.1844 5.09323 11.0792 4.2389 12.1966C3.38457 13.314 2.81244 14.621 2.57108 16.0067C2.32972 17.3924 2.42626 18.8159 2.85249 20.1563C3.27872 21.4968 4.02207 22.7146 5.01943 23.7064C6.0168 24.6983 7.23874 25.4348 8.58153 25.8536C9.92433 26.2723 11.3483 26.3609 12.7327 26.1119C14.117 25.8628 15.4208 25.2834 16.5335 24.4229C17.6461 23.5623 18.5347 22.4461 19.1238 21.1688L26.5525 6.81931C26.8043 6.33429 26.9375 5.79647 26.941 5.25ZM23.441 3.5C23.7872 3.5 24.1255 3.60264 24.4133 3.79493C24.7011 3.98722 24.9254 4.26053 25.0578 4.5803C25.1903 4.90007 25.2249 5.25194 25.1574 5.59141C25.0899 5.93087 24.9232 6.24269 24.6785 6.48744C24.4337 6.73218 24.1219 6.89885 23.7824 6.96637C23.443 7.0339 23.0911 6.99924 22.7713 6.86679C22.4516 6.73434 22.1783 6.51003 21.986 6.22225C21.7937 5.93446 21.691 5.59612 21.691 5.25C21.6916 4.78603 21.8761 4.34122 22.2042 4.01315C22.5323 3.68508 22.9771 3.50053 23.441 3.5ZM19.958 5.08226C19.9553 5.13905 19.941 5.19251 19.941 5.25C19.942 6.17796 20.3111 7.06763 20.9672 7.7238C21.6234 8.37997 22.5131 8.74903 23.441 8.75C23.4975 8.75 23.55 8.736 23.6057 8.73338L19.8154 16.0499C19.5098 14.2561 18.6535 12.602 17.3654 11.3169C16.0772 10.0318 14.421 9.1795 12.6266 8.87819L19.958 5.08226ZM11.191 24.5C9.80658 24.5 8.4532 24.0895 7.30206 23.3203C6.15091 22.5511 5.2537 21.4579 4.72389 20.1788C4.19408 18.8997 4.05545 17.4922 4.32555 16.1344C4.59565 14.7765 5.26233 13.5292 6.2413 12.5503C7.22027 11.5713 8.46755 10.9046 9.82542 10.6345C11.1833 10.3644 12.5907 10.503 13.8698 11.0328C15.1489 11.5627 16.2422 12.4599 17.0113 13.611C17.7805 14.7622 18.191 16.1155 18.191 17.5C18.1889 19.3559 17.4507 21.1351 16.1384 22.4474C14.8261 23.7597 13.0469 24.4979 11.191 24.5Z" fill="#94C518"/>
</g>
<defs>
<clipPath id="clip0_8301_184151">
<rect width="29" height="28" fill="white"/>
</clipPath>
</defs>
</svg>
