<svg width="25" height="25" viewBox="0 0 25 25" fill="none" xmlns="http://www.w3.org/2000/svg">
<g clip-path="url(#clip0_6160_52471)">
<g style="mix-blend-mode:multiply">
<path d="M24.1348 0.408691H0.134766V24.4087H24.1348V0.408691Z" fill="white" fill-opacity="0.01"/>
</g>
<path d="M19.6348 16.1587H18.1348V19.9087H19.6348V16.1587Z" fill="#6F6F6F"/>
<path d="M16.6348 12.4087H15.1348V19.9087H16.6348V12.4087Z" fill="#6F6F6F"/>
<path d="M8.38477 19.9087C7.39056 19.9075 6.43742 19.5121 5.73441 18.809C5.0314 18.106 4.63594 17.1529 4.63477 16.1587H6.13477C6.13477 16.6037 6.26673 17.0387 6.51396 17.4087C6.76119 17.7787 7.11259 18.0671 7.52373 18.2374C7.93486 18.4077 8.38726 18.4523 8.82372 18.3655C9.26018 18.2786 9.66109 18.0644 9.97576 17.7497C10.2904 17.435 10.5047 17.0341 10.5915 16.5976C10.6783 16.1612 10.6338 15.7088 10.4635 15.2977C10.2932 14.8865 10.0048 14.5351 9.6348 14.2879C9.26479 14.0407 8.82977 13.9087 8.38477 13.9087V12.4087C9.37933 12.4087 10.3332 12.8038 11.0364 13.507C11.7397 14.2103 12.1348 15.1641 12.1348 16.1587C12.1348 17.1533 11.7397 18.1071 11.0364 18.8103C10.3332 19.5136 9.37933 19.9087 8.38477 19.9087Z" fill="#6F6F6F"/>
<path d="M21.1348 1.90869H3.13477C2.73706 1.90909 2.35576 2.06725 2.07454 2.34847C1.79333 2.62969 1.63516 3.01099 1.63477 3.40869V21.4087C1.63522 21.8064 1.7934 22.1876 2.07461 22.4688C2.35582 22.7501 2.73708 22.9082 3.13477 22.9087H21.1348C21.5324 22.9082 21.9136 22.7499 22.1948 22.4688C22.476 22.1876 22.6342 21.8064 22.6348 21.4087V3.40869C22.6343 3.01101 22.4761 2.62974 22.1949 2.34854C21.9137 2.06733 21.5325 1.90915 21.1348 1.90869ZM21.1348 8.65869H10.6348V3.40869H21.1348V8.65869ZM9.13477 3.40869V8.65869H3.13477V3.40869H9.13477ZM3.13477 21.4087V10.1587H21.1353L21.1363 21.4087H3.13477Z" fill="#6F6F6F"/>
</g>
<defs>
<clipPath id="clip0_6160_52471">
<rect width="25" height="25" fill="white"/>
</clipPath>
</defs>
</svg>
