<svg width="28" height="28" viewBox="0 0 28 28" fill="none" xmlns="http://www.w3.org/2000/svg">
<rect width="28" height="28" fill="white" fill-opacity="0.01" style="mix-blend-mode:multiply"/>
<path d="M25.2274 20.2739L20.1262 15.1639V11.3752C20.1268 11.26 20.1048 11.1459 20.0612 11.0393C20.0177 10.9327 19.9535 10.8357 19.8724 10.7539L11.1224 2.00394C11.0411 1.92193 10.9443 1.85683 10.8377 1.81241C10.731 1.76799 10.6167 1.74512 10.5012 1.74512C10.3857 1.74512 10.2713 1.76799 10.1647 1.81241C10.058 1.85683 9.96126 1.92193 9.87992 2.00394L2.00492 9.87894C1.9229 9.96028 1.85781 10.0571 1.81339 10.1637C1.76896 10.2703 1.74609 10.3847 1.74609 10.5002C1.74609 10.6157 1.76896 10.7301 1.81339 10.8367C1.85781 10.9433 1.9229 11.0401 2.00492 11.1214L10.7549 19.8714C10.8367 19.9525 10.9336 20.0167 11.0402 20.0602C11.1469 20.1038 11.261 20.1259 11.3762 20.1252H15.1737L20.2749 25.2352C20.9317 25.8919 21.8224 26.2609 22.7512 26.2609C23.6799 26.2609 24.5707 25.8919 25.2274 25.2352C25.8842 24.5784 26.2531 23.6877 26.2531 22.7589C26.2531 21.8302 25.8842 20.9394 25.2274 20.2827V20.2739ZM5.25117 9.10894L7.25492 11.1214L8.49742 9.87894L6.48492 7.87519L7.87617 6.48394L11.6299 10.2464L12.8724 9.00394L9.10992 5.25019L10.5012 3.85894L16.2674 9.62519L9.62617 16.2664L3.85992 10.5002L5.25117 9.10894ZM23.9849 23.9839C23.657 24.3099 23.2135 24.4928 22.7512 24.4928C22.2888 24.4928 21.8453 24.3099 21.5174 23.9839L16.1537 18.6289C15.9672 18.5007 15.7553 18.4142 15.5324 18.3752H11.7349L10.8599 17.5002L17.5012 10.8589L18.3762 11.7339V15.5314C18.3771 15.761 18.4683 15.981 18.6299 16.1439L23.9849 21.5164C24.3109 21.8443 24.4938 22.2879 24.4938 22.7502C24.4938 23.2125 24.3109 23.6561 23.9849 23.9839Z" fill="#94C518"/>
</svg>
