<svg width="29" height="26" viewBox="0 0 29 26" fill="none" xmlns="http://www.w3.org/2000/svg">
<g clip-path="url(#clip0_8301_184342)">
<path d="M4.21207 7.50757C4.21366 6.97181 4.3587 6.44626 4.63211 5.98551L7.01466 1.97048C7.55501 1.05988 8.53538 0.50158 9.59423 0.501445L20.9512 0.5C22.0175 0.499864 23.0037 1.06573 23.5417 1.98635L25.9153 6.048C26.1835 6.50697 26.3249 7.02897 26.3251 7.56057L26.329 18.4354C26.3292 18.9685 26.1874 19.492 25.9181 19.952L23.5422 24.0109C23.0042 24.93 22.0192 25.495 20.9542 25.4953L9.59899 25.4992C8.54034 25.4996 7.55988 24.9419 7.01903 24.0319L4.60074 19.9627C4.3236 19.4964 4.17809 18.9636 4.1797 18.4211L4.21207 7.50757Z" fill="#94C518"/>
<path d="M4.17419 19.2486H5.62447C7.93775 19.2486 9.38064 16.741 8.21818 14.7411L7.97268 14.3187C7.47527 13.4629 7.43202 12.4168 7.85707 11.5229L8.2795 10.6345C9.15006 8.80355 7.81527 6.69036 5.78797 6.68994C4.81105 6.68973 3.90683 7.20606 3.41052 8.04752L0.488281 13.0021" fill="#EDEDED"/>
<path d="M11.9689 17.914C12.5255 18.7476 13.4616 19.2482 14.464 19.2482H16.1723C17.1493 19.2482 18.0651 18.7725 18.6268 17.9731L20.8591 14.7964C21.5699 13.7849 21.5874 12.441 20.9033 11.4114L18.6961 8.08932C18.1401 7.25247 17.2021 6.74951 16.1974 6.74951H13.8332C12.748 6.74951 11.7474 7.33562 11.2166 8.2822L9.52396 11.3007C8.97211 12.2848 9.01909 13.4954 9.64556 14.4337L11.9689 17.914Z" fill="#E0E0E0"/>
<path d="M5.56544 13.0171C3.32638 13.01 1.9314 15.4434 3.06894 17.372L3.33923 17.8302C3.8582 18.7101 4.80361 19.25 5.82512 19.25C8.05067 19.25 9.43877 16.8375 8.32025 14.9134L8.05287 14.4535C7.53754 13.567 6.5908 13.0203 5.56544 13.0171Z" fill="#ACACAC"/>
<path d="M14.3025 13.0034C11.9061 13.0029 10.4765 15.6738 11.8059 17.6677L11.9704 17.9144C12.5269 18.7489 13.4635 19.2501 14.4665 19.2501H16.1421C17.1362 19.2501 18.0658 18.7576 18.6242 17.9351L18.7914 17.6888C20.1435 15.6971 18.7171 13.0042 16.3099 13.0038L14.3025 13.0034Z" fill="#9E9E9E"/>
<path d="M10.3464 13.0056L9.31314 13.2995C9.16695 13.3411 9.01195 13.3402 8.86625 13.2969C8.36682 13.1487 8.13972 12.5705 8.40475 12.122L11.5777 6.75204C12.1311 5.81555 13.4858 5.81496 14.04 6.75096" fill="#BFF043"/>
<path d="M14.0334 19.2484C13.4197 20.2948 11.9744 20.4616 11.1386 19.5824L9.99124 18.3755C9.69148 18.0602 9.46388 17.6835 9.32423 17.2714L7.87902 13.0072C7.87902 13.0075 7.87894 13.007 7.87902 13.0072C7.87902 13.0061 7.87987 13.0044 7.88106 13.0044H10.3443" fill="#CCF368"/>
<path d="M7.88393 13.0046H7.88284C7.88203 13.0046 7.88137 13.0053 7.88137 13.0061C7.88137 13.0064 7.88149 13.0058 7.88137 13.0061L7.55855 13.5527C7.14913 14.2454 6.14754 14.2473 5.73548 13.5562C5.53691 13.2231 5.53604 12.8082 5.73319 12.4743L6.66729 10.8924L9.47571 6.14374C10.0156 5.23087 10.9974 4.6709 12.0579 4.6709H12.8096" fill="#B2ED1D"/>
<path d="M21.4336 16.2484C21.4336 17.9052 22.7767 19.2484 24.4336 19.2484H25.8917C27.549 19.2484 28.8923 17.9046 28.8917 16.2473L28.8893 9.74794C28.8887 8.09151 27.5458 6.74902 25.8893 6.74902H24.4336C22.7767 6.74902 21.4336 8.09217 21.4336 9.74902V16.2484Z" fill="#D4D4D4"/>
<path d="M24.4336 13.022C22.7767 13.022 21.4336 14.3651 21.4336 16.022V16.2497C21.4336 17.9066 22.7767 19.2497 24.4336 19.2497H25.8793C27.5361 19.2497 28.8793 17.9066 28.8793 16.2497V16.022C28.8793 14.3651 27.5361 13.022 25.8793 13.022H24.4336Z" fill="#919191"/>
<path d="M11.8629 19.7396C12.2812 20.4466 11.7715 21.3402 10.95 21.3402C10.5751 21.3402 10.2279 21.1422 10.0371 20.8195L6.9679 15.6289C6.77111 15.2961 6.77112 14.8825 6.96794 14.5497C7.3783 13.8559 8.3823 13.8558 8.79274 14.5496L11.8629 19.7396Z" fill="#BFF043"/>
<path d="M20.8098 13.0039C21.6297 13.0043 22.1382 13.8962 21.721 14.602L18.6436 19.808C18.2202 20.5242 17.0561 20.2431 16.6544 19.5145C16.4609 19.1635 16.6347 19.0392 16.8388 18.6942L19.8977 13.5238C20.0884 13.2014 20.4352 13.0037 20.8098 13.0039Z" fill="#B2ED1D"/>
<path d="M20.1982 21.3389C19.1111 21.3387 18.4368 20.1562 18.99 19.2205L22.6649 13.0046C23.218 12.0694 24.5786 12.0823 25.1303 13.0184M21.9738 11.3614C22.3018 12.1423 21.7283 13.0052 20.8813 13.0052C20.4623 13.0052 20.0744 12.7839 19.8612 12.4232L16.8641 7.35224C16.6446 6.98099 16.6442 6.51983 16.863 6.14821C17.2832 5.43456 18.2872 5.36111 18.8068 6.00602L20.4585 8.0563C20.6348 8.27513 20.7795 8.51764 20.8883 8.77672L21.9738 11.3614Z" fill="#BFF043"/>
<path d="M23.8946 10.9212L23.8951 10.923L23.8946 10.9247L23.7234 11.214C23.2466 12.0197 22.0807 12.0198 21.6038 11.2141L18.6808 6.27512C18.262 5.56747 18.7723 4.67292 19.5946 4.67334C19.9696 4.67353 20.3166 4.87159 20.5075 5.19435L23.8946 10.9212Z" fill="#CCF368"/>
</g>
<defs>
<clipPath id="clip0_8301_184342">
<rect width="29" height="26" fill="white"/>
</clipPath>
</defs>
</svg>
