<svg width="29" height="18" viewBox="0 0 29 18" fill="none" xmlns="http://www.w3.org/2000/svg">
<g clip-path="url(#clip0_6160_52498)">
<mask id="mask0_6160_52498" style="mask-type:luminance" maskUnits="userSpaceOnUse" x="0" y="0" width="29" height="18">
<path d="M28.6914 0.935059H0.691406V17.8825H28.6914V0.935059Z" fill="white"/>
</mask>
<g mask="url(#mask0_6160_52498)">
<path d="M18.072 15.8536L12.4198 13.1861C11.8631 12.9238 11.6226 12.2591 11.8943 11.7081L14.6112 6.1588C14.8785 5.61218 15.5555 5.37604 16.1167 5.64279C16.8827 6.00575 17.3237 6.21128 17.3237 6.21128L17.3192 1.43601L18.0631 1.43164L18.0675 6.55237C18.0675 6.55237 20.6241 7.61062 21.7688 8.30592C21.9336 8.4065 22.2231 8.60328 22.3433 8.93562C22.4369 9.20237 22.4324 9.50848 22.2988 9.7796L19.5819 15.3289C19.3057 15.8842 18.6287 16.1204 18.072 15.8536Z" fill="white"/>
<path d="M28.1739 1.2306C27.9913 1.05131 27.7463 1.05569 27.7463 1.05569C27.7463 1.05569 22.5263 1.3443 19.8227 1.40552C19.2303 1.41864 18.6424 1.43176 18.0589 1.43613C18.0589 3.14596 18.0589 4.85578 18.0589 6.56123C17.8139 6.44753 17.5645 6.32946 17.3196 6.21577C17.3196 4.62401 17.3151 1.44051 17.3151 1.44051C16.0234 1.458 13.3421 1.3443 13.3421 1.3443C13.3421 1.3443 7.0442 1.03382 6.35829 0.972601C5.9218 0.946364 5.35614 0.880769 4.62124 1.03819C4.23374 1.11691 3.12915 1.36179 2.22499 2.21452C0.220694 3.96807 0.732903 6.75801 0.795259 7.17782C0.870977 7.68945 1.10258 9.11066 2.20717 10.3482C4.2471 12.8014 8.63873 12.7446 8.63873 12.7446C8.63873 12.7446 9.17767 14.0084 10.0017 15.1716C11.1152 16.619 12.2598 17.7472 13.3733 17.8828C16.1793 17.8828 21.7869 17.8784 21.7869 17.8784C21.7869 17.8784 22.3214 17.8828 23.0474 17.428C23.6709 17.0563 24.2277 16.4047 24.2277 16.4047C24.2277 16.4047 24.8023 15.8013 25.604 14.4238C25.8489 13.9996 26.0538 13.5886 26.232 13.1994C26.232 13.1994 28.6906 8.07864 28.6906 3.09348C28.6416 1.58481 28.263 1.31806 28.1739 1.2306ZM6.03315 10.1558C4.87957 9.78409 4.38963 9.33805 4.38963 9.33805C4.38963 9.33805 3.53892 8.75208 3.11133 7.59762C2.37643 5.66478 3.04898 4.48408 3.04898 4.48408C3.04898 4.48408 3.42311 3.50017 4.76376 3.17219C5.37841 3.0104 6.1445 3.03663 6.1445 3.03663C6.1445 3.03663 6.46073 5.63416 6.84378 7.15595C7.16446 8.43285 7.94837 10.5537 7.94837 10.5537C7.94837 10.5537 6.78587 10.4182 6.03315 10.1558ZM19.4085 14.8611C19.4085 14.8611 19.1368 15.4952 18.5355 15.5345C18.2772 15.552 18.0767 15.4821 18.0767 15.4821C18.0767 15.4821 18.0634 15.4777 17.8407 15.3902L12.8121 12.9851C12.8121 12.9851 12.3266 12.7358 12.242 12.3029C12.144 11.9487 12.3623 11.5114 12.3623 11.5114L14.7808 6.61808C14.7808 6.61808 14.9946 6.1939 15.3242 6.0496C15.3509 6.03648 15.4266 6.00587 15.5246 5.984C15.8854 5.89217 16.3263 6.10644 16.3263 6.10644L21.2569 8.45472C21.2569 8.45472 21.8181 8.70398 21.9383 9.16314C22.023 9.48674 21.9161 9.77535 21.8582 9.91528C21.5776 10.5887 19.4085 14.8611 19.4085 14.8611Z" fill="#1D77FE"/>
<path d="M14.995 11.3012C14.6298 11.3055 14.3091 11.5548 14.2245 11.9046C14.1398 12.2545 14.3135 12.6174 14.6298 12.7792C14.9727 12.9541 15.4092 12.8579 15.6408 12.5431C15.868 12.2326 15.8323 11.8041 15.5607 11.5329L16.6296 9.38581C16.6964 9.39018 16.7944 9.39456 16.9058 9.36394C17.0884 9.32459 17.222 9.20652 17.222 9.20652C17.4091 9.28523 17.605 9.37269 17.8099 9.47327C18.0237 9.57822 18.2241 9.68754 18.4068 9.79249C18.4468 9.81436 18.4869 9.8406 18.5315 9.87558C18.6027 9.93243 18.6829 10.0111 18.7408 10.1161C18.8254 10.3566 18.6562 10.7677 18.6562 10.7677C18.5537 11.1 17.8366 12.5431 17.8366 12.5431C17.4759 12.5343 17.1552 12.7617 17.0483 13.0897C16.9325 13.4439 17.0973 13.8462 17.4447 14.0211C17.7921 14.1961 18.2197 14.0955 18.4468 13.7894C18.6695 13.492 18.6517 13.0766 18.3978 12.8011C18.4825 12.6393 18.5626 12.4775 18.6473 12.3069C18.87 11.8522 19.2486 10.9776 19.2486 10.9776C19.2886 10.9032 19.5024 10.5271 19.3688 10.0461C19.2575 9.54761 18.8076 9.31584 18.8076 9.31584C18.2642 8.97038 17.507 8.65115 17.507 8.65115C17.507 8.65115 17.507 8.47186 17.4581 8.34067C17.4091 8.20511 17.3333 8.11765 17.2843 8.06518C17.4937 7.641 17.703 7.2212 17.9124 6.79702C17.7297 6.70956 17.5516 6.62211 17.369 6.53027C17.1552 6.95882 16.9369 7.39174 16.7231 7.82029C16.4247 7.81592 16.1486 7.97335 16.0061 8.23135C15.8546 8.50685 15.8858 8.84794 16.0907 9.0972C15.7254 9.83185 15.3602 10.5665 14.995 11.3012Z" fill="#1D77FE"/>
</g>
</g>
<defs>
<clipPath id="clip0_6160_52498">
<rect width="29" height="18" fill="white"/>
</clipPath>
</defs>
</svg>
