<svg width="28" height="28" viewBox="0 0 28 28" fill="none" xmlns="http://www.w3.org/2000/svg">
<path d="M17.5001 20.125H10.3776C10.291 19.8182 10.1645 19.524 10.0014 19.25L19.2501 10.0013C19.7768 10.3245 20.3822 10.497 21.0001 10.5C21.6552 10.5021 22.2978 10.3204 22.8547 9.97537C23.4116 9.63038 23.8605 9.13602 24.1503 8.54852C24.4401 7.96103 24.5593 7.30398 24.4942 6.65213C24.429 6.00027 24.1823 5.37978 23.782 4.86122C23.3816 4.34267 22.8438 3.94688 22.2297 3.71887C21.6155 3.49086 20.9497 3.43978 20.308 3.57145C19.6663 3.70313 19.0744 4.01226 18.5996 4.46369C18.1249 4.91511 17.7864 5.49071 17.6226 6.12501H10.3776C10.1647 5.30018 9.65818 4.58134 8.95312 4.10323C8.24807 3.62512 7.39284 3.42056 6.54775 3.5279C5.70267 3.63524 4.92574 4.04711 4.3626 4.6863C3.79946 5.3255 3.48877 6.14813 3.48877 7.00001C3.48877 7.85189 3.79946 8.67452 4.3626 9.31371C4.92574 9.95291 5.70267 10.3648 6.54775 10.4721C7.39284 10.5795 8.24807 10.3749 8.95312 9.89679C9.65818 9.41867 10.1647 8.69983 10.3776 7.87501H17.6226C17.7093 8.18186 17.8358 8.47603 17.9989 8.75001L8.75013 17.9988C8.22341 17.6755 7.61811 17.503 7.00013 17.5C6.34503 17.4979 5.70249 17.6797 5.14559 18.0246C4.58869 18.3696 4.13979 18.864 3.84996 19.4515C3.56013 20.039 3.44099 20.696 3.50611 21.3479C3.57123 21.9997 3.81798 22.6202 4.2183 23.1388C4.61862 23.6573 5.15645 24.0531 5.77058 24.2812C6.38472 24.5092 7.05053 24.5602 7.69226 24.4286C8.33399 24.2969 8.92588 23.9878 9.40061 23.5363C9.87534 23.0849 10.2139 22.5093 10.3776 21.875H17.5001V24.5H24.5001V17.5H17.5001V20.125ZM7.00013 8.75001C6.65401 8.75001 6.31567 8.64737 6.02788 8.45508C5.7401 8.26279 5.51579 7.98948 5.38334 7.6697C5.25089 7.34993 5.21623 6.99807 5.28376 6.6586C5.35128 6.31913 5.51795 6.00731 5.76269 5.76257C6.00743 5.51783 6.31925 5.35116 6.65872 5.28363C6.99819 5.21611 7.35005 5.25077 7.66983 5.38322C7.9896 5.51567 8.26291 5.73997 8.4552 6.02776C8.64749 6.31555 8.75013 6.65389 8.75013 7.00001C8.75013 7.46414 8.56575 7.90926 8.23757 8.23745C7.90938 8.56563 7.46426 8.75001 7.00013 8.75001ZM21.0001 5.25001C21.3462 5.25001 21.6846 5.35264 21.9724 5.54494C22.2602 5.73723 22.4845 6.01054 22.6169 6.33031C22.7494 6.65008 22.784 7.00195 22.7165 7.34142C22.649 7.68088 22.4823 7.9927 22.2376 8.23745C21.9928 8.48219 21.681 8.64886 21.3415 8.71638C21.0021 8.78391 20.6502 8.74925 20.3304 8.6168C20.0107 8.48434 19.7373 8.26004 19.5451 7.97226C19.3528 7.68447 19.2501 7.34613 19.2501 7.00001C19.2501 6.53588 19.4345 6.09076 19.7627 5.76257C20.0909 5.43438 20.536 5.25001 21.0001 5.25001ZM7.00013 22.75C6.65401 22.75 6.31567 22.6474 6.02788 22.4551C5.7401 22.2628 5.51579 21.9895 5.38334 21.6697C5.25089 21.3499 5.21623 20.9981 5.28376 20.6586C5.35128 20.3191 5.51795 20.0073 5.76269 19.7626C6.00743 19.5178 6.31925 19.3512 6.65872 19.2836C6.99819 19.2161 7.35005 19.2508 7.66983 19.3832C7.9896 19.5157 8.26291 19.74 8.4552 20.0278C8.64749 20.3155 8.75013 20.6539 8.75013 21C8.75013 21.4641 8.56575 21.9093 8.23757 22.2374C7.90938 22.5656 7.46426 22.75 7.00013 22.75ZM19.2501 19.25H22.7501V22.75H19.2501V19.25Z" fill="#1D77FE"/>
</svg>
