<svg width="24" height="24" viewBox="0 0 24 24" fill="none" xmlns="http://www.w3.org/2000/svg">
<g clip-path="url(#clip0_8301_184156)">
<g style="mix-blend-mode:multiply">
<path d="M24 0H0V24H24V0Z" fill="white" fill-opacity="0.01"/>
</g>
<path d="M21 21H3C2.1729 21 1.5 20.3271 1.5 19.5V15H3V19.5H21V15H22.5V19.5C22.5 20.3271 21.8271 21 21 21Z" fill="#94C518"/>
<path d="M12.75 12.75V15.75C12.75 16.1642 13.0858 16.5 13.5 16.5H16.5C16.9142 16.5 17.25 16.1642 17.25 15.75V12.75C17.25 12.3358 16.9142 12 16.5 12H13.5C13.0858 12 12.75 12.3358 12.75 12.75ZM14.25 13.5H15.75V15H14.25V13.5Z" fill="#94C518"/>
<path d="M6.75 12.75V15.75C6.75 16.1642 7.08577 16.5 7.5 16.5H10.5C10.9142 16.5 11.25 16.1642 11.25 15.75V12.75C11.25 12.3358 10.9142 12 10.5 12H7.5C7.08577 12 6.75 12.3358 6.75 12.75ZM8.25 13.5H9.75V15H8.25V13.5Z" fill="#94C518"/>
<path d="M12.75 6.75V9.75C12.75 10.1642 13.0858 10.5 13.5 10.5H16.5C16.9142 10.5 17.25 10.1642 17.25 9.75V6.75C17.25 6.33577 16.9142 6 16.5 6H13.5C13.0858 6 12.75 6.33577 12.75 6.75ZM14.25 7.5H15.75V9H14.25V7.5Z" fill="#94C518"/>
<path d="M3.75 3.75V9.75C3.75 10.1642 4.08577 10.5 4.5 10.5H10.5C10.9142 10.5 11.25 10.1642 11.25 9.75V3.75C11.25 3.33578 10.9142 3 10.5 3H4.5C4.08577 3 3.75 3.33578 3.75 3.75ZM5.25 4.5H9.75V9H5.25V4.5Z" fill="#94C518"/>
</g>
<defs>
<clipPath id="clip0_8301_184156">
<rect width="24" height="24" fill="white"/>
</clipPath>
</defs>
</svg>
