<svg width="22" height="28" viewBox="0 0 22 28" fill="none" xmlns="http://www.w3.org/2000/svg">
<g clip-path="url(#clip0_8301_184285)">
<path d="M7.151 6.15593H6.69726V8.36793H7.151V6.15593ZM9.10249 6.15593H8.64874V8.36793H9.10249V6.15593ZM11.7688 1.93458L11.3039 1.17578L3.54297 5.39713L4.00787 6.15593L11.7688 1.93458Z" fill="#94C518"/>
<path d="M11.7227 1.93458L12.188 1.17578L19.9489 5.39713L19.4837 6.15593L11.7227 1.93458Z" fill="#94C518"/>
<path d="M21.3218 6.16609V5.29004H0.0585938V6.16609H21.3218Z" fill="#94C518"/>
<path fill-rule="evenodd" clip-rule="evenodd" d="M12.9052 18.542V5.5573H13.8358V19.1726C13.5862 18.9052 13.2682 18.7131 12.9052 18.542ZM11.3167 18.3176V0H12.2473V18.4243C11.9862 18.3067 11.3509 18.3176 11.3167 18.3176ZM2.50061 20.145C1.36587 19.3543 0.617188 18.0933 0.617188 16.6611C0.617188 15.9023 0.832531 15.1543 1.22974 14.5023H9.17218C9.58055 15.1543 9.78512 15.9023 9.78512 16.6611C9.78512 17.3236 9.69436 17.9434 9.41058 18.4993C8.80918 17.9543 7.924 17.7191 7.02766 17.7191C5.43918 17.7191 4.07756 18.6487 3.72609 20.0382C3.60113 20.0274 3.52191 20.0168 3.39694 20.0168C3.09048 20.0273 2.79554 20.0704 2.50061 20.145Z" fill="#94C518"/>
<path d="M6.40209 9.35116H3.99685V11.6272H6.40209V9.35116ZM3.69039 9.35116H1.28516V11.6272H3.69039V9.35116ZM3.69039 11.8838H1.28516V14.1602H3.69039V11.8838ZM6.40209 11.8838H3.99685V14.1602H6.40209V11.8838ZM9.10263 11.8838H6.69739V14.1602H9.10263V11.8838ZM9.10263 8.13281H6.69739V10.4089H9.10263V8.13281Z" fill="#94C518"/>
<path fill-rule="evenodd" clip-rule="evenodd" d="M4.12276 20.4867C4.45191 19.1725 5.71124 18.189 7.20897 18.189C8.17374 18.189 9.03586 18.5953 9.62611 19.2365C10.1364 18.9051 10.7494 18.7129 11.4188 18.7129C13.1661 18.7129 14.5843 20.0485 14.5843 21.6946C14.5843 22.0365 14.5277 22.3571 14.4143 22.6669C14.8 23.1586 15.0384 23.7785 15.0384 24.441C15.0384 26.0867 13.6199 27.4227 11.8726 27.4227C11.1008 27.4227 10.3975 27.1661 9.85298 26.7388C9.27427 27.4976 8.33256 27.9998 7.26588 27.9998C6.04039 27.9998 4.97371 27.3373 4.44074 26.3755C4.22503 26.4182 4.00932 26.4395 3.78244 26.4395C2.03514 26.4395 0.605469 25.1036 0.605469 23.4579C0.605469 21.8122 2.02398 20.4762 3.78244 20.4762C3.89587 20.4654 4.00932 20.4654 4.12276 20.4867Z" fill="#94C518"/>
</g>
<defs>
<clipPath id="clip0_8301_184285">
<rect width="22" height="28" fill="white"/>
</clipPath>
</defs>
</svg>
