<svg width="24" height="24" viewBox="0 0 24 24" fill="none" xmlns="http://www.w3.org/2000/svg">
<rect width="24" height="24" rx="3" fill="white" fill-opacity="0.01" style="mix-blend-mode:multiply"/>
<path d="M4.5 18C4.79667 18 5.08668 18.088 5.33336 18.2528C5.58003 18.4176 5.77229 18.6519 5.88582 18.926C5.99935 19.2001 6.02906 19.5017 5.97118 19.7926C5.9133 20.0836 5.77044 20.3509 5.56066 20.5607C5.35088 20.7704 5.08361 20.9133 4.79264 20.9712C4.50167 21.0291 4.20006 20.9994 3.92598 20.8858C3.65189 20.7723 3.41762 20.58 3.2528 20.3334C3.08797 20.0867 3 19.7967 3 19.5C3 19.1022 3.15804 18.7206 3.43934 18.4393C3.72065 18.158 4.10218 18 4.5 18ZM4.5 16.5C3.90666 16.5 3.32664 16.6759 2.83329 17.0056C2.33994 17.3352 1.95543 17.8038 1.72836 18.3519C1.5013 18.9001 1.44189 19.5033 1.55765 20.0853C1.6734 20.6672 1.95912 21.2018 2.37868 21.6213C2.79824 22.0409 3.33279 22.3266 3.91473 22.4424C4.49667 22.5581 5.09987 22.4987 5.64805 22.2716C6.19623 22.0446 6.66477 21.6601 6.99441 21.1667C7.32405 20.6734 7.5 20.0933 7.5 19.5C7.5 18.7044 7.18393 17.9413 6.62132 17.3787C6.05871 16.8161 5.29565 16.5 4.5 16.5Z" fill="#94C518"/>
<path d="M12 3C12.2967 3 12.5867 3.08797 12.8334 3.2528C13.08 3.41762 13.2723 3.65189 13.3858 3.92597C13.4994 4.20006 13.5291 4.50166 13.4712 4.79264C13.4133 5.08361 13.2704 5.35088 13.0607 5.56066C12.8509 5.77044 12.5836 5.9133 12.2926 5.97118C12.0017 6.02906 11.7001 5.99935 11.426 5.88582C11.1519 5.77229 10.9176 5.58003 10.7528 5.33336C10.588 5.08668 10.5 4.79667 10.5 4.5C10.5 4.10218 10.658 3.72064 10.9393 3.43934C11.2206 3.15804 11.6022 3 12 3ZM12 1.5C11.4067 1.5 10.8266 1.67595 10.3333 2.00559C9.83994 2.33524 9.45542 2.80377 9.22836 3.35195C9.0013 3.90013 8.94189 4.50333 9.05764 5.08527C9.1734 5.66721 9.45912 6.20176 9.87868 6.62132C10.2982 7.04088 10.8328 7.3266 11.4147 7.44236C11.9967 7.55811 12.5999 7.4987 13.1481 7.27164C13.6962 7.04458 14.1648 6.66006 14.4944 6.16671C14.8241 5.67336 15 5.09334 15 4.5C15 3.70435 14.6839 2.94129 14.1213 2.37868C13.5587 1.81607 12.7956 1.5 12 1.5Z" fill="#94C518"/>
<path d="M19.5 3C19.7967 3 20.0867 3.08797 20.3334 3.2528C20.58 3.41762 20.7723 3.65189 20.8858 3.92597C20.9993 4.20006 21.0291 4.50166 20.9712 4.79264C20.9133 5.08361 20.7704 5.35088 20.5607 5.56066C20.3509 5.77044 20.0836 5.9133 19.7926 5.97118C19.5017 6.02906 19.2001 5.99935 18.926 5.88582C18.6519 5.77229 18.4176 5.58003 18.2528 5.33336C18.088 5.08668 18 4.79667 18 4.5C18 4.10218 18.158 3.72064 18.4393 3.43934C18.7206 3.15804 19.1022 3 19.5 3ZM19.5 1.5C18.9067 1.5 18.3266 1.67595 17.8333 2.00559C17.3399 2.33524 16.9554 2.80377 16.7284 3.35195C16.5013 3.90013 16.4419 4.50333 16.5576 5.08527C16.6734 5.66721 16.9591 6.20176 17.3787 6.62132C17.7982 7.04088 18.3328 7.3266 18.9147 7.44236C19.4967 7.55811 20.0999 7.4987 20.6481 7.27164C21.1962 7.04458 21.6648 6.66006 21.9944 6.16671C22.3241 5.67336 22.5 5.09334 22.5 4.5C22.5 3.70435 22.1839 2.94129 21.6213 2.37868C21.0587 1.81607 20.2956 1.5 19.5 1.5Z" fill="#94C518"/>
<path d="M13.5 18V21H10.5V18H13.5ZM15 16.5H9V22.5H15V16.5Z" fill="#94C518"/>
<path d="M20.25 16.605V12.75C20.25 12.3522 20.092 11.9706 19.8107 11.6893C19.5294 11.408 19.1478 11.25 18.75 11.25H5.25V7.5H7.5V1.5H1.5V7.5H3.75V11.25C3.75 11.6478 3.90804 12.0294 4.18934 12.3107C4.47065 12.592 4.85218 12.75 5.25 12.75H18.75V16.605C18.043 16.7875 17.4269 17.2217 17.017 17.826C16.6072 18.4303 16.4319 19.1634 16.5239 19.8878C16.6159 20.6121 16.9689 21.278 17.5168 21.7607C18.0647 22.2434 18.7698 22.5097 19.5 22.5097C20.2302 22.5097 20.9353 22.2434 21.4832 21.7607C22.0311 21.278 22.3841 20.6121 22.4761 19.8878C22.5681 19.1634 22.3928 18.4303 21.983 17.826C21.5731 17.2217 20.957 16.7875 20.25 16.605ZM3 3H6V6H3V3ZM19.5 21C19.2033 21 18.9133 20.912 18.6666 20.7472C18.42 20.5824 18.2277 20.3481 18.1142 20.074C18.0007 19.7999 17.9709 19.4983 18.0288 19.2074C18.0867 18.9164 18.2296 18.6491 18.4393 18.4393C18.6491 18.2296 18.9164 18.0867 19.2074 18.0288C19.4983 17.9709 19.7999 18.0006 20.074 18.1142C20.3481 18.2277 20.5824 18.42 20.7472 18.6666C20.912 18.9133 21 19.2033 21 19.5C21 19.8978 20.842 20.2794 20.5607 20.5607C20.2794 20.842 19.8978 21 19.5 21Z" fill="#94C518"/>
</svg>
