<svg width="29" height="28" viewBox="0 0 29 28" fill="none" xmlns="http://www.w3.org/2000/svg">
<g clip-path="url(#clip0_6742_66314)">
<path d="M6.95311 1.48592C7.02008 1.48571 7.08705 1.4855 7.15604 1.48529C7.34003 1.48483 7.524 1.48485 7.70799 1.48508C7.90716 1.48522 8.10633 1.48473 8.3055 1.48432C8.69499 1.48363 9.08448 1.48353 9.47397 1.48366C9.79082 1.48375 10.1077 1.48366 10.4245 1.48343C10.4697 1.48339 10.515 1.48336 10.5615 1.48333C10.6534 1.48326 10.7453 1.4832 10.8371 1.48313C11.6975 1.48254 12.5579 1.48266 13.4182 1.48299C14.2038 1.48327 14.9893 1.48266 15.7748 1.48162C16.5831 1.48057 17.3913 1.48012 18.1995 1.48033C18.6526 1.48043 19.1057 1.4803 19.5588 1.47953C19.9446 1.47888 20.3304 1.47881 20.7162 1.47946C20.9127 1.47978 21.1092 1.47985 21.3056 1.47919C23.0275 1.47383 24.3844 1.73221 25.6698 2.96069C26.5328 3.85651 26.9818 5.04658 26.9785 6.27529C26.9787 6.34394 26.979 6.41259 26.9792 6.48332C26.9799 6.6725 26.9799 6.86169 26.9798 7.05087C26.9797 7.25546 26.9803 7.46004 26.9809 7.66462C26.9818 8.06495 26.9821 8.46528 26.9821 8.86561C26.9822 9.19127 26.9824 9.51694 26.9827 9.8426C26.9837 10.7673 26.9842 11.692 26.9841 12.6167C26.9841 12.6665 26.9841 12.7163 26.9841 12.7676C26.9841 12.8174 26.9841 12.8673 26.9841 12.9186C26.984 13.726 26.9851 14.5333 26.9866 15.3407C26.9882 16.171 26.9889 17.0013 26.9888 17.8317C26.9888 18.2973 26.9891 18.7629 26.9903 19.2285C26.9913 19.6251 26.9915 20.0216 26.9908 20.4181C26.9904 20.6201 26.9904 20.8221 26.9913 21.0241C26.9968 22.2563 26.9245 23.4609 26.1487 24.4892C26.1129 24.4892 26.077 24.4892 26.04 24.4892C26.0249 24.5209 26.0098 24.5526 25.9942 24.5852C25.7766 25.0057 25.4519 25.3123 25.0618 25.5762C25.0259 25.5762 24.99 25.5762 24.9531 25.5762C24.9352 25.63 24.9172 25.6838 24.8987 25.7392C24.7659 25.8179 24.6367 25.8868 24.4979 25.9532C24.4585 25.9724 24.419 25.9916 24.3784 26.0114C23.6511 26.3602 22.9961 26.5168 22.1888 26.5146C22.1201 26.5149 22.0515 26.5151 21.9807 26.5154C21.7915 26.516 21.6024 26.516 21.4132 26.5159C21.2086 26.5159 21.004 26.5165 20.7994 26.517C20.3991 26.5179 19.9988 26.5182 19.5984 26.5182C19.2728 26.5183 18.9471 26.5185 18.6214 26.5189C17.6967 26.5198 16.772 26.5203 15.8473 26.5202C15.7727 26.5202 15.7727 26.5202 15.6965 26.5202C15.6217 26.5202 15.6217 26.5202 15.5454 26.5202C14.7381 26.5202 13.9307 26.5212 13.1234 26.5227C12.293 26.5243 11.4627 26.5251 10.6324 26.525C10.1668 26.5249 9.70114 26.5252 9.23552 26.5264C8.83899 26.5274 8.44246 26.5276 8.04593 26.5269C7.84394 26.5265 7.64197 26.5265 7.43999 26.5275C5.55922 26.5358 5.55922 26.5358 4.71192 26.0721C4.67586 26.0531 4.63981 26.0342 4.60266 26.0147C3.95477 25.6688 3.40067 25.23 2.94222 24.6523C2.90789 24.6123 2.87356 24.5724 2.83819 24.5313C2.70335 24.352 2.6058 24.1671 2.50743 23.9661C2.47899 23.9082 2.47899 23.9082 2.44998 23.8492C2.07763 23.0802 1.94692 22.3586 1.94979 21.5044C1.94958 21.4374 1.94937 21.3704 1.94916 21.3013C1.9487 21.1175 1.94872 20.9336 1.94895 20.7497C1.94908 20.5506 1.94859 20.3515 1.94819 20.1523C1.9475 19.763 1.9474 19.3737 1.94752 18.9844C1.94762 18.6678 1.94752 18.3511 1.94729 18.0344C1.94726 17.9892 1.94723 17.944 1.9472 17.8974C1.94713 17.8055 1.94706 17.7137 1.947 17.6218C1.94641 16.7618 1.94652 15.9018 1.94686 15.0418C1.94714 14.2566 1.94653 13.4714 1.94549 12.6863C1.94444 11.8783 1.94399 11.0703 1.94419 10.2623C1.9443 9.80938 1.94417 9.35646 1.94339 8.90354C1.94274 8.51795 1.94267 8.13237 1.94333 7.74678C1.94365 7.55041 1.94371 7.35405 1.94306 7.15768C1.93776 5.45686 2.17726 4.14485 3.377 2.85878C3.89409 2.37166 4.47901 1.99175 5.1467 1.75145C5.18254 1.73847 5.21839 1.7255 5.25532 1.71213C5.80959 1.52555 6.37206 1.48398 6.95311 1.48592Z" fill="#1D77FE"/>
<path d="M6.20312 10.1958C7.54823 10.1958 8.89334 10.1958 10.2792 10.1958C10.2792 12.7246 10.2792 15.2534 10.2792 17.8588C8.9341 17.8588 7.58899 17.8588 6.20312 17.8588C6.20312 15.33 6.20312 12.8012 6.20312 10.1958Z" fill="white"/>
<path d="M10.3335 17.8589C12.8623 17.8589 15.3911 17.8589 17.9965 17.8589C17.9965 19.204 17.9965 20.5491 17.9965 21.935C15.934 21.935 13.8715 21.935 11.7465 21.935C11.6569 21.6839 11.5672 21.4328 11.4748 21.1741C11.422 21.0313 11.3689 20.8886 11.3152 20.7461C11.3017 20.7102 11.2882 20.6743 11.2743 20.6373C11.2059 20.4554 11.137 20.2737 11.067 20.0925C10.8981 19.6525 10.7468 19.2099 10.6102 18.7587C10.5509 18.5646 10.4884 18.3774 10.4055 18.192C10.3335 18.0219 10.3335 18.0219 10.3335 17.8589Z" fill="#FEFEFF"/>
<path d="M12.1813 6.06543C14.1003 6.06543 16.0194 6.06543 17.9965 6.06543C17.9965 7.41054 17.9965 8.75565 17.9965 10.1415C15.4677 10.1415 12.9389 10.1415 10.3335 10.1415C10.412 9.90614 10.4933 9.69069 10.594 9.46557C10.6086 9.43285 10.6232 9.40013 10.6383 9.36642C10.6692 9.29733 10.7003 9.22827 10.7314 9.15925C10.7776 9.05645 10.8235 8.95351 10.8694 8.85054C11.0516 8.44364 11.244 8.04332 11.4451 7.64542C11.5425 7.45201 11.6352 7.25717 11.7262 7.06067C11.7549 6.99881 11.7836 6.93695 11.8132 6.87322C11.9366 6.60429 12.0589 6.33481 12.1813 6.06543Z" fill="#FEFEFF"/>
<path d="M20.8225 10.522C20.9729 10.6724 21.0146 10.851 21.0807 11.0485C21.2535 11.5519 21.4482 12.0439 21.6522 12.5356C21.672 12.584 21.6919 12.6324 21.7124 12.6823C21.7297 12.7235 21.7469 12.7647 21.7647 12.8071C21.8008 12.9133 21.8008 12.9133 21.8008 13.0763C21.8363 13.0853 21.8719 13.0943 21.9086 13.1035C22.2996 13.2056 22.6738 13.3354 23.0508 13.4805C23.1606 13.5224 23.2704 13.5642 23.3802 13.606C23.4599 13.6366 23.4599 13.6366 23.5412 13.6678C23.7552 13.7481 23.9712 13.8227 24.1876 13.8964C24.3008 13.9459 24.3008 13.9459 24.3551 14.0546C23.101 14.5274 23.101 14.5274 22.6194 14.7C22.5619 14.7209 22.5045 14.7419 22.4453 14.7634C22.2899 14.8155 22.2899 14.8155 22.1413 14.8488C22.0105 14.8794 21.9152 14.9087 21.8008 14.9785C21.7526 15.0749 21.7526 15.0749 21.7286 15.1952C21.6564 15.4653 21.5677 15.7253 21.4711 15.9873C21.4558 16.0288 21.4405 16.0703 21.4247 16.113C21.3931 16.1986 21.3613 16.2842 21.3295 16.3697C21.2807 16.5013 21.2323 16.6331 21.1839 16.765C21.1529 16.8488 21.1218 16.9327 21.0906 17.0165C21.0691 17.0756 21.0691 17.0756 21.047 17.1358C20.9436 17.4117 20.9436 17.4117 20.8225 17.5328C20.2874 16.1561 20.2874 16.1561 20.0854 15.5831C20.0724 15.5464 20.0595 15.5097 20.0461 15.4719C19.9545 15.2088 19.9545 15.2088 19.9379 15.0698C19.9039 14.9619 19.9039 14.9619 19.7597 14.9201C19.6671 14.8952 19.6671 14.8952 19.5725 14.8698C19.502 14.8463 19.4316 14.8221 19.3615 14.7974C19.3242 14.7844 19.2869 14.7715 19.2485 14.7581C18.8776 14.6283 18.5137 14.4903 18.1524 14.3354C17.8878 14.2278 17.6164 14.141 17.3442 14.0546C17.3986 13.9459 17.3986 13.9459 17.5682 13.883C17.6463 13.8584 17.7245 13.8341 17.8028 13.81C18.318 13.646 18.8201 13.4522 19.3226 13.2531C19.3809 13.2302 19.4392 13.2073 19.4993 13.1837C19.5514 13.163 19.6035 13.1424 19.6572 13.121C19.7899 13.0763 19.7899 13.0763 19.9529 13.0763C19.958 12.9889 19.958 12.9889 19.9631 12.8997C20.004 12.5731 20.1464 12.2876 20.279 11.9894C20.4535 11.5895 20.6023 11.1919 20.7248 10.7729C20.7682 10.6307 20.7682 10.6307 20.8225 10.522Z" fill="#E8F1FF"/>
<path d="M14.3957 10.1106C14.4401 10.1109 14.4844 10.1113 14.5301 10.1116C15.6855 10.1207 16.8409 10.1305 17.9963 10.1411C17.9963 10.1591 17.9963 10.177 17.9963 10.1955C15.4675 10.1955 12.9387 10.1955 10.3332 10.1955C10.3332 12.7602 10.3332 15.3248 10.3332 17.9672C10.3153 17.9672 10.2974 17.9672 10.2789 17.9672C10.2789 15.4025 10.2789 12.8379 10.2789 10.1955C8.93376 10.1955 7.58865 10.1955 6.20279 10.1955C6.20279 12.7243 6.20279 15.2531 6.20279 17.8585C6.18485 17.8585 6.16692 17.8585 6.14844 17.8585C6.14844 15.3118 6.14844 12.765 6.14844 10.1411C8.89875 10.088 11.6453 10.0889 14.3957 10.1106Z" fill="#9F83FF"/>
</g>
<defs>
<clipPath id="clip0_6742_66314">
<rect width="25" height="25" fill="white" transform="translate(1.96387 1.5)"/>
</clipPath>
</defs>
</svg>
