<svg width="28" height="28" viewBox="0 0 28 28" fill="none" xmlns="http://www.w3.org/2000/svg">
<g clip-path="url(#clip0_8301_184252)">
<path d="M6.49071 1.48592C6.55768 1.48571 6.62464 1.4855 6.69364 1.48529C6.87763 1.48483 7.0616 1.48485 7.24559 1.48508C7.44476 1.48522 7.64393 1.48473 7.8431 1.48432C8.23259 1.48363 8.62208 1.48353 9.01157 1.48366C9.32842 1.48375 9.64527 1.48366 9.96212 1.48343C10.0073 1.48339 10.0525 1.48336 10.0991 1.48333C10.191 1.48326 10.2829 1.4832 10.3747 1.48313C11.2351 1.48254 12.0955 1.48266 12.9558 1.48299C13.7414 1.48327 14.5269 1.48266 15.3124 1.48162C16.1207 1.48057 16.9289 1.48012 17.7371 1.48033C18.1902 1.48043 18.6433 1.4803 19.0964 1.47953C19.4822 1.47888 19.868 1.47881 20.2538 1.47946C20.4503 1.47978 20.6468 1.47985 20.8432 1.47919C22.5651 1.47383 23.9219 1.73221 25.2074 2.96069C26.0704 3.85651 26.5194 5.04658 26.5161 6.27529C26.5163 6.34394 26.5166 6.41259 26.5168 6.48332C26.5175 6.6725 26.5175 6.86169 26.5174 7.05087C26.5173 7.25546 26.5179 7.46004 26.5184 7.66462C26.5194 8.06495 26.5197 8.46528 26.5197 8.86561C26.5198 9.19127 26.52 9.51694 26.5203 9.8426C26.5213 10.7673 26.5218 11.692 26.5217 12.6167C26.5217 12.6665 26.5217 12.7163 26.5217 12.7676C26.5217 12.8174 26.5217 12.8673 26.5217 12.9186C26.5216 13.726 26.5227 14.5333 26.5242 15.3407C26.5258 16.171 26.5265 17.0013 26.5264 17.8317C26.5264 18.2973 26.5267 18.7629 26.5279 19.2285C26.5289 19.6251 26.5291 20.0216 26.5283 20.4181C26.528 20.6201 26.528 20.8221 26.5289 21.0241C26.5344 22.2563 26.4621 23.4609 25.6863 24.4892C25.6505 24.4892 25.6146 24.4892 25.5776 24.4892C25.5625 24.5209 25.5474 24.5526 25.5318 24.5852C25.3142 25.0057 24.9895 25.3123 24.5994 25.5762C24.5635 25.5762 24.5276 25.5762 24.4907 25.5762C24.4727 25.63 24.4548 25.6838 24.4363 25.7392C24.3035 25.8179 24.1743 25.8868 24.0355 25.9532C23.9961 25.9724 23.9566 25.9916 23.916 26.0114C23.1887 26.3602 22.5337 26.5168 21.7264 26.5146C21.6577 26.5149 21.5891 26.5151 21.5183 26.5154C21.3291 26.516 21.14 26.516 20.9508 26.5159C20.7462 26.5159 20.5416 26.5165 20.337 26.517C19.9367 26.5179 19.5364 26.5182 19.136 26.5182C18.8104 26.5183 18.4847 26.5185 18.159 26.5189C17.2343 26.5198 16.3096 26.5203 15.3849 26.5202C15.3103 26.5202 15.3103 26.5202 15.2341 26.5202C15.1593 26.5202 15.1593 26.5202 15.083 26.5202C14.2757 26.5202 13.4683 26.5212 12.661 26.5227C11.8306 26.5243 11.0003 26.5251 10.17 26.525C9.70435 26.5249 9.23874 26.5252 8.77312 26.5264C8.37658 26.5274 7.98006 26.5276 7.58352 26.5269C7.38154 26.5265 7.17957 26.5265 6.97759 26.5275C5.09682 26.5358 5.09682 26.5358 4.24952 26.0721C4.21346 26.0531 4.17741 26.0342 4.14026 26.0147C3.49237 25.6688 2.93826 25.23 2.47981 24.6523C2.44549 24.6123 2.41116 24.5724 2.37579 24.5313C2.24095 24.352 2.1434 24.1671 2.04503 23.9661C2.01659 23.9082 2.01659 23.9082 1.98758 23.8492C1.61523 23.0802 1.48452 22.3586 1.48739 21.5044C1.48718 21.4374 1.48697 21.3704 1.48676 21.3013C1.4863 21.1175 1.48631 20.9336 1.48655 20.7497C1.48668 20.5506 1.48619 20.3515 1.48578 20.1523C1.48509 19.763 1.48499 19.3737 1.48512 18.9844C1.48522 18.6678 1.48512 18.3511 1.48489 18.0344C1.48486 17.9892 1.48483 17.944 1.48479 17.8974C1.48473 17.8055 1.48466 17.7137 1.4846 17.6218C1.48401 16.7618 1.48412 15.9018 1.48445 15.0418C1.48473 14.2566 1.48412 13.4714 1.48309 12.6863C1.48203 11.8783 1.48159 11.0703 1.48179 10.2623C1.4819 9.80938 1.48176 9.35646 1.48099 8.90354C1.48034 8.51795 1.48027 8.13237 1.48093 7.74678C1.48124 7.55041 1.48131 7.35405 1.48066 7.15768C1.47535 5.45686 1.71485 4.14485 2.9146 2.85878C3.43169 2.37166 4.0166 1.99175 4.6843 1.75145C4.72014 1.73847 4.75598 1.7255 4.79291 1.71213C5.34719 1.52555 5.90966 1.48398 6.49071 1.48592Z" fill="#94C518"/>
<path d="M5.73828 10.1958C7.08339 10.1958 8.4285 10.1958 9.81437 10.1958C9.81437 12.7246 9.81437 15.2534 9.81437 17.8588C8.46926 17.8588 7.12415 17.8588 5.73828 17.8588C5.73828 15.33 5.73828 12.8012 5.73828 10.1958Z" fill="white"/>
<path d="M9.87109 17.8589C12.3999 17.8589 14.9287 17.8589 17.5341 17.8589C17.5341 19.204 17.5341 20.5491 17.5341 21.935C15.4716 21.935 13.4091 21.935 11.2841 21.935C11.1945 21.6839 11.1048 21.4328 11.0124 21.1741C10.9596 21.0313 10.9065 20.8886 10.8528 20.7461C10.8393 20.7102 10.8258 20.6743 10.8119 20.6373C10.7435 20.4554 10.6745 20.2737 10.6046 20.0925C10.4357 19.6525 10.2844 19.2099 10.1478 18.7587C10.0885 18.5646 10.026 18.3774 9.94306 18.192C9.87109 18.0219 9.87109 18.0219 9.87109 17.8589Z" fill="#FEFEFF"/>
<path d="M11.7189 6.06543C13.6379 6.06543 15.557 6.06543 17.5341 6.06543C17.5341 7.41054 17.5341 8.75565 17.5341 10.1415C15.0053 10.1415 12.4765 10.1415 9.87109 10.1415C9.94955 9.90614 10.0309 9.69069 10.1316 9.46557C10.1462 9.43285 10.1608 9.40013 10.1759 9.36642C10.2068 9.29733 10.2379 9.22827 10.269 9.15925C10.3152 9.05645 10.3611 8.95351 10.407 8.85054C10.5892 8.44364 10.7816 8.04332 10.9827 7.64542C11.0801 7.45201 11.1728 7.25717 11.2638 7.06067C11.2925 6.99881 11.3212 6.93695 11.3508 6.87322C11.4742 6.60429 11.5965 6.33481 11.7189 6.06543Z" fill="#FEFEFF"/>
<path d="M20.3572 10.522C20.5076 10.6724 20.5493 10.851 20.6153 11.0485C20.7882 11.5519 20.9828 12.0439 21.1868 12.5356C21.2067 12.584 21.2266 12.6324 21.2471 12.6823C21.2643 12.7235 21.2816 12.7647 21.2993 12.8071C21.3354 12.9133 21.3354 12.9133 21.3354 13.0763C21.371 13.0853 21.4066 13.0943 21.4433 13.1035C21.8343 13.2056 22.2085 13.3354 22.5854 13.4805C22.6952 13.5224 22.8051 13.5642 22.9149 13.606C22.9946 13.6366 22.9946 13.6366 23.0758 13.6678C23.2899 13.7481 23.5058 13.8227 23.7223 13.8964C23.8354 13.9459 23.8354 13.9459 23.8898 14.0546C22.6357 14.5274 22.6357 14.5274 22.154 14.7C22.0966 14.7209 22.0391 14.7419 21.98 14.7634C21.8246 14.8155 21.8246 14.8155 21.676 14.8488C21.5452 14.8794 21.4499 14.9087 21.3354 14.9785C21.2872 15.0749 21.2872 15.0749 21.2632 15.1952C21.191 15.4653 21.1024 15.7253 21.0057 15.9873C20.9904 16.0288 20.9752 16.0703 20.9594 16.113C20.9278 16.1986 20.896 16.2842 20.8642 16.3697C20.8153 16.5013 20.767 16.6331 20.7186 16.765C20.6875 16.8488 20.6564 16.9327 20.6253 17.0165C20.6037 17.0756 20.6037 17.0756 20.5817 17.1358C20.4783 17.4117 20.4783 17.4117 20.3572 17.5328C19.8221 16.1561 19.8221 16.1561 19.6201 15.5831C19.6071 15.5464 19.5941 15.5097 19.5808 15.4719C19.4891 15.2088 19.4891 15.2088 19.4725 15.0698C19.4386 14.9619 19.4386 14.9619 19.2944 14.9201C19.2017 14.8952 19.2017 14.8952 19.1072 14.8698C19.0366 14.8463 18.9663 14.8221 18.8961 14.7974C18.8589 14.7844 18.8216 14.7715 18.7831 14.7581C18.4123 14.6283 18.0484 14.4903 17.6871 14.3354C17.4225 14.2278 17.1511 14.141 16.8789 14.0546C16.9333 13.9459 16.9333 13.9459 17.1029 13.883C17.181 13.8584 17.2592 13.8341 17.3375 13.81C17.8527 13.646 18.3547 13.4522 18.8573 13.2531C18.9156 13.2302 18.9739 13.2073 19.0339 13.1837C19.086 13.163 19.1382 13.1424 19.1919 13.121C19.3246 13.0763 19.3246 13.0763 19.4876 13.0763C19.4926 12.9889 19.4926 12.9889 19.4978 12.8997C19.5386 12.5731 19.6811 12.2876 19.8137 11.9894C19.9882 11.5895 20.1369 11.1919 20.2595 10.7729C20.3028 10.6307 20.3028 10.6307 20.3572 10.522Z" fill="#E8F1FF"/>
<path d="M13.9309 10.1106C13.9752 10.1109 14.0196 10.1113 14.0653 10.1116C15.2207 10.1207 16.376 10.1305 17.5314 10.1411C17.5314 10.1591 17.5314 10.177 17.5314 10.1955C15.0026 10.1955 12.4738 10.1955 9.86838 10.1955C9.86838 12.7602 9.86838 15.3248 9.86838 17.9672C9.85044 17.9672 9.83251 17.9672 9.81403 17.9672C9.81403 15.4025 9.81403 12.8379 9.81403 10.1955C8.46892 10.1955 7.12381 10.1955 5.73794 10.1955C5.73794 12.7243 5.73794 15.2531 5.73794 17.8585C5.72001 17.8585 5.70207 17.8585 5.68359 17.8585C5.68359 15.3118 5.68359 12.765 5.68359 10.1411C8.4339 10.088 11.1805 10.0889 13.9309 10.1106Z" fill="#9F83FF"/>
</g>
<defs>
<clipPath id="clip0_8301_184252">
<rect width="25" height="25" fill="white" transform="translate(1.5 1.5)"/>
</clipPath>
</defs>
</svg>
