<svg width="31" height="30" viewBox="0 0 31 30" fill="none" xmlns="http://www.w3.org/2000/svg">
<mask id="mask0_6160_52543" style="mask-type:luminance" maskUnits="userSpaceOnUse" x="0" y="0" width="31" height="30">
<path d="M27.6914 0H3.69141C2.03455 0 0.691406 1.34315 0.691406 3V27C0.691406 28.6569 2.03455 30 3.69141 30H27.6914C29.3483 30 30.6914 28.6569 30.6914 27V3C30.6914 1.34315 29.3483 0 27.6914 0Z" fill="white"/>
</mask>
<g mask="url(#mask0_6160_52543)">
<path d="M12.7852 12.7265L18.0645 15.0878L23.3906 10.5117C23.6636 9.19005 23.4623 7.81645 22.8208 6.62392C22.1793 5.43139 21.1371 4.49337 19.871 3.96901C18.605 3.44466 17.1931 3.36626 15.8748 3.74712C14.5566 4.12797 13.4132 4.94463 12.6387 6.05854L11.7539 10.5644L12.7852 12.7265Z" fill="#68A4FE"/>
<path d="M7.31836 18.2109C7.24022 18.5949 7.20096 18.9854 7.20117 19.377C7.20202 20.6278 7.61155 21.8454 8.36973 22.8515C9.12791 23.8575 10.1949 24.599 11.4142 24.9672C12.6335 25.3354 13.9411 25.311 15.1453 24.8976C16.3494 24.4842 17.3869 23.7035 18.1055 22.6699L18.9844 18.1758L17.8125 15.9785L12.5098 13.6113L7.31836 18.2109Z" fill="#1D77FE"/>
<path d="M7.28893 9.25214L10.9042 10.09L11.6952 6.05293C11.2024 5.68911 10.6026 5.49121 9.98556 5.48879C9.36846 5.48637 8.76713 5.67957 8.27138 6.03951C7.77563 6.39946 7.41207 6.90684 7.23499 7.48588C7.05792 8.06491 7.07684 8.68451 7.28893 9.25214Z" fill="#68A4FE"/>
<path d="M6.97277 10.0957C6.19111 10.3491 5.50851 10.8335 5.01853 11.4825C4.52856 12.1314 4.25521 12.9131 4.23596 13.7205C4.2167 14.5278 4.45249 15.3212 4.91099 15.9919C5.3695 16.6626 6.02827 17.1778 6.79699 17.4668L11.8712 12.9668L10.9396 11.0156L6.97277 10.0957Z" fill="#8EBBFF"/>
<path d="M19.0371 22.6699C19.5284 23.0339 20.1265 23.2321 20.742 23.2351C21.3575 23.238 21.9575 23.0456 22.4525 22.6864C22.9474 22.3272 23.3107 21.8206 23.4883 21.2421C23.6658 20.6636 23.648 20.0443 23.4375 19.4766L19.8223 18.6445L19.0371 22.6699Z" fill="#134FA9"/>
<path d="M19.7695 17.7187L23.748 18.6328C24.5424 18.3707 25.2336 17.8719 25.7252 17.206C26.2168 16.54 26.4842 15.7402 26.4902 14.918C26.4894 14.1254 26.2429 13.3519 25.7835 12.7C25.3241 12.048 24.6735 11.5485 23.918 11.2676L18.7148 15.7441L19.7695 17.7187Z" fill="#438EFE"/>
</g>
</svg>
