<svg width="25" height="24" viewBox="0 0 25 24" fill="none" xmlns="http://www.w3.org/2000/svg">
<rect x="0.268066" width="24" height="24" rx="3" fill="white" fill-opacity="0.01" style="mix-blend-mode:multiply"/>
<path d="M15.268 17.25H9.16304C9.08877 16.987 8.98035 16.7348 8.84054 16.5L16.768 8.57251C17.2195 8.84955 17.7383 8.99742 18.268 9.00001C18.8295 9.00183 19.3803 8.84603 19.8576 8.55032C20.335 8.25461 20.7198 7.83087 20.9682 7.32731C21.2166 6.82374 21.3187 6.26056 21.2629 5.70182C21.2071 5.14309 20.9956 4.61124 20.6525 4.16676C20.3093 3.72229 19.8483 3.38304 19.3219 3.1876C18.7955 2.99216 18.2248 2.94838 17.6748 3.06125C17.1247 3.17411 16.6174 3.43908 16.2105 3.82602C15.8036 4.21295 15.5134 4.70632 15.373 5.25001H9.16304C8.98049 4.54301 8.54637 3.92687 7.94203 3.51706C7.3377 3.10725 6.60465 2.93191 5.88029 3.02392C5.15593 3.11592 4.48999 3.46895 4.0073 4.01683C3.5246 4.56471 3.2583 5.26983 3.2583 6.00001C3.2583 6.73019 3.5246 7.4353 4.0073 7.98318C4.48999 8.53106 5.15593 8.88409 5.88029 8.9761C6.60465 9.0681 7.3377 8.89277 7.94203 8.48296C8.54637 8.07315 8.98049 7.457 9.16304 6.75001H15.373C15.4473 7.01302 15.5557 7.26517 15.6955 7.50001L7.76804 15.4275C7.31656 15.1505 6.79773 15.0026 6.26804 15C5.70653 14.9982 5.15578 15.154 4.67843 15.4497C4.20109 15.7454 3.81632 16.1691 3.56789 16.6727C3.31946 17.1763 3.21735 17.7395 3.27316 18.2982C3.32898 18.8569 3.54048 19.3888 3.88361 19.8333C4.22675 20.2777 4.68774 20.617 5.21414 20.8124C5.74055 21.0079 6.31124 21.0516 6.86129 20.9388C7.41134 20.8259 7.91868 20.5609 8.3256 20.174C8.73251 19.7871 9.02266 19.2937 9.16304 18.75H15.268V21H21.268V15H15.268V17.25ZM6.26804 7.50001C5.97137 7.50001 5.68136 7.41203 5.43468 7.24721C5.18801 7.08239 4.99575 6.84812 4.88222 6.57403C4.76869 6.29994 4.73898 5.99834 4.79686 5.70737C4.85474 5.4164 4.9976 5.14913 5.20738 4.93935C5.41716 4.72957 5.68443 4.58671 5.9754 4.52883C6.26637 4.47095 6.56797 4.50066 6.84206 4.61419C7.11615 4.72772 7.35042 4.91998 7.51524 5.16665C7.68006 5.41333 7.76804 5.70334 7.76804 6.00001C7.76804 6.39783 7.61 6.77936 7.3287 7.06067C7.04739 7.34197 6.66586 7.50001 6.26804 7.50001ZM18.268 4.50001C18.5647 4.50001 18.8547 4.58798 19.1014 4.7528C19.3481 4.91762 19.5403 5.15189 19.6539 5.42598C19.7674 5.70007 19.7971 6.00167 19.7392 6.29264C19.6813 6.58361 19.5385 6.85089 19.3287 7.06067C19.1189 7.27045 18.8516 7.41331 18.5607 7.47119C18.2697 7.52906 17.9681 7.49936 17.694 7.38583C17.4199 7.2723 17.1857 7.08004 17.0208 6.83336C16.856 6.58669 16.768 6.29668 16.768 6.00001C16.768 5.60218 16.9261 5.22065 17.2074 4.93935C17.4887 4.65804 17.8702 4.50001 18.268 4.50001ZM6.26804 19.5C5.97137 19.5 5.68136 19.412 5.43468 19.2472C5.18801 19.0824 4.99575 18.8481 4.88222 18.574C4.76869 18.2999 4.73898 17.9983 4.79686 17.7074C4.85474 17.4164 4.9976 17.1491 5.20738 16.9393C5.41716 16.7296 5.68443 16.5867 5.9754 16.5288C6.26637 16.471 6.56797 16.5007 6.84206 16.6142C7.11615 16.7277 7.35042 16.92 7.51524 17.1667C7.68006 17.4133 7.76804 17.7033 7.76804 18C7.76804 18.3978 7.61 18.7794 7.3287 19.0607C7.04739 19.342 6.66586 19.5 6.26804 19.5ZM16.768 16.5H19.768V19.5H16.768V16.5Z" fill="#1D77FE"/>
</svg>
