<svg width="29" height="28" viewBox="0 0 29 28" fill="none" xmlns="http://www.w3.org/2000/svg">
<g clip-path="url(#clip0_6160_52560)">
<g style="mix-blend-mode:multiply">
<path d="M25.6914 0H3.69141C2.03455 0 0.691406 1.34315 0.691406 3V25C0.691406 26.6569 2.03455 28 3.69141 28H25.6914C27.3483 28 28.6914 26.6569 28.6914 25V3C28.6914 1.34315 27.3483 0 25.6914 0Z" fill="white" fill-opacity="0.01"/>
</g>
<path d="M26.9414 1.75H23.4414V5.25H26.9414V1.75Z" fill="#1D77FE"/>
<path d="M26.9414 7H23.4414V10.5H26.9414V7Z" fill="#1D77FE"/>
<path d="M21.6914 1.75H18.1914V5.25H21.6914V1.75Z" fill="#1D77FE"/>
<path d="M21.6914 7H18.1914V10.5H21.6914V7Z" fill="#1D77FE"/>
<path d="M25.1914 14V19.25H4.19141V5.25H14.6914V3.5H4.19141C3.72728 3.5 3.28216 3.68437 2.95397 4.01256C2.62578 4.34075 2.44141 4.78587 2.44141 5.25V19.25C2.44141 19.7141 2.62578 20.1592 2.95397 20.4874C3.28216 20.8156 3.72728 21 4.19141 21H11.1914V24.5H7.69141V26.25H21.6914V24.5H18.1914V21H25.1914C25.6555 21 26.1007 20.8156 26.4288 20.4874C26.757 20.1592 26.9414 19.7141 26.9414 19.25V14H25.1914ZM16.4414 24.5H12.9414V21H16.4414V24.5Z" fill="#1D77FE"/>
</g>
<defs>
<clipPath id="clip0_6160_52560">
<rect width="29" height="28" fill="white"/>
</clipPath>
</defs>
</svg>
