<svg width="29" height="30" viewBox="0 0 29 30" fill="none" xmlns="http://www.w3.org/2000/svg">
<mask id="mask0_8301_184374" style="mask-type:luminance" maskUnits="userSpaceOnUse" x="0" y="0" width="29" height="30">
<path d="M25.6914 0.621582H3.69141C2.03455 0.621582 0.691406 1.96473 0.691406 3.62158V26.3784C0.691406 28.0352 2.03455 29.3784 3.69141 29.3784H25.6914C27.3483 29.3784 28.6914 28.0352 28.6914 26.3784V3.62158C28.6914 1.96473 27.3483 0.621582 25.6914 0.621582Z" fill="white"/>
</mask>
<g mask="url(#mask0_8301_184374)">
<path d="M27.9751 13.3217C27.9273 12.8411 27.8475 12.2896 27.6879 11.675C27.5284 11.0684 27.2891 10.3987 26.9381 9.70539C26.5871 9.01208 26.1324 8.29513 25.5421 7.59394C25.3107 7.31819 25.0555 7.05032 24.7842 6.79033C25.1911 5.19098 24.2896 3.80435 24.2896 3.80435C22.7341 3.70981 21.7449 4.28494 21.378 4.54493C21.3141 4.5213 21.2583 4.48978 21.1945 4.46615C20.9312 4.36373 20.66 4.26131 20.3728 4.17464C20.0936 4.08798 19.8065 4.00919 19.5113 3.93828C19.2161 3.86738 18.921 3.81223 18.6179 3.76496C18.562 3.75708 18.5141 3.7492 18.4583 3.74132C17.7802 1.59835 15.8338 0.700195 15.8338 0.700195C13.656 2.06319 13.2492 3.9698 13.2492 3.9698C13.2492 3.9698 13.2412 4.00919 13.2253 4.0801C13.1056 4.11161 12.9859 4.15101 12.8663 4.18252C12.6988 4.22979 12.5312 4.29282 12.3717 4.35585C12.2042 4.41888 12.0446 4.48191 11.8771 4.55281C11.55 4.69463 11.223 4.8522 10.9039 5.02553C10.5928 5.19886 10.2896 5.38794 9.99445 5.5849C9.95456 5.56915 9.91468 5.55339 9.91468 5.55339C6.89929 4.41888 4.22693 5.78187 4.22693 5.78187C3.97964 8.94905 5.43149 10.9423 5.71867 11.3047C5.64687 11.5017 5.58305 11.6987 5.51924 11.8956C5.29588 12.6126 5.12835 13.3453 5.02465 14.1095C5.0087 14.2198 4.99274 14.3301 4.98476 14.4404C2.19274 15.8034 1.37109 18.5845 1.37109 18.5845C3.69246 21.2239 6.40471 21.3893 6.40471 21.3893L6.41268 21.3814C6.7557 21.9881 7.15456 22.5632 7.60129 23.1068C7.79274 23.3353 7.98419 23.548 8.1916 23.7608C7.34602 26.1558 8.31126 28.1412 8.31126 28.1412C10.8959 28.2358 12.5951 27.0225 12.954 26.7467C13.2093 26.8334 13.4726 26.9122 13.7358 26.9752C14.5335 27.18 15.3472 27.2982 16.1609 27.3297C16.3603 27.3376 16.5677 27.3455 16.7671 27.3376H16.8629H16.9267H17.0543L17.182 27.3297V27.3376C18.4025 29.0551 20.5404 29.2994 20.5404 29.2994C22.064 27.7158 22.1518 26.1401 22.1518 25.8013C22.1518 25.8013 22.1518 25.7934 22.1518 25.7777C22.1518 25.7461 22.1518 25.7304 22.1518 25.7304C22.1518 25.7068 22.1518 25.6831 22.1518 25.6595C22.4708 25.4389 22.774 25.2025 23.0612 24.9425C23.6674 24.3989 24.2019 23.7765 24.6486 23.1068C24.6885 23.0438 24.7284 22.9808 24.7683 22.9177C26.4914 23.0123 27.7119 21.862 27.7119 21.862C27.4247 20.0893 26.4036 19.2227 26.1882 19.0572C26.1882 19.0572 26.1802 19.0494 26.1643 19.0415C26.1483 19.0336 26.1483 19.0257 26.1483 19.0257C26.1404 19.0179 26.1244 19.01 26.1085 19.0021C26.1164 18.8918 26.1244 18.7894 26.1324 18.6791C26.1483 18.49 26.1483 18.293 26.1483 18.1039V17.9621V17.8912V17.8518C26.1483 17.8046 26.1483 17.8203 26.1483 17.8046L26.1404 17.6864L26.1324 17.5288C26.1324 17.4737 26.1244 17.4264 26.1164 17.3791C26.1085 17.3318 26.1085 17.2767 26.1005 17.2294L26.0845 17.0797L26.0606 16.93C26.0287 16.7331 25.9968 16.544 25.9489 16.347C25.7654 15.5828 25.4623 14.858 25.0714 14.2041C24.6726 13.5501 24.178 12.975 23.6116 12.4865C23.0532 11.9981 22.423 11.6041 21.7688 11.3126C21.1067 11.0211 20.4207 10.832 19.7347 10.7454C19.3916 10.6981 19.0486 10.6823 18.7056 10.6902H18.578H18.5461C18.5381 10.6902 18.4982 10.6902 18.5062 10.6902H18.4503L18.3227 10.6981C18.2748 10.6981 18.227 10.706 18.1871 10.706C18.0116 10.7217 17.8361 10.7454 17.6686 10.7769C16.9825 10.9029 16.3364 11.1472 15.77 11.4859C15.2036 11.8247 14.709 12.2423 14.3102 12.715C13.9113 13.1877 13.6002 13.7156 13.3848 14.2592C13.1694 14.8028 13.0498 15.3701 13.0179 15.9137C13.0099 16.0476 13.0099 16.1895 13.0099 16.3234C13.0099 16.3549 13.0099 16.3943 13.0099 16.4258L13.0179 16.5361C13.0258 16.5991 13.0258 16.67 13.0338 16.7331C13.0577 17.0088 13.1136 17.2767 13.1854 17.5288C13.3369 18.0409 13.5763 18.5057 13.8714 18.8997C14.1666 19.2936 14.5255 19.6166 14.9005 19.8766C15.2754 20.1287 15.6822 20.3099 16.0811 20.4281C16.48 20.5463 16.8788 20.5936 17.2537 20.5936C17.3016 20.5936 17.3495 20.5936 17.3894 20.5936C17.4133 20.5936 17.4372 20.5936 17.4612 20.5936C17.4851 20.5936 17.509 20.5936 17.533 20.5857C17.5728 20.5857 17.6127 20.5778 17.6526 20.5778C17.6606 20.5778 17.6765 20.5778 17.6845 20.5699L17.7244 20.5621C17.7483 20.5621 17.7723 20.5542 17.7962 20.5542C17.8441 20.5463 17.884 20.5384 17.9318 20.5305C17.9797 20.5227 18.0196 20.5148 18.0594 20.499C18.1472 20.4833 18.227 20.4518 18.3067 20.4281C18.4663 20.373 18.6258 20.3099 18.7614 20.239C18.905 20.1681 19.0327 20.0815 19.1603 20.0027C19.1922 19.979 19.2321 19.9554 19.264 19.9239C19.3916 19.8215 19.4156 19.6324 19.3119 19.5063C19.2241 19.396 19.0646 19.3645 18.9369 19.4354C18.905 19.4512 18.8731 19.4669 18.8412 19.4827C18.7295 19.5378 18.6179 19.5851 18.4982 19.6245C18.3785 19.6639 18.2509 19.6954 18.1233 19.719C18.0594 19.7269 17.9956 19.7348 17.9238 19.7427C17.8919 19.7427 17.86 19.7506 17.8201 19.7506C17.7882 19.7506 17.7483 19.7506 17.7244 19.7506C17.6925 19.7506 17.6606 19.7506 17.6287 19.7506C17.5888 19.7506 17.5489 19.7506 17.509 19.7427C17.509 19.7427 17.4851 19.7427 17.501 19.7427H17.4851H17.4612C17.4452 19.7427 17.4213 19.7427 17.4053 19.7348C17.3654 19.7269 17.3335 19.7269 17.2936 19.719C16.9985 19.6797 16.7033 19.593 16.4241 19.4669C16.1369 19.3409 15.8657 19.1675 15.6184 18.9469C15.3711 18.7263 15.1557 18.4664 14.9882 18.167C14.8207 17.8676 14.701 17.5367 14.6452 17.19C14.6213 17.0167 14.6053 16.8355 14.6133 16.6622C14.6133 16.6149 14.6213 16.5676 14.6213 16.5204C14.6213 16.5361 14.6213 16.5125 14.6213 16.5125V16.4967V16.4573C14.6213 16.4337 14.6292 16.4101 14.6292 16.3864C14.6372 16.2919 14.6532 16.1973 14.6691 16.1028C14.8047 15.3464 15.1877 14.6059 15.778 14.0465C15.9295 13.9047 16.0891 13.7786 16.2566 13.6604C16.4241 13.5423 16.6076 13.4398 16.799 13.3532C16.9905 13.2665 17.182 13.1956 17.3894 13.1404C17.5888 13.0853 17.7962 13.0538 18.0116 13.0301C18.1153 13.0223 18.219 13.0144 18.3307 13.0144C18.3626 13.0144 18.3785 13.0144 18.4025 13.0144H18.4902H18.5461C18.57 13.0144 18.5461 13.0144 18.554 13.0144H18.578L18.6657 13.0223C18.8971 13.038 19.1204 13.0695 19.3438 13.1247C19.7905 13.2192 20.2292 13.3847 20.6361 13.6053C21.4498 14.0544 22.1438 14.7477 22.5666 15.5828C22.782 16.0004 22.9335 16.4494 23.0053 16.9143C23.0213 17.0325 23.0372 17.1506 23.0452 17.2688L23.0532 17.3555L23.0612 17.4421C23.0612 17.4737 23.0612 17.5052 23.0612 17.5288C23.0612 17.5603 23.0612 17.5918 23.0612 17.6155V17.6943V17.7809C23.0612 17.8361 23.0532 17.9306 23.0532 17.9858C23.0452 18.1118 23.0292 18.2458 23.0133 18.3718C22.9973 18.4979 22.9734 18.6239 22.9495 18.75C22.9255 18.876 22.8936 19.0021 22.8617 19.1203C22.7979 19.3645 22.7181 19.6087 22.6224 19.853C22.431 20.3257 22.1757 20.7827 21.8726 21.2002C21.2583 22.0353 20.4207 22.7129 19.4634 23.1462C18.9848 23.3589 18.4822 23.5165 17.9637 23.5953C17.7085 23.6426 17.4452 23.6662 17.182 23.6741H17.1341H17.0942H17.0065H16.8788H16.815C16.8469 23.6741 16.807 23.6741 16.807 23.6741H16.7831C16.6395 23.6741 16.5039 23.6662 16.3603 23.6504C15.8019 23.6111 15.2515 23.5086 14.709 23.3589C14.1745 23.2093 13.656 22.9965 13.1614 22.7444C12.1802 22.2244 11.2948 21.5154 10.6087 20.6566C10.2657 20.2312 9.96254 19.7663 9.71525 19.2857C9.46795 18.8051 9.26852 18.293 9.12493 17.7809C8.98134 17.2609 8.8936 16.7331 8.85371 16.1973L8.84573 16.0949V16.0713V16.0476V16.0004V15.9137V15.8901V15.8586V15.7955V15.6695V15.6458C8.84573 15.6458 8.84573 15.6537 8.84573 15.638V15.5907C8.84573 15.5277 8.84573 15.4567 8.84573 15.3937C8.85371 15.1337 8.87764 14.858 8.90955 14.5901C8.94146 14.3222 8.98932 14.0465 9.04516 13.7786C9.101 13.5107 9.16482 13.2429 9.24459 12.975C9.39616 12.4471 9.58761 11.935 9.81097 11.4544C10.2657 10.4932 10.856 9.63449 11.566 8.94905C11.7415 8.77572 11.925 8.61815 12.1164 8.46058C12.3079 8.31089 12.5073 8.16907 12.7147 8.03514C12.9141 7.9012 13.1295 7.78302 13.3449 7.67272C13.4486 7.61757 13.5603 7.56242 13.672 7.51515C13.7278 7.49152 13.7837 7.46788 13.8395 7.44425C13.8953 7.42061 13.9512 7.39697 14.007 7.37334C14.2304 7.2788 14.4617 7.20001 14.701 7.1291C14.7569 7.11335 14.8207 7.09759 14.8765 7.07395C14.9324 7.0582 14.9962 7.04244 15.052 7.02668C15.1717 6.99517 15.2914 6.96365 15.411 6.94002C15.4669 6.92426 15.5307 6.91638 15.5945 6.90062C15.6583 6.88487 15.7141 6.87699 15.778 6.86123C15.8418 6.85335 15.8976 6.8376 15.9614 6.82972L16.0492 6.81396L16.1449 6.7982C16.2087 6.79033 16.2646 6.78245 16.3284 6.77457C16.4002 6.76669 16.464 6.75881 16.5358 6.75093C16.5916 6.74305 16.6874 6.73518 16.7432 6.7273C16.7831 6.71942 16.831 6.71942 16.8708 6.71154L16.9586 6.70366L16.9985 6.69578H17.0463C17.1181 6.6879 17.182 6.6879 17.2537 6.68003L17.3575 6.67215C17.3575 6.67215 17.3973 6.67215 17.3654 6.67215H17.3894H17.4372C17.4931 6.67215 17.5569 6.66427 17.6127 6.66427C17.8441 6.65639 18.0834 6.65639 18.3147 6.66427C18.7774 6.68002 19.2321 6.73517 19.6708 6.81396C20.5563 6.97941 21.3859 7.25516 22.1438 7.62545C22.9016 7.98787 23.5717 8.43694 24.162 8.92542C24.2019 8.95693 24.2338 8.98844 24.2737 9.01996C24.3056 9.05147 24.3455 9.08299 24.3774 9.1145C24.4492 9.17753 24.513 9.24056 24.5848 9.30359C24.6566 9.36662 24.7204 9.42964 24.7842 9.49267C24.8481 9.5557 24.9119 9.61873 24.9757 9.68964C25.223 9.94963 25.4543 10.2096 25.6617 10.4775C26.0765 11.0054 26.4116 11.5411 26.6748 12.0453C26.6908 12.0768 26.7067 12.1084 26.7227 12.1399C26.7386 12.1714 26.7546 12.2029 26.7706 12.2344C26.8025 12.2974 26.8344 12.3605 26.8583 12.4235C26.8902 12.4865 26.9141 12.5417 26.9461 12.6047C26.97 12.6677 27.0019 12.7229 27.0258 12.7859C27.1216 13.0223 27.2173 13.2507 27.2891 13.4635C27.4087 13.8101 27.4965 14.1174 27.5683 14.3853C27.5922 14.4956 27.6959 14.5665 27.8076 14.5507C27.9273 14.5428 28.015 14.4483 28.015 14.3301C28.023 14.0465 28.015 13.7077 27.9751 13.3217Z" fill="url(#paint0_linear_8301_184374)"/>
</g>
<defs>
<linearGradient id="paint0_linear_8301_184374" x1="14.6931" y1="9.24844" x2="14.6931" y2="29.0906" gradientUnits="userSpaceOnUse">
<stop stop-color="#BFF043"/>
<stop offset="1" stop-color="#94C518"/>
</linearGradient>
</defs>
</svg>
