<svg width="29" height="30" viewBox="0 0 29 30" fill="none" xmlns="http://www.w3.org/2000/svg">
<mask id="mask0_6160_52578" style="mask-type:luminance" maskUnits="userSpaceOnUse" x="0" y="0" width="29" height="30">
<path d="M25.6914 0.621582H3.69141C2.03455 0.621582 0.691406 1.96473 0.691406 3.62158V26.3784C0.691406 28.0352 2.03455 29.3784 3.69141 29.3784H25.6914C27.3483 29.3784 28.6914 28.0352 28.6914 26.3784V3.62158C28.6914 1.96473 27.3483 0.621582 25.6914 0.621582Z" fill="white"/>
</mask>
<g mask="url(#mask0_6160_52578)">
<path d="M27.9736 13.3217C27.9258 12.8411 27.846 12.2896 27.6864 11.675C27.5269 11.0684 27.2876 10.3987 26.9366 9.70539C26.5856 9.01208 26.1309 8.29513 25.5406 7.59394C25.3092 7.31819 25.054 7.05032 24.7827 6.79033C25.1896 5.19098 24.2881 3.80435 24.2881 3.80435C22.7326 3.70981 21.7434 4.28494 21.3765 4.54493C21.3126 4.5213 21.2568 4.48978 21.193 4.46615C20.9297 4.36373 20.6585 4.26131 20.3713 4.17464C20.0921 4.08798 19.805 4.00919 19.5098 3.93828C19.2146 3.86738 18.9195 3.81223 18.6164 3.76496C18.5605 3.75708 18.5126 3.7492 18.4568 3.74132C17.7787 1.59835 15.8323 0.700195 15.8323 0.700195C13.6545 2.06319 13.2477 3.9698 13.2477 3.9698C13.2477 3.9698 13.2397 4.00919 13.2238 4.0801C13.1041 4.11161 12.9844 4.15101 12.8648 4.18252C12.6973 4.22979 12.5297 4.29282 12.3702 4.35585C12.2027 4.41888 12.0431 4.48191 11.8756 4.55281C11.5485 4.69463 11.2215 4.8522 10.9024 5.02553C10.5913 5.19886 10.2881 5.38794 9.99299 5.5849C9.9531 5.56915 9.91322 5.55339 9.91322 5.55339C6.89783 4.41888 4.22547 5.78187 4.22547 5.78187C3.97818 8.94905 5.43003 10.9423 5.71721 11.3047C5.64541 11.5017 5.58159 11.6987 5.51778 11.8956C5.29442 12.6126 5.12689 13.3453 5.02319 14.1095C5.00724 14.2198 4.99128 14.3301 4.9833 14.4404C2.19128 15.8034 1.36963 18.5845 1.36963 18.5845C3.691 21.2239 6.40325 21.3893 6.40325 21.3893L6.41122 21.3814C6.75424 21.9881 7.1531 22.5632 7.59983 23.1068C7.79128 23.3353 7.98273 23.548 8.19014 23.7608C7.34456 26.1558 8.3098 28.1412 8.3098 28.1412C10.8944 28.2358 12.5936 27.0225 12.9525 26.7467C13.2078 26.8334 13.4711 26.9122 13.7343 26.9752C14.532 27.18 15.3457 27.2982 16.1594 27.3297C16.3588 27.3376 16.5662 27.3455 16.7656 27.3376H16.8614H16.9252H17.0528L17.1805 27.3297V27.3376C18.401 29.0551 20.5389 29.2994 20.5389 29.2994C22.0625 27.7158 22.1503 26.1401 22.1503 25.8013C22.1503 25.8013 22.1503 25.7934 22.1503 25.7777C22.1503 25.7461 22.1503 25.7304 22.1503 25.7304C22.1503 25.7068 22.1503 25.6831 22.1503 25.6595C22.4693 25.4389 22.7725 25.2025 23.0597 24.9425C23.6659 24.3989 24.2004 23.7765 24.6471 23.1068C24.687 23.0438 24.7269 22.9808 24.7668 22.9177C26.4899 23.0123 27.7104 21.862 27.7104 21.862C27.4232 20.0893 26.4021 19.2227 26.1867 19.0572C26.1867 19.0572 26.1787 19.0494 26.1628 19.0415C26.1468 19.0336 26.1468 19.0257 26.1468 19.0257C26.1389 19.0179 26.1229 19.01 26.107 19.0021C26.1149 18.8918 26.1229 18.7894 26.1309 18.6791C26.1468 18.49 26.1468 18.293 26.1468 18.1039V17.9621V17.8912V17.8518C26.1468 17.8046 26.1468 17.8203 26.1468 17.8046L26.1389 17.6864L26.1309 17.5288C26.1309 17.4737 26.1229 17.4264 26.1149 17.3791C26.107 17.3318 26.107 17.2767 26.099 17.2294L26.083 17.0797L26.0591 16.93C26.0272 16.7331 25.9953 16.544 25.9474 16.347C25.7639 15.5828 25.4608 14.858 25.0699 14.2041C24.6711 13.5501 24.1765 12.975 23.6101 12.4865C23.0517 11.9981 22.4215 11.6041 21.7673 11.3126C21.1052 11.0211 20.4192 10.832 19.7332 10.7454C19.3901 10.6981 19.0471 10.6823 18.7041 10.6902H18.5765H18.5446C18.5366 10.6902 18.4967 10.6902 18.5047 10.6902H18.4488L18.3212 10.6981C18.2733 10.6981 18.2255 10.706 18.1856 10.706C18.0101 10.7217 17.8346 10.7454 17.6671 10.7769C16.981 10.9029 16.3349 11.1472 15.7685 11.4859C15.2021 11.8247 14.7075 12.2423 14.3087 12.715C13.9098 13.1877 13.5987 13.7156 13.3833 14.2592C13.1679 14.8028 13.0483 15.3701 13.0164 15.9137C13.0084 16.0476 13.0084 16.1895 13.0084 16.3234C13.0084 16.3549 13.0084 16.3943 13.0084 16.4258L13.0164 16.5361C13.0243 16.5991 13.0243 16.67 13.0323 16.7331C13.0562 17.0088 13.1121 17.2767 13.1839 17.5288C13.3354 18.0409 13.5748 18.5057 13.8699 18.8997C14.1651 19.2936 14.524 19.6166 14.899 19.8766C15.2739 20.1287 15.6807 20.3099 16.0796 20.4281C16.4785 20.5463 16.8773 20.5936 17.2522 20.5936C17.3001 20.5936 17.348 20.5936 17.3879 20.5936C17.4118 20.5936 17.4357 20.5936 17.4597 20.5936C17.4836 20.5936 17.5075 20.5936 17.5315 20.5857C17.5713 20.5857 17.6112 20.5778 17.6511 20.5778C17.6591 20.5778 17.675 20.5778 17.683 20.5699L17.7229 20.5621C17.7468 20.5621 17.7708 20.5542 17.7947 20.5542C17.8426 20.5463 17.8825 20.5384 17.9303 20.5305C17.9782 20.5227 18.0181 20.5148 18.0579 20.499C18.1457 20.4833 18.2255 20.4518 18.3052 20.4281C18.4648 20.373 18.6243 20.3099 18.7599 20.239C18.9035 20.1681 19.0312 20.0815 19.1588 20.0027C19.1907 19.979 19.2306 19.9554 19.2625 19.9239C19.3901 19.8215 19.4141 19.6324 19.3104 19.5063C19.2226 19.396 19.0631 19.3645 18.9354 19.4354C18.9035 19.4512 18.8716 19.4669 18.8397 19.4827C18.728 19.5378 18.6164 19.5851 18.4967 19.6245C18.377 19.6639 18.2494 19.6954 18.1218 19.719C18.0579 19.7269 17.9941 19.7348 17.9223 19.7427C17.8904 19.7427 17.8585 19.7506 17.8186 19.7506C17.7867 19.7506 17.7468 19.7506 17.7229 19.7506C17.691 19.7506 17.6591 19.7506 17.6272 19.7506C17.5873 19.7506 17.5474 19.7506 17.5075 19.7427C17.5075 19.7427 17.4836 19.7427 17.4995 19.7427H17.4836H17.4597C17.4437 19.7427 17.4198 19.7427 17.4038 19.7348C17.3639 19.7269 17.332 19.7269 17.2921 19.719C16.997 19.6797 16.7018 19.593 16.4226 19.4669C16.1354 19.3409 15.8642 19.1675 15.6169 18.9469C15.3696 18.7263 15.1542 18.4664 14.9867 18.167C14.8192 17.8676 14.6995 17.5367 14.6437 17.19C14.6198 17.0167 14.6038 16.8355 14.6118 16.6622C14.6118 16.6149 14.6198 16.5676 14.6198 16.5204C14.6198 16.5361 14.6198 16.5125 14.6198 16.5125V16.4967V16.4573C14.6198 16.4337 14.6277 16.4101 14.6277 16.3864C14.6357 16.2919 14.6517 16.1973 14.6676 16.1028C14.8032 15.3464 15.1862 14.6059 15.7765 14.0465C15.928 13.9047 16.0876 13.7786 16.2551 13.6604C16.4226 13.5423 16.6061 13.4398 16.7975 13.3532C16.989 13.2665 17.1805 13.1956 17.3879 13.1404C17.5873 13.0853 17.7947 13.0538 18.0101 13.0301C18.1138 13.0223 18.2175 13.0144 18.3292 13.0144C18.3611 13.0144 18.377 13.0144 18.401 13.0144H18.4887H18.5446C18.5685 13.0144 18.5446 13.0144 18.5525 13.0144H18.5765L18.6642 13.0223C18.8956 13.038 19.1189 13.0695 19.3423 13.1247C19.789 13.2192 20.2277 13.3847 20.6346 13.6053C21.4483 14.0544 22.1423 14.7477 22.5651 15.5828C22.7805 16.0004 22.932 16.4494 23.0038 16.9143C23.0198 17.0325 23.0357 17.1506 23.0437 17.2688L23.0517 17.3555L23.0597 17.4421C23.0597 17.4737 23.0597 17.5052 23.0597 17.5288C23.0597 17.5603 23.0597 17.5918 23.0597 17.6155V17.6943V17.7809C23.0597 17.8361 23.0517 17.9306 23.0517 17.9858C23.0437 18.1118 23.0277 18.2458 23.0118 18.3718C22.9958 18.4979 22.9719 18.6239 22.948 18.75C22.924 18.876 22.8921 19.0021 22.8602 19.1203C22.7964 19.3645 22.7166 19.6087 22.6209 19.853C22.4295 20.3257 22.1742 20.7827 21.8711 21.2002C21.2568 22.0353 20.4192 22.7129 19.4619 23.1462C18.9833 23.3589 18.4807 23.5165 17.9622 23.5953C17.707 23.6426 17.4437 23.6662 17.1805 23.6741H17.1326H17.0927H17.005H16.8773H16.8135C16.8454 23.6741 16.8055 23.6741 16.8055 23.6741H16.7816C16.638 23.6741 16.5024 23.6662 16.3588 23.6504C15.8004 23.6111 15.25 23.5086 14.7075 23.3589C14.173 23.2093 13.6545 22.9965 13.1599 22.7444C12.1787 22.2244 11.2933 21.5154 10.6072 20.6566C10.2642 20.2312 9.96108 19.7663 9.71379 19.2857C9.46649 18.8051 9.26706 18.293 9.12347 17.7809C8.97988 17.2609 8.89214 16.7331 8.85225 16.1973L8.84427 16.0949V16.0713V16.0476V16.0004V15.9137V15.8901V15.8586V15.7955V15.6695V15.6458C8.84427 15.6458 8.84427 15.6537 8.84427 15.638V15.5907C8.84427 15.5277 8.84427 15.4567 8.84427 15.3937C8.85225 15.1337 8.87618 14.858 8.90809 14.5901C8.94 14.3222 8.98786 14.0465 9.0437 13.7786C9.09954 13.5107 9.16336 13.2429 9.24313 12.975C9.3947 12.4471 9.58615 11.935 9.80951 11.4544C10.2642 10.4932 10.8545 9.63449 11.5645 8.94905C11.74 8.77572 11.9235 8.61815 12.1149 8.46058C12.3064 8.31089 12.5058 8.16907 12.7132 8.03514C12.9126 7.9012 13.128 7.78302 13.3434 7.67272C13.4471 7.61757 13.5588 7.56242 13.6705 7.51515C13.7263 7.49152 13.7822 7.46788 13.838 7.44425C13.8938 7.42061 13.9497 7.39697 14.0055 7.37334C14.2289 7.2788 14.4602 7.20001 14.6995 7.1291C14.7554 7.11335 14.8192 7.09759 14.875 7.07395C14.9309 7.0582 14.9947 7.04244 15.0505 7.02668C15.1702 6.99517 15.2899 6.96365 15.4095 6.94002C15.4654 6.92426 15.5292 6.91638 15.593 6.90062C15.6568 6.88487 15.7126 6.87699 15.7765 6.86123C15.8403 6.85335 15.8961 6.8376 15.9599 6.82972L16.0477 6.81396L16.1434 6.7982C16.2072 6.79033 16.2631 6.78245 16.3269 6.77457C16.3987 6.76669 16.4625 6.75881 16.5343 6.75093C16.5901 6.74305 16.6859 6.73518 16.7417 6.7273C16.7816 6.71942 16.8295 6.71942 16.8693 6.71154L16.9571 6.70366L16.997 6.69578H17.0448C17.1166 6.6879 17.1805 6.6879 17.2522 6.68003L17.356 6.67215C17.356 6.67215 17.3958 6.67215 17.3639 6.67215H17.3879H17.4357C17.4916 6.67215 17.5554 6.66427 17.6112 6.66427C17.8426 6.65639 18.0819 6.65639 18.3132 6.66427C18.7759 6.68002 19.2306 6.73517 19.6693 6.81396C20.5548 6.97941 21.3844 7.25516 22.1423 7.62545C22.9001 7.98787 23.5702 8.43694 24.1605 8.92542C24.2004 8.95693 24.2323 8.98844 24.2722 9.01996C24.3041 9.05147 24.344 9.08299 24.3759 9.1145C24.4477 9.17753 24.5115 9.24056 24.5833 9.30359C24.6551 9.36662 24.7189 9.42964 24.7827 9.49267C24.8466 9.5557 24.9104 9.61873 24.9742 9.68964C25.2215 9.94963 25.4528 10.2096 25.6602 10.4775C26.075 11.0054 26.4101 11.5411 26.6733 12.0453C26.6893 12.0768 26.7052 12.1084 26.7212 12.1399C26.7371 12.1714 26.7531 12.2029 26.7691 12.2344C26.801 12.2974 26.8329 12.3605 26.8568 12.4235C26.8887 12.4865 26.9126 12.5417 26.9446 12.6047C26.9685 12.6677 27.0004 12.7229 27.0243 12.7859C27.1201 13.0223 27.2158 13.2507 27.2876 13.4635C27.4072 13.8101 27.495 14.1174 27.5668 14.3853C27.5907 14.4956 27.6944 14.5665 27.8061 14.5507C27.9258 14.5428 28.0135 14.4483 28.0135 14.3301C28.0215 14.0465 28.0135 13.7077 27.9736 13.3217Z" fill="url(#paint0_linear_6160_52578)"/>
</g>
<defs>
<linearGradient id="paint0_linear_6160_52578" x1="14.6916" y1="9.24844" x2="14.6916" y2="29.0906" gradientUnits="userSpaceOnUse">
<stop stop-color="#68A4FE"/>
<stop offset="1" stop-color="#1D77FE"/>
</linearGradient>
</defs>
</svg>
