<svg width="29" height="29" viewBox="0 0 29 29" fill="none" xmlns="http://www.w3.org/2000/svg">
<g clip-path="url(#clip0_8301_184317)">
<mask id="mask0_8301_184317" style="mask-type:luminance" maskUnits="userSpaceOnUse" x="0" y="0" width="29" height="29">
<path d="M28.2344 0.408691H0.234375V28.4087H28.2344V0.408691Z" fill="white"/>
</mask>
<g mask="url(#mask0_8301_184317)">
<path d="M17.9288 19.973L14.3644 12.963C14.0079 12.369 13.2951 12.1313 12.701 12.369C12.1069 12.7254 11.8693 13.4383 12.1069 14.0323L13.6515 16.8838L11.0376 19.4977C10.8095 19.7383 10.6823 20.0573 10.6823 20.3888C10.6823 20.7204 10.8095 21.0393 11.0376 21.2799C11.2624 21.4958 11.558 21.6225 11.8693 21.6364C12.2257 21.6364 12.4634 21.5176 12.701 21.2799L14.8396 19.1413L15.6713 20.9235C15.9089 21.3988 16.3842 21.6364 16.7406 21.6364C16.9783 21.6364 17.0971 21.6364 17.3347 21.5176C18.0476 21.3988 18.2852 20.6859 17.9288 19.973ZM22.6813 0.606507C21.9684 1.08176 23.1565 5.12139 20.305 7.61646C18.5228 6.42833 16.3842 5.71544 14.1267 5.71544C11.8693 5.71544 9.73068 6.42832 7.94849 7.49764C5.09698 5.12138 6.28511 0.962939 5.57223 0.487687C4.3841 -0.225189 2.24548 4.05209 2.48311 6.66597C2.60192 8.09172 2.95835 10.2303 4.02766 11.8937C3.19597 13.4383 2.83953 15.1017 2.83953 17.0027C2.83953 23.2997 7.94849 28.4087 14.2456 28.4087C20.5426 28.4087 25.6516 23.2997 25.6516 17.0027C25.6516 15.2205 25.1763 13.4383 24.4635 11.8937C25.5328 10.2303 25.8892 8.09172 26.008 6.66597C26.008 4.05209 23.8694 -0.106369 22.6813 0.606507ZM14.1267 25.9136C9.25542 25.9136 5.33461 21.9928 5.33461 17.0027C5.33461 12.1313 9.25542 8.21052 14.1267 8.21052C18.9981 8.21052 23.0377 12.1313 23.0377 17.0027C23.0377 21.9928 18.9981 25.9136 14.1267 25.9136Z" fill="#94C518"/>
</g>
</g>
<defs>
<clipPath id="clip0_8301_184317">
<rect width="29" height="29" fill="white"/>
</clipPath>
</defs>
</svg>
