<svg width="29" height="29" viewBox="0 0 29 29" fill="none" xmlns="http://www.w3.org/2000/svg">
<mask id="mask0_6160_52584" style="mask-type:luminance" maskUnits="userSpaceOnUse" x="0" y="0" width="29" height="29">
<path d="M28.2324 0.408691H0.232422V28.4087H28.2324V0.408691Z" fill="white"/>
</mask>
<g mask="url(#mask0_6160_52584)">
<path d="M17.9249 19.973L14.3605 12.963C14.004 12.369 13.2912 12.1313 12.6971 12.369C12.103 12.7254 11.8654 13.4383 12.103 14.0323L13.6476 16.8838L11.0337 19.4977C10.8056 19.7383 10.6784 20.0573 10.6784 20.3888C10.6784 20.7204 10.8056 21.0393 11.0337 21.2799C11.2585 21.4958 11.5541 21.6225 11.8654 21.6364C12.2218 21.6364 12.4595 21.5176 12.6971 21.2799L14.8357 19.1413L15.6674 20.9235C15.905 21.3988 16.3803 21.6364 16.7367 21.6364C16.9744 21.6364 17.0932 21.6364 17.3308 21.5176C18.0437 21.3988 18.2813 20.6859 17.9249 19.973ZM22.6774 0.606507C21.9645 1.08176 23.1526 5.12139 20.3011 7.61646C18.5189 6.42833 16.3803 5.71544 14.1228 5.71544C11.8654 5.71544 9.72677 6.42832 7.94458 7.49764C5.09307 5.12138 6.2812 0.962939 5.56832 0.487687C4.38019 -0.225189 2.24157 4.05209 2.4792 6.66597C2.59801 8.09172 2.95444 10.2303 4.02375 11.8937C3.19206 13.4383 2.83562 15.1017 2.83562 17.0027C2.83562 23.2997 7.94458 28.4087 14.2417 28.4087C20.5387 28.4087 25.6477 23.2997 25.6477 17.0027C25.6477 15.2205 25.1724 13.4383 24.4596 11.8937C25.5289 10.2303 25.8853 8.09172 26.0041 6.66597C26.0041 4.05209 23.8655 -0.106369 22.6774 0.606507ZM14.1228 25.9136C9.25151 25.9136 5.3307 21.9928 5.3307 17.0027C5.3307 12.1313 9.25151 8.21052 14.1228 8.21052C18.9942 8.21052 23.0338 12.1313 23.0338 17.0027C23.0338 21.9928 18.9942 25.9136 14.1228 25.9136Z" fill="#1D77FE"/>
</g>
</svg>
