<svg width="24" height="24" viewBox="0 0 24 24" fill="none" xmlns="http://www.w3.org/2000/svg">
<g clip-path="url(#clip0_6160_52594)">
<g style="mix-blend-mode:multiply">
<path d="M24 0H0V24H24V0Z" fill="white" fill-opacity="0.01"/>
</g>
<path d="M12.4592 2.41031C12.3261 2.30642 12.1621 2.25 11.9932 2.25C11.8243 2.25 11.6603 2.30642 11.5272 2.41031L0.75 10.8145L1.68203 11.9933L3 10.9656V20.25C3.00081 20.6475 3.15911 21.0286 3.44024 21.3097C3.72137 21.5909 4.10242 21.7491 4.5 21.75H19.5C19.8976 21.7492 20.2787 21.591 20.5599 21.3098C20.841 21.0287 20.9993 20.6476 21 20.25V10.9725L22.318 12L23.25 10.8211L12.4592 2.41031ZM13.5 20.25H10.5V14.25H13.5V20.25ZM15 20.25V14.25C14.9995 13.8523 14.8414 13.471 14.5602 13.1898C14.279 12.9086 13.8977 12.7504 13.5 12.75H10.5C10.1023 12.7504 9.721 12.9085 9.43978 13.1897C9.15856 13.471 9.0004 13.8523 9 14.25V20.25H4.5V9.79608L12 3.95358L19.5 9.80396V20.25H15Z" fill="#6F6F6F"/>
</g>
<defs>
<clipPath id="clip0_6160_52594">
<rect width="24" height="24" fill="white"/>
</clipPath>
</defs>
</svg>
