<svg width="24" height="24" viewBox="0 0 24 24" fill="none" xmlns="http://www.w3.org/2000/svg">
<rect width="24" height="24" rx="3" fill="white" fill-opacity="0.01" style="mix-blend-mode:multiply"/>
<path d="M17.9997 7.5L16.9391 8.56057L19.6286 11.25H8.92388C8.77551 10.5302 8.41948 9.86961 7.89979 9.34992C7.3801 8.83023 6.71953 8.4742 5.99971 8.32582V1.5H4.49971V8.32582C3.65288 8.49875 2.89178 8.9589 2.34517 9.62841C1.79856 10.2979 1.5 11.1357 1.5 12C1.5 12.8643 1.79856 13.7021 2.34517 14.3716C2.89178 15.0411 3.65288 15.5012 4.49971 15.6742V22.5H5.99971V15.6742C6.71953 15.5258 7.3801 15.1698 7.89979 14.6501C8.41948 14.1304 8.77551 13.4698 8.92388 12.75H19.6286L16.9391 15.4394L17.9997 16.5L22.4997 12L17.9997 7.5ZM5.24971 14.25C4.8047 14.25 4.36969 14.118 3.99967 13.8708C3.62966 13.6236 3.34128 13.2722 3.17098 12.861C3.00068 12.4499 2.95612 11.9975 3.04294 11.561C3.12976 11.1246 3.34405 10.7237 3.65872 10.409C3.97339 10.0943 4.3743 9.88005 4.81076 9.79323C5.24721 9.70642 5.69961 9.75097 6.11075 9.92127C6.52188 10.0916 6.87328 10.38 7.12051 10.75C7.36775 11.12 7.49971 11.555 7.49971 12C7.49905 12.5965 7.26179 13.1685 6.83997 13.5903C6.41816 14.0121 5.84624 14.2493 5.24971 14.25Z" fill="#94C518"/>
</svg>
