<svg width="28" height="28" viewBox="0 0 28 28" fill="none" xmlns="http://www.w3.org/2000/svg">
<rect width="28" height="28" fill="white" fill-opacity="0.01" style="mix-blend-mode:multiply"/>
<path d="M27.125 14C27.1256 13.7701 27.0807 13.5423 26.9927 13.3299C26.9047 13.1175 26.7754 12.9247 26.6123 12.7626L21.5434 7.69386L24.0529 5.18462C24.425 5.28437 24.8196 5.25854 25.1755 5.11114C25.5315 4.96375 25.8288 4.70302 26.0214 4.3694C26.2141 4.03578 26.2913 3.64792 26.241 3.26597C26.1907 2.88401 26.0158 2.52932 25.7434 2.2569C25.471 1.98448 25.1164 1.80956 24.7344 1.75927C24.3525 1.70898 23.9646 1.78613 23.631 1.97875C23.2973 2.17137 23.0366 2.4687 22.8892 2.82462C22.7417 3.18055 22.7159 3.57517 22.8156 3.94728L20.3061 6.45652L15.2373 1.38764C15.0749 1.22512 14.882 1.0962 14.6696 1.00823C14.4573 0.920273 14.2298 0.875 14 0.875C13.7702 0.875 13.5426 0.920273 13.3303 1.00823C13.118 1.0962 12.9251 1.22512 12.7626 1.38764L7.69386 6.45652L5.18436 3.94728C5.28408 3.57517 5.25822 3.18055 5.1108 2.82462C4.96338 2.4687 4.70263 2.17137 4.369 1.97875C4.03537 1.78613 3.6475 1.70898 3.26555 1.75927C2.8836 1.80956 2.52892 1.98448 2.25652 2.2569C1.98412 2.52932 1.80923 2.88401 1.75896 3.26597C1.7087 3.64792 1.78587 4.03578 1.97852 4.3694C2.17116 4.70302 2.46851 4.96375 2.82444 5.11114C3.18038 5.25854 3.575 5.28437 3.94711 5.18462L6.45652 7.69386L1.38764 12.7626C1.22512 12.9251 1.0962 13.118 1.00823 13.3303C0.920273 13.5426 0.875 13.7702 0.875 14C0.875 14.2298 0.920273 14.4573 1.00823 14.6697C1.0962 14.882 1.22512 15.0749 1.38764 15.2373L6.45652 20.3061L3.94711 22.8153C3.575 22.7156 3.18038 22.7414 2.82444 22.8888C2.46851 23.0362 2.17116 23.2969 1.97852 23.6306C1.78587 23.9642 1.7087 24.3521 1.75896 24.734C1.80923 25.116 1.98412 25.4706 2.25652 25.7431C2.52892 26.0155 2.8836 26.1904 3.26555 26.2407C3.6475 26.291 4.03537 26.2138 4.369 26.0212C4.70263 25.8286 4.96338 25.5313 5.1108 25.1753C5.25822 24.8194 5.28408 24.4248 5.18436 24.0527L7.69386 21.5434L12.7626 26.6123C12.9251 26.7748 13.118 26.9038 13.3303 26.9917C13.5426 27.0797 13.7702 27.125 14 27.125C14.2298 27.125 14.4573 27.0797 14.6696 26.9917C14.882 26.9038 15.0749 26.7748 15.2373 26.6123L20.3061 21.5434L22.8156 24.0527C22.7159 24.4248 22.7417 24.8194 22.8892 25.1753C23.0366 25.5313 23.2973 25.8286 23.631 26.0212C23.9646 26.2138 24.3525 26.291 24.7344 26.2407C25.1164 26.1904 25.471 26.0155 25.7434 25.7431C26.0158 25.4706 26.1907 25.116 26.241 24.734C26.2913 24.3521 26.2141 23.9642 26.0214 23.6306C25.8288 23.2969 25.5315 23.0362 25.1755 22.8888C24.8196 22.7414 24.425 22.7156 24.0529 22.8153L21.5434 20.3061L26.6123 15.2373C26.7754 15.0752 26.9046 14.8824 26.9926 14.67C27.0806 14.4576 27.1256 14.2299 27.125 14ZM20.3061 19.0689L17.8623 16.625L16.625 17.8623L19.0689 20.3061L14 25.375L8.93111 20.3061L11.375 17.8623L10.1376 16.625L7.69386 19.0689L2.62498 14L7.69342 8.93067L10.1376 11.375L11.375 10.1376L8.93067 7.69342L14 2.62498L19.0693 7.69342L16.625 10.1376L17.8623 11.375L20.3065 8.93067L25.375 14L20.3061 19.0689Z" fill="#94C518"/>
</svg>
