<svg width="25" height="24" viewBox="0 0 25 24" fill="none" xmlns="http://www.w3.org/2000/svg">
<rect x="0.731934" width="24" height="24" rx="3" fill="white" fill-opacity="0.01" style="mix-blend-mode:multiply"/>
<path d="M18.7321 7.5L17.6716 8.56057L20.3611 11.25H9.65631C9.50793 10.5302 9.1519 9.86961 8.63221 9.34992C8.11252 8.83023 7.45195 8.4742 6.73213 8.32582V1.5H5.23213V8.32582C4.3853 8.49875 3.6242 8.9589 3.07759 9.62841C2.53098 10.2979 2.23242 11.1357 2.23242 12C2.23242 12.8643 2.53098 13.7021 3.07759 14.3716C3.6242 15.0411 4.3853 15.5012 5.23213 15.6742V22.5H6.73213V15.6742C7.45195 15.5258 8.11252 15.1698 8.63221 14.6501C9.1519 14.1304 9.50793 13.4698 9.65631 12.75H20.3611L17.6716 15.4394L18.7321 16.5L23.2321 12L18.7321 7.5ZM5.98213 14.25C5.53712 14.25 5.10211 14.118 4.7321 13.8708C4.36209 13.6236 4.0737 13.2722 3.9034 12.861C3.7331 12.4499 3.68855 11.9975 3.77536 11.561C3.86218 11.1246 4.07647 10.7237 4.39114 10.409C4.70581 10.0943 5.10672 9.88005 5.54318 9.79323C5.97963 9.70642 6.43203 9.75097 6.84317 9.92127C7.2543 10.0916 7.6057 10.38 7.85294 10.75C8.10017 11.12 8.23213 11.555 8.23213 12C8.23147 12.5965 7.99421 13.1685 7.5724 13.5903C7.15058 14.0121 6.57867 14.2493 5.98213 14.25Z" fill="#1D77FE"/>
</svg>
