<svg width="24" height="24" viewBox="0 0 24 24" fill="none" xmlns="http://www.w3.org/2000/svg">
<rect width="24" height="24" rx="3" fill="white" fill-opacity="0.01" style="mix-blend-mode:multiply"/>
<path d="M15.0019 17.25H8.89692C8.82266 16.987 8.71423 16.7348 8.57442 16.5L16.5019 8.57251C16.9534 8.84955 17.4722 8.99742 18.0019 9.00001C18.5634 9.00183 19.1142 8.84602 19.5915 8.55032C20.0689 8.25461 20.4536 7.83087 20.7021 7.32731C20.9505 6.82374 21.0526 6.26056 20.9968 5.70182C20.941 5.14309 20.7295 4.61124 20.3863 4.16676C20.0432 3.72229 19.5822 3.38304 19.0558 3.1876C18.5294 2.99216 17.9587 2.94838 17.4087 3.06125C16.8586 3.17411 16.3513 3.43908 15.9444 3.82602C15.5375 4.21295 15.2473 4.70632 15.1069 5.25001H8.89692C8.71438 4.54301 8.28025 3.92687 7.67592 3.51706C7.07159 3.10725 6.33853 2.93191 5.61417 3.02392C4.88981 3.11592 4.22387 3.46895 3.74118 4.01683C3.25849 4.56471 2.99219 5.26983 2.99219 6.00001C2.99219 6.73019 3.25849 7.4353 3.74118 7.98318C4.22387 8.53106 4.88981 8.88409 5.61417 8.9761C6.33853 9.0681 7.07159 8.89277 7.67592 8.48296C8.28025 8.07315 8.71438 7.457 8.89692 6.75001H15.1069C15.1812 7.01302 15.2896 7.26517 15.4294 7.50001L7.50192 15.4275C7.05045 15.1505 6.53162 15.0026 6.00192 15C5.44041 14.9982 4.88966 15.154 4.41232 15.4497C3.93498 15.7454 3.55021 16.1691 3.30178 16.6727C3.05335 17.1763 2.95123 17.7395 3.00705 18.2982C3.06286 18.8569 3.27437 19.3888 3.6175 19.8333C3.96064 20.2777 4.42162 20.617 4.94803 20.8124C5.47443 21.0079 6.04512 21.0516 6.59518 20.9388C7.14523 20.8259 7.65257 20.5609 8.05948 20.174C8.46639 19.7871 8.75654 19.2937 8.89692 18.75H15.0019V21H21.0019V15H15.0019V17.25ZM6.00192 7.50001C5.70525 7.50001 5.41524 7.41203 5.16857 7.24721C4.9219 7.08239 4.72964 6.84812 4.61611 6.57403C4.50257 6.29994 4.47287 5.99834 4.53075 5.70737C4.58862 5.4164 4.73149 5.14913 4.94126 4.93935C5.15104 4.72957 5.41832 4.58671 5.70929 4.52883C6.00026 4.47095 6.30186 4.50066 6.57595 4.61419C6.85004 4.72772 7.08431 4.91998 7.24913 5.16665C7.41395 5.41333 7.50192 5.70334 7.50192 6.00001C7.50192 6.39783 7.34389 6.77936 7.06258 7.06067C6.78128 7.34197 6.39975 7.50001 6.00192 7.50001ZM18.0019 4.50001C18.2986 4.50001 18.5886 4.58798 18.8353 4.7528C19.082 4.91762 19.2742 5.15189 19.3877 5.42598C19.5013 5.70007 19.531 6.00167 19.4731 6.29264C19.4152 6.58361 19.2724 6.85089 19.0626 7.06067C18.8528 7.27045 18.5855 7.41331 18.2946 7.47119C18.0036 7.52906 17.702 7.49936 17.4279 7.38583C17.1538 7.27229 16.9195 7.08004 16.7547 6.83336C16.5899 6.58669 16.5019 6.29668 16.5019 6.00001C16.5019 5.60218 16.66 5.22065 16.9413 4.93935C17.2226 4.65804 17.6041 4.50001 18.0019 4.50001ZM6.00192 19.5C5.70525 19.5 5.41524 19.412 5.16857 19.2472C4.9219 19.0824 4.72964 18.8481 4.61611 18.574C4.50257 18.2999 4.47287 17.9983 4.53075 17.7074C4.58862 17.4164 4.73149 17.1491 4.94126 16.9393C5.15104 16.7296 5.41832 16.5867 5.70929 16.5288C6.00026 16.471 6.30186 16.5007 6.57595 16.6142C6.85004 16.7277 7.08431 16.92 7.24913 17.1667C7.41395 17.4133 7.50192 17.7033 7.50192 18C7.50192 18.3978 7.34389 18.7794 7.06258 19.0607C6.78128 19.342 6.39975 19.5 6.00192 19.5ZM16.5019 16.5H19.5019V19.5H16.5019V16.5Z" fill="#94C518"/>
</svg>
