<svg width="29" height="29" viewBox="0 0 29 29" fill="none" xmlns="http://www.w3.org/2000/svg">
<g clip-path="url(#clip0_7182_133763)">
<rect width="28" height="28" transform="translate(0.130859 0.121582)" fill="white" fill-opacity="0.01" style="mix-blend-mode:multiply"/>
<path d="M27.2558 14.1216C27.2565 13.8917 27.2115 13.6639 27.1235 13.4515C27.0355 13.2391 26.9062 13.0463 26.7432 12.8842L21.6743 7.81544L24.1837 5.3062C24.5558 5.40595 24.9504 5.38012 25.3064 5.23272C25.6623 5.08533 25.9597 4.8246 26.1523 4.49098C26.345 4.15736 26.4221 3.7695 26.3719 3.38755C26.3216 3.0056 26.1467 2.6509 25.8743 2.37848C25.6019 2.10607 25.2472 1.93115 24.8653 1.88085C24.4833 1.83056 24.0955 1.90771 23.7618 2.10033C23.4282 2.29295 23.1674 2.59028 23.02 2.94621C22.8726 3.30213 22.8467 3.69675 22.9465 4.06886L20.437 6.5781L15.3682 1.50923C15.2057 1.3467 15.0128 1.21778 14.8005 1.12982C14.5882 1.04186 14.3606 0.996582 14.1308 0.996582C13.901 0.996582 13.6735 1.04186 13.4612 1.12982C13.2489 1.21778 13.056 1.3467 12.8935 1.50923L7.82472 6.5781L5.31522 4.06886C5.41494 3.69675 5.38908 3.30213 5.24166 2.94621C5.09424 2.59028 4.83349 2.29295 4.49986 2.10033C4.16623 1.90771 3.77836 1.83056 3.39641 1.88085C3.01446 1.93115 2.65978 2.10607 2.38738 2.37848C2.11498 2.6509 1.94009 3.0056 1.88982 3.38755C1.83956 3.7695 1.91673 4.15736 2.10938 4.49098C2.30202 4.8246 2.59937 5.08533 2.9553 5.23272C3.31124 5.38012 3.70586 5.40595 4.07797 5.3062L6.58738 7.81544L1.5185 12.8842C1.35598 13.0467 1.22705 13.2396 1.13909 13.4519C1.05113 13.6642 1.00586 13.8918 1.00586 14.1216C1.00586 14.3514 1.05113 14.5789 1.13909 14.7912C1.22705 15.0035 1.35598 15.1964 1.5185 15.3589L6.58738 20.4277L4.07797 22.9369C3.70586 22.8372 3.31124 22.863 2.9553 23.0104C2.59937 23.1578 2.30202 23.4185 2.10938 23.7521C1.91673 24.0858 1.83956 24.4736 1.88982 24.8556C1.94009 25.2375 2.11498 25.5922 2.38738 25.8646C2.65978 26.1371 3.01446 26.312 3.39641 26.3623C3.77836 26.4126 4.16623 26.3354 4.49986 26.1428C4.83349 25.9502 5.09424 25.6528 5.24166 25.2969C5.38908 24.941 5.41494 24.5464 5.31522 24.1743L7.82472 21.665L12.8935 26.7339C13.056 26.8964 13.2489 27.0254 13.4612 27.1133C13.6735 27.2013 13.901 27.2466 14.1308 27.2466C14.3606 27.2466 14.5882 27.2013 14.8005 27.1133C15.0128 27.0254 15.2057 26.8964 15.3682 26.7339L20.437 21.665L22.9465 24.1743C22.8467 24.5464 22.8726 24.941 23.02 25.2969C23.1674 25.6528 23.4282 25.9502 23.7618 26.1428C24.0955 26.3354 24.4833 26.4126 24.8653 26.3623C25.2472 26.312 25.6019 26.1371 25.8743 25.8646C26.1467 25.5922 26.3216 25.2375 26.3719 24.8556C26.4221 24.4736 26.345 24.0858 26.1523 23.7521C25.9597 23.4185 25.6623 23.1578 25.3064 23.0104C24.9504 22.863 24.5558 22.8372 24.1837 22.9369L21.6743 20.4277L26.7432 15.3589C26.9062 15.1968 27.0355 15.004 27.1235 14.7916C27.2115 14.5792 27.2565 14.3515 27.2558 14.1216V14.1216ZM20.437 19.1904L17.9932 16.7466L16.7558 17.9839L19.1997 20.4277L14.1308 25.4966L9.06197 20.4277L11.5058 17.9839L10.2685 16.7466L7.82472 19.1904L2.75584 14.1216L7.82428 9.05225L10.2685 11.4966L11.5058 10.2592L9.06153 7.815L14.1308 2.74656L19.2002 7.815L16.7558 10.2592L17.9932 11.4966L20.4374 9.05225L25.5058 14.1216L20.437 19.1904Z" fill="#1D77FE"/>
</g>
<defs>
<clipPath id="clip0_7182_133763">
<rect width="28" height="28" fill="white" transform="translate(0.130859 0.121582)"/>
</clipPath>
</defs>
</svg>
