<svg width="29" height="26" viewBox="0 0 29 26" fill="none" xmlns="http://www.w3.org/2000/svg">
<g clip-path="url(#clip0_6160_70487)">
<path d="M4.21061 7.50757C4.2122 6.97181 4.35724 6.44626 4.63065 5.98551L7.0132 1.97048C7.55355 1.05988 8.53392 0.50158 9.59277 0.501445L20.9497 0.5C22.016 0.499864 23.0022 1.06573 23.5402 1.98635L25.9138 6.048C26.182 6.50697 26.3234 7.02897 26.3236 7.56057L26.3275 18.4354C26.3277 18.9685 26.1859 19.492 25.9166 19.952L23.5407 24.0109C23.0027 24.93 22.0177 25.495 20.9527 25.4953L9.59753 25.4992C8.53888 25.4996 7.55842 24.9419 7.01757 24.0319L4.59928 19.9627C4.32214 19.4964 4.17663 18.9636 4.17824 18.4211L4.21061 7.50757Z" fill="#0F3C7F"/>
<path d="M4.17614 19.2486H5.62642C7.9397 19.2486 9.38259 16.741 8.22013 14.7411L7.97463 14.3187C7.47722 13.4629 7.43397 12.4168 7.85902 11.5229L8.28145 10.6345C9.15201 8.80355 7.81722 6.69036 5.78992 6.68994C4.813 6.68973 3.90878 7.20606 3.41247 8.04752L0.490234 13.0021" fill="#EDEDED"/>
<path d="M11.9704 17.914C12.527 18.7476 13.4631 19.2482 14.4655 19.2482H16.1738C17.1508 19.2482 18.0666 18.7725 18.6283 17.9731L20.8606 14.7964C21.5714 13.7849 21.5889 12.441 20.9048 11.4114L18.6976 8.08932C18.1416 7.25247 17.2036 6.74951 16.1989 6.74951H13.8347C12.7495 6.74951 11.7489 7.33562 11.2181 8.2822L9.52542 11.3007C8.97357 12.2848 9.02055 13.4954 9.64702 14.4337L11.9704 17.914Z" fill="#E0E0E0"/>
<path d="M5.56495 13.0171C3.32589 13.01 1.93091 15.4434 3.06845 17.372L3.33874 17.8302C3.85771 18.7101 4.80312 19.25 5.82463 19.25C8.05018 19.25 9.43828 16.8375 8.31976 14.9134L8.05238 14.4535C7.53705 13.567 6.59031 13.0203 5.56495 13.0171Z" fill="#ACACAC"/>
<path d="M14.3025 13.0034C11.9061 13.0029 10.4765 15.6738 11.8059 17.6677L11.9704 17.9144C12.5269 18.7489 13.4635 19.2501 14.4665 19.2501H16.1421C17.1362 19.2501 18.0658 18.7576 18.6242 17.9351L18.7914 17.6888C20.1435 15.6971 18.7171 13.0042 16.3099 13.0038L14.3025 13.0034Z" fill="#9E9E9E"/>
<path d="M10.3454 13.0056L9.31216 13.2995C9.16597 13.3411 9.01097 13.3402 8.86527 13.2969C8.36584 13.1487 8.13874 12.5705 8.40377 12.122L11.5767 6.75204C12.1301 5.81555 13.4848 5.81496 14.039 6.75096" fill="#1D77FE"/>
<path d="M14.0334 19.2484C13.4197 20.2948 11.9744 20.4616 11.1386 19.5824L9.99124 18.3755C9.69148 18.0602 9.46388 17.6835 9.32423 17.2714L7.87902 13.0072C7.87902 13.0075 7.87894 13.007 7.87902 13.0072C7.87902 13.0061 7.87987 13.0044 7.88106 13.0044H10.3443" fill="#68A4FE"/>
<path d="M7.88247 13.0046H7.88138C7.88057 13.0046 7.8799 13.0053 7.8799 13.0061C7.88003 13.0058 7.8799 13.0064 7.8799 13.0061L7.55709 13.5527C7.14767 14.2454 6.14608 14.2473 5.73402 13.5562C5.53545 13.2231 5.53457 12.8082 5.73172 12.4743L6.66583 10.8924L9.47425 6.14374C10.0141 5.23087 10.9959 4.6709 12.0564 4.6709H12.8081" fill="#1863D4"/>
<path d="M21.4336 16.2484C21.4336 17.9052 22.7767 19.2484 24.4336 19.2484H25.8917C27.549 19.2484 28.8923 17.9046 28.8917 16.2473L28.8893 9.74794C28.8887 8.09151 27.5458 6.74902 25.8893 6.74902H24.4336C22.7767 6.74902 21.4336 8.09217 21.4336 9.74902V16.2484Z" fill="#D4D4D4"/>
<path d="M24.4336 13.022C22.7767 13.022 21.4336 14.3651 21.4336 16.022V16.2497C21.4336 17.9066 22.7767 19.2497 24.4336 19.2497H25.8793C27.5361 19.2497 28.8793 17.9066 28.8793 16.2497V16.022C28.8793 14.3651 27.5361 13.022 25.8793 13.022H24.4336Z" fill="#919191"/>
<path d="M11.8624 19.7396C12.2807 20.4466 11.771 21.3402 10.9495 21.3402C10.5746 21.3402 10.2274 21.1422 10.0366 20.8195L6.96741 15.6289C6.77062 15.2961 6.77063 14.8825 6.96745 14.5497C7.37781 13.8559 8.38181 13.8558 8.79225 14.5496L11.8624 19.7396Z" fill="#1D77FE"/>
<path d="M20.8088 13.0039C21.6287 13.0043 22.1372 13.8962 21.72 14.602L18.6426 19.808C18.2192 20.5242 17.0551 20.2431 16.6534 19.5145C16.4599 19.1635 16.6337 19.0392 16.8378 18.6942L19.8967 13.5238C20.0874 13.2014 20.4342 13.0037 20.8088 13.0039Z" fill="#1863D4"/>
<path d="M20.1977 21.3389C19.1106 21.3387 18.4363 20.1562 18.9895 19.2205L22.6644 13.0046C23.2175 12.0694 24.5781 12.0823 25.1298 13.0184M21.9733 11.3614C22.3013 12.1423 21.7278 13.0052 20.8808 13.0052C20.4618 13.0052 20.0739 12.7839 19.8607 12.4232L16.8636 7.35224C16.6441 6.98099 16.6437 6.51983 16.8625 6.14821C17.2827 5.43456 18.2867 5.36111 18.8063 6.00602L20.458 8.0563C20.6343 8.27513 20.779 8.51764 20.8878 8.77672L21.9733 11.3614Z" fill="#1D77FE"/>
<path d="M23.8946 10.9212L23.8951 10.923L23.8946 10.9247L23.7234 11.214C23.2466 12.0197 22.0807 12.0198 21.6038 11.2141L18.6808 6.27512C18.262 5.56747 18.7723 4.67292 19.5946 4.67334C19.9696 4.67353 20.3166 4.87159 20.5075 5.19435L23.8946 10.9212Z" fill="#68A4FE"/>
</g>
<defs>
<clipPath id="clip0_6160_70487">
<rect width="29" height="26" fill="white"/>
</clipPath>
</defs>
</svg>
