<svg width="29" height="29" viewBox="0 0 29 29" fill="none" xmlns="http://www.w3.org/2000/svg">
<rect width="28" height="28" transform="translate(0.523438 0.103516)" fill="white" fill-opacity="0.01" style="mix-blend-mode:multiply"/>
<path d="M19.7734 5.35352H9.27344V7.10352H19.7734V5.35352Z" fill="#1D77FE"/>
<path d="M19.7734 8.85352H9.27344V10.6035H19.7734V8.85352Z" fill="#1D77FE"/>
<path d="M14.5234 21.1035H9.27344V22.8535H14.5234V21.1035Z" fill="#1D77FE"/>
<path d="M14.5234 12.3535H9.27344V14.1035H14.5234V12.3535Z" fill="#1D77FE"/>
<path d="M21.5234 26.3535H7.52344C7.05947 26.353 6.61466 26.1684 6.28659 25.8404C5.95852 25.5123 5.77397 25.0675 5.77344 24.6035V3.60352C5.77397 3.13955 5.95852 2.69474 6.28659 2.36667C6.61466 2.03859 7.05947 1.85405 7.52344 1.85352H21.5234C21.9874 1.85405 22.4322 2.03859 22.7603 2.36667C23.0884 2.69474 23.2729 3.13955 23.2734 3.60352V24.6035C23.2729 25.0675 23.0884 25.5123 22.7603 25.8404C22.4322 26.1684 21.9874 26.353 21.5234 26.3535ZM7.52344 3.60352V24.6035H21.5234V3.60352H7.52344Z" fill="#1D77FE"/>
</svg>
