<svg width="28" height="28" viewBox="0 0 28 28" fill="none" xmlns="http://www.w3.org/2000/svg">
<rect width="28" height="28" fill="white" fill-opacity="0.01" style="mix-blend-mode:multiply"/>
<path d="M19.25 5.25H8.75V7H19.25V5.25Z" fill="#94C518"/>
<path d="M19.25 8.75H8.75V10.5H19.25V8.75Z" fill="#94C518"/>
<path d="M14 21H8.75V22.75H14V21Z" fill="#94C518"/>
<path d="M14 12.25H8.75V14H14V12.25Z" fill="#94C518"/>
<path d="M21 26.25H7C6.53603 26.2495 6.09122 26.0649 5.76315 25.7368C5.43508 25.4088 5.25053 24.964 5.25 24.5V3.5C5.25053 3.03603 5.43508 2.59122 5.76315 2.26315C6.09122 1.93508 6.53603 1.75053 7 1.75H21C21.464 1.75053 21.9088 1.93508 22.2368 2.26315C22.5649 2.59122 22.7495 3.03603 22.75 3.5V24.5C22.7495 24.964 22.5649 25.4088 22.2368 25.7368C21.9088 26.0649 21.464 26.2495 21 26.25ZM7 3.5V24.5H21V3.5H7Z" fill="#94C518"/>
</svg>
