<svg width="28" height="28" viewBox="0 0 28 28" fill="none" xmlns="http://www.w3.org/2000/svg">
<rect width="28" height="28" rx="3" fill="white" fill-opacity="0.01" style="mix-blend-mode:multiply"/>
<path d="M14 1.75C11.5772 1.75 9.20877 2.46845 7.19427 3.8145C5.17977 5.16054 3.60965 7.07373 2.68248 9.31213C1.75531 11.5505 1.51272 14.0136 1.98539 16.3899C2.45805 18.7661 3.62475 20.9489 5.33795 22.6621C7.05114 24.3752 9.23388 25.542 11.6101 26.0146C13.9864 26.4873 16.4495 26.2447 18.6879 25.3175C20.9263 24.3904 22.8395 22.8202 24.1855 20.8057C25.5316 18.7912 26.25 16.4228 26.25 14C26.25 10.7511 24.9594 7.63526 22.6621 5.33794C20.3647 3.04062 17.2489 1.75 14 1.75ZM24.5 13.125H19.25C19.1479 9.90245 18.313 6.74551 16.8088 3.89375C18.8813 4.46066 20.7299 5.64974 22.1053 7.30049C23.4807 8.95125 24.3165 10.9842 24.5 13.125ZM14 24.5C13.8048 24.5131 13.609 24.5131 13.4138 24.5C11.601 21.6092 10.595 18.2859 10.5 14.875H17.5C17.413 18.2834 16.416 21.6065 14.6125 24.5C14.4086 24.5143 14.2039 24.5143 14 24.5ZM10.5 13.125C10.5871 9.71659 11.584 6.39347 13.3875 3.5C13.7771 3.45622 14.1704 3.45622 14.56 3.5C16.382 6.3882 17.3972 9.71168 17.5 13.125H10.5ZM11.165 3.89375C9.66989 6.74769 8.84403 9.90452 8.75001 13.125H3.50001C3.68349 10.9842 4.51933 8.95125 5.8947 7.30049C7.27007 5.64974 9.11876 4.46066 11.1913 3.89375H11.165ZM3.54376 14.875H8.79376C8.88507 18.0948 9.70793 21.2516 11.2 24.1062C9.13401 23.5332 7.29294 22.3415 5.92424 20.6913C4.55555 19.041 3.72483 17.0113 3.54376 14.875ZM16.8088 24.1062C18.313 21.2545 19.1479 18.0975 19.25 14.875H24.5C24.3165 17.0158 23.4807 19.0487 22.1053 20.6995C20.7299 22.3503 18.8813 23.5393 16.8088 24.1062Z" fill="#94C518"/>
</svg>
