<svg width="29" height="29" viewBox="0 0 29 29" fill="none" xmlns="http://www.w3.org/2000/svg">
<rect x="0.523438" y="0.103516" width="28" height="28" rx="3" fill="white" fill-opacity="0.01" style="mix-blend-mode:multiply"/>
<path d="M14.5234 1.85352C12.1006 1.85352 9.73221 2.57197 7.71771 3.91801C5.70321 5.26406 4.13309 7.17725 3.20592 9.41564C2.27875 11.654 2.03615 14.1171 2.50882 16.4934C2.98149 18.8696 4.14819 21.0524 5.86138 22.7656C7.57458 24.4788 9.75732 25.6455 12.1336 26.1181C14.5099 26.5908 16.9729 26.3482 19.2113 25.421C21.4497 24.4939 23.3629 22.9238 24.7089 20.9093C26.055 18.8947 26.7734 16.5263 26.7734 14.1035C26.7734 10.8546 25.4828 7.73878 23.1855 5.44146C20.8882 3.14414 17.7723 1.85352 14.5234 1.85352V1.85352ZM25.0234 13.2285H19.7734C19.6713 10.006 18.8364 6.84902 17.3322 3.99727C19.4047 4.56418 21.2534 5.75325 22.6287 7.40401C24.0041 9.05477 24.84 11.0877 25.0234 13.2285V13.2285ZM14.5234 24.6035C14.3282 24.6166 14.1324 24.6166 13.9372 24.6035C12.1244 21.7127 11.1184 18.3894 11.0234 14.9785H18.0234C17.9364 18.3869 16.9395 21.71 15.1359 24.6035C14.932 24.6178 14.7274 24.6178 14.5234 24.6035ZM11.0234 13.2285C11.1105 9.82011 12.1074 6.49699 13.9109 3.60352C14.3006 3.55974 14.6938 3.55974 15.0834 3.60352C16.9054 6.49171 17.9206 9.81519 18.0234 13.2285H11.0234ZM11.6884 3.99727C10.1933 6.8512 9.36746 10.008 9.27344 13.2285H4.02344C4.20693 11.0877 5.04277 9.05477 6.41814 7.40401C7.7935 5.75325 9.6422 4.56418 11.7147 3.99727H11.6884ZM4.06719 14.9785H9.31719C9.40851 18.1983 10.2314 21.3551 11.7234 24.2098C9.65745 23.6368 7.81637 22.445 6.44768 20.7948C5.07898 19.1445 4.24827 17.1148 4.06719 14.9785V14.9785ZM17.3322 24.2098C18.8364 21.358 19.6713 18.2011 19.7734 14.9785H25.0234C24.84 17.1193 24.0041 19.1523 22.6287 20.803C21.2534 22.4538 19.4047 23.6429 17.3322 24.2098Z" fill="#1D77FE"/>
</svg>
