<svg width="124" height="16" viewBox="0 0 124 16" fill="none" xmlns="http://www.w3.org/2000/svg">
<path d="M4.85876 15.9096V1.89831H0V0.0903957H11.7514V1.89831H6.89265V15.9096H4.85876Z" fill="#050B14"/>
<path d="M12.5327 16V14.1921L15.3575 14.0791V1.9209L12.5327 1.80791V0L16.3745 0.180791L20.2163 0V1.80791L17.3914 1.9209V14.0791L20.2163 14.1921V16L16.3745 15.8192L12.5327 16Z" fill="#050B14"/>
<path d="M21.9041 15.9096V0.0903957H32.7516V1.89831H23.938V6.87006H31.6216V8.67797H23.938V14.1017H32.9776V15.9096H21.9041Z" fill="#050B14"/>
<path d="M36.3692 8.67797H44.2788V1.89831H36.3692V8.67797ZM46.3127 1.89831V8.67797L44.7985 10.1921L47.5556 15.9096H45.3635L42.8098 10.4859H36.3692V15.9096H34.3353V0.0903957H44.5048L46.3127 1.89831Z" fill="#050B14"/>
<path d="M53.0959 14.1017V1.89831L54.9038 0.0903957H63.2654L65.0733 1.89831V14.1017L63.2654 15.9096H54.9038L53.0959 14.1017ZM55.1298 1.89831V14.1017H63.0394V1.89831H55.1298Z" fill="#73B200"/>
<rect x="71.2627" y="1.48438" width="52.1891" height="13.0315" rx="1.03151" fill="#050B14"/>
<path d="M74.9144 11V4.50149H79.3706V5.24418H75.75V7.28657H78.9064V8.02925H75.75V10.2573H79.4634V11H74.9144ZM80.0211 11V5.80119H83.8274L84.6629 6.63671V11H83.8274V6.54388H80.8567V11H80.0211ZM85.4995 4.96567L86.3351 4.50149V5.98686H88.7488V6.72955H86.3351V10.2573H88.7488V11H86.3351L85.4995 10.1645V4.96567ZM89.1637 10.1645V6.63671L89.9992 5.80119H93.6198V8.6791H89.9992V10.2573H93.4341V11H89.9992L89.1637 10.1645ZM89.9992 8.02925L92.8214 7.93642V6.54388H89.9992V8.02925ZM94.4074 11V6.63671L95.2429 5.80119H98.028V6.54388H95.2429V11H94.4074ZM98.4897 12.2997V5.80119H102.342L103.178 6.63671V10.1645L102.342 11H99.3252V12.2997H98.4897ZM102.342 6.54388H99.3252V10.2573H102.342V6.54388ZM103.968 11V6.63671L104.804 5.80119H107.589V6.54388H104.804V11H103.968ZM108.05 11V5.80119H108.886V11H108.05ZM108.05 5.15134V4.40865H108.886V5.15134H108.05ZM109.675 11V10.2573H113.388V8.72552H109.675V6.63671L110.51 5.80119H114.224V6.54388H110.51V7.98283H114.224V10.1923L113.416 11H109.675ZM114.963 10.1645V6.63671L115.798 5.80119H119.419V8.6791H115.798V10.2573H119.233V11H115.798L114.963 10.1645ZM115.798 8.02925L118.62 7.93642V6.54388H115.798V8.02925Z" fill="white"/>
</svg>
