<svg width="124" height="16" viewBox="0 0 124 16" fill="none" xmlns="http://www.w3.org/2000/svg">
<path d="M4.85876 15.9096V1.89831H0V0.0903957H11.7514V1.89831H6.89265V15.9096H4.85876Z" fill="white"/>
<path d="M12.5327 16V14.1921L15.3575 14.0791V1.9209L12.5327 1.80791V0L16.3745 0.180791L20.2163 0V1.80791L17.3914 1.9209V14.0791L20.2163 14.1921V16L16.3745 15.8192L12.5327 16Z" fill="white"/>
<path d="M21.9041 15.9096V0.0903957H32.7516V1.89831H23.938V6.87006H31.6216V8.67797H23.938V14.1017H32.9776V15.9096H21.9041Z" fill="white"/>
<path d="M36.3692 8.67797H44.2788V1.89831H36.3692V8.67797ZM46.3127 1.89831V8.67797L44.7985 10.1921L47.5556 15.9096H45.3635L42.8098 10.4859H36.3692V15.9096H34.3353V0.0903957H44.5048L46.3127 1.89831Z" fill="white"/>
<path d="M53.0959 14.1017V1.89831L54.9038 0.0903957H63.2654L65.0733 1.89831V14.1017L63.2654 15.9096H54.9038L53.0959 14.1017ZM55.1298 1.89831V14.1017H63.0394V1.89831H55.1298Z" fill="#B2ED1D"/>
<rect x="71.2617" y="1.48438" width="52.1891" height="13.0315" rx="1.03151" fill="white"/>
<path d="M74.9125 11V4.50149H79.3686V5.24418H75.748V7.28657H78.9044V8.02925H75.748V10.2573H79.4614V11H74.9125ZM80.0192 11V5.80119H83.8255L84.661 6.63671V11H83.8255V6.54388H80.8547V11H80.0192ZM85.4976 4.96567L86.3331 4.50149V5.98686H88.7468V6.72955H86.3331V10.2573H88.7468V11H86.3331L85.4976 10.1645V4.96567ZM89.1617 10.1645V6.63671L89.9972 5.80119H93.6178V8.6791H89.9972V10.2573H93.4321V11H89.9972L89.1617 10.1645ZM89.9972 8.02925L92.8194 7.93642V6.54388H89.9972V8.02925ZM94.4055 11V6.63671L95.241 5.80119H98.0261V6.54388H95.241V11H94.4055ZM98.4877 12.2997V5.80119H102.34L103.176 6.63671V10.1645L102.34 11H99.3232V12.2997H98.4877ZM102.34 6.54388H99.3232V10.2573H102.34V6.54388ZM103.966 11V6.63671L104.802 5.80119H107.587V6.54388H104.802V11H103.966ZM108.048 11V5.80119H108.884V11H108.048ZM108.048 5.15134V4.40865H108.884V5.15134H108.048ZM109.673 11V10.2573H113.386V8.72552H109.673V6.63671L110.508 5.80119H114.222V6.54388H110.508V7.98283H114.222V10.1923L113.414 11H109.673ZM114.961 10.1645V6.63671L115.796 5.80119H119.417V8.6791H115.796V10.2573H119.231V11H115.796L114.961 10.1645ZM115.796 8.02925L118.618 7.93642V6.54388H115.796V8.02925Z" fill="#050B14"/>
</svg>
