<svg width="31" height="30" viewBox="0 0 31 30" fill="none" xmlns="http://www.w3.org/2000/svg">
<mask id="mask0_8301_184394" style="mask-type:luminance" maskUnits="userSpaceOnUse" x="0" y="0" width="31" height="30">
<path d="M27.6914 0H3.69141C2.03455 0 0.691406 1.34315 0.691406 3V27C0.691406 28.6569 2.03455 30 3.69141 30H27.6914C29.3483 30 30.6914 28.6569 30.6914 27V3C30.6914 1.34315 29.3483 0 27.6914 0Z" fill="white"/>
</mask>
<g mask="url(#mask0_8301_184394)">
<path d="M12.7852 12.7265L18.0645 15.0878L23.3906 10.5117C23.6636 9.19005 23.4623 7.81645 22.8208 6.62392C22.1793 5.43139 21.1371 4.49337 19.871 3.96901C18.605 3.44466 17.1931 3.36626 15.8748 3.74712C14.5566 4.12797 13.4132 4.94463 12.6387 6.05854L11.7539 10.5644L12.7852 12.7265Z" fill="#B2ED1D"/>
<path d="M7.31641 18.2109C7.23827 18.5949 7.19901 18.9854 7.19922 19.377C7.20007 20.6278 7.6096 21.8454 8.36778 22.8515C9.12596 23.8575 10.1929 24.599 11.4122 24.9672C12.6315 25.3354 13.9391 25.311 15.1433 24.8976C16.3474 24.4842 17.3849 23.7035 18.1035 22.6699L18.9824 18.1758L17.8105 15.9785L12.5078 13.6113L7.31641 18.2109Z" fill="#94C518"/>
<path d="M7.28746 9.25214L10.9027 10.09L11.6937 6.05293C11.2009 5.68911 10.6011 5.49121 9.9841 5.48879C9.367 5.48637 8.76567 5.67957 8.26992 6.03951C7.77417 6.39946 7.4106 6.90684 7.23352 7.48588C7.05645 8.06491 7.07537 8.68451 7.28746 9.25214Z" fill="#94C518"/>
<path d="M6.97228 10.0957C6.19062 10.3491 5.50802 10.8335 5.01804 11.4825C4.52807 12.1314 4.25472 12.9131 4.23547 13.7205C4.21621 14.5278 4.452 15.3212 4.9105 15.9919C5.36901 16.6626 6.02778 17.1778 6.7965 17.4668L11.8707 12.9668L10.9391 11.0156L6.97228 10.0957Z" fill="#BFF043"/>
<path d="M19.0352 22.6699C19.5265 23.0339 20.1246 23.2321 20.7401 23.2351C21.3556 23.238 21.9556 23.0456 22.4506 22.6864C22.9455 22.3272 23.3088 21.8206 23.4864 21.2421C23.6639 20.6636 23.6461 20.0443 23.4356 19.4766L19.8204 18.6445L19.0352 22.6699Z" fill="#94C518"/>
<path d="M19.7695 17.7187L23.748 18.6328C24.5424 18.3707 25.2336 17.8719 25.7252 17.206C26.2168 16.54 26.4842 15.7402 26.4902 14.918C26.4894 14.1254 26.2429 13.3519 25.7835 12.7C25.3241 12.048 24.6735 11.5485 23.918 11.2676L18.7148 15.7441L19.7695 17.7187Z" fill="#BFF043"/>
</g>
</svg>
