<svg width="28" height="28" viewBox="0 0 28 28" fill="none" xmlns="http://www.w3.org/2000/svg">
<g clip-path="url(#clip0_8301_184176)">
<g style="mix-blend-mode:multiply">
<path d="M25 0H3C1.34315 0 0 1.34315 0 3V25C0 26.6569 1.34315 28 3 28H25C26.6569 28 28 26.6569 28 25V3C28 1.34315 26.6569 0 25 0Z" fill="white" fill-opacity="0.01"/>
</g>
<path d="M26.25 16.625H15.75V18.375H26.25V16.625Z" fill="#94C518"/>
<path d="M26.25 20.125H15.75V21.875H26.25V20.125Z" fill="#94C518"/>
<path d="M22.75 23.625H15.75V25.375H22.75V23.625Z" fill="#94C518"/>
<path d="M21.0015 3.5C20.2277 3.50235 19.4765 3.76132 18.8657 4.23635C18.2548 4.71137 17.8188 5.37561 17.6259 6.125H10.5015V3.5H3.50147V10.5H10.5015V7.875H17.6259C17.7073 8.18818 17.8324 8.48833 17.9976 8.76663L8.7681 17.996C8.23463 17.6746 7.62427 17.5032 7.00147 17.5C6.3463 17.4975 5.70359 17.679 5.14646 18.0238C4.58934 18.3686 4.14018 18.8628 3.85008 19.4502C3.55998 20.0377 3.44059 20.6948 3.5055 21.3467C3.57041 21.9987 3.81701 22.6193 4.21725 23.138C4.61748 23.6568 5.15527 24.0527 5.76944 24.2809C6.38361 24.5091 7.04948 24.5602 7.69131 24.4286C8.33313 24.297 8.92513 23.9879 9.39995 23.5365C9.87477 23.085 10.2134 22.5094 10.3772 21.875H14.0015V20.125H10.3772C10.2957 19.8118 10.1706 19.5117 10.0055 19.2334L19.2349 10.004C19.7684 10.3254 20.3787 10.4968 21.0015 10.5C21.9298 10.5 22.82 10.1313 23.4764 9.47487C24.1328 8.8185 24.5015 7.92826 24.5015 7C24.5015 6.07174 24.1328 5.1815 23.4764 4.52513C22.82 3.86875 21.9298 3.5 21.0015 3.5ZM8.75147 8.75H5.25147V5.25H8.75147V8.75ZM7.00147 22.75C6.65535 22.75 6.31701 22.6474 6.02922 22.4551C5.74144 22.2628 5.51714 21.9895 5.38468 21.6697C5.25223 21.3499 5.21757 20.9981 5.2851 20.6586C5.35262 20.3191 5.51929 20.0073 5.76403 19.7626C6.00878 19.5178 6.3206 19.3512 6.66006 19.2836C6.99953 19.2161 7.3514 19.2508 7.67117 19.3832C7.99094 19.5157 8.26425 19.74 8.45654 20.0278C8.64884 20.3155 8.75147 20.6539 8.75147 21C8.75094 21.464 8.56639 21.9088 8.23832 22.2368C7.91025 22.5649 7.46544 22.7495 7.00147 22.75ZM21.0015 8.75C20.6554 8.75 20.3171 8.64736 20.0293 8.45507C19.7415 8.26278 19.5172 7.98947 19.3847 7.6697C19.2523 7.34992 19.2176 6.99806 19.2851 6.65859C19.3527 6.31913 19.5193 6.0073 19.7641 5.76256C20.0088 5.51782 20.3206 5.35115 20.6601 5.28363C20.9996 5.2161 21.3514 5.25076 21.6712 5.38321C21.991 5.51566 22.2642 5.73997 22.4566 6.02775C22.6489 6.31554 22.7515 6.65388 22.7515 7C22.751 7.46397 22.5664 7.90877 22.2384 8.23685C21.9103 8.56492 21.4655 8.74947 21.0015 8.75Z" fill="#94C518"/>
</g>
<defs>
<clipPath id="clip0_8301_184176">
<rect width="28" height="28" fill="white"/>
</clipPath>
</defs>
</svg>
