<svg width="28" height="28" viewBox="0 0 28 28" fill="none" xmlns="http://www.w3.org/2000/svg">
<g clip-path="url(#clip0_6160_52624)">
<g style="mix-blend-mode:multiply">
<path d="M25 0H3C1.34315 0 0 1.34315 0 3V25C0 26.6569 1.34315 28 3 28H25C26.6569 28 28 26.6569 28 25V3C28 1.34315 26.6569 0 25 0Z" fill="white" fill-opacity="0.01"/>
</g>
<path d="M26.2495 16.625H15.7495V18.375H26.2495V16.625Z" fill="#1D77FE"/>
<path d="M26.2495 20.125H15.7495V21.875H26.2495V20.125Z" fill="#1D77FE"/>
<path d="M22.7495 23.625H15.7495V25.375H22.7495V23.625Z" fill="#1D77FE"/>
<path d="M20.9995 3.5C20.2257 3.50235 19.4745 3.76132 18.8637 4.23635C18.2528 4.71137 17.8168 5.37561 17.6239 6.125H10.4995V3.5H3.49952V10.5H10.4995V7.875H17.6239C17.7053 8.18818 17.8304 8.48833 17.9956 8.76663L8.76615 17.996C8.23268 17.6746 7.62232 17.5032 6.99952 17.5C6.34435 17.4975 5.70164 17.679 5.14451 18.0238C4.58739 18.3686 4.13823 18.8628 3.84813 19.4502C3.55803 20.0377 3.43864 20.6948 3.50355 21.3467C3.56846 21.9987 3.81506 22.6193 4.2153 23.138C4.61553 23.6568 5.15332 24.0527 5.76749 24.2809C6.38166 24.5091 7.04753 24.5602 7.68936 24.4286C8.33118 24.297 8.92318 23.9879 9.398 23.5365C9.87282 23.085 10.2114 22.5094 10.3752 21.875H13.9995V20.125H10.3752C10.2937 19.8118 10.1686 19.5117 10.0035 19.2334L19.2329 10.004C19.7664 10.3254 20.3767 10.4968 20.9995 10.5C21.9278 10.5 22.818 10.1313 23.4744 9.47487C24.1308 8.8185 24.4995 7.92826 24.4995 7C24.4995 6.07174 24.1308 5.1815 23.4744 4.52513C22.818 3.86875 21.9278 3.5 20.9995 3.5ZM8.74952 8.75H5.24952V5.25H8.74952V8.75ZM6.99952 22.75C6.6534 22.75 6.31506 22.6474 6.02727 22.4551C5.73949 22.2628 5.51519 21.9895 5.38273 21.6697C5.25028 21.3499 5.21562 20.9981 5.28315 20.6586C5.35067 20.3191 5.51734 20.0073 5.76208 19.7626C6.00683 19.5178 6.31865 19.3512 6.65811 19.2836C6.99758 19.2161 7.34945 19.2508 7.66922 19.3832C7.98899 19.5157 8.2623 19.74 8.45459 20.0278C8.64689 20.3155 8.74952 20.6539 8.74952 21C8.74899 21.464 8.56444 21.9088 8.23637 22.2368C7.9083 22.5649 7.46349 22.7495 6.99952 22.75ZM20.9995 8.75C20.6534 8.75 20.3151 8.64736 20.0273 8.45507C19.7395 8.26278 19.5152 7.98947 19.3827 7.6697C19.2503 7.34992 19.2156 6.99806 19.2831 6.65859C19.3507 6.31913 19.5173 6.0073 19.7621 5.76256C20.0068 5.51782 20.3186 5.35115 20.6581 5.28363C20.9976 5.2161 21.3494 5.25076 21.6692 5.38321C21.989 5.51566 22.2623 5.73997 22.4546 6.02775C22.6469 6.31554 22.7495 6.65388 22.7495 7C22.749 7.46397 22.5644 7.90877 22.2364 8.23685C21.9083 8.56492 21.4635 8.74947 20.9995 8.75Z" fill="#1D77FE"/>
</g>
<defs>
<clipPath id="clip0_6160_52624">
<rect width="28" height="28" fill="white"/>
</clipPath>
</defs>
</svg>
