<svg width="30" height="28" viewBox="0 0 30 28" fill="none" xmlns="http://www.w3.org/2000/svg">
<g clip-path="url(#clip0_10754_14621)">
<path d="M1 25.0899H2.53161V22.9032C2.53161 22.5859 2.70399 22.4409 2.94536 22.4409C3.20059 22.4409 3.35244 22.5859 3.35244 22.9032V25.0899H4.8838V22.9032C4.8838 22.5859 5.04925 22.4409 5.29781 22.4409C5.55996 22.4409 5.71156 22.5859 5.71156 22.9032V25.0899H7.24984V22.6066C7.24984 21.4682 6.64987 21.0889 5.90471 21.0889C5.25625 21.0889 4.8561 21.4616 4.75965 21.8063H4.7045C4.4698 21.2684 4.12505 21.0889 3.6146 21.0889C3.06951 21.0889 2.68321 21.4131 2.58676 21.7443H2.53161V21.1925H1V25.0899ZM7.73285 23.1445C7.73285 24.345 8.44338 25.1935 9.45736 25.1935C9.98166 25.1935 10.3887 24.9657 10.5611 24.5381H10.6093V25.0899H12.1271V21.1925H10.6093V21.7443H10.5611C10.3887 21.3236 9.98166 21.0889 9.45736 21.0889C8.50545 21.0889 7.73285 21.8961 7.73285 23.1445ZM9.94703 23.8415C9.56765 23.8415 9.27113 23.5998 9.27113 23.1379C9.27113 22.6895 9.56073 22.4409 9.94703 22.4409C10.3197 22.4409 10.6163 22.6826 10.6163 23.1379C10.6163 23.5998 10.3197 23.8415 9.94703 23.8415ZM15.4658 22.8549V21.0889C14.8587 21.0889 14.438 21.4131 14.231 22.0546H14.1758V21.1925H12.7891V25.0899H14.3V23.6827C14.3 23.1102 14.6173 22.7998 15.0795 22.7998C15.2519 22.7998 15.383 22.8272 15.4658 22.8549ZM15.9347 25.0899H17.4594V21.1925H15.9347V25.0899ZM15.9347 20.7854H17.4594V20.3647H15.9347V20.7854ZM18.1215 25.0899H19.6531V22.9032C19.6531 22.5859 19.8254 22.4409 20.0668 22.4409C20.322 22.4409 20.4739 22.5859 20.4739 22.9032V25.0899H22.0053V22.9032C22.0053 22.5859 22.171 22.4409 22.4193 22.4409C22.6814 22.4409 22.833 22.5859 22.833 22.9032V25.0899H24.3713V22.6066C24.3713 21.4682 23.7713 21.0889 23.0262 21.0889C22.3777 21.0889 21.9778 21.4616 21.8811 21.8063H21.826C21.5915 21.2684 21.2465 21.0889 20.7361 21.0889C20.191 21.0889 19.8047 21.4131 19.7082 21.7443H19.6531V21.1925H18.1215V25.0899ZM26.9307 25.1935C28.1309 25.1935 29 24.3381 29 23.1379C29 21.903 28.1309 21.0889 26.9307 21.0889C25.7234 21.0889 24.8543 21.903 24.8543 23.1379C24.8543 24.3381 25.5856 25.1935 26.9307 25.1935ZM26.9307 23.8415C26.5514 23.8415 26.2546 23.5998 26.2546 23.1379C26.2546 22.6895 26.5444 22.4409 26.9307 22.4409C27.3032 22.4409 27.5997 22.6826 27.5997 23.1379C27.5997 23.5998 27.3032 23.8415 26.9307 23.8415Z" fill="#1D77FE"/>
<path d="M9.48916 5.72586C9.58843 5.60889 9.69847 5.45293 9.62742 5.31467C10.0245 5.08074 10.3754 4.77216 10.6624 4.41073C10.5065 4.53488 10.3364 4.63415 10.1556 4.71213C11.5133 3.37213 13.5551 2.76241 15.4302 3.13819C13.9201 3.08151 12.3818 3.48192 11.1339 4.33276C9.88265 5.18001 8.93279 6.48076 8.56778 7.94825C9.12056 6.3425 10.2869 4.95659 11.7757 4.1414C11.6587 4.26196 11.5415 4.38585 11.4212 4.50641C11.9883 4.27248 12.5021 3.92157 13.0659 3.67686C14.7212 2.95376 16.7132 3.22669 18.2551 4.16962C19.797 5.11254 20.9066 6.65801 21.5517 8.34533C21.8352 9.08253 22.0337 9.90131 21.7821 10.6493C21.7254 9.67456 21.4063 8.73522 20.9915 7.85257C20.3038 6.38149 19.3186 5.00276 17.9327 4.1591C16.5467 3.31903 14.714 3.09561 13.2963 3.88617C14.023 3.8082 14.7566 3.76561 15.4761 3.86848C16.8302 4.05983 18.0814 4.76882 19.0313 5.75048C19.9778 6.73599 20.6337 7.98006 21.02 9.288C21.3958 10.5677 21.5197 11.9785 21.0377 13.2262C22.4449 10.9504 22.211 7.78178 20.4919 5.73637C19.7723 4.8822 18.8399 4.22631 17.8334 3.75151C16.6706 3.20566 15.3945 2.89015 14.1115 2.92555C12.8284 2.96095 11.5451 3.36161 10.5208 4.13422C11.3714 3.38265 12.4808 2.95736 13.6082 2.84039C14.7389 2.72701 15.8837 2.91144 16.9579 3.27286C19.1908 4.03136 21.2255 5.70457 21.8814 7.96954C22.0478 8.55079 22.1222 9.15333 22.1897 9.75612C22.2464 10.2771 22.2925 10.7981 22.2818 11.3226C22.2323 13.9139 20.5768 16.4449 18.163 17.3911C17.4789 17.6571 16.7558 17.8023 16.0291 17.9052C14.8664 18.068 13.6613 18.1178 12.5411 17.7705C11.9634 17.5897 11.4245 17.3095 10.9248 16.9658C8.85481 15.5478 7.54688 13.0774 7.54688 10.5677C7.54688 10.1211 7.58586 9.67815 7.64614 9.23849C7.69924 8.83449 7.77004 8.43382 7.88701 8.04393C8.06425 7.4696 8.34077 6.92734 8.70604 6.44895C8.76965 6.40997 8.83352 6.36738 8.8938 6.3248C8.05374 8.10062 7.5538 10.1991 8.32307 12.0103C8.04655 10.8301 8.02886 9.59299 8.27356 8.40894C8.35154 8.38072 8.42952 8.34892 8.50391 8.31685C8.5075 8.23887 8.51084 8.16449 8.51443 8.08651C8.45774 8.15038 8.40464 8.21399 8.34795 8.27427C8.47903 7.33494 8.88303 6.44536 9.48916 5.72586ZM10.0599 5.67968C10.2797 5.53091 10.4995 5.38188 10.7194 5.2331C10.5811 5.51321 10.3259 5.73278 10.0281 5.83205C8.64576 7.26055 8.22021 9.39086 8.38335 11.3688C8.44722 12.1168 8.59959 12.893 9.08157 13.4673C8.74503 12.0847 8.72707 10.6244 9.03565 9.2349C9.09593 9.23131 9.11697 9.30929 9.11697 9.36957C9.14185 10.302 8.9823 11.2341 9.04976 12.1663C9.11697 13.0951 9.46454 14.077 10.2443 14.5839C10.854 14.9807 11.4602 15.3778 12.0663 15.7749C10.6483 15.3211 9.41118 14.3356 8.64576 13.0597C8.85122 13.6161 9.13826 14.1442 9.49275 14.6193C9.44684 14.4915 9.40426 14.3605 9.35808 14.2294C9.71617 14.5662 10.0776 14.8958 10.4357 15.229C10.6981 15.4735 11.1093 15.7215 11.3786 15.4876C11.4212 15.5763 11.3432 15.6861 11.2475 15.711C11.1516 15.7395 11.049 15.711 10.9533 15.6825C11.3822 15.9911 11.8288 16.2745 12.2895 16.5333C12.2223 16.5439 12.201 16.6431 12.2436 16.6998C12.2859 16.7568 12.3569 16.7709 12.4241 16.7886C14.115 17.1536 15.9157 17.0189 17.532 16.3951C16.1425 16.7211 14.6609 16.7958 13.314 16.3243C12.1761 15.9272 11.1801 15.1438 10.5278 14.1337C10.3187 13.8074 10.1451 13.4637 9.98551 13.1128C9.47146 11.9572 9.14544 10.6955 9.23753 9.43344C9.32987 8.17167 9.88265 6.91324 10.8753 6.13345C10.9779 6.05188 11.1057 5.9739 11.2332 6.00571C10.2548 6.7147 9.67359 7.88797 9.52122 9.08612C9.36886 10.2876 9.6169 11.5071 10.053 12.6342C10.3649 13.4319 10.7794 14.2045 11.3501 14.8424C11.5948 15.1154 11.8714 15.3637 12.1866 15.5514C12.7645 15.8987 13.4486 16.0301 14.1186 16.115C15.0295 16.2319 15.9475 16.2817 16.8656 16.2604C15.7064 16.5333 14.4942 16.3384 13.3209 16.1435C15.3132 16.8914 17.649 16.4341 19.3612 15.1756C19.7013 14.924 20.024 14.6442 20.2825 14.3074C20.6796 13.7897 20.9171 13.159 21.0377 12.5172C21.3496 10.8442 20.903 9.09664 20.0912 7.59735C19.5276 6.55515 18.7797 5.59119 17.7944 4.9353C16.8728 4.32557 15.7775 4.00314 14.675 3.94286C12.9808 3.84359 11.1872 4.40355 10.0599 5.67968ZM13.3884 17.1926C14.1504 17.3839 14.9197 17.5222 15.6995 17.6145C14.7425 17.8341 13.757 17.4976 12.832 17.168C12.2859 16.9763 11.7331 16.7778 11.2262 16.4944C9.99961 15.8138 9.07798 14.6475 8.5429 13.3503C8.45081 13.12 8.36565 12.8894 8.29486 12.6554C8.28767 12.6272 8.26638 12.6944 8.29486 12.6803C8.32307 12.6698 8.31948 12.6272 8.30537 12.5988C7.98627 11.8297 7.79133 11.0038 7.73105 10.1742C7.67077 11.4291 7.98268 12.6908 8.54982 13.8146C9.16673 15.0374 10.092 16.1116 11.2545 16.8381C12.4136 17.5648 13.8101 17.9334 15.1713 17.8023C17.0854 17.6145 18.7655 16.4979 20.3074 15.3529C19.6269 16.2532 18.5955 16.8099 17.5923 17.3344C19.3255 16.8489 20.715 15.477 21.5517 13.8821C21.137 14.5908 20.4883 15.1474 19.7829 15.5655C19.0739 15.9839 18.2977 16.2745 17.5215 16.5546C17.1811 16.6788 16.8374 16.7991 16.4865 16.8984C15.4833 17.1856 14.427 17.2849 13.3884 17.1926ZM20.4775 14.7965C20.6547 14.6298 20.8287 14.4597 20.9702 14.2684C21.1937 13.96 21.3424 13.602 21.4843 13.2475C21.6756 12.7655 21.8706 12.2797 21.9204 11.7623C21.828 11.8439 21.7962 11.9644 21.7608 12.0814C21.2893 13.7153 20.1233 15.1402 18.6096 15.92C19.3222 15.7605 19.9352 15.2962 20.4775 14.7965ZM11.8147 16.5333C11.8891 16.551 11.9811 16.5829 11.9847 16.6575C12.013 16.6077 12.0981 16.6077 12.1299 16.6575C12.1443 16.6539 12.1335 16.629 12.1158 16.6218C12.0096 16.5652 11.9032 16.5085 11.8003 16.4518C11.3714 16.2214 10.9779 15.9344 10.627 15.6012C10.5845 15.6933 10.6165 15.8102 10.6981 15.8669C10.854 15.9803 11.01 16.0937 11.166 16.2073C11.3537 16.3633 11.5771 16.4767 11.8147 16.5333ZM22.0514 11.1738C22.0373 11.4363 22.023 11.702 22.0053 11.9644C22.0019 11.9998 22.0019 12.0352 22.0019 12.0706C21.9983 12.1345 21.9947 12.1983 21.9876 12.2586C21.984 12.3366 21.9806 12.4074 21.9806 12.4854C22.1294 11.8828 22.1825 11.2518 22.1366 10.6352C22.1189 10.628 22.1009 10.6175 22.0868 10.6067C22.0763 10.7945 22.0619 10.9825 22.0514 11.1738ZM8.27356 7.28902C8.24868 7.33494 8.22739 7.38111 8.2061 7.42728C8.23098 7.45909 8.2769 7.4201 8.28767 7.38111C8.29819 7.34571 8.30896 7.29595 8.34795 7.29261C8.33025 7.27466 8.31255 7.25696 8.29486 7.23926C8.28767 7.25362 8.28049 7.27466 8.28767 7.28902M10.8505 4.34686C10.8859 4.31865 10.9213 4.29018 10.9566 4.25837C10.8964 4.23349 10.8184 4.26529 10.7938 4.32917C10.8115 4.33635 10.8292 4.34327 10.8505 4.34686ZM10.9602 4.18039C11.0382 4.19809 11.127 4.1768 11.1906 4.1237C11.1093 4.12011 11.0277 4.13781 10.9602 4.18039ZM8.1389 7.77818C8.13531 7.76049 8.13172 7.74279 8.13172 7.72842C8.06425 7.7533 8.03245 7.84539 8.07144 7.90567C8.08554 7.85975 8.10683 7.81717 8.1389 7.77818ZM7.73823 9.5858C7.72053 9.61068 7.73464 9.65327 7.7667 9.65686C7.7844 9.60017 7.78081 9.53989 7.76311 9.47961C7.72771 9.49731 7.71694 9.54681 7.73823 9.57888" fill="#1D77FE"/>
<path d="M10.1281 4.72998C10.135 4.7405 10.1422 4.7546 10.1493 4.76538C10.1173 4.81129 10.057 4.83258 10.0039 4.81848C10.0324 4.77949 10.075 4.75127 10.1209 4.7405" fill="#1D77FE"/>
<path d="M9.84582 4.95672C9.89559 4.93902 9.94868 4.92825 10.0018 4.93184C9.99126 5.00982 9.85993 5.03111 9.82812 4.95672" fill="#1D77FE"/>
<path d="M9.67036 4.79369C9.70242 4.74418 9.76244 4.70878 9.82632 4.71571C9.84042 4.75136 9.82991 4.79369 9.80143 4.81857C9.75193 4.82575 9.69165 4.83268 9.65625 4.79369" fill="#1D77FE"/>
<path d="M19.6062 5.02734C19.6275 5.024 19.6488 5.04504 19.6452 5.06633C19.6416 5.08762 19.617 5.10198 19.5957 5.0948C19.5636 5.0594 19.5318 5.02041 19.5 4.98142C19.5354 4.95295 19.599 4.97783 19.6062 5.02041" fill="#1D77FE"/>
<path d="M9.99021 4.50308C10.0151 4.47486 10.0646 4.47486 10.0931 4.49949C10.0469 4.54566 9.98662 4.57747 9.92275 4.59876C9.91582 4.55977 9.95122 4.51385 9.99021 4.51719" fill="#1D77FE"/>
<path d="M9.4071 7.79979C9.4389 7.75362 9.52406 7.77132 9.53458 7.82801C9.492 7.82108 9.44608 7.83519 9.41761 7.867C9.39991 7.87418 9.37144 7.86007 9.37144 7.83878C9.3681 7.82108 9.3894 7.79979 9.41043 7.80313" fill="#1D77FE"/>
<path d="M11.4345 5.53115C11.4522 5.52397 11.4771 5.51679 11.4948 5.52397C11.5161 5.53115 11.5266 5.56296 11.5125 5.57707C11.445 5.61965 11.367 5.64453 11.2891 5.64812C11.3247 5.59836 11.3778 5.55937 11.4345 5.53115Z" fill="#1D77FE"/>
<path d="M12.4831 16.6078C12.5188 16.6327 12.5578 16.6576 12.5932 16.6822C12.5152 16.7142 12.4231 16.6965 12.3592 16.6399C12.3451 16.615 12.3734 16.5796 12.3982 16.5796C12.43 16.576 12.4585 16.5937 12.4831 16.6078Z" fill="#1D77FE"/>
<path d="M10.8629 5.20452C10.8452 5.15142 10.8593 5.08755 10.9019 5.04856C10.9304 5.04164 10.9586 5.02035 10.9694 4.98828C11.0153 5.00598 11.0579 5.02394 11.104 5.04164C11.0261 5.09473 10.9445 5.14783 10.8629 5.20452Z" fill="#1D77FE"/>
<path d="M9.13348 9.01171C9.13348 8.99042 9.13348 8.96913 9.13348 8.94784C9.16888 8.93014 9.20787 8.93014 9.23967 8.94425C9.17606 9.01171 9.14041 9.1038 9.14759 9.19589C9.1086 9.16767 9.06602 9.13561 9.02344 9.10739C9.05909 9.07892 9.09808 9.04711 9.13707 9.01505" fill="#1D77FE"/>
<path d="M8.89844 5.88212C8.91255 5.77208 8.97642 5.67281 9.06491 5.6056C9.08979 5.5879 9.12878 5.57713 9.14289 5.60201C9.06491 5.67999 9.00104 5.76849 8.95513 5.86776C8.94435 5.88571 8.91614 5.89623 8.89844 5.88212Z" fill="#1D77FE"/>
<path d="M9.26172 8.07947C9.33251 8.02637 9.39998 7.97328 9.47077 7.91992C9.45307 7.98738 9.43538 8.04766 9.41768 8.11487C9.39279 8.12923 9.3751 8.15411 9.35047 8.16822C9.32559 8.18233 9.29019 8.18592 9.27249 8.16104C9.25813 8.13616 9.29712 8.10076 9.31148 8.12564C9.29712 8.11153 9.27942 8.09717 9.26172 8.07947Z" fill="#1D77FE"/>
<path d="M11.9633 5.33254C11.9561 5.35024 11.9492 5.36794 11.9561 5.38923C11.8994 5.39975 11.8463 5.41052 11.7966 5.42104C11.7896 5.44233 11.7825 5.46362 11.7755 5.48491C11.733 5.48132 11.6904 5.48132 11.6514 5.48132C11.616 5.46362 11.6514 5.41411 11.6868 5.39641C11.7576 5.36076 11.8322 5.33947 11.9102 5.32895C11.8994 5.31125 11.8889 5.29714 11.8781 5.27944C11.9348 5.23327 12.0023 5.20147 12.0767 5.18018C12.0908 5.2048 12.0944 5.23327 12.0874 5.26149C12.0626 5.27226 12.0377 5.27585 12.0128 5.26867C12.0164 5.28637 12.02 5.30407 12.0236 5.32536C11.9987 5.33254 11.981 5.33613 11.9633 5.33254Z" fill="#1D77FE"/>
<path d="M9.19241 5.66594C9.22063 5.64824 9.25962 5.64106 9.29168 5.64824C9.27731 5.63054 9.2668 5.61258 9.25602 5.59488C9.29168 5.58796 9.32708 5.58078 9.36607 5.57718C9.38018 5.54179 9.38018 5.49921 9.36607 5.46381C9.40506 5.46022 9.44764 5.4674 9.48303 5.48151C9.49355 5.49561 9.49714 5.5169 9.49355 5.5346C9.47585 5.54179 9.45456 5.54897 9.43327 5.55589C9.42635 5.59155 9.41557 5.62695 9.40865 5.66235C9.39095 5.67286 9.36248 5.67645 9.34119 5.66953C9.30938 5.86088 9.10007 5.97067 9.02568 6.14792C9.0008 6.2082 8.97617 6.28617 8.9123 6.28617C8.8946 6.26488 8.89819 6.2259 8.92282 6.2082C8.89819 6.20101 8.8769 6.19409 8.85561 6.18691C8.85202 6.14792 8.91589 6.15869 8.9477 6.18331C8.97617 6.15869 8.95129 6.10174 8.91589 6.10174C8.95488 6.06994 8.97976 6.02043 8.98669 5.97067C9.02568 5.97426 9.06467 5.96015 9.08955 5.93168C9.06108 5.93886 9.02927 5.91757 9.02209 5.88576C9.07878 5.89628 9.13572 5.84318 9.13213 5.7865C9.17471 5.76161 9.21704 5.73673 9.25962 5.71185C9.24192 5.70133 9.21704 5.68364 9.19241 5.66594Z" fill="#1D77FE"/>
<path d="M20.3252 5.85361C20.2472 5.74742 20.1656 5.64456 20.0666 5.5558C19.9284 5.43191 19.7511 5.32187 19.7227 5.1377C20.5558 5.84309 21.1973 6.77525 21.5552 7.80667C21.5872 7.83514 21.5518 7.89901 21.5128 7.88824C21.2009 7.16873 20.8002 6.48103 20.3252 5.85361Z" fill="#1D77FE"/>
<path d="M10.9692 5.29361C11.1144 5.17664 11.2812 5.0666 11.3414 4.88935C11.3591 4.83985 11.4086 4.80086 11.4548 4.77238C12.1707 4.32221 13.0075 4.07417 13.8509 4.06006C13.4292 4.17344 13.0108 4.28322 12.5891 4.39685C11.9335 4.57051 11.4512 5.11277 11.0082 5.63041C10.6253 6.08058 10.239 6.53075 9.85625 6.98426C9.81008 7.10841 9.7675 7.2359 9.72159 7.36005C9.70389 7.41673 9.6826 7.47342 9.63284 7.50882C9.58692 7.54448 9.50894 7.54448 9.48047 7.49112C9.65053 7.19357 9.82086 6.89217 9.99451 6.59078C10.271 6.1229 10.5473 5.64092 10.9692 5.29361Z" fill="#1D77FE"/>
</g>
<defs>
<clipPath id="clip0_10754_14621">
<rect width="28" height="22.3862" fill="white" transform="translate(1 2.80713)"/>
</clipPath>
</defs>
</svg>
