<svg width="29" height="33" viewBox="0 0 29 33" fill="none" xmlns="http://www.w3.org/2000/svg">
<path d="M19.9635 1.75737C21.1433 2.64829 21.8749 3.796 22.1947 5.24118C22.2119 5.31742 22.2119 5.31742 22.2294 5.3952C22.2593 5.56475 22.2664 5.71968 22.2654 5.89167C22.2652 5.95176 22.265 6.01185 22.2647 6.07376C22.2642 6.13568 22.2637 6.1976 22.2631 6.26139C22.2628 6.32456 22.2625 6.38773 22.2622 6.45281C22.2615 6.6081 22.2604 6.76339 22.2591 6.91869C22.3364 6.91494 22.4136 6.9112 22.4933 6.90734C24.2497 6.84899 25.6591 7.41293 26.9397 8.60829C27.9418 9.65847 28.4782 11.033 28.4636 12.4835C28.4246 13.7579 27.9548 15.0669 27.0773 16.003C27.044 16.0389 27.0106 16.0747 26.9763 16.1117C26.5095 16.6095 26.0234 17.0885 25.5394 17.5694C25.4307 17.6776 25.3221 17.7858 25.2136 17.894C24.9814 18.1253 24.7492 18.3565 24.5169 18.5877C24.1497 18.9531 23.783 19.319 23.4164 19.685C23.3537 19.7476 23.291 19.8102 23.2283 19.8727C23.1334 19.9675 23.0384 20.0622 22.9435 20.157C22.5874 20.5125 22.2312 20.8679 21.875 21.2233C21.8425 21.2557 21.81 21.2882 21.7765 21.3216C21.248 21.8489 20.7189 22.3756 20.1896 22.9021C19.6448 23.444 19.1008 23.9866 18.5575 24.5299C18.2529 24.8344 17.9479 25.1386 17.6421 25.4419C17.3552 25.7265 17.0693 26.0119 16.784 26.2981C16.679 26.403 16.5737 26.5076 16.4681 26.6119C16.3242 26.7539 16.1816 26.8971 16.0393 27.0407C15.997 27.0819 15.9547 27.1231 15.9111 27.1656C15.6802 27.4005 15.6802 27.4005 15.5955 27.7143C15.6314 27.9153 15.6818 27.9938 15.8221 28.1399C15.8634 28.1837 15.9048 28.2275 15.9474 28.2727C15.9902 28.3159 16.0331 28.3591 16.0772 28.4037C16.1158 28.4435 16.1544 28.4832 16.1941 28.5242C16.3127 28.6449 16.4328 28.7639 16.5534 28.8826C16.6423 28.9708 16.7312 29.0591 16.8201 29.1474C16.9585 29.2845 17.097 29.4214 17.2356 29.5581C17.3707 29.6916 17.5054 29.8254 17.64 29.9592C17.7024 30.0204 17.7024 30.0204 17.7661 30.0829C17.8238 30.1404 17.8238 30.1404 17.8827 30.1991C17.9165 30.2325 17.9504 30.2659 17.9852 30.3003C18.2133 30.5678 18.2266 30.8077 18.2181 31.148C18.1858 31.4723 18.0518 31.6688 17.8118 31.8757C17.5747 32.0526 17.4554 32.0961 17.1639 32.1095C17.1053 32.1134 17.0467 32.1174 16.9863 32.1214C16.4764 32.0196 16.0687 31.5135 15.7125 31.1591C15.6356 31.083 15.6356 31.083 15.5572 31.0053C15.4496 30.8984 15.3421 30.7913 15.2348 30.684C15.0719 30.5215 14.9077 30.3603 14.7436 30.199C14.6385 30.0944 14.5335 29.9897 14.4286 29.8849C14.3801 29.8375 14.3316 29.7902 14.2816 29.7414C13.764 29.2183 13.3736 28.5876 13.3566 27.8391C13.3774 26.9015 13.703 26.2871 14.3688 25.6343C14.4159 25.587 14.463 25.5398 14.5115 25.4912C14.6679 25.3346 14.8253 25.179 14.9826 25.0234C15.0956 24.9107 15.2085 24.798 15.3213 24.6852C15.5637 24.4431 15.8065 24.2015 16.0496 23.9602C16.4017 23.6106 16.7529 23.2602 17.104 22.9096C17.6745 22.3398 18.2455 21.7705 18.8169 21.2016C18.851 21.1676 18.8852 21.1336 18.9203 21.0986C19.1972 20.8229 19.4741 20.5472 19.751 20.2716C19.993 20.0307 20.235 19.7898 20.4769 19.5489C20.511 19.5149 20.5451 19.481 20.5802 19.4461C21.1495 18.8792 21.7183 18.3118 22.2867 17.7441C22.6366 17.3946 22.987 17.0456 23.338 16.6972C23.6072 16.4299 23.8757 16.162 24.144 15.8938C24.2538 15.7843 24.3638 15.6751 24.474 15.566C25.4126 14.6373 26.1927 13.7647 26.2113 12.3746C26.2134 11.4625 25.8984 10.7555 25.2856 10.0801C24.5076 9.33746 23.623 9.12916 22.5805 9.15293C21.3855 9.21634 20.5646 10.1366 19.7773 10.9359C19.6854 11.0285 19.5934 11.121 19.5013 11.2136C19.3044 11.4117 19.1078 11.6101 18.9114 11.8088C18.6007 12.123 18.2892 12.4365 17.9776 12.7498C17.2043 13.5276 16.432 14.3065 15.6599 15.0856C15.0588 15.6922 14.4573 16.2986 13.855 16.904C13.5453 17.2154 13.2362 17.5274 12.9275 17.8398C12.7356 18.0338 12.5431 18.2274 12.3504 18.4207C12.2613 18.5104 12.1724 18.6003 12.0837 18.6905C11.9625 18.8136 11.8406 18.9359 11.7184 19.0581C11.6836 19.0938 11.6488 19.1295 11.613 19.1664C11.3516 19.4252 11.0819 19.6096 10.7041 19.6429C10.3224 19.5929 10.0569 19.4996 9.80028 19.1928C9.57857 18.8769 9.5241 18.6569 9.57339 18.2741C9.7083 17.9421 9.89791 17.7288 10.1486 17.4827C10.1873 17.4439 10.2261 17.4051 10.2661 17.3651C10.3957 17.2355 10.5259 17.1066 10.6562 16.9778C10.7494 16.8848 10.8426 16.7918 10.9358 16.6988C11.1363 16.4987 11.3372 16.2989 11.5382 16.0994C11.8565 15.7834 12.174 15.4667 12.4913 15.1498C13.2799 14.3627 14.0695 13.5766 14.8593 12.7908C15.4728 12.1804 16.0861 11.5697 16.6984 10.9581C17.0135 10.6435 17.3291 10.3295 17.6452 10.016C17.8424 9.82017 18.039 9.62382 18.2354 9.42732C18.3262 9.33677 18.4172 9.24644 18.5084 9.15636C19.3706 8.30441 20.0245 7.5064 20.0375 6.24526C20.0258 5.27942 19.7177 4.49276 19.0243 3.80889C18.1792 3.11682 17.2658 2.96145 16.206 3.04751C15.0194 3.24836 14.1665 4.2813 13.3643 5.09322C13.2423 5.21583 13.1201 5.3384 12.9979 5.46089C12.7361 5.72346 12.4749 5.98648 12.2139 6.24983C11.8364 6.63077 11.458 7.01093 11.0795 7.39089C10.465 8.00784 9.85094 8.62531 9.23729 9.24317C9.20066 9.28005 9.16403 9.31692 9.1263 9.35492C9.08962 9.39184 9.05295 9.42877 9.01516 9.46682C8.49403 9.99152 7.97277 10.5161 7.45135 11.0405C7.41459 11.0775 7.37784 11.1145 7.33997 11.1525C6.72746 11.7686 6.1147 12.3843 5.5018 12.9999C5.12419 13.3793 4.74685 13.7589 4.36986 14.1388C4.11199 14.3987 3.8539 14.6583 3.59564 14.9178C3.44663 15.0675 3.29777 15.2174 3.14911 15.3675C2.9881 15.53 2.82671 15.6921 2.66521 15.8542C2.61817 15.9019 2.57113 15.9496 2.52267 15.9987C2.45774 16.0636 2.45774 16.0636 2.3915 16.1298C2.35429 16.1673 2.31709 16.2047 2.27876 16.2433C2.00105 16.4821 1.7405 16.5032 1.38424 16.4961C1.0809 16.4486 0.889951 16.3058 0.686975 16.0805C0.495526 15.7628 0.415181 15.4147 0.493792 15.0481C0.699472 14.6953 0.969255 14.4244 1.25716 14.1374C1.30847 14.0858 1.35978 14.0341 1.41264 13.9809C1.58445 13.8081 1.75671 13.6358 1.92899 13.4634C2.05239 13.3396 2.17569 13.2156 2.299 13.0917C2.59918 12.7901 2.8997 12.4889 3.20035 12.1878C3.44487 11.9429 3.68927 11.6979 3.9336 11.4528C3.9684 11.4179 4.00321 11.383 4.03907 11.347C4.10979 11.2761 4.18051 11.2052 4.25123 11.1342C4.91425 10.4692 5.57769 9.80463 6.24125 9.14017C6.84753 8.53305 7.45327 7.92541 8.05877 7.31751C8.68114 6.69267 9.30388 6.06819 9.927 5.44409C10.2766 5.09397 10.626 4.74371 10.975 4.39308C11.2723 4.09447 11.5699 3.79621 11.8679 3.49838C12.0198 3.3466 12.1714 3.19462 12.3228 3.0423C12.4873 2.87675 12.6525 2.7118 12.8178 2.54699C12.8884 2.47555 12.8884 2.47555 12.9604 2.40267C13.7892 1.58081 14.7558 1.10446 15.884 0.853848C15.9361 0.841372 15.9881 0.828897 16.0418 0.816043C17.4164 0.592474 18.8235 0.987327 19.9635 1.75737Z" fill="#1D77FE"/>
<path d="M17.1747 5.15678C17.4938 5.30042 17.6797 5.47153 17.88 5.75737C17.9745 6.04153 18.0152 6.31684 17.8851 6.59284C17.6949 6.89133 17.4894 7.14341 17.2371 7.3908C17.1996 7.42842 17.162 7.46603 17.1233 7.50479C16.9986 7.6295 16.8731 7.7535 16.7477 7.87752C16.6576 7.9673 16.5676 8.05712 16.4776 8.14699C16.2843 8.33987 16.0906 8.53244 15.8968 8.72479C15.5899 9.02937 15.2837 9.33472 14.9777 9.6402C14.2175 10.3989 13.4563 11.1565 12.6949 11.9139C12.103 12.5027 11.5114 13.0917 10.9207 13.6816C10.6169 13.9849 10.3126 14.2875 10.0078 14.5897C9.81774 14.7784 9.62824 14.9676 9.43889 15.157C9.35146 15.2442 9.26381 15.3312 9.17591 15.418C8.36691 16.2169 7.68648 17.0152 7.6775 18.2056C7.69078 19.1062 7.93451 19.9433 8.55437 20.6213C9.33189 21.3151 10.1652 21.5465 11.1823 21.5086C12.6013 21.4154 13.524 20.2622 14.457 19.3198C14.5434 19.2328 14.6298 19.1458 14.7162 19.0589C14.9006 18.8732 15.085 18.6875 15.2692 18.5017C15.5607 18.2078 15.8526 17.9143 16.1445 17.6208C16.2448 17.52 16.3451 17.4192 16.4454 17.3184C16.4956 17.2679 16.5458 17.2175 16.5975 17.1655C17.276 16.4834 17.9542 15.8009 18.6317 15.1178C19.0904 14.6554 19.5496 14.1934 20.0092 13.7319C20.252 13.4881 20.4946 13.2441 20.7365 12.9995C20.9636 12.77 21.1912 12.5411 21.4193 12.3127C21.5029 12.2288 21.5862 12.1447 21.6693 12.0603C21.7828 11.9452 21.897 11.831 22.0114 11.7169C22.0441 11.6833 22.0767 11.6498 22.1104 11.6153C22.3804 11.3489 22.6211 11.2614 22.9913 11.2133C23.3775 11.26 23.6357 11.4517 23.8968 11.7335C24.0726 12.0013 24.0876 12.2165 24.0618 12.5319C23.9231 12.9104 23.7033 13.1867 23.42 13.4663C23.3817 13.5051 23.3435 13.5438 23.3041 13.5838C23.1768 13.7125 23.0486 13.8403 22.9204 13.9681C22.8285 14.0606 22.7367 14.1532 22.6449 14.2458C22.396 14.4966 22.1463 14.7466 21.8964 14.9965C21.6873 15.2056 21.4787 15.4151 21.27 15.6246C20.7773 16.1194 20.2839 16.6136 19.79 17.1073C19.2821 17.6152 18.7751 18.1241 18.2687 18.6336C17.8328 19.072 17.3963 19.5099 16.9593 19.9472C16.6988 20.2079 16.4385 20.4688 16.1788 20.7304C15.9342 20.9767 15.6887 21.2221 15.4427 21.4671C15.3531 21.5565 15.2638 21.6463 15.1747 21.7363C14.0212 22.9019 12.6293 23.7641 10.9415 23.7785C9.41326 23.7825 8.08125 23.203 6.98576 22.1393C5.9881 21.1309 5.42934 19.7226 5.41162 18.3064C5.43492 16.445 6.39496 15.1045 7.66105 13.842C7.7538 13.7488 7.84651 13.6555 7.93918 13.5623C8.18924 13.3108 8.43991 13.06 8.69072 12.8093C8.95372 12.5463 9.21625 12.2828 9.47886 12.0194C9.91946 11.5776 10.3605 11.1362 10.8017 10.695C11.3116 10.1852 11.8208 9.67465 12.3297 9.16375C12.7673 8.72437 13.2053 8.28537 13.6437 7.84669C13.9052 7.58498 14.1665 7.32315 14.4276 7.06097C14.6727 6.81481 14.9183 6.56912 15.1643 6.32379C15.2544 6.23373 15.3444 6.14351 15.4342 6.05311C15.5568 5.92972 15.68 5.80694 15.8034 5.6843C15.8564 5.63051 15.8564 5.63051 15.9105 5.57564C16.2713 5.21957 16.6554 4.98105 17.1747 5.15678Z" fill="#1D77FE"/>
</svg>
