<svg width="28" height="32" viewBox="0 0 28 32" fill="none" xmlns="http://www.w3.org/2000/svg">
<path d="M19.4997 1.00347C20.6794 1.89438 21.4111 3.0421 21.7308 4.48727C21.748 4.56351 21.748 4.56351 21.7655 4.64129C21.7954 4.81084 21.8026 4.96578 21.8015 5.13776C21.8013 5.19785 21.8011 5.25794 21.8009 5.31985C21.8003 5.38177 21.7998 5.44369 21.7992 5.50749C21.7989 5.57065 21.7987 5.63382 21.7984 5.6989C21.7976 5.8542 21.7965 6.00949 21.7952 6.16478C21.8725 6.16104 21.9498 6.15729 22.0294 6.15344C23.7858 6.09509 25.1952 6.65903 26.4759 7.85438C27.478 8.90456 28.0144 10.2791 27.9997 11.7296C27.9608 13.004 27.4909 14.313 26.6135 15.2491C26.5801 15.285 26.5468 15.3208 26.5124 15.3577C26.0456 15.8556 25.5595 16.3346 25.0755 16.8155C24.9669 16.9237 24.8583 17.0319 24.7497 17.1401C24.5176 17.3714 24.2853 17.6026 24.0531 17.8338C23.6859 18.1992 23.3191 18.5651 22.9525 18.9311C22.8898 18.9937 22.8271 19.0562 22.7644 19.1188C22.6695 19.2136 22.5746 19.3083 22.4797 19.4031C22.1235 19.7586 21.7674 20.114 21.4111 20.4694C21.3786 20.5018 21.3462 20.5343 21.3127 20.5677C20.7841 21.095 20.255 21.6217 19.7257 22.1482C19.1809 22.6901 18.6369 23.2327 18.0936 23.776C17.789 24.0805 17.484 24.3847 17.1782 24.688C16.8914 24.9726 16.6054 25.258 16.3201 25.5442C16.2151 25.6491 16.1098 25.7537 16.0042 25.858C15.8604 26 15.7178 26.1432 15.5754 26.2868C15.5331 26.328 15.4908 26.3692 15.4472 26.4117C15.2163 26.6466 15.2163 26.6466 15.1317 26.9604C15.1676 27.1614 15.2179 27.2399 15.3582 27.386C15.3996 27.4298 15.4409 27.4736 15.4835 27.5188C15.5263 27.562 15.5692 27.6052 15.6134 27.6498C15.6519 27.6896 15.6905 27.7293 15.7303 27.7703C15.8488 27.891 15.9689 28.01 16.0895 28.1286C16.1784 28.2169 16.2674 28.3052 16.3563 28.3935C16.4946 28.5306 16.6331 28.6675 16.7717 28.8042C16.9068 28.9376 17.0415 29.0715 17.1762 29.2053C17.2386 29.2665 17.2386 29.2665 17.3022 29.3289C17.3599 29.3865 17.3599 29.3865 17.4189 29.4452C17.4527 29.4786 17.4865 29.512 17.5213 29.5464C17.7494 29.8139 17.7627 30.0538 17.7542 30.3941C17.7219 30.7184 17.5879 30.9149 17.348 31.1217C17.1109 31.2987 16.9916 31.3422 16.7 31.3556C16.6414 31.3595 16.5828 31.3634 16.5224 31.3675C16.0126 31.2657 15.6048 30.7596 15.2486 30.4052C15.1718 30.3291 15.1718 30.3291 15.0934 30.2514C14.9857 30.1445 14.8782 30.0374 14.7709 29.9301C14.608 29.7676 14.4439 29.6064 14.2797 29.4451C14.1746 29.3405 14.0697 29.2358 13.9648 29.131C13.9163 29.0836 13.8677 29.0363 13.8178 28.9875C13.3001 28.4644 12.9098 27.8337 12.8927 27.0852C12.9135 26.1476 13.2392 25.5332 13.905 24.8803C13.9521 24.8331 13.9991 24.7859 14.0476 24.7373C14.2041 24.5807 14.3614 24.4251 14.5188 24.2695C14.6317 24.1568 14.7446 24.0441 14.8574 23.9313C15.0998 23.6892 15.3426 23.4476 15.5857 23.2063C15.9378 22.8567 16.2891 22.5063 16.6401 22.1557C17.2106 21.5859 17.7816 21.0166 18.353 20.4477C18.3872 20.4137 18.4213 20.3797 18.4565 20.3447C18.7334 20.069 19.0103 19.7933 19.2872 19.5176C19.5292 19.2768 19.7711 19.0359 20.0131 18.795C20.0471 18.761 20.0812 18.7271 20.1163 18.6922C20.6856 18.1253 21.2544 17.5579 21.8228 16.9902C22.1727 16.6407 22.5231 16.2917 22.8741 15.9433C23.1433 15.676 23.4119 15.4081 23.6802 15.1399C23.7899 15.0304 23.8999 14.9212 24.0101 14.8121C24.9487 13.8834 25.7288 13.0108 25.7474 11.6207C25.7495 10.7086 25.4346 10.0016 24.8217 9.32624C24.0437 8.58355 23.1591 8.37525 22.1167 8.39902C20.9217 8.46243 20.1008 9.38271 19.3135 10.182C19.2215 10.2746 19.1295 10.3671 19.0375 10.4597C18.8405 10.6578 18.6439 10.8562 18.4475 11.0549C18.1368 11.3691 17.8253 11.6826 17.5137 11.9959C16.7404 12.7737 15.9681 13.5526 15.196 14.3317C14.5949 14.9383 13.9934 15.5446 13.3911 16.1501C13.0814 16.4615 12.7723 16.7734 12.4637 17.0859C12.2717 17.2799 12.0792 17.4735 11.8865 17.6668C11.7974 17.7565 11.7085 17.8464 11.6198 17.9366C11.4987 18.0597 11.3767 18.182 11.2545 18.3042C11.2197 18.3399 11.185 18.3756 11.1491 18.4124C10.8877 18.6713 10.618 18.8557 10.2402 18.889C9.85855 18.839 9.59305 18.7457 9.33642 18.4389C9.1147 18.123 9.06023 17.903 9.10953 17.5202C9.24444 17.1882 9.43404 16.9749 9.68472 16.7288C9.72348 16.69 9.76225 16.6512 9.80219 16.6112C9.93179 16.4816 10.0621 16.3527 10.1923 16.2239C10.2856 16.1309 10.3788 16.0379 10.4719 15.9449C10.6725 15.7448 10.8733 15.545 11.0743 15.3454C11.3926 15.0295 11.7101 14.7128 12.0274 14.3959C12.816 13.6088 13.6056 12.8227 14.3955 12.0369C15.009 11.4265 15.6222 10.8158 16.2345 10.2042C16.5496 9.8896 16.8652 9.5756 17.1814 9.26206C17.3785 9.06626 17.5751 8.86991 17.7716 8.67342C17.8623 8.58286 17.9533 8.49253 18.0445 8.40245C18.9068 7.5505 19.5606 6.75249 19.5736 5.49136C19.562 4.52551 19.2539 3.73886 18.5604 3.05499C17.7153 2.36292 16.8019 2.20754 15.7421 2.29361C14.5556 2.49445 13.7026 3.52739 12.9005 4.33931C12.7784 4.46193 12.6562 4.58449 12.534 4.70699C12.2723 4.96955 12.011 5.23258 11.75 5.49592C11.3725 5.87687 10.9942 6.25702 10.6157 6.63698C10.0011 7.25393 9.38707 7.8714 8.77342 8.48926C8.73679 8.52614 8.70017 8.56302 8.66243 8.60101C8.62576 8.63794 8.58908 8.67486 8.5513 8.71291C8.03016 9.23761 7.5089 9.76219 6.98748 10.2866C6.95073 10.3236 6.91397 10.3605 6.8761 10.3986C6.2636 11.0147 5.65083 11.6304 5.03794 12.246C4.66033 12.6254 4.28299 13.0049 3.90599 13.3849C3.64812 13.6448 3.39003 13.9044 3.13177 14.1639C2.98276 14.3136 2.8339 14.4635 2.68525 14.6136C2.52424 14.7761 2.36284 14.9382 2.20134 15.1003C2.1543 15.148 2.10727 15.1956 2.05881 15.2448C1.99387 15.3097 1.99387 15.3097 1.92763 15.3759C1.89043 15.4134 1.85322 15.4508 1.81489 15.4894C1.53718 15.7282 1.27663 15.7493 0.920378 15.7422C0.617031 15.6947 0.426084 15.5519 0.223108 15.3266C0.0316592 15.0089 -0.0486863 14.6608 0.0299246 14.2942C0.235605 13.9414 0.505388 13.6705 0.793297 13.3835C0.844602 13.3319 0.895908 13.2802 0.948768 13.227C1.12058 13.0542 1.29285 12.8818 1.46512 12.7095C1.58852 12.5856 1.71183 12.4617 1.83514 12.3378C2.13531 12.0362 2.43583 11.735 2.73649 11.4339C2.981 11.189 3.22541 10.944 3.46973 10.6989C3.50454 10.664 3.53934 10.6291 3.57521 10.5931C3.64593 10.5222 3.71665 10.4513 3.78737 10.3803C4.45038 9.71532 5.11382 9.05073 5.77738 8.38627C6.38366 7.77915 6.9894 7.1715 7.5949 6.5636C8.21728 5.93876 8.84001 5.31428 9.46314 4.69019C9.8127 4.34007 10.1621 3.98981 10.5112 3.63917C10.8084 3.34057 11.106 3.04231 11.404 2.74448C11.5559 2.59269 11.7076 2.44071 11.8589 2.2884C12.0235 2.12284 12.1886 1.95789 12.3539 1.79308C12.4245 1.72165 12.4245 1.72165 12.4965 1.64877C13.3253 0.826903 14.2919 0.350552 15.4202 0.0999415C15.4722 0.087466 15.5243 0.0749906 15.5779 0.0621371C16.9525 -0.161433 18.3597 0.233421 19.4997 1.00347Z" fill="#94C518"/>
<path d="M16.7123 4.40288C17.0314 4.54651 17.2173 4.71762 17.4176 5.00346C17.5121 5.28762 17.5527 5.56294 17.4227 5.83893C17.2325 6.13742 17.027 6.3895 16.7747 6.63689C16.7372 6.67451 16.6996 6.71213 16.6609 6.75088C16.5362 6.87559 16.4107 6.9996 16.2853 7.12361C16.1952 7.21339 16.1052 7.30322 16.0152 7.39308C15.8219 7.58596 15.6282 7.77854 15.4344 7.97089C15.1275 8.27546 14.8213 8.58081 14.5153 8.88629C13.7551 9.64495 12.9939 10.4026 12.2324 11.16C11.6406 11.7487 11.049 12.3378 10.4583 12.9277C10.1545 13.2309 9.85019 13.5336 9.54538 13.8358C9.35534 14.0245 9.16584 14.2137 8.97649 14.4031C8.88905 14.4903 8.8014 14.5773 8.71351 14.6641C7.90451 15.463 7.22407 16.2613 7.21509 17.4517C7.22838 18.3523 7.4721 19.1894 8.09196 19.8674C8.86948 20.5612 9.70282 20.7926 10.7199 20.7547C12.1389 20.6615 13.0616 19.5083 13.9946 18.5659C14.081 18.4789 14.1674 18.3919 14.2538 18.305C14.4382 18.1193 14.6226 17.9336 14.8068 17.7478C15.0983 17.4539 15.3902 17.1604 15.6821 16.8669C15.7824 16.7661 15.8827 16.6653 15.983 16.5645C16.0332 16.514 16.0834 16.4636 16.1351 16.4116C16.8136 15.7295 17.4918 15.047 18.1693 14.3639C18.628 13.9015 19.0872 13.4395 19.5468 12.978C19.7896 12.7342 20.0322 12.4902 20.2741 12.2456C20.5012 12.0161 20.7288 11.7872 20.9569 11.5588C21.0405 11.4749 21.1238 11.3908 21.2069 11.3064C21.3204 11.1913 21.4346 11.0771 21.549 10.963C21.5817 10.9294 21.6143 10.8959 21.648 10.8614C21.918 10.595 22.1587 10.5075 22.5289 10.4594C22.9151 10.5061 23.1733 10.6978 23.4344 10.9796C23.6102 11.2474 23.6252 11.4626 23.5994 11.778C23.4607 12.1565 23.2409 12.4328 22.9576 12.7124C22.9193 12.7512 22.8811 12.7899 22.8417 12.8299C22.7144 12.9586 22.5862 13.0864 22.458 13.2142C22.3661 13.3067 22.2743 13.3993 22.1825 13.4919C21.9336 13.7427 21.6839 13.9927 21.434 14.2426C21.2249 14.4517 21.0163 14.6612 20.8076 14.8707C20.3149 15.3655 19.8215 15.8597 19.3276 16.3534C18.8197 16.8613 18.3127 17.3702 17.8063 17.8797C17.3704 18.3181 16.9339 18.756 16.4969 19.1933C16.2364 19.454 15.9761 19.7149 15.7164 19.9765C15.4718 20.2228 15.2263 20.4682 14.9803 20.7132C14.8907 20.8026 14.8014 20.8924 14.7123 20.9824C13.5588 22.148 12.1669 23.0102 10.4791 23.0246C8.95085 23.0286 7.61885 22.4491 6.52336 21.3854C5.52569 20.377 4.96693 18.9687 4.94922 17.5525C4.97252 15.6911 5.93256 14.3506 7.19865 13.0881C7.2914 12.9949 7.38411 12.9016 7.47678 12.8084C7.72684 12.5569 7.97751 12.3061 8.22832 12.0554C8.49132 11.7924 8.75385 11.5289 9.01646 11.2655C9.45706 10.8237 9.89806 10.3823 10.3393 9.94113C10.8492 9.43129 11.3584 8.92075 11.8673 8.40984C12.3049 7.97047 12.7429 7.53147 13.1813 7.09278C13.4428 6.83108 13.7041 6.56924 13.9652 6.30706C14.2103 6.0609 14.4559 5.81521 14.7018 5.56989C14.792 5.47983 14.882 5.3896 14.9718 5.2992C15.0944 5.17581 15.2176 5.05303 15.341 4.93039C15.394 4.87661 15.394 4.87661 15.4481 4.82174C15.8089 4.46566 16.193 4.22714 16.7123 4.40288Z" fill="#94C518"/>
</svg>
