<svg width="29" height="29" viewBox="0 0 29 29" fill="none" xmlns="http://www.w3.org/2000/svg">
<rect x="0.523438" y="0.103516" width="28" height="28" rx="3" fill="white" fill-opacity="0.01" style="mix-blend-mode:multiply"/>
<path d="M23.2734 5.35352V1.85352H2.27344V10.6035H10.1484V26.3535H26.7734V5.35352H23.2734ZM4.02344 8.85352V3.60352H21.5234V5.35352H10.1484V8.85352H4.02344ZM25.0234 24.6035H11.8984V7.10352H25.0234V24.6035Z" fill="#1D77FE"/>
<path d="M15.3984 9.72852H13.6484V11.4785H15.3984V9.72852Z" fill="#1D77FE"/>
<path d="M23.2734 9.72852H17.1484V11.4785H23.2734V9.72852Z" fill="#1D77FE"/>
<path d="M15.3984 14.9785H13.6484V16.7285H15.3984V14.9785Z" fill="#1D77FE"/>
<path d="M23.2734 14.9785H17.1484V16.7285H23.2734V14.9785Z" fill="#1D77FE"/>
<path d="M15.3984 20.2285H13.6484V21.9785H15.3984V20.2285Z" fill="#1D77FE"/>
<path d="M23.2734 20.2285H17.1484V21.9785H23.2734V20.2285Z" fill="#1D77FE"/>
</svg>
