<svg width="24" height="24" viewBox="0 0 24 24" fill="none" xmlns="http://www.w3.org/2000/svg">
<path d="M21 1.5H17.25V3H21V21H17.25V22.5H21C21.3975 22.4988 21.7783 22.3404 22.0594 22.0594C22.3404 21.7783 22.4988 21.3975 22.5 21V3C22.4988 2.60253 22.3404 2.22168 22.0594 1.94063C21.7783 1.65958 21.3975 1.50117 21 1.5Z" fill="#6F6F6F"/>
<path d="M10.5 12.75H6C5.89993 12.744 5.79973 12.7592 5.70599 12.7948C5.61226 12.8303 5.52714 12.8854 5.45626 12.9563C5.38537 13.0271 5.33033 13.1123 5.29478 13.206C5.25922 13.2997 5.24396 13.3999 5.25 13.5V18C5.24396 18.1001 5.25922 18.2003 5.29478 18.294C5.33033 18.3877 5.38537 18.4729 5.45626 18.5437C5.52714 18.6146 5.61226 18.6697 5.70599 18.7052C5.79973 18.7408 5.89993 18.756 6 18.75H10.5C10.6001 18.756 10.7003 18.7408 10.794 18.7052C10.8877 18.6697 10.9729 18.6146 11.0437 18.5437C11.1146 18.4729 11.1697 18.3877 11.2052 18.294C11.2408 18.2003 11.256 18.1001 11.25 18V13.5C11.256 13.3999 11.2408 13.2997 11.2052 13.206C11.1697 13.1123 11.1146 13.0271 11.0437 12.9563C10.9729 12.8854 10.8877 12.8303 10.794 12.7948C10.7003 12.7592 10.6001 12.744 10.5 12.75ZM9.75 17.25H6.75V14.25H9.75V17.25Z" fill="#6F6F6F"/>
<path d="M18.75 18V13.5C18.756 13.3999 18.7408 13.2997 18.7052 13.206C18.6697 13.1123 18.6146 13.0271 18.5437 12.9563C18.4729 12.8854 18.3877 12.8303 18.294 12.7948C18.2003 12.7592 18.1001 12.744 18 12.75H13.5C13.3999 12.744 13.2997 12.7592 13.206 12.7948C13.1123 12.8303 13.0271 12.8854 12.9563 12.9563C12.8854 13.0271 12.8303 13.1123 12.7948 13.206C12.7592 13.2997 12.744 13.3999 12.75 13.5V18C12.744 18.1001 12.7592 18.2003 12.7948 18.294C12.8303 18.3877 12.8854 18.4729 12.9563 18.5437C13.0271 18.6146 13.1123 18.6697 13.206 18.7052C13.2997 18.7408 13.3999 18.756 13.5 18.75H18C18.1988 18.7496 18.3893 18.6704 18.5299 18.5299C18.6704 18.3893 18.7496 18.1988 18.75 18ZM17.25 17.25H14.25V14.25H17.25V17.25Z" fill="#6F6F6F"/>
<path d="M10.5 5.25H6C5.89993 5.24396 5.79973 5.25922 5.70599 5.29478C5.61226 5.33033 5.52714 5.38537 5.45626 5.45626C5.38537 5.52714 5.33033 5.61226 5.29478 5.70599C5.25922 5.79973 5.24396 5.89993 5.25 6V10.5C5.24396 10.6001 5.25922 10.7003 5.29478 10.794C5.33033 10.8877 5.38537 10.9729 5.45626 11.0437C5.52714 11.1146 5.61226 11.1697 5.70599 11.2052C5.79973 11.2408 5.89993 11.256 6 11.25H10.5C10.6001 11.256 10.7003 11.2408 10.794 11.2052C10.8877 11.1697 10.9729 11.1146 11.0437 11.0437C11.1146 10.9729 11.1697 10.8877 11.2052 10.794C11.2408 10.7003 11.256 10.6001 11.25 10.5V6C11.256 5.89993 11.2408 5.79973 11.2052 5.70599C11.1697 5.61226 11.1146 5.52714 11.0437 5.45626C10.9729 5.38537 10.8877 5.33033 10.794 5.29478C10.7003 5.25922 10.6001 5.24396 10.5 5.25ZM9.75 9.75H6.75V6.75H9.75V9.75Z" fill="#6F6F6F"/>
<path d="M13.5 11.25H18C18.1001 11.256 18.2003 11.2408 18.294 11.2052C18.3877 11.1697 18.4729 11.1146 18.5437 11.0437C18.6146 10.9729 18.6697 10.8877 18.7052 10.794C18.7408 10.7003 18.756 10.6001 18.75 10.5V6C18.756 5.89993 18.7408 5.79973 18.7052 5.70599C18.6697 5.61226 18.6146 5.52714 18.5437 5.45626C18.4729 5.38537 18.3877 5.33033 18.294 5.29478C18.2003 5.25922 18.1001 5.24396 18 5.25H13.5C13.3999 5.24396 13.2997 5.25922 13.206 5.29478C13.1123 5.33033 13.0271 5.38537 12.9563 5.45626C12.8854 5.52714 12.8303 5.61226 12.7948 5.70599C12.7592 5.79973 12.744 5.89993 12.75 6V10.5C12.7504 10.6988 12.8296 10.8893 12.9701 11.0299C13.1107 11.1704 13.3012 11.2496 13.5 11.25ZM14.25 6.75H17.25V9.75H14.25V6.75Z" fill="#6F6F6F"/>
<path d="M3 3H6.75V1.5H3C2.60253 1.50117 2.22168 1.65958 1.94063 1.94063C1.65958 2.22168 1.50117 2.60253 1.5 3V21C1.50117 21.3975 1.65958 21.7783 1.94063 22.0594C2.22168 22.3404 2.60253 22.4988 3 22.5H6.75V21H3V3Z" fill="#6F6F6F"/>
</svg>
