<svg width="28" height="28" viewBox="0 0 28 28" fill="none" xmlns="http://www.w3.org/2000/svg">
<rect width="28" height="28" rx="3" fill="white" fill-opacity="0.01" style="mix-blend-mode:multiply"/>
<path d="M22.75 5.25V1.75H1.75V10.5H9.625V26.25H26.25V5.25H22.75ZM3.5 8.75V3.5H21V5.25H9.625V8.75H3.5ZM24.5 24.5H11.375V7H24.5V24.5Z" fill="#94C518"/>
<path d="M14.875 9.625H13.125V11.375H14.875V9.625Z" fill="#94C518"/>
<path d="M22.75 9.625H16.625V11.375H22.75V9.625Z" fill="#94C518"/>
<path d="M14.875 14.875H13.125V16.625H14.875V14.875Z" fill="#94C518"/>
<path d="M22.75 14.875H16.625V16.625H22.75V14.875Z" fill="#94C518"/>
<path d="M14.875 20.125H13.125V21.875H14.875V20.125Z" fill="#94C518"/>
<path d="M22.75 20.125H16.625V21.875H22.75V20.125Z" fill="#94C518"/>
</svg>
