<svg width="24" height="24" viewBox="0 0 24 24" fill="none" xmlns="http://www.w3.org/2000/svg">
<g clip-path="url(#clip0_6160_52477)">
<g style="mix-blend-mode:multiply">
<path d="M24 0H0V24H24V0Z" fill="white" fill-opacity="0.01"/>
</g>
<path d="M12 13.5H4.5C4.10218 13.5 3.72064 13.342 3.43934 13.0607C3.15804 12.7794 3 12.3978 3 12V4.5C3 4.10218 3.15804 3.72064 3.43934 3.43934C3.72064 3.15804 4.10218 3 4.5 3H12C12.3978 3 12.7794 3.15804 13.0607 3.43934C13.342 3.72064 13.5 4.10218 13.5 4.5V12C13.5 12.3978 13.342 12.7794 13.0607 13.0607C12.7794 13.342 12.3978 13.5 12 13.5ZM4.5 4.5V12H12V4.5H4.5Z" fill="#6F6F6F"/>
<path d="M19.5 9V12H16.5V9H19.5ZM19.5 7.5H16.5C16.1022 7.5 15.7206 7.65804 15.4393 7.93934C15.158 8.22064 15 8.60218 15 9V12C15 12.3978 15.158 12.7794 15.4393 13.0607C15.7206 13.342 16.1022 13.5 16.5 13.5H19.5C19.8978 13.5 20.2794 13.342 20.5607 13.0607C20.842 12.7794 21 12.3978 21 12V9C21 8.60218 20.842 8.22064 20.5607 7.93934C20.2794 7.65804 19.8978 7.5 19.5 7.5Z" fill="#6F6F6F"/>
<path d="M19.5 16.5V19.5H16.5V16.5H19.5ZM19.5 15H16.5C16.1022 15 15.7206 15.158 15.4393 15.4393C15.158 15.7206 15 16.1022 15 16.5V19.5C15 19.8978 15.158 20.2794 15.4393 20.5607C15.7206 20.842 16.1022 21 16.5 21H19.5C19.8978 21 20.2794 20.842 20.5607 20.5607C20.842 20.2794 21 19.8978 21 19.5V16.5C21 16.1022 20.842 15.7206 20.5607 15.4393C20.2794 15.158 19.8978 15 19.5 15Z" fill="#6F6F6F"/>
<path d="M12 16.5V19.5H9V16.5H12ZM12 15H9C8.60218 15 8.22064 15.158 7.93934 15.4393C7.65804 15.7206 7.5 16.1022 7.5 16.5V19.5C7.5 19.8978 7.65804 20.2794 7.93934 20.5607C8.22064 20.842 8.60218 21 9 21H12C12.3978 21 12.7794 20.842 13.0607 20.5607C13.342 20.2794 13.5 19.8978 13.5 19.5V16.5C13.5 16.1022 13.342 15.7206 13.0607 15.4393C12.7794 15.158 12.3978 15 12 15Z" fill="#6F6F6F"/>
</g>
<defs>
<clipPath id="clip0_6160_52477">
<rect width="24" height="24" fill="white"/>
</clipPath>
</defs>
</svg>
