<svg width="25" height="24" viewBox="0 0 25 24" fill="none" xmlns="http://www.w3.org/2000/svg">
<rect x="0.268066" width="24" height="24" rx="3" fill="white" fill-opacity="0.01" style="mix-blend-mode:multiply"/>
<path d="M4.76807 18C5.06474 18 5.35475 18.088 5.60142 18.2528C5.8481 18.4176 6.04036 18.6519 6.15389 18.926C6.26742 19.2001 6.29712 19.5017 6.23925 19.7926C6.18137 20.0836 6.03851 20.3509 5.82873 20.5607C5.61895 20.7704 5.35167 20.9133 5.0607 20.9712C4.76973 21.0291 4.46813 20.9994 4.19404 20.8858C3.91995 20.7723 3.68569 20.58 3.52086 20.3334C3.35604 20.0867 3.26807 19.7967 3.26807 19.5C3.26807 19.1022 3.4261 18.7206 3.70741 18.4393C3.98871 18.158 4.37024 18 4.76807 18ZM4.76807 16.5C4.17472 16.5 3.5947 16.6759 3.10136 17.0056C2.60801 17.3352 2.22349 17.8038 1.99643 18.352C1.76937 18.9001 1.70996 19.5033 1.82571 20.0853C1.94147 20.6672 2.22719 21.2018 2.64675 21.6213C3.0663 22.0409 3.60085 22.3266 4.1828 22.4424C4.76474 22.5581 5.36794 22.4987 5.91612 22.2716C6.4643 22.0446 6.93283 21.6601 7.26248 21.1667C7.59212 20.6734 7.76807 20.0933 7.76807 19.5C7.76807 18.7044 7.452 17.9413 6.88939 17.3787C6.32678 16.8161 5.56372 16.5 4.76807 16.5Z" fill="#1D77FE"/>
<path d="M12.2681 3C12.5647 3 12.8547 3.08797 13.1014 3.2528C13.3481 3.41762 13.5404 3.65189 13.6539 3.92597C13.7674 4.20006 13.7971 4.50166 13.7392 4.79264C13.6814 5.08361 13.5385 5.35088 13.3287 5.56066C13.1189 5.77044 12.8517 5.9133 12.5607 5.97118C12.2697 6.02906 11.9681 5.99935 11.694 5.88582C11.42 5.77229 11.1857 5.58003 11.0209 5.33336C10.856 5.08668 10.7681 4.79667 10.7681 4.5C10.7681 4.10218 10.9261 3.72064 11.2074 3.43934C11.4887 3.15804 11.8702 3 12.2681 3ZM12.2681 1.5C11.6747 1.5 11.0947 1.67595 10.6014 2.00559C10.108 2.33524 9.72349 2.80377 9.49643 3.35195C9.26937 3.90013 9.20996 4.50333 9.32571 5.08527C9.44147 5.66721 9.72719 6.20176 10.1467 6.62132C10.5663 7.04088 11.1009 7.3266 11.6828 7.44236C12.2647 7.55811 12.8679 7.4987 13.4161 7.27164C13.9643 7.04458 14.4328 6.66006 14.7625 6.16671C15.0921 5.67336 15.2681 5.09334 15.2681 4.5C15.2681 3.70435 14.952 2.94129 14.3894 2.37868C13.8268 1.81607 13.0637 1.5 12.2681 1.5Z" fill="#1D77FE"/>
<path d="M19.7681 3C20.0647 3 20.3547 3.08797 20.6014 3.2528C20.8481 3.41762 21.0404 3.65189 21.1539 3.92597C21.2674 4.20006 21.2971 4.50166 21.2392 4.79264C21.1814 5.08361 21.0385 5.35088 20.8287 5.56066C20.6189 5.77044 20.3517 5.9133 20.0607 5.97118C19.7697 6.02906 19.4681 5.99935 19.194 5.88582C18.92 5.77229 18.6857 5.58003 18.5209 5.33336C18.356 5.08668 18.2681 4.79667 18.2681 4.5C18.2681 4.10218 18.4261 3.72064 18.7074 3.43934C18.9887 3.15804 19.3702 3 19.7681 3ZM19.7681 1.5C19.1747 1.5 18.5947 1.67595 18.1014 2.00559C17.608 2.33524 17.2235 2.80377 16.9964 3.35195C16.7694 3.90013 16.71 4.50333 16.8257 5.08527C16.9415 5.66721 17.2272 6.20176 17.6467 6.62132C18.0663 7.04088 18.6009 7.3266 19.1828 7.44236C19.7647 7.55811 20.3679 7.4987 20.9161 7.27164C21.4643 7.04458 21.9328 6.66006 22.2625 6.16671C22.5921 5.67336 22.7681 5.09334 22.7681 4.5C22.7681 3.70435 22.452 2.94129 21.8894 2.37868C21.3268 1.81607 20.5637 1.5 19.7681 1.5Z" fill="#1D77FE"/>
<path d="M13.7681 18V21H10.7681V18H13.7681ZM15.2681 16.5H9.26807V22.5H15.2681V16.5Z" fill="#1D77FE"/>
<path d="M20.5181 16.605V12.75C20.5181 12.3522 20.36 11.9706 20.0787 11.6893C19.7974 11.408 19.4159 11.25 19.0181 11.25H5.51807V7.5H7.76807V1.5H1.76807V7.5H4.01807V11.25C4.01807 11.6478 4.1761 12.0294 4.45741 12.3107C4.73871 12.592 5.12024 12.75 5.51807 12.75H19.0181V16.605C18.3111 16.7875 17.6949 17.2217 17.2851 17.826C16.8753 18.4303 16.7 19.1634 16.792 19.8878C16.884 20.6121 17.237 21.278 17.7849 21.7607C18.3328 22.2434 19.0379 22.5097 19.7681 22.5097C20.4982 22.5097 21.2034 22.2434 21.7512 21.7607C22.2991 21.278 22.6521 20.6121 22.7442 19.8878C22.8362 19.1634 22.6608 18.4303 22.251 17.826C21.8412 17.2217 21.2251 16.7875 20.5181 16.605ZM3.26807 3H6.26807V6H3.26807V3ZM19.7681 21C19.4714 21 19.1814 20.912 18.9347 20.7472C18.688 20.5824 18.4958 20.3481 18.3822 20.074C18.2687 19.7999 18.239 19.4983 18.2969 19.2074C18.3548 18.9164 18.4976 18.6491 18.7074 18.4393C18.9172 18.2296 19.1845 18.0867 19.4754 18.0288C19.7664 17.9709 20.068 18.0006 20.3421 18.1142C20.6162 18.2277 20.8504 18.42 21.0153 18.6666C21.1801 18.9133 21.2681 19.2033 21.2681 19.5C21.2681 19.8978 21.11 20.2794 20.8287 20.5607C20.5474 20.842 20.1659 21 19.7681 21Z" fill="#1D77FE"/>
</svg>
