<svg width="30" height="28" viewBox="0 0 30 28" fill="none" xmlns="http://www.w3.org/2000/svg">
<path d="M24.8396 1.28711H4.53959C2.67102 1.28711 1.15625 2.71008 1.15625 4.46539V23.5351C1.15625 25.2904 2.67102 26.7134 4.53959 26.7134H24.8396C26.7082 26.7134 28.2229 25.2904 28.2229 23.5351V4.46539C28.2229 2.71008 26.7082 1.28711 24.8396 1.28711Z" fill="#94C518"/>
<path d="M6.59382 13.0117C6.60094 11.8552 5.61034 10.9357 4.37927 10.9357H1.15625V12.3546H4.37927C4.79492 12.3546 5.14374 12.6377 5.14374 13.0282V15.0856C5.14374 15.476 4.79493 15.8167 4.37927 15.8167H1.15625V17.1787H4.37927C5.61034 17.1787 6.59376 16.242 6.59376 15.0855L6.59374 14.1247C11.6871 14.1932 13.1693 15.4373 14.7904 16.7687C16.3516 18.0513 18.1023 19.4297 22.6644 19.4637L22.6646 19.9353C22.6651 21.0917 23.6735 22.0596 24.9046 22.0596H28.2228V20.584H24.9046C24.4889 20.584 24.1749 20.3257 24.1749 19.9352V17.8779C24.1749 17.4874 24.4889 17.1786 24.9046 17.1786H28.2228V15.8166H24.9046C23.6735 15.8166 22.6651 16.7214 22.6646 17.8779L22.6644 18.3653C18.3531 18.3519 17.1285 17.2288 15.5606 15.9408C14.2228 14.8418 12.6506 13.6334 9.18692 13.1938C9.21702 13.1695 9.2448 13.1459 9.27385 13.1209C9.94076 12.5464 10.3003 11.8524 10.6522 11.253C11.004 10.6537 11.335 10.1536 11.8773 9.80398C12.3172 9.52036 12.9428 9.30892 13.9041 9.26968L13.9042 9.75073C13.9044 10.9072 14.8973 11.9004 16.1284 11.9004H25.0298C26.2608 11.9004 27.2562 10.9072 27.2562 9.75073V7.69339C27.2562 6.53693 26.2608 5.60059 25.0298 5.60059H16.1284C14.8973 5.60059 13.9036 6.53688 13.9042 7.69339L13.9045 8.17058C12.7442 8.21437 11.8648 8.47888 11.2158 8.89731C10.4288 9.40478 9.99428 10.0983 9.62774 10.7226C9.26124 11.3469 8.95103 11.9063 8.48226 12.3101C8.07424 12.6616 7.50994 12.933 6.59378 13.0342L6.59382 13.0117ZM16.1281 7.01936H25.0294C25.4451 7.01936 25.7455 7.30285 25.7455 7.69333V9.75067C25.7455 10.1411 25.4451 10.4247 25.0294 10.4247H16.1281C15.7124 10.4247 15.354 10.1412 15.354 9.75067V7.69333C15.354 7.30286 15.7124 7.01936 16.1281 7.01936Z" fill="white"/>
</svg>
