<svg width="30" height="28" viewBox="0 0 30 28" fill="none" xmlns="http://www.w3.org/2000/svg">
<path d="M24.8415 1.28711H4.54154C2.67297 1.28711 1.1582 2.71008 1.1582 4.46539V23.5351C1.1582 25.2904 2.67297 26.7134 4.54154 26.7134H24.8415C26.7101 26.7134 28.2249 25.2904 28.2249 23.5351V4.46539C28.2249 2.71008 26.7101 1.28711 24.8415 1.28711Z" fill="#1D77FE"/>
<path d="M6.59528 13.0117C6.6024 11.8552 5.6118 10.9357 4.38073 10.9357H1.15771V12.3546H4.38073C4.79638 12.3546 5.1452 12.6377 5.1452 13.0282V15.0856C5.1452 15.476 4.79639 15.8167 4.38073 15.8167H1.15771V17.1787H4.38073C5.6118 17.1787 6.59522 16.242 6.59522 15.0855L6.5952 14.1247C11.6886 14.1932 13.1708 15.4373 14.7919 16.7687C16.3531 18.0513 18.1038 19.4297 22.6659 19.4637L22.6661 19.9353C22.6666 21.0917 23.675 22.0596 24.9061 22.0596H28.2243V20.584H24.9061C24.4904 20.584 24.1764 20.3257 24.1764 19.9352V17.8779C24.1764 17.4874 24.4904 17.1786 24.9061 17.1786H28.2243V15.8166H24.9061C23.675 15.8166 22.6666 16.7214 22.6661 17.8779L22.6659 18.3653C18.3546 18.3519 17.13 17.2288 15.5621 15.9408C14.2243 14.8418 12.6521 13.6334 9.18839 13.1938C9.21849 13.1695 9.24626 13.1459 9.27531 13.1209C9.94222 12.5464 10.3018 11.8524 10.6537 11.253C11.0055 10.6537 11.3365 10.1536 11.8788 9.80398C12.3187 9.52036 12.9443 9.30892 13.9056 9.26968L13.9057 9.75073C13.9059 10.9072 14.8988 11.9004 16.1299 11.9004H25.0313C26.2623 11.9004 27.2577 10.9072 27.2577 9.75073V7.69339C27.2577 6.53693 26.2623 5.60059 25.0313 5.60059H16.1299C14.8988 5.60059 13.9051 6.53688 13.9057 7.69339L13.906 8.17058C12.7457 8.21437 11.8663 8.47888 11.2173 8.89731C10.4303 9.40478 9.99574 10.0983 9.6292 10.7226C9.2627 11.3469 8.95249 11.9063 8.48372 12.3101C8.0757 12.6616 7.5114 12.933 6.59524 13.0342L6.59528 13.0117ZM16.1296 7.01936H25.0309C25.4466 7.01936 25.747 7.30285 25.747 7.69333V9.75067C25.747 10.1411 25.4466 10.4247 25.0309 10.4247H16.1296C15.7139 10.4247 15.3555 10.1412 15.3555 9.75067V7.69333C15.3555 7.30286 15.7139 7.01936 16.1296 7.01936Z" fill="white"/>
</svg>
