<svg width="28" height="28" viewBox="0 0 28 28" fill="none" xmlns="http://www.w3.org/2000/svg">
<rect width="28" height="28" fill="white" fill-opacity="0.01" style="mix-blend-mode:multiply"/>
<path d="M25.3751 21.875H23.6251V20.125H24.5001V16.625H21.0001V17.5H19.2501V15.75C19.2501 15.5179 19.3423 15.2954 19.5064 15.1313C19.6705 14.9672 19.893 14.875 20.1251 14.875H25.3751C25.6072 14.875 25.8297 14.9672 25.9938 15.1313C26.1579 15.2954 26.2501 15.5179 26.2501 15.75V21C26.2501 21.2321 26.1579 21.4546 25.9938 21.6187C25.8297 21.7828 25.6072 21.875 25.3751 21.875Z" fill="#1D77FE"/>
<path d="M21.0001 26.25H15.7501C15.518 26.25 15.2955 26.1578 15.1314 25.9937C14.9673 25.8296 14.8751 25.6071 14.8751 25.375V20.125C14.8751 19.8929 14.9673 19.6704 15.1314 19.5063C15.2955 19.3422 15.518 19.25 15.7501 19.25H21.0001C21.2322 19.25 21.4547 19.3422 21.6188 19.5063C21.7829 19.6704 21.8751 19.8929 21.8751 20.125V25.375C21.8751 25.6071 21.7829 25.8296 21.6188 25.9937C21.4547 26.1578 21.2322 26.25 21.0001 26.25ZM16.6251 24.5H20.1251V21H16.6251V24.5Z" fill="#1D77FE"/>
<path d="M13.1251 17.3757C12.4927 17.2109 11.9192 16.8722 11.4697 16.3979C11.0202 15.9236 10.7127 15.3328 10.5821 14.6925C10.4515 14.0522 10.5031 13.3881 10.731 12.7757C10.9589 12.1632 11.354 11.627 11.8713 11.2278C12.3887 10.8286 13.0076 10.5825 13.6578 10.5174C14.308 10.4523 14.9635 10.5709 15.5497 10.8596C16.1359 11.1483 16.6294 11.5956 16.9742 12.1507C17.319 12.7059 17.5012 13.3465 17.5001 14H19.2501C19.2511 12.9988 18.9658 12.0182 18.4279 11.1739C17.89 10.3295 17.1218 9.65651 16.214 9.23432C15.3062 8.81212 14.2966 8.6583 13.3043 8.79098C12.312 8.92367 11.3782 9.33734 10.6133 9.9832C9.84828 10.6291 9.28392 11.4802 8.98673 12.4362C8.68954 13.3923 8.67191 14.4134 8.93592 15.3791C9.19993 16.3448 9.73458 17.215 10.4768 17.8868C11.219 18.5587 12.1379 19.0044 13.1251 19.1712V17.3757Z" fill="#1D77FE"/>
<path d="M25.2788 11.8563L23.2576 13.6325L22.0151 12.39L24.1238 10.535L22.0588 6.965L19.0488 7.98C18.3437 7.39311 17.5451 6.92875 16.6863 6.60625L16.0651 3.5H11.9351L11.3138 6.60625C10.4481 6.91974 9.64515 7.38492 8.94258 7.98L5.94133 6.965L3.87633 10.535L6.25633 12.6263C6.09444 13.532 6.09444 14.4593 6.25633 15.365L3.87633 17.465L5.94133 21.035L8.95132 20.02C9.65641 20.6069 10.455 21.0713 11.3138 21.3938L11.9351 24.5H13.1251V26.25H11.9351C11.5304 26.2496 11.1385 26.109 10.8258 25.8521C10.5131 25.5953 10.2991 25.2381 10.2201 24.8412L9.77383 22.6363C9.37768 22.443 8.99476 22.2238 8.62758 21.98L6.50133 22.6975C6.32052 22.7563 6.13146 22.7859 5.94133 22.785C5.63396 22.7871 5.3316 22.7071 5.06549 22.5533C4.79937 22.3995 4.57915 22.1774 4.42758 21.91L2.36258 18.34C2.15834 17.9891 2.08245 17.5782 2.14789 17.1775C2.21334 16.7768 2.41606 16.4114 2.72133 16.1438L4.40133 14.6738C4.38383 14.4463 4.37508 14.2275 4.37508 14C4.37508 13.7725 4.39258 13.5537 4.41008 13.335L2.72133 11.8563C2.41606 11.5886 2.21334 11.2232 2.14789 10.8225C2.08245 10.4218 2.15834 10.0109 2.36258 9.66L4.42758 6.09C4.57915 5.8226 4.79937 5.60052 5.06549 5.44669C5.3316 5.29287 5.63396 5.21288 5.94133 5.215C6.13146 5.21413 6.32052 5.24366 6.50133 5.3025L8.61883 6.02C8.98901 5.77614 9.37484 5.55691 9.77383 5.36375L10.2201 3.15875C10.2991 2.76191 10.5131 2.4047 10.8258 2.14787C11.1385 1.89103 11.5304 1.75044 11.9351 1.75H16.0651C16.4697 1.75044 16.8617 1.89103 17.1744 2.14787C17.487 2.4047 17.7011 2.76191 17.7801 3.15875L18.2263 5.36375C18.6225 5.55696 19.0054 5.77619 19.3726 6.02L21.4988 5.3025C21.6796 5.24366 21.8687 5.21413 22.0588 5.215C22.3662 5.21288 22.6686 5.29287 22.9347 5.44669C23.2008 5.60052 23.421 5.8226 23.5726 6.09L25.6376 9.66C25.8418 10.0109 25.9177 10.4218 25.8523 10.8225C25.7868 11.2232 25.5841 11.5886 25.2788 11.8563Z" fill="#1D77FE"/>
</svg>
