<svg width="29" height="28" viewBox="0 0 29 28" fill="none" xmlns="http://www.w3.org/2000/svg">
<g clip-path="url(#clip0_10756_13064)">
<g style="mix-blend-mode:multiply">
<path d="M28.5 0H0.5V28H28.5V0Z" fill="white" fill-opacity="0.01"/>
</g>
<path d="M25.875 21.875H24.125V20.125H25V16.625H21.5V17.5H19.75V15.75C19.75 15.5179 19.8422 15.2954 20.0063 15.1313C20.1704 14.9672 20.3929 14.875 20.625 14.875H25.875C26.1071 14.875 26.3296 14.9672 26.4937 15.1313C26.6578 15.2954 26.75 15.5179 26.75 15.75V21C26.75 21.2321 26.6578 21.4546 26.4937 21.6187C26.3296 21.7828 26.1071 21.875 25.875 21.875Z" fill="#94C518"/>
<path d="M21.5 26.25H16.25C16.0179 26.25 15.7954 26.1578 15.6313 25.9937C15.4672 25.8296 15.375 25.6071 15.375 25.375V20.125C15.375 19.8929 15.4672 19.6704 15.6313 19.5063C15.7954 19.3422 16.0179 19.25 16.25 19.25H21.5C21.7321 19.25 21.9546 19.3422 22.1187 19.5063C22.2828 19.6704 22.375 19.8929 22.375 20.125V25.375C22.375 25.6071 22.2828 25.8296 22.1187 25.9937C21.9546 26.1578 21.7321 26.25 21.5 26.25ZM17.125 24.5H20.625V21H17.125V24.5Z" fill="#94C518"/>
<path d="M13.625 17.3757C12.9926 17.2109 12.4191 16.8722 11.9696 16.3979C11.5201 15.9236 11.2126 15.3328 11.082 14.6925C10.9514 14.0522 11.003 13.3881 11.2309 12.7757C11.4588 12.1632 11.8539 11.627 12.3712 11.2278C12.8886 10.8286 13.5075 10.5825 14.1577 10.5174C14.8079 10.4523 15.4634 10.5709 16.0496 10.8596C16.6358 11.1483 17.1293 11.5956 17.4741 12.1507C17.8189 12.7059 18.0011 13.3465 18 14H19.75C19.751 12.9988 19.4657 12.0182 18.9278 11.1739C18.3899 10.3295 17.6217 9.65647 16.7139 9.23428C15.8061 8.81208 14.7965 8.65826 13.8042 8.79094C12.8119 8.92363 11.8781 9.3373 11.1132 9.98316C10.3482 10.6291 9.78383 11.4802 9.48664 12.4362C9.18945 13.3923 9.17182 14.4134 9.43583 15.3791C9.69984 16.3448 10.2345 17.215 10.9767 17.8868C11.7189 18.5587 12.6378 19.0044 13.625 19.1712V17.3757Z" fill="#94C518"/>
<path d="M25.7788 11.8563L23.7576 13.6325L22.5151 12.39L24.6238 10.535L22.5588 6.965L19.5488 7.98C18.8437 7.39311 18.0451 6.92875 17.1863 6.60625L16.5651 3.5H12.4351L11.8138 6.60625C10.9481 6.91974 10.1452 7.38492 9.44258 7.98L6.44133 6.965L4.37633 10.535L6.75633 12.6263C6.59444 13.532 6.59444 14.4593 6.75633 15.365L4.37633 17.465L6.44133 21.035L9.45132 20.02C10.1564 20.6069 10.955 21.0713 11.8138 21.3938L12.4351 24.5H13.6251V26.25H12.4351C12.0304 26.2496 11.6385 26.109 11.3258 25.8521C11.0131 25.5953 10.7991 25.2381 10.7201 24.8412L10.2738 22.6363C9.87768 22.443 9.49476 22.2238 9.12758 21.98L7.00133 22.6975C6.82052 22.7563 6.63146 22.7859 6.44133 22.785C6.13396 22.7871 5.8316 22.7071 5.56549 22.5533C5.29937 22.3995 5.07915 22.1774 4.92758 21.91L2.86258 18.34C2.65834 17.9891 2.58245 17.5782 2.64789 17.1775C2.71334 16.7768 2.91606 16.4114 3.22133 16.1438L4.90133 14.6738C4.88383 14.4463 4.87508 14.2275 4.87508 14C4.87508 13.7725 4.89258 13.5537 4.91008 13.335L3.22133 11.8563C2.91606 11.5886 2.71334 11.2232 2.64789 10.8225C2.58245 10.4218 2.65834 10.0109 2.86258 9.66L4.92758 6.09C5.07915 5.8226 5.29937 5.60052 5.56549 5.44669C5.8316 5.29287 6.13396 5.21288 6.44133 5.215C6.63146 5.21413 6.82052 5.24366 7.00133 5.3025L9.11883 6.02C9.48901 5.77614 9.87484 5.55691 10.2738 5.36375L10.7201 3.15875C10.7991 2.76191 11.0131 2.4047 11.3258 2.14787C11.6385 1.89103 12.0304 1.75044 12.4351 1.75H16.5651C16.9697 1.75044 17.3617 1.89103 17.6744 2.14787C17.987 2.4047 18.2011 2.76191 18.2801 3.15875L18.7263 5.36375C19.1225 5.55696 19.5054 5.77619 19.8726 6.02L21.9988 5.3025C22.1796 5.24366 22.3687 5.21413 22.5588 5.215C22.8662 5.21288 23.1686 5.29287 23.4347 5.44669C23.7008 5.60052 23.921 5.8226 24.0726 6.09L26.1376 9.66C26.3418 10.0109 26.4177 10.4218 26.3523 10.8225C26.2868 11.2232 26.0841 11.5886 25.7788 11.8563Z" fill="#94C518"/>
</g>
<defs>
<clipPath id="clip0_10756_13064">
<rect width="29" height="28" fill="white"/>
</clipPath>
</defs>
</svg>
