<svg width="29" height="28" viewBox="0 0 29 28" fill="none" xmlns="http://www.w3.org/2000/svg">
<rect width="28" height="28" transform="translate(0.5)" fill="white" fill-opacity="0.01" style="mix-blend-mode:multiply"/>
<path d="M25.8751 21.875H24.1251V20.125H25.0001V16.625H21.5001V17.5H19.7501V15.75C19.7501 15.5179 19.8423 15.2954 20.0064 15.1313C20.1705 14.9672 20.393 14.875 20.6251 14.875H25.8751C26.1072 14.875 26.3297 14.9672 26.4938 15.1313C26.6579 15.2954 26.7501 15.5179 26.7501 15.75V21C26.7501 21.2321 26.6579 21.4546 26.4938 21.6187C26.3297 21.7828 26.1072 21.875 25.8751 21.875Z" fill="#B2ED1D"/>
<path d="M21.5001 26.25H16.2501C16.018 26.25 15.7955 26.1578 15.6314 25.9937C15.4673 25.8296 15.3751 25.6071 15.3751 25.375V20.125C15.3751 19.8929 15.4673 19.6704 15.6314 19.5063C15.7955 19.3422 16.018 19.25 16.2501 19.25H21.5001C21.7322 19.25 21.9547 19.3422 22.1188 19.5063C22.2829 19.6704 22.3751 19.8929 22.3751 20.125V25.375C22.3751 25.6071 22.2829 25.8296 22.1188 25.9937C21.9547 26.1578 21.7322 26.25 21.5001 26.25ZM17.1251 24.5H20.6251V21H17.1251V24.5Z" fill="#B2ED1D"/>
<path d="M13.6251 17.3757C12.9927 17.2109 12.4192 16.8722 11.9697 16.3979C11.5202 15.9236 11.2127 15.3328 11.0821 14.6925C10.9515 14.0522 11.0031 13.3881 11.231 12.7757C11.4589 12.1632 11.854 11.627 12.3713 11.2278C12.8887 10.8286 13.5076 10.5825 14.1578 10.5174C14.808 10.4523 15.4635 10.5709 16.0497 10.8596C16.6359 11.1483 17.1294 11.5956 17.4742 12.1507C17.819 12.7059 18.0012 13.3465 18.0001 14H19.7501C19.7511 12.9988 19.4658 12.0182 18.9279 11.1739C18.39 10.3295 17.6218 9.65651 16.714 9.23432C15.8062 8.81212 14.7966 8.6583 13.8043 8.79098C12.812 8.92367 11.8782 9.33734 11.1133 9.9832C10.3483 10.6291 9.78392 11.4802 9.48673 12.4362C9.18954 13.3923 9.17191 14.4134 9.43592 15.3791C9.69993 16.3448 10.2346 17.215 10.9768 17.8868C11.719 18.5587 12.6379 19.0044 13.6251 19.1712V17.3757Z" fill="#B2ED1D"/>
<path d="M25.7788 11.8563L23.7576 13.6325L22.5151 12.39L24.6238 10.535L22.5588 6.965L19.5488 7.98C18.8437 7.39311 18.0451 6.92875 17.1863 6.60625L16.5651 3.5H12.4351L11.8138 6.60625C10.9481 6.91974 10.1452 7.38492 9.44258 7.98L6.44133 6.965L4.37633 10.535L6.75633 12.6263C6.59444 13.532 6.59444 14.4593 6.75633 15.365L4.37633 17.465L6.44133 21.035L9.45132 20.02C10.1564 20.6069 10.955 21.0713 11.8138 21.3938L12.4351 24.5H13.6251V26.25H12.4351C12.0304 26.2496 11.6385 26.109 11.3258 25.8521C11.0131 25.5953 10.7991 25.2381 10.7201 24.8412L10.2738 22.6363C9.87768 22.443 9.49476 22.2238 9.12758 21.98L7.00133 22.6975C6.82052 22.7563 6.63146 22.7859 6.44133 22.785C6.13396 22.7871 5.8316 22.7071 5.56549 22.5533C5.29937 22.3995 5.07915 22.1774 4.92758 21.91L2.86258 18.34C2.65834 17.9891 2.58245 17.5782 2.64789 17.1775C2.71334 16.7768 2.91606 16.4114 3.22133 16.1438L4.90133 14.6738C4.88383 14.4463 4.87508 14.2275 4.87508 14C4.87508 13.7725 4.89258 13.5537 4.91008 13.335L3.22133 11.8563C2.91606 11.5886 2.71334 11.2232 2.64789 10.8225C2.58245 10.4218 2.65834 10.0109 2.86258 9.66L4.92758 6.09C5.07915 5.8226 5.29937 5.60052 5.56549 5.44669C5.8316 5.29287 6.13396 5.21288 6.44133 5.215C6.63146 5.21413 6.82052 5.24366 7.00133 5.3025L9.11883 6.02C9.48901 5.77614 9.87484 5.55691 10.2738 5.36375L10.7201 3.15875C10.7991 2.76191 11.0131 2.4047 11.3258 2.14787C11.6385 1.89103 12.0304 1.75044 12.4351 1.75H16.5651C16.9697 1.75044 17.3617 1.89103 17.6744 2.14787C17.987 2.4047 18.2011 2.76191 18.2801 3.15875L18.7263 5.36375C19.1225 5.55696 19.5054 5.77619 19.8726 6.02L21.9988 5.3025C22.1796 5.24366 22.3687 5.21413 22.5588 5.215C22.8662 5.21288 23.1686 5.29287 23.4347 5.44669C23.7008 5.60052 23.921 5.8226 24.0726 6.09L26.1376 9.66C26.3418 10.0109 26.4177 10.4218 26.3523 10.8225C26.2868 11.2232 26.0841 11.5886 25.7788 11.8563Z" fill="#B2ED1D"/>
</svg>
