<svg width="13" height="26" viewBox="0 0 13 26" fill="none" xmlns="http://www.w3.org/2000/svg">
<g clip-path="url(#clip0_6160_52662)">
<mask id="mask0_6160_52662" style="mask-type:luminance" maskUnits="userSpaceOnUse" x="0" y="0" width="13" height="26">
<path d="M13 0H0V26H13V0Z" fill="white"/>
</mask>
<g mask="url(#mask0_6160_52662)">
<path d="M8.238 25.9426C8.20656 25.9258 7.8541 25.5877 7.45478 25.1911L6.72873 24.4701V19.7808C6.72873 17.2018 6.72212 15.085 6.71407 15.077C6.69923 15.0624 5.50912 15.6547 2.0085 17.4192C0.953106 17.9512 0.0750752 18.3809 0.0573298 18.3741C0.0366116 18.3663 0.0297513 18.3434 0.0381895 18.3101C0.0453928 18.2816 0.0614689 18.1633 0.0739089 18.0471C0.136887 17.4586 0.605722 16.076 1.1031 15.0122C2.45851 12.1132 4.65158 9.71055 7.44181 8.06788C7.89718 7.79979 8.27969 7.60372 8.3185 7.61847C8.34809 7.62972 8.35234 7.93486 8.35234 10.0441C8.35234 11.7719 8.35943 12.4568 8.37729 12.4568C8.39101 12.4568 8.49561 12.4091 8.60974 12.3507C9.41018 11.9412 9.99116 11.1764 10.1853 10.2766C10.251 9.97228 10.2569 9.41769 10.1976 9.12342C10.0887 8.58272 9.8373 8.07404 9.48295 7.67729C9.30796 7.48138 8.72701 6.87633 7.70049 5.8209C6.14834 4.22506 5.86414 3.92001 5.6823 3.6546C5.54889 3.45982 5.43373 3.22172 5.36393 2.99639C5.30798 2.81568 5.30219 2.76296 5.30096 2.42366C5.29947 2.0095 5.32323 1.8806 5.46069 1.55741C5.72595 0.93375 6.41706 0.352007 6.99171 0.268662C7.3948 0.210229 7.90409 0.221485 8.23539 0.296225C8.50546 0.357148 8.94297 0.618396 9.24288 0.897807C9.59495 1.22584 9.7722 1.48768 11.0961 3.63534C12.6583 6.16964 12.8446 6.48205 12.8713 6.6123C12.8977 6.74121 12.8786 6.79568 12.8075 6.79409C12.7483 6.79278 12.7662 6.81097 9.95356 3.8958C9.70719 3.64044 9.27812 3.19201 9.00012 2.89928C8.27454 2.13533 7.97349 1.84749 7.83699 1.78729C7.66226 1.7102 7.41984 1.71373 7.25101 1.79586C6.91997 1.95686 6.76328 2.3282 6.88816 2.65581C6.95009 2.81822 6.86383 2.72513 8.89762 4.82438C9.80877 5.76485 10.6318 6.62604 10.7266 6.73815C12.2561 8.54739 12.1317 11.2357 10.4416 12.8983C10.0536 13.2801 9.66564 13.5416 8.9469 13.906C8.70165 14.0303 8.46755 14.1525 8.42666 14.1774L8.35234 14.2227V20.0645C8.35234 23.2774 8.3461 25.9223 8.33846 25.942C8.32238 25.9835 8.31491 25.9836 8.238 25.9426ZM4.176 14.6097C6.17803 13.592 6.59122 13.3767 6.6499 13.3208C6.68672 13.2857 6.70277 13.2352 6.71375 13.1202C6.73591 12.8877 6.73163 10.4456 6.70904 10.4318C6.65928 10.4013 5.81834 11.1415 5.25376 11.7128C4.27771 12.7002 3.46172 13.8153 2.7909 15.0782C2.70318 15.2433 2.63869 15.3785 2.64759 15.3785C2.65648 15.3785 3.34428 15.0326 4.176 14.6097Z" fill="#1D77FE"/>
<path d="M7.50195 25.2135L6.72916 24.449V15.0351L5.31707 15.7421C4.54044 16.1309 3.04884 16.8809 2.00246 17.4086C0.956074 17.9363 0.0828682 18.3681 0.0619442 18.3681C0.0321475 18.3681 0.0272538 18.355 0.039328 18.3074C0.0477891 18.274 0.0636593 18.1695 0.074613 18.0753C0.121355 17.6724 0.445345 16.6154 0.764076 15.826C2.14266 12.4113 4.62011 9.62748 7.87138 7.8397C8.07826 7.72594 8.26496 7.63285 8.28627 7.63285C8.30758 7.63285 8.33125 7.64898 8.33889 7.66868C8.34653 7.68839 8.35277 8.77958 8.35277 10.0936V12.4826L8.40422 12.4669C8.47856 12.4441 8.60962 12.3765 8.78369 12.2711C9.48685 11.8452 9.97005 11.1889 10.1764 10.3795C10.2337 10.1546 10.2387 10.0999 10.239 9.68252C10.2394 9.19884 10.2203 9.06631 10.0969 8.69732C10.0179 8.46101 9.8158 8.08172 9.65706 7.87175C9.47313 7.6285 9.08431 7.2195 7.08352 5.16467C6.44333 4.50719 5.92533 3.9531 5.80317 3.79515C5.24943 3.07913 5.14323 2.25831 5.50617 1.49953C5.63615 1.22775 5.76434 1.05161 5.98923 0.835821C6.29494 0.542458 6.69607 0.32268 7.02376 0.268981C7.29072 0.22527 7.72665 0.219947 7.97922 0.257385C8.58428 0.347072 9.14738 0.721379 9.62515 1.35152C9.87277 1.67806 10.5907 2.82388 12.3287 5.66592C12.8551 6.52678 12.9377 6.69626 12.8657 6.7676C12.8029 6.82979 12.91 6.93536 10.4554 4.39309C9.93282 3.8518 9.27304 3.16435 8.98925 2.8654C8.21396 2.04866 7.98055 1.8301 7.82011 1.77065C7.45148 1.63408 7.08146 1.77982 6.89717 2.13422C6.81009 2.30166 6.80899 2.51716 6.89429 2.70034C6.96639 2.85525 6.85811 2.73932 8.91022 4.85844C9.81491 5.79268 10.6214 6.6335 10.7025 6.72692C11.2612 7.37095 11.6358 8.22173 11.7496 9.10499C11.7969 9.47221 11.7854 10.0815 11.7248 10.4186C11.5536 11.3705 11.1162 12.2098 10.4444 12.8751C10.0267 13.2888 9.68301 13.5187 8.84443 13.9454L8.3642 14.1898L8.35265 20.0782C8.34632 23.3168 8.33859 25.9691 8.3355 25.9723C8.30783 26.0002 8.17575 25.88 7.50195 25.2135ZM4.25372 14.5843C6.38994 13.4998 6.59417 13.3925 6.66629 13.3157L6.72918 13.2489V11.8224C6.72918 11.0379 6.72237 10.3959 6.71402 10.3959C6.7057 10.3959 6.62079 10.4591 6.52536 10.5364C5.37408 11.4681 4.4003 12.5235 3.60348 13.7031C3.1544 14.368 2.55604 15.4272 2.64893 15.3928C2.67317 15.3839 3.39533 15.02 4.25372 14.5843Z" fill="#1D77FE"/>
<path d="M7.89003 25.5983C7.67649 25.3896 7.32794 25.0387 7.1155 24.8184L6.72917 24.4179V19.7282C6.72917 17.1489 6.7253 15.0385 6.72059 15.0385C6.70895 15.0385 3.92697 16.4342 1.81646 17.4988C0.869004 17.9768 0.0780995 18.3678 0.0588906 18.3678C0.0328899 18.3678 0.0276761 18.3531 0.0385383 18.3102C0.0465877 18.2785 0.0625494 18.1791 0.0740519 18.0893C0.0855544 17.9995 0.135795 17.7681 0.185738 17.575C0.442452 16.5825 0.785903 15.6858 1.30914 14.6422C1.64045 13.9814 1.92534 13.4884 2.30396 12.9209C3.55133 11.0511 5.24333 9.43228 7.20939 8.22762C7.62261 7.97441 8.24562 7.63254 8.29378 7.63254C8.32648 7.63254 8.32991 7.86151 8.32991 10.0453C8.32991 12.0872 8.33481 12.4599 8.36179 12.4702C8.37931 12.4768 8.46483 12.4468 8.55182 12.4033C9.2653 12.0475 9.8253 11.4204 10.088 10.683C10.2104 10.3393 10.257 10.065 10.2579 9.6822C10.2595 9.05521 10.0954 8.50859 9.75149 7.99491C9.57028 7.72426 9.37659 7.51606 7.7707 5.86552C6.06767 4.11511 5.86655 3.8978 5.66191 3.58684C5.41342 3.20931 5.30462 2.85047 5.30567 2.41212C5.30606 2.25136 5.32099 2.07452 5.34219 1.9792C5.49751 1.28106 5.96022 0.712934 6.62187 0.407749C6.91344 0.273309 7.1498 0.226562 7.53814 0.226562C8.08994 0.226562 8.47778 0.34712 8.91956 0.655951C9.42983 1.01266 9.61863 1.26933 10.9026 3.35211C12.3762 5.74243 12.8418 6.51675 12.8697 6.62342C12.8862 6.68638 12.898 6.73823 12.8959 6.73866C12.8938 6.73909 12.8745 6.7527 12.8531 6.76889C12.8192 6.79448 12.7987 6.78407 12.6955 6.68888C12.5323 6.53827 9.77721 3.68896 8.92015 2.78434C8.15056 1.97211 8.03485 1.86419 7.83741 1.77468C7.48794 1.61621 7.07141 1.7709 6.89624 2.12415C6.84303 2.2315 6.83216 2.28255 6.83255 2.42344C6.83296 2.56572 6.84399 2.61484 6.90038 2.72598C6.96866 2.86055 6.99327 2.88649 9.93777 5.92719C10.3127 6.31439 10.6884 6.71635 10.7725 6.82044C11.8799 8.18959 12.094 10.0573 11.3248 11.638C11.0775 12.1462 10.7882 12.5378 10.3585 12.9457C9.94893 13.3346 9.6604 13.5243 8.84444 13.941C8.58031 14.0758 8.35667 14.197 8.34741 14.2103C8.33817 14.2236 8.33046 16.8767 8.33026 20.1061C8.33 24.4548 8.32321 25.9776 8.30407 25.9776C8.28987 25.9776 8.10352 25.8069 7.89003 25.5983ZM2.96072 15.2449C3.12791 15.1591 3.88213 14.7752 4.63677 14.392C6.43079 13.4807 6.64158 13.3696 6.68865 13.3104C6.72512 13.2645 6.72821 13.1506 6.72866 11.8281C6.72894 11.0315 6.72034 10.3956 6.7093 10.3956C6.69837 10.3956 6.53116 10.5271 6.33769 10.6876C5.08013 11.7318 4.04531 12.9293 3.21396 14.3024C3.01899 14.6245 2.61297 15.3572 2.61297 15.387C2.61297 15.4175 2.66895 15.3946 2.96072 15.2449Z" fill="#1D77FE"/>
<path d="M7.5227 25.2254C7.11021 24.8109 6.76291 24.4482 6.75091 24.4194C6.73728 24.3867 6.72907 22.6131 6.72907 19.7029C6.72907 17.1377 6.72244 15.0388 6.71439 15.0388C6.69758 15.0388 5.37514 15.7015 2.25627 17.2726C1.06024 17.8752 0.0686716 18.3681 0.0527785 18.3681C0.0337982 18.3681 0.0285158 18.3497 0.0373885 18.3147C0.0448434 18.2853 0.0617198 18.186 0.0748916 18.0939C0.16028 17.4973 0.578211 16.2302 1.0003 15.288C2.25254 12.4928 4.21243 10.1948 6.78624 8.5038C7.42224 8.08594 8.25789 7.61418 8.30786 7.64476C8.32167 7.6532 8.32981 8.5527 8.32981 10.0689C8.32981 12.2515 8.33324 12.4796 8.36597 12.4796C8.42192 12.4796 8.70919 12.3307 8.92438 12.1902C9.16039 12.036 9.5553 11.6497 9.71759 11.4141C9.95788 11.0654 10.1363 10.6415 10.2199 10.2209C10.2736 9.95087 10.2738 9.39248 10.2203 9.12353C10.1415 8.72741 9.98599 8.34814 9.76465 8.01245C9.57158 7.71961 9.4721 7.61237 7.67943 5.76439C5.9895 4.02233 5.95941 3.99037 5.77027 3.73773C5.26853 3.06752 5.16816 2.30822 5.48269 1.56191C5.75822 0.908151 6.41395 0.381081 7.10172 0.260592C7.33982 0.218874 7.73543 0.218421 7.98886 0.259573C8.35334 0.318775 8.71669 0.492465 9.07553 0.77901C9.50993 1.12591 9.67265 1.35971 11.1425 3.74869C12.6759 6.24118 12.8539 6.5393 12.8694 6.64216C12.8862 6.75303 12.865 6.78478 12.79 6.7612C12.7655 6.75353 12.4025 6.39362 11.9831 5.96138C10.4901 4.42257 9.61299 3.51159 8.97969 2.84213C7.98122 1.78661 7.88997 1.71436 7.55231 1.71171C7.40948 1.71058 7.35924 1.72084 7.25178 1.77309C7.1084 1.84284 6.96543 1.98322 6.88544 2.13274C6.84327 2.2116 6.83268 2.26741 6.83239 2.41245C6.83179 2.67453 6.89164 2.782 7.23909 3.14294C7.39194 3.30171 8.20612 4.14343 9.04839 5.01346C9.89061 5.88345 10.6455 6.67331 10.726 6.7687C11.4876 7.67205 11.8759 8.91695 11.7594 10.0821C11.6293 11.3831 10.9788 12.5326 9.93927 13.2987C9.65777 13.5062 9.46728 13.617 8.83887 13.9388L8.34125 14.1937L8.33548 20.0858C8.33091 24.7763 8.32391 25.978 8.30118 25.9784C8.2855 25.9787 7.93516 25.6398 7.5227 25.2254ZM4.21362 14.6141C6.30732 13.5503 6.62301 13.3853 6.67762 13.3258L6.72907 13.2697V11.8328C6.72907 10.9068 6.72107 10.396 6.70659 10.396C6.67412 10.396 6.1359 10.8452 5.75003 11.1945C4.78762 12.0655 3.83035 13.249 3.13181 14.4314C2.90352 14.8178 2.61287 15.3591 2.61287 15.3978C2.61287 15.4291 2.52181 15.4737 4.21362 14.6141Z" fill="#1D77FE"/>
<path d="M7.51952 25.2164L6.75363 24.449L6.75267 19.7565C6.75203 16.5896 6.74414 15.0594 6.72839 15.0497C6.7046 15.0352 5.31975 15.723 1.95659 17.4198C0.922876 17.9413 0.0654942 18.368 0.0513162 18.368C0.0371382 18.368 0.0311468 18.3502 0.0379843 18.3284C0.0448446 18.3065 0.0609207 18.215 0.0737038 18.1249C0.149876 17.5879 0.490012 16.4963 0.841306 15.6615C1.5551 13.9652 2.50656 12.4616 3.70049 11.1432C4.02791 10.7816 4.81049 10.0193 5.15099 9.73022C5.77997 9.19617 6.45377 8.70407 7.11762 8.29389C7.57511 8.01122 8.22094 7.65152 8.27898 7.64706C8.31571 7.64423 8.31891 7.79701 8.32961 10.0674C8.34098 12.475 8.34134 12.4907 8.38678 12.4834C8.44905 12.4733 8.73643 12.3192 8.93371 12.1901C9.15454 12.0456 9.5966 11.6047 9.74483 11.381C9.9714 11.0392 10.1341 10.648 10.2204 10.2373C10.2769 9.96857 10.2767 9.37125 10.2199 9.10486C10.1141 8.60805 9.8711 8.09434 9.57718 7.74596C9.43579 7.57837 8.93135 7.05037 7.7812 5.86616C6.01718 4.04991 5.89323 3.91637 5.68658 3.61017C5.53954 3.39225 5.44466 3.1921 5.37411 2.95108C5.32945 2.79843 5.32268 2.72437 5.32392 2.40098C5.3252 2.06177 5.331 2.00891 5.38694 1.82825C5.5984 1.14534 6.06412 0.640915 6.73842 0.364448C6.9513 0.277184 7.24623 0.227562 7.55211 0.227539C8.20818 0.227516 8.73094 0.449039 9.24839 0.946326C9.62882 1.31191 9.79491 1.56163 11.4455 4.24978C12.8291 6.50305 12.853 6.54307 12.8695 6.64023C12.8892 6.75531 12.8584 6.7924 12.7785 6.75003C12.7127 6.71515 10.4505 4.38641 9.05907 2.92125C7.9538 1.75743 7.89414 1.70984 7.54067 1.71066C7.31254 1.71118 7.17904 1.77317 7.00881 1.95764C6.86139 2.11742 6.81044 2.25881 6.82553 2.4663C6.84096 2.67812 6.91876 2.81401 7.18124 3.08745C7.30308 3.21439 8.12691 4.06628 9.01198 4.98054C9.89704 5.89483 10.6836 6.72036 10.7598 6.81505C10.9778 7.0859 11.1582 7.3703 11.3144 7.68934C12.27 9.64155 11.6951 11.9938 9.9462 13.287C9.6516 13.5049 9.50163 13.5928 8.86982 13.9181L8.34104 14.1905L8.32961 20.0709C8.32332 23.3052 8.31081 25.9587 8.3018 25.9676C8.29279 25.9765 7.94077 25.6385 7.51952 25.2164ZM4.31632 14.5632C6.50558 13.4517 6.63813 13.3817 6.69344 13.3083C6.73932 13.2475 6.74044 13.2167 6.74714 11.8289C6.75116 10.9983 6.74538 10.4031 6.73319 10.391C6.69024 10.3485 5.94393 10.9887 5.35639 11.572C4.50347 12.4189 3.82242 13.2855 3.18326 14.3372C2.87889 14.8379 2.56972 15.4361 2.62598 15.4153C2.6501 15.4064 3.41075 15.023 4.31632 14.5632Z" fill="#1D77FE"/>
<path d="M8.16382 25.86C8.09494 25.7938 7.74909 25.4483 7.39524 25.092L6.7519 24.4442V19.7413C6.7519 15.5637 6.74803 15.0384 6.71739 15.0384C6.68512 15.0384 4.7849 15.9863 2.064 17.3597C0.471584 18.1635 0.0493305 18.3732 0.041464 18.3641C0.0259825 18.3462 0.0868108 18.0338 0.181872 17.643C0.553885 16.1133 1.35808 14.3421 2.34649 12.8755C3.61021 11.0004 5.32202 9.37956 7.30388 8.18153C7.69291 7.94638 8.23654 7.65512 8.28651 7.65512C8.32868 7.65512 8.32977 7.71579 8.32977 10.0658C8.32977 11.6733 8.3375 12.4813 8.35301 12.4907C8.36577 12.4986 8.47508 12.4534 8.59591 12.3904C9.63529 11.8485 10.2727 10.8178 10.2734 9.6781C10.2738 8.97091 10.0415 8.32138 9.58748 7.76018C9.42827 7.56339 9.24254 7.36807 7.84008 5.92253C6.04762 4.07497 6.00327 4.02809 5.81034 3.77711C5.62948 3.54179 5.46732 3.2345 5.38879 2.97826C5.33277 2.79542 5.32618 2.73828 5.32477 2.42337C5.32284 2.00083 5.36501 1.81212 5.53991 1.46082C5.75105 1.03651 6.09327 0.689897 6.51686 0.471322C6.86006 0.294213 7.14797 0.226427 7.55666 0.226563C8.37256 0.226834 9.07005 0.622092 9.65487 1.41553C9.89912 1.74692 10.8127 3.21165 12.544 6.04773C12.8639 6.57181 12.932 6.73103 12.8497 6.7623C12.7822 6.78794 12.9282 6.93314 10.6495 4.57342C9.99484 3.89537 9.23712 3.10622 8.96575 2.81972C7.98785 1.7873 7.89117 1.71145 7.55227 1.7105C7.3224 1.70986 7.20093 1.7579 7.03953 1.91325C6.90042 2.04714 6.83886 2.17587 6.82546 2.3608C6.81245 2.54019 6.84513 2.67418 6.93447 2.80785C6.96958 2.86037 7.52172 3.44418 8.16142 4.10519C8.80112 4.7662 9.61151 5.60348 9.96228 5.96581C10.3131 6.32818 10.6609 6.69832 10.7352 6.78842C11.201 7.35288 11.5234 8.02678 11.681 8.76488C11.7311 8.9997 11.7434 9.12811 11.7535 9.51782C11.7613 9.81911 11.7558 10.0669 11.7382 10.2086C11.6128 11.2202 11.1577 12.1467 10.4337 12.8646C10.0171 13.2777 9.69617 13.4897 8.74139 13.9826L8.34121 14.1891L8.32977 20.0701C8.32348 23.3047 8.31173 25.9577 8.30368 25.9657C8.29561 25.9736 8.2327 25.9261 8.16382 25.86ZM4.04817 14.7061C6.14748 13.6393 6.57222 13.418 6.66043 13.3446L6.74046 13.2781L6.74668 11.8441C6.75018 11.0373 6.7441 10.4014 6.73273 10.3902C6.70948 10.3671 6.48457 10.5395 6.081 10.8898C4.93313 11.8859 3.96434 13.0365 3.17899 14.3364C3.00444 14.6252 2.58996 15.3791 2.58996 15.4077C2.58996 15.4164 2.60044 15.4235 2.61322 15.4235C2.626 15.4235 3.27174 15.1007 4.04817 14.7061Z" fill="#1D77FE"/>
<path d="M7.52153 25.2057L6.75194 24.4311V19.7386C6.75194 17.1576 6.74508 15.0392 6.73673 15.0309C6.721 15.0154 5.30948 15.7175 1.97641 17.3988C0.915761 17.9338 0.0443159 18.3679 0.0398567 18.3635C0.0235291 18.3474 0.166818 17.6899 0.258541 17.3599C0.826302 15.3177 1.93811 13.2283 3.34363 11.5619C4.2972 10.4314 5.50505 9.35845 6.7405 8.54433C7.37774 8.12444 8.23313 7.63958 8.29515 7.66314C8.32583 7.6748 8.32981 7.95392 8.32981 10.0891C8.32981 12.0233 8.33558 12.5018 8.35883 12.5018C8.40557 12.5018 8.7169 12.3403 8.89026 12.2261C9.60984 11.752 10.0882 11.0253 10.2376 10.1794C10.284 9.91695 10.284 9.42585 10.2378 9.1612C10.1893 8.8834 10.0663 8.52782 9.9282 8.26639C9.69461 7.82398 9.59758 7.71613 7.47344 5.53748C5.96156 3.98683 5.71984 3.71147 5.52933 3.32278C5.37429 3.00639 5.3238 2.7744 5.3262 2.38938C5.32855 2.01093 5.3718 1.82116 5.52979 1.49604C5.66487 1.21808 5.78996 1.04711 6.01168 0.837386C6.4376 0.434519 6.96102 0.226744 7.55046 0.226563C8.17381 0.226336 8.73471 0.462625 9.24061 0.938601C9.57679 1.25486 9.82523 1.62806 11.3372 4.088C12.8932 6.61962 12.9204 6.66684 12.87 6.74769C12.8445 6.78844 12.8149 6.77551 12.7048 6.67556C12.5602 6.54429 9.76056 3.6493 8.90446 2.74577C8.16606 1.96645 7.99997 1.81452 7.8087 1.7435C7.43733 1.60559 7.04375 1.77566 6.87055 2.14885C6.74935 2.41008 6.8078 2.68738 7.03852 2.94546C7.09916 3.01332 7.92796 3.87397 8.88026 4.85804C9.83257 5.8421 10.663 6.7084 10.7256 6.78314C11.1487 7.28785 11.4886 7.97208 11.6466 8.63721C11.8562 9.51921 11.7771 10.5146 11.43 11.365C11.1888 11.9556 10.9 12.3832 10.4239 12.8542C9.96337 13.3099 9.69545 13.4905 8.81568 13.938L8.32981 14.1852L8.32947 20.0531C8.32929 23.2804 8.32055 25.9342 8.31012 25.9505C8.29659 25.9717 8.07061 25.7584 7.52153 25.2057ZM5.19693 14.1271C6.56385 13.4297 6.66714 13.373 6.71384 13.2947C6.7483 13.237 6.75194 13.0948 6.75194 11.8019C6.75194 10.6667 6.74599 10.3729 6.72308 10.3729C6.70721 10.3729 6.52971 10.5093 6.32861 10.6759C5.04486 11.7402 3.9961 12.962 3.141 14.3895C2.92947 14.7427 2.59 15.3785 2.59 15.4215C2.59 15.4495 3.14324 15.1748 5.19693 14.1271Z" fill="#1D77FE"/>
<path d="M7.52378 25.2012L6.75199 24.4187V19.7173C6.75199 16.5462 6.74442 15.0159 6.72873 15.0159C6.70518 15.0159 4.76119 15.9885 1.75597 17.5039C0.850731 17.9604 0.0954079 18.3374 0.0774795 18.3418C0.0341908 18.3524 0.0507242 18.2349 0.155298 17.789C0.475699 16.4227 1.13461 14.8574 1.96151 13.498C3.34247 11.2277 5.31198 9.32359 7.66336 7.98544C7.9523 7.82106 8.26949 7.65518 8.29501 7.65518C8.30162 7.65518 8.30702 8.72957 8.30702 10.0427C8.30702 11.3559 8.31326 12.4464 8.3209 12.4661C8.34123 12.5186 8.38118 12.511 8.56485 12.4202C9.42308 11.9956 10.0271 11.2099 10.231 10.2527C10.3002 9.92796 10.3002 9.4138 10.231 9.08909C10.1423 8.67279 10.0079 8.34783 9.78286 8.00623C9.58686 7.70863 9.51474 7.63084 7.73535 5.79803C5.75559 3.75885 5.73762 3.73853 5.52884 3.30199C5.38157 2.99413 5.32733 2.74978 5.32874 2.40079C5.33108 1.81674 5.54903 1.30169 5.97002 0.885283C6.39214 0.467763 6.87525 0.2565 7.46089 0.233399C8.04726 0.210253 8.56335 0.392299 9.07943 0.804361C9.49614 1.13709 9.65839 1.37177 11.1695 3.82763C12.4971 5.98515 12.8435 6.56032 12.8645 6.64249C12.9315 6.90353 12.8249 6.80673 11.2426 5.16963C9.30303 3.16286 9.42258 3.28717 8.86291 2.69522C8.18347 1.97659 8.04628 1.84917 7.85806 1.76177C7.55186 1.61958 7.25016 1.67852 7.01625 1.9262C6.86233 2.08917 6.81012 2.21519 6.81021 2.42344C6.81032 2.67123 6.87753 2.79322 7.19512 3.12225C7.33512 3.26731 8.14939 4.10874 9.00458 4.99209C9.85979 5.87544 10.6248 6.67549 10.7046 6.76998C11.4141 7.60968 11.7958 8.71999 11.7526 9.81809C11.7047 11.0342 11.207 12.1322 10.3343 12.9473C9.95204 13.3042 9.60543 13.5281 8.79868 13.939C8.55971 14.0606 8.3539 14.1698 8.34132 14.1815C8.32623 14.1955 8.31457 16.2103 8.30702 20.0933L8.29559 25.9837L7.52378 25.2012ZM4.07147 14.7059C6.31014 13.5685 6.59761 13.4185 6.67767 13.3458L6.75199 13.2784V11.8256C6.75199 10.5699 6.74748 10.3729 6.71874 10.3729C6.67328 10.3729 6.17682 10.7828 5.73748 11.183C4.5307 12.2824 3.41716 13.7512 2.65619 15.2475C2.55868 15.4392 2.55639 15.4462 2.59079 15.4462C2.60375 15.4462 3.27007 15.113 4.07147 14.7059Z" fill="#1D77FE"/>
<path d="M7.53498 25.2074L6.77463 24.442V19.7396C6.77463 15.6204 6.77045 15.0356 6.74097 15.0244C6.70699 15.0115 5.50602 15.6071 1.97601 17.3874C0.927776 17.9161 0.06454 18.3431 0.0576797 18.3363C0.0277915 18.3067 0.227976 17.4695 0.383157 16.9751C1.01088 14.9751 2.10288 13.0129 3.47118 11.4262C3.83704 11.002 4.76092 10.0857 5.1853 9.72616C5.821 9.18758 6.46722 8.71686 7.14049 8.30188C7.612 8.01125 8.2612 7.65278 8.2872 7.66865C8.29795 7.67524 8.30675 8.75976 8.30675 10.0787C8.30675 11.691 8.31443 12.4814 8.33017 12.4911C8.37334 12.5175 8.48299 12.4778 8.6872 12.3619C9.49763 11.9018 10.0372 11.1746 10.2301 10.2825C10.2717 10.0904 10.2816 9.97291 10.2816 9.67101C10.2816 9.11196 10.1953 8.75878 9.93798 8.26505C9.71223 7.83181 9.67948 7.79492 7.84976 5.9114C5.99322 4.00027 5.8588 3.85417 5.65171 3.52221C5.41327 3.13996 5.32138 2.78615 5.34043 2.32349C5.3547 1.97656 5.3939 1.80989 5.52795 1.52618C5.71809 1.12372 5.97277 0.828228 6.32603 0.60016C7.25565 2.69413e-05 8.37377 0.133267 9.22459 0.945568C9.45684 1.16729 9.67207 1.44157 9.93043 1.84498C10.4617 2.67456 12.7725 6.43774 12.8377 6.57952C12.939 6.79989 12.8484 6.80736 12.6308 6.59651C12.495 6.46488 11.5058 5.44317 9.87347 3.74849C9.63349 3.49936 9.21997 3.06621 8.95455 2.78594C7.99307 1.77073 7.89028 1.69031 7.55214 1.68845C7.34477 1.68732 7.17395 1.75628 7.02929 1.89958C6.74531 2.18083 6.72535 2.58045 6.97962 2.89357C7.02764 2.9527 7.48678 3.43425 7.99991 3.96365C8.51306 4.49305 9.30836 5.31349 9.76727 5.78683C10.2262 6.26018 10.6633 6.72391 10.7386 6.81733C11.2521 7.45422 11.5812 8.19593 11.7069 8.9994C11.7664 9.37993 11.76 10.0239 11.6927 10.4071C11.4631 11.7162 10.714 12.8174 9.57939 13.5138C9.46429 13.5844 9.15917 13.7491 8.90133 13.8798C8.6435 14.0105 8.40426 14.1369 8.3697 14.1606L8.30686 14.2037L8.3011 20.0882L8.29534 25.9727L7.53498 25.2074ZM4.24472 14.6232C6.28945 13.5849 6.61421 13.4152 6.68188 13.3501C6.7224 13.311 6.74227 13.2603 6.75426 13.1652C6.77427 13.0066 6.77971 10.4735 6.7602 10.4014C6.75265 10.3734 6.73775 10.3505 6.72711 10.3505C6.7165 10.3505 6.58647 10.4488 6.43822 10.569C5.07185 11.677 3.9157 13.0295 3.03781 14.5472C2.83337 14.9007 2.56696 15.4042 2.56696 15.4373C2.56696 15.4712 2.74304 15.3858 4.24472 14.6232Z" fill="#1D77FE"/>
<path d="M7.54066 25.2127L6.78602 24.4589L6.77459 19.7434C6.7643 15.5022 6.75959 15.0273 6.7276 15.0212C6.69311 15.0146 5.32136 15.697 1.82372 17.4607C0.892997 17.93 0.113503 18.3208 0.0914812 18.3289C0.0398001 18.3482 0.0403489 18.3267 0.0981129 18.0676C0.536145 16.1026 1.46668 14.0862 2.73449 12.3548C3.77475 10.9343 5.19808 9.58292 6.70708 8.58323C7.26224 8.21542 8.19212 7.67798 8.2733 7.67798C8.30243 7.67798 8.30673 7.98819 8.30673 10.0876C8.30673 12.1428 8.31149 12.499 8.33904 12.5095C8.38032 12.5252 8.65004 12.3974 8.86255 12.2615C9.79437 11.6656 10.3385 10.6296 10.2885 9.54646C10.2601 8.93369 10.0715 8.38943 9.71797 7.90048C9.55181 7.67071 9.31291 7.41345 8.24002 6.30898C7.80508 5.86125 7.29998 5.34113 7.1176 5.15318C5.98007 3.98081 5.71977 3.68016 5.55816 3.35217C5.37899 2.98846 5.32159 2.71009 5.34105 2.29902C5.36644 1.76271 5.56431 1.31398 5.94886 0.920719C6.16672 0.697928 6.34483 0.570781 6.6179 0.443135C6.96451 0.28111 7.159 0.239482 7.56353 0.240751C7.86831 0.241702 7.92948 0.248632 8.11235 0.302965C8.53518 0.42864 8.88958 0.632293 9.21298 0.935463C9.55593 1.257 9.73896 1.525 10.9022 3.40879C11.8736 4.98177 12.8184 6.5332 12.8487 6.60509C12.919 6.77173 12.8551 6.7981 12.7049 6.66443C12.5915 6.56337 10.1392 4.02659 9.18748 3.02576C7.96694 1.74215 7.89893 1.68693 7.54066 1.68822C7.31964 1.68901 7.18358 1.74541 7.02515 1.90195C6.86249 2.06269 6.80878 2.19253 6.80944 2.42359C6.8099 2.58964 6.81875 2.63272 6.87381 2.73715C6.95298 2.88731 6.88021 2.80976 8.87506 4.8696C9.78586 5.81007 10.6006 6.66107 10.6857 6.76073C11.4327 7.63613 11.8321 8.85702 11.7386 9.97913C11.6254 11.3379 10.9969 12.4778 9.91648 13.2843C9.67736 13.4628 9.40646 13.6205 8.8519 13.904C8.5795 14.0432 8.34538 14.1705 8.3317 14.1868C8.31393 14.208 8.30517 15.8976 8.30106 20.0915L8.2953 25.9664L7.54066 25.2127ZM3.93167 14.7858C6.20399 13.6317 6.57692 13.4372 6.67168 13.3562L6.76315 13.278L6.77015 11.8661C6.77402 11.0896 6.77125 10.4309 6.764 10.4024C6.75677 10.3738 6.73976 10.3504 6.7262 10.3504C6.6932 10.3504 6.28371 10.6846 5.91705 11.0108C4.63636 12.1501 3.60717 13.4622 2.76367 15.0308C2.59118 15.3517 2.54112 15.469 2.57675 15.469C2.58217 15.469 3.19189 15.1615 3.93167 14.7858Z" fill="#1D77FE"/>
<path d="M7.53519 25.2012L6.77484 24.4291V19.7239C6.77484 16.5943 6.76713 15.0139 6.75186 15.0045C6.73112 14.9918 4.80842 15.9491 1.32088 17.7086C0.629127 18.0576 0.0598337 18.3338 0.0557861 18.3223C0.0440549 18.289 0.203969 17.6193 0.317736 17.2253C0.892541 15.2348 1.99452 13.1862 3.35814 11.5733C4.50304 10.2191 5.89297 9.04521 7.42657 8.13713C7.81398 7.90772 8.24156 7.67784 8.2808 7.67784C8.3003 7.67784 8.30698 8.29365 8.30698 10.0906C8.30698 12.1638 8.3116 12.5051 8.33973 12.5158C8.35775 12.5226 8.45546 12.4868 8.55688 12.4362C9.43651 11.9969 10.028 11.2397 10.2392 10.2824C10.2956 10.0269 10.3089 9.48126 10.2652 9.21765C10.1694 8.63919 9.9236 8.10818 9.55236 7.67784C9.40326 7.50501 8.85951 6.93729 7.84947 5.89996C5.86265 3.85942 5.74449 3.7265 5.53927 3.3013C5.4189 3.05192 5.35606 2.80242 5.34099 2.51404C5.32576 2.22265 5.35727 2.00729 5.45784 1.71542C5.56427 1.40664 5.71716 1.16457 5.96303 0.915554C6.26564 0.609123 6.56256 0.433011 6.99702 0.302262C7.17349 0.249152 7.23814 0.241633 7.52948 0.240365C7.8204 0.239097 7.8877 0.246253 8.0783 0.298661C8.50026 0.414711 8.87936 0.62697 9.20882 0.931702C9.53146 1.23014 9.74729 1.54656 10.8906 3.39733C11.6971 4.70291 12.8227 6.55177 12.8527 6.6201C12.9192 6.77155 12.859 6.79116 12.7169 6.66433C12.5888 6.55001 9.81557 3.68174 8.95423 2.77269C8.19502 1.97142 8.05605 1.83976 7.87645 1.75152C7.6067 1.61903 7.28157 1.666 7.05168 1.87072C6.73434 2.15328 6.70958 2.59148 6.99243 2.91965C7.04916 2.98549 7.88171 3.85117 8.84248 4.84335C9.80327 5.83557 10.6486 6.71869 10.721 6.80589C11.2358 7.42575 11.5886 8.23128 11.704 9.05046C11.7502 9.37832 11.7393 10.1422 11.6843 10.4296C11.4679 11.5615 10.9179 12.4829 10.0417 13.1811C9.74957 13.4139 9.49892 13.5649 8.86724 13.8889C8.57796 14.0372 8.3336 14.166 8.32422 14.175C8.31485 14.184 8.30703 16.8432 8.30689 20.0845C8.30675 23.3257 8.30415 25.9766 8.3011 25.9754C8.29804 25.9742 7.9534 25.6258 7.53519 25.2012ZM4.12003 14.6954C5.7489 13.8681 6.51086 13.4761 6.63455 13.4019C6.7777 13.3159 6.77484 13.3487 6.77484 11.7885C6.77484 10.5445 6.77061 10.37 6.74024 10.3584C6.67779 10.3347 5.93317 10.9639 5.38693 11.502C4.3142 12.5587 3.43978 13.7393 2.72432 15.097C2.56658 15.3964 2.53961 15.4689 2.58597 15.4689C2.59214 15.4689 3.28245 15.1208 4.12003 14.6954Z" fill="#1D77FE"/>
<path d="M7.51006 25.1648L6.77463 24.4184V19.7059C6.77463 15.718 6.76979 14.9934 6.74312 14.9934C6.71305 14.9934 5.40227 15.6469 2.30398 17.2066C1.52419 17.5991 0.696928 18.0173 0.465597 18.1358C0.0847574 18.3309 0.0461109 18.3462 0.0566072 18.2974C0.439528 16.5146 1.11811 14.8636 2.12493 13.2651C3.27561 11.4382 4.87677 9.80936 6.73281 8.57746C7.30308 8.19894 8.24027 7.6626 8.28429 7.68955C8.29879 7.69841 8.30677 8.55576 8.30677 10.1034C8.30677 12.3272 8.30959 12.5045 8.34508 12.518C8.39173 12.5358 8.68016 12.3926 8.93486 12.2253C9.16992 12.071 9.50559 11.7527 9.69265 11.5068C9.96167 11.1532 10.1814 10.644 10.2593 10.1936C10.3075 9.91549 10.3075 9.42658 10.2593 9.14844C10.1805 8.69274 9.9769 8.22568 9.69503 7.8538C9.50857 7.60777 9.29034 7.37617 7.75808 5.79818C6.42144 4.42164 6.22526 4.21679 6.00541 3.96781C5.67373 3.59231 5.48471 3.25362 5.38672 2.85927C5.32893 2.62674 5.33465 2.17292 5.39861 1.91679C5.55496 1.29075 5.98409 0.765579 6.58026 0.470767C6.72501 0.399198 6.80429 0.370662 7.14052 0.269107C7.20715 0.248995 7.35223 0.238487 7.55214 0.239302C7.9284 0.240865 8.15873 0.298233 8.54689 0.487096C8.97211 0.693988 9.29633 0.974328 9.62144 1.41617C9.86322 1.74473 10.4006 2.60321 12.0527 5.29994C12.7133 6.37845 12.8803 6.66592 12.8803 6.72487C12.8803 6.78926 12.7654 6.70852 12.5482 6.49162C12.1623 6.10622 9.77102 3.62845 9.04764 2.8645C8.27906 2.05279 8.05342 1.8356 7.89143 1.75155C7.78292 1.69524 7.7453 1.68818 7.55214 1.68788C7.28847 1.68748 7.17722 1.73404 7.00105 1.91851C6.84527 2.08165 6.78883 2.21253 6.78812 2.41229C6.78726 2.65555 6.87187 2.81303 7.16784 3.11898C7.29794 3.25347 8.09993 4.08203 8.95004 4.96021C9.80015 5.8384 10.5563 6.62642 10.6304 6.71138C11.1679 7.32784 11.5296 8.08042 11.6717 8.87836C11.7313 9.21324 11.7517 9.78723 11.7159 10.1263C11.602 11.2077 11.0867 12.237 10.2997 12.9556C9.90569 13.3153 9.63834 13.4876 8.82452 13.9063L8.31821 14.1667L8.30677 20.0307C8.29859 24.2306 8.28825 25.8971 8.27041 25.903C8.25674 25.9075 7.91459 25.5753 7.51006 25.1648ZM2.9387 15.3017C3.11787 15.2096 3.88188 14.8207 4.63652 14.4374C6.40219 13.5406 6.63688 13.4172 6.70605 13.3496L6.76322 13.2937V11.8281C6.76322 10.481 6.76016 10.3618 6.72528 10.3552C6.70329 10.351 6.54488 10.4657 6.34797 10.6285C5.05832 11.6944 4.02757 12.8854 3.16774 14.3032C2.94005 14.6787 2.54412 15.4023 2.54412 15.443C2.54412 15.4932 2.61579 15.4675 2.9387 15.3017Z" fill="#1D77FE"/>
<path d="M7.52361 25.1679L6.77469 24.4249V19.7092C6.77469 15.3514 6.77184 14.9935 6.73715 14.9935C6.7165 14.9935 6.16854 15.2599 5.51944 15.5854C3.32168 16.6878 0.200622 18.2599 0.123054 18.3037L0.0458984 18.3472L0.0583156 18.2954C0.0651302 18.2668 0.101787 18.111 0.139771 17.9489C0.61398 15.9259 1.57975 13.9006 2.89724 12.1663C4.23303 10.4079 6.09319 8.82933 8.03814 7.80372L8.28397 7.67409V10.0636C8.28397 11.3779 8.29021 12.4693 8.29785 12.489C8.32001 12.5462 8.39689 12.5313 8.59115 12.4322C9.47398 11.982 10.077 11.1824 10.2634 10.2147C10.3235 9.90245 10.3192 9.3949 10.2539 9.08935C10.1563 8.63283 9.96173 8.19509 9.70419 7.85267C9.5384 7.63221 9.28061 7.35826 7.93091 5.96815C6.07041 4.052 5.92427 3.89545 5.72703 3.60746C5.1407 2.7514 5.23947 1.66265 5.97071 0.921218C6.25852 0.629373 6.64856 0.400897 7.00337 0.316261C7.07255 0.29975 7.14131 0.277306 7.15617 0.266367C7.19811 0.23552 7.66324 0.219915 7.80374 0.244647C8.33531 0.338252 8.81962 0.582898 9.21203 0.956028C9.60015 1.32501 9.74526 1.54697 11.9465 5.13741C12.4224 5.91371 12.8118 6.55424 12.8118 6.56083C12.8118 6.56742 12.8286 6.60783 12.8491 6.65066C12.9447 6.85026 12.7773 6.72746 12.3496 6.28421C12.1447 6.0719 11.426 5.32791 10.7525 4.63089C10.079 3.93389 9.29536 3.119 9.01112 2.82005C8.40263 2.18005 8.05248 1.83734 7.93908 1.77073C7.8147 1.69769 7.587 1.64684 7.46331 1.66451C7.2061 1.70127 6.96075 1.88461 6.84735 2.12484C6.76205 2.30552 6.76127 2.54034 6.84545 2.71845C6.91821 2.8725 6.8988 2.85166 8.78658 4.80177C10.5565 6.63016 10.6416 6.71962 10.7815 6.89981C11.4323 7.73813 11.773 8.79169 11.729 9.82968C11.665 11.3403 10.9191 12.632 9.63317 13.4595C9.52626 13.5282 9.19708 13.7085 8.90167 13.8601C8.60624 14.0116 8.34644 14.1518 8.32431 14.1717C8.28612 14.2059 8.28376 14.507 8.2783 20.0593L8.27253 25.9109L7.52361 25.1679ZM4.12203 14.7061C6.41947 13.5396 6.61828 13.4351 6.70053 13.3498L6.77504 13.2725L6.76914 11.8078C6.76484 10.736 6.75626 10.3408 6.73719 10.3345C6.72285 10.3297 6.58425 10.4288 6.42921 10.5546C4.89464 11.7999 3.64988 13.3185 2.72422 15.0746C2.53986 15.4244 2.5107 15.5092 2.58418 15.4816C2.6062 15.4733 3.29822 15.1243 4.12203 14.7061Z" fill="#1D77FE"/>
<path d="M7.53497 25.1791L6.79748 24.4474V19.7529C6.79748 16.4824 6.79012 15.0447 6.7732 15.0134C6.75038 14.9712 6.65751 15.0141 5.24677 15.72C4.42058 16.1334 2.9294 16.883 1.933 17.3858C0.936565 17.8886 0.111633 18.3 0.0997414 18.3C0.0878501 18.3 0.0729861 18.3128 0.0666288 18.3283C0.0597914 18.3451 0.0543717 18.3404 0.0532969 18.3167C0.0523136 18.2947 0.0612092 18.259 0.0731004 18.2374C0.0849917 18.2158 0.122152 18.0707 0.155699 17.915C0.359702 16.9678 0.78143 15.8048 1.30549 14.7442C2.74758 11.8255 4.99276 9.48977 7.89832 7.88546C8.08242 7.78381 8.24451 7.70062 8.25848 7.70062C8.27696 7.70062 8.28389 8.35554 8.28389 10.1005C8.28389 12.8737 8.25498 12.5997 8.53354 12.4675C9.43178 12.0411 10.0648 11.2208 10.2655 10.223C10.3257 9.92421 10.3202 9.372 10.2541 9.06554C10.1412 8.5425 9.88774 8.03695 9.54134 7.644C9.38397 7.46549 8.85771 6.91729 7.79118 5.82082C5.90367 3.88036 5.75284 3.71114 5.56301 3.32073C5.4285 3.04408 5.37762 2.84018 5.36315 2.51959C5.34408 2.09681 5.40637 1.80137 5.59109 1.43836C5.7369 1.15191 6.02787 0.823757 6.30144 0.637362C6.46357 0.526884 6.79929 0.372966 6.9721 0.329912C7.05843 0.308396 7.14578 0.282169 7.16625 0.271638C7.22923 0.239183 7.62452 0.22231 7.76936 0.245887C8.31012 0.333921 8.80143 0.574196 9.20002 0.945559C9.55058 1.27219 9.79453 1.63921 11.4168 4.28074C12.7776 6.49667 12.8803 6.66854 12.8803 6.73028C12.8803 6.75631 12.8087 6.72593 12.7427 6.67194C12.6553 6.60049 10.0541 3.91298 9.06914 2.87655C8.00577 1.75763 7.89013 1.66532 7.55164 1.66503C7.40323 1.66489 7.3587 1.67508 7.22699 1.73931C7.05806 1.82166 6.9228 1.95617 6.83858 2.12546C6.79616 2.21076 6.78612 2.2681 6.78637 2.42358C6.78664 2.58989 6.79536 2.63247 6.85033 2.73636C6.93158 2.88989 6.89337 2.84901 8.71783 4.7337C10.6037 6.68186 10.6476 6.72815 10.8083 6.93962C12.0734 8.60442 12.0317 10.9108 10.7074 12.5134C10.5456 12.7092 10.2199 13.0271 10.0218 13.1826C9.72044 13.4192 9.3525 13.6353 8.66121 13.9817C8.4977 14.0636 8.34849 14.141 8.32962 14.1535C8.29932 14.1737 8.294 14.862 8.28389 20.0436L8.27245 25.9107L7.53497 25.1791ZM4.10041 14.7202C6.28847 13.6092 6.63789 13.4267 6.70642 13.3588C6.79291 13.2731 6.79714 13.196 6.79732 11.6967C6.79746 10.6535 6.79161 10.3964 6.76691 10.363C6.75008 10.3402 6.72492 10.3255 6.711 10.3304C6.63123 10.358 5.87289 11.0173 5.4634 11.4149C4.78452 12.0742 4.31004 12.6209 3.79252 13.34C3.37621 13.9185 2.96532 14.5894 2.67266 15.1685C2.54945 15.4123 2.52242 15.4916 2.56255 15.4916C2.57271 15.4916 3.26473 15.1445 4.10041 14.7202Z" fill="#1D77FE"/>
<path d="M7.51971 25.1578L6.79741 24.4286V19.7354C6.79741 17.1542 6.79117 15.0261 6.78353 15.0064C6.77589 14.9867 6.76009 14.9705 6.74843 14.9705C6.72798 14.9705 5.20355 15.7332 1.7322 17.4801C0.826635 17.9357 0.0781728 18.3194 0.0689114 18.3325C0.0588496 18.3469 0.0519892 18.3411 0.0517606 18.3182C0.0515776 18.2971 0.0605189 18.2743 0.0716555 18.2675C0.0827693 18.2607 0.0991426 18.2065 0.108015 18.1472C0.169118 17.7391 0.50468 16.6304 0.771364 15.9557C1.57418 13.9247 2.75818 12.1181 4.28196 10.5991C5.25452 9.62966 6.30486 8.81627 7.46058 8.13766C7.77793 7.95131 8.24156 7.70046 8.26859 7.70046C8.27695 7.70046 8.28381 8.77953 8.28381 10.0984C8.28381 12.2321 8.2877 12.4995 8.3191 12.5253C8.37074 12.5678 8.77264 12.364 9.0597 12.1498C10.4761 11.0931 10.7347 9.1119 9.63386 7.75024C9.47914 7.55886 9.09283 7.15287 7.89483 5.92257C5.92766 3.90235 5.7803 3.73799 5.5802 3.34067C5.42292 3.02831 5.35656 2.74933 5.35704 2.40227C5.35816 1.59848 5.83205 0.854303 6.58017 0.481423C6.72565 0.408926 7.06816 0.294484 7.13969 0.294484C7.16316 0.294484 7.18644 0.282322 7.19144 0.267442C7.20363 0.23125 7.8199 0.227513 7.8973 0.263184C7.92749 0.27709 8.03421 0.310927 8.13444 0.338376C8.69491 0.491818 9.20488 0.867349 9.61522 1.42873C9.81467 1.7016 10.3388 2.53297 11.3632 4.20131C12.6994 6.37742 12.8196 6.57645 12.8297 6.62883C12.8353 6.65769 12.8489 6.68129 12.86 6.68129C12.8711 6.68129 12.8794 6.69913 12.8784 6.72092C12.8773 6.74484 12.872 6.74928 12.8651 6.73211C12.8587 6.71646 12.8433 6.70987 12.8309 6.7175C12.8184 6.72513 12.7819 6.70731 12.7497 6.678C12.6391 6.57733 9.68799 3.52184 9.00111 2.79689C8.21304 1.96511 8.06376 1.82344 7.87951 1.73242C7.76481 1.67578 7.71958 1.66656 7.55205 1.6657C7.38488 1.66484 7.33967 1.67347 7.22904 1.72726C7.08381 1.79792 6.91831 1.96083 6.84148 2.10879C6.80601 2.17712 6.78673 2.26144 6.77996 2.37812C6.76791 2.58501 6.82032 2.74344 6.95357 2.903C7.00219 2.9612 7.82975 3.82242 8.7926 4.81677C9.7554 5.81112 10.6079 6.7011 10.687 6.79453C11.4184 7.6586 11.806 8.86342 11.7144 9.98793C11.623 11.1095 11.1532 12.1171 10.3726 12.8657C9.95517 13.266 9.68952 13.4444 8.92411 13.8381C8.62855 13.9901 8.36355 14.129 8.33527 14.1467L8.28381 14.1789V20.0329C8.28381 23.5519 8.27549 25.887 8.26291 25.887C8.25143 25.887 7.91699 25.5589 7.51971 25.1578ZM4.07166 14.7398C6.08455 13.7172 6.61392 13.4426 6.6913 13.3809C6.74047 13.3417 6.76196 13.2996 6.77596 13.2152C6.79746 13.0853 6.80454 10.4177 6.78353 10.3635C6.75986 10.3024 6.70548 10.3229 6.53697 10.4567C5.0209 11.6598 3.75268 13.1699 2.81259 14.8913C2.52137 15.4246 2.49427 15.4915 2.56946 15.4915C2.58199 15.4915 3.25798 15.1532 4.07166 14.7398Z" fill="#1D77FE"/>
<path d="M7.52358 25.1524L6.79752 24.4197V19.7058C6.79752 15.5785 6.79334 14.9904 6.76391 14.9792C6.73038 14.9665 5.42514 15.6136 1.97242 17.3547C0.985109 17.8525 0.157821 18.2701 0.133993 18.2825C0.0934255 18.3037 0.0916418 18.298 0.10582 18.1921C0.114144 18.13 0.157181 17.9327 0.201476 17.7536C0.787531 15.3841 2.05589 13.0269 3.74621 11.1659C4.04468 10.8373 4.74032 10.154 5.07101 9.86472C5.59383 9.40725 6.27884 8.89116 6.87756 8.50363C7.30519 8.2268 8.21695 7.70068 8.269 7.70068C8.27709 7.70068 8.28633 8.7885 8.28953 10.1181C8.29621 12.8823 8.26792 12.6015 8.52747 12.4812C9.1326 12.2007 9.75396 11.583 10.0258 10.9917C10.2405 10.5248 10.3072 10.2116 10.3072 9.67108C10.3072 9.08555 10.2292 8.75937 9.96894 8.25588C9.74685 7.82624 9.67383 7.74391 7.84995 5.86617C6.60852 4.58809 6.25689 4.2222 6.05425 3.99769C5.72279 3.63043 5.52235 3.2895 5.42173 2.9219C5.34881 2.65542 5.34876 2.16108 5.42162 1.8914C5.48931 1.64096 5.67437 1.28002 5.83907 1.07725C6.14309 0.702915 6.62156 0.405838 7.06716 0.314679C7.14381 0.299007 7.20217 0.279212 7.19682 0.270674C7.19151 0.262158 7.27022 0.248003 7.37176 0.239238C7.57812 0.221391 7.90133 0.243858 7.8821 0.274683C7.87524 0.28569 7.89541 0.294704 7.92694 0.294704C8.01807 0.294704 8.34812 0.404434 8.53854 0.498062C8.93068 0.690821 9.2857 0.998362 9.59805 1.41579C9.79922 1.68465 10.3154 2.50336 11.4974 4.42801C12.6443 6.29565 12.8346 6.61522 12.8346 6.67347C12.8346 6.77484 12.9766 6.91569 10.5842 4.44062C10.1199 3.96032 9.45508 3.26672 9.10669 2.89925C7.98336 1.71434 7.92045 1.66474 7.54073 1.66515C7.36208 1.66531 7.31955 1.67335 7.21861 1.72591C7.07294 1.80179 6.90578 1.96793 6.83798 2.10421C6.79499 2.19063 6.78616 2.24531 6.78643 2.42364C6.78673 2.61447 6.79393 2.65234 6.85012 2.75852C6.92286 2.89599 6.84344 2.8116 8.88997 4.92627C9.74589 5.81068 10.4927 6.58525 10.5495 6.64754C11.1596 7.31618 11.5412 8.12678 11.6798 9.04825C11.7248 9.34788 11.7241 9.96081 11.6783 10.2859C11.502 11.5377 10.8024 12.6583 9.7589 13.3606C9.50553 13.5311 9.18446 13.71 8.71842 13.9404C8.54862 14.0243 8.38142 14.1128 8.34682 14.1371L8.28393 14.1812V20.0342C8.28393 23.2534 8.27622 25.8868 8.26678 25.8862C8.25736 25.8856 7.92292 25.5554 7.52358 25.1524ZM3.72181 14.9235C5.13206 14.2089 6.38609 13.5666 6.56007 13.4697C6.63363 13.4287 6.71717 13.3609 6.74566 13.319L6.79752 13.2428V11.8212C6.79752 11.0393 6.79128 10.3834 6.78364 10.3637C6.75529 10.2906 6.67614 10.3346 6.3447 10.608C4.98756 11.7274 3.87502 13.0359 3.01465 14.5248C2.78935 14.9147 2.52125 15.4276 2.52125 15.4687C2.52125 15.4813 2.53927 15.4916 2.56127 15.4915C2.58329 15.4914 3.10552 15.2357 3.72181 14.9235ZM0.0533383 18.3095C0.054436 18.2831 0.0598556 18.2777 0.0671504 18.2958C0.0737592 18.3121 0.072936 18.3317 0.0653439 18.3392C0.0577518 18.3467 0.052355 18.3334 0.0533383 18.3095ZM12.8593 6.7136C12.8604 6.68721 12.8658 6.68185 12.8731 6.69992C12.8797 6.71625 12.8789 6.7358 12.8713 6.74331C12.8637 6.75083 12.8583 6.73747 12.8593 6.7136Z" fill="#1D77FE"/>
<path d="M7.5231 25.1444L6.7975 24.4245V14.9705H6.75097C6.70699 14.9705 5.45935 15.5917 1.73696 17.467C0.84653 17.9156 0.112429 18.2771 0.105637 18.2703C0.0708779 18.2359 0.314923 17.2937 0.508636 16.7144C1.05255 15.0881 1.87354 13.5395 2.92203 12.1621C4.0512 10.6787 5.53168 9.34007 7.15195 8.33732C7.56193 8.08359 8.20885 7.72303 8.25411 7.72303C8.2781 7.72303 8.2848 8.17885 8.28951 10.1294L8.29534 12.5358L8.34469 12.5427C8.37183 12.5466 8.47988 12.5071 8.5848 12.4549C9.47523 12.0125 10.1202 11.1536 10.283 10.1934C10.3293 9.91966 10.3299 9.42133 10.2841 9.1585C10.1902 8.61947 9.94159 8.08934 9.59023 7.67866C9.43953 7.5025 8.84552 6.88149 7.80277 5.80989C5.86093 3.81433 5.78327 3.72681 5.57147 3.2953C5.4159 2.97836 5.3733 2.78845 5.3733 2.41202C5.3733 2.05753 5.41034 1.87602 5.54627 1.56468C5.80479 0.972426 6.37902 0.492759 7.02234 0.331707C7.13759 0.302853 7.22643 0.273818 7.21973 0.26716C7.21303 0.260501 7.2804 0.247999 7.36942 0.239302C7.5598 0.220731 7.91441 0.245734 7.86858 0.274498C7.84697 0.288087 7.85434 0.293817 7.89369 0.294066C7.99079 0.294655 8.28869 0.386335 8.48018 0.474572C8.89265 0.664546 9.25364 0.967443 9.57333 1.39169C9.81916 1.71792 10.5638 2.91012 12.5659 6.18295C12.8674 6.67568 12.9113 6.8075 12.7149 6.63025C12.6701 6.58978 12.1466 6.05215 11.5516 5.43556C10.9566 4.81896 10.2632 4.10044 10.0106 3.83886C9.75803 3.57727 9.32375 3.12374 9.04552 2.83101C8.01562 1.74736 7.92262 1.67255 7.58644 1.65756C7.33901 1.64651 7.18431 1.70353 7.01342 1.86875C6.79444 2.08051 6.71209 2.34369 6.78577 2.59644C6.85895 2.84761 6.69965 2.66978 8.74083 4.77876C9.59078 5.65694 10.3686 6.46268 10.4694 6.56928C11.1092 7.24585 11.4898 8.00303 11.6584 8.93471C11.7079 9.20823 11.7263 9.82682 11.6938 10.1216C11.541 11.505 10.8123 12.6773 9.63311 13.4365C9.5262 13.5054 9.18147 13.6944 8.86704 13.8566L8.29534 14.1516L8.28958 20.0079C8.28642 23.2289 8.2759 25.8643 8.26625 25.8643C8.2566 25.8643 7.92217 25.5403 7.5231 25.1444ZM4.00379 14.7863C5.85418 13.8467 6.56297 13.4819 6.65238 13.4232C6.8047 13.3232 6.79748 13.4038 6.79748 11.8064C6.79748 10.3681 6.79444 10.3049 6.72519 10.3049C6.71561 10.3049 6.58648 10.4034 6.4382 10.5237C5.28336 11.4611 4.26371 12.5786 3.47614 13.7701C3.04058 14.4291 2.49918 15.4019 2.52745 15.4748C2.5358 15.4964 2.54894 15.514 2.5567 15.514C2.56445 15.514 3.21563 15.1866 4.00379 14.7863ZM0.0533383 18.3092C0.054436 18.2828 0.0598556 18.2774 0.0671504 18.2955C0.0737592 18.3119 0.072936 18.3314 0.0653439 18.3389C0.0577518 18.3464 0.052355 18.3331 0.0533383 18.3092Z" fill="#1D77FE"/>
<path d="M7.53501 25.1447L6.82039 24.4198V19.7419C6.82039 16.6758 6.8125 15.0436 6.79752 15.0045C6.77982 14.9584 6.76414 14.9482 6.72842 14.9594C6.67724 14.9755 4.43089 16.1005 1.81482 17.4201C0.879116 17.8921 0.110531 18.2752 0.106757 18.2715C0.103007 18.2678 0.123954 18.1525 0.153293 18.0152C0.526655 16.2694 1.43046 14.2704 2.59068 12.6245C3.83615 10.8576 5.5299 9.30136 7.43782 8.17073C7.71665 8.00554 8.22934 7.72311 8.25047 7.72311C8.2563 7.72311 8.26106 8.79241 8.26106 10.0993C8.26106 11.4062 8.2673 12.4917 8.27494 12.5114C8.33257 12.66 8.97017 12.2983 9.40763 11.8688C10.5467 10.7503 10.6495 8.9757 9.64676 7.73722C9.48975 7.54329 9.13713 7.17283 7.75781 5.75272C6.35778 4.31127 6.16214 4.10612 5.96386 3.87153C5.54755 3.37898 5.3802 2.96284 5.37988 2.41924C5.37965 2.02851 5.4502 1.74602 5.63285 1.40652C5.83724 1.02662 6.16576 0.715454 6.58028 0.509151C6.81243 0.3936 7.10983 0.297685 7.25282 0.292226L7.31205 0.289961L7.25488 0.273496C7.1616 0.246567 7.52072 0.220658 7.715 0.240271C7.84077 0.252954 7.8692 0.261447 7.82657 0.273632C7.77178 0.289305 7.77233 0.290075 7.83943 0.292226C7.96959 0.296439 8.27135 0.387621 8.48366 0.486933C8.90575 0.684358 9.24842 0.971492 9.56972 1.39694C9.76535 1.65597 10.3754 2.62339 11.524 4.49574C12.8304 6.62551 12.8763 6.70394 12.8152 6.70394C12.8029 6.70394 12.1105 5.99818 11.2767 5.13555C9.28387 3.07395 9.43523 3.23133 8.88604 2.64991C8.24437 1.97055 8.0617 1.80044 7.88749 1.71993C7.54871 1.56338 7.22259 1.63115 6.96128 1.91235C6.83318 2.05021 6.77033 2.19377 6.75753 2.37777C6.74598 2.54351 6.79672 2.71124 6.90695 2.87177C6.94109 2.92151 7.76238 3.78117 8.73202 4.78213C9.70169 5.78307 10.5537 6.66827 10.6253 6.74924C10.9137 7.07506 11.2191 7.57701 11.3915 8.00848C12.0697 9.70533 11.6307 11.6764 10.2989 12.9147C9.91431 13.2723 9.58806 13.4829 8.78149 13.8943C8.52063 14.0274 8.29939 14.1482 8.28983 14.1627C8.28027 14.1773 8.26735 16.8173 8.26106 20.0294L8.24963 25.8696L7.53501 25.1447ZM3.84045 14.8776C5.63561 13.9659 6.54479 13.4988 6.6426 13.4382C6.81904 13.3287 6.80809 13.4277 6.81621 11.8665C6.82021 11.0986 6.81442 10.4357 6.80333 10.3934C6.79178 10.3492 6.76642 10.3132 6.74381 10.3089C6.66361 10.2936 5.90593 10.938 5.31091 11.5276C4.22847 12.6002 3.31373 13.8568 2.60191 15.249C2.49694 15.4542 2.48647 15.5141 2.55548 15.5141C2.57282 15.5141 3.15108 15.2277 3.84045 14.8776ZM0.0533154 18.3093C0.054436 18.2829 0.0598556 18.2775 0.0671504 18.2956C0.0737592 18.3119 0.072936 18.3315 0.0653439 18.339C0.0577518 18.3465 0.0523321 18.3332 0.0533154 18.3093Z" fill="#1D77FE"/>
<path d="M7.53508 25.1283L6.82053 24.4076L6.81474 19.6835L6.80898 14.9593L6.76233 14.9527C6.71726 14.9463 5.43081 15.5849 1.81464 17.4087C0.891465 17.8743 0.130814 18.2501 0.124343 18.2437C0.117871 18.2372 0.135708 18.1275 0.163995 17.9998C0.650164 15.8038 1.88948 13.3605 3.43118 11.5587C4.73542 10.0345 6.28927 8.78503 8.08386 7.81754L8.26109 7.72199V12.5464L8.31835 12.5606C8.46621 12.5974 9.07106 12.2226 9.41671 11.88C9.78028 11.5198 10.0179 11.1373 10.1825 10.6475C10.4831 9.7531 10.3484 8.74136 9.82439 7.95746C9.63992 7.68145 9.42887 7.45408 7.86211 5.84336C6.15137 4.08468 5.96875 3.88886 5.76674 3.59677C5.61179 3.37278 5.51293 3.16761 5.44147 2.92174C5.36879 2.67172 5.37016 2.14884 5.44414 1.89124C5.58819 1.38967 5.92448 0.927356 6.34769 0.649168C6.62105 0.469454 7.07077 0.30034 7.29922 0.291326L7.38068 0.28811L7.2892 0.273162C7.13016 0.247162 7.56188 0.219667 7.73513 0.244761C7.86547 0.26365 7.87249 0.266979 7.7923 0.271871C7.70894 0.276921 7.71301 0.279141 7.83803 0.296807C8.48274 0.387943 9.11264 0.798488 9.58614 1.43617C9.80242 1.72747 11.7176 4.8048 12.682 6.41056C12.8289 6.65516 12.8475 6.72311 12.7404 6.6233C12.6048 6.49699 9.68518 3.47442 8.98883 2.73944C8.18946 1.8957 8.0992 1.81102 7.8952 1.71332C7.76195 1.64947 7.72525 1.64216 7.54075 1.64257C7.285 1.64313 7.16471 1.69436 6.97706 1.88264C6.80102 2.05934 6.74376 2.20897 6.75712 2.45745C6.76798 2.65934 6.82394 2.795 6.96556 2.96289C7.00962 3.01514 7.74894 3.78398 8.60847 4.67145C9.468 5.5589 10.2785 6.39711 10.4095 6.53413C11.0405 7.19376 11.4314 7.92116 11.614 8.77556C11.6938 9.14899 11.7158 9.89126 11.6588 10.2824C11.5409 11.0896 11.1962 11.8713 10.6848 12.4906C10.489 12.7279 10.0826 13.1051 9.83818 13.2767C9.54744 13.4808 9.42 13.554 8.80113 13.8722L8.27252 14.1439L8.26109 19.9965L8.24965 25.8491L7.53508 25.1283ZM3.86892 14.8749C5.41963 14.0875 6.45261 13.5584 6.60642 13.4728C6.82467 13.3513 6.80809 13.4804 6.81554 11.8451C6.81916 11.0542 6.81639 10.384 6.80939 10.356C6.78678 10.2654 6.69569 10.2922 6.50418 10.4457C4.88331 11.7451 3.66126 13.2314 2.65066 15.1324C2.47337 15.4659 2.45505 15.5607 2.5752 15.5229C2.60042 15.515 3.18259 15.2234 3.86892 14.8749ZM0.0533383 18.3093C0.054436 18.283 0.0598556 18.2776 0.0671504 18.2957C0.0737592 18.312 0.072936 18.3315 0.0653439 18.3391C0.0577518 18.3466 0.052355 18.3332 0.0533383 18.3093Z" fill="#1D77FE"/>
</g>
</g>
<defs>
<clipPath id="clip0_6160_52662">
<rect width="13" height="26" fill="white"/>
</clipPath>
</defs>
</svg>
