<svg width="13" height="26" viewBox="0 0 13 26" fill="none" xmlns="http://www.w3.org/2000/svg">
<g clip-path="url(#clip0_8301_184200)">
<mask id="mask0_8301_184200" style="mask-type:luminance" maskUnits="userSpaceOnUse" x="0" y="0" width="13" height="26">
<path d="M13 0H0V26H13V0Z" fill="white"/>
</mask>
<g mask="url(#mask0_8301_184200)">
<path d="M8.23458 25.9426C8.20314 25.9258 7.85068 25.5877 7.45136 25.1911L6.72531 24.4701V19.7808C6.72531 17.2018 6.7187 15.085 6.71065 15.077C6.69581 15.0624 5.5057 15.6547 2.00508 17.4192C0.949688 17.9512 0.0716572 18.3809 0.0539118 18.3741C0.0331936 18.3663 0.0263333 18.3434 0.0347715 18.3101C0.0419748 18.2816 0.0580509 18.1633 0.0704909 18.0471C0.133469 17.4586 0.602304 16.076 1.09968 15.0122C2.45509 12.1132 4.64816 9.71055 7.43839 8.06788C7.89376 7.79979 8.27627 7.60372 8.31508 7.61847C8.34467 7.62972 8.34892 7.93486 8.34892 10.0441C8.34892 11.7719 8.35601 12.4568 8.37387 12.4568C8.38759 12.4568 8.49219 12.4091 8.60632 12.3507C9.40676 11.9412 9.98774 11.1764 10.1819 10.2766C10.2476 9.97228 10.2535 9.41769 10.1942 9.12342C10.0853 8.58272 9.83388 8.07404 9.47953 7.67729C9.30454 7.48138 8.72359 6.87633 7.69707 5.8209C6.14492 4.22506 5.86072 3.92001 5.67888 3.6546C5.54547 3.45982 5.43031 3.22172 5.36051 2.99639C5.30456 2.81568 5.29877 2.76296 5.29754 2.42366C5.29605 2.0095 5.31981 1.8806 5.45727 1.55741C5.72253 0.93375 6.41364 0.352007 6.98829 0.268662C7.39138 0.210229 7.90067 0.221485 8.23197 0.296225C8.50204 0.357148 8.93955 0.618396 9.23946 0.897807C9.59153 1.22584 9.76878 1.48768 11.0927 3.63534C12.6549 6.16964 12.8412 6.48205 12.8679 6.6123C12.8943 6.74121 12.8752 6.79568 12.8041 6.79409C12.7449 6.79278 12.7628 6.81097 9.95014 3.8958C9.70377 3.64044 9.2747 3.19201 8.9967 2.89928C8.27112 2.13533 7.97007 1.84749 7.83357 1.78729C7.65884 1.7102 7.41642 1.71373 7.24759 1.79586C6.91655 1.95686 6.75986 2.3282 6.88474 2.65581C6.94667 2.81822 6.86041 2.72513 8.8942 4.82438C9.80535 5.76485 10.6284 6.62604 10.7232 6.73815C12.2527 8.54739 12.1283 11.2357 10.4382 12.8983C10.0502 13.2801 9.66222 13.5416 8.94348 13.906C8.69823 14.0303 8.46413 14.1525 8.42324 14.1774L8.34892 14.2227V20.0645C8.34892 23.2774 8.34268 25.9223 8.33504 25.942C8.31896 25.9835 8.31149 25.9836 8.23458 25.9426ZM4.17258 14.6097C6.17461 13.592 6.5878 13.3767 6.64648 13.3208C6.6833 13.2857 6.69935 13.2352 6.71033 13.1202C6.73249 12.8877 6.72821 10.4456 6.70562 10.4318C6.65586 10.4013 5.81492 11.1415 5.25034 11.7128C4.27429 12.7002 3.4583 13.8153 2.78748 15.0782C2.69976 15.2433 2.63527 15.3785 2.64417 15.3785C2.65306 15.3785 3.34086 15.0326 4.17258 14.6097Z" fill="#94C518"/>
<path d="M7.5 25.2135L6.72721 24.449V15.0351L5.31512 15.7421C4.53849 16.1309 3.04689 16.8809 2.00051 17.4086C0.954121 17.9363 0.0809151 18.3681 0.0599911 18.3681C0.0301944 18.3681 0.0253007 18.355 0.0373749 18.3074C0.045836 18.274 0.0617062 18.1695 0.0726599 18.0753C0.119402 17.6724 0.443392 16.6154 0.762123 15.826C2.14071 12.4113 4.61816 9.62748 7.86943 7.8397C8.07631 7.72594 8.26301 7.63285 8.28432 7.63285C8.30563 7.63285 8.3293 7.64898 8.33694 7.66868C8.34458 7.68839 8.35082 8.77958 8.35082 10.0936V12.4826L8.40227 12.4669C8.47661 12.4441 8.60767 12.3765 8.78174 12.2711C9.4849 11.8452 9.9681 11.1889 10.1744 10.3795C10.2317 10.1546 10.2367 10.0999 10.237 9.68252C10.2374 9.19884 10.2183 9.06631 10.0949 8.69732C10.0159 8.46101 9.81385 8.08172 9.65511 7.87175C9.47118 7.6285 9.08236 7.2195 7.08157 5.16467C6.44138 4.50719 5.92338 3.9531 5.80122 3.79515C5.24748 3.07913 5.14128 2.25831 5.50422 1.49953C5.6342 1.22775 5.76239 1.05161 5.98728 0.835821C6.29299 0.542458 6.69412 0.32268 7.02181 0.268981C7.28877 0.22527 7.7247 0.219947 7.97727 0.257385C8.58233 0.347072 9.14543 0.721379 9.6232 1.35152C9.87082 1.67806 10.5887 2.82388 12.3267 5.66592C12.8531 6.52678 12.9357 6.69626 12.8637 6.7676C12.8009 6.82979 12.908 6.93536 10.4534 4.39309C9.93087 3.8518 9.27109 3.16435 8.9873 2.8654C8.21201 2.04866 7.9786 1.8301 7.81816 1.77065C7.44953 1.63408 7.07951 1.77982 6.89522 2.13422C6.80814 2.30166 6.80704 2.51716 6.89234 2.70034C6.96444 2.85525 6.85616 2.73932 8.90827 4.85844C9.81296 5.79268 10.6194 6.6335 10.7005 6.72692C11.2592 7.37095 11.6338 8.22173 11.7476 9.10499C11.7949 9.47221 11.7834 10.0815 11.7228 10.4186C11.5516 11.3705 11.1142 12.2098 10.4424 12.8751C10.0247 13.2888 9.68106 13.5187 8.84248 13.9454L8.36225 14.1898L8.3507 20.0782C8.34437 23.3168 8.33664 25.9691 8.33355 25.9723C8.30588 26.0002 8.1738 25.88 7.5 25.2135ZM4.25177 14.5843C6.38799 13.4998 6.59222 13.3925 6.66434 13.3157L6.72723 13.2489V11.8224C6.72723 11.0379 6.72042 10.3959 6.71207 10.3959C6.70375 10.3959 6.61884 10.4591 6.52341 10.5364C5.37213 11.4681 4.39835 12.5235 3.60153 13.7031C3.15245 14.368 2.55409 15.4272 2.64698 15.3928C2.67122 15.3839 3.39338 15.02 4.25177 14.5843Z" fill="#94C518"/>
<path d="M7.88808 25.5983C7.67454 25.3896 7.32599 25.0387 7.11355 24.8184L6.72722 24.4179V19.7282C6.72722 17.1489 6.72335 15.0385 6.71864 15.0385C6.707 15.0385 3.92502 16.4342 1.81451 17.4988C0.867051 17.9768 0.0761464 18.3678 0.0569375 18.3678C0.0309368 18.3678 0.025723 18.3531 0.0365852 18.3102C0.0446346 18.2785 0.0605963 18.1791 0.0720988 18.0893C0.0836013 17.9995 0.133842 17.7681 0.183785 17.575C0.440499 16.5825 0.78395 15.6858 1.30719 14.6422C1.6385 13.9814 1.92339 13.4884 2.30201 12.9209C3.54938 11.0511 5.24138 9.43228 7.20744 8.22762C7.62066 7.97441 8.24367 7.63254 8.29183 7.63254C8.32453 7.63254 8.32796 7.86151 8.32796 10.0453C8.32796 12.0872 8.33286 12.4599 8.35984 12.4702C8.37736 12.4768 8.46288 12.4468 8.54987 12.4033C9.26335 12.0475 9.82335 11.4204 10.086 10.683C10.2084 10.3393 10.255 10.065 10.2559 9.6822C10.2575 9.05521 10.0934 8.50859 9.74954 7.99491C9.56833 7.72426 9.37464 7.51606 7.76875 5.86552C6.06572 4.11511 5.8646 3.8978 5.65996 3.58684C5.41147 3.20931 5.30267 2.85047 5.30372 2.41212C5.30411 2.25136 5.31904 2.07452 5.34024 1.9792C5.49556 1.28106 5.95827 0.712934 6.61992 0.407749C6.91149 0.273309 7.14785 0.226562 7.53619 0.226562C8.08799 0.226562 8.47583 0.34712 8.91761 0.655951C9.42788 1.01266 9.61668 1.26933 10.9006 3.35211C12.3742 5.74243 12.8398 6.51675 12.8677 6.62342C12.8842 6.68638 12.896 6.73823 12.8939 6.73866C12.8918 6.73909 12.8725 6.7527 12.8511 6.76889C12.8172 6.79448 12.7967 6.78407 12.6935 6.68888C12.5303 6.53827 9.77526 3.68896 8.9182 2.78434C8.14861 1.97211 8.0329 1.86419 7.83546 1.77468C7.48599 1.61621 7.06946 1.7709 6.89429 2.12415C6.84108 2.2315 6.83021 2.28255 6.8306 2.42344C6.83101 2.56572 6.84204 2.61484 6.89843 2.72598C6.96671 2.86055 6.99132 2.88649 9.93582 5.92719C10.3107 6.31439 10.6864 6.71635 10.7705 6.82044C11.8779 8.18959 12.092 10.0573 11.3228 11.638C11.0755 12.1462 10.7862 12.5378 10.3565 12.9457C9.94698 13.3346 9.65845 13.5243 8.84249 13.941C8.57836 14.0758 8.35472 14.197 8.34546 14.2103C8.33622 14.2236 8.32851 16.8767 8.32831 20.1061C8.32805 24.4548 8.32126 25.9776 8.30212 25.9776C8.28792 25.9776 8.10157 25.8069 7.88808 25.5983ZM2.95877 15.2449C3.12596 15.1591 3.88018 14.7752 4.63482 14.392C6.42884 13.4807 6.63963 13.3696 6.6867 13.3104C6.72317 13.2645 6.72626 13.1506 6.72671 11.8281C6.72699 11.0315 6.71839 10.3956 6.70735 10.3956C6.69642 10.3956 6.52921 10.5271 6.33574 10.6876C5.07818 11.7318 4.04336 12.9293 3.21201 14.3024C3.01704 14.6245 2.61102 15.3572 2.61102 15.387C2.61102 15.4175 2.667 15.3946 2.95877 15.2449Z" fill="#94C518"/>
<path d="M7.52075 25.2254C7.10826 24.8109 6.76096 24.4482 6.74896 24.4194C6.73533 24.3867 6.72712 22.6131 6.72712 19.7029C6.72712 17.1377 6.72049 15.0388 6.71244 15.0388C6.69563 15.0388 5.37319 15.7015 2.25432 17.2726C1.05829 17.8752 0.0667185 18.3681 0.0508254 18.3681C0.0318451 18.3681 0.0265627 18.3497 0.0354354 18.3147C0.0428903 18.2853 0.0597667 18.186 0.0729385 18.0939C0.158327 17.4973 0.576258 16.2302 0.998347 15.288C2.25059 12.4928 4.21048 10.1948 6.78429 8.5038C7.42029 8.08594 8.25594 7.61418 8.30591 7.64476C8.31972 7.6532 8.32786 8.5527 8.32786 10.0689C8.32786 12.2515 8.33129 12.4796 8.36402 12.4796C8.41997 12.4796 8.70724 12.3307 8.92243 12.1902C9.15844 12.036 9.55335 11.6497 9.71564 11.4141C9.95593 11.0654 10.1343 10.6415 10.2179 10.2209C10.2716 9.95087 10.2718 9.39248 10.2183 9.12353C10.1395 8.72741 9.98404 8.34814 9.7627 8.01245C9.56963 7.71961 9.47015 7.61237 7.67748 5.76439C5.98755 4.02233 5.95746 3.99037 5.76832 3.73773C5.26658 3.06752 5.16621 2.30822 5.48074 1.56191C5.75627 0.908151 6.412 0.381081 7.09977 0.260592C7.33787 0.218874 7.73348 0.218421 7.98691 0.259573C8.35139 0.318775 8.71474 0.492465 9.07358 0.77901C9.50798 1.12591 9.6707 1.35971 11.1405 3.74869C12.6739 6.24118 12.8519 6.5393 12.8674 6.64216C12.8842 6.75303 12.863 6.78478 12.788 6.7612C12.7635 6.75353 12.4005 6.39362 11.9811 5.96138C10.4881 4.42257 9.61104 3.51159 8.97774 2.84213C7.97927 1.78661 7.88802 1.71436 7.55036 1.71171C7.40753 1.71058 7.35729 1.72084 7.24983 1.77309C7.10645 1.84284 6.96348 1.98322 6.88349 2.13274C6.84132 2.2116 6.83073 2.26741 6.83044 2.41245C6.82984 2.67453 6.88969 2.782 7.23714 3.14294C7.38999 3.30171 8.20417 4.14343 9.04644 5.01346C9.88866 5.88345 10.6435 6.67331 10.724 6.7687C11.4856 7.67205 11.8739 8.91695 11.7574 10.0821C11.6273 11.3831 10.9768 12.5326 9.93732 13.2987C9.65582 13.5062 9.46533 13.617 8.83692 13.9388L8.3393 14.1937L8.33353 20.0858C8.32896 24.7763 8.32196 25.978 8.29923 25.9784C8.28355 25.9787 7.93321 25.6398 7.52075 25.2254ZM4.21167 14.6141C6.30537 13.5503 6.62106 13.3853 6.67567 13.3258L6.72712 13.2697V11.8328C6.72712 10.9068 6.71912 10.396 6.70464 10.396C6.67217 10.396 6.13395 10.8452 5.74808 11.1945C4.78567 12.0655 3.8284 13.249 3.12986 14.4314C2.90157 14.8178 2.61092 15.3591 2.61092 15.3978C2.61092 15.4291 2.51986 15.4737 4.21167 14.6141Z" fill="#94C518"/>
<path d="M7.51561 25.2164L6.74972 24.449L6.74876 19.7565C6.74812 16.5896 6.74023 15.0594 6.72448 15.0497C6.70069 15.0352 5.31584 15.723 1.95268 17.4198C0.91897 17.9413 0.061588 18.368 0.04741 18.368C0.033232 18.368 0.0272406 18.3502 0.0340781 18.3284C0.0409384 18.3065 0.0570145 18.215 0.0697976 18.1249C0.14597 17.5879 0.486106 16.4963 0.8374 15.6615C1.55119 13.9652 2.50265 12.4616 3.69658 11.1432C4.024 10.7816 4.80658 10.0193 5.14708 9.73022C5.77606 9.19617 6.44986 8.70407 7.11371 8.29389C7.5712 8.01122 8.21703 7.65152 8.27507 7.64706C8.3118 7.64423 8.315 7.79701 8.3257 10.0674C8.33707 12.475 8.33743 12.4907 8.38287 12.4834C8.44514 12.4733 8.73252 12.3192 8.9298 12.1901C9.15063 12.0456 9.59269 11.6047 9.74092 11.381C9.96749 11.0392 10.1302 10.648 10.2165 10.2373C10.273 9.96857 10.2728 9.37125 10.216 9.10486C10.1102 8.60805 9.86719 8.09434 9.57327 7.74596C9.43188 7.57837 8.92744 7.05037 7.77729 5.86616C6.01327 4.04991 5.88932 3.91637 5.68267 3.61017C5.53563 3.39225 5.44075 3.1921 5.3702 2.95108C5.32554 2.79843 5.31877 2.72437 5.32001 2.40098C5.32129 2.06177 5.32709 2.00891 5.38303 1.82825C5.59449 1.14534 6.06021 0.640915 6.73451 0.364448C6.94739 0.277184 7.24232 0.227562 7.5482 0.227539C8.20427 0.227516 8.72703 0.449039 9.24448 0.946326C9.62491 1.31191 9.791 1.56163 11.4416 4.24978C12.8252 6.50305 12.8491 6.54307 12.8656 6.64023C12.8853 6.75531 12.8545 6.7924 12.7746 6.75003C12.7088 6.71515 10.4466 4.38641 9.05516 2.92125C7.94989 1.75743 7.89023 1.70984 7.53676 1.71066C7.30863 1.71118 7.17513 1.77317 7.0049 1.95764C6.85748 2.11742 6.80653 2.25881 6.82162 2.4663C6.83705 2.67812 6.91485 2.81401 7.17733 3.08745C7.29917 3.21439 8.123 4.06628 9.00807 4.98054C9.89313 5.89483 10.6797 6.72036 10.7559 6.81505C10.9739 7.0859 11.1543 7.3703 11.3105 7.68934C12.2661 9.64155 11.6912 11.9938 9.94229 13.287C9.64769 13.5049 9.49772 13.5928 8.86591 13.9181L8.33713 14.1905L8.3257 20.0709C8.31941 23.3052 8.3069 25.9587 8.29789 25.9676C8.28888 25.9765 7.93686 25.6385 7.51561 25.2164ZM4.31241 14.5632C6.50167 13.4517 6.63422 13.3817 6.68953 13.3083C6.73541 13.2475 6.73653 13.2167 6.74323 11.8289C6.74725 10.9983 6.74147 10.4031 6.72928 10.391C6.68633 10.3485 5.94002 10.9887 5.35248 11.572C4.49956 12.4189 3.81851 13.2855 3.17935 14.3372C2.87498 14.8379 2.56581 15.4361 2.62207 15.4153C2.64619 15.4064 3.40684 15.023 4.31241 14.5632Z" fill="#94C518"/>
<path d="M8.16382 25.86C8.09494 25.7938 7.74909 25.4483 7.39524 25.092L6.7519 24.4442V19.7413C6.7519 15.5637 6.74803 15.0384 6.71739 15.0384C6.68512 15.0384 4.7849 15.9863 2.064 17.3597C0.471584 18.1635 0.0493305 18.3732 0.041464 18.3641C0.0259825 18.3462 0.0868108 18.0338 0.181872 17.643C0.553885 16.1133 1.35808 14.3421 2.34649 12.8755C3.61021 11.0004 5.32202 9.37956 7.30388 8.18153C7.69291 7.94638 8.23654 7.65512 8.28651 7.65512C8.32868 7.65512 8.32977 7.71579 8.32977 10.0658C8.32977 11.6733 8.3375 12.4813 8.35301 12.4907C8.36577 12.4986 8.47508 12.4534 8.59591 12.3904C9.63529 11.8485 10.2727 10.8178 10.2734 9.6781C10.2738 8.97091 10.0415 8.32138 9.58748 7.76018C9.42827 7.56339 9.24254 7.36807 7.84008 5.92253C6.04762 4.07497 6.00327 4.02809 5.81034 3.77711C5.62948 3.54179 5.46732 3.2345 5.38879 2.97826C5.33277 2.79542 5.32618 2.73828 5.32477 2.42337C5.32284 2.00083 5.36501 1.81212 5.53991 1.46082C5.75105 1.03651 6.09327 0.689897 6.51686 0.471322C6.86006 0.294213 7.14797 0.226427 7.55666 0.226563C8.37256 0.226834 9.07005 0.622092 9.65487 1.41553C9.89912 1.74692 10.8127 3.21165 12.544 6.04773C12.8639 6.57181 12.932 6.73103 12.8497 6.7623C12.7822 6.78794 12.9282 6.93314 10.6495 4.57342C9.99484 3.89537 9.23712 3.10622 8.96575 2.81972C7.98785 1.7873 7.89117 1.71145 7.55227 1.7105C7.3224 1.70986 7.20093 1.7579 7.03953 1.91325C6.90042 2.04714 6.83886 2.17587 6.82546 2.3608C6.81245 2.54019 6.84513 2.67418 6.93447 2.80785C6.96958 2.86037 7.52172 3.44418 8.16142 4.10519C8.80112 4.7662 9.61151 5.60348 9.96228 5.96581C10.3131 6.32818 10.6609 6.69832 10.7352 6.78842C11.201 7.35288 11.5234 8.02678 11.681 8.76488C11.7311 8.9997 11.7434 9.12811 11.7535 9.51782C11.7613 9.81911 11.7558 10.0669 11.7382 10.2086C11.6128 11.2202 11.1577 12.1467 10.4337 12.8646C10.0171 13.2777 9.69617 13.4897 8.74139 13.9826L8.34121 14.1891L8.32977 20.0701C8.32348 23.3047 8.31173 25.9577 8.30368 25.9657C8.29561 25.9736 8.2327 25.9261 8.16382 25.86ZM4.04817 14.7061C6.14748 13.6393 6.57222 13.418 6.66043 13.3446L6.74046 13.2781L6.74668 11.8441C6.75018 11.0373 6.7441 10.4014 6.73273 10.3902C6.70948 10.3671 6.48457 10.5395 6.081 10.8898C4.93313 11.8859 3.96434 13.0365 3.17899 14.3364C3.00444 14.6252 2.58996 15.3791 2.58996 15.4077C2.58996 15.4164 2.60044 15.4235 2.61322 15.4235C2.626 15.4235 3.27174 15.1007 4.04817 14.7061Z" fill="#94C518"/>
<path d="M7.51811 25.2057L6.74852 24.4311V19.7386C6.74852 17.1576 6.74166 15.0392 6.73331 15.0309C6.71758 15.0154 5.30606 15.7175 1.97299 17.3988C0.912343 17.9338 0.0408979 18.3679 0.0364387 18.3635C0.0201111 18.3474 0.1634 17.6899 0.255123 17.3599C0.822884 15.3177 1.93469 13.2283 3.34021 11.5619C4.29378 10.4314 5.50163 9.35845 6.73708 8.54433C7.37432 8.12444 8.22971 7.63958 8.29173 7.66314C8.32241 7.6748 8.32639 7.95392 8.32639 10.0891C8.32639 12.0233 8.33216 12.5018 8.35541 12.5018C8.40215 12.5018 8.71348 12.3403 8.88684 12.2261C9.60642 11.752 10.0848 11.0253 10.2342 10.1794C10.2806 9.91695 10.2806 9.42585 10.2344 9.1612C10.1859 8.8834 10.0629 8.52782 9.92478 8.26639C9.69119 7.82398 9.59416 7.71613 7.47002 5.53748C5.95814 3.98683 5.71642 3.71147 5.52591 3.32278C5.37087 3.00639 5.32038 2.7744 5.32278 2.38938C5.32513 2.01093 5.36838 1.82116 5.52637 1.49604C5.66145 1.21808 5.78654 1.04711 6.00826 0.837386C6.43418 0.434519 6.9576 0.226744 7.54704 0.226563C8.17039 0.226336 8.73129 0.462625 9.23719 0.938601C9.57337 1.25486 9.82181 1.62806 11.3338 4.088C12.8898 6.61962 12.917 6.66684 12.8666 6.74769C12.8411 6.78844 12.8115 6.77551 12.7014 6.67556C12.5568 6.54429 9.75714 3.6493 8.90104 2.74577C8.16264 1.96645 7.99655 1.81452 7.80528 1.7435C7.43391 1.60559 7.04033 1.77566 6.86713 2.14885C6.74593 2.41008 6.80438 2.68738 7.0351 2.94546C7.09574 3.01332 7.92454 3.87397 8.87684 4.85804C9.82915 5.8421 10.6596 6.7084 10.7222 6.78314C11.1453 7.28785 11.4852 7.97208 11.6432 8.63721C11.8528 9.51921 11.7737 10.5146 11.4266 11.365C11.1854 11.9556 10.8966 12.3832 10.4205 12.8542C9.95995 13.3099 9.69203 13.4905 8.81226 13.938L8.32639 14.1852L8.32605 20.0531C8.32587 23.2804 8.31713 25.9342 8.3067 25.9505C8.29317 25.9717 8.06719 25.7584 7.51811 25.2057ZM5.19351 14.1271C6.56043 13.4297 6.66372 13.373 6.71042 13.2947C6.74488 13.237 6.74852 13.0948 6.74852 11.8019C6.74852 10.6667 6.74257 10.3729 6.71966 10.3729C6.70379 10.3729 6.52629 10.5093 6.32519 10.6759C5.04144 11.7402 3.99268 12.962 3.13758 14.3895C2.92605 14.7427 2.58658 15.3785 2.58658 15.4215C2.58658 15.4495 3.13982 15.1748 5.19351 14.1271Z" fill="#94C518"/>
<path d="M7.52329 25.2012L6.7515 24.4187V19.7173C6.7515 16.5462 6.74393 15.0159 6.72824 15.0159C6.70469 15.0159 4.7607 15.9885 1.75548 17.5039C0.850243 17.9604 0.0949196 18.3374 0.0769912 18.3418C0.0337025 18.3524 0.0502359 18.2349 0.15481 17.789C0.475211 16.4227 1.13412 14.8574 1.96102 13.498C3.34198 11.2277 5.31149 9.32359 7.66287 7.98544C7.95181 7.82106 8.269 7.65518 8.29452 7.65518C8.30113 7.65518 8.30653 8.72957 8.30653 10.0427C8.30653 11.3559 8.31277 12.4464 8.32041 12.4661C8.34074 12.5186 8.38069 12.511 8.56436 12.4202C9.42259 11.9956 10.0266 11.2099 10.2305 10.2527C10.2997 9.92796 10.2997 9.4138 10.2305 9.08909C10.1418 8.67279 10.0074 8.34783 9.78237 8.00623C9.58637 7.70863 9.51425 7.63084 7.73486 5.79803C5.7551 3.75885 5.73713 3.73853 5.52835 3.30199C5.38108 2.99413 5.32684 2.74978 5.32825 2.40079C5.33059 1.81674 5.54854 1.30169 5.96953 0.885283C6.39165 0.467763 6.87476 0.2565 7.4604 0.233399C8.04677 0.210253 8.56286 0.392299 9.07894 0.804361C9.49565 1.13709 9.6579 1.37177 11.169 3.82763C12.4966 5.98515 12.843 6.56032 12.864 6.64249C12.931 6.90353 12.8244 6.80673 11.2421 5.16963C9.30254 3.16286 9.42209 3.28717 8.86242 2.69522C8.18298 1.97659 8.04579 1.84917 7.85757 1.76177C7.55137 1.61958 7.24967 1.67852 7.01576 1.9262C6.86184 2.08917 6.80963 2.21519 6.80972 2.42344C6.80983 2.67123 6.87704 2.79322 7.19463 3.12225C7.33463 3.26731 8.1489 4.10874 9.00409 4.99209C9.8593 5.87544 10.6243 6.67549 10.7041 6.76998C11.4136 7.60968 11.7953 8.71999 11.7521 9.81809C11.7042 11.0342 11.2065 12.1322 10.3338 12.9473C9.95155 13.3042 9.60494 13.5281 8.79819 13.939C8.55922 14.0606 8.35341 14.1698 8.34083 14.1815C8.32574 14.1955 8.31408 16.2103 8.30653 20.0933L8.2951 25.9837L7.52329 25.2012ZM4.07098 14.7059C6.30965 13.5685 6.59712 13.4185 6.67718 13.3458L6.7515 13.2784V11.8256C6.7515 10.5699 6.74699 10.3729 6.71825 10.3729C6.67279 10.3729 6.17633 10.7828 5.73699 11.183C4.53021 12.2824 3.41667 13.7512 2.6557 15.2475C2.55819 15.4392 2.5559 15.4462 2.5903 15.4462C2.60326 15.4462 3.26958 15.113 4.07098 14.7059Z" fill="#94C518"/>
<path d="M7.53498 25.2074L6.77463 24.442V19.7396C6.77463 15.6204 6.77045 15.0356 6.74097 15.0244C6.70699 15.0115 5.50602 15.6071 1.97601 17.3874C0.927776 17.9161 0.06454 18.3431 0.0576797 18.3363C0.0277915 18.3067 0.227976 17.4695 0.383157 16.9751C1.01088 14.9751 2.10288 13.0129 3.47118 11.4262C3.83704 11.002 4.76092 10.0857 5.1853 9.72616C5.821 9.18758 6.46722 8.71686 7.14049 8.30188C7.612 8.01125 8.2612 7.65278 8.2872 7.66865C8.29795 7.67524 8.30675 8.75976 8.30675 10.0787C8.30675 11.691 8.31443 12.4814 8.33017 12.4911C8.37334 12.5175 8.48299 12.4778 8.6872 12.3619C9.49763 11.9018 10.0372 11.1746 10.2301 10.2825C10.2717 10.0904 10.2816 9.97291 10.2816 9.67101C10.2816 9.11196 10.1953 8.75878 9.93798 8.26505C9.71223 7.83181 9.67948 7.79492 7.84976 5.9114C5.99322 4.00027 5.8588 3.85417 5.65171 3.52221C5.41327 3.13996 5.32138 2.78615 5.34043 2.32349C5.3547 1.97656 5.3939 1.80989 5.52795 1.52618C5.71809 1.12372 5.97277 0.828228 6.32603 0.60016C7.25565 2.69413e-05 8.37377 0.133267 9.22459 0.945568C9.45684 1.16729 9.67207 1.44157 9.93043 1.84498C10.4617 2.67456 12.7725 6.43774 12.8377 6.57952C12.939 6.79989 12.8484 6.80736 12.6308 6.59651C12.495 6.46488 11.5058 5.44317 9.87347 3.74849C9.63349 3.49936 9.21997 3.06621 8.95455 2.78594C7.99307 1.77073 7.89028 1.69031 7.55214 1.68845C7.34477 1.68732 7.17395 1.75628 7.02929 1.89958C6.74531 2.18083 6.72535 2.58045 6.97962 2.89357C7.02764 2.9527 7.48678 3.43425 7.99991 3.96365C8.51306 4.49305 9.30836 5.31349 9.76727 5.78683C10.2262 6.26018 10.6633 6.72391 10.7386 6.81733C11.2521 7.45422 11.5812 8.19593 11.7069 8.9994C11.7664 9.37993 11.76 10.0239 11.6927 10.4071C11.4631 11.7162 10.714 12.8174 9.57939 13.5138C9.46429 13.5844 9.15917 13.7491 8.90133 13.8798C8.6435 14.0105 8.40426 14.1369 8.3697 14.1606L8.30686 14.2037L8.3011 20.0882L8.29534 25.9727L7.53498 25.2074ZM4.24472 14.6232C6.28945 13.5849 6.61421 13.4152 6.68188 13.3501C6.7224 13.311 6.74227 13.2603 6.75426 13.1652C6.77427 13.0066 6.77971 10.4735 6.7602 10.4014C6.75265 10.3734 6.73775 10.3505 6.72711 10.3505C6.7165 10.3505 6.58647 10.4488 6.43822 10.569C5.07185 11.677 3.9157 13.0295 3.03781 14.5472C2.83337 14.9007 2.56696 15.4042 2.56696 15.4373C2.56696 15.4712 2.74304 15.3858 4.24472 14.6232Z" fill="#94C518"/>
<path d="M7.53773 25.2127L6.78309 24.4589L6.77166 19.7434C6.76137 15.5022 6.75666 15.0273 6.72467 15.0212C6.69018 15.0146 5.31843 15.697 1.82079 17.4607C0.890067 17.93 0.110573 18.3208 0.0885515 18.3289C0.0368704 18.3482 0.0374192 18.3267 0.0951832 18.0676C0.533215 16.1026 1.46375 14.0862 2.73156 12.3548C3.77182 10.9343 5.19515 9.58292 6.70415 8.58323C7.25931 8.21542 8.18919 7.67798 8.27037 7.67798C8.2995 7.67798 8.3038 7.98819 8.3038 10.0876C8.3038 12.1428 8.30856 12.499 8.33611 12.5095C8.37739 12.5252 8.64711 12.3974 8.85962 12.2615C9.79144 11.6656 10.3356 10.6296 10.2856 9.54646C10.2572 8.93369 10.0686 8.38943 9.71504 7.90048C9.54888 7.67071 9.30998 7.41345 8.23709 6.30898C7.80215 5.86125 7.29705 5.34113 7.11467 5.15318C5.97714 3.98081 5.71684 3.68016 5.55523 3.35217C5.37606 2.98846 5.31866 2.71009 5.33812 2.29902C5.36351 1.76271 5.56138 1.31398 5.94593 0.920719C6.16379 0.697928 6.3419 0.570781 6.61497 0.443135C6.96158 0.28111 7.15607 0.239482 7.5606 0.240751C7.86538 0.241702 7.92655 0.248632 8.10942 0.302965C8.53225 0.42864 8.88665 0.632293 9.21005 0.935463C9.553 1.257 9.73603 1.525 10.8993 3.40879C11.8707 4.98177 12.8155 6.5332 12.8458 6.60509C12.9161 6.77173 12.8522 6.7981 12.702 6.66443C12.5886 6.56337 10.1363 4.02659 9.18455 3.02576C7.96401 1.74215 7.896 1.68693 7.53773 1.68822C7.31671 1.68901 7.18065 1.74541 7.02222 1.90195C6.85956 2.06269 6.80585 2.19253 6.80651 2.42359C6.80697 2.58964 6.81582 2.63272 6.87088 2.73715C6.95005 2.88731 6.87728 2.80976 8.87213 4.8696C9.78293 5.81007 10.5977 6.66107 10.6828 6.76073C11.4298 7.63613 11.8292 8.85702 11.7357 9.97913C11.6225 11.3379 10.994 12.4778 9.91355 13.2843C9.67443 13.4628 9.40353 13.6205 8.84897 13.904C8.57657 14.0432 8.34245 14.1705 8.32877 14.1868C8.311 14.208 8.30224 15.8976 8.29813 20.0915L8.29237 25.9664L7.53773 25.2127ZM3.92874 14.7858C6.20106 13.6317 6.57399 13.4372 6.66875 13.3562L6.76022 13.278L6.76722 11.8661C6.77109 11.0896 6.76832 10.4309 6.76107 10.4024C6.75384 10.3738 6.73683 10.3504 6.72327 10.3504C6.69027 10.3504 6.28078 10.6846 5.91412 11.0108C4.63343 12.1501 3.60424 13.4622 2.76074 15.0308C2.58825 15.3517 2.53819 15.469 2.57382 15.469C2.57924 15.469 3.18896 15.1615 3.92874 14.7858Z" fill="#94C518"/>
<path d="M7.5347 25.2012L6.77435 24.4291V19.7239C6.77435 16.5943 6.76664 15.0139 6.75137 15.0045C6.73063 14.9918 4.80793 15.9491 1.32039 17.7086C0.628639 18.0576 0.0593454 18.3338 0.0552978 18.3223C0.0435666 18.289 0.203481 17.6193 0.317248 17.2253C0.892053 15.2348 1.99403 13.1862 3.35765 11.5733C4.50255 10.2191 5.89248 9.04521 7.42608 8.13713C7.81349 7.90772 8.24107 7.67784 8.28031 7.67784C8.29981 7.67784 8.30649 8.29365 8.30649 10.0906C8.30649 12.1638 8.31111 12.5051 8.33924 12.5158C8.35726 12.5226 8.45497 12.4868 8.55639 12.4362C9.43602 11.9969 10.0275 11.2397 10.2387 10.2824C10.2951 10.0269 10.3084 9.48126 10.2647 9.21765C10.1689 8.63919 9.92311 8.10818 9.55187 7.67784C9.40277 7.50501 8.85902 6.93729 7.84898 5.89996C5.86216 3.85942 5.744 3.7265 5.53878 3.3013C5.41841 3.05192 5.35557 2.80242 5.3405 2.51404C5.32527 2.22265 5.35678 2.00729 5.45735 1.71542C5.56378 1.40664 5.71667 1.16457 5.96254 0.915554C6.26515 0.609123 6.56207 0.433011 6.99653 0.302262C7.173 0.249152 7.23765 0.241633 7.52899 0.240365C7.81991 0.239097 7.88721 0.246253 8.07781 0.298661C8.49977 0.414711 8.87887 0.62697 9.20833 0.931702C9.53097 1.23014 9.7468 1.54656 10.8901 3.39733C11.6966 4.70291 12.8222 6.55177 12.8522 6.6201C12.9187 6.77155 12.8585 6.79116 12.7164 6.66433C12.5883 6.55001 9.81508 3.68174 8.95374 2.77269C8.19453 1.97142 8.05556 1.83976 7.87596 1.75152C7.60621 1.61903 7.28108 1.666 7.05119 1.87072C6.73385 2.15328 6.70909 2.59148 6.99194 2.91965C7.04867 2.98549 7.88122 3.85117 8.84199 4.84335C9.80278 5.83557 10.6481 6.71869 10.7205 6.80589C11.2353 7.42575 11.5881 8.23128 11.7035 9.05046C11.7497 9.37832 11.7388 10.1422 11.6838 10.4296C11.4674 11.5615 10.9174 12.4829 10.0412 13.1811C9.74908 13.4139 9.49843 13.5649 8.86675 13.8889C8.57747 14.0372 8.33311 14.166 8.32373 14.175C8.31436 14.184 8.30654 16.8432 8.3064 20.0845C8.30626 23.3257 8.30366 25.9766 8.30061 25.9754C8.29755 25.9742 7.95291 25.6258 7.5347 25.2012ZM4.11954 14.6954C5.74841 13.8681 6.51037 13.4761 6.63406 13.4019C6.77721 13.3159 6.77435 13.3487 6.77435 11.7885C6.77435 10.5445 6.77012 10.37 6.73975 10.3584C6.6773 10.3347 5.93268 10.9639 5.38644 11.502C4.31371 12.5587 3.43929 13.7393 2.72383 15.097C2.56609 15.3964 2.53912 15.4689 2.58548 15.4689C2.59165 15.4689 3.28196 15.1208 4.11954 14.6954Z" fill="#94C518"/>
<path d="M7.50957 25.1648L6.77414 24.4184V19.7059C6.77414 15.718 6.7693 14.9934 6.74263 14.9934C6.71256 14.9934 5.40178 15.6469 2.30349 17.2066C1.5237 17.5991 0.69644 18.0173 0.465109 18.1358C0.0842691 18.3309 0.0456226 18.3462 0.0561189 18.2974C0.43904 16.5146 1.11762 14.8636 2.12444 13.2651C3.27512 11.4382 4.87628 9.80936 6.73232 8.57746C7.30259 8.19894 8.23978 7.6626 8.2838 7.68955C8.2983 7.69841 8.30628 8.55576 8.30628 10.1034C8.30628 12.3272 8.3091 12.5045 8.34459 12.518C8.39124 12.5358 8.67967 12.3926 8.93437 12.2253C9.16943 12.071 9.5051 11.7527 9.69216 11.5068C9.96118 11.1532 10.1809 10.644 10.2588 10.1936C10.307 9.91549 10.307 9.42658 10.2588 9.14844C10.18 8.69274 9.97641 8.22568 9.69454 7.8538C9.50808 7.60777 9.28985 7.37617 7.75759 5.79818C6.42095 4.42164 6.22477 4.21679 6.00492 3.96781C5.67324 3.59231 5.48422 3.25362 5.38623 2.85927C5.32844 2.62674 5.33416 2.17292 5.39812 1.91679C5.55447 1.29075 5.9836 0.765579 6.57977 0.470767C6.72452 0.399198 6.8038 0.370662 7.14003 0.269107C7.20666 0.248995 7.35174 0.238487 7.55165 0.239302C7.92791 0.240865 8.15824 0.298233 8.5464 0.487096C8.97162 0.693988 9.29584 0.974328 9.62095 1.41617C9.86273 1.74473 10.4001 2.60321 12.0522 5.29994C12.7128 6.37845 12.8798 6.66592 12.8798 6.72487C12.8798 6.78926 12.7649 6.70852 12.5477 6.49162C12.1618 6.10622 9.77053 3.62845 9.04715 2.8645C8.27857 2.05279 8.05293 1.8356 7.89094 1.75155C7.78243 1.69524 7.74481 1.68818 7.55165 1.68788C7.28798 1.68748 7.17673 1.73404 7.00056 1.91851C6.84478 2.08165 6.78834 2.21253 6.78763 2.41229C6.78677 2.65555 6.87138 2.81303 7.16735 3.11898C7.29745 3.25347 8.09944 4.08203 8.94955 4.96021C9.79966 5.8384 10.5558 6.62642 10.6299 6.71138C11.1674 7.32784 11.5291 8.08042 11.6712 8.87836C11.7308 9.21324 11.7512 9.78723 11.7154 10.1263C11.6015 11.2077 11.0862 12.237 10.2992 12.9556C9.9052 13.3153 9.63785 13.4876 8.82403 13.9063L8.31772 14.1667L8.30628 20.0307C8.2981 24.2306 8.28776 25.8971 8.26992 25.903C8.25625 25.9075 7.9141 25.5753 7.50957 25.1648ZM2.93821 15.3017C3.11738 15.2096 3.88139 14.8207 4.63603 14.4374C6.4017 13.5406 6.63639 13.4172 6.70556 13.3496L6.76273 13.2937V11.8281C6.76273 10.481 6.75967 10.3618 6.72479 10.3552C6.7028 10.351 6.54439 10.4657 6.34748 10.6285C5.05783 11.6944 4.02708 12.8854 3.16725 14.3032C2.93956 14.6787 2.54363 15.4023 2.54363 15.443C2.54363 15.4932 2.6153 15.4675 2.93821 15.3017Z" fill="#94C518"/>
<path d="M7.52068 25.1679L6.77176 24.4249V19.7092C6.77176 15.3514 6.76891 14.9935 6.73422 14.9935C6.71357 14.9935 6.16561 15.2599 5.51651 15.5854C3.31875 16.6878 0.197692 18.2599 0.120124 18.3037L0.0429688 18.3472L0.055386 18.2954C0.0622005 18.2668 0.0988574 18.111 0.136841 17.9489C0.61105 15.9259 1.57682 13.9006 2.89431 12.1663C4.2301 10.4079 6.09026 8.82933 8.03521 7.80372L8.28104 7.67409V10.0636C8.28104 11.3779 8.28728 12.4693 8.29492 12.489C8.31708 12.5462 8.39396 12.5313 8.58822 12.4322C9.47105 11.982 10.0741 11.1824 10.2605 10.2147C10.3206 9.90245 10.3163 9.3949 10.251 9.08935C10.1534 8.63283 9.9588 8.19509 9.70126 7.85267C9.53547 7.63221 9.27768 7.35826 7.92798 5.96815C6.06748 4.052 5.92134 3.89545 5.7241 3.60746C5.13777 2.7514 5.23654 1.66265 5.96778 0.921218C6.25559 0.629373 6.64563 0.400897 7.00044 0.316261C7.06962 0.29975 7.13838 0.277306 7.15324 0.266367C7.19518 0.23552 7.66031 0.219915 7.80081 0.244647C8.33238 0.338252 8.81669 0.582898 9.2091 0.956028C9.59722 1.32501 9.74233 1.54697 11.9436 5.13741C12.4195 5.91371 12.8089 6.55424 12.8089 6.56083C12.8089 6.56742 12.8257 6.60783 12.8462 6.65066C12.9418 6.85026 12.7744 6.72746 12.3467 6.28421C12.1418 6.0719 11.4231 5.32791 10.7496 4.63089C10.0761 3.93389 9.29243 3.119 9.00819 2.82005C8.3997 2.18005 8.04955 1.83734 7.93615 1.77073C7.81177 1.69769 7.58407 1.64684 7.46038 1.66451C7.20317 1.70127 6.95782 1.88461 6.84442 2.12484C6.75912 2.30552 6.75834 2.54034 6.84252 2.71845C6.91528 2.8725 6.89587 2.85166 8.78365 4.80177C10.5536 6.63016 10.6387 6.71962 10.7786 6.89981C11.4294 7.73813 11.7701 8.79169 11.7261 9.82968C11.6621 11.3403 10.9162 12.632 9.63024 13.4595C9.52333 13.5282 9.19415 13.7085 8.89874 13.8601C8.60331 14.0116 8.34351 14.1518 8.32138 14.1717C8.28319 14.2059 8.28083 14.507 8.27537 20.0593L8.2696 25.9109L7.52068 25.1679ZM4.1191 14.7061C6.41654 13.5396 6.61535 13.4351 6.6976 13.3498L6.77211 13.2725L6.76621 11.8078C6.76191 10.736 6.75333 10.3408 6.73426 10.3345C6.71992 10.3297 6.58132 10.4288 6.42628 10.5546C4.89171 11.7999 3.64695 13.3185 2.72129 15.0746C2.53693 15.4244 2.50777 15.5092 2.58125 15.4816C2.60327 15.4733 3.29529 15.1243 4.1191 14.7061Z" fill="#94C518"/>
<path d="M7.53253 25.1791L6.79504 24.4474V19.7529C6.79504 16.4824 6.78768 15.0447 6.77076 15.0134C6.74794 14.9712 6.65507 15.0141 5.24433 15.72C4.41814 16.1334 2.92696 16.883 1.93056 17.3858C0.934124 17.8886 0.109192 18.3 0.0973 18.3C0.0854087 18.3 0.0705447 18.3128 0.0641874 18.3283C0.05735 18.3451 0.0519303 18.3404 0.0508555 18.3167C0.0498722 18.2947 0.0587678 18.259 0.070659 18.2374C0.0825503 18.2158 0.119711 18.0707 0.153258 17.915C0.357261 16.9678 0.778989 15.8048 1.30305 14.7442C2.74514 11.8255 4.99032 9.48977 7.89588 7.88546C8.07998 7.78381 8.24207 7.70062 8.25604 7.70062C8.27452 7.70062 8.28145 8.35554 8.28145 10.1005C8.28145 12.8737 8.25254 12.5997 8.5311 12.4675C9.42934 12.0411 10.0624 11.2208 10.2631 10.223C10.3233 9.92421 10.3178 9.372 10.2517 9.06554C10.1388 8.5425 9.8853 8.03695 9.5389 7.644C9.38153 7.46549 8.85527 6.91729 7.78874 5.82082C5.90123 3.88036 5.7504 3.71114 5.56057 3.32073C5.42606 3.04408 5.37518 2.84018 5.36071 2.51959C5.34164 2.09681 5.40393 1.80137 5.58865 1.43836C5.73446 1.15191 6.02543 0.823757 6.299 0.637362C6.46113 0.526884 6.79685 0.372966 6.96966 0.329912C7.05599 0.308396 7.14334 0.282169 7.16381 0.271638C7.22679 0.239183 7.62208 0.22231 7.76692 0.245887C8.30768 0.333921 8.79899 0.574196 9.19758 0.945559C9.54814 1.27219 9.79209 1.63921 11.4144 4.28074C12.7752 6.49667 12.8779 6.66854 12.8779 6.73028C12.8779 6.75631 12.8063 6.72593 12.7403 6.67194C12.6529 6.60049 10.0517 3.91298 9.0667 2.87655C8.00333 1.75763 7.88769 1.66532 7.5492 1.66503C7.40079 1.66489 7.35626 1.67508 7.22455 1.73931C7.05562 1.82166 6.92036 1.95617 6.83614 2.12546C6.79372 2.21076 6.78368 2.2681 6.78393 2.42358C6.7842 2.58989 6.79292 2.63247 6.84789 2.73636C6.92914 2.88989 6.89093 2.84901 8.71539 4.7337C10.6013 6.68186 10.6452 6.72815 10.8059 6.93962C12.071 8.60442 12.0293 10.9108 10.705 12.5134C10.5432 12.7092 10.2175 13.0271 10.0194 13.1826C9.718 13.4192 9.35006 13.6353 8.65877 13.9817C8.49526 14.0636 8.34605 14.141 8.32718 14.1535C8.29688 14.1737 8.29156 14.862 8.28145 20.0436L8.27001 25.9107L7.53253 25.1791ZM4.09797 14.7202C6.28603 13.6092 6.63545 13.4267 6.70398 13.3588C6.79047 13.2731 6.7947 13.196 6.79488 11.6967C6.79502 10.6535 6.78917 10.3964 6.76447 10.363C6.74764 10.3402 6.72248 10.3255 6.70856 10.3304C6.62879 10.358 5.87045 11.0173 5.46096 11.4149C4.78208 12.0742 4.3076 12.6209 3.79008 13.34C3.37377 13.9185 2.96288 14.5894 2.67022 15.1685C2.54701 15.4123 2.51998 15.4916 2.56011 15.4916C2.57027 15.4916 3.26229 15.1445 4.09797 14.7202Z" fill="#94C518"/>
<path d="M7.51873 25.1578L6.79643 24.4286V19.7354C6.79643 17.1542 6.79019 15.0261 6.78255 15.0064C6.77491 14.9867 6.75911 14.9705 6.74745 14.9705C6.727 14.9705 5.20257 15.7332 1.73122 17.4801C0.825658 17.9357 0.0771962 18.3194 0.0679348 18.3325C0.057873 18.3469 0.0510126 18.3411 0.050784 18.3182C0.050601 18.2971 0.0595423 18.2743 0.0706789 18.2675C0.0817927 18.2607 0.098166 18.2065 0.107038 18.1472C0.168141 17.7391 0.503703 16.6304 0.770387 15.9557C1.5732 13.9247 2.7572 12.1181 4.28098 10.5991C5.25354 9.62966 6.30388 8.81627 7.4596 8.13766C7.77695 7.95131 8.24058 7.70046 8.26761 7.70046C8.27597 7.70046 8.28283 8.77953 8.28283 10.0984C8.28283 12.2321 8.28672 12.4995 8.31812 12.5253C8.36976 12.5678 8.77166 12.364 9.05872 12.1498C10.4751 11.0931 10.7337 9.1119 9.63288 7.75024C9.47816 7.55886 9.09185 7.15287 7.89385 5.92257C5.92668 3.90235 5.77932 3.73799 5.57922 3.34067C5.42194 3.02831 5.35558 2.74933 5.35606 2.40227C5.35718 1.59848 5.83107 0.854303 6.57919 0.481423C6.72467 0.408926 7.06718 0.294484 7.13871 0.294484C7.16218 0.294484 7.18546 0.282322 7.19046 0.267442C7.20265 0.23125 7.81892 0.227513 7.89632 0.263184C7.92651 0.27709 8.03323 0.310927 8.13346 0.338376C8.69393 0.491818 9.2039 0.867349 9.61424 1.42873C9.81369 1.7016 10.3378 2.53297 11.3622 4.20131C12.6984 6.37742 12.8186 6.57645 12.8287 6.62883C12.8343 6.65769 12.8479 6.68129 12.859 6.68129C12.8701 6.68129 12.8784 6.69913 12.8774 6.72092C12.8763 6.74484 12.871 6.74928 12.8641 6.73211C12.8577 6.71646 12.8423 6.70987 12.8299 6.7175C12.8174 6.72513 12.7809 6.70731 12.7487 6.678C12.6381 6.57733 9.68701 3.52184 9.00013 2.79689C8.21206 1.96511 8.06278 1.82344 7.87853 1.73242C7.76383 1.67578 7.7186 1.66656 7.55107 1.6657C7.3839 1.66484 7.33869 1.67347 7.22806 1.72726C7.08283 1.79792 6.91733 1.96083 6.8405 2.10879C6.80503 2.17712 6.78575 2.26144 6.77898 2.37812C6.76693 2.58501 6.81934 2.74344 6.95259 2.903C7.00121 2.9612 7.82877 3.82242 8.79162 4.81677C9.75442 5.81112 10.6069 6.7011 10.686 6.79453C11.4174 7.6586 11.805 8.86342 11.7134 9.98793C11.622 11.1095 11.1522 12.1171 10.3716 12.8657C9.95419 13.266 9.68854 13.4444 8.92313 13.8381C8.62757 13.9901 8.36257 14.129 8.33429 14.1467L8.28283 14.1789V20.0329C8.28283 23.5519 8.27451 25.887 8.26193 25.887C8.25045 25.887 7.91601 25.5589 7.51873 25.1578ZM4.07068 14.7398C6.08357 13.7172 6.61294 13.4426 6.69032 13.3809C6.73949 13.3417 6.76098 13.2996 6.77498 13.2152C6.79648 13.0853 6.80356 10.4177 6.78255 10.3635C6.75888 10.3024 6.7045 10.3229 6.53599 10.4567C5.01992 11.6598 3.7517 13.1699 2.81161 14.8913C2.52039 15.4246 2.49329 15.4915 2.56848 15.4915C2.58101 15.4915 3.257 15.1532 4.07068 14.7398Z" fill="#94C518"/>
<path d="M7.52114 25.1524L6.79508 24.4197V19.7058C6.79508 15.5785 6.7909 14.9904 6.76147 14.9792C6.72794 14.9665 5.4227 15.6136 1.96998 17.3547C0.982668 17.8525 0.15538 18.2701 0.131552 18.2825C0.0909841 18.3037 0.0892004 18.298 0.103379 18.1921C0.111703 18.13 0.15474 17.9327 0.199035 17.7536C0.78509 15.3841 2.05345 13.0269 3.74377 11.1659C4.04224 10.8373 4.73788 10.154 5.06857 9.86472C5.59139 9.40725 6.2764 8.89116 6.87512 8.50363C7.30275 8.2268 8.21451 7.70068 8.26656 7.70068C8.27465 7.70068 8.28389 8.7885 8.28709 10.1181C8.29377 12.8823 8.26548 12.6015 8.52503 12.4812C9.13016 12.2007 9.75152 11.583 10.0234 10.9917C10.2381 10.5248 10.3048 10.2116 10.3048 9.67108C10.3048 9.08555 10.2268 8.75937 9.9665 8.25588C9.74441 7.82624 9.67139 7.74391 7.84751 5.86617C6.60608 4.58809 6.25445 4.2222 6.05181 3.99769C5.72035 3.63043 5.51991 3.2895 5.41929 2.9219C5.34637 2.65542 5.34632 2.16108 5.41918 1.8914C5.48687 1.64096 5.67193 1.28002 5.83663 1.07725C6.14065 0.702915 6.61912 0.405838 7.06472 0.314679C7.14137 0.299007 7.19973 0.279212 7.19438 0.270674C7.18907 0.262158 7.26778 0.248003 7.36932 0.239238C7.57568 0.221391 7.89889 0.243858 7.87966 0.274683C7.8728 0.28569 7.89297 0.294704 7.9245 0.294704C8.01563 0.294704 8.34568 0.404434 8.5361 0.498062C8.92824 0.690821 9.28326 0.998362 9.59561 1.41579C9.79678 1.68465 10.313 2.50336 11.495 4.42801C12.6419 6.29565 12.8322 6.61522 12.8322 6.67347C12.8322 6.77484 12.9742 6.91569 10.5818 4.44062C10.1175 3.96032 9.45264 3.26672 9.10425 2.89925C7.98092 1.71434 7.91801 1.66474 7.53829 1.66515C7.35964 1.66531 7.31711 1.67335 7.21617 1.72591C7.0705 1.80179 6.90334 1.96793 6.83554 2.10421C6.79255 2.19063 6.78372 2.24531 6.78399 2.42364C6.78429 2.61447 6.79149 2.65234 6.84768 2.75852C6.92042 2.89599 6.841 2.8116 8.88753 4.92627C9.74345 5.81068 10.4903 6.58525 10.5471 6.64754C11.1572 7.31618 11.5388 8.12678 11.6774 9.04825C11.7224 9.34788 11.7217 9.96081 11.6759 10.2859C11.4996 11.5377 10.8 12.6583 9.75646 13.3606C9.50309 13.5311 9.18202 13.71 8.71598 13.9404C8.54618 14.0243 8.37898 14.1128 8.34438 14.1371L8.28149 14.1812V20.0342C8.28149 23.2534 8.27378 25.8868 8.26434 25.8862C8.25492 25.8856 7.92048 25.5554 7.52114 25.1524ZM3.71937 14.9235C5.12962 14.2089 6.38365 13.5666 6.55763 13.4697C6.63119 13.4287 6.71473 13.3609 6.74322 13.319L6.79508 13.2428V11.8212C6.79508 11.0393 6.78884 10.3834 6.7812 10.3637C6.75285 10.2906 6.6737 10.3346 6.34226 10.608C4.98512 11.7274 3.87258 13.0359 3.01221 14.5248C2.78691 14.9147 2.51881 15.4276 2.51881 15.4687C2.51881 15.4813 2.53683 15.4916 2.55883 15.4915C2.58085 15.4914 3.10308 15.2357 3.71937 14.9235ZM0.0508969 18.3095C0.0519946 18.2831 0.0574142 18.2777 0.064709 18.2958C0.0713178 18.3121 0.0704946 18.3317 0.0629025 18.3392C0.0553104 18.3467 0.0499136 18.3334 0.0508969 18.3095ZM12.8569 6.7136C12.858 6.68721 12.8634 6.68185 12.8707 6.69992C12.8773 6.71625 12.8765 6.7358 12.8689 6.74331C12.8613 6.75083 12.8559 6.73747 12.8569 6.7136Z" fill="#94C518"/>
<path d="M7.52066 25.1444L6.79506 24.4245V14.9705H6.74853C6.70455 14.9705 5.45691 15.5917 1.73452 17.467C0.844089 17.9156 0.109988 18.2771 0.103196 18.2703C0.0684365 18.2359 0.312482 17.2937 0.506195 16.7144C1.05011 15.0881 1.8711 13.5395 2.91959 12.1621C4.04876 10.6787 5.52924 9.34007 7.14951 8.33732C7.55949 8.08359 8.20641 7.72303 8.25167 7.72303C8.27566 7.72303 8.28236 8.17885 8.28707 10.1294L8.2929 12.5358L8.34225 12.5427C8.36939 12.5466 8.47744 12.5071 8.58236 12.4549C9.47279 12.0125 10.1178 11.1536 10.2806 10.1934C10.3269 9.91966 10.3275 9.42133 10.2817 9.1585C10.1878 8.61947 9.93915 8.08934 9.58779 7.67866C9.43709 7.5025 8.84308 6.88149 7.80033 5.80989C5.85849 3.81433 5.78083 3.72681 5.56903 3.2953C5.41346 2.97836 5.37086 2.78845 5.37086 2.41202C5.37086 2.05753 5.4079 1.87602 5.54383 1.56468C5.80235 0.972426 6.37658 0.492759 7.0199 0.331707C7.13515 0.302853 7.22399 0.273818 7.21729 0.26716C7.21059 0.260501 7.27796 0.247999 7.36698 0.239302C7.55736 0.220731 7.91197 0.245734 7.86614 0.274498C7.84453 0.288087 7.8519 0.293817 7.89125 0.294066C7.98835 0.294655 8.28625 0.386335 8.47774 0.474572C8.89021 0.664546 9.2512 0.967443 9.57089 1.39169C9.81672 1.71792 10.5614 2.91012 12.5635 6.18295C12.865 6.67568 12.9089 6.8075 12.7125 6.63025C12.6677 6.58978 12.1442 6.05215 11.5492 5.43556C10.9542 4.81896 10.2608 4.10044 10.0082 3.83886C9.75559 3.57727 9.32131 3.12374 9.04308 2.83101C8.01318 1.74736 7.92018 1.67255 7.584 1.65756C7.33657 1.64651 7.18187 1.70353 7.01098 1.86875C6.792 2.08051 6.70965 2.34369 6.78333 2.59644C6.85651 2.84761 6.69721 2.66978 8.73839 4.77876C9.58834 5.65694 10.3662 6.46268 10.467 6.56928C11.1068 7.24585 11.4874 8.00303 11.656 8.93471C11.7055 9.20823 11.7239 9.82682 11.6914 10.1216C11.5386 11.505 10.8099 12.6773 9.63067 13.4365C9.52376 13.5054 9.17903 13.6944 8.8646 13.8566L8.2929 14.1516L8.28714 20.0079C8.28398 23.2289 8.27346 25.8643 8.26381 25.8643C8.25416 25.8643 7.91973 25.5403 7.52066 25.1444ZM4.00135 14.7863C5.85174 13.8467 6.56053 13.4819 6.64994 13.4232C6.80226 13.3232 6.79504 13.4038 6.79504 11.8064C6.79504 10.3681 6.792 10.3049 6.72275 10.3049C6.71317 10.3049 6.58404 10.4034 6.43576 10.5237C5.28092 11.4611 4.26127 12.5786 3.4737 13.7701C3.03814 14.4291 2.49674 15.4019 2.52501 15.4748C2.53336 15.4964 2.5465 15.514 2.55426 15.514C2.56201 15.514 3.21319 15.1866 4.00135 14.7863ZM0.0508969 18.3092C0.0519946 18.2828 0.0574142 18.2774 0.064709 18.2955C0.0713178 18.3119 0.0704946 18.3314 0.0629025 18.3389C0.0553104 18.3464 0.0499136 18.3331 0.0508969 18.3092Z" fill="#94C518"/>
<path d="M7.53257 25.1447L6.81795 24.4198V19.7419C6.81795 16.6758 6.81006 15.0436 6.79508 15.0045C6.77738 14.9584 6.7617 14.9482 6.72598 14.9594C6.6748 14.9755 4.42845 16.1005 1.81238 17.4201C0.876675 17.8921 0.10809 18.2752 0.104316 18.2715C0.100566 18.2678 0.121513 18.1525 0.150852 18.0152C0.524214 16.2694 1.42802 14.2704 2.58824 12.6245C3.83371 10.8576 5.52746 9.30136 7.43538 8.17073C7.71421 8.00554 8.2269 7.72311 8.24803 7.72311C8.25386 7.72311 8.25862 8.79241 8.25862 10.0993C8.25862 11.4062 8.26486 12.4917 8.2725 12.5114C8.33013 12.66 8.96773 12.2983 9.40519 11.8688C10.5443 10.7503 10.6471 8.9757 9.64432 7.73722C9.48731 7.54329 9.13469 7.17283 7.75537 5.75272C6.35534 4.31127 6.1597 4.10612 5.96142 3.87153C5.54511 3.37898 5.37776 2.96284 5.37744 2.41924C5.37721 2.02851 5.44776 1.74602 5.63041 1.40652C5.8348 1.02662 6.16332 0.715454 6.57784 0.509151C6.80999 0.3936 7.10739 0.297685 7.25038 0.292226L7.30961 0.289961L7.25244 0.273496C7.15916 0.246567 7.51828 0.220658 7.71256 0.240271C7.83833 0.252954 7.86676 0.261447 7.82413 0.273632C7.76934 0.289305 7.76989 0.290075 7.83699 0.292226C7.96715 0.296439 8.26891 0.387621 8.48122 0.486933C8.90331 0.684358 9.24598 0.971492 9.56728 1.39694C9.76291 1.65597 10.373 2.62339 11.5216 4.49574C12.828 6.62551 12.8739 6.70394 12.8128 6.70394C12.8005 6.70394 12.1081 5.99818 11.2743 5.13555C9.28143 3.07395 9.43279 3.23133 8.8836 2.64991C8.24193 1.97055 8.05926 1.80044 7.88505 1.71993C7.54627 1.56338 7.22015 1.63115 6.95884 1.91235C6.83074 2.05021 6.76789 2.19377 6.75509 2.37777C6.74354 2.54351 6.79428 2.71124 6.90451 2.87177C6.93865 2.92151 7.75994 3.78117 8.72958 4.78213C9.69925 5.78307 10.5513 6.66827 10.6229 6.74924C10.9113 7.07506 11.2167 7.57701 11.3891 8.00848C12.0673 9.70533 11.6283 11.6764 10.2965 12.9147C9.91187 13.2723 9.58562 13.4829 8.77905 13.8943C8.51819 14.0274 8.29695 14.1482 8.28739 14.1627C8.27783 14.1773 8.26491 16.8173 8.25862 20.0294L8.24719 25.8696L7.53257 25.1447ZM3.83801 14.8776C5.63317 13.9659 6.54235 13.4988 6.64016 13.4382C6.8166 13.3287 6.80565 13.4277 6.81377 11.8665C6.81777 11.0986 6.81198 10.4357 6.80089 10.3934C6.78934 10.3492 6.76398 10.3132 6.74137 10.3089C6.66117 10.2936 5.90349 10.938 5.30847 11.5276C4.22603 12.6002 3.31129 13.8568 2.59947 15.249C2.4945 15.4542 2.48403 15.5141 2.55304 15.5141C2.57038 15.5141 3.14864 15.2277 3.83801 14.8776ZM0.050874 18.3093C0.0519946 18.2829 0.0574142 18.2775 0.064709 18.2956C0.0713178 18.3119 0.0704946 18.3315 0.0629025 18.339C0.0553104 18.3465 0.0498907 18.3332 0.050874 18.3093Z" fill="#94C518"/>
<path d="M7.53264 25.1283L6.81809 24.4076L6.8123 19.6835L6.80654 14.9593L6.75989 14.9527C6.71482 14.9463 5.42837 15.5849 1.8122 17.4087C0.889024 17.8743 0.128373 18.2501 0.121902 18.2437C0.11543 18.2372 0.133267 18.1275 0.161554 17.9998C0.647723 15.8038 1.88704 13.3605 3.42874 11.5587C4.73298 10.0345 6.28683 8.78503 8.08142 7.81754L8.25865 7.72199V12.5464L8.31591 12.5606C8.46377 12.5974 9.06862 12.2226 9.41427 11.88C9.77784 11.5198 10.0155 11.1373 10.1801 10.6475C10.4807 9.7531 10.346 8.74136 9.82195 7.95746C9.63748 7.68145 9.42643 7.45408 7.85967 5.84336C6.14893 4.08468 5.96631 3.88886 5.7643 3.59677C5.60935 3.37278 5.51049 3.16761 5.43903 2.92174C5.36635 2.67172 5.36772 2.14884 5.4417 1.89124C5.58575 1.38967 5.92204 0.927356 6.34525 0.649168C6.61861 0.469454 7.06833 0.30034 7.29678 0.291326L7.37824 0.28811L7.28676 0.273162C7.12772 0.247162 7.55944 0.219667 7.73269 0.244761C7.86303 0.26365 7.87005 0.266979 7.78986 0.271871C7.7065 0.276921 7.71057 0.279141 7.83559 0.296807C8.4803 0.387943 9.1102 0.798488 9.5837 1.43617C9.79998 1.72747 11.7152 4.8048 12.6796 6.41056C12.8265 6.65516 12.8451 6.72311 12.738 6.6233C12.6024 6.49699 9.68274 3.47442 8.98639 2.73944C8.18702 1.8957 8.09676 1.81102 7.89276 1.71332C7.75951 1.64947 7.72281 1.64216 7.53831 1.64257C7.28256 1.64313 7.16227 1.69436 6.97462 1.88264C6.79858 2.05934 6.74132 2.20897 6.75468 2.45745C6.76554 2.65934 6.8215 2.795 6.96312 2.96289C7.00718 3.01514 7.7465 3.78398 8.60603 4.67145C9.46556 5.5589 10.2761 6.39711 10.4071 6.53413C11.0381 7.19376 11.429 7.92116 11.6116 8.77556C11.6914 9.14899 11.7134 9.89126 11.6564 10.2824C11.5385 11.0896 11.1938 11.8713 10.6824 12.4906C10.4866 12.7279 10.0802 13.1051 9.83574 13.2767C9.545 13.4808 9.41756 13.554 8.79869 13.8722L8.27008 14.1439L8.25865 19.9965L8.24721 25.8491L7.53264 25.1283ZM3.86648 14.8749C5.41719 14.0875 6.45017 13.5584 6.60398 13.4728C6.82223 13.3513 6.80565 13.4804 6.8131 11.8451C6.81672 11.0542 6.81395 10.384 6.80695 10.356C6.78434 10.2654 6.69325 10.2922 6.50174 10.4457C4.88087 11.7451 3.65882 13.2314 2.64822 15.1324C2.47093 15.4659 2.45261 15.5607 2.57276 15.5229C2.59798 15.515 3.18015 15.2234 3.86648 14.8749ZM0.0508969 18.3093C0.0519946 18.283 0.0574142 18.2776 0.064709 18.2957C0.0713178 18.312 0.0704946 18.3315 0.0629025 18.3391C0.0553104 18.3466 0.0499136 18.3332 0.0508969 18.3093Z" fill="#94C518"/>
</g>
</g>
<defs>
<clipPath id="clip0_8301_184200">
<rect width="13" height="26" fill="white"/>
</clipPath>
</defs>
</svg>
