<svg width="40" height="40" viewBox="0 0 40 40" fill="none" xmlns="http://www.w3.org/2000/svg">
<g clip-path="url(#clip0_8301_184197)">
<path d="M23.9562 20.0172C23.9518 24.561 20.286 28.187 15.6991 28.1825C11.2058 28.1781 7.55024 24.4943 7.55469 19.9714C7.55913 15.4303 11.2458 11.769 15.8013 11.7778C20.3229 11.7867 23.9607 15.4629 23.9562 20.0172ZM15.7362 24.9065C18.4678 24.911 20.6773 22.7207 20.6818 20.0083C20.6849 17.2796 18.4989 15.067 15.7851 15.0536C13.0831 15.0403 10.8336 17.2692 10.8304 19.961C10.8291 22.6836 13.0282 24.9021 15.7362 24.9065ZM26.5351 28.1927V11.803H29.7769V28.1927H26.5351Z" fill="#94C518"/>
</g>
<defs>
<clipPath id="clip0_8301_184197">
<rect width="40" height="40" fill="white"/>
</clipPath>
</defs>
</svg>
