<svg width="40" height="40" viewBox="0 0 40 40" fill="none" xmlns="http://www.w3.org/2000/svg">
<g clip-path="url(#clip0_6160_52686)">
<path d="M23.9572 20.0172C23.9528 24.561 20.287 28.187 15.7001 28.1825C11.2068 28.1781 7.55122 24.4943 7.55567 19.9714C7.56011 15.4303 11.2468 11.769 15.8023 11.7778C20.3239 11.7867 23.9617 15.4629 23.9572 20.0172ZM15.7372 24.9065C18.4688 24.911 20.6783 22.7207 20.6828 20.0083C20.6859 17.2796 18.4999 15.067 15.7861 15.0536C13.0841 15.0403 10.8346 17.2692 10.8314 19.961C10.8301 22.6836 13.0292 24.9021 15.7372 24.9065ZM26.5361 28.1927V11.803H29.7779V28.1927H26.5361Z" fill="#1D77FE"/>
</g>
<defs>
<clipPath id="clip0_6160_52686">
<rect width="40" height="40" fill="white"/>
</clipPath>
</defs>
</svg>
