<svg width="28" height="29" viewBox="0 0 28 29" fill="none" xmlns="http://www.w3.org/2000/svg">
<path d="M13.9998 26.874C7.30466 26.874 1.85742 21.4274 1.85742 14.7318C1.85762 8.03648 7.30466 2.58984 14 2.58984C20.6953 2.58984 26.1424 8.03688 26.1424 14.7322C26.1424 21.4274 20.6951 26.8738 14 26.8738L13.9998 26.874Z" fill="#1D77FE"/>
<path d="M9.27852 10.6106C9.23907 11.0469 9.29286 11.4979 9.26397 11.939C9.22951 12.3806 9.17552 12.8169 9.08707 13.253C8.96455 13.8758 8.57707 14.3465 8.04316 14.7388C9.08268 15.4153 9.20002 16.4644 9.26875 17.5285C9.30302 18.1022 9.28828 18.6809 9.34725 19.2493C9.39127 19.6906 9.5628 19.8035 10.019 19.8179C10.2053 19.8229 10.3963 19.8179 10.6123 19.8179V21.1809C9.26397 21.4112 8.15114 21.0291 7.87622 19.8868C7.78586 19.4671 7.73016 19.0407 7.70967 18.6118C7.68018 18.1562 7.72899 17.7 7.69493 17.2444C7.59691 15.9939 7.43495 15.5723 6.23904 15.5134V13.9595C6.32689 13.9395 6.41036 13.9248 6.49842 13.915C7.15544 13.8808 7.43495 13.6795 7.57699 13.0325C7.64517 12.6684 7.68619 12.2998 7.69971 11.9296C7.74891 11.2186 7.72919 10.4932 7.85171 9.78721C8.02304 8.77239 8.65058 8.28192 9.69528 8.22295C9.98933 8.20821 10.2886 8.22295 10.6268 8.22295V9.61549C10.4846 9.62545 10.3619 9.64477 10.2346 9.64477C9.38629 9.61529 9.34227 9.90455 9.27852 10.6106ZM10.9111 13.8365H10.8914C10.4009 13.812 9.97937 14.1943 9.95466 14.6848C9.93036 15.1799 10.3127 15.6018 10.8031 15.6259H10.8619C11.3472 15.6554 11.7638 15.2825 11.7935 14.7972V14.7484C11.8034 14.2531 11.4064 13.8465 10.9111 13.8365ZM13.9851 13.8365C13.5097 13.8218 13.1125 14.1943 13.0977 14.6651C13.0977 14.6948 13.0977 14.7191 13.1025 14.7484C13.1025 15.2831 13.4653 15.6261 14.0145 15.6261C14.5538 15.6261 14.8923 15.2731 14.8923 14.7191C14.8873 14.1848 14.5291 13.8316 13.9851 13.8365ZM17.1329 13.8365C16.8922 13.8322 16.6594 13.9229 16.485 14.089C16.3107 14.2551 16.2088 14.4832 16.2014 14.7239C16.201 14.8424 16.2241 14.9599 16.2693 15.0695C16.3145 15.1791 16.381 15.2786 16.4648 15.3625C16.5486 15.4463 16.6482 15.5127 16.7578 15.5579C16.8674 15.6032 16.9849 15.6263 17.1034 15.6259H17.1134C17.5644 15.7044 18.0204 15.2681 18.0499 14.7436C18.0742 14.2581 17.6334 13.8365 17.1329 13.8365ZM21.4524 13.91C20.8836 13.8855 20.5989 13.6943 20.4571 13.155C20.369 12.8097 20.3149 12.4566 20.2955 12.1007C20.2561 11.4437 20.2608 10.7819 20.2168 10.1249C20.114 8.5658 18.9862 8.02174 17.3487 8.29108V9.64418C17.6084 9.64418 17.8095 9.64418 18.0105 9.64916C18.3587 9.65394 18.6235 9.78662 18.6577 10.1739C18.692 10.5269 18.692 10.8847 18.7263 11.2427C18.7952 11.9539 18.8342 12.6745 18.9568 13.3755C19.0647 13.9541 19.462 14.3856 19.9568 14.7384C19.0892 15.3219 18.834 16.1554 18.79 17.092C18.7657 17.734 18.751 18.3813 18.7167 19.0286C18.6872 19.6169 18.4814 19.8081 17.888 19.8229C17.7216 19.8276 17.5596 19.8424 17.3734 19.8523V21.2397C17.7216 21.2397 18.0402 21.2596 18.3587 21.2397C19.349 21.1809 19.9473 20.7006 20.1437 19.7394C20.2268 19.2099 20.2756 18.6756 20.2905 18.1411C20.3246 17.651 20.32 17.1557 20.369 16.6704C20.4425 15.9104 20.7906 15.5968 21.5504 15.5476C21.6223 15.5388 21.6931 15.5225 21.7616 15.4988V13.9447C21.6341 13.93 21.5456 13.915 21.4524 13.91ZM14 3.19746C20.3704 3.19746 25.5348 8.36121 25.5348 14.7318C25.5348 21.1022 20.3704 26.2664 14 26.2664C7.62978 26.2664 2.46563 21.1022 2.46563 14.7316C2.46563 8.3618 7.62978 3.19746 14 3.19746ZM14 1.98242C6.96957 1.98222 1.25 7.70179 1.25 14.7322C1.25 21.7623 6.96957 27.4818 14 27.4818C21.0302 27.4818 26.75 21.7623 26.75 14.7318C26.75 7.70139 21.0302 1.98262 14 1.98262V1.98242Z" fill="white"/>
</svg>
