<svg width="28" height="28" viewBox="0 0 28 28" fill="none" xmlns="http://www.w3.org/2000/svg">
<g clip-path="url(#clip0_7691_64439)">
<rect width="28" height="28" fill="white" fill-opacity="0.01" style="mix-blend-mode:multiply"/>
<path d="M28 9.625H25.375V4.375C25.375 3.4125 24.5875 2.625 23.625 2.625H11.375C10.4125 2.625 9.625 3.4125 9.625 4.375V7.875H11.375V4.375H23.625V16.625H11.375V13.125H9.625V16.625C9.625 17.5875 10.4125 18.375 11.375 18.375H23.625C24.5875 18.375 25.375 17.5875 25.375 16.625V11.375H28V9.625Z" fill="#94C518"/>
<path d="M18.375 14.875V11.375C18.375 10.4125 17.5875 9.625 16.625 9.625H4.375C3.4125 9.625 2.625 10.4125 2.625 11.375V16.625H0V18.375H2.625V23.625C2.625 24.5875 3.4125 25.375 4.375 25.375H16.625C17.5875 25.375 18.375 24.5875 18.375 23.625V20.125H16.625V23.625H4.375V11.375H16.625V14.875H18.375Z" fill="#94C518"/>
</g>
<defs>
<clipPath id="clip0_7691_64439">
<rect width="28" height="28" fill="white"/>
</clipPath>
</defs>
</svg>
