<svg width="29" height="28" viewBox="0 0 29 28" fill="none" xmlns="http://www.w3.org/2000/svg">
<g clip-path="url(#clip0_7691_64433)">
<rect width="28" height="28" transform="translate(0.812012)" fill="white" fill-opacity="0.01" style="mix-blend-mode:multiply"/>
<path d="M28.812 9.625H26.187V4.375C26.187 3.4125 25.3995 2.625 24.437 2.625H12.187C11.2245 2.625 10.437 3.4125 10.437 4.375V7.875H12.187V4.375H24.437V16.625H12.187V13.125H10.437V16.625C10.437 17.5875 11.2245 18.375 12.187 18.375H24.437C25.3995 18.375 26.187 17.5875 26.187 16.625V11.375H28.812V9.625Z" fill="#1D77FE"/>
<path d="M19.187 14.875V11.375C19.187 10.4125 18.3995 9.625 17.437 9.625H5.18701C4.22451 9.625 3.43701 10.4125 3.43701 11.375V16.625H0.812012V18.375H3.43701V23.625C3.43701 24.5875 4.22451 25.375 5.18701 25.375H17.437C18.3995 25.375 19.187 24.5875 19.187 23.625V20.125H17.437V23.625H5.18701V11.375H17.437V14.875H19.187Z" fill="#1D77FE"/>
</g>
<defs>
<clipPath id="clip0_7691_64433">
<rect width="28" height="28" fill="white" transform="translate(0.812012)"/>
</clipPath>
</defs>
</svg>
