<svg width="28" height="28" viewBox="0 0 28 28" fill="none" xmlns="http://www.w3.org/2000/svg">
<path d="M14.0018 26.1416C7.30661 26.1416 1.85938 20.695 1.85938 13.9994C1.85957 7.30406 7.30661 1.85742 14.002 1.85742C20.6973 1.85742 26.1443 7.30446 26.1443 13.9998C26.1443 20.695 20.6971 26.1414 14.002 26.1414L14.0018 26.1416Z" fill="#94C518"/>
<path d="M9.27852 9.87816C9.23907 10.3145 9.29286 10.7655 9.26397 11.2066C9.22951 11.6482 9.17552 12.0845 9.08707 12.5206C8.96455 13.1434 8.57707 13.6141 8.04316 14.0064C9.08268 14.6829 9.20002 15.732 9.26875 16.796C9.30302 17.3698 9.28828 17.9485 9.34725 18.5169C9.39127 18.9582 9.5628 19.0711 10.019 19.0855C10.2053 19.0904 10.3963 19.0855 10.6123 19.0855V20.4485C9.26397 20.6788 8.15114 20.2967 7.87621 19.1544C7.78586 18.7347 7.73016 18.3082 7.70967 17.8794C7.68018 17.4238 7.72899 16.9676 7.69493 16.5119C7.59691 15.2615 7.43495 14.8399 6.23904 14.7809V13.227C6.32689 13.2071 6.41036 13.1924 6.49842 13.1826C7.15544 13.1483 7.43495 12.9471 7.57699 12.3001C7.64517 11.936 7.68619 11.5673 7.69971 11.1972C7.74891 10.4862 7.72919 9.76082 7.85171 9.05479C8.02304 8.03997 8.65058 7.5495 9.69528 7.49053C9.98933 7.47578 10.2886 7.49053 10.6268 7.49053V8.88307C10.4846 8.89303 10.3619 8.91235 10.2346 8.91235C9.38629 8.88287 9.34227 9.17213 9.27852 9.87816ZM10.9111 13.1041H10.8914C10.4009 13.0796 9.97937 13.4619 9.95466 13.9524C9.93036 14.4474 10.3127 14.8694 10.8031 14.8935H10.8619C11.3472 14.923 11.7638 14.55 11.7935 14.0647V14.0159C11.8034 13.5207 11.4064 13.1141 10.9111 13.1041ZM13.9851 13.1041C13.5097 13.0894 13.1125 13.4619 13.0977 13.9327C13.0977 13.9623 13.0977 13.9867 13.1025 14.0159C13.1025 14.5506 13.4653 14.8937 14.0145 14.8937C14.5538 14.8937 14.8923 14.5407 14.8923 13.9867C14.8873 13.4523 14.5291 13.0991 13.9851 13.1041ZM17.1329 13.1041C16.8922 13.0998 16.6594 13.1905 16.485 13.3566C16.3107 13.5227 16.2088 13.7508 16.2014 13.9914C16.201 14.11 16.2241 14.2274 16.2693 14.337C16.3145 14.4466 16.381 14.5462 16.4648 14.63C16.5486 14.7139 16.6482 14.7803 16.7578 14.8255C16.8674 14.8707 16.9849 14.8938 17.1034 14.8935H17.1134C17.5644 14.972 18.0204 14.5357 18.0499 14.0112C18.0742 13.5257 17.6334 13.1041 17.1329 13.1041ZM21.4524 13.1776C20.8836 13.1531 20.5989 12.9619 20.4571 12.4226C20.369 12.0773 20.3149 11.7242 20.2955 11.3683C20.2561 10.7113 20.2608 10.0495 20.2168 9.39247C20.114 7.83338 18.9862 7.28932 17.3487 7.55866V8.91175C17.6084 8.91175 17.8095 8.91175 18.0105 8.91673C18.3587 8.92152 18.6235 9.05419 18.6577 9.44148C18.692 9.79449 18.692 10.1523 18.7263 10.5103C18.7952 11.2215 18.8342 11.9421 18.9568 12.6431C19.0647 13.2217 19.462 13.6532 19.9568 14.006C19.0892 14.5895 18.834 15.423 18.79 16.3595C18.7657 17.0016 18.751 17.6489 18.7167 18.2962C18.6872 18.8844 18.4814 19.0757 17.888 19.0904C17.7216 19.0952 17.5596 19.11 17.3734 19.1199V20.5073C17.7216 20.5073 18.0402 20.5272 18.3587 20.5073C19.349 20.4485 19.9473 19.9682 20.1437 19.007C20.2268 18.4774 20.2756 17.9431 20.2905 17.4086C20.3246 16.9186 20.32 16.4233 20.369 15.938C20.4425 15.178 20.7906 14.8644 21.5504 14.8152C21.6223 14.8064 21.6931 14.7901 21.7616 14.7664V13.2123C21.6341 13.1975 21.5456 13.1826 21.4524 13.1776ZM14 2.46504C20.3704 2.46504 25.5348 7.62878 25.5348 13.9994C25.5348 20.3698 20.3704 25.534 14 25.534C7.62978 25.534 2.46563 20.3698 2.46563 13.9992C2.46563 7.62938 7.62978 2.46504 14 2.46504ZM14 1.25C6.96957 1.2498 1.25 6.96937 1.25 13.9998C1.25 21.0298 6.96957 26.7494 14 26.7494C21.0302 26.7494 26.75 21.0298 26.75 13.9994C26.75 6.96897 21.0302 1.2502 14 1.2502V1.25Z" fill="white"/>
</svg>
