<svg width="28" height="28" viewBox="0 0 28 28" fill="none" xmlns="http://www.w3.org/2000/svg">
<rect width="28" height="28" fill="white" fill-opacity="0.01" style="mix-blend-mode:multiply"/>
<path d="M21 18.375C20.5625 18.375 20.125 18.2 19.775 17.85L17.15 15.225C16.8 14.875 16.625 14.4375 16.625 14C16.625 13.5625 16.8 13.125 17.15 12.775L19.775 10.15C20.125 9.8 20.5625 9.625 21 9.625C21.4375 9.625 21.875 9.8 22.225 10.15L24.85 12.775C25.2 13.125 25.375 13.5625 25.375 14C25.375 14.4375 25.2 14.875 24.85 15.225L22.225 17.85C21.875 18.2 21.4375 18.375 21 18.375ZM21 11.375L18.375 14L21 16.625L23.625 14L21 11.375Z" fill="#94C518"/>
<path d="M14 11.375C13.5625 11.375 13.125 11.2 12.775 10.85L10.15 8.225C9.8 7.875 9.625 7.4375 9.625 7C9.625 6.5625 9.8 6.125 10.15 5.775L12.775 3.15C13.125 2.8 13.5625 2.625 14 2.625C14.4375 2.625 14.875 2.8 15.225 3.15L17.85 5.775C18.2 6.125 18.375 6.5625 18.375 7C18.375 7.4375 18.2 7.875 17.85 8.225L15.225 10.85C14.875 11.2 14.4375 11.375 14 11.375ZM14 4.375L11.375 7L14 9.625L16.625 7L14 4.375Z" fill="#94C518"/>
<path d="M14 25.375C13.5625 25.375 13.125 25.2 12.775 24.85L10.15 22.225C9.8 21.875 9.625 21.4375 9.625 21C9.625 20.5625 9.8 20.125 10.15 19.775L12.775 17.15C13.125 16.8 13.5625 16.625 14 16.625C14.4375 16.625 14.875 16.8 15.225 17.15L17.85 19.775C18.2 20.125 18.375 20.5625 18.375 21C18.375 21.4375 18.2 21.875 17.85 22.225L15.225 24.85C14.875 25.2 14.4375 25.375 14 25.375ZM14 18.375L11.375 21L14 23.625L16.625 21L14 18.375Z" fill="#94C518"/>
<path d="M7 18.375C6.5625 18.375 6.125 18.2 5.775 17.85L3.15 15.225C2.8 14.875 2.625 14.4375 2.625 14C2.625 13.5625 2.8 13.125 3.15 12.775L5.775 10.15C6.125 9.8 6.5625 9.625 7 9.625C7.4375 9.625 7.875 9.8 8.225 10.15L10.85 12.775C11.2 13.125 11.375 13.5625 11.375 14C11.375 14.4375 11.2 14.875 10.85 15.225L8.225 17.85C7.875 18.2 7.4375 18.375 7 18.375ZM7 11.375L4.375 14L7 16.625L9.625 14L7 11.375Z" fill="#94C518"/>
</svg>
