<svg width="29" height="28" viewBox="0 0 29 28" fill="none" xmlns="http://www.w3.org/2000/svg">
<rect width="28" height="28" transform="translate(0.60791)" fill="white" fill-opacity="0.01" style="mix-blend-mode:multiply"/>
<path d="M21.6079 18.375C21.1704 18.375 20.7329 18.2 20.3829 17.85L17.7579 15.225C17.4079 14.875 17.2329 14.4375 17.2329 14C17.2329 13.5625 17.4079 13.125 17.7579 12.775L20.3829 10.15C20.7329 9.8 21.1704 9.625 21.6079 9.625C22.0454 9.625 22.4829 9.8 22.8329 10.15L25.4579 12.775C25.8079 13.125 25.9829 13.5625 25.9829 14C25.9829 14.4375 25.8079 14.875 25.4579 15.225L22.8329 17.85C22.4829 18.2 22.0454 18.375 21.6079 18.375ZM21.6079 11.375L18.9829 14L21.6079 16.625L24.2329 14L21.6079 11.375Z" fill="#1D77FE"/>
<path d="M14.6079 11.375C14.1704 11.375 13.7329 11.2 13.3829 10.85L10.7579 8.225C10.4079 7.875 10.2329 7.4375 10.2329 7C10.2329 6.5625 10.4079 6.125 10.7579 5.775L13.3829 3.15C13.7329 2.8 14.1704 2.625 14.6079 2.625C15.0454 2.625 15.4829 2.8 15.8329 3.15L18.4579 5.775C18.8079 6.125 18.9829 6.5625 18.9829 7C18.9829 7.4375 18.8079 7.875 18.4579 8.225L15.8329 10.85C15.4829 11.2 15.0454 11.375 14.6079 11.375ZM14.6079 4.375L11.9829 7L14.6079 9.625L17.2329 7L14.6079 4.375Z" fill="#1D77FE"/>
<path d="M14.6079 25.375C14.1704 25.375 13.7329 25.2 13.3829 24.85L10.7579 22.225C10.4079 21.875 10.2329 21.4375 10.2329 21C10.2329 20.5625 10.4079 20.125 10.7579 19.775L13.3829 17.15C13.7329 16.8 14.1704 16.625 14.6079 16.625C15.0454 16.625 15.4829 16.8 15.8329 17.15L18.4579 19.775C18.8079 20.125 18.9829 20.5625 18.9829 21C18.9829 21.4375 18.8079 21.875 18.4579 22.225L15.8329 24.85C15.4829 25.2 15.0454 25.375 14.6079 25.375ZM14.6079 18.375L11.9829 21L14.6079 23.625L17.2329 21L14.6079 18.375Z" fill="#1D77FE"/>
<path d="M7.60791 18.375C7.17041 18.375 6.73291 18.2 6.38291 17.85L3.75791 15.225C3.40791 14.875 3.23291 14.4375 3.23291 14C3.23291 13.5625 3.40791 13.125 3.75791 12.775L6.38291 10.15C6.73291 9.8 7.17041 9.625 7.60791 9.625C8.04541 9.625 8.48291 9.8 8.83291 10.15L11.4579 12.775C11.8079 13.125 11.9829 13.5625 11.9829 14C11.9829 14.4375 11.8079 14.875 11.4579 15.225L8.83291 17.85C8.48291 18.2 8.04541 18.375 7.60791 18.375ZM7.60791 11.375L4.98291 14L7.60791 16.625L10.2329 14L7.60791 11.375Z" fill="#1D77FE"/>
</svg>
