<svg width="22" height="28" viewBox="0 0 22 28" fill="none" xmlns="http://www.w3.org/2000/svg">
<g clip-path="url(#clip0_6160_52689)">
<path d="M7.151 6.15593H6.69726V8.36793H7.151V6.15593ZM9.10249 6.15593H8.64874V8.36793H9.10249V6.15593ZM11.7688 1.93458L11.3039 1.17578L3.54297 5.39713L4.00787 6.15593L11.7688 1.93458Z" fill="#1D77FE"/>
<path d="M11.7236 1.93458L12.1889 1.17578L19.9498 5.39713L19.4846 6.15593L11.7236 1.93458Z" fill="#1D77FE"/>
<path d="M21.3228 6.16609V5.29004H0.0595703V6.16609H21.3228Z" fill="#1D77FE"/>
<path fill-rule="evenodd" clip-rule="evenodd" d="M12.9037 18.542V5.5573H13.8343V19.1726C13.5847 18.9052 13.2667 18.7131 12.9037 18.542ZM11.3152 18.3176V0H12.2458V18.4243C11.9847 18.3067 11.3494 18.3176 11.3152 18.3176ZM2.49915 20.145C1.36441 19.3543 0.615723 18.0933 0.615723 16.6611C0.615723 15.9023 0.831067 15.1543 1.22828 14.5023H9.17072C9.57909 15.1543 9.78365 15.9023 9.78365 16.6611C9.78365 17.3236 9.6929 17.9434 9.40912 18.4993C8.80772 17.9543 7.92254 17.7191 7.0262 17.7191C5.43772 17.7191 4.0761 18.6487 3.72463 20.0382C3.59967 20.0274 3.52045 20.0168 3.39548 20.0168C3.08902 20.0273 2.79408 20.0704 2.49915 20.145Z" fill="#1D77FE"/>
<path d="M6.40209 9.35116H3.99685V11.6272H6.40209V9.35116ZM3.69039 9.35116H1.28516V11.6272H3.69039V9.35116ZM3.69039 11.8838H1.28516V14.1602H3.69039V11.8838ZM6.40209 11.8838H3.99685V14.1602H6.40209V11.8838ZM9.10263 11.8838H6.69739V14.1602H9.10263V11.8838ZM9.10263 8.13281H6.69739V10.4089H9.10263V8.13281Z" fill="#1D77FE"/>
<path fill-rule="evenodd" clip-rule="evenodd" d="M4.12129 20.4867C4.45044 19.1725 5.70978 18.189 7.20751 18.189C8.17228 18.189 9.0344 18.5953 9.62465 19.2365C10.1349 18.9051 10.7479 18.7129 11.4173 18.7129C13.1646 18.7129 14.5828 20.0485 14.5828 21.6946C14.5828 22.0365 14.5262 22.3571 14.4128 22.6669C14.7985 23.1586 15.0369 23.7785 15.0369 24.441C15.0369 26.0867 13.6184 27.4227 11.8711 27.4227C11.0993 27.4227 10.396 27.1661 9.85152 26.7388C9.27281 27.4976 8.3311 27.9998 7.26442 27.9998C6.03893 27.9998 4.97225 27.3373 4.43928 26.3755C4.22357 26.4182 4.00785 26.4395 3.78098 26.4395C2.03368 26.4395 0.604004 25.1036 0.604004 23.4579C0.604004 21.8122 2.02252 20.4762 3.78098 20.4762C3.89441 20.4654 4.00785 20.4654 4.12129 20.4867Z" fill="#1D77FE"/>
</g>
<defs>
<clipPath id="clip0_6160_52689">
<rect width="22" height="28" fill="white"/>
</clipPath>
</defs>
</svg>
