<svg width="28" height="28" viewBox="0 0 28 28" fill="none" xmlns="http://www.w3.org/2000/svg">
<g clip-path="url(#clip0_9674_78891)">
<rect width="28" height="28" fill="white" fill-opacity="0.01" style="mix-blend-mode:multiply"/>
<path d="M26.2506 15.75H24.5006V24.5H26.2506V15.75Z" fill="#94C518"/>
<path d="M22.7506 12.25H21.0006V24.5H22.7506V12.25Z" fill="#94C518"/>
<path d="M19.2506 19.25H17.5006V24.5H19.2506V19.25Z" fill="#94C518"/>
<path d="M19.4038 8.74997L20.7906 7.64213C19.5011 6.02998 17.6808 4.92838 15.6544 4.53387C14.5252 4.31573 13.364 4.32229 12.2373 4.55317C11.1107 4.78405 10.0405 5.23473 9.08814 5.87944C8.13575 6.52414 7.31975 7.35024 6.68681 8.31049C6.05386 9.27075 5.61638 10.3463 5.39938 11.4758C3.74974 11.7739 2.27656 12.6915 1.28166 14.0407C0.286766 15.3899 -0.154517 17.0685 0.0482276 18.7326C0.280485 20.35 1.09379 21.8275 2.33613 22.8889C3.57847 23.9504 5.16482 24.523 6.79868 24.5H14.0006V22.75H6.73331C5.58728 22.7679 4.47084 22.3858 3.57614 21.6694C2.68143 20.953 2.06443 19.9471 1.8313 18.8249C1.71456 18.2005 1.72244 17.5592 1.85449 16.9379C1.98653 16.3165 2.24014 15.7274 2.60071 15.2045C2.96128 14.6815 3.4217 14.235 3.95548 13.8907C4.48926 13.5463 5.08587 13.3109 5.71097 13.198L6.89099 12.9844L7.07815 12.0132C7.34097 10.5537 8.04922 9.21146 9.10561 8.17074C10.162 7.13001 11.5147 6.4419 12.9779 6.20092C13.8561 6.07056 14.7512 6.10917 15.6149 6.31467C17.1169 6.67456 18.4526 7.53305 19.4038 8.74997Z" fill="#94C518"/>
</g>
<defs>
<clipPath id="clip0_9674_78891">
<rect width="28" height="28" fill="white"/>
</clipPath>
</defs>
</svg>
