<svg width="29" height="29" viewBox="0 0 29 29" fill="none" xmlns="http://www.w3.org/2000/svg">
<g clip-path="url(#clip0_9674_78888)">
<rect width="28" height="28" transform="translate(0.523438 0.103516)" fill="white" fill-opacity="0.01" style="mix-blend-mode:multiply"/>
<path d="M26.7741 15.8535H25.0241V24.6035H26.7741V15.8535Z" fill="#1D77FE"/>
<path d="M23.2741 12.3535H21.5241V24.6035H23.2741V12.3535Z" fill="#1D77FE"/>
<path d="M19.7741 19.3535H18.0241V24.6035H19.7741V19.3535Z" fill="#1D77FE"/>
<path d="M19.9272 8.85349L21.3141 7.74565C20.0245 6.13349 18.2042 5.0319 16.1778 4.63739C15.0486 4.41925 13.8875 4.42581 12.7608 4.65669C11.6341 4.88757 10.564 5.33825 9.61158 5.98295C8.65918 6.62766 7.84319 7.45375 7.21024 8.41401C6.5773 9.37426 6.13982 10.4499 5.92282 11.5793C4.27318 11.8774 2.8 12.7951 1.8051 14.1443C0.810204 15.4935 0.368921 17.1721 0.571665 18.8361C0.803922 20.4535 1.61723 21.931 2.85957 22.9925C4.10191 24.0539 5.68826 24.6266 7.32211 24.6035H14.5241V22.8535H7.25675C6.11072 22.8714 4.99428 22.4893 4.09958 21.7729C3.20487 21.0565 2.58786 20.0506 2.35474 18.9284C2.238 18.304 2.24588 17.6627 2.37792 17.0414C2.50997 16.42 2.76357 15.8309 3.12414 15.308C3.48472 14.785 3.94514 14.3385 4.47892 13.9942C5.0127 13.6498 5.6093 13.4145 6.2344 13.3015L7.41443 13.088L7.60159 12.1167C7.8644 10.6573 8.57265 9.31498 9.62904 8.27425C10.6854 7.23353 12.0381 6.54542 13.5014 6.30444C14.3796 6.17407 15.2746 6.21268 16.1384 6.41819C17.6404 6.77807 18.976 7.63657 19.9272 8.85349Z" fill="#1D77FE"/>
</g>
<defs>
<clipPath id="clip0_9674_78888">
<rect width="28" height="28" fill="white" transform="translate(0.523438 0.103516)"/>
</clipPath>
</defs>
</svg>
