<svg width="28" height="28" viewBox="0 0 28 28" fill="none" xmlns="http://www.w3.org/2000/svg">
<rect width="28" height="28" fill="white" fill-opacity="0.01" style="mix-blend-mode:multiply"/>
<path d="M24.5 19.25V16.625C24.5 14.7 22.925 13.125 21 13.125C19.075 13.125 17.5 14.7 17.5 16.625V19.25C16.5375 19.25 15.75 20.0375 15.75 21V25.375C15.75 26.3375 16.5375 27.125 17.5 27.125H24.5C25.4625 27.125 26.25 26.3375 26.25 25.375V21C26.25 20.0375 25.4625 19.25 24.5 19.25ZM19.25 16.625C19.25 15.6625 20.0375 14.875 21 14.875C21.9625 14.875 22.75 15.6625 22.75 16.625V19.25H19.25V16.625ZM17.5 25.375V21H24.5V25.375H17.5Z" fill="#94C518"/>
<path d="M12.25 14H7V15.75H12.25V14Z" fill="#94C518"/>
<path d="M17.5 8.75H7V10.5H17.5V8.75Z" fill="#94C518"/>
<path d="M22.75 3.5C22.75 2.5375 21.9625 1.75 21 1.75H3.5C2.5375 1.75 1.75 2.5375 1.75 3.5V14.875C1.75 18.4625 3.675 21.7 6.825 23.3625L11.375 25.8125V23.8L7.7 21.7875C5.075 20.475 3.5 17.7625 3.5 14.875V3.5H21V10.5H22.75V3.5Z" fill="#94C518"/>
</svg>
