<svg width="28" height="28" viewBox="0 0 28 28" fill="none" xmlns="http://www.w3.org/2000/svg">
<path d="M12.5997 6.58008C12.7845 6.58008 12.9693 6.58008 13.1597 6.58008C12.9411 7.65572 12.6301 8.69195 12.3022 9.73883C12.1232 10.3134 11.9441 10.8881 11.7597 11.4801C13.7001 11.5494 13.7001 11.5494 15.6797 11.6201C15.5685 11.2914 15.4573 10.9628 15.3428 10.6242C15.2356 10.306 15.1287 9.98762 15.0217 9.66927C14.9473 9.44798 14.8726 9.22677 14.7976 9.00564C14.69 8.68786 14.5832 8.36982 14.4766 8.05172C14.4429 7.95283 14.4092 7.85394 14.3745 7.75205C14.2383 7.34353 14.1397 7.0139 14.1397 6.58008C14.3245 6.58008 14.5093 6.58008 14.6997 6.58008C14.9049 7.18347 15.1087 7.78735 15.3122 8.39133C15.3699 8.56106 15.4277 8.73079 15.4872 8.90566C15.5711 9.15539 15.5711 9.15539 15.6567 9.41016C15.708 9.56192 15.7594 9.71368 15.8122 9.87004C15.9853 10.4451 16.1094 11.0339 16.2397 11.6201C17.9953 11.6201 19.7509 11.6201 21.5597 11.6201C21.5597 11.7587 21.5597 11.8973 21.5597 12.0401C19.8965 12.0863 18.2333 12.1325 16.5197 12.1801C16.9355 13.3813 17.3513 14.5825 17.7797 15.8201C19.093 14.8955 20.4051 13.9708 21.6997 13.0201C21.8845 13.1125 22.0693 13.2049 22.2597 13.3001C21.6739 13.9306 21.0183 14.4139 20.3172 14.9101C20.2084 14.9879 20.0995 15.0656 19.9874 15.1458C19.6719 15.3711 19.3558 15.5956 19.0397 15.8201C18.7129 16.0532 18.3863 16.2867 18.0597 16.5201C18.2705 17.2258 18.4825 17.931 18.6995 18.6348C18.7721 18.872 18.8446 19.1092 18.9172 19.3463C18.9542 19.4653 18.9912 19.5844 19.0293 19.707C19.2318 20.3725 19.3829 21.0084 19.4597 21.7001C19.2022 21.6874 19.2022 21.6874 18.8997 21.5601C18.7076 21.1653 18.7076 21.1653 18.5387 20.6424C18.5085 20.5504 18.4782 20.4584 18.447 20.3635C18.3833 20.1688 18.3208 19.9736 18.2593 19.7782C18.1651 19.479 18.0679 19.181 17.97 18.8831C17.4997 17.4336 17.4997 17.4336 17.4997 16.9401C16.4085 17.7115 15.3241 18.4856 14.2797 19.3201C14.5448 19.5218 14.8102 19.7229 15.0759 19.9238C15.1502 19.9804 15.2245 20.037 15.301 20.0953C15.6471 20.3564 15.989 20.5969 16.3649 20.8136C16.4622 20.8751 16.5595 20.9367 16.6597 21.0001C16.6597 21.0925 16.6597 21.1849 16.6597 21.2801C16.7579 21.3118 16.856 21.3436 16.9572 21.3763C17.4568 21.6044 17.7888 21.897 18.1997 22.2601C18.0611 22.3987 17.9225 22.5373 17.7797 22.6801C17.4297 22.4876 17.4297 22.4876 17.0797 22.2601C17.0797 22.1677 17.0797 22.0753 17.0797 21.9801C16.9873 21.9514 16.8949 21.9227 16.7997 21.8931C16.1122 21.5771 15.5533 21.0846 14.9633 20.6159C14.2789 20.0687 14.2789 20.0687 13.4397 19.8801C13.0543 19.999 13.0543 19.999 12.7397 20.1601C12.7397 20.2525 12.7397 20.3449 12.7397 20.4401C12.5496 20.6021 12.5496 20.6021 12.2841 20.7797C12.1875 20.8451 12.0909 20.9105 11.9913 20.9779C11.8889 21.0459 11.7865 21.1138 11.6809 21.1838C11.4824 21.3174 11.2838 21.451 11.0854 21.5847C10.9877 21.65 10.8901 21.7152 10.7895 21.7825C10.5061 21.9757 10.2297 22.1766 9.95336 22.3798C9.51969 22.6801 9.51969 22.6801 9.23969 22.6801C9.19349 22.5415 9.14729 22.4029 9.09969 22.2601C10.3373 21.2938 11.5962 20.3645 12.8797 19.4601C12.7034 18.9312 12.5007 18.8322 12.0484 18.5151C11.8416 18.3689 11.8416 18.3689 11.6306 18.2198C11.4884 18.1209 11.3462 18.022 11.1997 17.9201C11.0633 17.8241 10.9268 17.7281 10.7863 17.6291C10.4581 17.3985 10.1292 17.1688 9.79969 16.9401C9.75367 17.1388 9.75367 17.1388 9.70672 17.3415C9.35402 18.8251 8.89972 20.26 8.39969 21.7001C8.21489 21.7001 8.03009 21.7001 7.83969 21.7001C7.94126 20.9408 8.15652 20.2331 8.38219 19.5038C8.68646 18.5138 8.97217 17.5207 9.23969 16.5201C8.80244 16.196 8.36485 15.8724 7.92719 15.5488C7.7404 15.4104 7.7404 15.4104 7.54984 15.2691C7.43073 15.1811 7.31163 15.0931 7.18891 15.0025C7.07893 14.9211 6.96896 14.8397 6.85565 14.7559C6.58758 14.5551 6.58758 14.5551 6.29969 14.4201C6.29969 14.3277 6.29969 14.2353 6.29969 14.1401C6.19285 14.1025 6.08601 14.065 5.97594 14.0263C5.61735 13.8679 5.43212 13.7324 5.17969 13.4401C5.22589 13.3015 5.27209 13.1629 5.31969 13.0201C5.81793 13.2009 6.21205 13.4138 6.63547 13.7316C6.80547 13.8581 6.80547 13.8581 6.97891 13.9872C7.09549 14.0752 7.21207 14.1632 7.33219 14.2538C7.56365 14.4269 7.79516 14.5999 8.02672 14.7728C8.13694 14.8554 8.24716 14.938 8.36072 15.0231C8.78944 15.3416 9.22369 15.6516 9.65969 15.9601C9.67891 15.8014 9.67891 15.8014 9.69852 15.6396C9.83947 14.9158 10.0703 14.228 10.2984 13.5276C10.4573 13.0367 10.6161 12.5458 10.7797 12.0401C9.11649 12.0401 7.45329 12.0401 5.73969 12.0401C5.73969 11.9015 5.73969 11.7629 5.73969 11.6201C7.49529 11.6201 9.25089 11.6201 11.0597 11.6201C11.2676 10.8578 11.2676 10.8578 11.4797 10.0801C11.5725 9.77397 11.6675 9.46848 11.7657 9.16406C11.8149 9.01112 11.8641 8.85817 11.9147 8.70059C11.9646 8.54656 12.0145 8.39253 12.0659 8.23383C12.1432 7.99385 12.1432 7.99385 12.2221 7.74902C12.3476 7.35928 12.4735 6.96963 12.5997 6.58008ZM11.4797 12.0401C11.1083 12.9685 10.758 13.8812 10.4559 14.8313C10.4172 14.9484 10.3785 15.0654 10.3386 15.186C10.3028 15.2983 10.267 15.4107 10.2301 15.5264C10.1977 15.6267 10.1654 15.7271 10.132 15.8304C10.0512 16.1291 10.0512 16.1291 10.2197 16.5201C10.5703 16.6907 10.5703 16.6907 10.9197 16.8001C10.9197 16.8925 10.9197 16.9849 10.9197 17.0801C11.3212 17.4303 11.7684 17.7219 12.2059 18.0251C12.3269 18.113 12.4479 18.2009 12.5726 18.2914C12.6904 18.3732 12.8081 18.4549 12.9295 18.5391C13.0372 18.6151 13.145 18.691 13.256 18.7692C13.5818 18.9388 13.5818 18.9388 13.9436 18.8016C14.3857 18.5628 14.7722 18.2676 15.1634 17.9551C15.3238 17.8292 15.4842 17.7035 15.6447 17.5777C15.7221 17.5167 15.7995 17.4556 15.8793 17.3928C16.3202 17.0473 16.7706 16.7147 17.2197 16.3801C17.0184 15.397 16.7426 14.455 16.4322 13.5013C16.2763 13.0191 16.1203 12.5369 15.9597 12.0401C14.4813 12.0401 13.0029 12.0401 11.4797 12.0401Z" fill="#94C518"/>
<path d="M7.98188 22.4002C8.49073 22.6276 8.65025 22.7728 8.96188 23.2402C9.05515 23.8107 9.09417 24.3943 8.81477 24.9137C8.56803 25.2135 8.33077 25.4458 7.98188 25.6202C7.23426 25.6693 6.76883 25.6858 6.16188 25.2002C5.76751 24.8467 5.70365 24.5396 5.67188 24.0277C5.69296 23.318 5.93601 23.022 6.44188 22.5402C6.92437 22.299 7.45327 22.3481 7.98188 22.4002Z" fill="#94C518"/>
<path d="M25.2015 10.5001C25.6005 10.9112 25.6515 11.2761 25.6828 11.8301C25.6665 12.2947 25.6228 12.458 25.3765 12.8714C24.9102 13.2989 24.6635 13.4221 24.029 13.4926C23.4245 13.4301 23.1445 13.2677 22.6815 12.8801C22.3188 12.402 22.3512 11.9237 22.4015 11.3401C22.5406 10.8881 22.659 10.6119 23.0545 10.3399C23.8326 9.97567 24.462 10.0883 25.2015 10.5001Z" fill="#94C518"/>
<path d="M14.5952 2.91378C14.9948 3.2316 15.232 3.4464 15.3073 3.96269C15.3221 4.93898 15.3221 4.93898 14.9977 5.46878C14.4711 5.94899 14.0569 5.91862 13.3675 5.91066C12.9176 5.87098 12.6599 5.7572 12.3202 5.46003C11.9944 5.04107 11.9813 4.58714 11.9959 4.06441C12.0707 3.58459 12.2843 3.29866 12.6002 2.94003C13.2923 2.53935 13.899 2.52551 14.5952 2.91378Z" fill="#94C518"/>
<path d="M4.4791 10.4998C4.87806 10.9108 4.92906 11.2757 4.96035 11.8298C4.94412 12.2943 4.90041 12.4576 4.6541 12.871C4.18776 13.2985 3.94107 13.4218 3.3066 13.4923C2.70208 13.4297 2.42204 13.2673 1.9591 12.8798C1.597 12.4024 1.62799 11.9224 1.6791 11.3398C1.91295 10.8253 2.17593 10.5126 2.6591 10.2198C3.32507 9.98555 3.86436 10.2017 4.4791 10.4998Z" fill="#94C518"/>
<path d="M20.5801 22.4002C21.0106 22.6386 21.337 22.9339 21.5601 23.3802C21.6343 23.9102 21.6764 24.423 21.4185 24.9049C21.1179 25.2768 20.8964 25.4681 20.4401 25.6202C19.7419 25.6719 19.3132 25.6457 18.7601 25.2002C18.3619 24.7196 18.2586 24.2866 18.28 23.6602C18.3886 23.1547 18.6748 22.8968 19.0401 22.5402C19.528 22.2963 20.048 22.3181 20.5801 22.4002Z" fill="#94C518"/>
<path d="M15.6784 5.6001C16.2791 5.80323 16.6993 6.1059 17.1922 6.50135C18.0114 7.15118 18.8609 7.74414 19.7342 8.31885C19.9737 8.47914 20.2068 8.6488 20.4384 8.8201C20.4384 8.9125 20.4384 9.0049 20.4384 9.1001C20.5337 9.13186 20.629 9.16362 20.7272 9.19635C21.2499 9.4299 21.6595 9.73812 22.1184 10.0801C22.0722 10.2649 22.026 10.4497 21.9784 10.6401C21.2861 10.4182 20.7781 10.011 20.2109 9.5726C20.0103 9.41975 19.8096 9.26699 19.6088 9.11432C19.5113 9.03983 19.4137 8.96534 19.3132 8.88859C18.9538 8.61589 18.59 8.34973 18.2247 8.0851C18.1052 7.99847 17.9857 7.91185 17.8627 7.8226C17.6028 7.63531 17.3424 7.44872 17.0817 7.2626C16.8765 7.11534 16.8765 7.11534 16.6672 6.9651C16.5446 6.87775 16.4221 6.7904 16.2959 6.70041C15.9683 6.4477 15.6836 6.1792 15.3984 5.8801C15.4908 5.7877 15.5832 5.6953 15.6784 5.6001Z" fill="#94C518"/>
<path d="M9.80078 23.6602C12.3418 23.6602 14.8828 23.6602 17.5008 23.6602C17.5008 23.845 17.5008 24.0298 17.5008 24.2202C14.9598 24.2202 12.4188 24.2202 9.80078 24.2202C9.80078 24.0354 9.80078 23.8506 9.80078 23.6602Z" fill="#94C518"/>
<path d="M11.4797 5.6001C11.6183 5.6463 11.7569 5.6925 11.8997 5.7401C11.7044 6.32586 11.2828 6.54391 10.7972 6.88635C10.7013 6.95522 10.6055 7.02409 10.5067 7.09505C10.3132 7.234 10.1195 7.37254 9.9254 7.51067C9.58693 7.75196 9.2514 7.99715 8.91594 8.2426C8.73727 8.37199 8.73727 8.37199 8.555 8.504C8.19397 8.76616 7.83404 9.02968 7.47438 9.29369C7.24324 9.46251 7.0121 9.63132 6.78094 9.8001C6.66908 9.88255 6.55722 9.965 6.44198 10.05C6.33709 10.1263 6.23221 10.2027 6.12414 10.2813C6.02983 10.3505 5.93553 10.4196 5.83836 10.4908C5.59969 10.6401 5.59969 10.6401 5.31969 10.6401C5.25039 10.4322 5.25039 10.4322 5.17969 10.2201C7.74332 8.1201 7.74332 8.1201 8.25969 8.1201C8.25969 8.0277 8.25969 7.9353 8.25969 7.8401C8.44976 7.67805 8.44976 7.67805 8.71523 7.50049C8.8602 7.40236 8.8602 7.40236 9.00809 7.30225C9.1105 7.2343 9.21292 7.16635 9.31844 7.09635C9.51701 6.96281 9.71553 6.8292 9.91398 6.69549C10.0118 6.63041 10.1097 6.56533 10.2105 6.49827C10.4933 6.30445 10.7645 6.09922 11.0373 5.89158C11.1833 5.79539 11.3293 5.6992 11.4797 5.6001Z" fill="#94C518"/>
<path d="M3.92188 14C4.10668 14 4.29147 14 4.48188 14C4.51915 14.1161 4.55643 14.2322 4.59484 14.3517C4.73792 14.797 4.88111 15.2422 5.02442 15.6874C5.0884 15.8861 5.15236 16.0849 5.21629 16.2837C5.66088 17.6656 6.11135 19.0452 6.58437 20.4177C6.86188 21.2347 6.86188 21.2347 6.86188 21.7C6.67707 21.7 6.49227 21.7 6.30188 21.7C6.07515 21.0233 5.84872 20.3466 5.62255 19.6697C5.54593 19.4406 5.46924 19.2114 5.39246 18.9823C4.99315 17.7906 4.59702 16.5979 4.21664 15.4C4.18666 15.307 4.15669 15.2139 4.1258 15.1181C4.00301 14.7273 3.92188 14.4127 3.92188 14Z" fill="#94C518"/>
<path d="M22.9581 14C23.0967 14.0462 23.2353 14.0924 23.3781 14.14C23.301 14.9407 23.1421 15.6363 22.8717 16.392C22.8356 16.4959 22.7995 16.5997 22.7623 16.7067C22.6478 17.0357 22.5318 17.3641 22.4156 17.6925C22.301 18.0193 22.1867 18.3461 22.0727 18.6731C21.9993 18.883 21.9256 19.0929 21.8515 19.3025C21.6174 19.9696 21.4153 20.6378 21.2545 21.3268C21.1381 21.56 21.1381 21.56 20.8462 21.6647C20.7135 21.6822 20.7135 21.6822 20.5781 21.7C20.6699 21.0559 20.8289 20.4603 21.026 19.8406C21.0567 19.7439 21.0874 19.6473 21.119 19.5477C21.4791 18.4182 21.855 17.294 22.2319 16.17C22.3029 15.9576 22.3739 15.7453 22.4449 15.5329C22.6157 15.0219 22.7869 14.5109 22.9581 14Z" fill="#94C518"/>
<path d="M13.0216 19.1802C13.114 19.1802 13.2064 19.1802 13.3016 19.1802C13.2409 19.2971 13.2409 19.2971 13.1791 19.4164C13.0122 19.7319 13.0122 19.7319 12.939 20.0623C12.6453 20.6244 12.1898 20.8725 11.6653 21.2102C11.4693 21.3399 11.2733 21.4697 11.0774 21.5996C10.9336 21.6935 10.9336 21.6935 10.7868 21.7893C10.5041 21.9785 10.2303 22.1767 9.95633 22.3783C9.52156 22.6802 9.52156 22.6802 9.24156 22.6802C9.19536 22.5416 9.14916 22.403 9.10156 22.2602C10.1381 21.4509 11.1829 20.6602 12.2645 19.9117C12.7142 19.6119 12.7142 19.6119 13.0216 19.1802Z" fill="#94C518"/>
<path d="M11.4794 5.6001C11.618 5.6463 11.7566 5.6925 11.8994 5.7401C11.7299 6.24857 11.5442 6.36015 11.1206 6.67635C11.0049 6.76351 10.8893 6.85068 10.7701 6.94049C10.6807 7.00636 10.5914 7.07223 10.4994 7.1401C10.4532 7.0015 10.407 6.8629 10.3594 6.7201C10.6381 6.24007 11.022 5.90885 11.4794 5.6001Z" fill="#94C518"/>
<path d="M22.6817 15.54C22.7279 15.54 22.7741 15.54 22.8217 15.54C22.8217 15.8172 22.8217 16.0944 22.8217 16.38C22.6369 16.4262 22.4521 16.4724 22.2617 16.52C22.3667 15.855 22.3667 15.855 22.6817 15.54Z" fill="#94C518"/>
</svg>
