<svg width="28" height="28" viewBox="0 0 28 28" fill="none" xmlns="http://www.w3.org/2000/svg">
<g clip-path="url(#clip0_6741_51901)">
<path d="M17.3604 13.0713L11.7531 14.9023L6.87477 17.0553L5.51 17.4156C5.16241 17.7463 4.79797 18.0811 4.40379 18.4202C3.97149 18.7931 3.56885 19.1322 3.2594 19.378C2.91612 19.6493 2.40751 20.1579 2.14899 20.4799C1.76328 20.9631 1.45813 21.4759 1.32673 21.8701C1.0936 22.5822 1.2081 23.3027 1.65735 23.9682C2.23376 24.8158 3.38237 25.6804 4.72165 26.2695C5.40406 26.5705 6.55264 26.9562 7.41723 27.1723C8.854 27.5368 11.6344 27.931 13.1644 27.9904C13.4737 28.0031 13.8891 28.0031 13.9061 27.9904C13.94 27.9691 14.1774 27.5157 14.4529 26.952C15.3938 25.032 16.0719 23.2307 16.4406 21.6922C16.661 20.7598 16.8348 19.5179 16.9492 18.0473C16.9789 17.6361 16.9916 16.2587 16.9661 15.7924C16.928 15.0295 16.8601 14.4108 16.7543 13.8047C16.7373 13.7156 16.733 13.6351 16.7415 13.6309C16.7584 13.6182 16.8093 13.6012 17.5001 13.402L17.3603 13.0714V13.0713H17.3604V13.0713ZM16.0804 13.8215C16.1313 13.8215 16.2669 15.1227 16.3008 15.945C16.3093 16.1187 16.305 16.2332 16.2966 16.2332C16.2627 16.2332 15.5803 15.8306 15.0929 15.5254C14.6691 15.2584 13.8638 14.7243 13.7367 14.6226C13.6942 14.593 13.6984 14.5887 14.046 14.47C14.6351 14.2708 16.0338 13.8215 16.0804 13.8215ZM13.2238 14.7625C13.262 14.7625 13.3594 14.8175 13.5925 14.9616C14.4656 15.5084 15.6524 16.1696 16.161 16.39C16.3177 16.4578 16.3346 16.4324 15.9745 16.6782C15.2031 17.2038 14.2409 17.7208 13.0626 18.2421C12.855 18.3354 12.6813 18.4074 12.677 18.4074C12.6686 18.4074 12.6939 18.3015 12.7278 18.1743C13.0118 17.1189 13.1729 16.0509 13.1814 15.1947C13.1856 14.7709 13.1856 14.7709 13.2238 14.7582C13.2153 14.7625 13.2195 14.7625 13.2238 14.7625ZM12.6347 14.9871C12.66 15.0125 12.6431 15.9619 12.6092 16.2204C12.5329 16.8392 12.4142 17.4156 12.2193 18.0641C12.1727 18.2209 12.1303 18.3523 12.1219 18.3608C12.1048 18.3819 11.5242 17.814 11.3335 17.5936C11.0028 17.2122 10.7444 16.8307 10.5536 16.4578C10.4561 16.267 10.3036 15.8941 10.3163 15.8814C10.3841 15.8347 12.6177 14.9701 12.6347 14.9871ZM9.86275 16.0763C9.86697 16.0763 9.87119 16.0763 9.87549 16.0805C9.88394 16.089 9.91366 16.1569 9.93909 16.2331C10.0747 16.6019 10.3798 17.1444 10.6426 17.4919C10.9308 17.8734 11.3081 18.2802 11.6216 18.5473C11.7234 18.632 11.8166 18.7125 11.8293 18.7253C11.8548 18.7507 11.8632 18.7464 11.1724 19.0092C10.3714 19.3144 9.49824 19.6195 8.49797 19.9416C8.25903 20.0187 8.0203 20.0964 7.7818 20.1748C7.74359 20.1875 7.75633 20.1663 7.86653 19.9926C8.36239 19.2169 9.11679 17.6954 9.54066 16.6188C9.61272 16.4323 9.68476 16.2459 9.6975 16.2035C9.71446 16.1441 9.73561 16.1229 9.79069 16.0932C9.82036 16.0848 9.85007 16.0763 9.86275 16.0763ZM9.01516 16.4281C9.02784 16.4366 8.81168 16.8901 8.59976 17.3054C8.18862 18.1065 7.73937 18.8949 7.13753 19.8527C7.03582 20.018 6.93837 20.1706 6.92563 20.1875C6.90446 20.2172 6.89594 20.2087 6.82814 20.0773C6.68404 19.7934 6.56533 19.4288 6.50177 19.094C6.43817 18.7634 6.45091 18.187 6.52299 17.831C6.57803 17.5682 6.57385 17.5725 6.70098 17.5089C7.24348 17.2334 8.99819 16.4111 9.01516 16.4281ZM16.3263 16.7248V16.9028C16.3263 17.848 16.2245 19.1449 16.0761 20.0901C16.0507 20.2554 16.0295 20.3909 16.0253 20.3952C16.0253 20.3952 15.9024 20.3614 15.7583 20.3189C15.1226 20.1197 14.4317 19.8272 13.8086 19.484C13.3975 19.2594 12.7999 18.8906 12.8169 18.8736C12.8211 18.8694 12.9991 18.7762 13.2067 18.6659C14.0376 18.2337 14.8343 17.7674 15.5252 17.3055C15.7837 17.1317 16.1736 16.852 16.2584 16.7757L16.3263 16.7248ZM5.81514 17.9793C5.83209 17.9793 5.82785 18.0132 5.80242 18.1658C5.78546 18.276 5.76429 18.4795 5.75587 18.6193C5.72188 19.2381 5.82367 19.6958 6.12882 20.3231C6.21358 20.4969 6.28144 20.641 6.27714 20.6452C6.24745 20.6707 3.44173 21.4929 2.56009 21.7345C2.29734 21.8065 2.06851 21.8701 2.05147 21.8743C2.02186 21.8828 2.01759 21.8786 2.0303 21.8065C2.12777 21.1835 2.60249 20.3697 3.26364 19.6831C3.70445 19.2254 4.05625 18.9584 4.65809 18.615C5.09039 18.3692 5.75581 18.0005 5.80666 17.9835C5.8067 17.9793 5.81092 17.9793 5.81514 17.9793ZM12.427 19.1618C12.4312 19.1576 12.5329 19.2127 12.6558 19.2847C13.5628 19.8103 14.8258 20.2977 15.9023 20.5478L15.9999 20.569L15.8642 20.6452C15.3005 20.9589 13.4484 21.7302 11.5539 22.4381C11.2783 22.5397 11.0071 22.6415 10.9562 22.6627C10.9053 22.6838 10.8587 22.6966 10.8587 22.6923C10.8587 22.688 10.935 22.5397 11.0325 22.3575C11.5622 21.3657 12.0963 20.1578 12.3676 19.3186C12.4016 19.2381 12.4227 19.1661 12.427 19.1618ZM11.7531 19.3822C11.7574 19.3865 11.7234 19.4755 11.681 19.5772C11.3123 20.4715 10.8291 21.4463 10.2103 22.5398C10.0535 22.8196 9.92211 23.0442 9.91781 23.0442C9.91364 23.0442 9.78645 22.9679 9.63388 22.8746C8.7353 22.3236 7.93853 21.6455 7.41725 20.9886L7.34093 20.8953L7.72659 20.7893C9.10831 20.4122 10.2823 20.0053 11.4479 19.5052C11.6132 19.4374 11.7489 19.3822 11.7531 19.3822ZM15.9406 20.8444C15.9448 20.9419 15.7286 21.815 15.5506 22.4465C15.4023 22.9763 15.2751 23.3917 15.042 24.1249C14.9403 24.4471 14.8513 24.714 14.847 24.714C14.8428 24.714 14.8174 24.7098 14.792 24.7014C13.5332 24.4724 12.4058 24.1546 11.3462 23.7307C11.0495 23.612 10.6257 23.4213 10.6002 23.4001C10.5918 23.3916 10.8461 23.273 11.1682 23.1331C13.0967 22.2897 15.0971 21.3318 15.7837 20.9207C15.8642 20.8699 15.9278 20.8444 15.9406 20.8444ZM6.27292 21.1751C6.2814 21.1835 5.74312 21.9591 4.98866 23.0145C4.72591 23.3832 4.42076 23.8155 4.30634 23.9766C4.19189 24.1376 4.01814 24.3919 3.92065 24.5445L3.74256 24.82L3.55182 24.659C3.32718 24.4724 2.9373 24.0741 2.76353 23.8537C2.39901 23.4002 2.15323 22.9213 2.05575 22.4848C2.00911 22.2813 2.00911 22.1795 2.05144 22.1669C2.115 22.1499 3.24665 21.8829 4.3063 21.637C4.89544 21.5014 5.57776 21.3404 5.82359 21.2811C6.06944 21.2216 6.2687 21.1751 6.27292 21.1751ZM6.8154 21.3827L6.95098 21.5353C7.56137 22.2177 8.1844 22.7221 8.93882 23.1628C9.07448 23.2392 9.17617 23.3069 9.16765 23.3112C9.13806 23.3324 6.54836 24.252 5.34893 24.6674C4.67507 24.9048 4.11981 25.0955 4.11563 25.0955C4.1114 25.0955 4.07323 25.0701 4.03078 25.0404L3.95454 24.9853L4.07744 24.8073C4.47581 24.2309 4.97602 23.5994 6.06526 22.2855L6.8154 21.3827ZM10.1976 23.8028C10.2018 23.7986 10.3883 23.8663 10.6172 23.9512C11.1682 24.1589 11.6047 24.2902 12.1896 24.4386C12.9102 24.6208 13.9528 24.7989 14.5674 24.8497C14.6606 24.8581 14.7115 24.8667 14.6945 24.8794C14.6648 24.8963 14.0418 25.104 13.5841 25.2481C12.855 25.477 10.6299 26.1339 8.81592 26.6552C8.48109 26.7527 8.19286 26.8333 8.17592 26.8375C8.13358 26.846 7.99366 26.8078 7.99366 26.7908C7.99366 26.7824 8.09537 26.651 8.21831 26.5069C8.82859 25.7779 9.43472 24.9641 9.93909 24.1928C10.0789 23.9808 10.1976 23.807 10.1976 23.8028ZM9.45163 23.824C9.45585 23.8283 9.15496 24.3114 8.62947 25.1421C8.40478 25.4939 8.15471 25.8923 8.06568 26.0322C7.98092 26.1678 7.85378 26.3797 7.78176 26.4984L7.65882 26.7146L7.59527 26.6976C7.44264 26.6552 6.37037 26.278 6.08638 26.1635C5.73458 26.0237 5.3701 25.8542 5.09882 25.7101C4.7598 25.5278 4.33599 25.2565 4.36986 25.2481C4.37833 25.2439 4.95899 25.087 5.65828 24.8963C7.5147 24.3919 8.54458 24.0995 9.21854 23.8876C9.34148 23.8494 9.44741 23.8197 9.45163 23.824ZM14.7284 25.0616H14.7326C14.7496 25.104 14.063 27.0112 13.8128 27.613C13.7578 27.7487 13.7367 27.7826 13.707 27.7783C13.6349 27.7742 12.6389 27.6343 12.0328 27.5452C10.9775 27.3842 9.20582 27.0747 8.76083 26.9731L8.65912 26.9519L9.29054 26.8077C10.6469 26.5026 11.2995 26.3373 11.9607 26.1339C12.7957 25.8796 13.6222 25.5617 14.4571 25.1718C14.5885 25.1124 14.6987 25.0658 14.7284 25.0616Z" fill="url(#paint0_linear_6741_51901)"/>
<path d="M11.5792 0.000217082C11.4859 -0.0124283 9.98125 0.530071 9.0107 0.924187C7.70102 1.45828 6.68388 1.96691 6.05658 2.4076C5.82351 2.57297 5.53101 2.86538 5.48445 2.97979C5.46751 3.02218 5.45898 3.07304 5.45898 3.12389L6.02695 3.66217L7.37895 4.09447L10.5959 4.6709L14.2747 5.30243L14.3129 4.98455C14.3002 4.98455 14.2917 4.98033 14.2791 4.98033L13.7958 4.90401L13.6984 4.73026C13.1982 3.84866 12.6472 2.75516 12.3251 2.01769C12.0751 1.4455 11.8377 0.784385 11.7063 0.309666C11.6343 0.0214619 11.6258 0.00451685 11.5793 0.000295218V0.000197399H11.5792V0.000217082ZM11.5113 0.216439H11.5156C11.5198 0.220621 11.5367 0.339374 11.5537 0.479157C11.6257 1.07261 11.7572 1.6447 11.9648 2.26352C12.1216 2.72975 12.1216 2.70435 11.9394 2.64921C11.5071 2.53058 9.57021 2.19574 8.16732 2.00078C7.94267 1.97109 7.75194 1.94144 7.75194 1.93722C7.73499 1.92028 8.76487 1.38196 9.21838 1.1701C9.79903 0.90302 11.3926 0.237606 11.5113 0.216439ZM7.42552 2.11519L7.59089 2.17023C8.48935 2.47544 10.7483 2.90777 11.9945 3.00948C12.1343 3.0222 12.253 3.03494 12.2572 3.03494C12.2614 3.03917 12.1428 3.10274 11.9902 3.17477C11.3884 3.47569 10.7272 3.84444 10.2695 4.12842C10.1339 4.21315 10.0109 4.28101 9.99399 4.28101C9.97703 4.28101 9.88806 4.26404 9.79481 4.25132L9.62528 4.22585L9.2015 3.81047C8.45554 3.08576 7.87063 2.52632 7.64598 2.31435L7.42552 2.11519ZM7.25605 2.24655L7.85365 2.99253C8.17996 3.40365 8.51056 3.80627 8.58268 3.89524C8.65466 3.9843 8.71404 4.05638 8.70982 4.0606C8.69285 4.07331 7.84524 3.90798 7.39591 3.80631C6.93394 3.70032 6.74322 3.64946 6.45926 3.5605L6.22613 3.48418V3.4248C6.23035 3.14082 6.59065 2.71701 7.20095 2.28474L7.25605 2.24655ZM12.3336 3.26377C12.3505 3.26377 12.3717 3.3019 12.4225 3.41634C12.5666 3.73419 13.016 4.59038 13.1261 4.75565C13.1601 4.8108 13.2193 4.81503 12.6218 4.71754C11.185 4.48437 10.723 4.40817 10.723 4.39968C10.723 4.39546 10.7654 4.36577 10.8205 4.33609C11.2655 4.09031 11.7148 3.77664 12.1132 3.4418C12.2107 3.36126 12.2997 3.28498 12.3166 3.27223C12.3208 3.26377 12.3293 3.25955 12.3336 3.26377Z" fill="url(#paint1_linear_6741_51901)"/>
<path d="M5.51389 2.91992C5.51389 2.91992 5.4207 3.06832 5.50968 3.28873C5.56484 3.42431 5.72587 3.58958 5.90808 3.75915C5.90808 3.75915 7.79413 5.59857 8.02302 5.86138C9.06561 7.06503 9.51914 8.25178 9.56153 9.8878C9.58696 10.9389 9.3877 11.8629 8.89186 12.9352C8.01028 14.8594 6.14961 16.9828 3.28027 19.3393L3.69993 19.1995C3.97117 18.996 4.33992 18.7799 5.20452 18.3052C7.20074 17.2116 9.44708 16.2071 12.202 15.173C16.169 13.6811 22.6919 11.9348 26.4046 11.367L26.7904 11.3076L26.731 11.2143C26.392 10.6888 26.1588 10.3625 25.879 10.0149C25.0653 9.00618 24.0779 8.18822 22.8699 7.51006C21.2084 6.58191 19.0595 5.85716 16.3386 5.31888C15.8258 5.21711 14.6984 5.02218 13.7829 4.88232C11.8417 4.58147 10.5872 4.37375 9.20549 4.1364C8.70964 4.05159 7.96787 3.92447 7.47622 3.81854C7.22193 3.76339 6.73456 3.64897 6.35311 3.51759C6.04796 3.39886 5.60713 3.28019 5.51389 2.91992ZM6.60745 3.97955C6.61163 3.97537 6.67943 4.00072 6.76849 4.03041C6.92954 4.08544 7.1372 4.14904 7.38309 4.2169C7.56911 4.26807 7.7556 4.31751 7.94254 4.36522C8.19683 4.42876 8.40871 4.48812 8.41293 4.48812C8.44266 4.51781 8.87075 5.88669 9.01485 6.41227C9.06987 6.61152 9.11234 6.78101 9.1081 6.78101C9.10374 6.78531 9.05718 6.71321 9.00211 6.61574C8.5062 5.74263 7.72211 4.85683 6.81509 4.14476C6.69647 4.06007 6.60745 3.98377 6.60745 3.97955ZM8.6927 4.55596C8.7139 4.55596 8.80715 4.56868 8.92152 4.59409C9.64205 4.75514 10.9348 5.00097 11.7612 5.14085C11.9011 5.16202 12.0113 5.1875 12.0113 5.19593C12.0113 5.20445 11.9604 5.23406 11.8968 5.26801C11.757 5.34003 11.1933 5.67483 11.0068 5.80201C10.5363 6.11564 10.1126 6.4547 9.80736 6.75985C9.68447 6.88278 9.57846 6.98449 9.57846 6.98449C9.57846 6.98449 9.55311 6.91247 9.53182 6.8234C9.37934 6.23427 9.0614 5.36116 8.7732 4.74664C8.72657 4.64919 8.6884 4.56016 8.6884 4.55172C8.6884 4.56018 8.6884 4.55596 8.6927 4.55596ZM12.3631 5.25528C12.3885 5.26373 12.4309 5.40785 12.5156 5.7257C12.6725 6.3403 12.7445 7.0269 12.7191 7.66689C12.7106 7.8449 12.7021 8.01017 12.6936 8.03142L12.6809 8.07375L12.4606 8.00173C12.007 7.85763 11.2696 7.64142 10.6381 7.46345C10.2778 7.36596 9.98543 7.27696 9.98543 7.26849C9.98543 7.24303 10.511 6.71749 10.7356 6.51831C11.1636 6.14105 12.3249 5.24254 12.3631 5.25528ZM12.6555 5.29762C12.6683 5.28497 14.4102 5.58582 15.2028 5.73843C15.792 5.85284 16.6481 6.03087 16.6989 6.0521C16.7243 6.06054 16.6353 6.1114 16.3513 6.23853C15.2324 6.74294 14.4017 7.19637 13.5753 7.74741C13.3591 7.89152 13.1768 8.01017 13.1726 8.01017C13.1684 8.01017 13.1642 7.88729 13.1642 7.73893C13.1642 6.93368 13.0031 6.1199 12.7064 5.4333C12.6767 5.36548 12.6513 5.30192 12.6555 5.29762ZM17.1609 6.18772C17.1736 6.20042 17.1185 6.54376 17.0676 6.74716C16.915 7.37869 16.5039 8.31542 15.9996 9.19694C15.9105 9.35376 15.83 9.48092 15.8215 9.48514C15.8131 9.48936 15.6987 9.42577 15.5672 9.34948C15.0756 9.06128 14.5162 8.79004 13.9058 8.53571C13.7364 8.46368 13.588 8.40431 13.5837 8.3959C13.554 8.37044 14.9188 7.46767 15.6393 7.03537C16.2115 6.68784 17.1439 6.17073 17.1609 6.18772ZM17.4829 6.23855C17.5211 6.23855 18.2925 6.45049 18.6951 6.56917C19.6911 6.86588 20.8355 7.28544 21.5814 7.6245L21.8908 7.76442L21.6747 7.81523C19.8522 8.2348 18.2925 8.71804 16.7879 9.32834C16.665 9.37919 16.5547 9.42158 16.5464 9.42158C16.5378 9.42158 16.5802 9.32411 16.6353 9.2054C17.0888 8.24332 17.3813 7.23882 17.4533 6.38264C17.4576 6.30209 17.4702 6.23855 17.4829 6.23855ZM9.80314 8.00173C9.81583 7.98899 10.405 8.12889 10.7229 8.21781C11.206 8.35349 12.2317 8.69675 12.2317 8.72222C12.2317 8.72644 12.1173 8.82393 11.9817 8.94264C11.4265 9.40462 10.8924 9.89196 10.2524 10.5108C10.0616 10.6931 9.90061 10.8414 9.89217 10.8414C9.88365 10.8414 9.87948 10.8159 9.88365 10.782C9.98111 10.07 9.95999 9.15453 9.82435 8.22633C9.81158 8.10762 9.7989 8.00595 9.80314 8.00173ZM22.1833 8.01447C22.1917 8.0229 21.912 8.46368 21.734 8.71372C21.4798 9.0782 21.1067 9.56146 20.2633 10.621C19.8183 11.1804 19.3181 11.812 19.1529 12.0239C18.9833 12.2358 18.8435 12.4138 18.8392 12.4138C18.835 12.4138 18.7799 12.3375 18.7206 12.2443C18.2459 11.5322 17.6779 10.9092 17.004 10.3498C16.8769 10.2438 16.7371 10.1293 16.6904 10.0954C16.6438 10.0615 16.6056 10.0276 16.6056 10.0234C16.6056 10.0107 17.3261 9.70125 17.8729 9.4809C18.8308 9.09095 20.136 8.62475 21.1152 8.3238C21.628 8.16278 22.1748 8.00595 22.1833 8.01447ZM22.5096 8.09918C22.5265 8.09498 22.6283 8.14583 22.7512 8.21781C23.7812 8.80695 24.7898 9.56565 25.5867 10.3455C25.8113 10.5659 26.3665 11.1423 26.358 11.1466C26.358 11.1466 26.1631 11.1635 25.9342 11.1804C24.1499 11.3161 21.8655 11.6933 19.67 12.223C19.5216 12.2569 19.3903 12.2866 19.3818 12.2866C19.3734 12.2866 19.5386 12.1213 19.7463 11.9222C21.0347 10.6803 21.6239 9.89624 22.3189 8.49756C22.4164 8.28993 22.5012 8.11192 22.5096 8.09918C22.5054 8.09918 22.5054 8.09918 22.5096 8.09918ZM13.0709 9.06558C13.1302 9.07822 13.6812 9.33686 14.0966 9.54448C14.478 9.73514 15.0502 10.0404 15.0799 10.0658C15.0841 10.07 14.8806 10.1759 14.6307 10.2989C13.8338 10.6973 13.1514 11.0744 12.4394 11.5068C12.2359 11.6297 12.0664 11.7315 12.0622 11.7315C12.0452 11.7315 12.0494 11.7144 12.1639 11.5068C12.5454 10.8118 12.8505 9.98103 13.0243 9.17147C13.0412 9.10791 13.0582 9.06558 13.0709 9.06558ZM12.5199 9.16725C12.5326 9.17999 12.3885 9.70127 12.2995 9.98525C12.1257 10.5235 11.8333 11.1974 11.5494 11.706C11.4815 11.8246 11.3798 11.9984 11.3247 12.0959L11.2187 12.2654L10.9814 12.0366C10.7059 11.7696 10.4812 11.6043 10.1931 11.4559C10.0786 11.3966 9.98962 11.3457 9.98962 11.3373C9.98962 11.3034 10.7144 10.6464 11.2696 10.1717C11.668 9.82842 12.5072 9.15455 12.5199 9.16725ZM15.8894 10.5532L16.0971 10.6888C16.5717 10.9982 17.1311 11.4093 17.5593 11.7696C17.8008 11.9687 18.267 12.3884 18.3603 12.4901L18.4111 12.5453L18.0679 12.6427C16.1267 13.1809 14.6264 13.6599 12.8759 14.3041C12.6809 14.3762 12.5156 14.4355 12.5029 14.4355C12.4775 14.4355 12.4563 14.4567 12.8929 14.054C14.0118 13.0242 15.0035 11.8882 15.741 10.782L15.8894 10.5532ZM15.0036 10.7736C15.012 10.782 14.4314 11.6 14.0838 12.062C13.6685 12.613 12.931 13.537 12.4224 14.1387C12.2105 14.3889 12.0283 14.5965 12.0198 14.6008C12.007 14.605 12.0028 14.5414 12.0028 14.444C12.0028 13.9311 11.8715 13.3843 11.6426 12.9181C11.5451 12.7232 11.5281 12.6766 11.5494 12.6554C11.6299 12.5833 12.8632 11.8797 13.643 11.4602C14.1686 11.1805 14.9908 10.7651 15.0036 10.7736ZM9.64628 12.0875C9.65902 12.0875 9.75651 12.1383 9.86672 12.1977C10.138 12.346 10.3796 12.5113 10.5957 12.6893C10.6041 12.6978 10.494 12.7868 10.3499 12.8927C9.94722 13.1809 9.33692 13.6429 8.98096 13.9269C8.60789 14.2236 8.59527 14.2321 8.6376 14.1685C8.91736 13.7404 9.05716 13.4988 9.20556 13.1895C9.33692 12.914 9.46828 12.5876 9.56153 12.3036C9.59542 12.1807 9.63783 12.0875 9.64628 12.0875ZM11.0747 13.2064C11.0958 13.2022 11.1213 13.2403 11.2357 13.4099C11.4773 13.77 11.6637 14.2533 11.7104 14.6432L11.7188 14.728L11.1383 14.9526C10.0998 15.3552 9.14199 15.7537 8.49344 16.0503C8.31124 16.1351 7.99335 16.2877 7.78571 16.3894C7.57801 16.4953 7.40848 16.5759 7.40848 16.5717C7.40848 16.5674 7.53984 16.4699 7.70089 16.3512C8.96824 15.4316 10.0659 14.4228 10.8881 13.4141C10.9772 13.3081 11.0577 13.2106 11.0661 13.2064L11.0747 13.2064ZM10.4177 13.3675C10.4347 13.3844 9.95152 13.9311 9.62093 14.2659C8.80293 15.1009 7.99339 15.7537 6.98888 16.3894C6.86174 16.4699 6.74733 16.542 6.73458 16.5505C6.70489 16.5674 6.74303 16.525 7.18384 16.0461C7.4636 15.7452 7.67548 15.4909 7.91707 15.1773C8.07812 14.9696 8.1078 14.9399 8.34095 14.7746C8.96399 14.3253 10.4008 13.3505 10.4177 13.3675Z" fill="url(#paint2_radial_6741_51901)"/>
</g>
<defs>
<linearGradient id="paint0_linear_6741_51901" x1="5.4276" y1="25.2302" x2="7.45521" y2="24.0321" gradientUnits="userSpaceOnUse">
<stop stop-color="#134FA9"/>
<stop offset="1" stop-color="#0F3C7F"/>
</linearGradient>
<linearGradient id="paint1_linear_6741_51901" x1="5.47385" y1="2.64303" x2="7.10532" y2="2.64303" gradientUnits="userSpaceOnUse">
<stop stop-color="#0F3C7F"/>
<stop offset="1" stop-color="#134FA9"/>
</linearGradient>
<radialGradient id="paint2_radial_6741_51901" cx="0" cy="0" r="1" gradientUnits="userSpaceOnUse" gradientTransform="translate(13.7061 10.1249) rotate(-171.457) scale(2.10341 4.20787)">
<stop stop-color="#438EFE"/>
<stop offset="1" stop-color="#1D77FE"/>
</radialGradient>
<clipPath id="clip0_6741_51901">
<rect width="28" height="28" fill="white"/>
</clipPath>
</defs>
</svg>
