<svg width="28" height="28" viewBox="0 0 28 28" fill="none" xmlns="http://www.w3.org/2000/svg">
<g clip-path="url(#clip0_8301_184368)">
<path d="M17.3624 13.0713L11.755 14.9023L6.87673 17.0553L5.51195 17.4156C5.16437 17.7463 4.79992 18.0811 4.40575 18.4202C3.97344 18.7931 3.5708 19.1322 3.26135 19.378C2.91807 19.6493 2.40946 20.1579 2.15095 20.4799C1.76523 20.9631 1.46008 21.4759 1.32869 21.8701C1.09556 22.5822 1.21005 23.3027 1.6593 23.9682C2.23571 24.8158 3.38433 25.6804 4.7236 26.2695C5.40602 26.5705 6.55459 26.9562 7.41919 27.1723C8.85595 27.5368 11.6363 27.931 13.1663 27.9904C13.4757 28.0031 13.8911 28.0031 13.908 27.9904C13.942 27.9691 14.1793 27.5157 14.4548 26.952C15.3958 25.032 16.0739 23.2307 16.4426 21.6922C16.663 20.7598 16.8367 19.5179 16.9511 18.0473C16.9808 17.6361 16.9935 16.2587 16.9681 15.7924C16.9299 15.0295 16.8621 14.4108 16.7562 13.8047C16.7393 13.7156 16.735 13.6351 16.7435 13.6309C16.7604 13.6182 16.8112 13.6012 17.5021 13.402L17.3623 13.0714V13.0713H17.3624V13.0713ZM16.0824 13.8215C16.1333 13.8215 16.2688 15.1227 16.3027 15.945C16.3112 16.1187 16.3069 16.2332 16.2985 16.2332C16.2646 16.2332 15.5822 15.8306 15.0949 15.5254C14.671 15.2584 13.8658 14.7243 13.7386 14.6226C13.6962 14.593 13.7004 14.5887 14.048 14.47C14.6371 14.2708 16.0358 13.8215 16.0824 13.8215ZM13.2257 14.7625C13.2639 14.7625 13.3613 14.8175 13.5945 14.9616C14.4675 15.5084 15.6543 16.1696 16.1629 16.39C16.3197 16.4578 16.3366 16.4324 15.9764 16.6782C15.205 17.2038 14.2429 17.7208 13.0646 18.2421C12.857 18.3354 12.6832 18.4074 12.679 18.4074C12.6705 18.4074 12.6959 18.3015 12.7298 18.1743C13.0137 17.1189 13.1748 16.0509 13.1834 15.1947C13.1876 14.7709 13.1876 14.7709 13.2257 14.7582C13.2172 14.7625 13.2214 14.7625 13.2257 14.7625ZM12.6366 14.9871C12.662 15.0125 12.6451 15.9619 12.6111 16.2204C12.5349 16.8392 12.4162 17.4156 12.2213 18.0641C12.1747 18.2209 12.1322 18.3523 12.1238 18.3608C12.1068 18.3819 11.5261 17.814 11.3354 17.5936C11.0048 17.2122 10.7463 16.8307 10.5556 16.4578C10.4581 16.267 10.3056 15.8941 10.3182 15.8814C10.386 15.8347 12.6197 14.9701 12.6366 14.9871ZM9.8647 16.0763C9.86893 16.0763 9.87315 16.0763 9.87745 16.0805C9.88589 16.089 9.91562 16.1569 9.94104 16.2331C10.0766 16.6019 10.3817 17.1444 10.6446 17.4919C10.9328 17.8734 11.31 18.2802 11.6236 18.5473C11.7254 18.632 11.8186 18.7125 11.8312 18.7253C11.8567 18.7507 11.8652 18.7464 11.1743 19.0092C10.3734 19.3144 9.5002 19.6195 8.49992 19.9416C8.26098 20.0187 8.02226 20.0964 7.78375 20.1748C7.74554 20.1875 7.75829 20.1663 7.86848 19.9926C8.36434 19.2169 9.11874 17.6954 9.54261 16.6188C9.61467 16.4323 9.68671 16.2459 9.69945 16.2035C9.71642 16.1441 9.73757 16.1229 9.79264 16.0932C9.82231 16.0848 9.85202 16.0763 9.8647 16.0763ZM9.01711 16.4281C9.0298 16.4366 8.81363 16.8901 8.60171 17.3054C8.19057 18.1065 7.74132 18.8949 7.13948 19.8527C7.03778 20.018 6.94032 20.1706 6.92758 20.1875C6.90641 20.2172 6.89789 20.2087 6.83009 20.0773C6.68599 19.7934 6.56728 19.4288 6.50372 19.094C6.44012 18.7634 6.45286 18.187 6.52494 17.831C6.57998 17.5682 6.5758 17.5725 6.70294 17.5089C7.24544 17.2334 9.00015 16.4111 9.01711 16.4281ZM16.3282 16.7248V16.9028C16.3282 17.848 16.2265 19.1449 16.0781 20.0901C16.0527 20.2554 16.0314 20.3909 16.0272 20.3952C16.0272 20.3952 15.9044 20.3614 15.7602 20.3189C15.1245 20.1197 14.4337 19.8272 13.8106 19.484C13.3994 19.2594 12.8019 18.8906 12.8188 18.8736C12.823 18.8694 13.0011 18.7762 13.2087 18.6659C14.0395 18.2337 14.8363 17.7674 15.5271 17.3055C15.7857 17.1317 16.1755 16.852 16.2604 16.7757L16.3282 16.7248ZM5.8171 17.9793C5.83404 17.9793 5.8298 18.0132 5.80437 18.1658C5.78741 18.276 5.76624 18.4795 5.75782 18.6193C5.72383 19.2381 5.82562 19.6958 6.13077 20.3231C6.21553 20.4969 6.28339 20.641 6.27909 20.6452C6.2494 20.6707 3.44368 21.4929 2.56205 21.7345C2.29929 21.8065 2.07046 21.8701 2.05342 21.8743C2.02381 21.8828 2.01955 21.8786 2.03225 21.8065C2.12972 21.1835 2.60444 20.3697 3.26559 19.6831C3.7064 19.2254 4.0582 18.9584 4.66004 18.615C5.09235 18.3692 5.75776 18.0005 5.80862 17.9835C5.80866 17.9793 5.81288 17.9793 5.8171 17.9793ZM12.4289 19.1618C12.4332 19.1576 12.5349 19.2127 12.6578 19.2847C13.5648 19.8103 14.8278 20.2977 15.9043 20.5478L16.0018 20.569L15.8662 20.6452C15.3025 20.9589 13.4503 21.7302 11.5558 22.4381C11.2803 22.5397 11.0091 22.6415 10.9581 22.6627C10.9073 22.6838 10.8607 22.6966 10.8607 22.6923C10.8607 22.688 10.937 22.5397 11.0344 22.3575C11.5642 21.3657 12.0983 20.1578 12.3695 19.3186C12.4035 19.2381 12.4246 19.1661 12.4289 19.1618ZM11.755 19.3822C11.7593 19.3865 11.7254 19.4755 11.683 19.5772C11.3143 20.4715 10.831 21.4463 10.2123 22.5398C10.0555 22.8196 9.92406 23.0442 9.91976 23.0442C9.9156 23.0442 9.7884 22.9679 9.63584 22.8746C8.73725 22.3236 7.94048 21.6455 7.41921 20.9886L7.34289 20.8953L7.72854 20.7893C9.11026 20.4122 10.2842 20.0053 11.4498 19.5052C11.6152 19.4374 11.7508 19.3822 11.755 19.3822ZM15.9425 20.8444C15.9467 20.9419 15.7306 21.815 15.5525 22.4465C15.4042 22.9763 15.277 23.3917 15.044 24.1249C14.9422 24.4471 14.8533 24.714 14.849 24.714C14.8448 24.714 14.8194 24.7098 14.7939 24.7014C13.5352 24.4724 12.4077 24.1546 11.3482 23.7307C11.0514 23.612 10.6276 23.4213 10.6022 23.4001C10.5938 23.3916 10.8481 23.273 11.1702 23.1331C13.0986 22.2897 15.0991 21.3318 15.7857 20.9207C15.8662 20.8699 15.9298 20.8444 15.9425 20.8444ZM6.27487 21.1751C6.28335 21.1835 5.74508 21.9591 4.99062 23.0145C4.72786 23.3832 4.42271 23.8155 4.3083 23.9766C4.19384 24.1376 4.02009 24.3919 3.9226 24.5445L3.74451 24.82L3.55378 24.659C3.32913 24.4724 2.93926 24.0741 2.76549 23.8537C2.40096 23.4002 2.15519 22.9213 2.0577 22.4848C2.01107 22.2813 2.01106 22.1795 2.0534 22.1669C2.11696 22.1499 3.24861 21.8829 4.30826 21.637C4.89739 21.5014 5.57971 21.3404 5.82554 21.2811C6.07139 21.2216 6.27065 21.1751 6.27487 21.1751ZM6.81735 21.3827L6.95293 21.5353C7.56333 22.2177 8.18635 22.7221 8.94077 23.1628C9.07643 23.2392 9.17812 23.3069 9.1696 23.3112C9.14001 23.3324 6.55031 24.252 5.35088 24.6674C4.67702 24.9048 4.12176 25.0955 4.11758 25.0955C4.11336 25.0955 4.07519 25.0701 4.03274 25.0404L3.95649 24.9853L4.07939 24.8073C4.47777 24.2309 4.97797 23.5994 6.06721 22.2855L6.81735 21.3827ZM10.1996 23.8028C10.2038 23.7986 10.3903 23.8663 10.6191 23.9512C11.1702 24.1589 11.6066 24.2902 12.1916 24.4386C12.9121 24.6208 13.9547 24.7989 14.5693 24.8497C14.6626 24.8581 14.7134 24.8667 14.6965 24.8794C14.6667 24.8963 14.0438 25.104 13.586 25.2481C12.857 25.477 10.6319 26.1339 8.81788 26.6552C8.48304 26.7527 8.19481 26.8333 8.17787 26.8375C8.13553 26.846 7.99562 26.8078 7.99562 26.7908C7.99562 26.7824 8.09733 26.651 8.22026 26.5069C8.83054 25.7779 9.43668 24.9641 9.94104 24.1928C10.0809 23.9808 10.1996 23.807 10.1996 23.8028ZM9.45358 23.824C9.4578 23.8283 9.15692 24.3114 8.63142 25.1421C8.40674 25.4939 8.15666 25.8923 8.06764 26.0322C7.98287 26.1678 7.85573 26.3797 7.78371 26.4984L7.66078 26.7146L7.59722 26.6976C7.4446 26.6552 6.37232 26.278 6.08834 26.1635C5.73654 26.0237 5.37205 25.8542 5.10077 25.7101C4.76175 25.5278 4.33794 25.2565 4.37182 25.2481C4.38028 25.2439 4.96095 25.087 5.66023 24.8963C7.51666 24.3919 8.54654 24.0995 9.22049 23.8876C9.34343 23.8494 9.44936 23.8197 9.45358 23.824ZM14.7303 25.0616H14.7345C14.7515 25.104 14.065 27.0112 13.8148 27.613C13.7598 27.7487 13.7386 27.7826 13.7089 27.7783C13.6368 27.7742 12.6409 27.6343 12.0347 27.5452C10.9794 27.3842 9.20777 27.0747 8.76278 26.9731L8.66107 26.9519L9.2925 26.8077C10.6488 26.5026 11.3015 26.3373 11.9627 26.1339C12.7976 25.8796 13.6242 25.5617 14.4591 25.1718C14.5904 25.1124 14.7007 25.0658 14.7303 25.0616Z" fill="url(#paint0_linear_8301_184368)"/>
<path d="M11.5811 0.000217082C11.4879 -0.0124283 9.9832 0.530071 9.01266 0.924187C7.70298 1.45828 6.68584 1.96691 6.05853 2.4076C5.82546 2.57297 5.53296 2.86538 5.4864 2.97979C5.46946 3.02218 5.46094 3.07304 5.46094 3.12389L6.0289 3.66217L7.3809 4.09447L10.5978 4.6709L14.2767 5.30243L14.3148 4.98455C14.3021 4.98455 14.2936 4.98033 14.281 4.98033L13.7977 4.90401L13.7003 4.73026C13.2002 3.84866 12.6492 2.75516 12.3271 2.01769C12.0771 1.4455 11.8397 0.784385 11.7083 0.309666C11.6362 0.0214619 11.6278 0.00451685 11.5812 0.000295218V0.000197399H11.5811V0.000217082ZM11.5132 0.216439H11.5176C11.5217 0.220621 11.5387 0.339374 11.5557 0.479157C11.6277 1.07261 11.7592 1.6447 11.9668 2.26352C12.1236 2.72975 12.1236 2.70435 11.9414 2.64921C11.5091 2.53058 9.57216 2.19574 8.16927 2.00078C7.94462 1.97109 7.75389 1.94144 7.75389 1.93722C7.73694 1.92028 8.76683 1.38196 9.22034 1.1701C9.80099 0.90302 11.3946 0.237606 11.5132 0.216439ZM7.42747 2.1152L7.59284 2.17023C8.49131 2.47544 10.7503 2.90777 11.9964 3.00948C12.1363 3.0222 12.255 3.03494 12.2592 3.03494C12.2634 3.03917 12.1448 3.10274 11.9922 3.17477C11.3904 3.47569 10.7292 3.84444 10.2714 4.12842C10.1358 4.21315 10.0129 4.28101 9.99595 4.28101C9.97898 4.28101 9.89001 4.26404 9.79677 4.25132L9.62724 4.22585L9.20345 3.81047C8.45749 3.08576 7.87258 2.52631 7.64794 2.31435L7.42747 2.1152ZM7.258 2.24655L7.8556 2.99253C8.18192 3.40365 8.51251 3.80627 8.58463 3.89524C8.65661 3.9843 8.71599 4.05638 8.71177 4.0606C8.6948 4.07331 7.84719 3.90798 7.39787 3.80631C6.93589 3.70032 6.74517 3.64946 6.46121 3.5605L6.22808 3.48418V3.4248C6.2323 3.14082 6.59261 2.71701 7.20291 2.28474L7.258 2.24655ZM12.3355 3.26377C12.3525 3.26377 12.3736 3.3019 12.4245 3.41634C12.5686 3.73419 13.0179 4.59038 13.128 4.75565C13.162 4.8108 13.2213 4.81502 12.6237 4.71754C11.187 4.48437 10.7249 4.40817 10.7249 4.39968C10.7249 4.39546 10.7673 4.36577 10.8224 4.33609C11.2675 4.09031 11.7167 3.77664 12.1151 3.4418C12.2126 3.36126 12.3016 3.28498 12.3185 3.27223C12.3228 3.26377 12.3313 3.25955 12.3355 3.26377Z" fill="url(#paint1_linear_8301_184368)"/>
<path d="M5.51486 2.91992C5.51486 2.91992 5.42167 3.06832 5.51066 3.28873C5.56582 3.42431 5.72684 3.58958 5.90906 3.75915C5.90906 3.75915 7.79511 5.59857 8.024 5.86138C9.06658 7.06503 9.52011 8.25178 9.56251 9.8878C9.58793 10.9389 9.38868 11.8629 8.89283 12.9352C8.01125 14.8594 6.15059 16.9828 3.28125 19.3393L3.70091 19.1995C3.97215 18.996 4.3409 18.7799 5.20549 18.3052C7.20172 17.2116 9.44805 16.2071 12.203 15.173C16.17 13.6811 22.6929 11.9348 26.4056 11.367L26.7913 11.3076L26.732 11.2143C26.393 10.6888 26.1598 10.3625 25.88 10.0149C25.0663 9.00618 24.0788 8.18822 22.8708 7.51006C21.2094 6.58191 19.0605 5.85716 16.3396 5.31888C15.8267 5.21711 14.6993 5.02218 13.7839 4.88232C11.8427 4.58147 10.5881 4.37375 9.20646 4.1364C8.71062 4.05159 7.96884 3.92447 7.4772 3.81854C7.2229 3.76339 6.73554 3.64897 6.35409 3.51759C6.04894 3.39886 5.60811 3.28019 5.51486 2.91992ZM6.60842 3.97955C6.6126 3.97537 6.6804 4.00072 6.76947 4.03041C6.93052 4.08544 7.13818 4.14904 7.38407 4.2169C7.57009 4.26807 7.75658 4.31751 7.94351 4.36522C8.19781 4.42876 8.40969 4.48812 8.41391 4.48812C8.44364 4.51781 8.87172 5.88669 9.01583 6.41227C9.07084 6.61152 9.11331 6.78101 9.10907 6.78101C9.10471 6.78531 9.05816 6.71321 9.00308 6.61574C8.50718 5.74263 7.72309 4.85683 6.81606 4.14476C6.69745 4.06007 6.60842 3.98377 6.60842 3.97955ZM8.69367 4.55596C8.71488 4.55596 8.80813 4.56868 8.9225 4.59409C9.64303 4.75514 10.9358 5.00097 11.7622 5.14085C11.9021 5.16202 12.0123 5.1875 12.0123 5.19593C12.0123 5.20445 11.9614 5.23406 11.8978 5.26801C11.758 5.34003 11.1942 5.67483 11.0078 5.80201C10.5373 6.11564 10.1135 6.4547 9.80834 6.75985C9.68544 6.88278 9.57943 6.98449 9.57943 6.98449C9.57943 6.98449 9.55408 6.91247 9.5328 6.8234C9.38031 6.23427 9.06238 5.36116 8.77418 4.74664C8.72754 4.64919 8.68937 4.56016 8.68937 4.55172C8.68937 4.56018 8.68937 4.55596 8.69367 4.55596ZM12.364 5.25528C12.3895 5.26373 12.4319 5.40785 12.5166 5.7257C12.6735 6.3403 12.7455 7.0269 12.7201 7.66689C12.7116 7.8449 12.7031 8.01017 12.6946 8.03142L12.6819 8.07375L12.4615 8.00173C12.008 7.85763 11.2706 7.64142 10.6391 7.46345C10.2788 7.36596 9.98641 7.27696 9.98641 7.26849C9.98641 7.24303 10.512 6.71749 10.7366 6.51831C11.1646 6.14105 12.3259 5.24254 12.364 5.25528ZM12.6565 5.29762C12.6692 5.28497 14.4112 5.58582 15.2038 5.73843C15.7929 5.85284 16.649 6.03087 16.6999 6.0521C16.7253 6.06054 16.6363 6.1114 16.3523 6.23853C15.2334 6.74294 14.4026 7.19637 13.5763 7.74741C13.3601 7.89152 13.1778 8.01017 13.1736 8.01017C13.1694 8.01017 13.1651 7.88729 13.1651 7.73893C13.1651 6.93368 13.0041 6.1199 12.7073 5.4333C12.6777 5.36548 12.6523 5.30192 12.6565 5.29762ZM17.1618 6.18772C17.1746 6.20042 17.1194 6.54376 17.0686 6.74716C16.916 7.37869 16.5049 8.31542 16.0006 9.19694C15.9115 9.35376 15.831 9.48092 15.8225 9.48514C15.8141 9.48936 15.6996 9.42577 15.5682 9.34948C15.0766 9.06128 14.5172 8.79004 13.9068 8.53571C13.7373 8.46368 13.5889 8.40431 13.5847 8.3959C13.555 8.37044 14.9198 7.46767 15.6403 7.03537C16.2125 6.68784 17.1449 6.17073 17.1618 6.18772ZM17.4839 6.23855C17.5221 6.23855 18.2935 6.45049 18.6961 6.56917C19.6921 6.86588 20.8364 7.28544 21.5824 7.6245L21.8917 7.76442L21.6757 7.81523C19.8532 8.2348 18.2935 8.71804 16.7888 9.32834C16.6659 9.37919 16.5557 9.42158 16.5473 9.42158C16.5388 9.42158 16.5812 9.32411 16.6363 9.2054C17.0898 8.24332 17.3823 7.23882 17.4542 6.38264C17.4586 6.30209 17.4712 6.23855 17.4839 6.23855ZM9.80412 8.00173C9.8168 7.98899 10.406 8.12889 10.7238 8.21781C11.207 8.35349 12.2326 8.69675 12.2326 8.72222C12.2326 8.72644 12.1182 8.82393 11.9827 8.94264C11.4274 9.40462 10.8934 9.89196 10.2533 10.5108C10.0626 10.6931 9.90159 10.8414 9.89314 10.8414C9.88462 10.8414 9.88046 10.8159 9.88462 10.782C9.98209 10.07 9.96096 9.15453 9.82532 8.22633C9.81256 8.10762 9.79988 8.00595 9.80412 8.00173ZM22.1843 8.01447C22.1927 8.0229 21.913 8.46368 21.735 8.71372C21.4808 9.07821 21.1077 9.56146 20.2642 10.621C19.8193 11.1804 19.3191 11.812 19.1539 12.0239C18.9843 12.2358 18.8445 12.4138 18.8402 12.4138C18.8359 12.4138 18.7809 12.3375 18.7215 12.2443C18.2468 11.5322 17.6789 10.9092 17.005 10.3498C16.8778 10.2438 16.738 10.1293 16.6914 10.0954C16.6448 10.0615 16.6066 10.0276 16.6066 10.0234C16.6066 10.0107 17.327 9.70125 17.8739 9.4809C18.8318 9.09095 20.137 8.62475 21.1162 8.3238C21.629 8.16278 22.1758 8.00595 22.1843 8.01447ZM22.5106 8.09918C22.5275 8.09498 22.6293 8.14583 22.7522 8.21781C23.7821 8.80695 24.7908 9.56565 25.5877 10.3455C25.8123 10.5659 26.3675 11.1423 26.359 11.1466C26.359 11.1466 26.164 11.1635 25.9352 11.1804C24.1509 11.3161 21.8664 11.6933 19.6709 12.223C19.5226 12.2569 19.3913 12.2866 19.3827 12.2866C19.3744 12.2866 19.5396 12.1213 19.7473 11.9222C21.0357 10.6803 21.6249 9.89624 22.3199 8.49755C22.4174 8.28993 22.5022 8.11192 22.5106 8.09918C22.5064 8.09918 22.5064 8.09918 22.5106 8.09918ZM13.0718 9.06558C13.1312 9.07822 13.6822 9.33686 14.0975 9.54448C14.479 9.73514 15.0512 10.0404 15.0808 10.0658C15.0851 10.07 14.8816 10.1759 14.6316 10.2989C13.8348 10.6973 13.1524 11.0744 12.4403 11.5068C12.2369 11.6297 12.0674 11.7315 12.0632 11.7315C12.0462 11.7315 12.0504 11.7144 12.1649 11.5068C12.5463 10.8118 12.8515 9.98103 13.0253 9.17147C13.0422 9.10791 13.0591 9.06558 13.0718 9.06558ZM12.5208 9.16725C12.5336 9.17999 12.3895 9.70127 12.3005 9.98525C12.1267 10.5235 11.8343 11.1974 11.5503 11.706C11.4824 11.8246 11.3807 11.9984 11.3256 12.0959L11.2197 12.2654L10.9824 12.0366C10.7069 11.7696 10.4822 11.6043 10.1941 11.4559C10.0796 11.3966 9.99059 11.3457 9.99059 11.3373C9.99059 11.3034 10.7153 10.6464 11.2706 10.1717C11.6689 9.82842 12.5081 9.15455 12.5208 9.16725ZM15.8904 10.5532L16.0981 10.6888C16.5727 10.9982 17.1321 11.4093 17.5603 11.7696C17.8018 11.9687 18.268 12.3884 18.3613 12.4901L18.4121 12.5453L18.0689 12.6427C16.1277 13.1809 14.6273 13.6599 12.8769 14.3041C12.6819 14.3762 12.5166 14.4355 12.5039 14.4355C12.4785 14.4355 12.4573 14.4567 12.8939 14.054C14.0128 13.0242 15.0045 11.8882 15.742 10.782L15.8904 10.5532ZM15.0046 10.7736C15.013 10.782 14.4324 11.6 14.0848 12.062C13.6694 12.613 12.932 13.537 12.4234 14.1387C12.2115 14.3889 12.0293 14.5965 12.0208 14.6008C12.008 14.605 12.0038 14.5414 12.0038 14.444C12.0038 13.9311 11.8724 13.3843 11.6435 12.9181C11.546 12.7232 11.5291 12.6766 11.5503 12.6554C11.6309 12.5833 12.8642 11.8797 13.644 11.4602C14.1696 11.1805 14.9917 10.7651 15.0046 10.7736ZM9.64725 12.0875C9.66 12.0875 9.75748 12.1383 9.8677 12.1977C10.1389 12.346 10.3805 12.5113 10.5967 12.6893C10.6051 12.6978 10.495 12.7868 10.3509 12.8927C9.9482 13.1809 9.3379 13.6429 8.98194 13.9269C8.60887 14.2236 8.59624 14.2321 8.63858 14.1685C8.91834 13.7404 9.05814 13.4988 9.20654 13.1895C9.3379 12.914 9.46926 12.5876 9.56251 12.3036C9.5964 12.1807 9.63881 12.0875 9.64725 12.0875ZM11.0756 13.2064C11.0968 13.2022 11.1223 13.2403 11.2366 13.4099C11.4782 13.77 11.6647 14.2533 11.7114 14.6432L11.7198 14.728L11.1392 14.9526C10.1008 15.3552 9.14296 15.7537 8.49442 16.0503C8.31222 16.1351 7.99433 16.2877 7.78669 16.3894C7.57899 16.4953 7.40946 16.5759 7.40946 16.5717C7.40946 16.5674 7.54082 16.4699 7.70186 16.3512C8.96921 15.4316 10.0669 14.4228 10.8891 13.4141C10.9781 13.3081 11.0587 13.2106 11.0671 13.2064L11.0756 13.2064ZM10.4187 13.3675C10.4357 13.3844 9.9525 13.9311 9.6219 14.2659C8.8039 15.1009 7.99437 15.7537 6.98985 16.3894C6.86272 16.4699 6.7483 16.542 6.73556 16.5505C6.70587 16.5674 6.744 16.525 7.18481 16.0461C7.46457 15.7452 7.67646 15.4909 7.91805 15.1773C8.07909 14.9696 8.10878 14.9399 8.34193 14.7746C8.96497 14.3253 10.4017 13.3505 10.4187 13.3675Z" fill="url(#paint2_radial_8301_184368)"/>
</g>
<defs>
<linearGradient id="paint0_linear_8301_184368" x1="5.42955" y1="25.2302" x2="7.45716" y2="24.0321" gradientUnits="userSpaceOnUse">
<stop stop-color="#3B4F0A"/>
<stop offset="1" stop-color="#59770F"/>
</linearGradient>
<linearGradient id="paint1_linear_8301_184368" x1="5.47581" y1="2.64303" x2="7.10727" y2="2.64303" gradientUnits="userSpaceOnUse">
<stop stop-color="#3B4F0A"/>
<stop offset="1" stop-color="#59770F"/>
</linearGradient>
<radialGradient id="paint2_radial_8301_184368" cx="0" cy="0" r="1" gradientTransform="matrix(-2.08008 -0.31245 -0.631922 4.16015 13.7071 10.1249)" gradientUnits="userSpaceOnUse">
<stop stop-color="#B2ED1D"/>
<stop offset="1" stop-color="#94C518"/>
</radialGradient>
<clipPath id="clip0_8301_184368">
<rect width="28" height="28" fill="white"/>
</clipPath>
</defs>
</svg>
