<svg width="28" height="28" viewBox="0 0 28 28" fill="none" xmlns="http://www.w3.org/2000/svg">
<g clip-path="url(#clip0_6160_52709)">
<g style="mix-blend-mode:multiply">
<path d="M25 0H3C1.34315 0 0 1.34315 0 3V25C0 26.6569 1.34315 28 3 28H25C26.6569 28 28 26.6569 28 25V3C28 1.34315 26.6569 0 25 0Z" fill="white" fill-opacity="0.01"/>
</g>
<path d="M21.875 11.375H16.625V13.125H21.875V11.375Z" fill="#1D77FE"/>
<path d="M11.375 18.375H9.625V16.625H7.875V18.375H6.125V20.125H7.875V21.875H9.625V20.125H11.375V18.375Z" fill="#1D77FE"/>
<path d="M11.375 7.875H6.125V9.625H11.375V7.875Z" fill="#1D77FE"/>
<path d="M21.875 14.875H16.625V16.625H21.875V14.875Z" fill="#1D77FE"/>
<path d="M23.625 2.625H4.375C3.91103 2.62553 3.46622 2.81008 3.13815 3.13815C2.81008 3.46622 2.62553 3.91103 2.625 4.375V23.625C2.62553 24.089 2.81008 24.5338 3.13815 24.8618C3.46622 25.1899 3.91103 25.3745 4.375 25.375H23.625C24.089 25.3745 24.5338 25.1899 24.8618 24.8618C25.1899 24.5338 25.3745 24.089 25.375 23.625V4.375C25.3745 3.91103 25.1899 3.46622 24.8618 3.13815C24.5338 2.81008 24.089 2.62553 23.625 2.625ZM13.125 4.375V13.125H4.375V4.375H13.125ZM4.375 14.875H13.125V23.625H4.375V14.875ZM14.875 23.625V4.375H23.625V23.625H14.875Z" fill="#1D77FE"/>
</g>
<defs>
<clipPath id="clip0_6160_52709">
<rect width="28" height="28" fill="white"/>
</clipPath>
</defs>
</svg>
