<svg width="29" height="29" viewBox="0 0 29 29" fill="none" xmlns="http://www.w3.org/2000/svg">
<rect width="28" height="28" transform="translate(0.523438 0.103516)" fill="white" fill-opacity="0.01" style="mix-blend-mode:multiply"/>
<path d="M7.52344 26.3535H2.27344V21.1035H7.52344V26.3535ZM4.02344 24.6035H5.77344V22.8535H4.02344V24.6035Z" fill="#1D77FE"/>
<path d="M17.1484 26.3535H11.8984V21.1035H17.1484V26.3535ZM13.6484 24.6035H15.3984V22.8535H13.6484V24.6035Z" fill="#1D77FE"/>
<path d="M26.7734 26.3535H21.5234V21.1035H26.7734V26.3535ZM23.2734 24.6035H25.0234V22.8535H23.2734V24.6035Z" fill="#1D77FE"/>
<path d="M14.5234 8.85352C13.8312 8.85352 13.1545 8.64825 12.5789 8.26366C12.0034 7.87908 11.5548 7.33245 11.2899 6.69291C11.025 6.05337 10.9556 5.34963 11.0907 4.6707C11.2257 3.99177 11.5591 3.36813 12.0486 2.87864C12.538 2.38916 13.1617 2.05582 13.8406 1.92077C14.5196 1.78572 15.2233 1.85503 15.8628 2.11994C16.5024 2.38485 17.049 2.83345 17.4336 3.40902C17.8182 3.98459 18.0234 4.66128 18.0234 5.35352C18.0224 6.28145 17.6533 7.17109 16.9972 7.82724C16.341 8.48339 15.4514 8.85247 14.5234 8.85352ZM14.5234 3.60352C14.1773 3.60352 13.839 3.70615 13.5512 3.89845C13.2634 4.09074 13.0391 4.36405 12.9066 4.68382C12.7742 5.00359 12.7395 5.35546 12.8071 5.69493C12.8746 6.03439 13.0413 6.34621 13.286 6.59095C13.5307 6.8357 13.8426 7.00237 14.182 7.06989C14.5215 7.13742 14.8734 7.10276 15.1931 6.97031C15.5129 6.83785 15.7862 6.61355 15.9785 6.32576C16.1708 6.03798 16.2734 5.69963 16.2734 5.35352C16.273 4.88953 16.0885 4.44468 15.7604 4.11659C15.4323 3.7885 14.9874 3.60398 14.5234 3.60352Z" fill="#1D77FE"/>
<path d="M23.2734 14.1035H18.8984C17.9705 14.1025 17.0809 13.7334 16.4247 13.0772C15.7686 12.4211 15.3995 11.5315 15.3984 10.6035H13.6484C13.6474 11.5315 13.2783 12.4211 12.6222 13.0772C11.966 13.7334 11.0764 14.1025 10.1484 14.1035H5.77344C5.30947 14.104 4.86466 14.2886 4.53659 14.6167C4.20852 14.9447 4.02397 15.3896 4.02344 15.8535V19.3535H5.77344V15.8535H10.1484C11.4417 15.8531 12.6888 15.373 13.6484 14.506V19.3535H15.3984V14.506C16.3581 15.373 17.6052 15.8531 18.8984 15.8535H23.2734V19.3535H25.0234V15.8535C25.0229 15.3896 24.8384 14.9447 24.5103 14.6167C24.1822 14.2886 23.7374 14.104 23.2734 14.1035Z" fill="#1D77FE"/>
</svg>
