<svg width="28" height="28" viewBox="0 0 28 28" fill="none" xmlns="http://www.w3.org/2000/svg">
<rect width="28" height="28" fill="white" fill-opacity="0.01" style="mix-blend-mode:multiply"/>
<path d="M7 26.25H1.75V21H7V26.25ZM3.5 24.5H5.25V22.75H3.5V24.5Z" fill="#94C518"/>
<path d="M16.625 26.25H11.375V21H16.625V26.25ZM13.125 24.5H14.875V22.75H13.125V24.5Z" fill="#94C518"/>
<path d="M26.25 26.25H21V21H26.25V26.25ZM22.75 24.5H24.5V22.75H22.75V24.5Z" fill="#94C518"/>
<path d="M14 8.75C13.3078 8.75 12.6311 8.54473 12.0555 8.16014C11.4799 7.77556 11.0313 7.22893 10.7664 6.58939C10.5015 5.94985 10.4322 5.24612 10.5673 4.56719C10.7023 3.88825 11.0356 3.26461 11.5251 2.77513C12.0146 2.28564 12.6383 1.9523 13.3172 1.81725C13.9961 1.6822 14.6999 1.75152 15.3394 2.01642C15.9789 2.28133 16.5256 2.72993 16.9101 3.30551C17.2947 3.88108 17.5 4.55777 17.5 5.25C17.499 6.17794 17.1299 7.06757 16.4737 7.72372C15.8176 8.37988 14.9279 8.74896 14 8.75ZM14 3.5C13.6539 3.5 13.3155 3.60264 13.0278 3.79493C12.74 3.98722 12.5157 4.26053 12.3832 4.58031C12.2508 4.90008 12.2161 5.25194 12.2836 5.59141C12.3511 5.93088 12.5178 6.2427 12.7626 6.48744C13.0073 6.73218 13.3191 6.89885 13.6586 6.96638C13.9981 7.0339 14.3499 6.99924 14.6697 6.86679C14.9895 6.73434 15.2628 6.51004 15.4551 6.22225C15.6474 5.93446 15.75 5.59612 15.75 5.25C15.7495 4.78601 15.565 4.34116 15.2369 4.01308C14.9088 3.68499 14.464 3.50046 14 3.5Z" fill="#94C518"/>
<path d="M22.75 14H18.375C17.4471 13.999 16.5574 13.6299 15.9013 12.9737C15.2451 12.3176 14.876 11.4279 14.875 10.5H13.125C13.124 11.4279 12.7549 12.3176 12.0987 12.9737C11.4426 13.6299 10.5529 13.999 9.625 14H5.25C4.78603 14.0005 4.34122 14.1851 4.01315 14.5132C3.68508 14.8412 3.50053 15.286 3.5 15.75V19.25H5.25V15.75H9.625C10.9183 15.7496 12.1654 15.2695 13.125 14.4025V19.25H14.875V14.4025C15.8346 15.2695 17.0817 15.7496 18.375 15.75H22.75V19.25H24.5V15.75C24.4995 15.286 24.3149 14.8412 23.9868 14.5132C23.6588 14.1851 23.214 14.0005 22.75 14Z" fill="#94C518"/>
</svg>
