<svg width="28" height="28" viewBox="0 0 28 28" fill="none" xmlns="http://www.w3.org/2000/svg">
<path d="M12.3488 12.7283L12.3468 10.619C12.3468 10.4941 12.2973 10.3731 12.208 10.2839L10.3802 8.4541L9.10547 9.85968L12.0831 12.8374C12.1823 12.9345 12.3488 12.8651 12.3488 12.7283Z" fill="url(#paint0_linear_8301_184410)"/>
<path d="M8.31042 17.8157L4.72016 14.2334L3.4375 15.6271L8.18751 20.3711C8.28465 20.4683 8.45118 20.3989 8.45118 20.2621V18.1508C8.4492 18.0259 8.39964 17.9049 8.31042 17.8157Z" fill="url(#paint1_linear_8301_184410)"/>
<path d="M13.0947 1.27946C6.65167 1.72551 1.5012 7.05837 1.25934 13.5133C1.02144 19.8156 5.35513 25.1465 11.2054 26.4549L3.40636 18.6539C3.29534 18.5428 3.2319 18.3902 3.2319 18.2316L3.23785 15.7119C3.23785 15.6068 3.36473 15.5533 3.44006 15.6286L4.72272 14.2349C4.64144 14.1536 4.64144 14.0228 4.72272 13.9435L5.9578 12.7124C6.03909 12.6311 6.16795 12.6331 6.24923 12.7124L10.4184 16.8815C10.5948 17.058 10.6959 17.2998 10.6959 17.5496V21.9012C10.6959 22.5276 10.9457 23.1283 11.3878 23.5724L14.5677 26.7523C15.3746 26.7186 16.1616 26.6076 16.9229 26.4291L12.8945 22.4007C12.6962 22.2025 12.5832 21.9309 12.5832 21.6494V17.4426C12.5832 16.7527 12.3097 16.0925 11.822 15.6048L7.58938 11.3722C7.5081 11.291 7.5081 11.1601 7.58938 11.0808L8.81455 9.85961C8.89583 9.77833 9.02469 9.78031 9.10598 9.85961L10.3807 8.45403C10.3569 8.42628 10.3351 8.39654 10.3113 8.3668C9.94654 7.87515 9.72649 7.0663 9.98421 6.15238C10.1388 5.56755 10.46 5.12744 11.0508 4.59019C11.1023 4.54261 11.1856 4.54063 11.2371 4.58622L12.7696 5.9125L13.0709 6.17419C13.1859 6.27529 13.3247 6.34666 13.4753 6.38235L18.2511 7.51632C18.3066 7.5302 18.3582 7.55795 18.3978 7.5976L23.3064 12.4923C23.3917 12.5736 23.4413 12.6886 23.4413 12.8075V13.8483C23.4413 14.0089 23.4016 14.1655 23.3243 14.3063L20.8958 18.7292C20.7907 18.9235 20.5528 19.0048 20.3506 18.9156L19.2305 18.4279H15.1406C14.877 18.4279 14.6648 18.64 14.6648 18.9037V20.7275C14.6648 20.9793 14.764 21.2192 14.9404 21.3976L19.1769 25.6659C23.6375 23.6794 26.75 19.205 26.75 14.005C26.75 6.65989 20.5449 0.764013 13.0947 1.27946Z" fill="#94C518"/>
<defs>
<linearGradient id="paint0_linear_8301_184410" x1="12.3794" y1="10.6838" x2="10.3142" y2="10.653" gradientUnits="userSpaceOnUse">
<stop stop-color="#94C518" stop-opacity="0"/>
<stop offset="1" stop-color="#94C518"/>
</linearGradient>
<linearGradient id="paint1_linear_8301_184410" x1="8.40666" y1="17.3259" x2="5.83322" y2="17.3259" gradientUnits="userSpaceOnUse">
<stop stop-color="#94C518" stop-opacity="0"/>
<stop offset="0.96" stop-color="#94C518"/>
</linearGradient>
</defs>
</svg>
