<svg width="28" height="29" viewBox="0 0 28 29" fill="none" xmlns="http://www.w3.org/2000/svg">
<g clip-path="url(#clip0_6160_52448)">
<g style="mix-blend-mode:multiply">
<path d="M25 0.25H3C1.34315 0.25 0 1.59315 0 3.25V25.25C0 26.9069 1.34315 28.25 3 28.25H25C26.6569 28.25 28 26.9069 28 25.25V3.25C28 1.59315 26.6569 0.25 25 0.25Z" fill="white" fill-opacity="0.01"/>
</g>
<path d="M14 3.75C14.8653 3.75 15.7112 4.00659 16.4306 4.48732C17.1501 4.96805 17.7108 5.65133 18.042 6.45076C18.3731 7.25019 18.4597 8.12985 18.2909 8.97852C18.1221 9.82719 17.7054 10.6067 17.0936 11.2186C16.4817 11.8304 15.7022 12.2471 14.8535 12.4159C14.0049 12.5847 13.1252 12.4981 12.3258 12.167C11.5263 11.8358 10.8431 11.2751 10.3623 10.5556C9.88159 9.83615 9.625 8.99029 9.625 8.125C9.625 6.96468 10.0859 5.85188 10.9064 5.03141C11.7269 4.21094 12.8397 3.75 14 3.75ZM14 2C12.7886 2 11.6044 2.35923 10.5971 3.03225C9.58988 3.70527 8.80482 4.66187 8.34124 5.78106C7.87765 6.90026 7.75636 8.13179 7.99269 9.31993C8.22902 10.5081 8.81237 11.5994 9.66897 12.456C10.5256 13.3126 11.6169 13.896 12.8051 14.1323C13.9932 14.3686 15.2247 14.2473 16.3439 13.7838C17.4631 13.3202 18.4197 12.5351 19.0928 11.5279C19.7658 10.5206 20.125 9.33641 20.125 8.125C20.125 6.50055 19.4797 4.94263 18.331 3.79397C17.1824 2.64531 15.6245 2 14 2Z" fill="#1D77FE"/>
<path d="M22.75 26.5H21V22.125C21 21.5505 20.8868 20.9816 20.667 20.4508C20.4471 19.92 20.1248 19.4377 19.7186 19.0314C19.3123 18.6252 18.83 18.3029 18.2992 18.083C17.7684 17.8632 17.1995 17.75 16.625 17.75H11.375C10.2147 17.75 9.10188 18.2109 8.28141 19.0314C7.46094 19.8519 7 20.9647 7 22.125V26.5H5.25V22.125C5.25 20.5005 5.89531 18.9426 7.04397 17.794C8.19263 16.6453 9.75055 16 11.375 16H16.625C18.2495 16 19.8074 16.6453 20.956 17.794C22.1047 18.9426 22.75 20.5005 22.75 22.125V26.5Z" fill="#1D77FE"/>
</g>
<defs>
<clipPath id="clip0_6160_52448">
<rect width="28" height="29" fill="white"/>
</clipPath>
</defs>
</svg>
