<svg width="864" height="1117" viewBox="0 0 864 1117" fill="none" xmlns="http://www.w3.org/2000/svg">
<g clip-path="url(#clip0_10607_43264)">
<rect width="864" height="1117" fill="#050B14"/>
<g opacity="0.06" clip-path="url(#clip1_10607_43264)" filter="url(#filter0_f_10607_43264)">
<path d="M189.393 -224.92L1573.23 562.545" stroke="#D3FF66" stroke-width="2.58414"/>
<path d="M189.393 -315.134L1573.23 472.331" stroke="#D3FF66" stroke-width="2.58414"/>
<path d="M189.393 -405.348L1573.23 382.117" stroke="#D3FF66" stroke-width="2.58414"/>
<path d="M189.393 -495.562L1573.23 291.903" stroke="#D3FF66" stroke-width="2.58414"/>
<path d="M189.393 -585.776L1573.23 201.689" stroke="#D3FF66" stroke-width="2.58414"/>
<path d="M189.393 -675.99L1573.23 111.475" stroke="#D3FF66" stroke-width="2.58414"/>
<path d="M189.393 -766.204L1573.23 21.2608" stroke="#D3FF66" stroke-width="2.58414"/>
<path d="M148.234 -164.777L1532.07 622.688" stroke="#D3FF66" stroke-width="2.58414"/>
<path d="M107.076 -104.634L1490.91 682.831" stroke="#D3FF66" stroke-width="2.58414"/>
<path d="M65.918 -44.4912L1449.75 742.974" stroke="#D3FF66" stroke-width="2.58414"/>
<path d="M24.7598 15.6514L1408.59 803.116" stroke="#D3FF66" stroke-width="2.58414"/>
<path d="M-16.3984 75.7949L1367.44 863.26" stroke="#D3FF66" stroke-width="2.58414"/>
<path d="M-57.5566 135.937L1326.28 923.401" stroke="#D3FF66" stroke-width="2.58414"/>
<path d="M-98.7148 196.08L1285.12 983.545" stroke="#D3FF66" stroke-width="2.58414"/>
<path d="M-139.873 256.223L1243.96 1043.69" stroke="#D3FF66" stroke-width="2.58414"/>
<path d="M-181.031 316.366L1202.8 1103.83" stroke="#D3FF66" stroke-width="2.58414"/>
<path d="M-222.191 376.51L1161.64 1163.97" stroke="#D3FF66" stroke-width="2.58414"/>
<path d="M-263.348 436.651L1120.49 1224.12" stroke="#D3FF66" stroke-width="2.58414"/>
<path d="M-304.506 496.795L1079.33 1284.26" stroke="#D3FF66" stroke-width="2.58414"/>
<path d="M-345.664 556.938L1038.17 1344.4" stroke="#D3FF66" stroke-width="2.58414"/>
<path d="M-386.822 617.08L997.013 1404.54" stroke="#D3FF66" stroke-width="2.58414"/>
<path d="M-427.982 677.223L955.853 1464.69" stroke="#D3FF66" stroke-width="2.58414"/>
<path d="M-502.523 710.099L881.312 1497.56" stroke="#D3FF66" stroke-width="2.58414"/>
<path d="M-577.066 742.974L806.769 1530.44" stroke="#D3FF66" stroke-width="2.58414"/>
<path d="M-651.611 775.849L732.224 1563.31" stroke="#D3FF66" stroke-width="2.58414"/>
<path d="M-726.154 808.724L657.681 1596.19" stroke="#D3FF66" stroke-width="2.58414"/>
<path d="M914.695 -315.134L-469.14 472.331" stroke="#D3FF66" stroke-width="2.58414"/>
<path d="M864.703 -378.08L-519.132 409.385" stroke="#D3FF66" stroke-width="2.58414"/>
<path d="M814.715 -441.027L-569.12 346.438" stroke="#D3FF66" stroke-width="2.58414"/>
<path d="M764.721 -503.975L-619.114 283.49" stroke="#D3FF66" stroke-width="2.58414"/>
<path d="M714.73 -566.921L-669.105 220.544" stroke="#D3FF66" stroke-width="2.58414"/>
<path d="M664.738 -629.868L-719.097 157.597" stroke="#D3FF66" stroke-width="2.58414"/>
<path d="M955.854 -254.991L-427.982 532.474" stroke="#D3FF66" stroke-width="2.58414"/>
<path d="M997.012 -194.849L-386.823 592.616" stroke="#D3FF66" stroke-width="2.58414"/>
<path d="M1038.17 -134.705L-345.665 652.76" stroke="#D3FF66" stroke-width="2.58414"/>
<path d="M1079.33 -74.5615L-304.507 712.903" stroke="#D3FF66" stroke-width="2.58414"/>
<path d="M1120.49 -14.4189L-263.349 773.046" stroke="#D3FF66" stroke-width="2.58414"/>
<path d="M1161.64 45.7227L-222.191 833.188" stroke="#D3FF66" stroke-width="2.58414"/>
<path d="M1202.8 105.866L-181.03 893.331" stroke="#D3FF66" stroke-width="2.58414"/>
<path d="M1243.96 166.008L-139.874 953.473" stroke="#D3FF66" stroke-width="2.58414"/>
<path d="M1285.12 226.151L-98.714 1013.62" stroke="#D3FF66" stroke-width="2.58414"/>
<path d="M1326.28 286.295L-57.5577 1073.76" stroke="#D3FF66" stroke-width="2.58414"/>
<path d="M1367.44 346.438L-16.3995 1133.9" stroke="#D3FF66" stroke-width="2.58414"/>
<path d="M1408.6 406.581L24.7606 1194.05" stroke="#D3FF66" stroke-width="2.58414"/>
<path d="M1449.75 466.723L65.9188 1254.19" stroke="#D3FF66" stroke-width="2.58414"/>
<path d="M1490.91 526.865L107.077 1314.33" stroke="#D3FF66" stroke-width="2.58414"/>
<path d="M1532.07 587.009L148.235 1374.47" stroke="#D3FF66" stroke-width="2.58414"/>
<path d="M1573.23 649.956L189.393 1437.42" stroke="#D3FF66" stroke-width="2.58414"/>
<path d="M1614.39 712.901L230.552 1500.37" stroke="#D3FF66" stroke-width="2.58414"/>
<path d="M1655.55 775.85L271.712 1563.31" stroke="#D3FF66" stroke-width="2.58414"/>
<path d="M1696.71 838.796L312.87 1626.26" stroke="#D3FF66" stroke-width="2.58414"/>
</g>
<g opacity="0.65">
<path opacity="0.4" d="M422.947 -34.916V123.303L217.413 241.966V83.7479L422.947 -34.916Z" fill="#BEBEBE" fill-opacity="0.2"/>
<path opacity="0.7" d="M457.215 -15.1338V143.085L251.681 261.749V103.53L457.215 -15.1338Z" fill="#BEBEBE" fill-opacity="0.2"/>
<path d="M491.459 4.6377V162.856L285.925 281.52V123.302L491.459 4.6377Z" fill="#BEBEBE" fill-opacity="0.2"/>
<g opacity="0.3">
<path fill-rule="evenodd" clip-rule="evenodd" d="M350.814 112.917L311.432 135.654V131.302L350.814 108.564V112.917Z" fill="#B2ED1D"/>
<path fill-rule="evenodd" clip-rule="evenodd" d="M344.248 142.663L311.432 161.613V157.261L344.248 138.311V142.663Z" fill="#B2ED1D"/>
<path fill-rule="evenodd" clip-rule="evenodd" d="M436.146 89.6138L403.33 108.564V104.212L436.146 85.2617V89.6138Z" fill="#B2ED1D"/>
<path fill-rule="evenodd" clip-rule="evenodd" d="M409.894 87.5064L396.762 95.0958V90.7437L409.894 83.1543V87.5064Z" fill="#B2ED1D"/>
<path fill-rule="evenodd" clip-rule="evenodd" d="M383.629 111.375L331.129 141.686V137.334L383.629 107.022V111.375Z" fill="#B2ED1D"/>
<path fill-rule="evenodd" clip-rule="evenodd" d="M390.197 98.8833L350.814 121.621V117.269L390.197 94.5312V98.8833Z" fill="#B2ED1D"/>
<path fill-rule="evenodd" clip-rule="evenodd" d="M324.564 136.768L311.432 144.357V140.005L324.564 132.416V136.768Z" fill="#B2ED1D"/>
<path fill-rule="evenodd" clip-rule="evenodd" d="M324.564 145.473L311.432 153.063V148.71L324.564 141.121V145.473Z" fill="#B2ED1D"/>
<path fill-rule="evenodd" clip-rule="evenodd" d="M363.947 131.302L350.814 138.876V134.524L363.947 126.95V131.302Z" fill="#B2ED1D"/>
<path fill-rule="evenodd" clip-rule="evenodd" d="M423.013 88.6372L390.197 107.588V103.236L423.013 84.2852V88.6372Z" fill="#B2ED1D"/>
<path fill-rule="evenodd" clip-rule="evenodd" d="M423.011 71.2281L357.379 109.129V104.777L423.011 66.876V71.2281Z" fill="#B2ED1D"/>
<path fill-rule="evenodd" clip-rule="evenodd" d="M344.261 125.408L331.129 132.982V128.63L344.261 121.056V125.408Z" fill="#B2ED1D"/>
<path fill-rule="evenodd" clip-rule="evenodd" d="M396.762 112.351L370.512 127.515V123.163L396.762 107.999V112.351Z" fill="#B2ED1D"/>
<path fill-rule="evenodd" clip-rule="evenodd" d="M350.814 200.737L311.432 223.475V219.122L350.814 196.385V200.737Z" fill="#B2ED1D"/>
<path fill-rule="evenodd" clip-rule="evenodd" d="M344.248 230.484L311.432 249.435V245.082L344.248 226.132V230.484Z" fill="#B2ED1D"/>
<path fill-rule="evenodd" clip-rule="evenodd" d="M436.146 177.434L403.33 196.385V192.033L436.146 173.082V177.434Z" fill="#B2ED1D"/>
<path fill-rule="evenodd" clip-rule="evenodd" d="M409.894 175.327L396.762 182.916V178.564L409.894 170.975V175.327Z" fill="#B2ED1D"/>
<path fill-rule="evenodd" clip-rule="evenodd" d="M383.629 199.195L331.129 229.507V225.155L383.629 194.843V199.195Z" fill="#B2ED1D"/>
<path fill-rule="evenodd" clip-rule="evenodd" d="M390.197 186.704L350.814 209.441V205.089L390.197 182.352V186.704Z" fill="#B2ED1D"/>
<path fill-rule="evenodd" clip-rule="evenodd" d="M324.564 224.589L311.432 232.179V227.827L324.564 220.237V224.589Z" fill="#B2ED1D"/>
<path fill-rule="evenodd" clip-rule="evenodd" d="M324.564 233.293L311.432 240.883V236.531L324.564 228.941V233.293Z" fill="#B2ED1D"/>
<path fill-rule="evenodd" clip-rule="evenodd" d="M363.947 219.123L350.814 226.697V222.345L363.947 214.771V219.123Z" fill="#B2ED1D"/>
<path fill-rule="evenodd" clip-rule="evenodd" d="M423.013 176.457L390.197 195.407V191.055L423.013 172.104V176.457Z" fill="#B2ED1D"/>
<path fill-rule="evenodd" clip-rule="evenodd" d="M423.011 159.048L357.379 196.95V192.598L423.011 154.696V159.048Z" fill="#B2ED1D"/>
<path fill-rule="evenodd" clip-rule="evenodd" d="M344.261 213.228L331.129 220.802V216.45L344.261 208.876V213.228Z" fill="#B2ED1D"/>
<path fill-rule="evenodd" clip-rule="evenodd" d="M396.762 200.171L370.512 215.335V210.983L396.762 195.819V200.171Z" fill="#B2ED1D"/>
<path fill-rule="evenodd" clip-rule="evenodd" d="M331.13 168.822L311.432 180.183V175.831L331.13 164.47V168.822Z" fill="#B2ED1D"/>
<path fill-rule="evenodd" clip-rule="evenodd" d="M344.248 187.208L311.432 206.158V201.791L344.248 182.855V187.208Z" fill="#B2ED1D"/>
<path fill-rule="evenodd" clip-rule="evenodd" d="M442.713 130.356L403.33 153.094V148.742L442.713 126.004V130.356Z" fill="#B2ED1D"/>
<path fill-rule="evenodd" clip-rule="evenodd" d="M409.879 132.05L396.762 139.624V135.272L409.879 127.698V132.05Z" fill="#B2ED1D"/>
<path fill-rule="evenodd" clip-rule="evenodd" d="M363.945 167.28L331.129 186.23V181.878L363.945 162.928V167.28Z" fill="#B2ED1D"/>
<path fill-rule="evenodd" clip-rule="evenodd" d="M390.197 143.413L363.947 158.576V154.224L390.197 139.061V143.413Z" fill="#B2ED1D"/>
<path fill-rule="evenodd" clip-rule="evenodd" d="M331.13 177.526L311.432 188.887V184.535L331.13 173.174V177.526Z" fill="#B2ED1D"/>
<path fill-rule="evenodd" clip-rule="evenodd" d="M324.564 190.018L311.432 197.592V193.24L324.564 185.666V190.018Z" fill="#B2ED1D"/>
<path fill-rule="evenodd" clip-rule="evenodd" d="M363.947 175.832L350.814 183.421V179.069L363.947 171.479V175.832Z" fill="#B2ED1D"/>
<path fill-rule="evenodd" clip-rule="evenodd" d="M403.329 144.543L370.498 163.493V159.141L403.329 140.19V144.543Z" fill="#B2ED1D"/>
<path fill-rule="evenodd" clip-rule="evenodd" d="M429.579 111.97L370.498 146.084V141.732L429.579 107.618V111.97Z" fill="#B2ED1D"/>
<path fill-rule="evenodd" clip-rule="evenodd" d="M429.578 129.378L409.879 140.755V136.403L429.578 125.026V129.378Z" fill="#B2ED1D"/>
<path fill-rule="evenodd" clip-rule="evenodd" d="M357.379 162.363L337.68 173.739V169.387L357.379 158.011V162.363Z" fill="#B2ED1D"/>
<path fill-rule="evenodd" clip-rule="evenodd" d="M396.763 156.88L370.498 172.044V167.692L396.763 152.528V156.88Z" fill="#B2ED1D"/>
<path fill-rule="evenodd" clip-rule="evenodd" d="M363.945 149.872L337.68 165.035V160.683L363.945 145.52V149.872Z" fill="#B2ED1D"/>
</g>
</g>
<g opacity="0.9">
<path opacity="0.4" d="M-2.58594 247.395V438.037L245.068 581.018V390.376L-2.58594 247.395Z" fill="#BEBEBE" fill-opacity="0.2"/>
<path opacity="0.7" d="M-43.875 271.231V461.873L203.779 604.855V414.213L-43.875 271.231Z" fill="#BEBEBE" fill-opacity="0.2"/>
<path d="M-85.1367 295.055V485.697L162.517 628.678V438.036L-85.1367 295.055Z" fill="#BEBEBE" fill-opacity="0.2"/>
<g opacity="0.5">
<path opacity="0.8" d="M-46.3934 460.508C-46.3934 460.508 -37.0874 448.585 -19.8982 457.368C-6.76503 464.09 -13.6669 463.697 2.08309 468.358C11.3728 471.106 25.798 454.751 48.7115 464.842C90.2043 483.11 104.662 445.248 122.686 465.79V569.318L-46.3934 475.064V460.508Z" fill="#779E13"/>
<path d="M37.8184 518.192V421.484" stroke="#B2ED1D" stroke-width="2.45135" stroke-miterlimit="10" stroke-linecap="round" stroke-linejoin="round"/>
<path d="M79.9336 540.075V443.367" stroke="#B2ED1D" stroke-width="2.45135" stroke-miterlimit="10" stroke-linecap="round" stroke-linejoin="round"/>
<path d="M122.049 563.501V459.957" stroke="#B2ED1D" stroke-width="2.45135" stroke-miterlimit="10" stroke-linecap="round" stroke-linejoin="round"/>
<path d="M124.511 454.004L118.95 450.798C118.329 450.438 117.838 449.49 117.838 448.672C117.838 447.854 118.345 447.478 118.95 447.821L124.511 451.027C125.132 451.387 125.623 452.335 125.623 453.153C125.623 453.987 125.132 454.363 124.511 454.004Z" fill="#B2ED1D"/>
<path d="M84.8757 550.754L79.315 547.549C79.2987 547.533 79.2823 547.533 79.266 547.533L75.1445 545.145C74.523 544.785 74.0323 545.177 74.0323 545.995C74.0323 546.813 74.5393 547.778 75.1445 548.121L80.7052 551.327C80.7216 551.343 80.7379 551.343 80.7543 551.343L84.8757 553.731C85.4972 554.091 85.9879 553.698 85.9879 552.881C86.0043 552.063 85.4972 551.098 84.8757 550.754Z" fill="#B2ED1D"/>
<path d="M127.839 574.486L122.278 571.28C122.262 571.264 122.246 571.264 122.229 571.264L118.108 568.876C117.486 568.516 116.996 568.909 116.996 569.727C116.996 570.544 117.503 571.509 118.108 571.853L123.668 575.058C123.685 575.075 123.701 575.075 123.718 575.075L127.839 577.463C128.461 577.822 128.951 577.43 128.951 576.612C128.951 575.794 128.444 574.829 127.839 574.486Z" fill="#B2ED1D"/>
<path d="M41.7609 527.335L36.2002 524.129C36.1838 524.113 36.1675 524.113 36.1511 524.113L32.0296 521.725C31.4081 521.365 30.9175 521.757 30.9175 522.575C30.9175 523.393 31.4245 524.358 32.0296 524.701L37.5903 527.907C37.6067 527.923 37.6231 527.923 37.6394 527.923L41.7609 530.311C42.3824 530.671 42.873 530.278 42.873 529.461C42.873 528.643 42.366 527.678 41.7609 527.335Z" fill="#B2ED1D"/>
<path d="M82.755 430.525L77.1943 427.319C76.5728 426.96 76.0822 426.011 76.0822 425.193C76.0822 424.376 76.5892 423.999 77.1943 424.343L82.755 427.548C83.3765 427.908 83.8672 428.857 83.8672 429.675C83.8672 430.492 83.3602 430.885 82.755 430.525Z" fill="#B2ED1D"/>
<path d="M40.9523 405.894L35.3916 402.689C34.7701 402.329 34.2794 401.38 34.2794 400.562C34.2794 399.745 34.7864 399.369 35.3916 399.712L40.9523 402.918C41.5738 403.277 42.0645 404.226 42.0645 405.044C42.0645 405.878 41.5574 406.254 40.9523 405.894Z" fill="#B2ED1D"/>
</g>
</g>
<path d="M274.223 747.226C271.904 745.896 268.165 745.896 265.86 747.226C263.563 748.556 263.578 750.713 265.89 752.043C268.202 753.372 271.948 753.372 274.246 752.043C276.551 750.713 276.536 748.556 274.223 747.226Z" stroke="#73B200" stroke-width="1.63424"/>
<path d="M297.864 733.573C295.544 732.243 291.806 732.243 289.501 733.573C287.204 734.902 287.218 737.06 289.531 738.389C291.843 739.719 295.589 739.719 297.886 738.389C300.191 737.067 300.176 734.91 297.864 733.573Z" fill="black" stroke="#73B200" stroke-width="1.63424"/>
<path d="M321.505 719.928C319.192 718.598 315.447 718.598 313.142 719.928C310.844 721.258 310.859 723.415 313.171 724.745C315.484 726.075 319.229 726.075 321.527 724.745C323.832 723.415 323.817 721.258 321.505 719.928Z" fill="black" stroke="#73B200" stroke-width="1.63424"/>
<path d="M345.147 706.276C342.827 704.946 339.089 704.946 336.784 706.276C334.487 707.605 334.501 709.763 336.814 711.092C339.134 712.422 342.872 712.422 345.169 711.092C347.474 709.77 347.46 707.613 345.147 706.276Z" fill="black" stroke="#73B200" stroke-width="1.63424"/>
<path d="M368.788 692.63C366.475 691.3 362.73 691.3 360.425 692.63C358.127 693.96 358.142 696.117 360.454 697.447C362.767 698.777 366.512 698.777 368.81 697.447C371.115 696.117 371.1 693.96 368.788 692.63Z" fill="black" stroke="#73B200" stroke-width="1.63424"/>
<path d="M392.428 678.978C390.109 677.648 386.371 677.648 384.066 678.978C381.768 680.308 381.783 682.465 384.095 683.795C386.415 685.124 390.153 685.124 392.451 683.795C394.756 682.472 394.741 680.308 392.428 678.978Z" fill="black" stroke="#73B200" stroke-width="1.63424"/>
<path d="M416.067 665.332C413.747 664.003 410.009 664.003 407.704 665.332C405.407 666.662 405.421 668.819 407.734 670.149C410.054 671.479 413.792 671.479 416.089 670.149C418.394 668.819 418.38 666.662 416.067 665.332Z" fill="black" stroke="#73B200" stroke-width="1.63424"/>
<path d="M439.708 651.68C437.388 650.35 433.65 650.35 431.345 651.68C429.047 653.01 429.062 655.167 431.374 656.497C433.687 657.827 437.432 657.827 439.73 656.497C442.035 655.174 442.02 653.01 439.708 651.68Z" fill="black" stroke="#73B200" stroke-width="1.63424"/>
<path d="M463.348 638.034C461.029 636.705 457.29 636.705 454.985 638.034C452.688 639.364 452.703 641.521 455.015 642.851C457.327 644.181 461.073 644.181 463.371 642.851C465.676 641.521 465.661 639.364 463.348 638.034Z" fill="black" stroke="#73B200" stroke-width="1.63424"/>
<path d="M486.989 624.381C484.669 623.051 480.931 623.051 478.626 624.381C476.329 625.711 476.343 627.868 478.656 629.198C480.975 630.528 484.714 630.528 487.011 629.198C489.316 627.868 489.301 625.711 486.989 624.381Z" fill="black" stroke="#73B200" stroke-width="1.63424"/>
<path d="M510.632 610.737C508.319 609.407 504.574 609.407 502.269 610.737C499.971 612.066 499.986 614.224 502.298 615.553C504.618 616.883 508.356 616.883 510.654 615.553C512.959 614.224 512.944 612.066 510.632 610.737Z" fill="black" stroke="#73B200" stroke-width="1.63424"/>
<path d="M534.272 597.084C531.952 595.754 528.214 595.754 525.909 597.084C523.612 598.414 523.626 600.571 525.939 601.901C528.259 603.231 531.997 603.231 534.294 601.901C536.599 600.571 536.585 598.414 534.272 597.084Z" fill="black" stroke="#73B200" stroke-width="1.63424"/>
<path d="M557.913 583.44C555.593 582.11 551.855 582.11 549.55 583.44C547.252 584.77 547.267 586.927 549.579 588.257C551.892 589.586 555.637 589.586 557.935 588.257C560.24 586.927 560.225 584.77 557.913 583.44Z" fill="black" stroke="#73B200" stroke-width="1.63424"/>
<path d="M581.553 569.786C579.234 568.457 575.496 568.457 573.191 569.786C570.893 571.116 570.908 573.273 573.22 574.603C575.54 575.933 579.278 575.933 581.576 574.603C583.881 573.273 583.866 571.116 581.553 569.786Z" fill="black" stroke="#73B200" stroke-width="1.63424"/>
<path d="M605.194 583.44C602.874 582.11 599.136 582.11 596.831 583.44C594.534 584.77 594.548 586.927 596.861 588.257C599.173 589.586 602.919 589.586 605.216 588.257C607.521 586.927 607.506 584.77 605.194 583.44Z" fill="black" stroke="#73B200" stroke-width="1.63424"/>
<path d="M628.835 597.084C626.515 595.754 622.777 595.754 620.472 597.084C618.174 598.414 618.189 600.571 620.501 601.901C622.821 603.231 626.559 603.231 628.857 601.901C631.162 600.571 631.147 598.414 628.835 597.084Z" fill="black" stroke="#73B200" stroke-width="1.63424"/>
<path d="M652.475 610.737C650.156 609.407 646.417 609.407 644.112 610.737C641.815 612.066 641.83 614.224 644.142 615.553C646.462 616.883 650.2 616.883 652.498 615.553C654.803 614.224 654.788 612.066 652.475 610.737Z" fill="black" stroke="#73B200" stroke-width="1.63424"/>
<path d="M676.116 624.381C673.804 623.051 670.058 623.051 667.753 624.381C665.455 625.711 665.47 627.868 667.783 629.198C670.095 630.528 673.841 630.528 676.138 629.198C678.443 627.868 678.428 625.711 676.116 624.381Z" fill="black" stroke="#73B200" stroke-width="1.63424"/>
<path d="M699.757 638.034C697.437 636.705 693.699 636.705 691.394 638.034C689.096 639.364 689.111 641.521 691.423 642.851C693.736 644.181 697.481 644.181 699.779 642.851C702.084 641.521 702.069 639.364 699.757 638.034Z" fill="black" stroke="#73B200" stroke-width="1.63424"/>
<path d="M723.399 651.68C721.079 650.35 717.341 650.35 715.036 651.68C712.739 653.01 712.753 655.167 715.066 656.497C717.378 657.827 721.124 657.827 723.421 656.497C725.726 655.174 725.712 653.01 723.399 651.68Z" fill="black" stroke="#73B200" stroke-width="1.63424"/>
<path d="M747.04 665.332C744.72 664.003 740.982 664.003 738.677 665.332C736.379 666.662 736.394 668.819 738.706 670.149C741.019 671.479 744.764 671.479 747.062 670.149C749.367 668.819 749.352 666.662 747.04 665.332Z" fill="black" stroke="#73B200" stroke-width="1.63424"/>
<path d="M770.68 678.978C768.368 677.648 764.622 677.648 762.317 678.978C760.02 680.308 760.035 682.465 762.347 683.795C764.659 685.124 768.405 685.124 770.703 683.795C773.008 682.472 772.993 680.308 770.68 678.978Z" fill="black" stroke="#73B200" stroke-width="1.63424"/>
<path d="M794.321 692.63C792.001 691.3 788.263 691.3 785.958 692.63C783.661 693.96 783.675 696.117 785.988 697.447C788.3 698.777 792.046 698.777 794.343 697.447C796.648 696.117 796.633 693.96 794.321 692.63Z" fill="black" stroke="#73B200" stroke-width="1.63424"/>
<path d="M817.962 706.276C815.642 704.946 811.904 704.946 809.599 706.276C807.301 707.605 807.316 709.763 809.628 711.092C811.941 712.422 815.686 712.422 817.984 711.092C820.289 709.77 820.274 707.613 817.962 706.276Z" fill="black" stroke="#73B200" stroke-width="1.63424"/>
<path d="M841.6 719.928C839.281 718.598 835.542 718.598 833.237 719.928C830.94 721.258 830.955 723.415 833.267 724.745C835.579 726.075 839.325 726.075 841.623 724.745C843.928 723.415 843.913 721.258 841.6 719.928Z" fill="black" stroke="#73B200" stroke-width="1.63424"/>
<path d="M865.241 733.573C862.921 732.243 859.183 732.243 856.878 733.573C854.58 734.902 854.595 737.06 856.908 738.389C859.227 739.719 862.966 739.719 865.263 738.389C867.568 737.067 867.553 734.91 865.241 733.573Z" fill="black" stroke="#73B200" stroke-width="1.63424"/>
<path d="M865.241 788.168C862.921 786.838 859.183 786.838 856.878 788.168C854.58 789.498 854.595 791.655 856.908 792.985C859.22 794.315 862.966 794.315 865.263 792.985C867.568 791.663 867.553 789.505 865.241 788.168Z" fill="black" stroke="#73B200" stroke-width="1.63424"/>
<path d="M841.6 801.821C839.281 800.491 835.542 800.491 833.237 801.821C830.94 803.15 830.955 805.308 833.267 806.637C835.579 807.967 839.325 807.967 841.623 806.637C843.928 805.308 843.913 803.15 841.6 801.821Z" fill="black" stroke="#73B200" stroke-width="1.63424"/>
<path d="M817.962 815.473C815.649 814.143 811.904 814.143 809.599 815.473C807.301 816.803 807.316 818.96 809.628 820.29C811.941 821.62 815.686 821.62 817.984 820.29C820.289 818.96 820.274 816.803 817.962 815.473Z" fill="black" stroke="#73B200" stroke-width="1.63424"/>
<path d="M794.321 829.118C792.001 827.789 788.263 827.789 785.958 829.118C783.661 830.448 783.675 832.605 785.988 833.935C788.3 835.265 792.046 835.265 794.343 833.935C796.648 832.605 796.633 830.448 794.321 829.118Z" fill="black" stroke="#73B200" stroke-width="1.63424"/>
<path d="M770.68 842.771C768.361 841.441 764.622 841.441 762.317 842.771C760.02 844.101 760.035 846.258 762.347 847.588C764.659 848.917 768.405 848.917 770.703 847.588C773.008 846.258 772.993 844.101 770.68 842.771Z" fill="black" stroke="#73B200" stroke-width="1.63424"/>
<path d="M747.04 856.416C744.72 855.086 740.982 855.086 738.677 856.416C736.379 857.746 736.394 859.903 738.706 861.233C741.019 862.563 744.764 862.563 747.062 861.233C749.367 859.903 749.352 857.746 747.04 856.416Z" fill="black" stroke="#73B200" stroke-width="1.63424"/>
<path d="M723.399 870.069C721.079 868.739 717.341 868.739 715.036 870.069C712.739 871.398 712.753 873.556 715.066 874.885C717.386 876.215 721.124 876.215 723.421 874.885C725.726 873.556 725.712 871.398 723.399 870.069Z" fill="black" stroke="#73B200" stroke-width="1.63424"/>
<path d="M699.757 883.713C697.437 882.383 693.699 882.383 691.394 883.713C689.096 885.043 689.111 887.2 691.423 888.53C693.743 889.86 697.481 889.86 699.779 888.53C702.084 887.2 702.069 885.043 699.757 883.713Z" fill="black" stroke="#73B200" stroke-width="1.63424"/>
<path d="M676.116 897.366C673.796 896.036 670.058 896.036 667.753 897.366C665.455 898.695 665.47 900.853 667.783 902.182C670.102 903.512 673.841 903.512 676.138 902.182C678.443 900.853 678.428 898.695 676.116 897.366Z" fill="black" stroke="#73B200" stroke-width="1.63424"/>
<path d="M652.475 911.011C650.156 909.681 646.417 909.681 644.112 911.011C641.815 912.341 641.83 914.498 644.142 915.828C646.462 917.158 650.2 917.158 652.498 915.828C654.803 914.498 654.788 912.341 652.475 911.011Z" fill="black" stroke="#73B200" stroke-width="1.63424"/>
<path d="M628.835 924.663C626.522 923.334 622.777 923.334 620.472 924.663C618.174 925.993 618.189 928.15 620.501 929.48C622.821 930.81 626.559 930.81 628.857 929.48C631.162 928.15 631.147 925.993 628.835 924.663Z" fill="black" stroke="#73B200" stroke-width="1.63424"/>
<path d="M605.194 938.309C602.874 936.979 599.136 936.979 596.831 938.309C594.534 939.639 594.548 941.796 596.861 943.126C599.173 944.455 602.919 944.455 605.216 943.126C607.521 941.796 607.506 939.639 605.194 938.309Z" fill="black" stroke="#73B200" stroke-width="1.63424"/>
<path d="M581.553 951.961C579.234 950.631 575.496 950.631 573.191 951.961C570.893 953.291 570.908 955.448 573.22 956.778C575.532 958.108 579.278 958.108 581.576 956.778C583.881 955.448 583.866 953.291 581.553 951.961Z" fill="black" stroke="#73B200" stroke-width="1.63424"/>
<path d="M557.913 938.309C555.593 936.979 551.855 936.979 549.55 938.309C547.252 939.639 547.267 941.796 549.579 943.126C551.892 944.455 555.637 944.455 557.935 943.126C560.24 941.796 560.225 939.639 557.913 938.309Z" fill="black" stroke="#73B200" stroke-width="1.63424"/>
<path d="M534.272 924.663C531.952 923.334 528.214 923.334 525.909 924.663C523.612 925.993 523.626 928.15 525.939 929.48C528.259 930.81 531.997 930.81 534.294 929.48C536.599 928.15 536.585 925.993 534.272 924.663Z" fill="black" stroke="#73B200" stroke-width="1.63424"/>
<path d="M510.632 911.011C508.312 909.681 504.574 909.681 502.269 911.011C499.971 912.341 499.986 914.498 502.298 915.828C504.611 917.158 508.356 917.158 510.654 915.828C512.959 914.498 512.944 912.341 510.632 911.011Z" fill="black" stroke="#73B200" stroke-width="1.63424"/>
<path d="M486.989 897.366C484.677 896.036 480.931 896.036 478.626 897.366C476.329 898.695 476.343 900.853 478.656 902.182C480.975 903.512 484.714 903.512 487.011 902.182C489.316 900.853 489.301 898.695 486.989 897.366Z" fill="black" stroke="#73B200" stroke-width="1.63424"/>
<path d="M463.348 883.713C461.029 882.383 457.29 882.383 454.985 883.713C452.688 885.043 452.703 887.2 455.015 888.53C457.327 889.86 461.073 889.86 463.371 888.53C465.676 887.2 465.661 885.043 463.348 883.713Z" fill="black" stroke="#73B200" stroke-width="1.63424"/>
<path d="M439.708 870.069C437.395 868.739 433.65 868.739 431.345 870.069C429.047 871.398 429.062 873.556 431.374 874.885C433.694 876.215 437.432 876.215 439.73 874.885C442.035 873.556 442.02 871.398 439.708 870.069Z" fill="black" stroke="#73B200" stroke-width="1.63424"/>
<path d="M416.067 856.416C413.747 855.086 410.009 855.086 407.704 856.416C405.407 857.746 405.421 859.903 407.734 861.233C410.046 862.563 413.792 862.563 416.089 861.233C418.394 859.903 418.38 857.746 416.067 856.416Z" fill="black" stroke="#73B200" stroke-width="1.63424"/>
<path d="M392.428 842.771C390.116 841.441 386.371 841.441 384.066 842.771C381.768 844.101 381.783 846.258 384.095 847.588C386.415 848.917 390.153 848.917 392.451 847.588C394.756 846.258 394.741 844.101 392.428 842.771Z" fill="black" stroke="#73B200" stroke-width="1.63424"/>
<path d="M368.788 829.118C366.468 827.789 362.73 827.789 360.425 829.118C358.127 830.448 358.142 832.605 360.454 833.935C362.774 835.265 366.512 835.265 368.81 833.935C371.115 832.605 371.1 830.448 368.788 829.118Z" fill="black" stroke="#73B200" stroke-width="1.63424"/>
<path d="M345.147 815.473C342.827 814.143 339.089 814.143 336.784 815.473C334.487 816.803 334.501 818.96 336.814 820.29C339.134 821.62 342.872 821.62 345.169 820.29C347.474 818.96 347.46 816.803 345.147 815.473Z" fill="black" stroke="#73B200" stroke-width="1.63424"/>
<path d="M321.505 801.821C319.185 800.491 315.447 800.491 313.142 801.821C310.844 803.15 310.859 805.308 313.171 806.637C315.491 807.967 319.229 807.967 321.527 806.637C323.832 805.308 323.817 803.15 321.505 801.821Z" fill="black" stroke="#73B200" stroke-width="1.63424"/>
<path d="M297.864 788.168C295.544 786.838 291.806 786.838 289.501 788.168C287.204 789.498 287.218 791.655 289.531 792.985C291.843 794.315 295.589 794.315 297.886 792.985C300.191 791.663 300.176 789.505 297.864 788.168Z" fill="black" stroke="#73B200" stroke-width="1.63424"/>
<path d="M274.223 774.523C271.904 773.193 268.165 773.193 265.86 774.523C263.563 775.853 263.578 778.01 265.89 779.34C268.202 780.669 271.948 780.669 274.246 779.34C276.551 778.01 276.536 775.853 274.223 774.523Z" stroke="#73B200" stroke-width="1.63424"/>
<path d="M250.583 760.869C248.263 759.54 244.525 759.54 242.22 760.869C239.922 762.199 239.937 764.356 242.249 765.686C244.569 767.016 248.307 767.016 250.605 765.686C252.91 764.364 252.895 762.207 250.583 760.869Z" fill="black" stroke="#73B200" stroke-width="1.63424"/>
<g opacity="0.5">
<path d="M256.47 755.173C261.939 758.471 261.868 763.64 256.321 766.735C250.773 769.822 241.829 769.655 236.361 766.365C230.893 763.066 230.963 757.889 236.511 754.802C242.068 751.715 251.002 751.883 256.47 755.173Z" fill="#94C518"/>
</g>
<path d="M253.331 756.928C257.088 759.195 257.044 762.749 253.225 764.875C249.406 767.001 243.267 766.886 239.501 764.619C235.744 762.353 235.788 758.798 239.607 756.673C243.426 754.547 249.565 754.662 253.331 756.928Z" fill="#A5DD1B"/>
<path d="M241.123 760.774H251.707V671.146H241.123V760.774Z" fill="url(#paint0_linear_10607_43264)"/>
<g opacity="0.5">
<path d="M589.621 948.547C595.089 951.845 595.019 957.014 589.471 960.109C583.923 963.196 574.98 963.029 569.512 959.739C564.043 956.44 564.114 951.263 569.661 948.176C575.218 945.089 584.153 945.257 589.621 948.547Z" fill="#94C518"/>
</g>
<path d="M586.481 950.301C590.239 952.568 590.194 956.122 586.375 958.248C582.556 960.374 576.418 960.259 572.652 957.992C568.894 955.726 568.939 952.171 572.758 950.046C576.577 947.92 582.715 948.035 586.481 950.301Z" fill="#A5DD1B"/>
<path d="M574.273 954.147H584.857V841.773H574.273V954.147Z" fill="url(#paint1_linear_10607_43264)"/>
<rect width="95.3277" height="95.3277" transform="matrix(-0.866025 0.5 2.98023e-08 -1 580.463 282.148)" fill="#212121"/>
<rect x="-2.12293" y="-1.46112e-07" width="92.8763" height="92.8763" transform="matrix(-0.866025 0.5 -0.866025 -0.5 659.058 235.546)" fill="#050B14" stroke="#B2ED1D" stroke-width="2.45135"/>
<rect x="-2.12293" y="-1.46112e-07" width="70.2537" height="70.2537" transform="matrix(-0.866025 0.5 -0.866025 -0.5 639.466 235.546)" fill="#B2ED1D" stroke="#B2ED1D" stroke-width="2.45135"/>
<rect x="-1.06147" y="0.612838" width="92.8763" height="92.8763" transform="matrix(-5.16191e-08 1 -0.866025 -0.5 579.967 284.07)" fill="#050B14" stroke="#B2ED1D" stroke-width="2.45135"/>
<rect x="-1.06147" y="-0.612839" width="92.8763" height="92.8764" transform="matrix(-0.866025 0.5 2.98023e-08 -1 661.039 329.118)" fill="#050B14" stroke="#B2ED1D" stroke-width="2.45135"/>
<path d="M364.619 525.927V775.165L580.464 899.774V650.546L364.619 525.927Z" fill="#282828" stroke="#7D7D7D" stroke-width="2.45135"/>
<path d="M580.463 899.774L796.308 775.165V525.927L580.463 650.546V899.774Z" fill="#0E0E0E" stroke="#7D7D7D" stroke-width="2.45135"/>
<path d="M795.083 587.523L580.464 711.435L365.845 587.523V585.561L579.852 709.118L580.464 709.472L581.077 709.118L795.083 585.561V587.523Z" stroke="#7D7D7D" stroke-width="2.45135"/>
<path d="M795.083 652.235L580.464 776.137L365.845 652.234V650.272L579.852 773.83L580.464 774.184L581.077 773.83L795.083 650.272V652.235Z" stroke="#7D7D7D" stroke-width="2.45135"/>
<path d="M795.083 716.937L580.464 840.848L365.845 716.937V714.974L579.852 838.531L580.464 838.885L581.077 838.531L795.083 714.974V716.937Z" stroke="#7D7D7D" stroke-width="2.45135"/>
<path d="M580.464 401.308L364.619 525.927L580.464 650.546L796.309 525.927L580.464 401.308ZM580.464 640.958L381.223 525.927L580.464 410.896L779.705 525.927L580.464 640.958Z" fill="#565656" stroke="#7D7D7D" stroke-width="2.45135"/>
<path d="M580.464 640.958L381.223 525.927L580.464 410.896V640.958Z" fill="#0E0E0E"/>
<path d="M580.463 640.958L779.704 525.927L580.463 410.896V640.958Z" fill="#282828"/>
<path d="M779.707 525.928L580.466 640.958L381.225 525.928V-44.4424H779.707V525.928Z" fill="url(#paint2_linear_10607_43264)"/>
<path d="M676.803 362.619V455.112L596.698 408.861V316.368L676.803 362.619Z" fill="#050B14" stroke="#B2ED1D" stroke-width="2.45135"/>
<path d="M759.359 408.861L679.255 455.112V362.619L759.359 316.368V408.861Z" fill="#050B14" stroke="#B2ED1D" stroke-width="2.45135"/>
<path d="M758.133 314.245L678.028 360.496L597.924 314.245L678.028 267.993L758.133 314.245Z" fill="#050B14" stroke="#B2ED1D" stroke-width="2.45135"/>
<path d="M481.674 362.619V455.112L401.569 408.861V316.368L481.674 362.619Z" fill="#050B14" stroke="#B2ED1D" stroke-width="2.45135"/>
<path d="M564.229 408.861L484.124 455.112V362.619L564.229 316.368V408.861Z" fill="#050B14" stroke="#B2ED1D" stroke-width="2.45135"/>
<path d="M563.004 314.245L482.899 360.496L402.795 314.245L482.899 267.993L563.004 314.245Z" fill="#050B14" stroke="#B2ED1D" stroke-width="2.45135"/>
<rect width="101.289" height="101.289" transform="matrix(0.866025 0.5 -0.866026 0.5 580.465 444.043)" fill="#050B14"/>
<rect x="1.06147" y="1.83852" width="98.8376" height="98.8375" transform="matrix(0.866025 0.5 -1.96876e-07 1 492.89 392.87)" fill="#050B14" stroke="#B2ED1D" stroke-width="2.45135"/>
<rect x="1.06147" y="1.83852" width="74.8003" height="74.8002" transform="matrix(0.866025 0.5 -1.96876e-07 1 503.297 410.898)" fill="#B2ED1D" stroke="#B2ED1D" stroke-width="2.45135"/>
<rect x="1.06147" y="0.612839" width="98.8375" height="98.8375" transform="matrix(0.866025 -0.5 -1.52815e-07 1 580.533 444.574)" fill="#050B14" stroke="#B2ED1D" stroke-width="2.45135"/>
<rect x="-2.19168e-07" y="1.22568" width="98.8376" height="98.8375" transform="matrix(0.866025 0.5 -0.866026 0.5 581.526 343.369)" fill="#050B14" stroke="#B2ED1D" stroke-width="2.45135"/>
<g opacity="0.7">
<path opacity="0.6" d="M255.213 725.946V976.519L-70.2936 1164.45V913.875L255.213 725.946Z" fill="#BEBEBE" fill-opacity="0.2"/>
<path d="M309.479 757.277V1007.85L-16.028 1195.78V945.207L309.479 757.277Z" fill="#54575E"/>
<path d="M363.713 788.589V1039.16L38.2064 1227.09V976.518L363.713 788.589Z" fill="#BEBEBE" fill-opacity="0.3"/>
<path d="M65.3329 1144.88V1148.8L119.584 1117.44V1113.52L65.3329 1144.88Z" fill="white" fill-opacity="0.5"/>
<path d="M65.3329 1133.15V1137.07L119.584 1105.7V1101.79L65.3329 1133.15Z" fill="white" fill-opacity="0.5"/>
<path d="M65.3329 1121.4V1125.32L119.584 1093.96V1090.04L65.3329 1121.4Z" fill="white" fill-opacity="0.5"/>
<path d="M65.3329 1109.62V1113.54L119.584 1082.19V1078.27L65.3329 1109.62Z" fill="white" fill-opacity="0.5"/>
<path d="M65.3329 1097.91V1101.82L119.584 1070.47V1066.56L65.3329 1097.91Z" fill="white" fill-opacity="0.5"/>
<path d="M83.3029 1031.41L83.4724 1075.56L101.596 1065.12L101.443 1021.11L83.3029 1031.41Z" fill="#94C518" fill-opacity="0.8"/>
<path d="M65.4003 1023.48L65.3325 1085.85L83.4727 1075.56L83.2862 1013.19L65.4003 1023.48Z" fill="#BBFF3F" fill-opacity="0.8"/>
<path d="M101.512 1033.96L101.596 1065.12L119.584 1054.72V1023.48L101.512 1033.96Z" fill="#5F9200" fill-opacity="0.8"/>
<g opacity="0.8">
<path d="M336.588 957.276C336.588 957.276 325.128 977.502 311.853 985.08C275.268 1005.95 271.674 967.364 247.888 980.401C225.323 992.76 222.475 1021.28 203.673 1032.13C185.363 1042.7 176.192 1022.07 159.306 1000.46C152.508 991.743 146.659 1008.36 146.659 1008.36V1133.15L336.707 1023.43L336.588 957.276Z" fill="#BBFF3F" fill-opacity="0.8"/>
<path d="M336.588 968.923C336.588 968.923 317.719 997.286 304.428 1004.95C279.693 1019.22 260.569 1001.56 241.683 1012.48C222.559 1023.51 214.71 1049.94 195.909 1060.79C184.855 1067.19 170.258 1046.72 161.798 1042.23C153.779 1037.96 146.777 1050.16 146.777 1050.16L146.659 1133.13L336.707 1023.41L336.588 968.923Z" fill="#94C518" fill-opacity="0.8"/>
<path d="M336.588 990.759C336.588 990.759 317.617 963.295 303.901 975.654C280.556 996.659 260.704 1045.5 241.818 1056.4C222.694 1067.44 202.367 1033.6 183.583 1044.45C164.374 1055.54 146.692 1089.84 146.692 1089.84V1133.15L336.74 1023.43L336.588 990.759Z" fill="#5F9200" fill-opacity="0.8"/>
</g>
</g>
</g>
<defs>
<filter id="filter0_f_10607_43264" x="-266.55" y="-139.049" width="1636.97" height="1308.78" filterUnits="userSpaceOnUse" color-interpolation-filters="sRGB">
<feFlood flood-opacity="0" result="BackgroundImageFix"/>
<feBlend mode="normal" in="SourceGraphic" in2="BackgroundImageFix" result="shape"/>
<feGaussianBlur stdDeviation="1.59338" result="effect1_foregroundBlur_10607_43264"/>
</filter>
<linearGradient id="paint0_linear_10607_43264" x1="245.58" y1="760.836" x2="247.25" y2="671.051" gradientUnits="userSpaceOnUse">
<stop stop-color="#B2ED1D" stop-opacity="0.4"/>
<stop offset="0.2852" stop-color="#73B200" stop-opacity="0.28"/>
<stop offset="0.4875" stop-color="#94C518" stop-opacity="0.2"/>
<stop offset="1" stop-color="#D9F68E" stop-opacity="0"/>
</linearGradient>
<linearGradient id="paint1_linear_10607_43264" x1="578.73" y1="954.225" x2="581.355" y2="841.675" gradientUnits="userSpaceOnUse">
<stop stop-color="#B2ED1D" stop-opacity="0.4"/>
<stop offset="0.2852" stop-color="#73B200" stop-opacity="0.28"/>
<stop offset="0.4875" stop-color="#94C518" stop-opacity="0.2"/>
<stop offset="1" stop-color="#D9F68E" stop-opacity="0"/>
</linearGradient>
<linearGradient id="paint2_linear_10607_43264" x1="580.465" y1="640.957" x2="580.465" y2="-44.4424" gradientUnits="userSpaceOnUse">
<stop stop-color="#6E9900" stop-opacity="0.4"/>
<stop offset="1" stop-color="white" stop-opacity="0"/>
</linearGradient>
<clipPath id="clip0_10607_43264">
<rect width="864" height="1117" fill="white"/>
</clipPath>
<clipPath id="clip1_10607_43264">
<rect width="1630.59" height="1302.41" fill="white" transform="translate(-263.363 -135.862)"/>
</clipPath>
</defs>
</svg>
