<svg width="452" height="452" viewBox="0 0 452 452" fill="none" xmlns="http://www.w3.org/2000/svg">
<path fill-rule="evenodd" clip-rule="evenodd" d="M179.01 276.189C175.613 276.189 172.55 275.496 169.801 274.13C167.053 272.763 164.147 270.407 161.104 267.06V298.585H144.867V212.208H160.004V221.396C161.968 218.247 164.618 215.693 167.976 213.733C171.333 211.772 175.044 210.782 179.127 210.782C186.254 210.782 192.302 213.634 197.269 219.317C202.236 225.02 204.73 232.941 204.73 243.119C204.73 253.575 202.217 261.694 197.23 267.476C192.203 273.298 186.137 276.189 179.01 276.189ZM184.33 228.644C181.758 225.456 178.558 223.871 174.749 223.871C170.783 223.871 167.485 225.436 164.873 228.564C162.262 231.693 160.947 236.307 160.947 242.446C160.947 249.476 162.321 254.664 165.05 258.03C167.779 261.397 171.117 263.06 175.044 263.06C178.813 263.06 181.955 261.516 184.468 258.426C186.981 255.337 188.218 250.288 188.218 243.258C188.198 236.683 186.902 231.812 184.33 228.644ZM117.615 265.397C115.377 268.743 112.452 271.377 108.8 273.298C105.168 275.219 101.319 276.189 97.2749 276.189C93.1518 276.189 89.4607 275.258 86.1819 273.417C82.9031 271.575 80.5471 268.981 79.0745 265.634C77.602 262.288 76.8756 257.674 76.8756 251.793V212.188H93.1126V240.941C93.1126 249.733 93.4071 255.139 94.0157 257.119C94.6047 259.1 95.7042 260.684 97.2749 261.832C98.8456 263.001 100.848 263.575 103.283 263.575C106.051 263.575 108.545 262.803 110.744 261.238C112.943 259.694 114.435 257.753 115.24 255.456C116.045 253.159 116.457 247.535 116.457 238.565V212.168H132.694V274.743H117.615V265.397ZM44.2249 235.535C52.8637 237.535 58.9108 239.99 62.3271 242.901C65.7237 245.852 67.4122 249.951 67.4122 255.218C67.4122 260.961 65.0561 265.892 60.3637 270.011C55.6713 274.13 48.721 276.189 39.5128 276.189C31.1489 276.189 24.5324 274.466 19.6632 271.001C14.7941 267.535 11.6135 262.842 10.1017 256.921L26.3976 254.387C27.0848 257.614 28.4984 260.05 30.6188 261.714C32.7392 263.377 35.7039 264.209 39.5128 264.209C43.7144 264.209 46.8754 263.417 48.9762 261.852C50.4095 260.743 51.1163 259.278 51.1163 257.436C51.1163 256.189 50.7236 255.139 49.9579 254.307C49.1529 253.515 47.3466 252.802 44.5194 252.129C31.4238 249.179 23.1188 246.486 19.624 244.05C14.7745 240.664 12.3399 235.971 12.3399 229.97C12.3399 224.545 14.4407 219.99 18.6423 216.307C22.8439 212.624 29.3426 210.762 38.1581 210.762C46.5613 210.762 52.7851 212.148 56.8689 214.94C60.9527 217.733 63.7603 221.851 65.3114 227.317L49.9972 230.208C49.3493 227.772 48.0927 225.911 46.2668 224.604C44.4409 223.317 41.8296 222.663 38.433 222.663C34.1529 222.663 31.09 223.277 29.2444 224.485C28.0075 225.357 27.3989 226.465 27.3989 227.852C27.3989 229.04 27.929 230.03 29.0088 230.862C30.5403 231.97 35.5861 233.535 44.2249 235.535Z" fill="#050B14"/>
<path fill-rule="evenodd" clip-rule="evenodd" d="M430.16 282.545C422.68 290.05 412.981 293.971 403.183 294.308V294.327H402.653C402.084 294.347 401.534 294.347 400.965 294.327H282.928C282.476 294.327 282.024 294.327 281.573 294.327H278.942V294.268C262.116 293.476 245.526 286.624 232.685 273.713C205.296 246.188 205.296 201.573 232.685 174.048C259.996 146.602 304.21 146.543 331.619 173.83C351.959 159.295 380.369 161.157 398.609 179.494C408.563 189.494 413.648 202.563 413.844 215.673C419.813 217.554 425.448 220.861 430.18 225.613C445.808 241.317 445.808 266.822 430.16 282.545ZM309.669 193.237C301.344 184.583 290.251 180.246 276.39 180.246C268.732 180.246 261.959 181.494 256.108 183.989C251.691 185.85 247.646 188.682 243.935 192.524C240.225 196.365 237.319 200.682 235.179 205.514C232.312 212.069 230.879 220.168 230.879 229.811C230.879 244.881 235.002 256.723 243.268 265.317C251.533 273.911 262.646 278.208 276.645 278.208C290.467 278.208 301.501 273.891 309.767 265.258C318.032 256.624 322.156 244.663 322.156 229.356C322.136 213.93 317.974 201.89 309.669 193.237ZM345.873 199.494C348.995 197.217 353.314 196.068 358.831 196.068C364.171 196.068 368.196 197.138 370.866 199.276C373.537 201.415 375.284 204.9 376.089 209.772L395.094 208.94C394.8 200.247 391.658 193.276 385.69 188.068C379.721 182.86 370.827 180.246 359.027 180.246C351.802 180.246 345.618 181.335 340.513 183.533C335.408 185.732 331.481 188.92 328.772 193.138C326.063 197.336 324.688 201.851 324.688 206.682C324.688 214.168 327.574 220.524 333.347 225.752C337.45 229.455 344.597 232.584 354.787 235.118C362.699 237.099 367.764 238.485 370.003 239.257C373.262 240.425 375.539 241.792 376.835 243.356C378.131 244.921 378.798 246.841 378.798 249.079C378.798 252.564 377.247 255.614 374.145 258.228C371.043 260.842 366.429 262.129 360.304 262.129C354.531 262.129 349.937 260.663 346.54 257.733C343.144 254.802 340.886 250.208 339.767 243.97L321.272 245.772C322.509 256.366 326.318 264.426 332.699 269.971C339.08 275.515 348.209 278.268 360.107 278.268C368.275 278.268 375.107 277.119 380.585 274.802C386.063 272.505 390.304 268.98 393.288 264.248C396.292 259.515 397.784 254.426 397.784 249C397.784 243.02 396.528 237.99 394.034 233.911C391.521 229.831 388.066 226.623 383.628 224.287C379.191 221.93 372.359 219.673 363.111 217.475C353.864 215.277 348.052 213.178 345.657 211.138C343.772 209.554 342.83 207.633 342.83 205.395C342.849 202.92 343.87 200.96 345.873 199.494ZM276.566 261.852C268.988 261.852 262.744 259.079 257.816 253.554C252.888 248.03 250.434 239.891 250.434 229.158C250.434 218.267 252.829 210.108 257.62 204.702C262.41 199.296 268.732 196.603 276.547 196.603C284.38 196.603 290.663 199.276 295.395 204.623C300.127 209.97 302.483 218.069 302.483 228.92C302.483 239.911 300.048 248.148 295.199 253.634C290.349 259.099 284.145 261.852 276.566 261.852Z" fill="#050B14"/>
</svg>
