<svg width="247" height="32" viewBox="0 0 247 32" fill="none" xmlns="http://www.w3.org/2000/svg">
<path d="M9.71751 31.8192V3.79661H0V0.180791H23.5028V3.79661H13.7853V31.8192H9.71751Z" fill="white"/>
<path d="M25.0653 32V28.3842L30.715 28.1582V3.84181L25.0653 3.61582V0L32.7489 0.361583L40.4326 0V3.61582L34.7828 3.84181V28.1582L40.4326 28.3842V32L32.7489 31.6384L25.0653 32Z" fill="white"/>
<path d="M43.8083 31.8192V0.180791H65.5032V3.79661H47.8761V13.7401H63.2433V17.3559H47.8761V28.2034H65.9551V31.8192H43.8083Z" fill="white"/>
<path d="M72.7383 17.3559H88.5575V3.79661H72.7383V17.3559ZM92.6253 3.79661V17.3559L89.5971 20.3842L95.1112 31.8192H90.727L85.6197 20.9718H72.7383V31.8192H68.6705V0.180791H89.0095L92.6253 3.79661Z" fill="white"/>
<path d="M106.192 28.2034V3.79661L109.808 0.180791H126.531L130.147 3.79661V28.2034L126.531 31.8192H109.808L106.192 28.2034ZM110.26 3.79661V28.2034H126.079V3.79661H110.26Z" fill="#B2ED1D"/>
<rect x="142.525" y="2.96875" width="104.378" height="26.063" rx="2.06302" fill="white"/>
<path d="M149.829 22V9.00298H158.741V10.4884H151.5V14.5731H157.813V16.0585H151.5V20.5146H158.927V22H149.829ZM160.042 22V11.6024H167.655L169.326 13.2734V22H167.655V13.0878H161.713V22H160.042ZM170.999 9.93134L172.67 9.00298V11.9737H177.498V13.4591H172.67V20.5146H177.498V22H172.67L170.999 20.329V9.93134ZM178.327 20.329V13.2734L179.998 11.6024H187.24V17.3582H179.998V20.5146H186.868V22H179.998L178.327 20.329ZM179.998 16.0585L185.643 15.8728V13.0878H179.998V16.0585ZM188.815 22V13.2734L190.486 11.6024H196.056V13.0878H190.486V22H188.815ZM196.979 24.5994V11.6024H204.685L206.356 13.2734V20.329L204.685 22H198.65V24.5994H196.979ZM204.685 13.0878H198.65V20.5146H204.685V13.0878ZM207.936 22V13.2734L209.607 11.6024H215.177V13.0878H209.607V22H207.936ZM216.101 22V11.6024H217.772V22H216.101ZM216.101 10.3027V8.81731H217.772V10.3027H216.101ZM219.349 22V20.5146H226.776V17.451H219.349V13.2734L221.02 11.6024H228.447V13.0878H221.02V15.9657H228.447V20.3847L226.832 22H219.349ZM229.925 20.329V13.2734L231.596 11.6024H238.837V17.3582H231.596V20.5146H238.466V22H231.596L229.925 20.329ZM231.596 16.0585L237.241 15.8728V13.0878H231.596V16.0585Z" fill="#070901"/>
</svg>
