<svg width="100" height="16" viewBox="0 0 100 16" fill="none" xmlns="http://www.w3.org/2000/svg">
<path d="M4.85876 15.9096V1.89831H0V0.0903957H11.7514V1.89831H6.89265V15.9096H4.85876Z" fill="white"/>
<path d="M12.5327 16V14.1921L15.3575 14.0791V1.9209L12.5327 1.80791V0L16.3745 0.180791L20.2163 0V1.80791L17.3914 1.9209V14.0791L20.2163 14.1921V16L16.3745 15.8192L12.5327 16Z" fill="white"/>
<path d="M21.9041 15.9096V0.0903957H32.7516V1.89831H23.938V6.87006H31.6216V8.67797H23.938V14.1017H32.9776V15.9096H21.9041Z" fill="white"/>
<path d="M36.3692 8.67797H44.2788V1.89831H36.3692V8.67797ZM46.3127 1.89831V8.67797L44.7985 10.1921L47.5556 15.9096H45.3635L42.8098 10.4859H36.3692V15.9096H34.3353V0.0903957H44.5048L46.3127 1.89831Z" fill="white"/>
<path d="M53.0959 14.1017V1.89831L54.9038 0.0903957H63.2654L65.0733 1.89831V14.1017L63.2654 15.9096H54.9038L53.0959 14.1017ZM55.1298 1.89831V14.1017H63.0394V1.89831H55.1298Z" fill="#73B200"/>
<rect x="71.2627" y="1.48438" width="28.1891" height="13.0315" rx="1.03151" fill="white"/>
<path d="M74.9144 11V4.50149H79.3706V5.24418H75.75V7.28657H78.9064V8.02925H75.75V10.2573H79.4634V11H74.9144ZM84.6629 4.50149V11H80.8102L79.9747 10.1645V6.63671L80.8102 5.80119H83.8274V4.50149H84.6629ZM80.8102 10.2573H83.8274V6.54388H80.8102V10.2573ZM85.778 12.2997V11.557H89.213V10.2573H86.2886L85.4531 9.42179V6.63671L86.3815 5.80119H90.0485V11.427L89.1758 12.2997H85.778ZM86.2886 6.54388V9.51463H89.213V6.54388H86.2886ZM90.8409 10.1645V6.63671L91.6764 5.80119H95.297V8.6791H91.6764V10.2573H95.1113V11H91.6764L90.8409 10.1645ZM91.6764 8.02925L94.4986 7.93642V6.54388H91.6764V8.02925Z" fill="#050B14"/>
</svg>
