<svg width="184" height="126" viewBox="0 0 184 126" fill="none" xmlns="http://www.w3.org/2000/svg">
<rect x="0.78125" y="0.600586" width="182.994" height="124.828" rx="7" fill="#161616"/>
<rect x="11.8633" y="9.60156" width="104.319" height="18.0754" rx="3" fill="#262626"/>
<rect x="120.533" y="9.60156" width="52.1595" height="18.0754" rx="3" fill="#262626"/>
<rect x="11.8633" y="32.4814" width="160.829" height="11.6064" rx="3" fill="#262626"/>
<rect x="11.8633" y="48.4229" width="160.829" height="45.7893" rx="3" fill="#262626"/>
<rect x="11.8633" y="98.5479" width="40.0713" height="6.77241" rx="3" fill="#262626"/>
<rect x="56.0332" y="98.5479" width="116.659" height="6.77241" rx="3" fill="#262626"/>
<rect x="11.8633" y="109.656" width="57.274" height="6.77241" rx="3" fill="#262626"/>
<rect x="72.9141" y="109.656" width="37.4001" height="6.77241" rx="3" fill="#262626"/>
<rect x="114.092" y="109.656" width="58.5999" height="6.77241" rx="3" fill="#262626"/>
<path d="M122.409 54.9795H104.832V59.6476H113.847L94.7887 77.3631L84.0168 67.3266C83.7833 67.1079 83.5056 66.9342 83.1997 66.8157C82.8937 66.6972 82.5655 66.6362 82.234 66.6362C81.9025 66.6362 81.5743 66.6972 81.2684 66.8157C80.9624 66.9342 80.6847 67.1079 80.4512 67.3266L62.1465 84.3652L65.6869 87.6563L82.234 72.2748L93.0059 82.3113C93.2394 82.53 93.5171 82.7037 93.8231 82.8222C94.129 82.9407 94.4572 83.0017 94.7887 83.0017C95.1202 83.0017 95.4484 82.9407 95.7544 82.8222C96.0603 82.7037 96.338 82.53 96.5715 82.3113L117.387 62.9386V71.3179H122.409V54.9795Z" fill="#6F6F6F"/>
</svg>
