<svg width="184" height="126" viewBox="0 0 184 126" fill="none" xmlns="http://www.w3.org/2000/svg">
<g id="Group 5">
<g id="Group 4">
<rect id="Rectangle 6759" x="0.468262" y="0.958008" width="182.994" height="124.828" rx="7" fill="white"/>
<g id="Group 2">
<rect id="Rectangle 6762" x="11.5513" y="9.95898" width="104.319" height="18.0754" rx="3" fill="#BBD6FF"/>
<rect id="Rectangle 6764" x="120.221" y="9.95898" width="52.1595" height="18.0754" rx="3" fill="#BBD6FF"/>
<rect id="Rectangle 6763" x="11.5513" y="32.8389" width="160.829" height="11.6064" rx="3" fill="#BBD6FF"/>
<rect id="Rectangle 6765" x="11.5513" y="48.7803" width="160.829" height="45.7893" rx="3" fill="#BBD6FF"/>
<rect id="Rectangle 6766" x="11.5513" y="98.9053" width="40.0713" height="6.77241" rx="3" fill="#BBD6FF"/>
<rect id="Rectangle 6767" x="55.7207" y="98.9053" width="116.659" height="6.77241" rx="3" fill="#BBD6FF"/>
<rect id="Rectangle 6768" x="11.5513" y="110.014" width="57.274" height="6.77241" rx="3" fill="#BBD6FF"/>
<rect id="Rectangle 6769" x="72.603" y="110.014" width="37.4001" height="6.77241" rx="3" fill="#BBD6FF"/>
<rect id="Rectangle 6770" x="113.78" y="110.014" width="58.5999" height="6.77241" rx="3" fill="#BBD6FF"/>
</g>
</g>
<path id="Vector" d="M122.097 55.3369H104.52V60.005H113.534L94.4762 77.7205L83.7043 67.6841C83.4708 67.4653 83.1931 67.2917 82.8872 67.1732C82.5812 67.0547 82.253 66.9937 81.9215 66.9937C81.59 66.9937 81.2618 67.0547 80.9559 67.1732C80.6499 67.2917 80.3722 67.4653 80.1387 67.6841L61.834 84.7227L65.3744 88.0137L81.9215 72.6323L92.6934 82.6687C92.9269 82.8875 93.2046 83.0611 93.5106 83.1796C93.8165 83.2981 94.1447 83.3591 94.4762 83.3591C94.8077 83.3591 95.1359 83.2981 95.4419 83.1796C95.7478 83.0611 96.0255 82.8875 96.259 82.6687L117.075 63.296V71.6753H122.097V55.3369Z" fill="white" fill-opacity="0.9"/>
</g>
</svg>
