<svg xmlns="http://www.w3.org/2000/svg" width="184" height="126" viewBox="0 0 184 126" fill="none">
  <rect x="0.468262" y="0.746094" width="182.994" height="124.828" rx="7" fill="white"/>
  <rect x="11.5513" y="9.74609" width="104.319" height="18.0754" rx="3" fill="#E8E8E8"/>
  <rect x="120.221" y="9.74609" width="52.1595" height="18.0754" rx="3" fill="#E8E8E8"/>
  <rect x="11.5513" y="32.625" width="160.829" height="11.6064" rx="3" fill="#E8E8E8"/>
  <rect x="11.5513" y="48.5684" width="160.829" height="45.7893" rx="3" fill="#E8E8E8"/>
  <rect x="11.5513" y="98.6934" width="40.0713" height="6.77241" rx="3" fill="#E8E8E8"/>
  <rect x="55.7207" y="98.6914" width="116.659" height="6.77241" rx="3" fill="#E8E8E8"/>
  <rect x="11.5513" y="109.801" width="57.274" height="6.77241" rx="3" fill="#E8E8E8"/>
  <rect x="72.603" y="109.801" width="37.4001" height="6.77241" rx="3" fill="#E8E8E8"/>
  <rect x="113.78" y="109.801" width="58.5999" height="6.77241" rx="3" fill="#E8E8E8"/>
  <path d="M122.097 55.125H104.52V59.7931H113.534L94.4762 77.5086L83.7043 67.4721C83.4708 67.2534 83.1931 67.0797 82.8872 66.9612C82.5812 66.8427 82.253 66.7817 81.9215 66.7817C81.59 66.7817 81.2618 66.8427 80.9559 66.9612C80.6499 67.0797 80.3722 67.2534 80.1387 67.4721L61.834 84.5107L65.3744 87.8018L81.9215 72.4203L92.6934 82.4568C92.9269 82.6755 93.2046 82.8492 93.5106 82.9677C93.8165 83.0862 94.1447 83.1472 94.4762 83.1472C94.8077 83.1472 95.1359 83.0862 95.4419 82.9677C95.7478 82.8492 96.0255 82.6755 96.259 82.4568L117.075 63.0841V71.4634H122.097V55.125Z" fill="white" fill-opacity="0.9"/>
</svg>