<svg width="184" height="126" viewBox="0 0 184 126" fill="none" xmlns="http://www.w3.org/2000/svg">
<rect x="0.46875" y="0.976562" width="182.994" height="124.828" rx="7" fill="white"/>
<rect x="11.5518" y="9.97656" width="104.319" height="18.0754" rx="3" fill="#E5F9B4"/>
<rect x="120.221" y="9.97656" width="52.1595" height="18.0754" rx="3" fill="#E5F9B4"/>
<rect x="11.5518" y="32.8555" width="160.829" height="11.6064" rx="3" fill="#E5F9B4"/>
<rect x="11.5518" y="48.7988" width="160.829" height="45.7893" rx="3" fill="#E5F9B4"/>
<rect x="11.5518" y="98.9238" width="40.0713" height="6.77241" rx="3" fill="#E5F9B4"/>
<rect x="55.7217" y="98.9219" width="116.659" height="6.77241" rx="3" fill="#E5F9B4"/>
<rect x="11.5518" y="110.031" width="57.274" height="6.77241" rx="3" fill="#E5F9B4"/>
<rect x="72.6035" y="110.031" width="37.4001" height="6.77241" rx="3" fill="#E5F9B4"/>
<rect x="113.78" y="110.031" width="58.5999" height="6.77241" rx="3" fill="#E5F9B4"/>
<path d="M122.098 55.3555H104.521V60.0236H113.535L94.4772 77.739L83.7052 67.7026C83.4718 67.4838 83.1941 67.3102 82.8881 67.1917C82.5821 67.0732 82.254 67.0122 81.9225 67.0122C81.591 67.0122 81.2628 67.0732 80.9568 67.1917C80.6508 67.3102 80.3731 67.4838 80.1397 67.7026L61.835 84.7412L65.3754 88.0322L81.9225 72.6508L92.6944 82.6872C92.9278 82.906 93.2055 83.0797 93.5115 83.1981C93.8175 83.3166 94.1457 83.3777 94.4772 83.3777C94.8087 83.3777 95.1368 83.3166 95.4428 83.1981C95.7488 83.0797 96.0265 82.906 96.2599 82.6872L117.076 63.3146V71.6938H122.098V55.3555Z" fill="white" fill-opacity="0.9"/>
</svg>
