<?xml version="1.0" encoding="UTF-8"?>
<svg width="50.3225806px" height="20px" viewBox="0 0 50.3225806 20" version="1.1" xmlns="http://www.w3.org/2000/svg" xmlns:xlink="http://www.w3.org/1999/xlink">
    <title>logo</title>
    <g id="页面-1" stroke="none" stroke-width="1" fill="none" fill-rule="evenodd">
        <g id="方案2" transform="translate(-1006, -25)" fill="#000000">
            <g id="menu" transform="translate(994, 10)">
                <path d="M39.7879113,17.6635647 C43.0666474,14.2168417 48.4986937,14.0998565 51.9206647,17.4022426 C52.6831471,16.9980994 53.5317483,16.7867269 54.393346,16.7863824 C57.3282912,16.7852112 59.7084924,19.180652 59.7096552,22.1367674 C59.7096552,22.2972948 59.7014469,22.5342966 59.6884505,22.6879345 C61.4552866,23.2880176 62.9143115,26.0652104 62.0825373,28.4530727 C61.1371466,31.1662613 59.3224972,32.2775518 55.4180835,32.2775518 L45.6241478,32.2858193 C40.2942265,32.2858193 37.402922,27.7538484 37.402922,23.6428313 C37.402922,21.4146008 38.2574058,19.2724902 39.7879113,17.6635647 Z M54.3380084,19.218338 C53.5144425,19.218338 52.8044247,19.3437285 52.2271078,19.5910647 C51.6600512,19.8342672 51.2209073,20.1918368 50.9213044,20.6541281 C50.6271053,21.0958196 50.4690272,21.6152256 50.4671119,22.1471018 C50.4671119,22.9834978 50.7817633,23.6738345 51.4294664,24.2573826 C51.8891995,24.6714468 52.7147491,25.0283275 53.8775913,25.3190681 C54.8229819,25.5553809 55.4132954,25.7152194 55.6820487,25.8089178 C56.0986882,25.9577329 56.3859103,26.1327284 56.561089,26.3428608 C56.7418084,26.562432 56.8377086,26.840358 56.8312788,27.125518 C56.8312788,27.5871204 56.6171106,27.9998067 56.2224967,28.3311959 C55.8278144,28.6625162 55.2436572,28.830691 54.4864417,28.830691 C53.7682157,28.830691 53.1861106,28.6432942 52.755859,28.2733233 C52.4728779,28.0204066 52.2551528,27.7022454 52.1210839,27.3459848 C52.0883191,27.2656522 52.0102719,27.213498 51.9240848,27.2143937 C51.9047269,27.2145315 51.885369,27.2170806 51.8666267,27.2219722 L50.6791596,27.5423381 C50.563149,27.570861 50.4653335,27.6488511 50.4110219,27.7559153 C50.3594464,27.8631173 50.3569839,27.9877499 50.4041816,28.0969499 C50.6082946,28.6176649 50.933138,29.0816098 51.351556,29.4500649 C52.0656779,30.0694389 53.1129199,30.3836041 54.4638689,30.3836041 C55.3974944,30.3836041 56.1855594,30.251324 56.8059699,29.9902086 C57.3875962,29.7576161 57.8826934,29.3482368 58.2225853,28.8189787 C58.5493439,28.3136274 58.7237019,27.7238098 58.7246595,27.1206953 C58.7246595,26.4530942 58.5823823,25.8874591 58.3087724,25.438878 C58.0251757,24.9823739 57.6237216,24.6120586 57.1472983,24.367616 C56.6418039,24.099611 55.843547,23.8350508 54.7757158,23.582203 C53.6552832,23.3148869 52.9603824,23.0599722 52.6552389,22.8029906 C52.4074167,22.6093932 52.2622666,22.3114185 52.2619246,21.9955309 C52.2547424,21.6638661 52.414941,21.3510099 52.6874565,21.1646466 C53.0814548,20.8766618 53.6286746,20.7299136 54.3126994,20.7299136 C54.9782556,20.7299136 55.4919582,20.8677053 55.8339706,21.1432889 C56.0759786,21.3451538 56.2586132,21.6098517 56.3620378,21.9087221 C56.4000696,22.0152351 56.5125232,22.0748989 56.6212832,22.0465138 L58.0741519,21.6544963 C58.1328412,21.6399592 58.1826382,21.6008264 58.2109569,21.5470187 C58.2403015,21.491902 58.2452265,21.4268643 58.224569,21.3678894 C58.054794,20.8736993 57.7573116,20.4339369 57.3627661,20.0940046 C56.6958419,19.5132124 55.678013,19.218338 54.3380084,19.218338 Z M44.5297081,19.1542648 C43.6508046,19.1542648 42.8662282,19.2982572 42.1972519,19.5827972 C41.6758882,19.8084312 41.2054159,20.1381669 40.8141537,20.5521622 C40.3960093,20.9835193 40.0568014,21.4859081 39.8120574,22.0361794 C39.4844095,22.7830108 39.3181914,23.7248174 39.3181914,24.83473 C39.3181914,26.5605718 39.7955724,27.9329777 40.7348068,28.9085433 C41.6739045,29.884109 42.9606236,30.3787814 44.5598736,30.3787814 C46.1365508,30.3787814 47.4129411,29.8813531 48.3521072,28.9008959 C49.2926413,27.9191296 49.7694066,26.5330134 49.7714587,24.7816802 C49.7714587,23.0151899 49.2899052,21.6186704 48.3432149,20.6355262 C47.3964561,19.652382 46.113294,19.1542648 44.5297081,19.1542648 Z M44.5503041,20.7402342 C45.5229874,20.7402342 46.3198763,21.0826467 46.9054015,21.7433582 C47.4908584,22.4040697 47.7877252,23.4078826 47.7877252,24.7272387 C47.7877252,26.059685 47.4827185,27.0807219 46.8828287,27.7587262 C46.2774668,28.447685 45.4928219,28.7921644 44.5503041,28.7921644 C43.6077179,28.7921644 42.8141807,28.4379707 42.2060827,27.7545236 C41.598053,27.0710765 41.2895578,26.0631298 41.2895578,24.7582418 C41.2895578,23.434063 41.5856721,22.4254274 42.1835098,21.7550705 C42.7814159,21.0847136 43.5775524,20.7402342 44.5503041,20.7402342 Z M25.3209916,28.4296894 L25.3209916,29.6251018 C25.3206496,29.7327172 25.407042,29.8203527 25.513955,29.8205609 C25.5312609,29.8205609 25.5484983,29.8183547 25.5651885,29.8138076 L26.9694914,29.4348803 C27.1389244,29.3893401 27.2567819,29.2347378 27.2567819,29.0580198 L27.2567819,21.7874378 C27.2565767,21.679409 27.1694319,21.5919113 27.0621768,21.5921176 C27.0454182,21.5921176 27.028728,21.5943226 27.012585,21.5986631 L25.4605327,22.018239 C25.2910998,22.063848 25.1731739,22.2184504 25.1732423,22.3950994 L25.1732423,24.9897182 C25.1732423,26.1380058 25.1212564,26.8595523 25.0172846,27.1544267 C24.9072934,27.4567418 24.7046169,27.7159281 24.4385996,27.8943684 C24.1585599,28.0929264 23.8233877,28.1973725 23.4809649,28.1927565 C23.2067393,28.2035731 22.9362759,28.125583 22.7093849,27.9701539 C22.5068451,27.8214077 22.3595062,27.6087261 22.2907617,27.3660059 C22.2141509,27.1119868 22.1758455,26.4206856 22.1758455,25.2921711 L22.1758455,21.8205078 C22.1756403,21.712479 22.088564,21.6249813 21.9812405,21.625188 C21.9644819,21.625188 21.9478601,21.6274615 21.9316487,21.6317331 L20.3795964,22.05062 C20.2098898,22.096298 20.0919639,22.2512448 20.0923052,22.4281694 L20.0923052,26.6845568 C20.0923052,27.4406202 20.1862226,28.0323669 20.3741242,28.4600036 C20.5592897,28.8853668 20.8801657,29.2362535 21.2859292,29.456927 C21.7221319,29.6981314 22.2131933,29.8206972 22.7107529,29.8124297 C23.2266445,29.812912 23.7347381,29.6855924 24.1902986,29.4417699 C24.6456539,29.2055948 25.0345904,28.8574639 25.3209916,28.4296894 M34.3678902,26.9691519 C34.290185,27.2950294 34.158647,27.6054742 33.9786801,27.8874651 C33.8218332,28.1348013 33.6133424,28.344727 33.3678459,28.5027742 C33.1344566,28.6506936 32.8638564,28.7282015 32.5880576,28.7260426 C32.3110276,28.7275125 32.0387173,28.6534495 31.800061,28.5117306 C31.5529913,28.363949 31.341354,28.1630486 31.1803345,27.9233598 C31.0003676,27.6549415 30.8630838,27.3599982 30.7733398,27.0490022 C30.6708044,26.7019048 30.6200498,26.3413038 30.6228543,25.9791181 L30.6228543,25.8543477 C30.6207338,25.4781073 30.6684104,25.1032448 30.7644474,24.7396813 C30.8466672,24.4165596 30.9811465,24.109284 31.1625499,23.8301868 C31.3230905,23.5849175 31.5348646,23.3778164 31.7829604,23.2232141 C32.0258576,23.0745368 32.3052133,22.9974423 32.5894257,23.0006804 C32.8650877,22.9986135 33.1356195,23.0757769 33.3692139,23.2232141 C33.612932,23.3800211 33.8210807,23.5869154 33.9800481,23.8301868 C34.1609727,24.1084572 34.2926474,24.4161462 34.3692582,24.7396813 C34.5462154,25.4721134 34.5462154,26.2366509 34.3692582,26.9691519 L34.3678902,26.9691519 Z M36.2708472,24.0616769 C36.1069549,23.5345546 35.8489407,23.041949 35.5095276,22.6080428 C35.1780492,22.1914294 34.7571003,21.8559754 34.2782829,21.6268966 C33.7605445,21.3829363 33.194514,21.2606461 32.6229429,21.2693959 C32.2756635,21.2742875 31.9316674,21.3376028 31.6051139,21.4567927 C31.2516099,21.5779116 30.9197895,21.7553874 30.6221703,21.9824682 L30.6221703,21.6248986 C30.6219651,21.516801 30.5348887,21.4293721 30.4276336,21.4295099 C30.4108066,21.4295788 30.3941848,21.4317146 30.3779734,21.436055 L28.8909035,21.8377869 C28.7211969,21.8833959 28.603271,22.0384117 28.6036123,22.2153363 L28.6036123,34.8046802 C28.6034078,34.9122955 28.6898686,34.9998622 28.7967817,35 C28.8138139,35 28.8307093,34.9977953 28.8471259,34.9934549 L30.3321438,34.5917919 C30.5015083,34.5459762 30.619229,34.3914427 30.6194342,34.2149315 L30.6194342,29.7435889 C31.2055066,30.1950636 31.9201074,30.4448112 32.6578281,30.4559034 C33.2267316,30.4656866 33.7902996,30.3436031 34.3049599,30.0990917 C34.78152,29.8689105 35.2004852,29.5335943 35.5307324,29.1179455 C35.8711031,28.6829369 36.1263812,28.1868866 36.2831597,27.6560438 C36.4578596,27.0718068 36.5442519,26.4644896 36.539669,25.8543477 C36.5438415,25.2463416 36.4530714,24.6414358 36.2708472,24.0616769 L36.2708472,24.0616769 Z M18.430112,25.5443438 C17.9896,25.1714104 17.2143947,24.8565562 16.1044276,24.5997813 C14.9944605,24.3430064 14.3455946,24.1441729 14.157693,24.003143 C14.030738,23.9164031 13.9540588,23.7725485 13.9524855,23.618015 C13.9514595,23.4427439 14.0411351,23.2795985 14.1891581,23.1874158 C14.4267199,23.0308155 14.8196238,22.9526875 15.3677329,22.9531698 C15.8027726,22.9531698 16.1377396,23.0363271 16.3725653,23.2025729 C16.513406,23.3019207 16.6303059,23.4318584 16.7145777,23.5828781 C16.7571241,23.6620395 16.8473469,23.7022747 16.9341497,23.6807103 L18.4793617,23.267335 C18.5826495,23.2410857 18.6453062,23.1354683 18.6191764,23.0314355 C18.6157563,23.0177252 18.6108313,23.0044283 18.6045383,22.9917515 C18.4102068,22.5767916 18.1090307,22.2218401 17.7324067,21.963825 C17.2084436,21.606531 16.4074506,21.4276084 15.3294275,21.4271261 C14.1971612,21.4271261 13.3610777,21.6639212 12.8211085,22.1374426 C12.2811393,22.610964 12.0123859,23.1943054 12.0146432,23.8873979 C12.0146432,24.6576538 12.3260797,25.2593216 12.9490211,25.6924699 C13.3991094,26.0048439 14.4646149,26.3493232 16.1454691,26.7259081 C16.5062238,26.8114079 16.7385186,26.9045551 16.8424904,27.0056254 C16.9444101,27.1147565 16.9988584,27.2603335 16.9936598,27.4100442 C17.0005685,27.6327157 16.8982384,27.8445016 16.7200499,27.9763683 C16.44644,28.1784399 16.0410185,28.2793035 15.5038538,28.2788212 C15.014092,28.2788212 14.6332954,28.1718259 14.3615324,27.9577664 C14.2034542,27.8332716 14.0745839,27.6751555 13.9839507,27.494855 C13.9426356,27.4118355 13.849403,27.3693267 13.7602745,27.3928202 L12.1432399,27.8289311 C12.0394049,27.8577296 11.9784583,27.9658272 12.0070505,28.0704112 C12.0112231,28.0857061 12.0172425,28.1003809 12.0249036,28.1141601 C12.2510422,28.5260885 12.5687717,28.8798 12.9531253,29.1475983 C13.5783239,29.5908054 14.4274039,29.8124435 15.5004337,29.8124435 C16.6815393,29.8124435 17.5737129,29.5478833 18.1770228,29.0188319 C18.7803327,28.4896426 19.0819876,27.8585564 19.0819876,27.1255042 C19.0819876,26.4489467 18.8647413,25.9218932 18.430112,25.5443438" id="logo"></path>
            </g>
        </g>
    </g>
</svg>