<svg width="17" height="16" viewBox="0 0 17 16" fill="none" xmlns="http://www.w3.org/2000/svg">
<rect width="16" height="16" transform="translate(0.5)" fill="white" fill-opacity="0.01" style="mix-blend-mode:multiply"/>
<path d="M11.0088 2H10.0088V14H11.0088V2Z" fill="#525252"/>
<path d="M7.00879 3V13H5.00879V3H7.00879ZM7.00879 2H5.00879C4.74357 2 4.48922 2.10536 4.30168 2.29289C4.11415 2.48043 4.00879 2.73478 4.00879 3V13C4.00879 13.2652 4.11415 13.5196 4.30168 13.7071C4.48922 13.8946 4.74357 14 5.00879 14H7.00879C7.27401 14 7.52836 13.8946 7.7159 13.7071C7.90343 13.5196 8.00879 13.2652 8.00879 13V3C8.00879 2.73478 7.90343 2.48043 7.7159 2.29289C7.52836 2.10536 7.27401 2 7.00879 2Z" fill="#525252"/>
</svg>
