<svg width="21" height="20" viewBox="0 0 21 20" fill="none" xmlns="http://www.w3.org/2000/svg">
<rect width="20" height="20" transform="translate(0.5)" fill="white" fill-opacity="0.01" style="mix-blend-mode:multiply"/>
<path fill-rule="evenodd" clip-rule="evenodd" d="M2.7537 7.75562V10.6115H7.292V7.75562H2.7537ZM1.5 10.6115V11.8652V15.4017C1.5 15.9146 1.91578 16.3304 2.42866 16.3304H18.5713C19.0842 16.3304 19.5 15.9146 19.5 15.4017V2.92866C19.5 2.41578 19.0842 2 18.5713 2H2.42866C1.91578 2 1.5 2.41578 1.5 2.92866V6.50192V7.75562V10.6115ZM7.29199 11.8652H2.7537V15.0767H7.29199V11.8652ZM2.7537 6.50192H7.292V3.2537H2.7537V6.50192ZM18.2463 15.0767H8.54569L8.54569 3.2537H18.2463V15.0767ZM16.147 8.44232C16.3888 8.20054 16.3888 7.80854 16.147 7.56676C15.9052 7.32499 15.5132 7.32499 15.2714 7.56676L13.3875 9.45065L11.5037 7.56676C11.2619 7.32499 10.8699 7.32499 10.6281 7.56676C10.3863 7.80854 10.3863 8.20054 10.6281 8.44232L12.9498 10.764C13.1916 11.0058 13.5835 11.0058 13.8253 10.764L16.147 8.44232Z" fill="white"/>
</svg>
