<svg width="17" height="16" viewBox="0 0 17 16" fill="none" xmlns="http://www.w3.org/2000/svg">
<rect width="16" height="16" transform="translate(0.5)" fill="white" fill-opacity="0.01" style="mix-blend-mode:multiply"/>
<path d="M7.00879 3V13H5.00879V3H7.00879ZM7.00879 2H5.00879C4.74357 2 4.48922 2.10536 4.30168 2.29289C4.11415 2.48043 4.00879 2.73478 4.00879 3V13C4.00879 13.2652 4.11415 13.5196 4.30168 13.7071C4.48922 13.8946 4.74357 14 5.00879 14H7.00879C7.27401 14 7.52836 13.8946 7.7159 13.7071C7.90343 13.5196 8.00879 13.2652 8.00879 13V3C8.00879 2.73478 7.90343 2.48043 7.7159 2.29289C7.52836 2.10536 7.27401 2 7.00879 2Z" fill="#525252"/>
<path d="M11.9914 3V13H9.99145V3H11.9914ZM11.9914 2H9.99145C9.72623 2 9.47188 2.10536 9.28434 2.29289C9.0968 2.48043 8.99145 2.73478 8.99145 3V13C8.99145 13.2652 9.0968 13.5196 9.28434 13.7071C9.47188 13.8946 9.72623 14 9.99145 14H11.9914C12.2567 14 12.511 13.8946 12.6986 13.7071C12.8861 13.5196 12.9914 13.2652 12.9914 13V3C12.9914 2.73478 12.8861 2.48043 12.6986 2.29289C12.511 2.10536 12.2567 2 11.9914 2Z" fill="#525252"/>
</svg>
