<svg width="20" height="21" viewBox="0 0 20 21" fill="none" xmlns="http://www.w3.org/2000/svg">
<path fill-rule="evenodd" clip-rule="evenodd" d="M2.2537 8.26734V11.1232H6.792V8.26734H2.2537ZM1 11.1232V12.3769V15.9134C1 16.4263 1.41578 16.8421 1.92866 16.8421H18.0713C18.5842 16.8421 19 16.4263 19 15.9134V3.44038C19 2.9275 18.5842 2.51172 18.0713 2.51172H1.92866C1.41578 2.51172 1 2.9275 1 3.44038V7.01364V8.26734V11.1232ZM6.79199 12.3769H2.2537V15.5884H6.79199V12.3769ZM2.2537 7.01364H6.792V3.76542H2.2537V7.01364ZM17.7463 15.5884H8.04569L8.04569 3.76542H17.7463V15.5884ZM15.647 8.95404C15.8888 8.71226 15.8888 8.32026 15.647 8.07848C15.4052 7.83671 15.0132 7.83671 14.7714 8.07848L12.8875 9.96237L11.0037 8.07848C10.7619 7.83671 10.3699 7.8367 10.1281 8.07848C9.88633 8.32026 9.88633 8.71226 10.1281 8.95404L12.4498 11.2757C12.6916 11.5175 13.0835 11.5175 13.3253 11.2757L15.647 8.95404Z" fill="#161616"/>
</svg>
