<svg width="20" height="21" viewBox="0 0 20 21" fill="none" xmlns="http://www.w3.org/2000/svg">
<path fill-rule="evenodd" clip-rule="evenodd" d="M2 2.90234C1.11082 2.90234 0.389999 3.62316 0.389999 4.51234V13.5123C0.389999 14.4015 1.11082 15.1223 2 15.1223H6V13.9023H2C1.78461 13.9023 1.61 13.7277 1.61 13.5123V4.51234C1.61 4.29695 1.78461 4.12234 2 4.12234H15C15.2154 4.12234 15.39 4.29695 15.39 4.51234V8.51234H16.61V4.51234C16.61 3.62317 15.8892 2.90234 15 2.90234H2ZM8.22 15.2923V10.7323H17.78V15.2923H8.22ZM7 10.5123C7 9.96006 7.44771 9.51234 8 9.51234H18C18.5523 9.51234 19 9.96006 19 10.5123V15.5123C19 16.0646 18.5523 16.5123 18 16.5123H8C7.44771 16.5123 7 16.0646 7 15.5123V10.5123Z" fill="black"/>
</svg>
