<svg width="20" height="20" viewBox="0 0 20 20" fill="none" xmlns="http://www.w3.org/2000/svg">
<g id="up">
<rect width="20" height="20" fill="white" fill-opacity="0.01" style="mix-blend-mode:multiply"/>
<path id="Union" fill-rule="evenodd" clip-rule="evenodd" d="M2.2537 7.75562V10.6115H6.792V7.75562H2.2537ZM1 10.6115V11.8652V15.4017C1 15.9146 1.41578 16.3304 1.92866 16.3304H18.0713C18.5842 16.3304 19 15.9146 19 15.4017V2.92866C19 2.41578 18.5842 2 18.0713 2H1.92866C1.41578 2 1 2.41578 1 2.92866V6.50192V7.75562V10.6115ZM6.79199 11.8652H2.2537V15.0767H6.79199V11.8652ZM2.2537 6.50192H6.792V3.2537H2.2537V6.50192ZM17.7463 15.0767H8.04569L8.04569 3.2537H17.7463V15.0767ZM10.1281 9.88829C9.88635 10.1301 9.88635 10.5221 10.1281 10.7638C10.3699 11.0056 10.7619 11.0056 11.0037 10.7638L12.8876 8.87996L14.7714 10.7638C15.0132 11.0056 15.4052 11.0056 15.647 10.7638C15.8888 10.5221 15.8888 10.1301 15.647 9.88829L13.3253 7.56663C13.0836 7.32485 12.6916 7.32485 12.4498 7.56663L10.1281 9.88829Z" fill="#8D8D8D"/>
</g>
</svg>
