<svg width="20" height="21" viewBox="0 0 20 21" fill="none" xmlns="http://www.w3.org/2000/svg">
<path fill-rule="evenodd" clip-rule="evenodd" d="M2.2537 8.26734V11.1232H6.792V8.26734H2.2537ZM1 11.1232V12.3769V15.9134C1 16.4263 1.41578 16.8421 1.92866 16.8421H18.0713C18.5842 16.8421 19 16.4263 19 15.9134V3.44038C19 2.9275 18.5842 2.51172 18.0713 2.51172H1.92866C1.41578 2.51172 1 2.9275 1 3.44038V7.01364V8.26734V11.1232ZM6.79199 12.3769H2.2537V15.5884H6.79199V12.3769ZM2.2537 7.01364H6.792V3.76542H2.2537V7.01364ZM17.7463 15.5884H8.04569L8.04569 3.76542H17.7463V15.5884ZM10.1281 10.4C9.88635 10.6418 9.88635 11.0338 10.1281 11.2756C10.3699 11.5173 10.7619 11.5173 11.0037 11.2756L12.8876 9.39168L14.7714 11.2756C15.0132 11.5173 15.4052 11.5173 15.647 11.2756C15.8888 11.0338 15.8888 10.6418 15.647 10.4L13.3253 8.07835C13.0836 7.83657 12.6916 7.83657 12.4498 8.07835L10.1281 10.4Z" fill="#161616"/>
</svg>
