<svg width="21" height="20" viewBox="0 0 21 20" fill="none" xmlns="http://www.w3.org/2000/svg">
<g id="Change" clip-path="url(#clip0_2552_13930)">
<rect width="20" height="20" transform="translate(0.5)" fill="white" fill-opacity="0.01" style="mix-blend-mode:multiply"/>
<path id="Union" fill-rule="evenodd" clip-rule="evenodd" d="M2.50063 2.39014C1.61145 2.39014 0.890625 3.11096 0.890625 4.00014V13.0001C0.890625 13.8893 1.61145 14.6101 2.50062 14.6101H6.50063V13.3901H2.50062C2.28523 13.3901 2.11063 13.2155 2.11063 13.0001V4.00014C2.11063 3.78475 2.28523 3.61014 2.50063 3.61014H15.5006C15.716 3.61014 15.8906 3.78475 15.8906 4.00014V8.00014H17.1106V4.00014C17.1106 3.11096 16.3898 2.39014 15.5006 2.39014H2.50063ZM8.72062 14.7801V10.2201H18.2806V14.7801H8.72062ZM7.50063 10.0001C7.50063 9.44785 7.94834 9.00014 8.50063 9.00014H18.5006C19.0529 9.00014 19.5006 9.44785 19.5006 10.0001V15.0001C19.5006 15.5524 19.0529 16.0001 18.5006 16.0001H8.50062C7.94834 16.0001 7.50063 15.5524 7.50063 15.0001V10.0001Z" fill="white"/>
</g>
<defs>
<clipPath id="clip0_2552_13930">
<rect width="20" height="20" fill="white" transform="translate(0.5)"/>
</clipPath>
</defs>
</svg>
