<svg width="21" height="20" viewBox="0 0 21 20" fill="none" xmlns="http://www.w3.org/2000/svg">
<g id="up">
<rect width="20" height="20" transform="translate(0.5)" fill="white" fill-opacity="0.01" style="mix-blend-mode:multiply"/>
<path id="Union" fill-rule="evenodd" clip-rule="evenodd" d="M2.7537 7.75562V10.6115H7.292V7.75562H2.7537ZM1.5 10.6115V11.8652V15.4017C1.5 15.9146 1.91578 16.3304 2.42866 16.3304H18.5713C19.0842 16.3304 19.5 15.9146 19.5 15.4017V2.92866C19.5 2.41578 19.0842 2 18.5713 2H2.42866C1.91578 2 1.5 2.41578 1.5 2.92866V6.50192V7.75562V10.6115ZM7.29199 11.8652H2.7537V15.0767H7.29199V11.8652ZM2.7537 6.50192H7.292V3.2537H2.7537V6.50192ZM18.2463 15.0767H8.54569L8.54569 3.2537H18.2463V15.0767ZM10.6281 9.88829C10.3863 10.1301 10.3863 10.5221 10.6281 10.7638C10.8699 11.0056 11.2619 11.0056 11.5037 10.7638L13.3876 8.87996L15.2714 10.7638C15.5132 11.0056 15.9052 11.0056 16.147 10.7638C16.3888 10.5221 16.3888 10.1301 16.147 9.88829L13.8253 7.56663C13.5836 7.32485 13.1916 7.32485 12.9498 7.56663L10.6281 9.88829Z" fill="white"/>
</g>
</svg>
