<svg width="258" height="94" viewBox="0 0 258 94" fill="none" xmlns="http://www.w3.org/2000/svg">
<rect x="0.721191" y="0.208984" width="256.339" height="93.0254" rx="7" fill="white"/>
<rect x="15.2896" y="12.3906" width="47.8245" height="33.5518" rx="3" fill="#BBD6FF"/>
<rect x="67.6523" y="12.3906" width="47.8245" height="33.5518" rx="3" fill="#BBD6FF"/>
<g opacity="0.6">
<path d="M74.0869 37.356C74.0869 35.0607 74.539 32.7879 75.4174 30.6674C76.2957 28.5469 77.5831 26.6201 79.2061 24.9971C80.8291 23.3741 82.7559 22.0867 84.8764 21.2084C86.9969 20.33 89.2697 19.8779 91.5649 19.8779C93.8602 19.8779 96.133 20.33 98.2535 21.2084C100.374 22.0867 102.301 23.3742 103.924 24.9971C105.547 26.6201 106.834 28.5469 107.713 30.6674C108.591 32.7879 109.043 35.0607 109.043 37.356L102.074 37.356C102.074 35.9759 101.802 34.6094 101.274 33.3344C100.746 32.0594 99.9717 30.9009 98.9959 29.925C98.0201 28.9492 96.8616 28.1751 95.5865 27.647C94.3115 27.1188 92.945 26.847 91.5649 26.847C90.1849 26.847 88.8183 27.1188 87.5433 27.647C86.2683 28.1751 85.1098 28.9492 84.134 29.925C83.1581 30.9009 82.3841 32.0594 81.8559 33.3344C81.3278 34.6094 81.056 35.9759 81.056 37.356L74.0869 37.356Z" fill="#1D77FE"/>
<path d="M74.0869 37.356C74.0869 33.8557 75.1379 30.4361 77.1037 27.54C79.0695 24.6439 81.8596 22.4048 85.1126 21.1126C88.3655 19.8204 91.9316 19.5347 95.3488 20.2924C98.7661 21.0502 101.877 22.8166 104.279 25.3628L99.2094 30.1448C97.7653 28.6139 95.8947 27.5519 93.8401 27.0962C91.7854 26.6406 89.6413 26.8124 87.6853 27.5893C85.7294 28.3663 84.0518 29.7126 82.8699 31.454C81.6879 33.1953 81.056 35.2514 81.056 37.356L74.0869 37.356Z" fill="#8EBBFE"/>
<path d="M74.0869 37.356C74.0869 34.5391 74.7677 31.7641 76.0714 29.2671C77.375 26.7701 79.2628 24.6251 81.5741 23.015L85.5578 28.7332C84.1681 29.7013 83.033 30.991 82.2492 32.4924C81.4653 33.9937 81.056 35.6623 81.056 37.356L74.0869 37.356Z" fill="#F2F3F0"/>
<path d="M74.0869 37.356C74.0869 34.8915 74.6081 32.455 75.6162 30.2062L81.9755 33.057C81.3694 34.4092 81.056 35.8742 81.056 37.356L74.0869 37.356Z" fill="#8EBBFE"/>
</g>
<rect x="120.016" y="12.3906" width="47.8245" height="33.5518" rx="3" fill="#BBD6FF"/>
<g opacity="0.6">
<path d="M126.397 37.356C126.397 35.0607 126.85 32.7879 127.728 30.6674C128.606 28.5469 129.894 26.6201 131.517 24.9971C133.14 23.3741 135.066 22.0867 137.187 21.2084C139.307 20.33 141.58 19.8779 143.875 19.8779C146.171 19.8779 148.444 20.33 150.564 21.2084C152.685 22.0867 154.611 23.3742 156.234 24.9971C157.857 26.6201 159.145 28.5469 160.023 30.6674C160.901 32.7879 161.354 35.0607 161.354 37.356L154.384 37.356C154.384 35.9759 154.113 34.6094 153.584 33.3344C153.056 32.0594 152.282 30.9009 151.306 29.925C150.331 28.9492 149.172 28.1751 147.897 27.647C146.622 27.1188 145.256 26.847 143.875 26.847C142.495 26.847 141.129 27.1188 139.854 27.647C138.579 28.1751 137.42 28.9492 136.445 29.925C135.469 30.9009 134.695 32.0594 134.166 33.3344C133.638 34.6094 133.367 35.9759 133.367 37.356L126.397 37.356Z" fill="#1D77FE"/>
<path d="M126.397 37.356C126.397 33.8557 127.448 30.4361 129.414 27.54C131.38 24.6439 134.17 22.4048 137.423 21.1126C140.676 19.8204 144.242 19.5347 147.659 20.2924C151.077 21.0502 154.188 22.8166 156.589 25.3628L151.52 30.1448C150.076 28.6139 148.205 27.5519 146.151 27.0962C144.096 26.6406 141.952 26.8124 139.996 27.5893C138.04 28.3663 136.362 29.7126 135.18 31.454C133.998 33.1953 133.367 35.2514 133.367 37.356L126.397 37.356Z" fill="#8EBBFE"/>
<path d="M126.397 37.356C126.397 35.0607 126.85 32.7879 127.728 30.6674C128.606 28.5469 129.894 26.6201 131.517 24.9971C133.14 23.3741 135.066 22.0867 137.187 21.2084C139.307 20.33 141.58 19.8779 143.875 19.8779L143.875 26.847C142.495 26.847 141.129 27.1188 139.854 27.647C138.579 28.1751 137.42 28.9492 136.445 29.925C135.469 30.9009 134.695 32.0594 134.166 33.3344C133.638 34.6094 133.367 35.9759 133.367 37.356L126.397 37.356Z" fill="#E8F1FF"/>
<path d="M126.397 37.356C126.397 34.5391 127.078 31.7641 128.382 29.2671C129.686 26.7701 131.573 24.6251 133.885 23.015L137.868 28.7332C136.479 29.7013 135.344 30.991 134.56 32.4924C133.776 33.9937 133.367 35.6623 133.367 37.356L126.397 37.356Z" fill="#F2F3F0"/>
<path d="M126.397 37.356C126.397 34.8915 126.919 32.455 127.927 30.2062L134.286 33.057C133.68 34.4092 133.367 35.8742 133.367 37.356L126.397 37.356Z" fill="#8EBBFE"/>
</g>
<rect x="15.2896" y="49.1152" width="228.293" height="31.9358" rx="3" fill="#BBD6FF"/>
<g opacity="0.8">
<rect x="20.2319" y="66.207" width="1.35126" height="13.411" fill="white"/>
<rect x="21.7764" y="70.8926" width="1.35126" height="8.72524" fill="#E8F1FF"/>
<rect x="24.4785" y="68.9531" width="1.35126" height="10.6642" fill="white"/>
<rect x="26.0229" y="67.9844" width="1.35126" height="11.6336" fill="#E8F1FF"/>
<rect x="29.1118" y="71.5391" width="1.15822" height="8.07892" fill="white"/>
<rect x="30.4629" y="70.2461" width="1.15822" height="9.37155" fill="#E8F1FF"/>
<rect x="33.3584" y="61.0352" width="1.35126" height="18.5815" fill="white"/>
<rect x="34.9028" y="66.207" width="1.35126" height="13.411" fill="#E8F1FF"/>
<rect x="37.7983" y="66.3691" width="1.35126" height="13.2494" fill="white"/>
<rect x="39.3423" y="59.4199" width="1.35126" height="20.1973" fill="#E8F1FF"/>
<rect x="42.4312" y="52.957" width="1.15822" height="26.6604" fill="white"/>
<rect x="43.7822" y="67.6602" width="1.15822" height="11.9568" fill="#E8F1FF"/>
<rect x="46.8711" y="71.5391" width="1.15822" height="8.07892" fill="white"/>
<rect x="48.2227" y="64.1055" width="1.15822" height="15.5115" fill="#E8F1FF"/>
<rect x="51.1177" y="68.9531" width="1.35126" height="10.6642" fill="white"/>
<rect x="52.6621" y="62.168" width="1.35126" height="17.4505" fill="#E8F1FF"/>
<rect x="55.5576" y="58.2891" width="1.35126" height="21.3284" fill="white"/>
<rect x="57.1021" y="61.5195" width="1.35126" height="18.0968" fill="#E8F1FF"/>
<rect x="60.1904" y="52.957" width="1.15822" height="26.6604" fill="white"/>
<rect x="61.542" y="69.5996" width="1.15822" height="10.0179" fill="#E8F1FF"/>
<rect x="64.4375" y="63.6211" width="1.35126" height="15.9963" fill="white"/>
<rect x="65.9819" y="71.2148" width="1.35126" height="8.40208" fill="#E8F1FF"/>
<rect x="68.4912" y="58.2891" width="1.35126" height="21.3284" fill="white"/>
<rect x="70.0352" y="72.9922" width="1.35126" height="6.62472" fill="#E8F1FF"/>
</g>
<g opacity="0.8">
<rect x="72.5508" y="66.207" width="1.35126" height="13.411" fill="white"/>
<rect x="74.0952" y="70.8926" width="1.35126" height="8.72524" fill="#E8F1FF"/>
<rect x="76.7974" y="68.9531" width="1.35126" height="10.6642" fill="white"/>
<rect x="78.3418" y="67.9844" width="1.35126" height="11.6336" fill="#E8F1FF"/>
<rect x="81.4307" y="71.5391" width="1.15822" height="8.07892" fill="white"/>
<rect x="82.7817" y="70.2461" width="1.15822" height="9.37155" fill="#E8F1FF"/>
<rect x="85.6772" y="61.0352" width="1.35126" height="18.5815" fill="white"/>
<rect x="87.2217" y="66.207" width="1.35126" height="13.411" fill="#E8F1FF"/>
<rect x="90.1172" y="66.3691" width="1.35126" height="13.2494" fill="white"/>
<rect x="91.6611" y="59.4199" width="1.35126" height="20.1973" fill="#E8F1FF"/>
<rect x="94.75" y="52.957" width="1.15822" height="26.6604" fill="white"/>
<rect x="96.1011" y="67.6602" width="1.15822" height="11.9568" fill="#E8F1FF"/>
<rect x="99.1899" y="71.5391" width="1.15822" height="8.07892" fill="white"/>
<rect x="100.541" y="64.1055" width="1.15822" height="15.5115" fill="#E8F1FF"/>
<rect x="103.437" y="68.9531" width="1.35126" height="10.6642" fill="white"/>
<rect x="104.981" y="62.168" width="1.35126" height="17.4505" fill="#E8F1FF"/>
<rect x="107.876" y="58.2891" width="1.35126" height="21.3284" fill="white"/>
<rect x="109.421" y="61.5195" width="1.35126" height="18.0968" fill="#E8F1FF"/>
<rect x="112.509" y="52.957" width="1.15822" height="26.6604" fill="white"/>
<rect x="113.861" y="69.5996" width="1.15822" height="10.0179" fill="#E8F1FF"/>
<rect x="116.756" y="63.6211" width="1.35126" height="15.9963" fill="white"/>
<rect x="118.301" y="71.2148" width="1.35126" height="8.40208" fill="#E8F1FF"/>
<rect x="120.81" y="58.2891" width="1.35126" height="21.3284" fill="white"/>
<rect x="122.354" y="72.9922" width="1.35126" height="6.62472" fill="#E8F1FF"/>
</g>
<g opacity="0.8">
<rect x="124.87" y="61.0352" width="1.35126" height="18.5815" fill="white"/>
<rect x="126.414" y="66.207" width="1.35126" height="13.411" fill="#E8F1FF"/>
<rect x="129.31" y="66.3691" width="1.35126" height="13.2494" fill="white"/>
<rect x="130.854" y="59.4199" width="1.35126" height="20.1973" fill="#E8F1FF"/>
<rect x="133.942" y="52.957" width="1.15822" height="26.6604" fill="white"/>
<rect x="135.293" y="67.6602" width="1.15822" height="11.9568" fill="#E8F1FF"/>
<rect x="138.382" y="71.5391" width="1.15822" height="8.07892" fill="white"/>
<rect x="139.734" y="64.1055" width="1.15822" height="15.5115" fill="#E8F1FF"/>
<rect x="142.629" y="68.9531" width="1.35126" height="10.6642" fill="white"/>
<rect x="144.174" y="62.168" width="1.35126" height="17.4505" fill="#E8F1FF"/>
<rect x="147.069" y="58.2891" width="1.35126" height="21.3284" fill="white"/>
<rect x="148.613" y="61.5195" width="1.35126" height="18.0968" fill="#E8F1FF"/>
<rect x="151.702" y="52.957" width="1.15822" height="26.6604" fill="white"/>
<rect x="153.053" y="69.5996" width="1.15822" height="10.0179" fill="#E8F1FF"/>
<rect x="155.949" y="63.6211" width="1.35126" height="15.9963" fill="white"/>
<rect x="157.493" y="71.2148" width="1.35126" height="8.40208" fill="#E8F1FF"/>
<rect x="160.002" y="58.2891" width="1.35126" height="21.3284" fill="white"/>
<rect x="161.547" y="72.9922" width="1.35126" height="6.62472" fill="#E8F1FF"/>
</g>
<g opacity="0.8">
<rect x="164.062" y="66.207" width="1.35126" height="13.411" fill="white"/>
<rect x="165.606" y="70.8926" width="1.35126" height="8.72524" fill="#E8F1FF"/>
<rect x="168.308" y="68.9531" width="1.35126" height="10.6642" fill="white"/>
<rect x="169.853" y="67.9844" width="1.35126" height="11.6336" fill="#E8F1FF"/>
<rect x="172.941" y="71.5391" width="1.15822" height="8.07892" fill="white"/>
<rect x="174.292" y="70.2461" width="1.15822" height="9.37155" fill="#E8F1FF"/>
<rect x="177.188" y="61.0352" width="1.35126" height="18.5815" fill="white"/>
<rect x="178.732" y="66.207" width="1.35126" height="13.411" fill="#E8F1FF"/>
<rect x="181.628" y="66.3691" width="1.35126" height="13.2494" fill="white"/>
<rect x="183.172" y="59.4199" width="1.35126" height="20.1973" fill="#E8F1FF"/>
<rect x="186.261" y="52.957" width="1.15822" height="26.6604" fill="white"/>
<rect x="187.612" y="67.6602" width="1.15822" height="11.9568" fill="#E8F1FF"/>
<rect x="190.701" y="71.5391" width="1.15822" height="8.07892" fill="white"/>
<rect x="192.052" y="64.1055" width="1.15822" height="15.5115" fill="#E8F1FF"/>
<rect x="194.947" y="68.9531" width="1.35126" height="10.6642" fill="white"/>
<rect x="196.492" y="62.168" width="1.35126" height="17.4505" fill="#E8F1FF"/>
<rect x="199.387" y="58.2891" width="1.35126" height="21.3284" fill="white"/>
<rect x="200.932" y="61.5195" width="1.35126" height="18.0968" fill="#E8F1FF"/>
<rect x="204.02" y="52.957" width="1.15822" height="26.6604" fill="white"/>
<rect x="205.372" y="69.5996" width="1.15822" height="10.0179" fill="#E8F1FF"/>
<rect x="208.267" y="63.6211" width="1.35126" height="15.9963" fill="white"/>
<rect x="209.812" y="71.2148" width="1.35126" height="8.40208" fill="#E8F1FF"/>
<rect x="212.321" y="58.2891" width="1.35126" height="21.3284" fill="white"/>
<rect x="213.865" y="72.9922" width="1.35126" height="6.62472" fill="#E8F1FF"/>
</g>
<g opacity="0.8">
<rect x="216.381" y="61.0352" width="1.35126" height="18.5815" fill="white"/>
<rect x="217.925" y="66.207" width="1.35126" height="13.411" fill="#E8F1FF"/>
<rect x="220.821" y="66.3691" width="1.35126" height="13.2494" fill="white"/>
<rect x="222.365" y="59.4199" width="1.35126" height="20.1973" fill="#E8F1FF"/>
<rect x="225.453" y="52.957" width="1.15822" height="26.6604" fill="white"/>
<rect x="226.805" y="67.6602" width="1.15822" height="11.9568" fill="#E8F1FF"/>
<rect x="229.893" y="71.5391" width="1.15822" height="8.07892" fill="white"/>
<rect x="231.245" y="64.1055" width="1.15822" height="15.5115" fill="#E8F1FF"/>
<rect x="234.14" y="68.9531" width="1.35126" height="10.6642" fill="white"/>
<rect x="235.685" y="62.168" width="1.35126" height="17.4505" fill="#E8F1FF"/>
<rect x="238.58" y="58.2891" width="1.35126" height="21.3284" fill="white"/>
</g>
<g opacity="0.6">
<path d="M35.4528 40.4052C32.5488 39.4365 30.1325 37.3814 28.7103 34.6706C27.288 31.9597 26.9703 28.8036 27.8236 25.8636L39.2018 29.1662L35.4528 40.4052Z" fill="#E8F1FF"/>
<path d="M50.2016 33.5697C49.0642 36.4118 46.8709 38.7034 44.0813 39.9642C41.2917 41.225 38.1223 41.357 35.2375 40.3327L39.2018 29.1678L50.2016 33.5697Z" fill="#E8F1FF"/>
<path d="M28.4124 34.0615C27.1477 31.2737 27.0112 28.1045 28.0315 25.2183C29.0517 22.332 31.1496 19.9527 33.8853 18.5789L39.202 29.1669L28.4124 34.0615Z" fill="#8EBBFE"/>
<path d="M50.8906 27.2318C51.3397 29.944 50.8316 32.7278 49.4535 35.1065C48.0754 37.4852 45.913 39.3106 43.3368 40.27L39.2019 29.1672L50.8906 27.2318Z" fill="#8EBBFE"/>
<path d="M29.5213 22.3372C31.2149 19.937 33.7398 18.2515 36.606 17.6078C39.4722 16.9642 42.4753 17.4083 45.0325 18.8539L39.202 29.1678L29.5213 22.3372Z" fill="white" fill-opacity="0.8"/>
<path d="M43.2947 18.0485C44.8954 18.6377 46.35 19.5655 47.5591 20.7685C48.7682 21.9716 49.7033 23.4215 50.3004 25.0192C50.8976 26.6169 51.1427 28.3248 51.0191 30.0259C50.8954 31.7271 50.4059 33.3815 49.5841 34.8761L39.2024 29.1672L43.2947 18.0485Z" fill="#5C9DFE"/>
</g>
<rect x="175.029" y="12.3906" width="68.5536" height="33.5518" rx="3" fill="#BBD6FF"/>
<g opacity="0.9">
<path d="M178.634 30.4162C180.273 29.4969 184.055 26.7725 186.067 23.2291C188.583 18.7999 192.815 11.2786 196.474 18.0478C200.134 24.817 203.107 32.2547 209.168 33.0068C215.229 33.759 214.543 27.2405 217.173 27.2405C219.804 27.2405 220.032 39.2746 225.293 39.2746C230.553 39.2746 230.668 18.0478 239.931 18.0478" stroke="#A0C6FE" stroke-width="0.5"/>
<path opacity="0.2" d="M186.067 23.1843C184.055 26.783 180.273 29.5499 178.634 30.4836V43.0109H239.931V17.9221C230.668 17.9221 230.553 39.4803 225.293 39.4803C220.032 39.4803 219.804 27.2583 217.173 27.2583C214.543 27.2583 215.229 33.8786 209.168 33.1147C203.107 32.3508 200.134 24.7969 196.474 17.9221C192.834 11.0842 188.629 18.6041 186.108 23.1114L186.067 23.1843Z" fill="#A0C6FE"/>
<path opacity="0.2" d="M187.685 32.7635C185.765 30.0081 180.788 28.0871 178.539 27.4711V43.0122H239.931V39.568C231.7 39.568 225.64 26.631 224.84 24.6149C224.04 22.5987 222.211 18.3984 217.181 18.3984C212.15 18.3984 207.92 26.799 203.004 31.7554C198.089 36.7118 195.802 36.5437 194.202 36.5437C192.601 36.5437 190.086 36.2077 187.685 32.7635Z" fill="#DCE7F6"/>
<path d="M178.539 27.2476C180.788 27.8601 185.765 29.7701 187.685 32.5098C190.086 35.9345 192.601 36.2686 194.202 36.2686C195.802 36.2686 198.089 36.4356 203.004 31.5075C207.92 26.5793 212.15 18.2266 217.181 18.2266C222.211 18.2266 224.04 22.403 224.84 24.4076C225.64 26.4123 231.7 39.2756 239.931 39.2756" stroke="#DCE7F6" stroke-width="0.5"/>
<path d="M178.539 39.4471C181.583 38.2636 188.905 34.696 193.836 29.8941C200.001 23.8918 199.202 18.0586 201.37 18.0586C203.539 18.0586 205.823 33.2757 217.01 33.2757C228.197 33.2757 225.457 24.1454 232.649 24.1454C238.403 24.1454 239.901 24.1454 239.931 24.1454" stroke="#A0C6FE" stroke-width="0.5"/>
<path opacity="0.2" d="M193.836 29.9411C188.905 34.762 181.583 38.3437 178.539 39.532V43.0119H239.931V24.1696H232.649C225.457 24.1696 228.197 33.3361 217.01 33.3361C205.823 33.3361 203.539 18.0586 201.37 18.0586C199.202 18.0586 200.001 23.915 193.836 29.9411Z" fill="#A0C6FE"/>
</g>
</svg>
