<svg width="257" height="94" viewBox="0 0 257 94" fill="none" xmlns="http://www.w3.org/2000/svg">
<rect x="0.589844" y="0.573242" width="256.339" height="93.0254" rx="7" fill="#161616"/>
<rect x="15.1582" y="12.7549" width="47.8245" height="33.5518" rx="3" fill="#262626"/>
<rect x="67.5215" y="12.7549" width="47.8245" height="33.5518" rx="3" fill="#262626"/>
<g opacity="0.6">
<path d="M73.9541 37.7212C73.9541 35.4259 74.4062 33.1532 75.2845 31.0326C76.1629 28.9121 77.4503 26.9854 79.0733 25.3624C80.6963 23.7394 82.6231 22.452 84.7436 21.5736C86.8641 20.6953 89.1369 20.2432 91.4321 20.2432C93.7274 20.2432 96.0002 20.6953 98.1207 21.5736C100.241 22.452 102.168 23.7394 103.791 25.3624C105.414 26.9854 106.701 28.9121 107.58 31.0326C108.458 33.1532 108.91 35.426 108.91 37.7212L101.941 37.7212C101.941 36.3411 101.669 34.9746 101.141 33.6996C100.613 32.4246 99.8389 31.2661 98.8631 30.2902C97.8872 29.3144 96.7287 28.5403 95.4537 28.0122C94.1787 27.4841 92.8122 27.2122 91.4321 27.2122C90.0521 27.2122 88.6855 27.4841 87.4105 28.0122C86.1355 28.5403 84.977 29.3144 84.0012 30.2902C83.0253 31.2661 82.2513 32.4246 81.7231 33.6996C81.195 34.9746 80.9232 36.3411 80.9232 37.7212L73.9541 37.7212Z" fill="#929498"/>
<path d="M73.9541 37.7212C73.9541 34.2209 75.0051 30.8013 76.9709 27.9052C78.9367 25.0091 81.7267 22.77 84.9797 21.4778C88.2327 20.1856 91.7988 19.8999 95.216 20.6577C98.6333 21.4155 101.744 23.1818 104.146 25.728L99.0766 30.5101C97.6325 28.9792 95.7619 27.9171 93.7073 27.4615C91.6526 27.0058 89.5084 27.1776 87.5525 27.9546C85.5966 28.7315 83.919 30.0779 82.7371 31.8192C81.5551 33.5605 80.9232 35.6166 80.9232 37.7212L73.9541 37.7212Z" fill="#BFBFBF"/>
<path d="M73.9541 37.7212C73.9541 34.9044 74.6349 32.1293 75.9385 29.6323C77.2422 27.1353 79.13 24.9904 81.4413 23.3802L85.425 29.0984C84.0353 30.0666 82.9002 31.3563 82.1164 32.8576C81.3325 34.359 80.9232 36.0275 80.9232 37.7212L73.9541 37.7212Z" fill="#F2F3F0"/>
<path d="M73.9541 37.7212C73.9541 35.2568 74.4753 32.8202 75.4834 30.5714L81.8427 33.4223C81.2365 34.7744 80.9232 36.2394 80.9232 37.7212L73.9541 37.7212Z" fill="#BFBFBF"/>
</g>
<rect x="119.885" y="12.7549" width="47.8245" height="33.5518" rx="3" fill="#262626"/>
<g opacity="0.6">
<path d="M126.265 37.7202C126.265 35.425 126.717 33.1522 127.595 31.0317C128.473 28.9111 129.761 26.9844 131.384 25.3614C133.007 23.7384 134.934 22.451 137.054 21.5726C139.175 20.6943 141.447 20.2422 143.743 20.2422C146.038 20.2422 148.311 20.6943 150.431 21.5726C152.552 22.451 154.479 23.7384 156.102 25.3614C157.724 26.9844 159.012 28.9111 159.89 31.0317C160.769 33.1522 161.221 35.425 161.221 37.7202L154.252 37.7202C154.252 36.3402 153.98 34.9736 153.452 33.6986C152.924 32.4236 152.149 31.2651 151.174 30.2893C150.198 29.3134 149.039 28.5393 147.764 28.0112C146.489 27.4831 145.123 27.2113 143.743 27.2113C142.363 27.2113 140.996 27.4831 139.721 28.0112C138.446 28.5393 137.288 29.3134 136.312 30.2893C135.336 31.2651 134.562 32.4236 134.034 33.6986C133.506 34.9736 133.234 36.3402 133.234 37.7202L126.265 37.7202Z" fill="#929498"/>
<path d="M126.265 37.7202C126.265 34.22 127.316 30.8004 129.281 27.9043C131.247 25.0082 134.037 22.769 137.29 21.4768C140.543 20.1846 144.109 19.8989 147.527 20.6567C150.944 21.4145 154.055 23.1808 156.457 25.727L151.387 30.5091C149.943 28.9782 148.072 27.9161 146.018 27.4605C143.963 27.0049 141.819 27.1767 139.863 27.9536C137.907 28.7306 136.23 30.0769 135.048 31.8182C133.866 33.5595 133.234 35.6156 133.234 37.7202L126.265 37.7202Z" fill="#BFBFBF"/>
<path d="M126.265 37.7202C126.265 35.425 126.717 33.1522 127.595 31.0317C128.473 28.9111 129.761 26.9844 131.384 25.3614C133.007 23.7384 134.934 22.451 137.054 21.5726C139.175 20.6943 141.447 20.2422 143.743 20.2422L143.743 27.2113C142.363 27.2113 140.996 27.4831 139.721 28.0112C138.446 28.5393 137.288 29.3134 136.312 30.2893C135.336 31.2651 134.562 32.4236 134.034 33.6986C133.506 34.9736 133.234 36.3402 133.234 37.7202L126.265 37.7202Z" fill="#D6D6D6"/>
<path d="M126.265 37.7202C126.265 34.9034 126.945 32.1283 128.249 29.6313C129.553 27.1343 131.441 24.9894 133.752 23.3792L137.735 29.0975C136.346 30.0656 135.211 31.3553 134.427 32.8566C133.643 34.358 133.234 36.0266 133.234 37.7202L126.265 37.7202Z" fill="#F2F3F0"/>
<path d="M126.265 37.7202C126.265 35.2558 126.786 32.8192 127.794 30.5705L134.153 33.4213C133.547 34.7734 133.234 36.2384 133.234 37.7202L126.265 37.7202Z" fill="#BFBFBF"/>
</g>
<rect x="15.1582" y="49.4785" width="228.293" height="31.9358" rx="3" fill="#262626"/>
<g opacity="0.8">
<rect x="20.1016" y="66.5713" width="1.35126" height="13.411" fill="#A8A8A8"/>
<rect x="21.6465" y="71.2559" width="1.35126" height="8.72524" fill="#878D96"/>
<rect x="24.3477" y="69.3174" width="1.35126" height="10.6642" fill="#A8A8A8"/>
<rect x="25.8926" y="68.3486" width="1.35126" height="11.6336" fill="#878D96"/>
<rect x="28.9805" y="71.9023" width="1.15822" height="8.07892" fill="#A8A8A8"/>
<rect x="30.332" y="70.6104" width="1.15822" height="9.37155" fill="#878D96"/>
<rect x="33.2285" y="61.4004" width="1.35126" height="18.5815" fill="#A8A8A8"/>
<rect x="34.7734" y="66.5703" width="1.35126" height="13.411" fill="#878D96"/>
<rect x="37.668" y="66.7324" width="1.35126" height="13.2494" fill="#A8A8A8"/>
<rect x="39.2129" y="59.7842" width="1.35126" height="20.1973" fill="#878D96"/>
<rect x="42.3008" y="53.3213" width="1.15822" height="26.6604" fill="#A8A8A8"/>
<rect x="43.6523" y="68.0254" width="1.15822" height="11.9568" fill="#878D96"/>
<rect x="46.7402" y="71.9023" width="1.15822" height="8.07892" fill="#A8A8A8"/>
<rect x="48.0918" y="64.4697" width="1.15822" height="15.5115" fill="#878D96"/>
<rect x="50.9883" y="69.3174" width="1.35126" height="10.6642" fill="#A8A8A8"/>
<rect x="52.5312" y="62.5312" width="1.35126" height="17.4505" fill="#878D96"/>
<rect x="55.4277" y="58.6533" width="1.35126" height="21.3284" fill="#A8A8A8"/>
<rect x="56.9727" y="61.8848" width="1.35126" height="18.0968" fill="#878D96"/>
<rect x="60.0605" y="53.3213" width="1.15822" height="26.6604" fill="#A8A8A8"/>
<rect x="61.4121" y="69.9639" width="1.15822" height="10.0179" fill="#878D96"/>
<rect x="64.3066" y="63.9854" width="1.35126" height="15.9963" fill="#A8A8A8"/>
<rect x="65.8516" y="71.5791" width="1.35126" height="8.40208" fill="#878D96"/>
<rect x="68.3613" y="58.6533" width="1.35126" height="21.3284" fill="#A8A8A8"/>
<rect x="69.9043" y="73.3574" width="1.35126" height="6.62472" fill="#878D96"/>
</g>
<g opacity="0.8">
<rect x="72.4199" y="66.5713" width="1.35126" height="13.411" fill="#A8A8A8"/>
<rect x="73.9648" y="71.2559" width="1.35126" height="8.72524" fill="#878D96"/>
<rect x="76.666" y="69.3174" width="1.35126" height="10.6642" fill="#A8A8A8"/>
<rect x="78.2109" y="68.3486" width="1.35126" height="11.6336" fill="#878D96"/>
<rect x="81.2988" y="71.9023" width="1.15822" height="8.07892" fill="#A8A8A8"/>
<rect x="82.6504" y="70.6104" width="1.15822" height="9.37155" fill="#878D96"/>
<rect x="85.5469" y="61.4004" width="1.35126" height="18.5815" fill="#A8A8A8"/>
<rect x="87.0898" y="66.5703" width="1.35126" height="13.411" fill="#878D96"/>
<rect x="89.9863" y="66.7324" width="1.35126" height="13.2494" fill="#A8A8A8"/>
<rect x="91.5312" y="59.7842" width="1.35126" height="20.1973" fill="#878D96"/>
<rect x="94.6191" y="53.3213" width="1.15822" height="26.6604" fill="#A8A8A8"/>
<rect x="95.9707" y="68.0254" width="1.15822" height="11.9568" fill="#878D96"/>
<rect x="99.0586" y="71.9023" width="1.15822" height="8.07892" fill="#A8A8A8"/>
<rect x="100.41" y="64.4697" width="1.15822" height="15.5115" fill="#878D96"/>
<rect x="103.307" y="69.3174" width="1.35126" height="10.6642" fill="#A8A8A8"/>
<rect x="104.85" y="62.5312" width="1.35126" height="17.4505" fill="#878D96"/>
<rect x="107.746" y="58.6533" width="1.35126" height="21.3284" fill="#A8A8A8"/>
<rect x="109.291" y="61.8848" width="1.35126" height="18.0968" fill="#878D96"/>
<rect x="112.379" y="53.3213" width="1.15822" height="26.6604" fill="#A8A8A8"/>
<rect x="113.73" y="69.9639" width="1.15822" height="10.0179" fill="#878D96"/>
<rect x="116.625" y="63.9854" width="1.35126" height="15.9963" fill="#A8A8A8"/>
<rect x="118.17" y="71.5791" width="1.35126" height="8.40208" fill="#878D96"/>
<rect x="120.68" y="58.6533" width="1.35126" height="21.3284" fill="#A8A8A8"/>
<rect x="122.223" y="73.3574" width="1.35126" height="6.62472" fill="#878D96"/>
</g>
<g opacity="0.8">
<rect x="124.738" y="61.4004" width="1.35126" height="18.5815" fill="#A8A8A8"/>
<rect x="126.283" y="66.5703" width="1.35126" height="13.411" fill="#878D96"/>
<rect x="129.178" y="66.7324" width="1.35126" height="13.2494" fill="#A8A8A8"/>
<rect x="130.723" y="59.7842" width="1.35126" height="20.1973" fill="#878D96"/>
<rect x="133.811" y="53.3213" width="1.15822" height="26.6604" fill="#A8A8A8"/>
<rect x="135.162" y="68.0254" width="1.15822" height="11.9568" fill="#878D96"/>
<rect x="138.25" y="71.9023" width="1.15822" height="8.07892" fill="#A8A8A8"/>
<rect x="139.602" y="64.4697" width="1.15822" height="15.5115" fill="#878D96"/>
<rect x="142.498" y="69.3174" width="1.35126" height="10.6642" fill="#A8A8A8"/>
<rect x="144.043" y="62.5312" width="1.35126" height="17.4505" fill="#878D96"/>
<rect x="146.938" y="58.6533" width="1.35126" height="21.3284" fill="#A8A8A8"/>
<rect x="148.482" y="61.8848" width="1.35126" height="18.0968" fill="#878D96"/>
<rect x="151.57" y="53.3213" width="1.15822" height="26.6604" fill="#A8A8A8"/>
<rect x="152.922" y="69.9639" width="1.15822" height="10.0179" fill="#878D96"/>
<rect x="155.816" y="63.9854" width="1.35126" height="15.9963" fill="#A8A8A8"/>
<rect x="157.361" y="71.5791" width="1.35126" height="8.40208" fill="#878D96"/>
<rect x="159.871" y="58.6533" width="1.35126" height="21.3284" fill="#A8A8A8"/>
<rect x="161.416" y="73.3574" width="1.35126" height="6.62472" fill="#878D96"/>
</g>
<g opacity="0.8">
<rect x="163.93" y="66.5713" width="1.35126" height="13.411" fill="#A8A8A8"/>
<rect x="165.475" y="71.2559" width="1.35126" height="8.72524" fill="#878D96"/>
<rect x="168.176" y="69.3174" width="1.35126" height="10.6642" fill="#A8A8A8"/>
<rect x="169.721" y="68.3486" width="1.35126" height="11.6336" fill="#878D96"/>
<rect x="172.809" y="71.9023" width="1.15822" height="8.07892" fill="#A8A8A8"/>
<rect x="174.16" y="70.6104" width="1.15822" height="9.37155" fill="#878D96"/>
<rect x="177.057" y="61.4004" width="1.35126" height="18.5815" fill="#A8A8A8"/>
<rect x="178.602" y="66.5703" width="1.35126" height="13.411" fill="#878D96"/>
<rect x="181.496" y="66.7324" width="1.35126" height="13.2494" fill="#A8A8A8"/>
<rect x="183.041" y="59.7842" width="1.35126" height="20.1973" fill="#878D96"/>
<rect x="186.129" y="53.3213" width="1.15822" height="26.6604" fill="#A8A8A8"/>
<rect x="187.48" y="68.0254" width="1.15822" height="11.9568" fill="#878D96"/>
<rect x="190.568" y="71.9023" width="1.15822" height="8.07892" fill="#A8A8A8"/>
<rect x="191.92" y="64.4697" width="1.15822" height="15.5115" fill="#878D96"/>
<rect x="194.816" y="69.3174" width="1.35126" height="10.6642" fill="#A8A8A8"/>
<rect x="196.359" y="62.5312" width="1.35126" height="17.4505" fill="#878D96"/>
<rect x="199.256" y="58.6533" width="1.35126" height="21.3284" fill="#A8A8A8"/>
<rect x="200.801" y="61.8848" width="1.35126" height="18.0968" fill="#878D96"/>
<rect x="203.889" y="53.3213" width="1.15822" height="26.6604" fill="#A8A8A8"/>
<rect x="205.24" y="69.9639" width="1.15822" height="10.0179" fill="#878D96"/>
<rect x="208.135" y="63.9854" width="1.35126" height="15.9963" fill="#A8A8A8"/>
<rect x="209.68" y="71.5791" width="1.35126" height="8.40208" fill="#878D96"/>
<rect x="212.189" y="58.6533" width="1.35126" height="21.3284" fill="#A8A8A8"/>
<rect x="213.732" y="73.3574" width="1.35126" height="6.62472" fill="#878D96"/>
</g>
<g opacity="0.8">
<rect x="216.25" y="61.4004" width="1.35126" height="18.5815" fill="#A8A8A8"/>
<rect x="217.795" y="66.5703" width="1.35126" height="13.411" fill="#878D96"/>
<rect x="220.689" y="66.7324" width="1.35126" height="13.2494" fill="#A8A8A8"/>
<rect x="222.234" y="59.7842" width="1.35126" height="20.1973" fill="#878D96"/>
<rect x="225.322" y="53.3213" width="1.15822" height="26.6604" fill="#A8A8A8"/>
<rect x="226.674" y="68.0254" width="1.15822" height="11.9568" fill="#878D96"/>
<rect x="229.762" y="71.9023" width="1.15822" height="8.07892" fill="#A8A8A8"/>
<rect x="231.113" y="64.4697" width="1.15822" height="15.5115" fill="#878D96"/>
<rect x="234.01" y="69.3174" width="1.35126" height="10.6642" fill="#A8A8A8"/>
<rect x="235.555" y="62.5312" width="1.35126" height="17.4505" fill="#878D96"/>
<rect x="238.449" y="58.6533" width="1.35126" height="21.3284" fill="#A8A8A8"/>
</g>
<g opacity="0.6">
<path d="M35.3214 40.7705C32.4175 39.8018 30.0012 37.7466 28.5789 35.0358C27.1567 32.3249 26.8389 29.1688 27.6923 26.2289L39.0705 29.5314L35.3214 40.7705Z" fill="#CACACA"/>
<path d="M50.0703 33.933C48.9329 36.7751 46.7395 39.0667 43.9499 40.3275C41.1603 41.5882 37.991 41.7203 35.1062 40.696L39.0705 29.5311L50.0703 33.933Z" fill="#CACACA"/>
<path d="M28.2821 34.4258C27.0174 31.6379 26.8808 28.4688 27.9011 25.5825C28.9214 22.6963 31.0192 20.3169 33.7549 18.9432L39.0716 29.5311L28.2821 34.4258Z" fill="#A3A3A3"/>
<path d="M50.7597 27.5961C51.2088 30.3082 50.7008 33.0921 49.3226 35.4708C47.9445 37.8495 45.7821 39.6749 43.2059 40.6343L39.071 29.5314L50.7597 27.5961Z" fill="#A3A3A3"/>
<path d="M29.3915 22.7005C31.085 20.3003 33.6099 18.6148 36.4761 17.9711C39.3423 17.3275 42.3454 17.7716 44.9026 19.2172L39.0721 29.5311L29.3915 22.7005Z" fill="white" fill-opacity="0.8"/>
<path d="M43.1633 18.4128C44.764 19.0019 46.2186 19.9297 47.4277 21.1328C48.6368 22.3358 49.5719 23.7858 50.1691 25.3835C50.7662 26.9812 51.0114 28.689 50.8877 30.3902C50.7641 32.0914 50.2746 33.7458 49.4527 35.2404L39.071 29.5314L43.1633 18.4128Z" fill="#585C62"/>
</g>
<rect x="174.898" y="12.7549" width="68.5536" height="33.5518" rx="3" fill="#262626"/>
<g opacity="0.9">
<path d="M178.504 30.7824C180.143 29.8631 183.925 27.1387 185.937 23.5953C188.453 19.1661 192.685 11.6448 196.344 18.414C200.004 25.1832 202.977 32.6209 209.038 33.3731C215.099 34.1252 214.413 27.6067 217.043 27.6067C219.673 27.6067 219.902 39.6408 225.163 39.6408C230.423 39.6408 230.538 18.414 239.801 18.414" stroke="#CFCFCF" stroke-width="0.5"/>
<path opacity="0.2" d="M185.937 23.5496C183.925 27.1483 180.143 29.9152 178.504 30.8488V43.3761H239.801V18.2873C230.538 18.2873 230.423 39.8456 225.163 39.8456C219.902 39.8456 219.673 27.6236 217.043 27.6236C214.413 27.6236 215.099 34.2438 209.038 33.4799C202.977 32.7161 200.004 25.1622 196.344 18.2873C192.704 11.4494 188.499 18.9693 185.978 23.4766L185.937 23.5496Z" fill="#CFCFCF"/>
<path opacity="0.2" d="M187.554 33.1277C185.633 30.3723 180.657 28.4514 178.408 27.8353V43.3765H239.8V39.9322C231.568 39.9322 225.509 26.9953 224.709 24.9791C223.909 22.963 222.08 18.7627 217.049 18.7627C212.019 18.7627 207.789 27.1633 202.873 32.1197C197.957 37.076 195.671 36.908 194.07 36.908C192.47 36.908 189.955 36.572 187.554 33.1277Z" fill="#A8A8A8"/>
<path d="M178.408 27.6128C180.657 28.2253 185.633 30.1353 187.554 32.8751C189.955 36.2997 192.47 36.6338 194.07 36.6338C195.671 36.6338 197.957 36.8009 202.873 31.8727C207.789 26.9446 212.019 18.5918 217.049 18.5918C222.08 18.5918 223.909 22.7682 224.709 24.7729C225.509 26.7775 231.568 39.6408 239.8 39.6408" stroke="#A8A8A8" stroke-width="0.5"/>
<path d="M178.408 39.8123C181.452 38.6288 188.774 35.0612 193.705 30.2594C199.869 24.2571 199.07 18.4238 201.239 18.4238C203.408 18.4238 205.691 33.641 216.879 33.641C228.066 33.641 225.326 24.5107 232.518 24.5107C238.272 24.5107 239.77 24.5107 239.8 24.5107" stroke="#CFCFCF" stroke-width="0.5"/>
<path opacity="0.2" d="M193.705 30.3063C188.774 35.1272 181.452 38.709 178.408 39.8972V43.3771H239.8V24.5348H232.518C225.326 24.5348 228.066 33.7013 216.879 33.7013C205.691 33.7013 203.408 18.4238 201.239 18.4238C199.07 18.4238 199.869 24.2802 193.705 30.3063Z" fill="#CFCFCF"/>
</g>
</svg>
