<svg width="258" height="94" viewBox="0 0 258 94" fill="none" xmlns="http://www.w3.org/2000/svg">
<rect x="0.721191" y="0.333984" width="256.339" height="93.0254" rx="7" fill="white"/>
<rect x="15.2896" y="12.5156" width="47.8245" height="33.5518" rx="3" fill="#E8E8E8"/>
<rect x="67.6523" y="12.5156" width="47.8245" height="33.5518" rx="3" fill="#E8E8E8"/>
<g opacity="0.6">
<path d="M74.0869 37.481C74.0869 35.1857 74.539 32.9129 75.4174 30.7924C76.2957 28.6719 77.5831 26.7451 79.2061 25.1221C80.8291 23.4991 82.7559 22.2117 84.8764 21.3334C86.9969 20.455 89.2697 20.0029 91.5649 20.0029C93.8602 20.0029 96.133 20.455 98.2535 21.3334C100.374 22.2117 102.301 23.4992 103.924 25.1221C105.547 26.7451 106.834 28.6719 107.713 30.7924C108.591 32.9129 109.043 35.1857 109.043 37.481L102.074 37.481C102.074 36.1009 101.802 34.7344 101.274 33.4594C100.746 32.1844 99.9717 31.0259 98.9959 30.05C98.0201 29.0742 96.8616 28.3001 95.5865 27.772C94.3115 27.2438 92.945 26.972 91.5649 26.972C90.1849 26.972 88.8183 27.2438 87.5433 27.772C86.2683 28.3001 85.1098 29.0742 84.134 30.05C83.1581 31.0259 82.3841 32.1844 81.8559 33.4594C81.3278 34.7344 81.056 36.1009 81.056 37.481L74.0869 37.481Z" fill="#929498"/>
<path d="M74.0869 37.481C74.0869 33.9807 75.1379 30.5611 77.1037 27.665C79.0695 24.7689 81.8596 22.5298 85.1126 21.2376C88.3655 19.9454 91.9316 19.6597 95.3488 20.4174C98.7661 21.1752 101.877 22.9416 104.279 25.4878L99.2094 30.2698C97.7653 28.7389 95.8947 27.6769 93.8401 27.2212C91.7854 26.7656 89.6413 26.9374 87.6853 27.7143C85.7294 28.4913 84.0518 29.8376 82.8699 31.579C81.6879 33.3203 81.056 35.3764 81.056 37.481L74.0869 37.481Z" fill="#BFBFBF"/>
<path d="M74.0869 37.481C74.0869 34.6641 74.7677 31.8891 76.0714 29.3921C77.375 26.8951 79.2628 24.7501 81.5741 23.14L85.5578 28.8582C84.1681 29.8263 83.033 31.116 82.2492 32.6174C81.4653 34.1187 81.056 35.7873 81.056 37.481L74.0869 37.481Z" fill="#F2F3F0"/>
<path d="M74.0869 37.481C74.0869 35.0165 74.6081 32.58 75.6162 30.3312L81.9755 33.182C81.3694 34.5342 81.056 35.9992 81.056 37.481L74.0869 37.481Z" fill="#BFBFBF"/>
</g>
<rect x="120.016" y="12.5156" width="47.8245" height="33.5518" rx="3" fill="#E8E8E8"/>
<g opacity="0.6">
<path d="M126.397 37.481C126.397 35.1857 126.85 32.9129 127.728 30.7924C128.606 28.6719 129.894 26.7451 131.517 25.1221C133.14 23.4991 135.066 22.2117 137.187 21.3334C139.307 20.455 141.58 20.0029 143.875 20.0029C146.171 20.0029 148.444 20.455 150.564 21.3334C152.685 22.2117 154.611 23.4992 156.234 25.1221C157.857 26.7451 159.145 28.6719 160.023 30.7924C160.901 32.9129 161.354 35.1857 161.354 37.481L154.384 37.481C154.384 36.1009 154.113 34.7344 153.584 33.4594C153.056 32.1844 152.282 31.0259 151.306 30.05C150.331 29.0742 149.172 28.3001 147.897 27.772C146.622 27.2438 145.256 26.972 143.875 26.972C142.495 26.972 141.129 27.2438 139.854 27.772C138.579 28.3001 137.42 29.0742 136.445 30.05C135.469 31.0259 134.695 32.1844 134.166 33.4594C133.638 34.7344 133.367 36.1009 133.367 37.481L126.397 37.481Z" fill="#929498"/>
<path d="M126.397 37.481C126.397 33.9807 127.448 30.5611 129.414 27.665C131.38 24.7689 134.17 22.5298 137.423 21.2376C140.676 19.9454 144.242 19.6597 147.659 20.4174C151.077 21.1752 154.188 22.9416 156.589 25.4878L151.52 30.2698C150.076 28.7389 148.205 27.6769 146.151 27.2212C144.096 26.7656 141.952 26.9374 139.996 27.7143C138.04 28.4913 136.362 29.8376 135.18 31.579C133.998 33.3203 133.367 35.3764 133.367 37.481L126.397 37.481Z" fill="#BFBFBF"/>
<path d="M126.397 37.481C126.397 35.1857 126.85 32.9129 127.728 30.7924C128.606 28.6719 129.894 26.7451 131.517 25.1221C133.14 23.4991 135.066 22.2117 137.187 21.3334C139.307 20.455 141.58 20.0029 143.875 20.0029L143.875 26.972C142.495 26.972 141.129 27.2438 139.854 27.772C138.579 28.3001 137.42 29.0742 136.445 30.05C135.469 31.0259 134.695 32.1844 134.166 33.4594C133.638 34.7344 133.367 36.1009 133.367 37.481L126.397 37.481Z" fill="#D6D6D6"/>
<path d="M126.397 37.481C126.397 34.6641 127.078 31.8891 128.382 29.3921C129.686 26.8951 131.573 24.7501 133.885 23.14L137.868 28.8582C136.479 29.8263 135.344 31.116 134.56 32.6174C133.776 34.1187 133.367 35.7873 133.367 37.481L126.397 37.481Z" fill="#F2F3F0"/>
<path d="M126.397 37.481C126.397 35.0165 126.919 32.58 127.927 30.3312L134.286 33.182C133.68 34.5342 133.367 35.9992 133.367 37.481L126.397 37.481Z" fill="#BFBFBF"/>
</g>
<rect x="15.2896" y="49.2402" width="228.293" height="31.9358" rx="3" fill="#E8E8E8"/>
<g opacity="0.8">
<rect x="20.2319" y="66.332" width="1.35126" height="13.411" fill="white"/>
<rect x="21.7764" y="71.0176" width="1.35126" height="8.72524" fill="#EFECE0"/>
<rect x="24.4785" y="69.0781" width="1.35126" height="10.6642" fill="white"/>
<rect x="26.0229" y="68.1094" width="1.35126" height="11.6336" fill="#EFECE0"/>
<rect x="29.1118" y="71.6641" width="1.15822" height="8.07892" fill="white"/>
<rect x="30.4629" y="70.3711" width="1.15822" height="9.37155" fill="#EFECE0"/>
<rect x="33.3584" y="61.1602" width="1.35126" height="18.5815" fill="white"/>
<rect x="34.9028" y="66.332" width="1.35126" height="13.411" fill="#EFECE0"/>
<rect x="37.7983" y="66.4941" width="1.35126" height="13.2494" fill="white"/>
<rect x="39.3423" y="59.5449" width="1.35126" height="20.1973" fill="#EFECE0"/>
<rect x="42.4312" y="53.082" width="1.15822" height="26.6604" fill="white"/>
<rect x="43.7822" y="67.7852" width="1.15822" height="11.9568" fill="#EFECE0"/>
<rect x="46.8711" y="71.6641" width="1.15822" height="8.07892" fill="white"/>
<rect x="48.2227" y="64.2305" width="1.15822" height="15.5115" fill="#EFECE0"/>
<rect x="51.1177" y="69.0781" width="1.35126" height="10.6642" fill="white"/>
<rect x="52.6621" y="62.293" width="1.35126" height="17.4505" fill="#EFECE0"/>
<rect x="55.5576" y="58.4141" width="1.35126" height="21.3284" fill="white"/>
<rect x="57.1021" y="61.6445" width="1.35126" height="18.0968" fill="#EFECE0"/>
<rect x="60.1904" y="53.082" width="1.15822" height="26.6604" fill="white"/>
<rect x="61.542" y="69.7246" width="1.15822" height="10.0179" fill="#EFECE0"/>
<rect x="64.4375" y="63.7461" width="1.35126" height="15.9963" fill="white"/>
<rect x="65.9819" y="71.3398" width="1.35126" height="8.40208" fill="#EFECE0"/>
<rect x="68.4912" y="58.4141" width="1.35126" height="21.3284" fill="white"/>
<rect x="70.0352" y="73.1172" width="1.35126" height="6.62472" fill="#EFECE0"/>
</g>
<g opacity="0.8">
<rect x="72.5508" y="66.332" width="1.35126" height="13.411" fill="white"/>
<rect x="74.0952" y="71.0176" width="1.35126" height="8.72524" fill="#EFECE0"/>
<rect x="76.7974" y="69.0781" width="1.35126" height="10.6642" fill="white"/>
<rect x="78.3418" y="68.1094" width="1.35126" height="11.6336" fill="#EFECE0"/>
<rect x="81.4307" y="71.6641" width="1.15822" height="8.07892" fill="white"/>
<rect x="82.7817" y="70.3711" width="1.15822" height="9.37155" fill="#EFECE0"/>
<rect x="85.6772" y="61.1602" width="1.35126" height="18.5815" fill="white"/>
<rect x="87.2217" y="66.332" width="1.35126" height="13.411" fill="#EFECE0"/>
<rect x="90.1172" y="66.4941" width="1.35126" height="13.2494" fill="white"/>
<rect x="91.6611" y="59.5449" width="1.35126" height="20.1973" fill="#EFECE0"/>
<rect x="94.75" y="53.082" width="1.15822" height="26.6604" fill="white"/>
<rect x="96.1011" y="67.7852" width="1.15822" height="11.9568" fill="#EFECE0"/>
<rect x="99.1899" y="71.6641" width="1.15822" height="8.07892" fill="white"/>
<rect x="100.541" y="64.2305" width="1.15822" height="15.5115" fill="#EFECE0"/>
<rect x="103.437" y="69.0781" width="1.35126" height="10.6642" fill="white"/>
<rect x="104.981" y="62.293" width="1.35126" height="17.4505" fill="#EFECE0"/>
<rect x="107.876" y="58.4141" width="1.35126" height="21.3284" fill="white"/>
<rect x="109.421" y="61.6445" width="1.35126" height="18.0968" fill="#EFECE0"/>
<rect x="112.509" y="53.082" width="1.15822" height="26.6604" fill="white"/>
<rect x="113.861" y="69.7246" width="1.15822" height="10.0179" fill="#EFECE0"/>
<rect x="116.756" y="63.7461" width="1.35126" height="15.9963" fill="white"/>
<rect x="118.301" y="71.3398" width="1.35126" height="8.40208" fill="#EFECE0"/>
<rect x="120.81" y="58.4141" width="1.35126" height="21.3284" fill="white"/>
<rect x="122.354" y="73.1172" width="1.35126" height="6.62472" fill="#EFECE0"/>
</g>
<g opacity="0.8">
<rect x="124.87" y="61.1602" width="1.35126" height="18.5815" fill="white"/>
<rect x="126.414" y="66.332" width="1.35126" height="13.411" fill="#EFECE0"/>
<rect x="129.31" y="66.4941" width="1.35126" height="13.2494" fill="white"/>
<rect x="130.854" y="59.5449" width="1.35126" height="20.1973" fill="#EFECE0"/>
<rect x="133.942" y="53.082" width="1.15822" height="26.6604" fill="white"/>
<rect x="135.293" y="67.7852" width="1.15822" height="11.9568" fill="#EFECE0"/>
<rect x="138.382" y="71.6641" width="1.15822" height="8.07892" fill="white"/>
<rect x="139.734" y="64.2305" width="1.15822" height="15.5115" fill="#EFECE0"/>
<rect x="142.629" y="69.0781" width="1.35126" height="10.6642" fill="white"/>
<rect x="144.174" y="62.293" width="1.35126" height="17.4505" fill="#EFECE0"/>
<rect x="147.069" y="58.4141" width="1.35126" height="21.3284" fill="white"/>
<rect x="148.613" y="61.6445" width="1.35126" height="18.0968" fill="#EFECE0"/>
<rect x="151.702" y="53.082" width="1.15822" height="26.6604" fill="white"/>
<rect x="153.053" y="69.7246" width="1.15822" height="10.0179" fill="#EFECE0"/>
<rect x="155.949" y="63.7461" width="1.35126" height="15.9963" fill="white"/>
<rect x="157.493" y="71.3398" width="1.35126" height="8.40208" fill="#EFECE0"/>
<rect x="160.002" y="58.4141" width="1.35126" height="21.3284" fill="white"/>
<rect x="161.547" y="73.1172" width="1.35126" height="6.62472" fill="#EFECE0"/>
</g>
<g opacity="0.8">
<rect x="164.062" y="66.332" width="1.35126" height="13.411" fill="white"/>
<rect x="165.606" y="71.0176" width="1.35126" height="8.72524" fill="#EFECE0"/>
<rect x="168.308" y="69.0781" width="1.35126" height="10.6642" fill="white"/>
<rect x="169.853" y="68.1094" width="1.35126" height="11.6336" fill="#EFECE0"/>
<rect x="172.941" y="71.6641" width="1.15822" height="8.07892" fill="white"/>
<rect x="174.292" y="70.3711" width="1.15822" height="9.37155" fill="#EFECE0"/>
<rect x="177.188" y="61.1602" width="1.35126" height="18.5815" fill="white"/>
<rect x="178.732" y="66.332" width="1.35126" height="13.411" fill="#EFECE0"/>
<rect x="181.628" y="66.4941" width="1.35126" height="13.2494" fill="white"/>
<rect x="183.172" y="59.5449" width="1.35126" height="20.1973" fill="#EFECE0"/>
<rect x="186.261" y="53.082" width="1.15822" height="26.6604" fill="white"/>
<rect x="187.612" y="67.7852" width="1.15822" height="11.9568" fill="#EFECE0"/>
<rect x="190.701" y="71.6641" width="1.15822" height="8.07892" fill="white"/>
<rect x="192.052" y="64.2305" width="1.15822" height="15.5115" fill="#EFECE0"/>
<rect x="194.947" y="69.0781" width="1.35126" height="10.6642" fill="white"/>
<rect x="196.492" y="62.293" width="1.35126" height="17.4505" fill="#EFECE0"/>
<rect x="199.387" y="58.4141" width="1.35126" height="21.3284" fill="white"/>
<rect x="200.932" y="61.6445" width="1.35126" height="18.0968" fill="#EFECE0"/>
<rect x="204.02" y="53.082" width="1.15822" height="26.6604" fill="white"/>
<rect x="205.372" y="69.7246" width="1.15822" height="10.0179" fill="#EFECE0"/>
<rect x="208.267" y="63.7461" width="1.35126" height="15.9963" fill="white"/>
<rect x="209.812" y="71.3398" width="1.35126" height="8.40208" fill="#EFECE0"/>
<rect x="212.321" y="58.4141" width="1.35126" height="21.3284" fill="white"/>
<rect x="213.865" y="73.1172" width="1.35126" height="6.62472" fill="#EFECE0"/>
</g>
<g opacity="0.8">
<rect x="216.381" y="61.1602" width="1.35126" height="18.5815" fill="white"/>
<rect x="217.925" y="66.332" width="1.35126" height="13.411" fill="#EFECE0"/>
<rect x="220.821" y="66.4941" width="1.35126" height="13.2494" fill="white"/>
<rect x="222.365" y="59.5449" width="1.35126" height="20.1973" fill="#EFECE0"/>
<rect x="225.453" y="53.082" width="1.15822" height="26.6604" fill="white"/>
<rect x="226.805" y="67.7852" width="1.15822" height="11.9568" fill="#EFECE0"/>
<rect x="229.893" y="71.6641" width="1.15822" height="8.07892" fill="white"/>
<rect x="231.245" y="64.2305" width="1.15822" height="15.5115" fill="#EFECE0"/>
<rect x="234.14" y="69.0781" width="1.35126" height="10.6642" fill="white"/>
<rect x="235.685" y="62.293" width="1.35126" height="17.4505" fill="#EFECE0"/>
<rect x="238.58" y="58.4141" width="1.35126" height="21.3284" fill="white"/>
</g>
<g opacity="0.6">
<path d="M35.4528 40.5302C32.5488 39.5615 30.1325 37.5064 28.7103 34.7956C27.288 32.0847 26.9703 28.9286 27.8236 25.9886L39.2018 29.2912L35.4528 40.5302Z" fill="#CACACA"/>
<path d="M50.2016 33.6947C49.0642 36.5368 46.8709 38.8284 44.0813 40.0892C41.2917 41.35 38.1223 41.482 35.2375 40.4577L39.2018 29.2928L50.2016 33.6947Z" fill="#CACACA"/>
<path d="M28.4124 34.1865C27.1477 31.3987 27.0112 28.2295 28.0315 25.3433C29.0517 22.457 31.1496 20.0777 33.8853 18.7039L39.202 29.2919L28.4124 34.1865Z" fill="#A3A3A3"/>
<path d="M50.8906 27.3568C51.3397 30.069 50.8316 32.8528 49.4535 35.2315C48.0754 37.6102 45.913 39.4356 43.3368 40.395L39.2019 29.2922L50.8906 27.3568Z" fill="#A3A3A3"/>
<path d="M29.5213 22.4622C31.2149 20.062 33.7398 18.3765 36.606 17.7328C39.4722 17.0892 42.4753 17.5333 45.0325 18.9789L39.202 29.2928L29.5213 22.4622Z" fill="white" fill-opacity="0.8"/>
<path d="M43.2947 18.1735C44.8954 18.7627 46.35 19.6905 47.5591 20.8935C48.7682 22.0966 49.7033 23.5465 50.3004 25.1442C50.8976 26.7419 51.1427 28.4498 51.0191 30.1509C50.8954 31.8521 50.4059 33.5065 49.5841 35.0011L39.2024 29.2922L43.2947 18.1735Z" fill="#585C62"/>
</g>
<rect x="175.029" y="12.5156" width="68.5536" height="33.5518" rx="3" fill="#E8E8E8"/>
<g opacity="0.9">
<path d="M178.634 30.5412C180.273 29.6219 184.055 26.8975 186.067 23.3541C188.583 18.9249 192.815 11.4036 196.474 18.1728C200.134 24.942 203.107 32.3797 209.168 33.1318C215.229 33.884 214.543 27.3655 217.173 27.3655C219.804 27.3655 220.032 39.3996 225.293 39.3996C230.553 39.3996 230.668 18.1728 239.931 18.1728" stroke="#CFCFCF" stroke-width="0.5"/>
<path opacity="0.2" d="M186.067 23.3093C184.055 26.908 180.273 29.6749 178.634 30.6086V43.1359H239.931V18.0471C230.668 18.0471 230.553 39.6053 225.293 39.6053C220.032 39.6053 219.804 27.3833 217.173 27.3833C214.543 27.3833 215.229 34.0036 209.168 33.2397C203.107 32.4758 200.134 24.9219 196.474 18.0471C192.834 11.2092 188.629 18.7291 186.108 23.2364L186.067 23.3093Z" fill="#CFCFCF"/>
<path opacity="0.2" d="M187.685 32.8885C185.765 30.1331 180.788 28.2121 178.539 27.5961V43.1372H239.931V39.693C231.7 39.693 225.64 26.756 224.84 24.7399C224.04 22.7237 222.211 18.5234 217.181 18.5234C212.15 18.5234 207.92 26.924 203.004 31.8804C198.089 36.8368 195.802 36.6687 194.202 36.6687C192.601 36.6687 190.086 36.3327 187.685 32.8885Z" fill="white"/>
<path d="M178.539 27.3726C180.788 27.9851 185.765 29.8951 187.685 32.6348C190.086 36.0595 192.601 36.3936 194.202 36.3936C195.802 36.3936 198.089 36.5606 203.004 31.6325C207.92 26.7043 212.15 18.3516 217.181 18.3516C222.211 18.3516 224.04 22.528 224.84 24.5326C225.64 26.5373 231.7 39.4006 239.931 39.4006" stroke="white" stroke-width="0.5"/>
<path d="M178.539 39.5721C181.583 38.3886 188.905 34.821 193.836 30.0191C200.001 24.0168 199.202 18.1836 201.37 18.1836C203.539 18.1836 205.823 33.4007 217.01 33.4007C228.197 33.4007 225.457 24.2704 232.649 24.2704C238.403 24.2704 239.901 24.2704 239.931 24.2704" stroke="#CFCFCF" stroke-width="0.5"/>
<path opacity="0.2" d="M193.836 30.0661C188.905 34.887 181.583 38.4687 178.539 39.657V43.1369H239.931V24.2946H232.649C225.457 24.2946 228.197 33.4611 217.01 33.4611C205.823 33.4611 203.539 18.1836 201.37 18.1836C199.202 18.1836 200.001 24.04 193.836 30.0661Z" fill="#CFCFCF"/>
</g>
</svg>
