<svg width="257" height="94" viewBox="0 0 257 94" fill="none" xmlns="http://www.w3.org/2000/svg">
<rect x="0.0878906" y="0.773438" width="256.339" height="93.0254" rx="7" fill="white"/>
<rect x="14.6562" y="12.9551" width="47.8245" height="33.5518" rx="3" fill="#D8F68E"/>
<rect x="67.0186" y="12.9551" width="47.8245" height="33.5518" rx="3" fill="#D8F68E"/>
<g opacity="0.6">
<path d="M73.4531 37.9204C73.4531 35.6252 73.9052 33.3524 74.7836 31.2319C75.6619 29.1113 76.9493 27.1846 78.5723 25.5616C80.1953 23.9386 82.1221 22.6512 84.2426 21.7728C86.3631 20.8945 88.6359 20.4424 90.9312 20.4424C93.2264 20.4424 95.4992 20.8945 97.6197 21.7728C99.7402 22.6512 101.667 23.9386 103.29 25.5616C104.913 27.1846 106.2 29.1113 107.079 31.2319C107.957 33.3524 108.409 35.6252 108.409 37.9204L101.44 37.9204C101.44 36.5404 101.168 35.1738 100.64 33.8988C100.112 32.6238 99.338 31.4653 98.3621 30.4895C97.3863 29.5136 96.2278 28.7395 94.9528 28.2114C93.6778 27.6833 92.3112 27.4115 90.9312 27.4115C89.5511 27.4115 88.1846 27.6833 86.9096 28.2114C85.6345 28.7395 84.4761 29.5136 83.5002 30.4895C82.5244 31.4653 81.7503 32.6238 81.2221 33.8988C80.694 35.1738 80.4222 36.5404 80.4222 37.9204L73.4531 37.9204Z" fill="#B2ED1D"/>
<path d="M73.4531 37.9204C73.4531 34.4202 74.5041 31.0005 76.4699 28.1045C78.4357 25.2084 81.2258 22.9692 84.4788 21.677C87.7318 20.3848 91.2978 20.0991 94.715 20.8569C98.1323 21.6147 101.243 23.381 103.645 25.9272L98.5756 30.7093C97.1315 29.1784 95.2609 28.1163 93.2063 27.6607C91.1516 27.2051 89.0075 27.3769 87.0515 28.1538C85.0956 28.9308 83.418 30.2771 82.2361 32.0184C81.0541 33.7597 80.4222 35.8158 80.4222 37.9204L73.4531 37.9204Z" fill="#94C518"/>
<path d="M73.4531 37.9204C73.4531 35.1036 74.1339 32.3285 75.4376 29.8315C76.7412 27.3345 78.629 25.1896 80.9403 23.5794L84.924 29.2977C83.5343 30.2658 82.3992 31.5555 81.6154 33.0568C80.8316 34.5582 80.4222 36.2268 80.4222 37.9204L73.4531 37.9204Z" fill="#66841C"/>
<path d="M73.4531 37.9204C73.4531 35.456 73.9743 33.0194 74.9824 30.7707L81.3417 33.6215C80.7356 34.9736 80.4222 36.4386 80.4222 37.9204L73.4531 37.9204Z" fill="#94C518"/>
</g>
<rect x="119.382" y="12.9551" width="47.8245" height="33.5518" rx="3" fill="#D8F68E"/>
<g opacity="0.6">
<path d="M125.765 37.9204C125.765 35.6252 126.217 33.3524 127.095 31.2319C127.973 29.1113 129.261 27.1846 130.884 25.5616C132.507 23.9386 134.434 22.6512 136.554 21.7728C138.675 20.8945 140.947 20.4424 143.243 20.4424C145.538 20.4424 147.811 20.8945 149.931 21.7728C152.052 22.6512 153.979 23.9386 155.602 25.5616C157.224 27.1846 158.512 29.1113 159.39 31.2319C160.269 33.3524 160.721 35.6252 160.721 37.9204L153.752 37.9204C153.752 36.5404 153.48 35.1738 152.952 33.8988C152.424 32.6238 151.649 31.4653 150.674 30.4895C149.698 29.5136 148.539 28.7395 147.264 28.2114C145.989 27.6833 144.623 27.4115 143.243 27.4115C141.863 27.4115 140.496 27.6833 139.221 28.2114C137.946 28.7395 136.788 29.5136 135.812 30.4895C134.836 31.4653 134.062 32.6238 133.534 33.8988C133.006 35.1738 132.734 36.5404 132.734 37.9204L125.765 37.9204Z" fill="#B2ED1D"/>
<path d="M125.765 37.9204C125.765 34.4202 126.816 31.0005 128.781 28.1045C130.747 25.2084 133.537 22.9692 136.79 21.677C140.043 20.3848 143.609 20.0991 147.027 20.8569C150.444 21.6147 153.555 23.381 155.957 25.9272L150.887 30.7093C149.443 29.1784 147.572 28.1163 145.518 27.6607C143.463 27.2051 141.319 27.3769 139.363 28.1538C137.407 28.9308 135.73 30.2771 134.548 32.0184C133.366 33.7597 132.734 35.8158 132.734 37.9204L125.765 37.9204Z" fill="#94C518"/>
<path d="M125.765 37.9204C125.765 35.6252 126.217 33.3524 127.095 31.2319C127.973 29.1113 129.261 27.1846 130.884 25.5616C132.507 23.9386 134.434 22.6512 136.554 21.7728C138.675 20.8945 140.947 20.4424 143.243 20.4424L143.243 27.4115C141.863 27.4115 140.496 27.6833 139.221 28.2114C137.946 28.7395 136.788 29.5136 135.812 30.4895C134.836 31.4653 134.062 32.6238 133.534 33.8988C133.006 35.1738 132.734 36.5404 132.734 37.9204L125.765 37.9204Z" fill="#F0FBD2"/>
<path d="M125.765 37.9204C125.765 35.1036 126.445 32.3285 127.749 29.8315C129.053 27.3345 130.941 25.1896 133.252 23.5794L137.235 29.2977C135.846 30.2658 134.711 31.5555 133.927 33.0568C133.143 34.5582 132.734 36.2268 132.734 37.9204L125.765 37.9204Z" fill="#66841C"/>
<path d="M125.765 37.9204C125.765 35.456 126.286 33.0194 127.294 30.7707L133.653 33.6215C133.047 34.9736 132.734 36.4386 132.734 37.9204L125.765 37.9204Z" fill="#94C518"/>
</g>
<rect x="13.127" y="50.8027" width="228.293" height="31.9358" rx="3" fill="#D8F68E"/>
<g opacity="0.8">
<rect x="19.5986" y="66.7715" width="1.35126" height="13.411" fill="#93B14A"/>
<rect x="21.1426" y="71.457" width="1.35126" height="8.72524" fill="#F0FBD2"/>
<rect x="23.8457" y="69.5176" width="1.35126" height="10.6642" fill="#93B14A"/>
<rect x="25.3896" y="68.5488" width="1.35126" height="11.6336" fill="#F0FBD2"/>
<rect x="28.4785" y="72.1035" width="1.15822" height="8.07892" fill="#93B14A"/>
<rect x="29.8301" y="70.8105" width="1.15822" height="9.37155" fill="#F0FBD2"/>
<rect x="32.7246" y="61.5996" width="1.35126" height="18.5815" fill="#93B14A"/>
<rect x="34.2695" y="66.7715" width="1.35126" height="13.411" fill="#F0FBD2"/>
<rect x="37.165" y="66.9336" width="1.35126" height="13.2494" fill="#93B14A"/>
<rect x="38.709" y="59.9844" width="1.35126" height="20.1973" fill="#F0FBD2"/>
<rect x="41.7979" y="53.5215" width="1.15822" height="26.6604" fill="#93B14A"/>
<rect x="43.1494" y="68.2246" width="1.15822" height="11.9568" fill="#F0FBD2"/>
<rect x="46.2383" y="72.1035" width="1.15822" height="8.07892" fill="#93B14A"/>
<rect x="47.5889" y="64.6699" width="1.15822" height="15.5115" fill="#F0FBD2"/>
<rect x="50.4844" y="69.5176" width="1.35126" height="10.6642" fill="#93B14A"/>
<rect x="52.0293" y="62.7324" width="1.35126" height="17.4505" fill="#F0FBD2"/>
<rect x="54.9238" y="58.8535" width="1.35126" height="21.3284" fill="#93B14A"/>
<rect x="56.4688" y="62.084" width="1.35126" height="18.0968" fill="#F0FBD2"/>
<rect x="59.5576" y="53.5215" width="1.15822" height="26.6604" fill="#93B14A"/>
<rect x="60.9082" y="70.1641" width="1.15822" height="10.0179" fill="#F0FBD2"/>
<rect x="63.8037" y="64.1855" width="1.35126" height="15.9963" fill="#93B14A"/>
<rect x="65.3486" y="71.7793" width="1.35126" height="8.40208" fill="#F0FBD2"/>
<rect x="67.8584" y="58.8535" width="1.35126" height="21.3284" fill="#93B14A"/>
<rect x="69.4023" y="73.5566" width="1.35126" height="6.62472" fill="#F0FBD2"/>
</g>
<g opacity="0.8">
<rect x="71.917" y="66.7715" width="1.35126" height="13.411" fill="#93B14A"/>
<rect x="73.4609" y="71.457" width="1.35126" height="8.72524" fill="#F0FBD2"/>
<rect x="76.1641" y="69.5176" width="1.35126" height="10.6642" fill="#93B14A"/>
<rect x="77.708" y="68.5488" width="1.35126" height="11.6336" fill="#F0FBD2"/>
<rect x="80.7969" y="72.1035" width="1.15822" height="8.07892" fill="#93B14A"/>
<rect x="82.1484" y="70.8105" width="1.15822" height="9.37155" fill="#F0FBD2"/>
<rect x="85.043" y="61.5996" width="1.35126" height="18.5815" fill="#93B14A"/>
<rect x="86.5879" y="66.7715" width="1.35126" height="13.411" fill="#F0FBD2"/>
<rect x="89.4834" y="66.9336" width="1.35126" height="13.2494" fill="#93B14A"/>
<rect x="91.0273" y="59.9844" width="1.35126" height="20.1973" fill="#F0FBD2"/>
<rect x="94.1162" y="53.5215" width="1.15822" height="26.6604" fill="#93B14A"/>
<rect x="95.4678" y="68.2246" width="1.15822" height="11.9568" fill="#F0FBD2"/>
<rect x="98.5566" y="72.1035" width="1.15822" height="8.07892" fill="#93B14A"/>
<rect x="99.9072" y="64.6699" width="1.15822" height="15.5115" fill="#F0FBD2"/>
<rect x="102.803" y="69.5176" width="1.35126" height="10.6642" fill="#93B14A"/>
<rect x="104.348" y="62.7324" width="1.35126" height="17.4505" fill="#F0FBD2"/>
<rect x="107.242" y="58.8535" width="1.35126" height="21.3284" fill="#93B14A"/>
<rect x="108.787" y="62.084" width="1.35126" height="18.0968" fill="#F0FBD2"/>
<rect x="111.876" y="53.5215" width="1.15822" height="26.6604" fill="#93B14A"/>
<rect x="113.227" y="70.1641" width="1.15822" height="10.0179" fill="#F0FBD2"/>
<rect x="116.122" y="64.1855" width="1.35126" height="15.9963" fill="#93B14A"/>
<rect x="117.667" y="71.7793" width="1.35126" height="8.40208" fill="#F0FBD2"/>
<rect x="120.177" y="58.8535" width="1.35126" height="21.3284" fill="#93B14A"/>
<rect x="121.721" y="73.5566" width="1.35126" height="6.62472" fill="#F0FBD2"/>
</g>
<g opacity="0.8">
<rect x="124.236" y="61.5996" width="1.35126" height="18.5815" fill="#93B14A"/>
<rect x="125.781" y="66.7715" width="1.35126" height="13.411" fill="#F0FBD2"/>
<rect x="128.677" y="66.9336" width="1.35126" height="13.2494" fill="#93B14A"/>
<rect x="130.221" y="59.9844" width="1.35126" height="20.1973" fill="#F0FBD2"/>
<rect x="133.31" y="53.5215" width="1.15822" height="26.6604" fill="#93B14A"/>
<rect x="134.66" y="68.2246" width="1.15822" height="11.9568" fill="#F0FBD2"/>
<rect x="137.749" y="72.1035" width="1.15822" height="8.07892" fill="#93B14A"/>
<rect x="139.101" y="64.6699" width="1.15822" height="15.5115" fill="#F0FBD2"/>
<rect x="141.996" y="69.5176" width="1.35126" height="10.6642" fill="#93B14A"/>
<rect x="143.54" y="62.7324" width="1.35126" height="17.4505" fill="#F0FBD2"/>
<rect x="146.436" y="58.8535" width="1.35126" height="21.3284" fill="#93B14A"/>
<rect x="147.98" y="62.084" width="1.35126" height="18.0968" fill="#F0FBD2"/>
<rect x="151.068" y="53.5215" width="1.15822" height="26.6604" fill="#93B14A"/>
<rect x="152.42" y="70.1641" width="1.15822" height="10.0179" fill="#F0FBD2"/>
<rect x="155.315" y="64.1855" width="1.35126" height="15.9963" fill="#93B14A"/>
<rect x="156.859" y="71.7793" width="1.35126" height="8.40208" fill="#F0FBD2"/>
<rect x="159.369" y="58.8535" width="1.35126" height="21.3284" fill="#93B14A"/>
<rect x="160.913" y="73.5566" width="1.35126" height="6.62472" fill="#F0FBD2"/>
</g>
<g opacity="0.8">
<rect x="163.428" y="66.7715" width="1.35126" height="13.411" fill="#93B14A"/>
<rect x="164.972" y="71.457" width="1.35126" height="8.72524" fill="#F0FBD2"/>
<rect x="167.675" y="69.5176" width="1.35126" height="10.6642" fill="#93B14A"/>
<rect x="169.219" y="68.5488" width="1.35126" height="11.6336" fill="#F0FBD2"/>
<rect x="172.308" y="72.1035" width="1.15822" height="8.07892" fill="#93B14A"/>
<rect x="173.659" y="70.8105" width="1.15822" height="9.37155" fill="#F0FBD2"/>
<rect x="176.554" y="61.5996" width="1.35126" height="18.5815" fill="#93B14A"/>
<rect x="178.099" y="66.7715" width="1.35126" height="13.411" fill="#F0FBD2"/>
<rect x="180.994" y="66.9336" width="1.35126" height="13.2494" fill="#93B14A"/>
<rect x="182.538" y="59.9844" width="1.35126" height="20.1973" fill="#F0FBD2"/>
<rect x="185.627" y="53.5215" width="1.15822" height="26.6604" fill="#93B14A"/>
<rect x="186.979" y="68.2246" width="1.15822" height="11.9568" fill="#F0FBD2"/>
<rect x="190.066" y="72.1035" width="1.15822" height="8.07892" fill="#93B14A"/>
<rect x="191.418" y="64.6699" width="1.15822" height="15.5115" fill="#F0FBD2"/>
<rect x="194.313" y="69.5176" width="1.35126" height="10.6642" fill="#93B14A"/>
<rect x="195.858" y="62.7324" width="1.35126" height="17.4505" fill="#F0FBD2"/>
<rect x="198.754" y="58.8535" width="1.35126" height="21.3284" fill="#93B14A"/>
<rect x="200.298" y="62.084" width="1.35126" height="18.0968" fill="#F0FBD2"/>
<rect x="203.387" y="53.5215" width="1.15822" height="26.6604" fill="#93B14A"/>
<rect x="204.738" y="70.1641" width="1.15822" height="10.0179" fill="#F0FBD2"/>
<rect x="207.633" y="64.1855" width="1.35126" height="15.9963" fill="#93B14A"/>
<rect x="209.178" y="71.7793" width="1.35126" height="8.40208" fill="#F0FBD2"/>
<rect x="211.688" y="58.8535" width="1.35126" height="21.3284" fill="#93B14A"/>
<rect x="213.231" y="73.5566" width="1.35126" height="6.62472" fill="#F0FBD2"/>
</g>
<g opacity="0.8">
<rect x="215.747" y="61.5996" width="1.35126" height="18.5815" fill="#93B14A"/>
<rect x="217.292" y="66.7715" width="1.35126" height="13.411" fill="#F0FBD2"/>
<rect x="220.188" y="66.9336" width="1.35126" height="13.2494" fill="#93B14A"/>
<rect x="221.731" y="59.9844" width="1.35126" height="20.1973" fill="#F0FBD2"/>
<rect x="224.82" y="53.5215" width="1.15822" height="26.6604" fill="#93B14A"/>
<rect x="226.171" y="68.2246" width="1.15822" height="11.9568" fill="#F0FBD2"/>
<rect x="229.26" y="72.1035" width="1.15822" height="8.07892" fill="#93B14A"/>
<rect x="230.611" y="64.6699" width="1.15822" height="15.5115" fill="#F0FBD2"/>
<rect x="233.507" y="69.5176" width="1.35126" height="10.6642" fill="#93B14A"/>
<rect x="235.051" y="62.7324" width="1.35126" height="17.4505" fill="#F0FBD2"/>
<rect x="237.946" y="58.8535" width="1.35126" height="21.3284" fill="#93B14A"/>
</g>
<g opacity="0.6">
<path d="M34.8195 40.9697C31.9155 40.001 29.4992 37.9459 28.077 35.235C26.6547 32.5242 26.337 29.368 27.1903 26.4281L38.5685 29.7307L34.8195 40.9697Z" fill="#F0FBD2"/>
<path d="M49.5683 34.1341C48.4309 36.9763 46.2376 39.2679 43.448 40.5286C40.6584 41.7894 37.489 41.9215 34.6042 40.8972L38.5685 29.7322L49.5683 34.1341Z" fill="#F0FBD2"/>
<path d="M27.7791 34.626C26.5144 31.8381 26.3779 28.669 27.3982 25.7827C28.4184 22.8965 30.5163 20.5171 33.252 19.1434L38.5687 29.7313L27.7791 34.626Z" fill="#94C518"/>
<path d="M50.2568 27.7963C50.7059 30.5084 50.1978 33.2923 48.8197 35.671C47.4416 38.0497 45.2792 39.8751 42.703 40.8345L38.5681 29.7316L50.2568 27.7963Z" fill="#94C518"/>
<path d="M28.8876 22.9017C30.5811 20.5014 33.106 18.8159 35.9722 18.1723C38.8384 17.5286 41.8415 17.9727 44.3987 19.4184L38.5682 29.7322L28.8876 22.9017Z" fill="#E6F9B7"/>
<path d="M42.6604 18.613C44.2611 19.2021 45.7157 20.1299 46.9248 21.333C48.1339 22.536 49.069 23.986 49.6661 25.5837C50.2633 27.1814 50.5084 28.8892 50.3848 30.5904C50.2612 32.2916 49.7717 33.946 48.9498 35.4406L38.5681 29.7316L42.6604 18.613Z" fill="#BFF043"/>
</g>
<rect x="174.396" y="12.9551" width="68.5536" height="33.5518" rx="3" fill="#D8F68E"/>
<g opacity="0.9">
<path d="M178.001 30.9826C179.64 30.0633 183.422 27.3389 185.434 23.7955C187.95 19.3663 192.182 11.845 195.841 18.6142C199.501 25.3834 202.474 32.8211 208.535 33.5732C214.596 34.3254 213.91 27.8069 216.54 27.8069C219.171 27.8069 219.399 39.841 224.66 39.841C229.92 39.841 230.035 18.6142 239.298 18.6142" stroke="#59770F" stroke-width="0.5"/>
<path opacity="0.2" d="M185.434 23.7507C183.422 27.3494 179.64 30.1164 178.001 31.05V43.5773H239.298V18.4885C230.035 18.4885 229.92 40.0467 224.66 40.0467C219.399 40.0467 219.171 27.8247 216.54 27.8247C213.91 27.8247 214.596 34.445 208.535 33.6811C202.474 32.9172 199.501 25.3634 195.841 18.4885C192.201 11.6506 187.996 19.1705 185.475 23.6778L185.434 23.7507Z" fill="#59770F"/>
<path opacity="0.2" d="M187.052 33.3299C185.131 30.5745 180.155 28.6535 177.906 28.0375V43.5786H239.298V40.1344C231.066 40.1344 225.007 27.1974 224.207 25.1813C223.407 23.1651 221.578 18.9648 216.547 18.9648C211.517 18.9648 207.287 27.3654 202.371 32.3218C197.455 37.2782 195.169 37.1101 193.569 37.1101C191.968 37.1101 189.453 36.7741 187.052 33.3299Z" fill="#C1F14A"/>
<path d="M177.906 27.814C180.155 28.4265 185.131 30.3365 187.052 33.0762C189.453 36.5009 191.968 36.835 193.569 36.835C195.169 36.835 197.455 37.002 202.371 32.0739C207.287 27.1458 211.517 18.793 216.547 18.793C221.578 18.793 223.407 22.9694 224.207 24.974C225.007 26.9787 231.066 39.842 239.298 39.842" stroke="#AFD947" stroke-width="0.5"/>
<path d="M177.906 40.0135C180.95 38.83 188.272 35.2624 193.203 30.4605C199.368 24.4582 198.568 18.625 200.737 18.625C202.906 18.625 205.189 33.8421 216.377 33.8421C227.564 33.8421 224.824 24.7119 232.016 24.7119C237.77 24.7119 239.268 24.7119 239.298 24.7119" stroke="#BFF043" stroke-width="0.5"/>
<path opacity="0.2" d="M193.203 30.5075C188.272 35.3284 180.95 38.9101 177.906 40.0984V43.5783H239.298V24.736H232.016C224.824 24.736 227.564 33.9025 216.377 33.9025C205.189 33.9025 202.906 18.625 200.737 18.625C198.568 18.625 199.368 24.4814 193.203 30.5075Z" fill="#BFF043" stroke="#BFF043" stroke-width="0.5"/>
</g>
</svg>
