<?xml version="1.0" encoding="UTF-8"?>
<svg xmlns="http://www.w3.org/2000/svg" width="21" height="21" viewBox="0 0 21 21" fill="none">
  <rect width="20" height="20" transform="translate(0.976562 0.861328)" fill="white" fill-opacity="0.01" style="mix-blend-mode:multiply"/>
  <path d="M10.9766 2.11133C9.24598 2.11133 7.55426 2.62451 6.11533 3.58597C4.6764 4.54743 3.55489 5.91399 2.89262 7.51285C2.23035 9.1117 2.05707 10.871 2.3947 12.5684C2.73232 14.2657 3.56567 15.8248 4.78938 17.0485C6.01309 18.2722 7.57219 19.1056 9.26953 19.4432C10.9669 19.7808 12.7262 19.6075 14.325 18.9453C15.9239 18.283 17.2905 17.1615 18.2519 15.7226C19.2134 14.2836 19.7266 12.5919 19.7266 10.8613C19.7266 8.54068 18.8047 6.31509 17.1637 4.67414C15.5228 3.0332 13.2972 2.11133 10.9766 2.11133ZM10.9766 5.86133C11.162 5.86133 11.3432 5.91631 11.4974 6.01933C11.6516 6.12234 11.7717 6.26876 11.8427 6.44006C11.9137 6.61137 11.9322 6.79987 11.8961 6.98173C11.8599 7.16358 11.7706 7.33063 11.6395 7.46174C11.5084 7.59285 11.3413 7.68214 11.1595 7.71831C10.9776 7.75449 10.7891 7.73592 10.6178 7.66497C10.4465 7.59401 10.3001 7.47385 10.1971 7.31967C10.094 7.1655 10.0391 6.98425 10.0391 6.79883C10.0391 6.55019 10.1378 6.31173 10.3137 6.13592C10.4895 5.9601 10.7279 5.86133 10.9766 5.86133ZM13.4766 15.9395H8.47657V14.5332H10.2734V10.9395H9.10157V9.5332H11.6797V14.5332H13.4766V15.9395Z" fill="#DA1E28"/>
</svg>